G75*
G70*
%OFA0B0*%
%FSLAX24Y24*%
%IPPOS*%
%LPD*%
%AMOC8*
5,1,8,0,0,1.08239X$1,22.5*
%
%ADD10C,0.0030*%
%ADD11C,0.0060*%
%ADD12C,0.0160*%
%ADD13C,0.0020*%
%ADD14C,0.0010*%
%ADD15C,0.0080*%
%ADD16C,0.0220*%
D10*
X001676Y000956D02*
X001821Y000956D01*
X001870Y001004D01*
X001870Y001053D01*
X001821Y001101D01*
X001676Y001101D01*
X001676Y000956D02*
X001676Y001246D01*
X001821Y001246D01*
X001870Y001198D01*
X001870Y001150D01*
X001821Y001101D01*
X001971Y001004D02*
X002164Y001198D01*
X002164Y001004D01*
X002116Y000956D01*
X002019Y000956D01*
X001971Y001004D01*
X001971Y001198D01*
X002019Y001246D01*
X002116Y001246D01*
X002164Y001198D01*
X002164Y001996D02*
X001971Y001996D01*
X002067Y001996D02*
X002067Y002286D01*
X001971Y002190D01*
X001870Y002190D02*
X001821Y002141D01*
X001676Y002141D01*
X001676Y001996D02*
X001821Y001996D01*
X001870Y002044D01*
X001870Y002093D01*
X001821Y002141D01*
X001870Y002190D02*
X001870Y002238D01*
X001821Y002286D01*
X001676Y002286D01*
X001676Y001996D01*
X001676Y003036D02*
X001821Y003036D01*
X001870Y003084D01*
X001870Y003133D01*
X001821Y003181D01*
X001676Y003181D01*
X001676Y003036D02*
X001676Y003326D01*
X001821Y003326D01*
X001870Y003278D01*
X001870Y003230D01*
X001821Y003181D01*
X001971Y003278D02*
X002019Y003326D01*
X002116Y003326D01*
X002164Y003278D01*
X002164Y003230D01*
X001971Y003036D01*
X002164Y003036D01*
X002116Y003996D02*
X002019Y003996D01*
X001971Y004044D01*
X001870Y004044D02*
X001870Y004093D01*
X001821Y004141D01*
X001676Y004141D01*
X001676Y003996D02*
X001821Y003996D01*
X001870Y004044D01*
X001821Y004141D02*
X001870Y004190D01*
X001870Y004238D01*
X001821Y004286D01*
X001676Y004286D01*
X001676Y003996D01*
X001971Y004238D02*
X002019Y004286D01*
X002116Y004286D01*
X002164Y004238D01*
X002164Y004190D01*
X002116Y004141D01*
X002164Y004093D01*
X002164Y004044D01*
X002116Y003996D01*
X002116Y004141D02*
X002067Y004141D01*
X002116Y004956D02*
X002116Y005246D01*
X001971Y005101D01*
X002164Y005101D01*
X001870Y005053D02*
X001870Y005004D01*
X001821Y004956D01*
X001676Y004956D01*
X001676Y005246D01*
X001821Y005246D01*
X001870Y005198D01*
X001870Y005150D01*
X001821Y005101D01*
X001676Y005101D01*
X001821Y005101D02*
X001870Y005053D01*
X001821Y005996D02*
X001676Y005996D01*
X001676Y006286D01*
X001821Y006286D01*
X001870Y006238D01*
X001870Y006190D01*
X001821Y006141D01*
X001676Y006141D01*
X001821Y006141D02*
X001870Y006093D01*
X001870Y006044D01*
X001821Y005996D01*
X001971Y006044D02*
X002019Y005996D01*
X002116Y005996D01*
X002164Y006044D01*
X002164Y006141D01*
X002116Y006190D01*
X002067Y006190D01*
X001971Y006141D01*
X001971Y006286D01*
X002164Y006286D01*
X002116Y007036D02*
X002164Y007084D01*
X002164Y007133D01*
X002116Y007181D01*
X001971Y007181D01*
X001971Y007084D01*
X002019Y007036D01*
X002116Y007036D01*
X001971Y007181D02*
X002067Y007278D01*
X002164Y007326D01*
X001870Y007278D02*
X001870Y007230D01*
X001821Y007181D01*
X001676Y007181D01*
X001676Y007036D02*
X001676Y007326D01*
X001821Y007326D01*
X001870Y007278D01*
X001821Y007181D02*
X001870Y007133D01*
X001870Y007084D01*
X001821Y007036D01*
X001676Y007036D01*
X001676Y007996D02*
X001821Y007996D01*
X001870Y008044D01*
X001870Y008093D01*
X001821Y008141D01*
X001676Y008141D01*
X001676Y007996D02*
X001676Y008286D01*
X001821Y008286D01*
X001870Y008238D01*
X001870Y008190D01*
X001821Y008141D01*
X001971Y008044D02*
X001971Y007996D01*
X001971Y008044D02*
X002164Y008238D01*
X002164Y008286D01*
X001971Y008286D01*
X002019Y009516D02*
X001971Y009564D01*
X002164Y009758D01*
X002164Y009564D01*
X002116Y009516D01*
X002019Y009516D01*
X001971Y009564D02*
X001971Y009758D01*
X002019Y009806D01*
X002116Y009806D01*
X002164Y009758D01*
X001870Y009710D02*
X001870Y009516D01*
X001870Y009661D02*
X001676Y009661D01*
X001676Y009710D02*
X001773Y009806D01*
X001870Y009710D01*
X001676Y009710D02*
X001676Y009516D01*
X001676Y010476D02*
X001676Y010670D01*
X001773Y010766D01*
X001870Y010670D01*
X001870Y010476D01*
X001971Y010476D02*
X002164Y010476D01*
X002067Y010476D02*
X002067Y010766D01*
X001971Y010670D01*
X001870Y010621D02*
X001676Y010621D01*
X001676Y011516D02*
X001676Y011710D01*
X001773Y011806D01*
X001870Y011710D01*
X001870Y011516D01*
X001971Y011516D02*
X002164Y011710D01*
X002164Y011758D01*
X002116Y011806D01*
X002019Y011806D01*
X001971Y011758D01*
X001870Y011661D02*
X001676Y011661D01*
X001971Y011516D02*
X002164Y011516D01*
X002164Y012476D02*
X002164Y012766D01*
X002265Y012766D02*
X002411Y012766D01*
X002459Y012718D01*
X002459Y012524D01*
X002411Y012476D01*
X002265Y012476D01*
X002265Y012766D01*
X001971Y012766D02*
X001971Y012476D01*
X001870Y012524D02*
X001870Y012621D01*
X001773Y012621D01*
X001870Y012524D02*
X001821Y012476D01*
X001724Y012476D01*
X001676Y012524D01*
X001676Y012718D01*
X001724Y012766D01*
X001821Y012766D01*
X001870Y012718D01*
X001971Y012766D02*
X002164Y012476D01*
X002116Y013516D02*
X002116Y013806D01*
X001971Y013661D01*
X002164Y013661D01*
X001870Y013661D02*
X001676Y013661D01*
X001676Y013710D02*
X001773Y013806D01*
X001870Y013710D01*
X001870Y013516D01*
X001676Y013516D02*
X001676Y013710D01*
X001676Y014476D02*
X001676Y014670D01*
X001773Y014766D01*
X001870Y014670D01*
X001870Y014476D01*
X001971Y014524D02*
X002019Y014476D01*
X002116Y014476D01*
X002164Y014524D01*
X002164Y014621D01*
X002116Y014670D01*
X002067Y014670D01*
X001971Y014621D01*
X001971Y014766D01*
X002164Y014766D01*
X001870Y014621D02*
X001676Y014621D01*
X001676Y015516D02*
X001676Y015710D01*
X001773Y015806D01*
X001870Y015710D01*
X001870Y015516D01*
X001971Y015564D02*
X002019Y015516D01*
X002116Y015516D01*
X002164Y015564D01*
X002164Y015613D01*
X002116Y015661D01*
X001971Y015661D01*
X001971Y015564D01*
X001971Y015661D02*
X002067Y015758D01*
X002164Y015806D01*
X001870Y015661D02*
X001676Y015661D01*
X009573Y000816D02*
X009670Y000816D01*
X009621Y000816D02*
X009621Y000574D01*
X009573Y000526D01*
X009524Y000526D01*
X009476Y000574D01*
X009771Y000816D02*
X009964Y000816D01*
X009867Y000816D02*
X009867Y000526D01*
X010065Y000526D02*
X010065Y000720D01*
X010162Y000816D01*
X010259Y000720D01*
X010259Y000526D01*
X010360Y000574D02*
X010408Y000526D01*
X010505Y000526D01*
X010554Y000574D01*
X010554Y000671D01*
X010457Y000671D01*
X010554Y000768D02*
X010505Y000816D01*
X010408Y000816D01*
X010360Y000768D01*
X010360Y000574D01*
X010259Y000671D02*
X010065Y000671D01*
X013756Y003884D02*
X013804Y003836D01*
X013901Y003836D01*
X013950Y003884D01*
X013950Y003981D01*
X013853Y003981D01*
X013756Y004078D02*
X013756Y003884D01*
X013756Y004078D02*
X013804Y004126D01*
X013901Y004126D01*
X013950Y004078D01*
X014051Y004126D02*
X014244Y003836D01*
X014244Y004126D01*
X014345Y004126D02*
X014491Y004126D01*
X014539Y004078D01*
X014539Y003884D01*
X014491Y003836D01*
X014345Y003836D01*
X014345Y004126D01*
X014051Y004126D02*
X014051Y003836D01*
X014124Y003166D02*
X014076Y003118D01*
X014076Y002924D01*
X014124Y002876D01*
X014221Y002876D01*
X014270Y002924D01*
X014371Y002876D02*
X014564Y003070D01*
X014564Y003118D01*
X014516Y003166D01*
X014419Y003166D01*
X014371Y003118D01*
X014270Y003118D02*
X014221Y003166D01*
X014124Y003166D01*
X014371Y002876D02*
X014564Y002876D01*
X014467Y002126D02*
X014467Y001836D01*
X014371Y001836D02*
X014564Y001836D01*
X014371Y002030D02*
X014467Y002126D01*
X014270Y002078D02*
X014221Y002126D01*
X014124Y002126D01*
X014076Y002078D01*
X014076Y001884D01*
X014124Y001836D01*
X014221Y001836D01*
X014270Y001884D01*
X014221Y001166D02*
X014124Y001166D01*
X014076Y001118D01*
X014076Y000924D01*
X014124Y000876D01*
X014221Y000876D01*
X014270Y000924D01*
X014371Y000924D02*
X014371Y001118D01*
X014419Y001166D01*
X014516Y001166D01*
X014564Y001118D01*
X014371Y000924D01*
X014419Y000876D01*
X014516Y000876D01*
X014564Y000924D01*
X014564Y001118D01*
X014270Y001118D02*
X014221Y001166D01*
X014221Y004876D02*
X014124Y004876D01*
X014076Y004924D01*
X014076Y005118D01*
X014124Y005166D01*
X014221Y005166D01*
X014270Y005118D01*
X014371Y005021D02*
X014564Y005021D01*
X014516Y004876D02*
X014516Y005166D01*
X014371Y005021D01*
X014270Y004924D02*
X014221Y004876D01*
X014221Y005916D02*
X014124Y005916D01*
X014076Y005964D01*
X014076Y006158D01*
X014124Y006206D01*
X014221Y006206D01*
X014270Y006158D01*
X014371Y006206D02*
X014371Y006061D01*
X014467Y006110D01*
X014516Y006110D01*
X014564Y006061D01*
X014564Y005964D01*
X014516Y005916D01*
X014419Y005916D01*
X014371Y005964D01*
X014270Y005964D02*
X014221Y005916D01*
X014371Y006206D02*
X014564Y006206D01*
X014516Y006876D02*
X014419Y006876D01*
X014371Y006924D01*
X014371Y007021D01*
X014516Y007021D01*
X014564Y006973D01*
X014564Y006924D01*
X014516Y006876D01*
X014371Y007021D02*
X014467Y007118D01*
X014564Y007166D01*
X014270Y007118D02*
X014221Y007166D01*
X014124Y007166D01*
X014076Y007118D01*
X014076Y006924D01*
X014124Y006876D01*
X014221Y006876D01*
X014270Y006924D01*
X014244Y007836D02*
X014244Y008126D01*
X014345Y008126D02*
X014345Y007836D01*
X014491Y007836D01*
X014539Y007884D01*
X014539Y008078D01*
X014491Y008126D01*
X014345Y008126D01*
X014051Y008126D02*
X014244Y007836D01*
X014051Y007836D02*
X014051Y008126D01*
X013950Y008078D02*
X013901Y008126D01*
X013804Y008126D01*
X013756Y008078D01*
X013756Y007884D01*
X013804Y007836D01*
X013901Y007836D01*
X013950Y007884D01*
X013950Y007981D01*
X013853Y007981D01*
X004848Y000746D02*
X004655Y000746D01*
X004751Y000746D02*
X004751Y000456D01*
X004554Y000456D02*
X004360Y000456D01*
X004360Y000746D01*
X004554Y000746D01*
X004457Y000601D02*
X004360Y000601D01*
X004259Y000553D02*
X004259Y000504D01*
X004211Y000456D01*
X004114Y000456D01*
X004065Y000504D01*
X004114Y000601D02*
X004065Y000650D01*
X004065Y000698D01*
X004114Y000746D01*
X004211Y000746D01*
X004259Y000698D01*
X004211Y000601D02*
X004259Y000553D01*
X004211Y000601D02*
X004114Y000601D01*
X003964Y000456D02*
X003771Y000456D01*
X003771Y000746D01*
X003964Y000746D01*
X003867Y000601D02*
X003771Y000601D01*
X003670Y000601D02*
X003670Y000698D01*
X003621Y000746D01*
X003476Y000746D01*
X003476Y000456D01*
X003476Y000553D02*
X003621Y000553D01*
X003670Y000601D01*
X003573Y000553D02*
X003670Y000456D01*
D11*
X006541Y001391D02*
X006541Y002891D01*
X006791Y003141D01*
X007291Y003141D01*
X007541Y002891D01*
X007541Y001391D01*
X007291Y001141D01*
X006791Y001141D01*
X006541Y001391D01*
X007541Y001391D02*
X007791Y001141D01*
X008291Y001141D01*
X008541Y001391D01*
X008541Y002891D01*
X008291Y003141D01*
X007791Y003141D01*
X007541Y002891D01*
X008541Y002891D02*
X008791Y003141D01*
X009291Y003141D01*
X009541Y002891D01*
X009541Y001391D01*
X009291Y001141D01*
X008791Y001141D01*
X008541Y001391D01*
X009541Y001391D02*
X009791Y001141D01*
X010291Y001141D01*
X010541Y001391D01*
X010541Y002891D01*
X010291Y003141D01*
X009791Y003141D01*
X009541Y002891D01*
X010541Y002891D02*
X010791Y003141D01*
X011291Y003141D01*
X011541Y002891D01*
X011541Y001391D01*
X011291Y001141D01*
X010791Y001141D01*
X010541Y001391D01*
X011541Y001391D02*
X011791Y001141D01*
X012291Y001141D01*
X012541Y001391D01*
X012541Y002891D01*
X012291Y003141D01*
X011791Y003141D01*
X011541Y002891D01*
X012541Y002891D02*
X012791Y003141D01*
X013291Y003141D01*
X013541Y002891D01*
X013541Y001391D01*
X013291Y001141D01*
X012791Y001141D01*
X012541Y001391D01*
X009581Y008761D02*
X006821Y008761D01*
X006821Y011381D01*
X006961Y011521D01*
X009581Y011521D01*
X009581Y008761D01*
X006980Y011221D02*
X006982Y011244D01*
X006988Y011267D01*
X006997Y011288D01*
X007010Y011308D01*
X007026Y011325D01*
X007044Y011339D01*
X007064Y011350D01*
X007086Y011358D01*
X007109Y011362D01*
X007133Y011362D01*
X007156Y011358D01*
X007178Y011350D01*
X007198Y011339D01*
X007216Y011325D01*
X007232Y011308D01*
X007245Y011288D01*
X007254Y011267D01*
X007260Y011244D01*
X007262Y011221D01*
X007260Y011198D01*
X007254Y011175D01*
X007245Y011154D01*
X007232Y011134D01*
X007216Y011117D01*
X007198Y011103D01*
X007178Y011092D01*
X007156Y011084D01*
X007133Y011080D01*
X007109Y011080D01*
X007086Y011084D01*
X007064Y011092D01*
X007044Y011103D01*
X007026Y011117D01*
X007010Y011134D01*
X006997Y011154D01*
X006988Y011175D01*
X006982Y011198D01*
X006980Y011221D01*
X005657Y017023D02*
X005657Y017259D01*
X005185Y017259D02*
X005185Y017023D01*
X004617Y017023D02*
X004617Y017259D01*
X004145Y017259D02*
X004145Y017023D01*
X010785Y016983D02*
X010785Y017219D01*
X011257Y017219D02*
X011257Y016983D01*
X011594Y016860D02*
X011594Y019163D01*
X015688Y019163D01*
X015688Y016860D01*
X011594Y016860D01*
X015123Y018779D02*
X015125Y018805D01*
X015131Y018831D01*
X015140Y018856D01*
X015153Y018879D01*
X015169Y018900D01*
X015188Y018918D01*
X015210Y018934D01*
X015233Y018946D01*
X015258Y018954D01*
X015284Y018959D01*
X015311Y018960D01*
X015337Y018957D01*
X015362Y018950D01*
X015387Y018940D01*
X015409Y018926D01*
X015430Y018909D01*
X015447Y018890D01*
X015462Y018868D01*
X015473Y018844D01*
X015481Y018818D01*
X015485Y018792D01*
X015485Y018766D01*
X015481Y018740D01*
X015473Y018714D01*
X015462Y018690D01*
X015447Y018668D01*
X015430Y018649D01*
X015409Y018632D01*
X015387Y018618D01*
X015362Y018608D01*
X015337Y018601D01*
X015311Y018598D01*
X015284Y018599D01*
X015258Y018604D01*
X015233Y018612D01*
X015210Y018624D01*
X015188Y018640D01*
X015169Y018658D01*
X015153Y018679D01*
X015140Y018702D01*
X015131Y018727D01*
X015125Y018753D01*
X015123Y018779D01*
X015321Y012111D02*
X015321Y009811D01*
X014971Y010711D02*
X014621Y010711D01*
X014621Y010461D01*
X014621Y010711D02*
X014271Y010711D01*
X014271Y010861D02*
X014971Y010861D01*
X014971Y011061D01*
X014271Y011061D01*
X014271Y010861D01*
X014271Y011211D02*
X014621Y011211D01*
X014621Y011461D01*
X014621Y011211D02*
X014971Y011211D01*
X015321Y012111D02*
X015319Y012162D01*
X015314Y012213D01*
X015304Y012263D01*
X015291Y012313D01*
X015275Y012361D01*
X015255Y012408D01*
X015231Y012454D01*
X015205Y012497D01*
X015175Y012539D01*
X015142Y012578D01*
X015107Y012615D01*
X015069Y012649D01*
X015028Y012680D01*
X014986Y012709D01*
X014941Y012734D01*
X014895Y012755D01*
X014847Y012774D01*
X014798Y012788D01*
X014748Y012799D01*
X014698Y012807D01*
X014647Y012811D01*
X014595Y012811D01*
X014544Y012807D01*
X014494Y012799D01*
X014444Y012788D01*
X014395Y012774D01*
X014347Y012755D01*
X014301Y012734D01*
X014256Y012709D01*
X014214Y012680D01*
X014173Y012649D01*
X014135Y012615D01*
X014100Y012578D01*
X014067Y012539D01*
X014037Y012497D01*
X014011Y012454D01*
X013987Y012408D01*
X013967Y012361D01*
X013951Y012313D01*
X013938Y012263D01*
X013928Y012213D01*
X013923Y012162D01*
X013921Y012111D01*
X013921Y009811D01*
X013377Y010323D02*
X013377Y010559D01*
X012905Y010559D02*
X012905Y010323D01*
X012905Y011513D02*
X012905Y011749D01*
X013377Y011749D02*
X013377Y011513D01*
X013921Y009811D02*
X013923Y009760D01*
X013928Y009709D01*
X013938Y009659D01*
X013951Y009609D01*
X013967Y009561D01*
X013987Y009514D01*
X014011Y009468D01*
X014037Y009425D01*
X014067Y009383D01*
X014100Y009344D01*
X014135Y009307D01*
X014173Y009273D01*
X014214Y009242D01*
X014256Y009213D01*
X014301Y009188D01*
X014347Y009167D01*
X014395Y009148D01*
X014444Y009134D01*
X014494Y009123D01*
X014544Y009115D01*
X014595Y009111D01*
X014647Y009111D01*
X014698Y009115D01*
X014748Y009123D01*
X014798Y009134D01*
X014847Y009148D01*
X014895Y009167D01*
X014941Y009188D01*
X014986Y009213D01*
X015028Y009242D01*
X015069Y009273D01*
X015107Y009307D01*
X015142Y009344D01*
X015175Y009383D01*
X015205Y009425D01*
X015231Y009468D01*
X015255Y009514D01*
X015275Y009561D01*
X015291Y009609D01*
X015304Y009659D01*
X015314Y009709D01*
X015319Y009760D01*
X015321Y009811D01*
D12*
X015521Y009811D02*
X015521Y012111D01*
X015519Y012170D01*
X015513Y012228D01*
X015504Y012287D01*
X015490Y012344D01*
X015473Y012400D01*
X015452Y012455D01*
X015428Y012509D01*
X015400Y012561D01*
X015369Y012611D01*
X015335Y012659D01*
X015298Y012704D01*
X015257Y012747D01*
X015214Y012788D01*
X015169Y012825D01*
X015121Y012859D01*
X015071Y012890D01*
X015019Y012918D01*
X014965Y012942D01*
X014910Y012963D01*
X014854Y012980D01*
X014797Y012994D01*
X014738Y013003D01*
X014680Y013009D01*
X014621Y013011D01*
X014562Y013009D01*
X014504Y013003D01*
X014445Y012994D01*
X014388Y012980D01*
X014332Y012963D01*
X014277Y012942D01*
X014223Y012918D01*
X014171Y012890D01*
X014121Y012859D01*
X014073Y012825D01*
X014028Y012788D01*
X013985Y012747D01*
X013944Y012704D01*
X013907Y012659D01*
X013873Y012611D01*
X013842Y012561D01*
X013814Y012509D01*
X013790Y012455D01*
X013769Y012400D01*
X013752Y012344D01*
X013738Y012287D01*
X013729Y012228D01*
X013723Y012170D01*
X013721Y012111D01*
X013721Y009811D01*
X013723Y009752D01*
X013729Y009694D01*
X013738Y009635D01*
X013752Y009578D01*
X013769Y009522D01*
X013790Y009467D01*
X013814Y009413D01*
X013842Y009361D01*
X013873Y009311D01*
X013907Y009263D01*
X013944Y009218D01*
X013985Y009175D01*
X014028Y009134D01*
X014073Y009097D01*
X014121Y009063D01*
X014171Y009032D01*
X014223Y009004D01*
X014277Y008980D01*
X014332Y008959D01*
X014388Y008942D01*
X014445Y008928D01*
X014504Y008919D01*
X014562Y008913D01*
X014621Y008911D01*
X014680Y008913D01*
X014738Y008919D01*
X014797Y008928D01*
X014854Y008942D01*
X014910Y008959D01*
X014965Y008980D01*
X015019Y009004D01*
X015071Y009032D01*
X015121Y009063D01*
X015169Y009097D01*
X015214Y009134D01*
X015257Y009175D01*
X015298Y009218D01*
X015335Y009263D01*
X015369Y009311D01*
X015400Y009361D01*
X015428Y009413D01*
X015452Y009467D01*
X015473Y009522D01*
X015490Y009578D01*
X015504Y009635D01*
X015513Y009694D01*
X015519Y009752D01*
X015521Y009811D01*
D13*
X012671Y010278D02*
X012671Y010351D01*
X012634Y010388D01*
X012561Y010462D02*
X012561Y010609D01*
X012451Y010572D02*
X012561Y010462D01*
X012488Y010388D02*
X012451Y010351D01*
X012451Y010278D01*
X012488Y010241D01*
X012634Y010241D01*
X012671Y010278D01*
X012671Y010572D02*
X012451Y010572D01*
X012498Y011441D02*
X012644Y011441D01*
X012681Y011478D01*
X012681Y011551D01*
X012644Y011588D01*
X012644Y011662D02*
X012681Y011699D01*
X012681Y011772D01*
X012644Y011809D01*
X012571Y011809D01*
X012534Y011772D01*
X012534Y011735D01*
X012571Y011662D01*
X012461Y011662D01*
X012461Y011809D01*
X012498Y011588D02*
X012461Y011551D01*
X012461Y011478D01*
X012498Y011441D01*
X012434Y012891D02*
X012288Y012891D01*
X012251Y012928D01*
X012251Y013001D01*
X012288Y013038D01*
X012288Y013112D02*
X012251Y013149D01*
X012251Y013222D01*
X012288Y013259D01*
X012324Y013259D01*
X012471Y013112D01*
X012471Y013259D01*
X012434Y013038D02*
X012471Y013001D01*
X012471Y012928D01*
X012434Y012891D01*
X011711Y014031D02*
X011747Y014068D01*
X011747Y014141D01*
X011711Y014178D01*
X011747Y014252D02*
X011747Y014399D01*
X011747Y014325D02*
X011527Y014325D01*
X011601Y014252D01*
X011564Y014178D02*
X011527Y014141D01*
X011527Y014068D01*
X011564Y014031D01*
X011711Y014031D01*
X013306Y018081D02*
X013379Y018081D01*
X013416Y018118D01*
X013416Y018301D01*
X013490Y018228D02*
X013564Y018301D01*
X013564Y018081D01*
X013637Y018081D02*
X013490Y018081D01*
X013306Y018081D02*
X013269Y018118D01*
X013269Y018301D01*
X015551Y015371D02*
X015771Y015371D01*
X015551Y015224D01*
X015771Y015224D01*
X015771Y015150D02*
X015771Y015003D01*
X015551Y015003D01*
X015551Y015150D01*
X015661Y015076D02*
X015661Y015003D01*
X015551Y014929D02*
X015771Y014782D01*
X015771Y014708D02*
X015698Y014634D01*
X015698Y014671D02*
X015698Y014561D01*
X015771Y014561D02*
X015551Y014561D01*
X015551Y014671D01*
X015588Y014708D01*
X015661Y014708D01*
X015698Y014671D01*
X015551Y014782D02*
X015771Y014929D01*
X015811Y014251D02*
X015591Y014251D01*
X015591Y014104D02*
X015811Y014251D01*
X015811Y014104D02*
X015591Y014104D01*
X015591Y014030D02*
X015591Y013883D01*
X015811Y013883D01*
X015811Y014030D01*
X015701Y013956D02*
X015701Y013883D01*
X015591Y013809D02*
X015811Y013662D01*
X015811Y013809D02*
X015591Y013662D01*
X015591Y013588D02*
X015591Y013441D01*
X015591Y013514D02*
X015811Y013514D01*
X004091Y015198D02*
X004091Y015271D01*
X004054Y015308D01*
X004054Y015382D02*
X004091Y015382D01*
X004054Y015382D02*
X003908Y015529D01*
X003871Y015529D01*
X003871Y015382D01*
X003908Y015308D02*
X003871Y015271D01*
X003871Y015198D01*
X003908Y015161D01*
X004054Y015161D01*
X004091Y015198D01*
X003602Y009951D02*
X003529Y009951D01*
X003492Y009915D01*
X003492Y009878D01*
X003529Y009841D01*
X003602Y009841D01*
X003639Y009804D01*
X003639Y009768D01*
X003602Y009731D01*
X003529Y009731D01*
X003492Y009768D01*
X003492Y009804D01*
X003529Y009841D01*
X003602Y009841D02*
X003639Y009878D01*
X003639Y009915D01*
X003602Y009951D01*
X003418Y009915D02*
X003381Y009951D01*
X003308Y009951D01*
X003271Y009915D01*
X003271Y009768D01*
X003308Y009731D01*
X003381Y009731D01*
X003418Y009768D01*
D14*
X003901Y016926D02*
X003901Y017001D01*
X003926Y017026D01*
X003976Y017026D01*
X004001Y017001D01*
X004001Y016926D01*
X004051Y016926D02*
X003901Y016926D01*
X004001Y016976D02*
X004051Y017026D01*
X004051Y017073D02*
X004051Y017174D01*
X004051Y017221D02*
X004026Y017221D01*
X003926Y017321D01*
X003901Y017321D01*
X003901Y017221D01*
X003901Y017123D02*
X004051Y017123D01*
X003951Y017073D02*
X003901Y017123D01*
X002874Y017606D02*
X002849Y017581D01*
X002799Y017581D01*
X002774Y017606D01*
X002725Y017606D02*
X002725Y017581D01*
X002700Y017581D01*
X002700Y017606D01*
X002725Y017606D01*
X002653Y017606D02*
X002628Y017581D01*
X002578Y017581D01*
X002553Y017606D01*
X002506Y017656D02*
X002405Y017656D01*
X002358Y017706D02*
X002258Y017606D01*
X002258Y017581D01*
X002211Y017581D02*
X002111Y017581D01*
X002064Y017581D02*
X001964Y017581D01*
X001916Y017581D02*
X001816Y017581D01*
X001769Y017581D02*
X001769Y017731D01*
X001719Y017681D01*
X001669Y017731D01*
X001669Y017581D01*
X001622Y017581D02*
X001522Y017581D01*
X001522Y017731D01*
X001816Y017681D02*
X001866Y017731D01*
X001866Y017581D01*
X001964Y017681D02*
X002014Y017731D01*
X002014Y017581D01*
X002111Y017681D02*
X002161Y017731D01*
X002161Y017581D01*
X002258Y017731D02*
X002358Y017731D01*
X002358Y017706D01*
X002553Y017706D02*
X002578Y017731D01*
X002628Y017731D01*
X002653Y017706D01*
X002653Y017681D01*
X002628Y017656D01*
X002653Y017631D01*
X002653Y017606D01*
X002628Y017656D02*
X002603Y017656D01*
X002774Y017706D02*
X002799Y017731D01*
X002849Y017731D01*
X002874Y017706D01*
X002874Y017681D01*
X002849Y017656D01*
X002874Y017631D01*
X002874Y017606D01*
X002849Y017656D02*
X002824Y017656D01*
X004196Y019816D02*
X004196Y019966D01*
X004271Y019966D01*
X004296Y019941D01*
X004296Y019891D01*
X004271Y019866D01*
X004196Y019866D01*
X004246Y019866D02*
X004296Y019816D01*
X004343Y019816D02*
X004444Y019966D01*
X004491Y019966D02*
X004566Y019966D01*
X004591Y019941D01*
X004591Y019841D01*
X004566Y019816D01*
X004491Y019816D01*
X004491Y019966D01*
X004343Y019966D02*
X004444Y019816D01*
X005236Y019966D02*
X005336Y019966D01*
X005383Y019966D02*
X005484Y019816D01*
X005531Y019816D02*
X005606Y019816D01*
X005631Y019841D01*
X005631Y019941D01*
X005606Y019966D01*
X005531Y019966D01*
X005531Y019816D01*
X005383Y019816D02*
X005484Y019966D01*
X005286Y019966D02*
X005286Y019816D01*
X005066Y017321D02*
X005041Y017321D01*
X005016Y017296D01*
X005016Y017246D01*
X004991Y017221D01*
X004966Y017221D01*
X004941Y017246D01*
X004941Y017296D01*
X004966Y017321D01*
X004991Y017321D01*
X005016Y017296D01*
X005016Y017246D02*
X005041Y017221D01*
X005066Y017221D01*
X005091Y017246D01*
X005091Y017296D01*
X005066Y017321D01*
X005091Y017174D02*
X005091Y017073D01*
X005091Y017026D02*
X005041Y016976D01*
X005041Y017001D02*
X005041Y016926D01*
X005091Y016926D02*
X004941Y016926D01*
X004941Y017001D01*
X004966Y017026D01*
X005016Y017026D01*
X005041Y017001D01*
X004991Y017073D02*
X004941Y017123D01*
X005091Y017123D01*
X010541Y017108D02*
X010541Y017058D01*
X010566Y017033D01*
X010566Y016986D02*
X010616Y016986D01*
X010641Y016961D01*
X010641Y016886D01*
X010691Y016886D02*
X010541Y016886D01*
X010541Y016961D01*
X010566Y016986D01*
X010641Y016936D02*
X010691Y016986D01*
X010691Y017033D02*
X010591Y017134D01*
X010566Y017134D01*
X010541Y017108D01*
X010566Y017181D02*
X010541Y017206D01*
X010541Y017256D01*
X010566Y017281D01*
X010591Y017281D01*
X010616Y017256D01*
X010641Y017281D01*
X010666Y017281D01*
X010691Y017256D01*
X010691Y017206D01*
X010666Y017181D01*
X010691Y017134D02*
X010691Y017033D01*
X010616Y017231D02*
X010616Y017256D01*
X010836Y019816D02*
X010836Y019966D01*
X010911Y019966D01*
X010936Y019941D01*
X010936Y019891D01*
X010911Y019866D01*
X010836Y019866D01*
X010983Y019816D02*
X010983Y019966D01*
X011084Y019966D02*
X011084Y019816D01*
X011033Y019866D01*
X010983Y019816D01*
X011131Y019816D02*
X011131Y019966D01*
X011206Y019966D01*
X011231Y019941D01*
X011231Y019891D01*
X011206Y019866D01*
X011131Y019866D01*
X011181Y019866D02*
X011231Y019816D01*
D15*
X000481Y000891D02*
X000731Y000641D01*
X001231Y000641D01*
X001481Y000891D01*
X001481Y001391D01*
X001231Y001641D01*
X001481Y001891D01*
X001481Y002391D01*
X001231Y002641D01*
X001481Y002891D01*
X001481Y003391D01*
X001231Y003641D01*
X001481Y003891D01*
X001481Y004391D01*
X001231Y004641D01*
X001481Y004891D01*
X001481Y005391D01*
X001231Y005641D01*
X001481Y005891D01*
X001481Y006391D01*
X001231Y006641D01*
X001481Y006891D01*
X001481Y007391D01*
X001231Y007641D01*
X001481Y007891D01*
X001481Y008391D01*
X001231Y008641D01*
X000731Y008641D01*
X000481Y008391D01*
X000481Y007891D01*
X000731Y007641D01*
X000481Y007391D01*
X000481Y006891D01*
X000731Y006641D01*
X000481Y006391D01*
X000481Y005891D01*
X000731Y005641D01*
X000481Y005391D01*
X000481Y004891D01*
X000731Y004641D01*
X000481Y004391D01*
X000481Y003891D01*
X000731Y003641D01*
X000481Y003391D01*
X000481Y002891D01*
X000731Y002641D01*
X000481Y002391D01*
X000481Y001891D01*
X000731Y001641D01*
X000481Y001391D01*
X000481Y000891D01*
X002941Y001748D02*
X002941Y002541D01*
X003291Y003341D02*
X004991Y003341D01*
X005341Y002541D02*
X005341Y001736D01*
X004991Y000941D02*
X003291Y000941D01*
X003441Y002141D02*
X003443Y002193D01*
X003449Y002245D01*
X003459Y002297D01*
X003472Y002347D01*
X003489Y002397D01*
X003510Y002445D01*
X003535Y002491D01*
X003563Y002535D01*
X003594Y002577D01*
X003628Y002617D01*
X003665Y002654D01*
X003705Y002688D01*
X003747Y002719D01*
X003791Y002747D01*
X003837Y002772D01*
X003885Y002793D01*
X003935Y002810D01*
X003985Y002823D01*
X004037Y002833D01*
X004089Y002839D01*
X004141Y002841D01*
X004193Y002839D01*
X004245Y002833D01*
X004297Y002823D01*
X004347Y002810D01*
X004397Y002793D01*
X004445Y002772D01*
X004491Y002747D01*
X004535Y002719D01*
X004577Y002688D01*
X004617Y002654D01*
X004654Y002617D01*
X004688Y002577D01*
X004719Y002535D01*
X004747Y002491D01*
X004772Y002445D01*
X004793Y002397D01*
X004810Y002347D01*
X004823Y002297D01*
X004833Y002245D01*
X004839Y002193D01*
X004841Y002141D01*
X004839Y002089D01*
X004833Y002037D01*
X004823Y001985D01*
X004810Y001935D01*
X004793Y001885D01*
X004772Y001837D01*
X004747Y001791D01*
X004719Y001747D01*
X004688Y001705D01*
X004654Y001665D01*
X004617Y001628D01*
X004577Y001594D01*
X004535Y001563D01*
X004491Y001535D01*
X004445Y001510D01*
X004397Y001489D01*
X004347Y001472D01*
X004297Y001459D01*
X004245Y001449D01*
X004193Y001443D01*
X004141Y001441D01*
X004089Y001443D01*
X004037Y001449D01*
X003985Y001459D01*
X003935Y001472D01*
X003885Y001489D01*
X003837Y001510D01*
X003791Y001535D01*
X003747Y001563D01*
X003705Y001594D01*
X003665Y001628D01*
X003628Y001665D01*
X003594Y001705D01*
X003563Y001747D01*
X003535Y001791D01*
X003510Y001837D01*
X003489Y001885D01*
X003472Y001935D01*
X003459Y001985D01*
X003449Y002037D01*
X003443Y002089D01*
X003441Y002141D01*
X001231Y009141D02*
X000731Y009141D01*
X000481Y009391D01*
X000481Y009891D01*
X000731Y010141D01*
X000481Y010391D01*
X000481Y010891D01*
X000731Y011141D01*
X000481Y011391D01*
X000481Y011891D01*
X000731Y012141D01*
X000481Y012391D01*
X000481Y012891D01*
X000731Y013141D01*
X000481Y013391D01*
X000481Y013891D01*
X000731Y014141D01*
X000481Y014391D01*
X000481Y014891D01*
X000731Y015141D01*
X000481Y015391D01*
X000481Y015891D01*
X000731Y016141D01*
X000481Y016391D01*
X000481Y016891D01*
X000731Y017141D01*
X001231Y017141D01*
X001481Y016891D01*
X001481Y016391D01*
X001231Y016141D01*
X001481Y015891D01*
X001481Y015391D01*
X001231Y015141D01*
X001481Y014891D01*
X001481Y014391D01*
X001231Y014141D01*
X001481Y013891D01*
X001481Y013391D01*
X001231Y013141D01*
X001481Y012891D01*
X001481Y012391D01*
X001231Y012141D01*
X001481Y011891D01*
X001481Y011391D01*
X001231Y011141D01*
X001481Y010891D01*
X001481Y010391D01*
X001231Y010141D01*
X001481Y009891D01*
X001481Y009391D01*
X001231Y009141D01*
X003154Y014869D02*
X002997Y015026D01*
X002997Y015656D01*
X003154Y015814D01*
X003587Y015814D01*
X004375Y015814D02*
X004965Y015814D01*
X004965Y014869D01*
X004375Y014869D01*
X003587Y014869D02*
X003154Y014869D01*
X003721Y017421D02*
X001141Y017421D01*
X001141Y018721D01*
X003721Y018721D01*
X003721Y017421D01*
X003987Y017836D02*
X003987Y018387D01*
X004106Y018663D02*
X004381Y018663D01*
X004145Y018899D01*
X004617Y018899D01*
X004381Y018663D01*
X004657Y018663D01*
X004775Y018387D02*
X004775Y017836D01*
X003987Y017836D01*
X005027Y017836D02*
X005027Y018387D01*
X005146Y018663D02*
X005421Y018663D01*
X005185Y018899D01*
X005657Y018899D01*
X005421Y018663D01*
X005697Y018663D01*
X005815Y018387D02*
X005815Y017836D01*
X005027Y017836D01*
X005027Y019175D02*
X005027Y019726D01*
X005815Y019726D01*
X005815Y019175D01*
X006665Y018393D02*
X006665Y017566D01*
X006941Y016582D02*
X007295Y016582D01*
X009027Y016582D02*
X009382Y016582D01*
X009657Y017566D02*
X009657Y018393D01*
X010627Y018387D02*
X010627Y017836D01*
X011415Y017836D01*
X011415Y018387D01*
X011297Y018663D02*
X011021Y018663D01*
X010785Y018899D01*
X011257Y018899D01*
X011021Y018663D01*
X010746Y018663D01*
X010627Y019175D02*
X010627Y019726D01*
X011415Y019726D01*
X011415Y019175D01*
X013711Y015401D02*
X013461Y015151D01*
X013461Y014651D01*
X013711Y014401D01*
X014211Y014401D01*
X014461Y014651D01*
X014711Y014401D01*
X015211Y014401D01*
X015461Y014651D01*
X015461Y015151D01*
X015211Y015401D01*
X014711Y015401D01*
X014461Y015151D01*
X014211Y015401D01*
X013711Y015401D01*
X013711Y014401D02*
X013461Y014151D01*
X013461Y013651D01*
X013711Y013401D01*
X014211Y013401D01*
X014461Y013651D01*
X014711Y013401D01*
X015211Y013401D01*
X015461Y013651D01*
X015461Y014151D01*
X015211Y014401D01*
X014711Y014401D01*
X014461Y014151D01*
X014211Y014401D01*
X013711Y014401D01*
X012645Y014694D02*
X012645Y013749D01*
X012055Y013749D01*
X011267Y013749D02*
X010834Y013749D01*
X010677Y013906D01*
X010677Y014536D01*
X010834Y014694D01*
X011267Y014694D01*
X012055Y014694D02*
X012645Y014694D01*
X015011Y008521D02*
X015511Y008521D01*
X015761Y008271D01*
X015761Y007771D01*
X015511Y007521D01*
X015761Y007271D01*
X015761Y006771D01*
X015511Y006521D01*
X015761Y006271D01*
X015761Y005771D01*
X015511Y005521D01*
X015761Y005271D01*
X015761Y004771D01*
X015511Y004521D01*
X015761Y004271D01*
X015761Y003771D01*
X015511Y003521D01*
X015761Y003271D01*
X015761Y002771D01*
X015511Y002521D01*
X015761Y002271D01*
X015761Y001771D01*
X015511Y001521D01*
X015761Y001271D01*
X015761Y000771D01*
X015511Y000521D01*
X015011Y000521D01*
X014761Y000771D01*
X014761Y001271D01*
X015011Y001521D01*
X014761Y001771D01*
X014761Y002271D01*
X015011Y002521D01*
X014761Y002771D01*
X014761Y003271D01*
X015011Y003521D01*
X014761Y003771D01*
X014761Y004271D01*
X015011Y004521D01*
X014761Y004771D01*
X014761Y005271D01*
X015011Y005521D01*
X014761Y005771D01*
X014761Y006271D01*
X015011Y006521D01*
X014761Y006771D01*
X014761Y007271D01*
X015011Y007521D01*
X014761Y007771D01*
X014761Y008271D01*
X015011Y008521D01*
X004775Y019175D02*
X004775Y019726D01*
X003987Y019726D01*
X003987Y019175D01*
D16*
X011501Y013113D02*
X011501Y013089D01*
X003433Y009021D02*
X003409Y009021D01*
M02*
