G75*
G70*
%OFA0B0*%
%FSLAX24Y24*%
%IPPOS*%
%LPD*%
%AMOC8*
5,1,8,0,0,1.08239X$1,22.5*
%
%ADD10C,0.0560*%
%ADD11R,0.0740X0.0740*%
%ADD12C,0.0740*%
%ADD13OC8,0.0640*%
%ADD14C,0.0640*%
%ADD15C,0.0436*%
%ADD16C,0.0080*%
D10*
X014621Y010011D03*
X014621Y011911D03*
D11*
X015211Y001021D03*
X000931Y001141D03*
X000931Y009641D03*
D12*
X001031Y010641D03*
X000931Y011641D03*
X001031Y012641D03*
X000931Y013641D03*
X001031Y014641D03*
X000931Y015641D03*
X001031Y016641D03*
X001031Y008141D03*
X000931Y007141D03*
X001031Y006141D03*
X000931Y005141D03*
X001031Y004141D03*
X000931Y003141D03*
X001031Y002141D03*
X013891Y013901D03*
X013891Y014901D03*
X015031Y014901D03*
X015031Y013901D03*
X015311Y008021D03*
X015211Y007021D03*
X015311Y006021D03*
X015211Y005021D03*
X015311Y004021D03*
X015211Y003021D03*
X015311Y002021D03*
D13*
X013041Y001641D03*
X013041Y002641D03*
X012041Y002641D03*
X012041Y001641D03*
X011041Y001641D03*
X011041Y002641D03*
X010041Y002641D03*
X010041Y001641D03*
X009041Y001641D03*
X009041Y002641D03*
X008041Y002641D03*
X008041Y001641D03*
X007041Y001641D03*
X007041Y002641D03*
D14*
X005421Y003031D03*
X005421Y001251D03*
X002861Y001251D03*
X002861Y003031D03*
D15*
X003661Y002141D03*
X004941Y004141D03*
X005581Y003821D03*
X006221Y004141D03*
X007021Y003501D03*
X007981Y003981D03*
X009181Y005341D03*
X009901Y005261D03*
X009901Y004381D03*
X010541Y004301D03*
X011021Y005421D03*
X011101Y006061D03*
X011501Y004541D03*
X009821Y006141D03*
X008541Y006301D03*
X008061Y006621D03*
X008701Y007821D03*
X009661Y007981D03*
X009901Y008621D03*
X009101Y009101D03*
X009261Y009901D03*
X008941Y010541D03*
X009341Y011181D03*
X010541Y011249D03*
X011181Y011261D03*
X011181Y012221D03*
X010541Y012221D03*
X009421Y013901D03*
X008941Y014541D03*
X007821Y013901D03*
X008941Y012781D03*
X008061Y011181D03*
X008141Y010061D03*
X008381Y009501D03*
X007981Y009101D03*
X007181Y009101D03*
X006541Y008621D03*
X005581Y009021D03*
X005181Y009981D03*
X004701Y010381D03*
X003981Y009581D03*
X004701Y008541D03*
X005101Y007661D03*
X006061Y007421D03*
X006621Y006941D03*
X006061Y005901D03*
X006621Y005741D03*
X004941Y005421D03*
X004941Y006381D03*
X002541Y005421D03*
X002541Y004301D03*
X002541Y008061D03*
X005741Y011501D03*
X006541Y011821D03*
X007101Y010861D03*
X007501Y010141D03*
X010541Y010221D03*
X011021Y009741D03*
X011101Y007661D03*
X006221Y001741D03*
X010221Y014381D03*
X010221Y015901D03*
X011421Y016221D03*
X012461Y017261D03*
X011981Y017581D03*
X014221Y017261D03*
X014541Y017741D03*
X009021Y018541D03*
X008141Y017741D03*
X007261Y018541D03*
X007021Y015981D03*
X006541Y014861D03*
X008461Y015901D03*
X004701Y014461D03*
X003501Y018381D03*
X001741Y018381D03*
D16*
X000281Y019977D02*
X000281Y000281D01*
X015951Y000281D01*
X015951Y014605D01*
X015935Y014588D01*
X015471Y014119D01*
X015521Y013999D01*
X015521Y013804D01*
X015446Y013624D01*
X015309Y013486D01*
X015129Y013411D01*
X014934Y013411D01*
X014754Y013486D01*
X014616Y013624D01*
X014541Y013804D01*
X014541Y013999D01*
X014616Y014179D01*
X014754Y014316D01*
X014934Y014391D01*
X015129Y014391D01*
X015243Y014344D01*
X015661Y014767D01*
X015661Y016555D01*
X015115Y017101D01*
X014521Y017101D01*
X014508Y017070D01*
X014413Y016974D01*
X014288Y016923D01*
X014154Y016923D01*
X014030Y016974D01*
X013934Y017070D01*
X013883Y017194D01*
X013883Y017328D01*
X013889Y017343D01*
X013647Y017101D01*
X013515Y017101D01*
X012761Y017101D01*
X012748Y017070D01*
X012653Y016974D01*
X012528Y016923D01*
X012394Y016923D01*
X012270Y016974D01*
X012174Y017070D01*
X012123Y017194D01*
X012123Y017274D01*
X012048Y017243D01*
X011914Y017243D01*
X011882Y017256D01*
X011727Y017101D01*
X011595Y017101D01*
X008555Y017101D01*
X008461Y017195D01*
X008240Y017416D01*
X008208Y017403D01*
X008074Y017403D01*
X007950Y017454D01*
X007854Y017550D01*
X007803Y017674D01*
X007803Y017808D01*
X007854Y017933D01*
X007950Y018028D01*
X008074Y018079D01*
X008208Y018079D01*
X008333Y018028D01*
X008428Y017933D01*
X008479Y017808D01*
X008479Y017674D01*
X008466Y017642D01*
X008687Y017421D01*
X011595Y017421D01*
X011656Y017482D01*
X011643Y017514D01*
X011643Y017648D01*
X011694Y017773D01*
X011790Y017868D01*
X011914Y017919D01*
X012048Y017919D01*
X012173Y017868D01*
X012268Y017773D01*
X012319Y017648D01*
X012319Y017568D01*
X012394Y017599D01*
X012528Y017599D01*
X012653Y017548D01*
X012748Y017453D01*
X012761Y017421D01*
X013515Y017421D01*
X013901Y017807D01*
X013995Y017901D01*
X014241Y017901D01*
X014254Y017933D01*
X014350Y018028D01*
X014474Y018079D01*
X014608Y018079D01*
X014733Y018028D01*
X014828Y017933D01*
X014879Y017808D01*
X014879Y017674D01*
X014828Y017550D01*
X014733Y017454D01*
X014652Y017421D01*
X015247Y017421D01*
X015341Y017327D01*
X015951Y016717D01*
X015951Y019977D01*
X000281Y019977D01*
X000281Y019934D02*
X015951Y019934D01*
X015951Y019855D02*
X000281Y019855D01*
X000281Y019777D02*
X015951Y019777D01*
X015951Y019698D02*
X000281Y019698D01*
X000281Y019620D02*
X015951Y019620D01*
X015951Y019541D02*
X000281Y019541D01*
X000281Y019463D02*
X015951Y019463D01*
X015951Y019384D02*
X000281Y019384D01*
X000281Y019306D02*
X015951Y019306D01*
X015951Y019227D02*
X000281Y019227D01*
X000281Y019149D02*
X015951Y019149D01*
X015951Y019070D02*
X000281Y019070D01*
X000281Y018991D02*
X015951Y018991D01*
X015951Y018913D02*
X000281Y018913D01*
X000281Y018834D02*
X015951Y018834D01*
X015951Y018756D02*
X000281Y018756D01*
X000281Y018677D02*
X001573Y018677D01*
X001550Y018668D02*
X001454Y018573D01*
X001403Y018448D01*
X001403Y018314D01*
X001454Y018190D01*
X001550Y018094D01*
X001674Y018043D01*
X001808Y018043D01*
X001933Y018094D01*
X002028Y018190D01*
X002041Y018221D01*
X003201Y018221D01*
X003214Y018190D01*
X003310Y018094D01*
X003434Y018043D01*
X003568Y018043D01*
X003693Y018094D01*
X003788Y018190D01*
X003839Y018314D01*
X003839Y018448D01*
X003788Y018573D01*
X003693Y018668D01*
X003568Y018719D01*
X003434Y018719D01*
X003310Y018668D01*
X003214Y018573D01*
X003201Y018541D01*
X002041Y018541D01*
X002028Y018573D01*
X001933Y018668D01*
X001808Y018719D01*
X001674Y018719D01*
X001550Y018668D01*
X001481Y018599D02*
X000281Y018599D01*
X000281Y018520D02*
X001433Y018520D01*
X001403Y018442D02*
X000281Y018442D01*
X000281Y018363D02*
X001403Y018363D01*
X001415Y018285D02*
X000281Y018285D01*
X000281Y018206D02*
X001448Y018206D01*
X001516Y018128D02*
X000281Y018128D01*
X000281Y018049D02*
X001659Y018049D01*
X001823Y018049D02*
X003419Y018049D01*
X003276Y018128D02*
X001966Y018128D01*
X002035Y018206D02*
X003208Y018206D01*
X003501Y018381D02*
X001741Y018381D01*
X001909Y018677D02*
X003333Y018677D01*
X003241Y018599D02*
X002002Y018599D01*
X001241Y017106D02*
X008549Y017106D01*
X008471Y017185D02*
X000281Y017185D01*
X000281Y017264D02*
X008392Y017264D01*
X008314Y017342D02*
X000281Y017342D01*
X000281Y017421D02*
X008031Y017421D01*
X007905Y017499D02*
X000281Y017499D01*
X000281Y017578D02*
X007199Y017578D01*
X007232Y017564D02*
X007358Y017564D01*
X007475Y017612D01*
X007564Y017701D01*
X007612Y017818D01*
X007612Y017944D01*
X007564Y018061D01*
X007475Y018150D01*
X007358Y018198D01*
X007232Y018198D01*
X007115Y018150D01*
X007026Y018061D01*
X006978Y017944D01*
X006978Y017818D01*
X007026Y017701D01*
X007115Y017612D01*
X007232Y017564D01*
X007391Y017578D02*
X007843Y017578D01*
X007810Y017656D02*
X007519Y017656D01*
X007578Y017735D02*
X007803Y017735D01*
X007805Y017813D02*
X007610Y017813D01*
X007612Y017892D02*
X007838Y017892D01*
X007892Y017970D02*
X007601Y017970D01*
X007569Y018049D02*
X008001Y018049D01*
X008281Y018049D02*
X008754Y018049D01*
X008758Y018061D02*
X008710Y017944D01*
X008710Y017818D01*
X008758Y017701D01*
X008848Y017612D01*
X008964Y017564D01*
X009090Y017564D01*
X009207Y017612D01*
X009296Y017701D01*
X009344Y017818D01*
X009344Y017944D01*
X009296Y018061D01*
X009207Y018150D01*
X009090Y018198D01*
X008964Y018198D01*
X008848Y018150D01*
X008758Y018061D01*
X008825Y018128D02*
X007497Y018128D01*
X007093Y018128D02*
X003726Y018128D01*
X003795Y018206D02*
X015951Y018206D01*
X015951Y018128D02*
X009229Y018128D01*
X009301Y018049D02*
X014401Y018049D01*
X014292Y017970D02*
X009334Y017970D01*
X009344Y017892D02*
X011848Y017892D01*
X011735Y017813D02*
X009342Y017813D01*
X009310Y017735D02*
X011679Y017735D01*
X011646Y017656D02*
X009251Y017656D01*
X009124Y017578D02*
X011643Y017578D01*
X011649Y017499D02*
X008609Y017499D01*
X008531Y017578D02*
X008931Y017578D01*
X008804Y017656D02*
X008472Y017656D01*
X008479Y017735D02*
X008744Y017735D01*
X008712Y017813D02*
X008477Y017813D01*
X008445Y017892D02*
X008710Y017892D01*
X008721Y017970D02*
X008390Y017970D01*
X008141Y017741D02*
X008621Y017261D01*
X011661Y017261D01*
X011981Y017581D01*
X012114Y017892D02*
X013986Y017892D01*
X013907Y017813D02*
X012227Y017813D01*
X012283Y017735D02*
X013829Y017735D01*
X013750Y017656D02*
X012316Y017656D01*
X012319Y017578D02*
X012342Y017578D01*
X012580Y017578D02*
X013671Y017578D01*
X013593Y017499D02*
X012701Y017499D01*
X012461Y017261D02*
X013581Y017261D01*
X014061Y017741D01*
X014541Y017741D01*
X014681Y018049D02*
X015951Y018049D01*
X015951Y017970D02*
X014790Y017970D01*
X014845Y017892D02*
X015951Y017892D01*
X015951Y017813D02*
X014877Y017813D01*
X014879Y017735D02*
X015951Y017735D01*
X015951Y017656D02*
X014872Y017656D01*
X014839Y017578D02*
X015951Y017578D01*
X015951Y017499D02*
X014777Y017499D01*
X014466Y017028D02*
X015188Y017028D01*
X015267Y016949D02*
X014352Y016949D01*
X014221Y017261D02*
X015181Y017261D01*
X015821Y016621D01*
X015821Y014701D01*
X015031Y013901D01*
X014852Y014357D02*
X014070Y014357D01*
X014049Y014436D02*
X014874Y014436D01*
X014934Y014411D02*
X015129Y014411D01*
X015309Y014486D01*
X015446Y014624D01*
X015521Y014804D01*
X015521Y014999D01*
X015446Y015179D01*
X015309Y015316D01*
X015129Y015391D01*
X014934Y015391D01*
X014754Y015316D01*
X014616Y015179D01*
X014541Y014999D01*
X014541Y014804D01*
X014616Y014624D01*
X014754Y014486D01*
X014934Y014411D01*
X014725Y014515D02*
X014197Y014515D01*
X014169Y014486D02*
X014306Y014624D01*
X014381Y014804D01*
X014381Y014999D01*
X014306Y015179D01*
X014169Y015316D01*
X013989Y015391D01*
X013794Y015391D01*
X013614Y015316D01*
X013476Y015179D01*
X013401Y014999D01*
X013401Y014804D01*
X013476Y014624D01*
X013614Y014486D01*
X013794Y014411D01*
X013989Y014411D01*
X014169Y014486D01*
X014276Y014593D02*
X014646Y014593D01*
X014596Y014672D02*
X014326Y014672D01*
X014359Y014750D02*
X014563Y014750D01*
X014541Y014829D02*
X014381Y014829D01*
X014381Y014907D02*
X014541Y014907D01*
X014541Y014986D02*
X014381Y014986D01*
X014354Y015064D02*
X014568Y015064D01*
X014601Y015143D02*
X014321Y015143D01*
X014264Y015221D02*
X014658Y015221D01*
X014737Y015300D02*
X014185Y015300D01*
X014019Y015379D02*
X014903Y015379D01*
X015159Y015379D02*
X015661Y015379D01*
X015661Y015457D02*
X010381Y015457D01*
X010381Y015379D02*
X013763Y015379D01*
X013597Y015300D02*
X010381Y015300D01*
X010381Y015221D02*
X013518Y015221D01*
X013461Y015143D02*
X010381Y015143D01*
X010381Y015064D02*
X013428Y015064D01*
X013401Y014986D02*
X010381Y014986D01*
X010381Y014907D02*
X013401Y014907D01*
X013401Y014829D02*
X010381Y014829D01*
X010381Y014750D02*
X013423Y014750D01*
X013456Y014672D02*
X010403Y014672D01*
X010413Y014668D02*
X010381Y014681D01*
X010381Y015601D01*
X010413Y015614D01*
X010508Y015710D01*
X010559Y015834D01*
X010559Y015968D01*
X010508Y016093D01*
X010413Y016188D01*
X010332Y016221D01*
X011083Y016221D01*
X011083Y016154D01*
X011134Y016030D01*
X011230Y015934D01*
X011354Y015883D01*
X011488Y015883D01*
X011613Y015934D01*
X011708Y016030D01*
X011759Y016154D01*
X011759Y016288D01*
X011708Y016413D01*
X011613Y016508D01*
X011488Y016559D01*
X011354Y016559D01*
X011310Y016541D01*
X011195Y016541D01*
X008875Y016541D01*
X008781Y016447D01*
X008560Y016226D01*
X008528Y016239D01*
X008394Y016239D01*
X008270Y016188D01*
X008174Y016093D01*
X008123Y015968D01*
X008123Y015834D01*
X008174Y015710D01*
X008270Y015614D01*
X001421Y015614D01*
X001421Y015544D02*
X001346Y015364D01*
X001209Y015226D01*
X001029Y015151D01*
X000834Y015151D01*
X000654Y015226D01*
X000516Y015364D01*
X000441Y015544D01*
X000441Y015739D01*
X000516Y015919D01*
X000654Y016056D01*
X000834Y016131D01*
X001029Y016131D01*
X001209Y016056D01*
X001346Y015919D01*
X001421Y015739D01*
X001421Y015544D01*
X001418Y015536D02*
X010061Y015536D01*
X010061Y015601D02*
X010061Y014681D01*
X010030Y014668D01*
X009934Y014573D01*
X009883Y014448D01*
X009883Y014314D01*
X009934Y014190D01*
X010030Y014094D01*
X010154Y014043D01*
X010288Y014043D01*
X010413Y014094D01*
X010508Y014190D01*
X010559Y014314D01*
X010559Y014448D01*
X010508Y014573D01*
X010413Y014668D01*
X010487Y014593D02*
X013506Y014593D01*
X013585Y014515D02*
X010532Y014515D01*
X010559Y014436D02*
X013734Y014436D01*
X013794Y014391D02*
X013614Y014316D01*
X013476Y014179D01*
X013401Y013999D01*
X013401Y013804D01*
X013476Y013624D01*
X013614Y013486D01*
X013794Y013411D01*
X013989Y013411D01*
X014169Y013486D01*
X014306Y013624D01*
X014381Y013804D01*
X014381Y013999D01*
X014306Y014179D01*
X014169Y014316D01*
X013989Y014391D01*
X013794Y014391D01*
X013712Y014357D02*
X010559Y014357D01*
X010545Y014279D02*
X013576Y014279D01*
X013497Y014200D02*
X010512Y014200D01*
X010440Y014122D02*
X013452Y014122D01*
X013420Y014043D02*
X010289Y014043D01*
X010153Y014043D02*
X009728Y014043D01*
X009708Y014093D02*
X009759Y013968D01*
X009759Y013834D01*
X009708Y013710D01*
X009613Y013614D01*
X009581Y013601D01*
X009581Y011419D01*
X009628Y011373D01*
X009679Y011248D01*
X009679Y011114D01*
X009628Y010990D01*
X009533Y010894D01*
X009452Y010861D01*
X010795Y010861D01*
X010927Y010861D01*
X012141Y009647D01*
X012141Y009515D01*
X012141Y003081D01*
X012223Y003081D01*
X012481Y002823D01*
X012481Y002459D01*
X012223Y002201D01*
X011859Y002201D01*
X011601Y002459D01*
X011601Y002823D01*
X011821Y003043D01*
X011821Y004430D01*
X011788Y004350D01*
X011693Y004254D01*
X011568Y004203D01*
X011434Y004203D01*
X011310Y004254D01*
X011214Y004350D01*
X011181Y004430D01*
X011181Y003081D01*
X011223Y003081D01*
X011481Y002823D01*
X011481Y002459D01*
X011223Y002201D01*
X010859Y002201D01*
X010601Y002459D01*
X010601Y002823D01*
X010859Y003081D01*
X010861Y003081D01*
X010861Y004190D01*
X010828Y004110D01*
X010733Y004014D01*
X010608Y003963D01*
X010474Y003963D01*
X010350Y004014D01*
X010254Y004110D01*
X010205Y004230D01*
X010188Y004190D01*
X010093Y004094D01*
X009968Y004043D01*
X009834Y004043D01*
X009710Y004094D01*
X009614Y004190D01*
X009563Y004314D01*
X009563Y004448D01*
X009614Y004573D01*
X009710Y004668D01*
X009834Y004719D01*
X009968Y004719D01*
X010056Y004683D01*
X010221Y004847D01*
X010221Y005150D01*
X010188Y005070D01*
X010093Y004974D01*
X009968Y004923D01*
X009834Y004923D01*
X009710Y004974D01*
X009614Y005070D01*
X009563Y005194D01*
X009563Y005328D01*
X009614Y005453D01*
X009710Y005548D01*
X009834Y005599D01*
X009968Y005599D01*
X010000Y005586D01*
X010061Y005647D01*
X010061Y005903D01*
X010013Y005854D01*
X009888Y005803D01*
X009754Y005803D01*
X009630Y005854D01*
X009534Y005950D01*
X009483Y006074D01*
X009483Y006208D01*
X009534Y006333D01*
X009630Y006428D01*
X009661Y006441D01*
X009661Y007195D01*
X009039Y007817D01*
X009039Y007754D01*
X009026Y007722D01*
X009247Y007501D01*
X009341Y007407D01*
X009341Y005641D01*
X009373Y005628D01*
X009468Y005533D01*
X009519Y005408D01*
X009519Y005274D01*
X009468Y005150D01*
X009373Y005054D01*
X009248Y005003D01*
X009114Y005003D01*
X008990Y005054D01*
X008894Y005150D01*
X008843Y005274D01*
X008843Y005408D01*
X008894Y005533D01*
X008990Y005628D01*
X009021Y005641D01*
X009021Y007275D01*
X008800Y007496D01*
X008768Y007483D01*
X008634Y007483D01*
X008510Y007534D01*
X008414Y007630D01*
X008381Y007710D01*
X008381Y007487D01*
X008701Y007167D01*
X008701Y007035D01*
X008701Y006601D01*
X008733Y006588D01*
X008828Y006493D01*
X008879Y006368D01*
X008879Y006234D01*
X008828Y006110D01*
X009021Y006110D01*
X009021Y006032D02*
X008750Y006032D01*
X008733Y006014D02*
X008828Y006110D01*
X008861Y006189D02*
X009021Y006189D01*
X009021Y006267D02*
X008879Y006267D01*
X008879Y006346D02*
X009021Y006346D01*
X009021Y006425D02*
X008856Y006425D01*
X008817Y006503D02*
X009021Y006503D01*
X009021Y006582D02*
X008739Y006582D01*
X008701Y006660D02*
X009021Y006660D01*
X009021Y006739D02*
X008701Y006739D01*
X008701Y006817D02*
X009021Y006817D01*
X009021Y006896D02*
X008701Y006896D01*
X008701Y006974D02*
X009021Y006974D01*
X009021Y007053D02*
X008701Y007053D01*
X008701Y007131D02*
X009021Y007131D01*
X009021Y007210D02*
X008658Y007210D01*
X008580Y007289D02*
X009007Y007289D01*
X008929Y007367D02*
X008501Y007367D01*
X008423Y007446D02*
X008850Y007446D01*
X009067Y007681D02*
X009175Y007681D01*
X009146Y007603D02*
X009253Y007603D01*
X009224Y007524D02*
X009332Y007524D01*
X009303Y007446D02*
X009410Y007446D01*
X009341Y007367D02*
X009489Y007367D01*
X009567Y007289D02*
X009341Y007289D01*
X009341Y007210D02*
X009646Y007210D01*
X009661Y007131D02*
X009341Y007131D01*
X009341Y007053D02*
X009661Y007053D01*
X009661Y006974D02*
X009341Y006974D01*
X009341Y006896D02*
X009661Y006896D01*
X009661Y006817D02*
X009341Y006817D01*
X009341Y006739D02*
X009661Y006739D01*
X009661Y006660D02*
X009341Y006660D01*
X009341Y006582D02*
X009661Y006582D01*
X009661Y006503D02*
X009341Y006503D01*
X009341Y006425D02*
X009626Y006425D01*
X009548Y006346D02*
X009341Y006346D01*
X009341Y006267D02*
X009508Y006267D01*
X009483Y006189D02*
X009341Y006189D01*
X009341Y006110D02*
X009483Y006110D01*
X009500Y006032D02*
X009341Y006032D01*
X009341Y005953D02*
X009533Y005953D01*
X009609Y005875D02*
X009341Y005875D01*
X009341Y005796D02*
X010061Y005796D01*
X010061Y005718D02*
X009341Y005718D01*
X009345Y005639D02*
X010053Y005639D01*
X010221Y005581D02*
X010221Y007501D01*
X009741Y007981D01*
X009661Y007981D01*
X009901Y008621D02*
X010381Y008141D01*
X010381Y004781D01*
X010061Y004461D01*
X009901Y004381D01*
X009657Y004147D02*
X008278Y004147D01*
X008268Y004173D02*
X008173Y004268D01*
X008048Y004319D01*
X007914Y004319D01*
X007882Y004306D01*
X007821Y004367D01*
X007821Y006383D01*
X007870Y006334D01*
X007994Y006283D01*
X008128Y006283D01*
X008203Y006314D01*
X008203Y006234D01*
X008254Y006110D01*
X007821Y006110D01*
X007821Y006032D02*
X008332Y006032D01*
X008350Y006014D02*
X008474Y005963D01*
X008608Y005963D01*
X008733Y006014D01*
X008541Y006301D02*
X008541Y007101D01*
X008221Y007421D01*
X008221Y008781D01*
X008381Y008941D01*
X008381Y009501D01*
X008141Y009901D02*
X009261Y009901D01*
X008941Y010541D02*
X007341Y010541D01*
X006861Y010061D01*
X006861Y009261D01*
X007021Y009101D01*
X007181Y009101D01*
X007418Y008859D02*
X007421Y008859D01*
X007421Y008863D02*
X007421Y008795D01*
X007501Y008715D01*
X007501Y004235D01*
X007595Y004141D01*
X007656Y004080D01*
X007643Y004048D01*
X007643Y003914D01*
X007649Y003899D01*
X007501Y004047D01*
X007501Y007755D01*
X007501Y007887D01*
X007407Y007981D01*
X006927Y007981D01*
X006620Y008288D01*
X006733Y008334D01*
X006828Y008430D01*
X006879Y008554D01*
X006879Y008688D01*
X006828Y008813D01*
X006733Y008908D01*
X006701Y008921D01*
X006701Y011521D01*
X006733Y011534D01*
X006828Y011630D01*
X006879Y011754D01*
X006879Y011888D01*
X006828Y012013D01*
X006733Y012108D01*
X006701Y012121D01*
X006701Y014561D01*
X006733Y014574D01*
X006828Y014670D01*
X006879Y014794D01*
X006879Y014928D01*
X006828Y015053D01*
X006733Y015148D01*
X006608Y015199D01*
X006474Y015199D01*
X006350Y015148D01*
X006254Y015053D01*
X006203Y014928D01*
X006203Y014794D01*
X006254Y014670D01*
X006350Y014574D01*
X006381Y014561D01*
X006381Y012121D01*
X006350Y012108D01*
X006254Y012013D01*
X006203Y011888D01*
X006203Y011754D01*
X006254Y011630D01*
X006350Y011534D01*
X006381Y011521D01*
X006381Y008921D01*
X006350Y008908D01*
X006254Y008813D01*
X006221Y008732D01*
X006221Y011247D01*
X006127Y011341D01*
X006066Y011402D01*
X006079Y011434D01*
X006079Y011568D01*
X006028Y011693D01*
X005933Y011788D01*
X005808Y011839D01*
X005674Y011839D01*
X005550Y011788D01*
X005454Y011693D01*
X005403Y011568D01*
X005403Y011434D01*
X005454Y011310D01*
X005550Y011214D01*
X005674Y011163D01*
X005808Y011163D01*
X005840Y011176D01*
X005901Y011115D01*
X005901Y009132D01*
X005868Y009213D01*
X005773Y009308D01*
X005648Y009359D01*
X005514Y009359D01*
X005390Y009308D01*
X005294Y009213D01*
X005261Y009132D01*
X005261Y009648D01*
X005373Y009694D01*
X005468Y009790D01*
X005519Y009914D01*
X005519Y010048D01*
X005468Y010173D01*
X005373Y010268D01*
X005248Y010319D01*
X005114Y010319D01*
X005026Y010283D01*
X005039Y010314D01*
X005039Y010448D01*
X004988Y010573D01*
X004893Y010668D01*
X004861Y010681D01*
X004861Y014161D01*
X004893Y014174D01*
X004988Y014270D01*
X005039Y014394D01*
X005039Y014528D01*
X004988Y014653D01*
X004893Y014748D01*
X004768Y014799D01*
X004634Y014799D01*
X004510Y014748D01*
X004414Y014653D01*
X004363Y014528D01*
X004363Y014394D01*
X004414Y014270D01*
X004510Y014174D01*
X004541Y014161D01*
X004541Y010681D01*
X004510Y010668D01*
X004414Y010573D01*
X004363Y010448D01*
X004363Y010314D01*
X004414Y010190D01*
X004510Y010094D01*
X004541Y010081D01*
X004541Y008841D01*
X004510Y008828D01*
X004414Y008733D01*
X004363Y008608D01*
X004363Y008474D01*
X004414Y008350D01*
X004510Y008254D01*
X004634Y008203D01*
X004768Y008203D01*
X004893Y008254D01*
X004941Y008303D01*
X004941Y007961D01*
X004910Y007948D01*
X004814Y007853D01*
X004763Y007728D01*
X004763Y007594D01*
X004769Y007579D01*
X004141Y008207D01*
X004141Y009281D01*
X004173Y009294D01*
X004268Y009390D01*
X004319Y009514D01*
X004319Y009648D01*
X004268Y009773D01*
X004173Y009868D01*
X004048Y009919D01*
X003914Y009919D01*
X003790Y009868D01*
X003694Y009773D01*
X003643Y009648D01*
X003643Y009514D01*
X003694Y009390D01*
X003790Y009294D01*
X003821Y009281D01*
X003821Y008207D01*
X003821Y008075D01*
X004781Y007115D01*
X004781Y006681D01*
X004750Y006668D01*
X004654Y006573D01*
X004603Y006448D01*
X004603Y006314D01*
X004654Y006190D01*
X004750Y006094D01*
X004874Y006043D01*
X005008Y006043D01*
X005133Y006094D01*
X005228Y006190D01*
X005279Y006314D01*
X005279Y006448D01*
X005228Y006573D01*
X005133Y006668D01*
X005101Y006681D01*
X005101Y007115D01*
X005101Y007247D01*
X005019Y007329D01*
X005034Y007323D01*
X005168Y007323D01*
X005293Y007374D01*
X005388Y007470D01*
X005421Y007550D01*
X005421Y004121D01*
X005390Y004108D01*
X005294Y004013D01*
X005243Y003888D01*
X005243Y003754D01*
X003821Y003754D01*
X003821Y003676D02*
X005275Y003676D01*
X005294Y003630D02*
X005243Y003754D01*
X005243Y003833D02*
X005080Y003833D01*
X005133Y003854D02*
X005228Y003950D01*
X005279Y004074D01*
X005279Y004208D01*
X005228Y004333D01*
X005133Y004428D01*
X005101Y004441D01*
X005101Y005121D01*
X005133Y005134D01*
X005228Y005230D01*
X005279Y005354D01*
X005279Y005488D01*
X005228Y005613D01*
X005133Y005708D01*
X005008Y005759D01*
X004874Y005759D01*
X004750Y005708D01*
X004654Y005613D01*
X004603Y005488D01*
X004603Y005354D01*
X004654Y005230D01*
X004750Y005134D01*
X004781Y005121D01*
X004781Y004441D01*
X004750Y004428D01*
X004654Y004333D01*
X004603Y004208D01*
X004603Y004074D01*
X004654Y003950D01*
X004750Y003854D01*
X004874Y003803D01*
X005008Y003803D01*
X005133Y003854D01*
X005189Y003911D02*
X005252Y003911D01*
X005244Y003990D02*
X005285Y003990D01*
X005277Y004068D02*
X005350Y004068D01*
X005279Y004147D02*
X005421Y004147D01*
X005421Y004225D02*
X005272Y004225D01*
X005240Y004304D02*
X005421Y004304D01*
X005421Y004382D02*
X005178Y004382D01*
X005101Y004461D02*
X005421Y004461D01*
X005421Y004540D02*
X005101Y004540D01*
X005101Y004618D02*
X005421Y004618D01*
X005421Y004697D02*
X005101Y004697D01*
X005101Y004775D02*
X005421Y004775D01*
X005421Y004854D02*
X005101Y004854D01*
X005101Y004932D02*
X005421Y004932D01*
X005421Y005011D02*
X005101Y005011D01*
X005101Y005089D02*
X005421Y005089D01*
X005421Y005168D02*
X005166Y005168D01*
X005235Y005246D02*
X005421Y005246D01*
X005421Y005325D02*
X005267Y005325D01*
X005279Y005404D02*
X005421Y005404D01*
X005421Y005482D02*
X005279Y005482D01*
X005249Y005561D02*
X005421Y005561D01*
X005421Y005639D02*
X005201Y005639D01*
X005109Y005718D02*
X005421Y005718D01*
X005421Y005796D02*
X003821Y005796D01*
X003821Y005718D02*
X004774Y005718D01*
X004681Y005639D02*
X003821Y005639D01*
X003821Y005561D02*
X004633Y005561D01*
X004603Y005482D02*
X003821Y005482D01*
X003821Y005404D02*
X004603Y005404D01*
X004615Y005325D02*
X003821Y005325D01*
X003821Y005246D02*
X004647Y005246D01*
X004716Y005168D02*
X003821Y005168D01*
X003821Y005089D02*
X004781Y005089D01*
X004781Y005011D02*
X003821Y005011D01*
X003821Y004932D02*
X004781Y004932D01*
X004781Y004854D02*
X003821Y004854D01*
X003821Y004775D02*
X004781Y004775D01*
X004781Y004697D02*
X003821Y004697D01*
X003821Y004618D02*
X004781Y004618D01*
X004781Y004540D02*
X003821Y004540D01*
X003821Y004461D02*
X004781Y004461D01*
X004704Y004382D02*
X003821Y004382D01*
X003821Y004304D02*
X004643Y004304D01*
X004610Y004225D02*
X003821Y004225D01*
X003821Y004147D02*
X004603Y004147D01*
X004605Y004068D02*
X003821Y004068D01*
X003821Y003990D02*
X004638Y003990D01*
X004693Y003911D02*
X003821Y003911D01*
X003821Y003833D02*
X004802Y003833D01*
X004941Y004141D02*
X004941Y005421D01*
X005421Y005875D02*
X003821Y005875D01*
X003821Y005953D02*
X005421Y005953D01*
X005421Y006032D02*
X003821Y006032D01*
X003821Y006110D02*
X004734Y006110D01*
X004655Y006189D02*
X003821Y006189D01*
X003821Y006267D02*
X004622Y006267D01*
X004603Y006346D02*
X003821Y006346D01*
X003821Y006425D02*
X004603Y006425D01*
X004626Y006503D02*
X003821Y006503D01*
X003821Y006582D02*
X004664Y006582D01*
X004742Y006660D02*
X003821Y006660D01*
X003821Y006739D02*
X004781Y006739D01*
X004781Y006817D02*
X003821Y006817D01*
X003821Y006875D02*
X003821Y007007D01*
X002866Y007962D01*
X002879Y007994D01*
X002879Y008128D01*
X002828Y008253D01*
X002733Y008348D01*
X002608Y008399D01*
X002474Y008399D01*
X002350Y008348D01*
X002254Y008253D01*
X002203Y008128D01*
X002203Y007994D01*
X002254Y007870D01*
X002350Y007774D01*
X002474Y007723D01*
X002608Y007723D01*
X002640Y007736D01*
X003501Y006875D01*
X003501Y002441D01*
X003470Y002428D01*
X003374Y002333D01*
X003323Y002208D01*
X003323Y002074D01*
X003374Y001950D01*
X003470Y001854D01*
X003594Y001803D01*
X003728Y001803D01*
X003853Y001854D01*
X003948Y001950D01*
X003999Y002074D01*
X003999Y002208D01*
X003948Y002333D01*
X003853Y002428D01*
X003821Y002441D01*
X003821Y006875D01*
X003821Y006896D02*
X004781Y006896D01*
X004781Y006974D02*
X003821Y006974D01*
X003776Y007053D02*
X004781Y007053D01*
X004764Y007131D02*
X003697Y007131D01*
X003618Y007210D02*
X004686Y007210D01*
X004607Y007289D02*
X003540Y007289D01*
X003461Y007367D02*
X004529Y007367D01*
X004450Y007446D02*
X003383Y007446D01*
X003304Y007524D02*
X004372Y007524D01*
X004293Y007603D02*
X003226Y007603D01*
X003147Y007681D02*
X004215Y007681D01*
X004136Y007760D02*
X003069Y007760D01*
X002990Y007838D02*
X004058Y007838D01*
X003979Y007917D02*
X002912Y007917D01*
X002879Y007995D02*
X003900Y007995D01*
X003822Y008074D02*
X002879Y008074D01*
X002869Y008153D02*
X003821Y008153D01*
X003821Y008231D02*
X002837Y008231D01*
X002771Y008310D02*
X003821Y008310D01*
X003821Y008388D02*
X002635Y008388D01*
X002447Y008388D02*
X001459Y008388D01*
X001446Y008419D02*
X001309Y008556D01*
X001129Y008631D01*
X000934Y008631D01*
X000754Y008556D01*
X000616Y008419D01*
X000541Y008239D01*
X000541Y008044D01*
X000616Y007864D01*
X000754Y007726D01*
X000934Y007651D01*
X001129Y007651D01*
X001309Y007726D01*
X001446Y007864D01*
X001521Y008044D01*
X001521Y008239D01*
X001446Y008419D01*
X001398Y008467D02*
X003821Y008467D01*
X003821Y008545D02*
X001320Y008545D01*
X001146Y008624D02*
X003821Y008624D01*
X003821Y008702D02*
X000281Y008702D01*
X000281Y008624D02*
X000916Y008624D01*
X000742Y008545D02*
X000281Y008545D01*
X000281Y008467D02*
X000664Y008467D01*
X000603Y008388D02*
X000281Y008388D01*
X000281Y008310D02*
X000571Y008310D01*
X000541Y008231D02*
X000281Y008231D01*
X000281Y008153D02*
X000541Y008153D01*
X000541Y008074D02*
X000281Y008074D01*
X000281Y007995D02*
X000561Y007995D01*
X000594Y007917D02*
X000281Y007917D01*
X000281Y007838D02*
X000641Y007838D01*
X000719Y007760D02*
X000281Y007760D01*
X000281Y007681D02*
X000861Y007681D01*
X000834Y007631D02*
X000654Y007556D01*
X000516Y007419D01*
X000441Y007239D01*
X000441Y007044D01*
X000516Y006864D01*
X000654Y006726D01*
X000834Y006651D01*
X001029Y006651D01*
X001209Y006726D01*
X001346Y006864D01*
X001421Y007044D01*
X001421Y007239D01*
X001346Y007419D01*
X001209Y007556D01*
X001029Y007631D01*
X000834Y007631D01*
X000765Y007603D02*
X000281Y007603D01*
X000281Y007524D02*
X000621Y007524D01*
X000543Y007446D02*
X000281Y007446D01*
X000281Y007367D02*
X000494Y007367D01*
X000462Y007289D02*
X000281Y007289D01*
X000281Y007210D02*
X000441Y007210D01*
X000441Y007131D02*
X000281Y007131D01*
X000281Y007053D02*
X000441Y007053D01*
X000470Y006974D02*
X000281Y006974D01*
X000281Y006896D02*
X000502Y006896D01*
X000562Y006817D02*
X000281Y006817D01*
X000281Y006739D02*
X000640Y006739D01*
X000812Y006660D02*
X000281Y006660D01*
X000281Y006582D02*
X000814Y006582D01*
X000754Y006556D02*
X000616Y006419D01*
X000541Y006239D01*
X000541Y006044D01*
X000616Y005864D01*
X000754Y005726D01*
X000934Y005651D01*
X001129Y005651D01*
X001309Y005726D01*
X001446Y005864D01*
X001521Y006044D01*
X001521Y006239D01*
X001446Y006419D01*
X001309Y006556D01*
X001129Y006631D01*
X000934Y006631D01*
X000754Y006556D01*
X000700Y006503D02*
X000281Y006503D01*
X000281Y006425D02*
X000622Y006425D01*
X000586Y006346D02*
X000281Y006346D01*
X000281Y006267D02*
X000553Y006267D01*
X000541Y006189D02*
X000281Y006189D01*
X000281Y006110D02*
X000541Y006110D01*
X000546Y006032D02*
X000281Y006032D01*
X000281Y005953D02*
X000579Y005953D01*
X000611Y005875D02*
X000281Y005875D01*
X000281Y005796D02*
X000683Y005796D01*
X000773Y005718D02*
X000281Y005718D01*
X000281Y005639D02*
X002281Y005639D01*
X002254Y005613D02*
X002203Y005488D01*
X002203Y005354D01*
X002254Y005230D01*
X002350Y005134D01*
X002381Y005121D01*
X002381Y004601D01*
X002350Y004588D01*
X002254Y004493D01*
X002203Y004368D01*
X002203Y004234D01*
X002254Y004110D01*
X002350Y004014D01*
X002474Y003963D01*
X002608Y003963D01*
X002733Y004014D01*
X002828Y004110D01*
X002879Y004234D01*
X002879Y004368D01*
X002828Y004493D01*
X002733Y004588D01*
X002701Y004601D01*
X002701Y005121D01*
X002733Y005134D01*
X002828Y005230D01*
X002879Y005354D01*
X002879Y005488D01*
X002828Y005613D01*
X002733Y005708D01*
X002608Y005759D01*
X002474Y005759D01*
X002350Y005708D01*
X002254Y005613D01*
X002233Y005561D02*
X001199Y005561D01*
X001209Y005556D02*
X001029Y005631D01*
X000834Y005631D01*
X000654Y005556D01*
X000516Y005419D01*
X000441Y005239D01*
X000441Y005044D01*
X000516Y004864D01*
X000654Y004726D01*
X000834Y004651D01*
X001029Y004651D01*
X001209Y004726D01*
X001346Y004864D01*
X001421Y005044D01*
X001421Y005239D01*
X001346Y005419D01*
X001209Y005556D01*
X001283Y005482D02*
X002203Y005482D01*
X002203Y005404D02*
X001353Y005404D01*
X001385Y005325D02*
X002215Y005325D01*
X002247Y005246D02*
X001418Y005246D01*
X001421Y005168D02*
X002316Y005168D01*
X002381Y005089D02*
X001421Y005089D01*
X001407Y005011D02*
X002381Y005011D01*
X002381Y004932D02*
X001375Y004932D01*
X001337Y004854D02*
X002381Y004854D01*
X002381Y004775D02*
X001258Y004775D01*
X001138Y004697D02*
X002381Y004697D01*
X002381Y004618D02*
X001160Y004618D01*
X001129Y004631D02*
X000934Y004631D01*
X000754Y004556D01*
X000616Y004419D01*
X000541Y004239D01*
X000541Y004044D01*
X000616Y003864D01*
X000754Y003726D01*
X000934Y003651D01*
X001129Y003651D01*
X001309Y003726D01*
X001446Y003864D01*
X001521Y004044D01*
X001521Y004239D01*
X001446Y004419D01*
X001309Y004556D01*
X001129Y004631D01*
X000902Y004618D02*
X000281Y004618D01*
X000281Y004540D02*
X000737Y004540D01*
X000658Y004461D02*
X000281Y004461D01*
X000281Y004382D02*
X000601Y004382D01*
X000568Y004304D02*
X000281Y004304D01*
X000281Y004225D02*
X000541Y004225D01*
X000541Y004147D02*
X000281Y004147D01*
X000281Y004068D02*
X000541Y004068D01*
X000563Y003990D02*
X000281Y003990D01*
X000281Y003911D02*
X000596Y003911D01*
X000647Y003833D02*
X000281Y003833D01*
X000281Y003754D02*
X000725Y003754D01*
X000751Y003597D02*
X000281Y003597D01*
X000281Y003518D02*
X000616Y003518D01*
X000654Y003556D02*
X000516Y003419D01*
X000441Y003239D01*
X000441Y003044D01*
X000516Y002864D01*
X000654Y002726D01*
X000834Y002651D01*
X001029Y002651D01*
X001209Y002726D01*
X001346Y002864D01*
X001421Y003044D01*
X001421Y003239D01*
X001346Y003419D01*
X001209Y003556D01*
X001029Y003631D01*
X000834Y003631D01*
X000654Y003556D01*
X000537Y003440D02*
X000281Y003440D01*
X000281Y003361D02*
X000492Y003361D01*
X000459Y003283D02*
X000281Y003283D01*
X000281Y003204D02*
X000441Y003204D01*
X000441Y003126D02*
X000281Y003126D01*
X000281Y003047D02*
X000441Y003047D01*
X000472Y002969D02*
X000281Y002969D01*
X000281Y002890D02*
X000505Y002890D01*
X000568Y002812D02*
X000281Y002812D01*
X000281Y002733D02*
X000646Y002733D01*
X000754Y002556D02*
X000616Y002419D01*
X000281Y002419D01*
X000281Y002497D02*
X000694Y002497D01*
X000754Y002556D02*
X000934Y002631D01*
X001129Y002631D01*
X001309Y002556D01*
X001446Y002419D01*
X003461Y002419D01*
X003501Y002497D02*
X001368Y002497D01*
X001446Y002419D02*
X001521Y002239D01*
X001521Y002044D01*
X001446Y001864D01*
X001309Y001726D01*
X001129Y001651D01*
X000934Y001651D01*
X000754Y001726D01*
X000616Y001864D01*
X000541Y002044D01*
X000541Y002239D01*
X000616Y002419D01*
X000583Y002340D02*
X000281Y002340D01*
X000281Y002262D02*
X000551Y002262D01*
X000541Y002183D02*
X000281Y002183D01*
X000281Y002105D02*
X000541Y002105D01*
X000548Y002026D02*
X000281Y002026D01*
X000281Y001948D02*
X000581Y001948D01*
X000613Y001869D02*
X000281Y001869D01*
X000281Y001791D02*
X000689Y001791D01*
X000787Y001712D02*
X000281Y001712D01*
X000281Y001633D02*
X002605Y001633D01*
X002620Y001644D02*
X002561Y001602D01*
X002510Y001551D01*
X002468Y001492D01*
X002435Y001428D01*
X002412Y001359D01*
X002402Y001291D01*
X002821Y001291D01*
X002821Y001211D01*
X002901Y001211D01*
X002901Y000792D01*
X002969Y000802D01*
X003038Y000825D01*
X003102Y000858D01*
X003161Y000900D01*
X003212Y000951D01*
X003254Y001010D01*
X003287Y001074D01*
X003310Y001143D01*
X003320Y001211D01*
X002901Y001211D01*
X002901Y001291D01*
X003320Y001291D01*
X003310Y001359D01*
X003287Y001428D01*
X003254Y001492D01*
X003212Y001551D01*
X003161Y001602D01*
X003102Y001644D01*
X003038Y001677D01*
X002969Y001700D01*
X002901Y001710D01*
X002901Y001291D01*
X002821Y001291D01*
X002821Y001710D01*
X002753Y001700D01*
X002684Y001677D01*
X002620Y001644D01*
X002514Y001555D02*
X001421Y001555D01*
X001421Y001561D02*
X001351Y001631D01*
X000511Y001631D01*
X000441Y001561D01*
X000441Y000721D01*
X000511Y000651D01*
X001351Y000651D01*
X001421Y000721D01*
X001421Y001561D01*
X001421Y001476D02*
X002460Y001476D01*
X002425Y001398D02*
X001421Y001398D01*
X001421Y001319D02*
X002406Y001319D01*
X002402Y001211D02*
X002412Y001143D01*
X002435Y001074D01*
X002468Y001010D01*
X002510Y000951D01*
X002561Y000900D01*
X002620Y000858D01*
X002684Y000825D01*
X002753Y000802D01*
X002821Y000792D01*
X002821Y001211D01*
X002402Y001211D01*
X002409Y001162D02*
X001421Y001162D01*
X001421Y001084D02*
X002432Y001084D01*
X002471Y001005D02*
X001421Y001005D01*
X001421Y000927D02*
X002535Y000927D01*
X002639Y000848D02*
X001421Y000848D01*
X001421Y000769D02*
X014721Y000769D01*
X014721Y000691D02*
X001391Y000691D01*
X001421Y001241D02*
X002821Y001241D01*
X002821Y001319D02*
X002901Y001319D01*
X002901Y001241D02*
X005381Y001241D01*
X005381Y001211D02*
X005381Y001291D01*
X004962Y001291D01*
X004972Y001359D01*
X004995Y001428D01*
X005028Y001492D01*
X005070Y001551D01*
X005121Y001602D01*
X005180Y001644D01*
X005244Y001677D01*
X005313Y001700D01*
X005381Y001710D01*
X005381Y001291D01*
X005461Y001291D01*
X005880Y001291D01*
X005870Y001359D01*
X005847Y001428D01*
X005814Y001492D01*
X005772Y001551D01*
X005721Y001602D01*
X005662Y001644D01*
X005598Y001677D01*
X005529Y001700D01*
X005461Y001710D01*
X005461Y001291D01*
X005461Y001211D01*
X005461Y000792D01*
X005529Y000802D01*
X005598Y000825D01*
X005662Y000858D01*
X005721Y000900D01*
X005772Y000951D01*
X005814Y001010D01*
X005847Y001074D01*
X005870Y001143D01*
X005880Y001211D01*
X005461Y001211D01*
X005381Y001211D01*
X005381Y000792D01*
X005313Y000802D01*
X005244Y000825D01*
X005180Y000858D01*
X005121Y000900D01*
X005070Y000951D01*
X005028Y001010D01*
X004995Y001074D01*
X004972Y001143D01*
X004962Y001211D01*
X005381Y001211D01*
X005381Y001162D02*
X005461Y001162D01*
X005461Y001084D02*
X005381Y001084D01*
X005381Y001005D02*
X005461Y001005D01*
X005461Y000927D02*
X005381Y000927D01*
X005381Y000848D02*
X005461Y000848D01*
X005643Y000848D02*
X014721Y000848D01*
X014721Y000927D02*
X005747Y000927D01*
X005811Y001005D02*
X014721Y001005D01*
X014721Y001084D02*
X005850Y001084D01*
X005873Y001162D02*
X014721Y001162D01*
X014721Y001241D02*
X013291Y001241D01*
X013232Y001181D02*
X013081Y001181D01*
X013081Y001601D01*
X013001Y001601D01*
X013001Y001181D01*
X012851Y001181D01*
X012581Y001451D01*
X012581Y001601D01*
X013001Y001601D01*
X013001Y001681D01*
X012581Y001681D01*
X012581Y001832D01*
X012851Y002101D01*
X013001Y002101D01*
X013001Y001681D01*
X013081Y001681D01*
X013501Y001681D01*
X013501Y001832D01*
X013232Y002101D01*
X013081Y002101D01*
X013081Y001681D01*
X013081Y001601D01*
X013501Y001601D01*
X013501Y001451D01*
X013232Y001181D01*
X013081Y001241D02*
X013001Y001241D01*
X013001Y001319D02*
X013081Y001319D01*
X013081Y001398D02*
X013001Y001398D01*
X013001Y001476D02*
X013081Y001476D01*
X013081Y001555D02*
X013001Y001555D01*
X013001Y001633D02*
X012081Y001633D01*
X012081Y001601D02*
X012081Y001681D01*
X012501Y001681D01*
X012501Y001832D01*
X012232Y002101D01*
X012081Y002101D01*
X012081Y001681D01*
X012001Y001681D01*
X012001Y001601D01*
X012081Y001601D01*
X012081Y001181D01*
X012232Y001181D01*
X012501Y001451D01*
X012501Y001601D01*
X012081Y001601D01*
X012081Y001555D02*
X012001Y001555D01*
X012001Y001601D02*
X012001Y001181D01*
X011851Y001181D01*
X011581Y001451D01*
X011581Y001601D01*
X012001Y001601D01*
X012001Y001633D02*
X011081Y001633D01*
X011081Y001601D02*
X011081Y001681D01*
X011501Y001681D01*
X011501Y001832D01*
X011232Y002101D01*
X011081Y002101D01*
X011081Y001681D01*
X011001Y001681D01*
X011001Y001601D01*
X011081Y001601D01*
X011081Y001181D01*
X011232Y001181D01*
X011501Y001451D01*
X011501Y001601D01*
X011081Y001601D01*
X011081Y001555D02*
X011001Y001555D01*
X011001Y001601D02*
X011001Y001181D01*
X010851Y001181D01*
X010581Y001451D01*
X010581Y001601D01*
X011001Y001601D01*
X011001Y001633D02*
X010481Y001633D01*
X010481Y001555D02*
X010581Y001555D01*
X010581Y001476D02*
X010481Y001476D01*
X010481Y001459D02*
X010223Y001201D01*
X009859Y001201D01*
X009601Y001459D01*
X009601Y001823D01*
X009859Y002081D01*
X010223Y002081D01*
X010481Y001823D01*
X010481Y001459D01*
X010420Y001398D02*
X010634Y001398D01*
X010712Y001319D02*
X010341Y001319D01*
X010263Y001241D02*
X010791Y001241D01*
X011001Y001241D02*
X011081Y001241D01*
X011081Y001319D02*
X011001Y001319D01*
X011001Y001398D02*
X011081Y001398D01*
X011081Y001476D02*
X011001Y001476D01*
X011001Y001681D02*
X010581Y001681D01*
X010581Y001832D01*
X010851Y002101D01*
X011001Y002101D01*
X011001Y001681D01*
X011001Y001712D02*
X011081Y001712D01*
X011081Y001791D02*
X011001Y001791D01*
X011001Y001869D02*
X011081Y001869D01*
X011081Y001948D02*
X011001Y001948D01*
X011001Y002026D02*
X011081Y002026D01*
X011307Y002026D02*
X011776Y002026D01*
X011851Y002101D02*
X011581Y001832D01*
X011581Y001681D01*
X012001Y001681D01*
X012001Y002101D01*
X011851Y002101D01*
X012001Y002026D02*
X012081Y002026D01*
X012081Y001948D02*
X012001Y001948D01*
X012001Y001869D02*
X012081Y001869D01*
X012081Y001791D02*
X012001Y001791D01*
X012001Y001712D02*
X012081Y001712D01*
X012081Y001476D02*
X012001Y001476D01*
X012001Y001398D02*
X012081Y001398D01*
X012081Y001319D02*
X012001Y001319D01*
X012001Y001241D02*
X012081Y001241D01*
X012291Y001241D02*
X012791Y001241D01*
X012712Y001319D02*
X012370Y001319D01*
X012448Y001398D02*
X012634Y001398D01*
X012581Y001476D02*
X012501Y001476D01*
X012501Y001555D02*
X012581Y001555D01*
X012581Y001712D02*
X012501Y001712D01*
X012501Y001791D02*
X012581Y001791D01*
X012619Y001869D02*
X012464Y001869D01*
X012385Y001948D02*
X012697Y001948D01*
X012776Y002026D02*
X012307Y002026D01*
X012284Y002262D02*
X012798Y002262D01*
X012859Y002201D02*
X012601Y002459D01*
X012601Y002823D01*
X012859Y003081D01*
X013223Y003081D01*
X013481Y002823D01*
X013481Y002459D01*
X013223Y002201D01*
X012859Y002201D01*
X012720Y002340D02*
X012363Y002340D01*
X012441Y002419D02*
X012641Y002419D01*
X012601Y002497D02*
X012481Y002497D01*
X012481Y002576D02*
X012601Y002576D01*
X012601Y002654D02*
X012481Y002654D01*
X012481Y002733D02*
X012601Y002733D01*
X012601Y002812D02*
X012481Y002812D01*
X012414Y002890D02*
X012668Y002890D01*
X012746Y002969D02*
X012336Y002969D01*
X012257Y003047D02*
X012825Y003047D01*
X013257Y003047D02*
X014721Y003047D01*
X014721Y003119D02*
X014721Y002924D01*
X014796Y002744D01*
X014934Y002606D01*
X015114Y002531D01*
X015309Y002531D01*
X015489Y002606D01*
X015626Y002744D01*
X015701Y002924D01*
X015701Y003119D01*
X015626Y003299D01*
X015489Y003436D01*
X015309Y003511D01*
X015114Y003511D01*
X014934Y003436D01*
X014796Y003299D01*
X014721Y003119D01*
X014724Y003126D02*
X012141Y003126D01*
X012141Y003204D02*
X014757Y003204D01*
X014789Y003283D02*
X012141Y003283D01*
X012141Y003361D02*
X014858Y003361D01*
X014942Y003440D02*
X012141Y003440D01*
X012141Y003518D02*
X015224Y003518D01*
X015192Y003524D02*
X015271Y003511D01*
X015271Y003511D01*
X015271Y003981D01*
X015351Y003981D01*
X015351Y003511D01*
X015351Y003511D01*
X015431Y003524D01*
X015507Y003548D01*
X015578Y003585D01*
X015643Y003632D01*
X015700Y003689D01*
X015747Y003754D01*
X015784Y003825D01*
X015809Y003902D01*
X015821Y003981D01*
X015821Y003981D01*
X015351Y003981D01*
X015351Y004061D01*
X015821Y004061D01*
X015821Y004061D01*
X015809Y004141D01*
X015784Y004217D01*
X015747Y004288D01*
X015700Y004353D01*
X015643Y004410D01*
X015578Y004457D01*
X015507Y004494D01*
X015431Y004519D01*
X015351Y004531D01*
X015351Y004531D01*
X015351Y004061D01*
X015271Y004061D01*
X015271Y003981D01*
X014801Y003981D01*
X014814Y003902D01*
X014838Y003825D01*
X014875Y003754D01*
X014922Y003689D01*
X014979Y003632D01*
X015044Y003585D01*
X015115Y003548D01*
X015192Y003524D01*
X015271Y003518D02*
X015351Y003518D01*
X015398Y003518D02*
X015951Y003518D01*
X015951Y003440D02*
X015480Y003440D01*
X015564Y003361D02*
X015951Y003361D01*
X015951Y003283D02*
X015633Y003283D01*
X015666Y003204D02*
X015951Y003204D01*
X015951Y003126D02*
X015698Y003126D01*
X015701Y003047D02*
X015951Y003047D01*
X015951Y002969D02*
X015701Y002969D01*
X015687Y002890D02*
X015951Y002890D01*
X015951Y002812D02*
X015655Y002812D01*
X015616Y002733D02*
X015951Y002733D01*
X015951Y002654D02*
X015537Y002654D01*
X015417Y002576D02*
X015951Y002576D01*
X015951Y002497D02*
X015442Y002497D01*
X015409Y002511D02*
X015214Y002511D01*
X015034Y002436D01*
X014896Y002299D01*
X014821Y002119D01*
X014821Y001924D01*
X014896Y001744D01*
X015034Y001606D01*
X015214Y001531D01*
X015409Y001531D01*
X015589Y001606D01*
X015726Y001744D01*
X015801Y001924D01*
X015801Y002119D01*
X015726Y002299D01*
X015589Y002436D01*
X015409Y002511D01*
X015606Y002419D02*
X015951Y002419D01*
X015951Y002340D02*
X015685Y002340D01*
X015742Y002262D02*
X015951Y002262D01*
X015951Y002183D02*
X015774Y002183D01*
X015801Y002105D02*
X015951Y002105D01*
X015951Y002026D02*
X015801Y002026D01*
X015801Y001948D02*
X015951Y001948D01*
X015951Y001869D02*
X015778Y001869D01*
X015746Y001791D02*
X015951Y001791D01*
X015951Y001712D02*
X015695Y001712D01*
X015616Y001633D02*
X015951Y001633D01*
X015951Y001555D02*
X015466Y001555D01*
X015631Y001511D02*
X014791Y001511D01*
X014721Y001441D01*
X014721Y000601D01*
X014791Y000531D01*
X015631Y000531D01*
X015701Y000601D01*
X015701Y001441D01*
X015631Y001511D01*
X015666Y001476D02*
X015951Y001476D01*
X015951Y001398D02*
X015701Y001398D01*
X015701Y001319D02*
X015951Y001319D01*
X015951Y001241D02*
X015701Y001241D01*
X015701Y001162D02*
X015951Y001162D01*
X015951Y001084D02*
X015701Y001084D01*
X015701Y001005D02*
X015951Y001005D01*
X015951Y000927D02*
X015701Y000927D01*
X015701Y000848D02*
X015951Y000848D01*
X015951Y000769D02*
X015701Y000769D01*
X015701Y000691D02*
X015951Y000691D01*
X015951Y000612D02*
X015701Y000612D01*
X015634Y000534D02*
X015951Y000534D01*
X015951Y000455D02*
X000281Y000455D01*
X000281Y000377D02*
X015951Y000377D01*
X015951Y000298D02*
X000281Y000298D01*
X000281Y000534D02*
X014789Y000534D01*
X014721Y000612D02*
X000281Y000612D01*
X000281Y000691D02*
X000472Y000691D01*
X000441Y000769D02*
X000281Y000769D01*
X000281Y000848D02*
X000441Y000848D01*
X000441Y000927D02*
X000281Y000927D01*
X000281Y001005D02*
X000441Y001005D01*
X000441Y001084D02*
X000281Y001084D01*
X000281Y001162D02*
X000441Y001162D01*
X000441Y001241D02*
X000281Y001241D01*
X000281Y001319D02*
X000441Y001319D01*
X000441Y001398D02*
X000281Y001398D01*
X000281Y001476D02*
X000441Y001476D01*
X000441Y001555D02*
X000281Y001555D01*
X000281Y002576D02*
X000801Y002576D01*
X000825Y002654D02*
X000281Y002654D01*
X001037Y002654D02*
X002620Y002654D01*
X002612Y002658D02*
X002774Y002591D01*
X002949Y002591D01*
X003110Y002658D01*
X003234Y002782D01*
X003301Y002944D01*
X003301Y003119D01*
X003234Y003280D01*
X003110Y003404D01*
X002949Y003471D01*
X002774Y003471D01*
X002612Y003404D01*
X002488Y003280D01*
X002421Y003119D01*
X002421Y002944D01*
X002488Y002782D01*
X002612Y002658D01*
X002537Y002733D02*
X001216Y002733D01*
X001295Y002812D02*
X002476Y002812D01*
X002443Y002890D02*
X001357Y002890D01*
X001390Y002969D02*
X002421Y002969D01*
X002421Y003047D02*
X001421Y003047D01*
X001421Y003126D02*
X002424Y003126D01*
X002457Y003204D02*
X001421Y003204D01*
X001403Y003283D02*
X002491Y003283D01*
X002569Y003361D02*
X001370Y003361D01*
X001325Y003440D02*
X002698Y003440D01*
X003024Y003440D02*
X003501Y003440D01*
X003501Y003518D02*
X001247Y003518D01*
X001111Y003597D02*
X003501Y003597D01*
X003501Y003676D02*
X001188Y003676D01*
X001337Y003754D02*
X003501Y003754D01*
X003501Y003833D02*
X001416Y003833D01*
X001466Y003911D02*
X003501Y003911D01*
X003501Y003990D02*
X002673Y003990D01*
X002786Y004068D02*
X003501Y004068D01*
X003501Y004147D02*
X002843Y004147D01*
X002876Y004225D02*
X003501Y004225D01*
X003501Y004304D02*
X002879Y004304D01*
X002873Y004382D02*
X003501Y004382D01*
X003501Y004461D02*
X002841Y004461D01*
X002781Y004540D02*
X003501Y004540D01*
X003501Y004618D02*
X002701Y004618D01*
X002701Y004697D02*
X003501Y004697D01*
X003501Y004775D02*
X002701Y004775D01*
X002701Y004854D02*
X003501Y004854D01*
X003501Y004932D02*
X002701Y004932D01*
X002701Y005011D02*
X003501Y005011D01*
X003501Y005089D02*
X002701Y005089D01*
X002766Y005168D02*
X003501Y005168D01*
X003501Y005246D02*
X002835Y005246D01*
X002867Y005325D02*
X003501Y005325D01*
X003501Y005404D02*
X002879Y005404D01*
X002879Y005482D02*
X003501Y005482D01*
X003501Y005561D02*
X002849Y005561D01*
X002801Y005639D02*
X003501Y005639D01*
X003501Y005718D02*
X002709Y005718D01*
X002374Y005718D02*
X001289Y005718D01*
X001379Y005796D02*
X003501Y005796D01*
X003501Y005875D02*
X001451Y005875D01*
X001484Y005953D02*
X003501Y005953D01*
X003501Y006032D02*
X001516Y006032D01*
X001521Y006110D02*
X003501Y006110D01*
X003501Y006189D02*
X001521Y006189D01*
X001509Y006267D02*
X003501Y006267D01*
X003501Y006346D02*
X001477Y006346D01*
X001441Y006425D02*
X003501Y006425D01*
X003501Y006503D02*
X001362Y006503D01*
X001248Y006582D02*
X003501Y006582D01*
X003501Y006660D02*
X001050Y006660D01*
X001222Y006739D02*
X003501Y006739D01*
X003501Y006817D02*
X001300Y006817D01*
X001360Y006896D02*
X003480Y006896D01*
X003402Y006974D02*
X001392Y006974D01*
X001421Y007053D02*
X003323Y007053D01*
X003244Y007131D02*
X001421Y007131D01*
X001421Y007210D02*
X003166Y007210D01*
X003087Y007289D02*
X001400Y007289D01*
X001368Y007367D02*
X003009Y007367D01*
X002930Y007446D02*
X001319Y007446D01*
X001241Y007524D02*
X002852Y007524D01*
X002773Y007603D02*
X001097Y007603D01*
X001201Y007681D02*
X002695Y007681D01*
X002385Y007760D02*
X001343Y007760D01*
X001421Y007838D02*
X002286Y007838D01*
X002235Y007917D02*
X001469Y007917D01*
X001501Y007995D02*
X002203Y007995D01*
X002203Y008074D02*
X001521Y008074D01*
X001521Y008153D02*
X002213Y008153D01*
X002246Y008231D02*
X001521Y008231D01*
X001492Y008310D02*
X002311Y008310D01*
X002541Y008061D02*
X003661Y006941D01*
X003661Y002141D01*
X003455Y001869D02*
X001449Y001869D01*
X001481Y001948D02*
X003376Y001948D01*
X003343Y002026D02*
X001514Y002026D01*
X001521Y002105D02*
X003323Y002105D01*
X003323Y002183D02*
X001521Y002183D01*
X001511Y002262D02*
X003345Y002262D01*
X003382Y002340D02*
X001479Y002340D01*
X001262Y002576D02*
X003501Y002576D01*
X003501Y002654D02*
X003102Y002654D01*
X003185Y002733D02*
X003501Y002733D01*
X003501Y002812D02*
X003246Y002812D01*
X003279Y002890D02*
X003501Y002890D01*
X003501Y002969D02*
X003301Y002969D01*
X003301Y003047D02*
X003501Y003047D01*
X003501Y003126D02*
X003298Y003126D01*
X003266Y003204D02*
X003501Y003204D01*
X003501Y003283D02*
X003232Y003283D01*
X003153Y003361D02*
X003501Y003361D01*
X003821Y003361D02*
X005129Y003361D01*
X005172Y003404D02*
X005048Y003280D01*
X004981Y003119D01*
X004981Y002944D01*
X005048Y002782D01*
X005172Y002658D01*
X005334Y002591D01*
X005509Y002591D01*
X005670Y002658D01*
X005794Y002782D01*
X005861Y002944D01*
X005861Y003119D01*
X005794Y003280D01*
X005670Y003404D01*
X005509Y003471D01*
X005334Y003471D01*
X005172Y003404D01*
X005258Y003440D02*
X003821Y003440D01*
X003821Y003518D02*
X005428Y003518D01*
X005390Y003534D02*
X005514Y003483D01*
X005648Y003483D01*
X005773Y003534D01*
X005868Y003630D01*
X005919Y003754D01*
X006061Y003754D01*
X006061Y003676D02*
X005887Y003676D01*
X005919Y003754D02*
X005919Y003888D01*
X005868Y004013D01*
X005773Y004108D01*
X005741Y004121D01*
X005741Y005790D01*
X005774Y005710D01*
X005870Y005614D01*
X005994Y005563D01*
X006128Y005563D01*
X006253Y005614D01*
X006291Y005653D01*
X006334Y005550D01*
X006430Y005454D01*
X006554Y005403D01*
X006688Y005403D01*
X006813Y005454D01*
X006908Y005550D01*
X006959Y005674D01*
X006959Y005808D01*
X006908Y005933D01*
X006813Y006028D01*
X006781Y006041D01*
X006781Y006641D01*
X006813Y006654D01*
X006908Y006750D01*
X006959Y006874D01*
X006959Y007008D01*
X006908Y007133D01*
X006813Y007228D01*
X006688Y007279D01*
X006554Y007279D01*
X006430Y007228D01*
X006334Y007133D01*
X006283Y007008D01*
X006283Y006874D01*
X006334Y006750D01*
X006430Y006654D01*
X006461Y006641D01*
X006461Y006041D01*
X006430Y006028D01*
X006391Y005989D01*
X006348Y006093D01*
X006253Y006188D01*
X006221Y006201D01*
X006221Y007121D01*
X006253Y007134D01*
X006348Y007230D01*
X006399Y007354D01*
X006399Y007488D01*
X006348Y007613D01*
X006253Y007708D01*
X006128Y007759D01*
X005994Y007759D01*
X005870Y007708D01*
X005774Y007613D01*
X005741Y007532D01*
X005741Y008721D01*
X005773Y008734D01*
X005868Y008830D01*
X005901Y008910D01*
X005901Y008687D01*
X005901Y008555D01*
X006795Y007661D01*
X006927Y007661D01*
X007181Y007661D01*
X007181Y003915D01*
X007275Y003821D01*
X007661Y003435D01*
X007755Y003341D01*
X007915Y003341D01*
X008175Y003081D01*
X007889Y003081D01*
X007501Y003558D01*
X007501Y003567D01*
X007460Y003608D01*
X007423Y003653D01*
X007414Y003654D01*
X007407Y003661D01*
X007349Y003661D01*
X007319Y003664D01*
X007308Y003693D01*
X007213Y003788D01*
X007088Y003839D01*
X006954Y003839D01*
X006830Y003788D01*
X006734Y003693D01*
X006683Y003568D01*
X006683Y003434D01*
X006734Y003310D01*
X006830Y003214D01*
X006954Y003163D01*
X007088Y003163D01*
X007213Y003214D01*
X007298Y003300D01*
X007648Y002870D01*
X007601Y002823D01*
X007601Y002459D01*
X007859Y002201D01*
X008223Y002201D01*
X008381Y002359D01*
X008381Y002207D01*
X008239Y002065D01*
X008223Y002081D01*
X007859Y002081D01*
X007601Y001823D01*
X007601Y001459D01*
X007859Y001201D01*
X008223Y001201D01*
X008481Y001459D01*
X008481Y001823D01*
X008465Y001839D01*
X008701Y002075D01*
X008701Y002207D01*
X008701Y002359D01*
X008859Y002201D01*
X009223Y002201D01*
X009481Y002459D01*
X009481Y002823D01*
X009223Y003081D01*
X008859Y003081D01*
X008701Y002923D01*
X008701Y003007D01*
X008607Y003101D01*
X008141Y003567D01*
X008141Y003567D01*
X008060Y003648D01*
X008173Y003694D01*
X008268Y003790D01*
X008319Y003914D01*
X008319Y004048D01*
X008268Y004173D01*
X008215Y004225D02*
X009600Y004225D01*
X009567Y004304D02*
X008085Y004304D01*
X007821Y004382D02*
X009563Y004382D01*
X009568Y004461D02*
X007821Y004461D01*
X007821Y004540D02*
X009601Y004540D01*
X009660Y004618D02*
X007821Y004618D01*
X007821Y004697D02*
X009779Y004697D01*
X009811Y004932D02*
X007821Y004932D01*
X007821Y004854D02*
X010221Y004854D01*
X010221Y004932D02*
X009991Y004932D01*
X010129Y005011D02*
X010221Y005011D01*
X010221Y005089D02*
X010196Y005089D01*
X010149Y004775D02*
X007821Y004775D01*
X007821Y005011D02*
X009095Y005011D01*
X008955Y005089D02*
X007821Y005089D01*
X007821Y005168D02*
X008887Y005168D01*
X008854Y005246D02*
X007821Y005246D01*
X007821Y005325D02*
X008843Y005325D01*
X008843Y005404D02*
X007821Y005404D01*
X007821Y005482D02*
X008874Y005482D01*
X008922Y005561D02*
X007821Y005561D01*
X007821Y005639D02*
X009017Y005639D01*
X009021Y005718D02*
X007821Y005718D01*
X007821Y005796D02*
X009021Y005796D01*
X009021Y005875D02*
X007821Y005875D01*
X007821Y005953D02*
X009021Y005953D01*
X009440Y005561D02*
X009741Y005561D01*
X009644Y005482D02*
X009489Y005482D01*
X009519Y005404D02*
X009594Y005404D01*
X009563Y005325D02*
X009519Y005325D01*
X009508Y005246D02*
X009563Y005246D01*
X009574Y005168D02*
X009475Y005168D01*
X009407Y005089D02*
X009606Y005089D01*
X009673Y005011D02*
X009267Y005011D01*
X009181Y005341D02*
X009181Y007341D01*
X008701Y007821D01*
X008393Y007681D02*
X008381Y007681D01*
X008381Y007603D02*
X008441Y007603D01*
X008381Y007524D02*
X008534Y007524D01*
X009039Y007760D02*
X009096Y007760D01*
X009021Y008061D02*
X009821Y007261D01*
X009821Y006141D01*
X010033Y005875D02*
X010061Y005875D01*
X010221Y005581D02*
X009901Y005261D01*
X010023Y004697D02*
X010070Y004697D01*
X010203Y004225D02*
X010206Y004225D01*
X010239Y004147D02*
X010145Y004147D01*
X010029Y004068D02*
X010296Y004068D01*
X010409Y003990D02*
X008319Y003990D01*
X008311Y004068D02*
X009773Y004068D01*
X010541Y004301D02*
X010541Y010221D01*
X010861Y010701D02*
X011981Y009581D01*
X011981Y002701D01*
X012041Y002641D01*
X011798Y002262D02*
X011284Y002262D01*
X011363Y002340D02*
X011720Y002340D01*
X011641Y002419D02*
X011441Y002419D01*
X011481Y002497D02*
X011601Y002497D01*
X011601Y002576D02*
X011481Y002576D01*
X011481Y002654D02*
X011601Y002654D01*
X011601Y002733D02*
X011481Y002733D01*
X011481Y002812D02*
X011601Y002812D01*
X011668Y002890D02*
X011414Y002890D01*
X011336Y002969D02*
X011746Y002969D01*
X011821Y003047D02*
X011257Y003047D01*
X011181Y003126D02*
X011821Y003126D01*
X011821Y003204D02*
X011181Y003204D01*
X011181Y003283D02*
X011821Y003283D01*
X011821Y003361D02*
X011181Y003361D01*
X011181Y003440D02*
X011821Y003440D01*
X011821Y003518D02*
X011181Y003518D01*
X011181Y003597D02*
X011821Y003597D01*
X011821Y003676D02*
X011181Y003676D01*
X011181Y003754D02*
X011821Y003754D01*
X011821Y003833D02*
X011181Y003833D01*
X011181Y003911D02*
X011821Y003911D01*
X011821Y003990D02*
X011181Y003990D01*
X011181Y004068D02*
X011821Y004068D01*
X011821Y004147D02*
X011181Y004147D01*
X011181Y004225D02*
X011380Y004225D01*
X011260Y004304D02*
X011181Y004304D01*
X011181Y004382D02*
X011201Y004382D01*
X011501Y004541D02*
X011501Y009261D01*
X011021Y009741D01*
X011515Y010273D02*
X014318Y010273D01*
X014282Y010238D02*
X014221Y010091D01*
X014221Y009931D01*
X014282Y009784D01*
X014394Y009672D01*
X014541Y009611D01*
X014701Y009611D01*
X014848Y009672D01*
X014960Y009784D01*
X015021Y009931D01*
X015021Y010091D01*
X014960Y010238D01*
X014848Y010350D01*
X014701Y010411D01*
X014541Y010411D01*
X014394Y010350D01*
X014282Y010238D01*
X014264Y010195D02*
X011594Y010195D01*
X011672Y010116D02*
X014232Y010116D01*
X014221Y010038D02*
X011751Y010038D01*
X011829Y009959D02*
X014221Y009959D01*
X014242Y009880D02*
X011908Y009880D01*
X011986Y009802D02*
X014275Y009802D01*
X014343Y009723D02*
X012065Y009723D01*
X012141Y009645D02*
X014460Y009645D01*
X014782Y009645D02*
X015951Y009645D01*
X015951Y009723D02*
X014899Y009723D01*
X014967Y009802D02*
X015951Y009802D01*
X015951Y009880D02*
X015000Y009880D01*
X015021Y009959D02*
X015951Y009959D01*
X015951Y010038D02*
X015021Y010038D01*
X015011Y010116D02*
X015951Y010116D01*
X015951Y010195D02*
X014978Y010195D01*
X014925Y010273D02*
X015951Y010273D01*
X015951Y010352D02*
X014844Y010352D01*
X014398Y010352D02*
X011437Y010352D01*
X011358Y010430D02*
X015951Y010430D01*
X015951Y010509D02*
X011280Y010509D01*
X011201Y010587D02*
X015951Y010587D01*
X015951Y010666D02*
X011123Y010666D01*
X011044Y010744D02*
X015951Y010744D01*
X015951Y010823D02*
X010965Y010823D01*
X010990Y010974D02*
X011114Y010923D01*
X011248Y010923D01*
X011373Y010974D01*
X011468Y011070D01*
X011519Y011194D01*
X011519Y011328D01*
X011468Y011453D01*
X011373Y011548D01*
X011341Y011561D01*
X011341Y011921D01*
X011373Y011934D01*
X011468Y012030D01*
X011519Y012154D01*
X011519Y012288D01*
X011468Y012413D01*
X011373Y012508D01*
X011248Y012559D01*
X011114Y012559D01*
X010990Y012508D01*
X010894Y012413D01*
X010861Y012332D01*
X010828Y012413D01*
X010733Y012508D01*
X010608Y012559D01*
X010474Y012559D01*
X010350Y012508D01*
X010254Y012413D01*
X010203Y012288D01*
X010203Y012154D01*
X010254Y012030D01*
X010350Y011934D01*
X010381Y011921D01*
X010381Y011548D01*
X010350Y011535D01*
X010254Y011440D01*
X010203Y011316D01*
X010203Y011181D01*
X010254Y011057D01*
X010350Y010962D01*
X010474Y010910D01*
X010608Y010910D01*
X010733Y010962D01*
X010828Y011057D01*
X010864Y011144D01*
X010894Y011070D01*
X010990Y010974D01*
X010984Y010980D02*
X010751Y010980D01*
X010828Y011059D02*
X010905Y011059D01*
X010866Y011137D02*
X010861Y011137D01*
X010541Y011249D02*
X010541Y012221D01*
X010314Y012472D02*
X009581Y012472D01*
X009581Y012394D02*
X010247Y012394D01*
X010214Y012315D02*
X009581Y012315D01*
X009581Y012237D02*
X010203Y012237D01*
X010203Y012158D02*
X009581Y012158D01*
X009581Y012080D02*
X010234Y012080D01*
X010283Y012001D02*
X009581Y012001D01*
X009581Y011923D02*
X010378Y011923D01*
X010381Y011844D02*
X009581Y011844D01*
X009581Y011766D02*
X010381Y011766D01*
X010381Y011687D02*
X009581Y011687D01*
X009581Y011608D02*
X010381Y011608D01*
X010344Y011530D02*
X009581Y011530D01*
X009581Y011451D02*
X010266Y011451D01*
X010227Y011373D02*
X009628Y011373D01*
X009660Y011294D02*
X010203Y011294D01*
X010203Y011216D02*
X009679Y011216D01*
X009679Y011137D02*
X010221Y011137D01*
X010254Y011059D02*
X009656Y011059D01*
X009618Y010980D02*
X010331Y010980D01*
X010861Y010701D02*
X009341Y010701D01*
X009021Y011021D01*
X008781Y011021D01*
X008461Y010781D01*
X007181Y010781D01*
X007101Y010861D01*
X006897Y010587D02*
X006701Y010587D01*
X006701Y010509D02*
X007083Y010509D01*
X007097Y010523D02*
X006701Y010127D01*
X006701Y009995D01*
X006701Y009195D01*
X006795Y009101D01*
X006843Y009053D01*
X006843Y009034D01*
X006894Y008910D01*
X006990Y008814D01*
X007114Y008763D01*
X007248Y008763D01*
X007373Y008814D01*
X007421Y008863D01*
X007435Y008781D02*
X007291Y008781D01*
X007071Y008781D02*
X006841Y008781D01*
X006873Y008702D02*
X007501Y008702D01*
X007501Y008624D02*
X006879Y008624D01*
X006876Y008545D02*
X007501Y008545D01*
X007501Y008467D02*
X006843Y008467D01*
X006786Y008388D02*
X007501Y008388D01*
X007501Y008310D02*
X006673Y008310D01*
X006677Y008231D02*
X007501Y008231D01*
X007501Y008153D02*
X006756Y008153D01*
X006834Y008074D02*
X007501Y008074D01*
X007501Y007995D02*
X006913Y007995D01*
X006861Y007821D02*
X006061Y008621D01*
X006061Y011181D01*
X005741Y011501D01*
X005955Y011766D02*
X006203Y011766D01*
X006203Y011844D02*
X004861Y011844D01*
X004861Y011766D02*
X005527Y011766D01*
X005452Y011687D02*
X004861Y011687D01*
X004861Y011608D02*
X005420Y011608D01*
X005403Y011530D02*
X004861Y011530D01*
X004861Y011451D02*
X005403Y011451D01*
X005428Y011373D02*
X004861Y011373D01*
X004861Y011294D02*
X005470Y011294D01*
X005548Y011216D02*
X004861Y011216D01*
X004861Y011137D02*
X005879Y011137D01*
X005901Y011059D02*
X004861Y011059D01*
X004861Y010980D02*
X005901Y010980D01*
X005901Y010902D02*
X004861Y010902D01*
X004861Y010823D02*
X005901Y010823D01*
X005901Y010744D02*
X004861Y010744D01*
X004894Y010666D02*
X005901Y010666D01*
X005901Y010587D02*
X004973Y010587D01*
X005014Y010509D02*
X005901Y010509D01*
X005901Y010430D02*
X005039Y010430D01*
X005039Y010352D02*
X005901Y010352D01*
X005901Y010273D02*
X005359Y010273D01*
X005446Y010195D02*
X005901Y010195D01*
X005901Y010116D02*
X005491Y010116D01*
X005519Y010038D02*
X005901Y010038D01*
X005901Y009959D02*
X005519Y009959D01*
X005505Y009880D02*
X005901Y009880D01*
X005901Y009802D02*
X005473Y009802D01*
X005402Y009723D02*
X005901Y009723D01*
X005901Y009645D02*
X005261Y009645D01*
X005261Y009566D02*
X005901Y009566D01*
X005901Y009488D02*
X005261Y009488D01*
X005261Y009409D02*
X005901Y009409D01*
X005901Y009331D02*
X005717Y009331D01*
X005828Y009252D02*
X005901Y009252D01*
X005901Y009174D02*
X005884Y009174D01*
X005880Y008859D02*
X005901Y008859D01*
X005901Y008781D02*
X005819Y008781D01*
X005741Y008702D02*
X005901Y008702D01*
X005901Y008624D02*
X005741Y008624D01*
X005741Y008545D02*
X005911Y008545D01*
X005989Y008467D02*
X005741Y008467D01*
X005741Y008388D02*
X006068Y008388D01*
X006146Y008310D02*
X005741Y008310D01*
X005741Y008231D02*
X006225Y008231D01*
X006303Y008153D02*
X005741Y008153D01*
X005741Y008074D02*
X006382Y008074D01*
X006460Y007995D02*
X005741Y007995D01*
X005741Y007917D02*
X006539Y007917D01*
X006618Y007838D02*
X005741Y007838D01*
X005741Y007760D02*
X006696Y007760D01*
X006775Y007681D02*
X006279Y007681D01*
X006352Y007603D02*
X007181Y007603D01*
X007181Y007524D02*
X006384Y007524D01*
X006399Y007446D02*
X007181Y007446D01*
X007181Y007367D02*
X006399Y007367D01*
X006372Y007289D02*
X007181Y007289D01*
X007181Y007210D02*
X006830Y007210D01*
X006908Y007131D02*
X007181Y007131D01*
X007181Y007053D02*
X006941Y007053D01*
X006959Y006974D02*
X007181Y006974D01*
X007181Y006896D02*
X006959Y006896D01*
X006936Y006817D02*
X007181Y006817D01*
X007181Y006739D02*
X006897Y006739D01*
X006818Y006660D02*
X007181Y006660D01*
X007181Y006582D02*
X006781Y006582D01*
X006781Y006503D02*
X007181Y006503D01*
X007181Y006425D02*
X006781Y006425D01*
X006781Y006346D02*
X007181Y006346D01*
X007181Y006267D02*
X006781Y006267D01*
X006781Y006189D02*
X007181Y006189D01*
X007181Y006110D02*
X006781Y006110D01*
X006803Y006032D02*
X007181Y006032D01*
X007181Y005953D02*
X006887Y005953D01*
X006932Y005875D02*
X007181Y005875D01*
X007181Y005796D02*
X006959Y005796D01*
X006959Y005718D02*
X007181Y005718D01*
X007181Y005639D02*
X006945Y005639D01*
X006912Y005561D02*
X007181Y005561D01*
X007181Y005482D02*
X006840Y005482D01*
X006690Y005404D02*
X007181Y005404D01*
X007181Y005325D02*
X005741Y005325D01*
X005741Y005404D02*
X006553Y005404D01*
X006402Y005482D02*
X005741Y005482D01*
X005741Y005561D02*
X006330Y005561D01*
X006297Y005639D02*
X006277Y005639D01*
X006061Y005901D02*
X006061Y007421D01*
X006328Y007210D02*
X006412Y007210D01*
X006334Y007131D02*
X006245Y007131D01*
X006221Y007053D02*
X006301Y007053D01*
X006283Y006974D02*
X006221Y006974D01*
X006221Y006896D02*
X006283Y006896D01*
X006306Y006817D02*
X006221Y006817D01*
X006221Y006739D02*
X006345Y006739D01*
X006424Y006660D02*
X006221Y006660D01*
X006221Y006582D02*
X006461Y006582D01*
X006461Y006503D02*
X006221Y006503D01*
X006221Y006425D02*
X006461Y006425D01*
X006461Y006346D02*
X006221Y006346D01*
X006221Y006267D02*
X006461Y006267D01*
X006461Y006189D02*
X006250Y006189D01*
X006330Y006110D02*
X006461Y006110D01*
X006440Y006032D02*
X006373Y006032D01*
X006621Y005741D02*
X006621Y006941D01*
X006861Y007821D02*
X007341Y007821D01*
X007341Y003981D01*
X007821Y003501D01*
X007981Y003501D01*
X008541Y002941D01*
X008541Y002141D01*
X008041Y001641D01*
X007725Y001948D02*
X007357Y001948D01*
X007278Y002026D02*
X007804Y002026D01*
X007647Y001869D02*
X007435Y001869D01*
X007481Y001823D02*
X007223Y002081D01*
X006859Y002081D01*
X006601Y001823D01*
X006601Y001459D01*
X006859Y001201D01*
X007223Y001201D01*
X007481Y001459D01*
X007481Y001823D01*
X007481Y001791D02*
X007601Y001791D01*
X007601Y001712D02*
X007481Y001712D01*
X007481Y001633D02*
X007601Y001633D01*
X007601Y001555D02*
X007481Y001555D01*
X007481Y001476D02*
X007601Y001476D01*
X007662Y001398D02*
X007420Y001398D01*
X007341Y001319D02*
X007741Y001319D01*
X007819Y001241D02*
X007263Y001241D01*
X006819Y001241D02*
X005461Y001241D01*
X005461Y001319D02*
X005381Y001319D01*
X005381Y001398D02*
X005461Y001398D01*
X005461Y001476D02*
X005381Y001476D01*
X005381Y001555D02*
X005461Y001555D01*
X005461Y001633D02*
X005381Y001633D01*
X005677Y001633D02*
X005900Y001633D01*
X005883Y001674D02*
X005934Y001550D01*
X006030Y001454D01*
X006154Y001403D01*
X006288Y001403D01*
X006413Y001454D01*
X006508Y001550D01*
X006559Y001674D01*
X006559Y001808D01*
X006508Y001933D01*
X006413Y002028D01*
X006381Y002041D01*
X006381Y003841D01*
X006413Y003854D01*
X006508Y003950D01*
X006559Y004074D01*
X006559Y004208D01*
X006508Y004333D01*
X006413Y004428D01*
X006288Y004479D01*
X006154Y004479D01*
X006030Y004428D01*
X005934Y004333D01*
X005883Y004208D01*
X005883Y004074D01*
X005934Y003950D01*
X006030Y003854D01*
X006061Y003841D01*
X006061Y002041D01*
X006030Y002028D01*
X005934Y001933D01*
X005883Y001808D01*
X005883Y001674D01*
X005883Y001712D02*
X001275Y001712D01*
X001373Y001791D02*
X005883Y001791D01*
X005908Y001869D02*
X003867Y001869D01*
X003946Y001948D02*
X005949Y001948D01*
X006028Y002026D02*
X003979Y002026D01*
X003999Y002105D02*
X006061Y002105D01*
X006061Y002183D02*
X003999Y002183D01*
X003977Y002262D02*
X006061Y002262D01*
X006061Y002340D02*
X003940Y002340D01*
X003861Y002419D02*
X006061Y002419D01*
X006061Y002497D02*
X003821Y002497D01*
X003821Y002576D02*
X006061Y002576D01*
X006061Y002654D02*
X005662Y002654D01*
X005745Y002733D02*
X006061Y002733D01*
X006061Y002812D02*
X005806Y002812D01*
X005839Y002890D02*
X006061Y002890D01*
X006061Y002969D02*
X005861Y002969D01*
X005861Y003047D02*
X006061Y003047D01*
X006061Y003126D02*
X005858Y003126D01*
X005826Y003204D02*
X006061Y003204D01*
X006061Y003283D02*
X005792Y003283D01*
X005713Y003361D02*
X006061Y003361D01*
X006061Y003440D02*
X005584Y003440D01*
X005734Y003518D02*
X006061Y003518D01*
X006061Y003597D02*
X005835Y003597D01*
X005919Y003833D02*
X006061Y003833D01*
X005973Y003911D02*
X005910Y003911D01*
X005918Y003990D02*
X005877Y003990D01*
X005885Y004068D02*
X005812Y004068D01*
X005741Y004147D02*
X005883Y004147D01*
X005890Y004225D02*
X005741Y004225D01*
X005741Y004304D02*
X005923Y004304D01*
X005984Y004382D02*
X005741Y004382D01*
X005741Y004461D02*
X006110Y004461D01*
X006332Y004461D02*
X007181Y004461D01*
X007181Y004382D02*
X006458Y004382D01*
X006520Y004304D02*
X007181Y004304D01*
X007181Y004225D02*
X006552Y004225D01*
X006559Y004147D02*
X007181Y004147D01*
X007181Y004068D02*
X006557Y004068D01*
X006524Y003990D02*
X007181Y003990D01*
X007185Y003911D02*
X006469Y003911D01*
X006381Y003833D02*
X006938Y003833D01*
X006796Y003754D02*
X006381Y003754D01*
X006381Y003676D02*
X006727Y003676D01*
X006695Y003597D02*
X006381Y003597D01*
X006381Y003518D02*
X006683Y003518D01*
X006683Y003440D02*
X006381Y003440D01*
X006381Y003361D02*
X006713Y003361D01*
X006761Y003283D02*
X006381Y003283D01*
X006381Y003204D02*
X006854Y003204D01*
X006859Y003081D02*
X006601Y002823D01*
X006601Y002459D01*
X006859Y002201D01*
X007223Y002201D01*
X007481Y002459D01*
X007481Y002823D01*
X007223Y003081D01*
X006859Y003081D01*
X006825Y003047D02*
X006381Y003047D01*
X006381Y002969D02*
X006746Y002969D01*
X006668Y002890D02*
X006381Y002890D01*
X006381Y002812D02*
X006601Y002812D01*
X006601Y002733D02*
X006381Y002733D01*
X006381Y002654D02*
X006601Y002654D01*
X006601Y002576D02*
X006381Y002576D01*
X006381Y002497D02*
X006601Y002497D01*
X006641Y002419D02*
X006381Y002419D01*
X006381Y002340D02*
X006720Y002340D01*
X006798Y002262D02*
X006381Y002262D01*
X006381Y002183D02*
X008357Y002183D01*
X008381Y002262D02*
X008284Y002262D01*
X008362Y002340D02*
X008381Y002340D01*
X008278Y002105D02*
X006381Y002105D01*
X006414Y002026D02*
X006804Y002026D01*
X006725Y001948D02*
X006493Y001948D01*
X006534Y001869D02*
X006647Y001869D01*
X006601Y001791D02*
X006559Y001791D01*
X006559Y001712D02*
X006601Y001712D01*
X006601Y001633D02*
X006542Y001633D01*
X006510Y001555D02*
X006601Y001555D01*
X006601Y001476D02*
X006434Y001476D01*
X006662Y001398D02*
X005857Y001398D01*
X005876Y001319D02*
X006741Y001319D01*
X006221Y001741D02*
X006221Y004141D01*
X005741Y004540D02*
X007181Y004540D01*
X007181Y004618D02*
X005741Y004618D01*
X005741Y004697D02*
X007181Y004697D01*
X007181Y004775D02*
X005741Y004775D01*
X005741Y004854D02*
X007181Y004854D01*
X007181Y004932D02*
X005741Y004932D01*
X005741Y005011D02*
X007181Y005011D01*
X007181Y005089D02*
X005741Y005089D01*
X005741Y005168D02*
X007181Y005168D01*
X007181Y005246D02*
X005741Y005246D01*
X005741Y005639D02*
X005845Y005639D01*
X005771Y005718D02*
X005741Y005718D01*
X005421Y006110D02*
X005149Y006110D01*
X005227Y006189D02*
X005421Y006189D01*
X005421Y006267D02*
X005260Y006267D01*
X005279Y006346D02*
X005421Y006346D01*
X005421Y006425D02*
X005279Y006425D01*
X005256Y006503D02*
X005421Y006503D01*
X005421Y006582D02*
X005219Y006582D01*
X005140Y006660D02*
X005421Y006660D01*
X005421Y006739D02*
X005101Y006739D01*
X005101Y006817D02*
X005421Y006817D01*
X005421Y006896D02*
X005101Y006896D01*
X005101Y006974D02*
X005421Y006974D01*
X005421Y007053D02*
X005101Y007053D01*
X005101Y007131D02*
X005421Y007131D01*
X005421Y007210D02*
X005101Y007210D01*
X005060Y007289D02*
X005421Y007289D01*
X005421Y007367D02*
X005275Y007367D01*
X005364Y007446D02*
X005421Y007446D01*
X005410Y007524D02*
X005421Y007524D01*
X005741Y007603D02*
X005770Y007603D01*
X005741Y007681D02*
X005843Y007681D01*
X005101Y007661D02*
X005101Y009901D01*
X005181Y009981D01*
X004701Y010381D02*
X004701Y014461D01*
X004433Y014672D02*
X001521Y014672D01*
X001521Y014739D02*
X001446Y014919D01*
X001309Y015056D01*
X001129Y015131D01*
X000934Y015131D01*
X000754Y015056D01*
X000616Y014919D01*
X000541Y014739D01*
X000541Y014544D01*
X000616Y014364D01*
X000754Y014226D01*
X000934Y014151D01*
X001129Y014151D01*
X001309Y014226D01*
X001446Y014364D01*
X001521Y014544D01*
X001521Y014739D01*
X001516Y014750D02*
X004515Y014750D01*
X004390Y014593D02*
X001521Y014593D01*
X001509Y014515D02*
X004363Y014515D01*
X004363Y014436D02*
X001476Y014436D01*
X001440Y014357D02*
X004378Y014357D01*
X004411Y014279D02*
X001362Y014279D01*
X001247Y014200D02*
X004484Y014200D01*
X004541Y014122D02*
X001051Y014122D01*
X001029Y014131D02*
X000834Y014131D01*
X000654Y014056D01*
X000516Y013919D01*
X000441Y013739D01*
X000441Y013544D01*
X000516Y013364D01*
X000654Y013226D01*
X000834Y013151D01*
X001029Y013151D01*
X001209Y013226D01*
X001346Y013364D01*
X001421Y013544D01*
X001421Y013739D01*
X001346Y013919D01*
X001209Y014056D01*
X001029Y014131D01*
X001222Y014043D02*
X004541Y014043D01*
X004541Y013965D02*
X001300Y013965D01*
X001360Y013886D02*
X004541Y013886D01*
X004541Y013808D02*
X001392Y013808D01*
X001421Y013729D02*
X004541Y013729D01*
X004541Y013651D02*
X001421Y013651D01*
X001421Y013572D02*
X004541Y013572D01*
X004541Y013493D02*
X001400Y013493D01*
X001368Y013415D02*
X004541Y013415D01*
X004541Y013336D02*
X001319Y013336D01*
X001241Y013258D02*
X004541Y013258D01*
X004541Y013179D02*
X001097Y013179D01*
X001071Y013151D02*
X001071Y013151D01*
X001071Y012681D01*
X001541Y012681D01*
X001541Y012681D01*
X001529Y012761D01*
X001504Y012837D01*
X001467Y012908D01*
X001420Y012973D01*
X001363Y013030D01*
X001298Y013077D01*
X001227Y013114D01*
X001151Y013139D01*
X001071Y013151D01*
X001071Y013101D02*
X000991Y013101D01*
X000991Y013151D02*
X000912Y013139D01*
X000835Y013114D01*
X000764Y013077D01*
X000699Y013030D01*
X000642Y012973D01*
X000595Y012908D01*
X000558Y012837D01*
X000534Y012761D01*
X000521Y012681D01*
X000991Y012681D01*
X000991Y012601D01*
X001071Y012601D01*
X001071Y012131D01*
X001071Y012131D01*
X001151Y012144D01*
X001227Y012168D01*
X001298Y012205D01*
X001363Y012252D01*
X001420Y012309D01*
X001467Y012374D01*
X001504Y012445D01*
X001529Y012522D01*
X001541Y012601D01*
X001541Y012601D01*
X001071Y012601D01*
X001071Y012681D01*
X000991Y012681D01*
X000991Y013151D01*
X000991Y013151D01*
X000991Y013022D02*
X001071Y013022D01*
X001071Y012944D02*
X000991Y012944D01*
X000991Y012865D02*
X001071Y012865D01*
X001071Y012787D02*
X000991Y012787D01*
X000991Y012708D02*
X001071Y012708D01*
X001071Y012629D02*
X004541Y012629D01*
X004541Y012551D02*
X001533Y012551D01*
X001512Y012472D02*
X004541Y012472D01*
X004541Y012394D02*
X001477Y012394D01*
X001425Y012315D02*
X004541Y012315D01*
X004541Y012237D02*
X001342Y012237D01*
X001195Y012158D02*
X004541Y012158D01*
X004541Y012080D02*
X001153Y012080D01*
X001209Y012056D02*
X001029Y012131D01*
X000834Y012131D01*
X000654Y012056D01*
X000516Y011919D01*
X000441Y011739D01*
X000441Y011544D01*
X000516Y011364D01*
X000654Y011226D01*
X000834Y011151D01*
X001029Y011151D01*
X001209Y011226D01*
X001346Y011364D01*
X001421Y011544D01*
X001421Y011739D01*
X001346Y011919D01*
X001209Y012056D01*
X001264Y012001D02*
X004541Y012001D01*
X004541Y011923D02*
X001343Y011923D01*
X001377Y011844D02*
X004541Y011844D01*
X004541Y011766D02*
X001410Y011766D01*
X001421Y011687D02*
X004541Y011687D01*
X004541Y011608D02*
X001421Y011608D01*
X001415Y011530D02*
X004541Y011530D01*
X004541Y011451D02*
X001383Y011451D01*
X001350Y011373D02*
X004541Y011373D01*
X004541Y011294D02*
X001277Y011294D01*
X001184Y011216D02*
X004541Y011216D01*
X004541Y011137D02*
X000281Y011137D01*
X000281Y011059D02*
X000759Y011059D01*
X000754Y011056D02*
X000616Y010919D01*
X000541Y010739D01*
X000541Y010544D01*
X000616Y010364D01*
X000754Y010226D01*
X000934Y010151D01*
X001129Y010151D01*
X001309Y010226D01*
X001446Y010364D01*
X001521Y010544D01*
X001521Y010739D01*
X001446Y010919D01*
X001309Y011056D01*
X001129Y011131D01*
X000934Y011131D01*
X000754Y011056D01*
X000677Y010980D02*
X000281Y010980D01*
X000281Y010902D02*
X000609Y010902D01*
X000576Y010823D02*
X000281Y010823D01*
X000281Y010744D02*
X000544Y010744D01*
X000541Y010666D02*
X000281Y010666D01*
X000281Y010587D02*
X000541Y010587D01*
X000556Y010509D02*
X000281Y010509D01*
X000281Y010430D02*
X000588Y010430D01*
X000627Y010352D02*
X000281Y010352D01*
X000281Y010273D02*
X000706Y010273D01*
X000828Y010195D02*
X000281Y010195D01*
X000281Y010116D02*
X000496Y010116D01*
X000511Y010131D02*
X000441Y010061D01*
X000441Y009221D01*
X000511Y009151D01*
X001351Y009151D01*
X001421Y009221D01*
X001421Y010061D01*
X001351Y010131D01*
X000511Y010131D01*
X000441Y010038D02*
X000281Y010038D01*
X000281Y009959D02*
X000441Y009959D01*
X000441Y009880D02*
X000281Y009880D01*
X000281Y009802D02*
X000441Y009802D01*
X000441Y009723D02*
X000281Y009723D01*
X000281Y009645D02*
X000441Y009645D01*
X000441Y009566D02*
X000281Y009566D01*
X000281Y009488D02*
X000441Y009488D01*
X000441Y009409D02*
X000281Y009409D01*
X000281Y009331D02*
X000441Y009331D01*
X000441Y009252D02*
X000281Y009252D01*
X000281Y009174D02*
X000489Y009174D01*
X000281Y009095D02*
X003821Y009095D01*
X003821Y009016D02*
X000281Y009016D01*
X000281Y008938D02*
X003821Y008938D01*
X003821Y008859D02*
X000281Y008859D01*
X000281Y008781D02*
X003821Y008781D01*
X004141Y008781D02*
X004463Y008781D01*
X004402Y008702D02*
X004141Y008702D01*
X004141Y008624D02*
X004369Y008624D01*
X004363Y008545D02*
X004141Y008545D01*
X004141Y008467D02*
X004366Y008467D01*
X004398Y008388D02*
X004141Y008388D01*
X004141Y008310D02*
X004454Y008310D01*
X004566Y008231D02*
X004141Y008231D01*
X004196Y008153D02*
X004941Y008153D01*
X004941Y008231D02*
X004836Y008231D01*
X004941Y008074D02*
X004274Y008074D01*
X004353Y007995D02*
X004941Y007995D01*
X004879Y007917D02*
X004432Y007917D01*
X004510Y007838D02*
X004809Y007838D01*
X004776Y007760D02*
X004589Y007760D01*
X004667Y007681D02*
X004763Y007681D01*
X004763Y007603D02*
X004746Y007603D01*
X004941Y007181D02*
X003981Y008141D01*
X003981Y009581D01*
X003820Y009880D02*
X001421Y009880D01*
X001421Y009802D02*
X003724Y009802D01*
X003674Y009723D02*
X001421Y009723D01*
X001421Y009645D02*
X003643Y009645D01*
X003643Y009566D02*
X001421Y009566D01*
X001421Y009488D02*
X003654Y009488D01*
X003686Y009409D02*
X001421Y009409D01*
X001421Y009331D02*
X003753Y009331D01*
X003821Y009252D02*
X001421Y009252D01*
X001373Y009174D02*
X003821Y009174D01*
X004141Y009174D02*
X004541Y009174D01*
X004541Y009252D02*
X004141Y009252D01*
X004209Y009331D02*
X004541Y009331D01*
X004541Y009409D02*
X004276Y009409D01*
X004308Y009488D02*
X004541Y009488D01*
X004541Y009566D02*
X004319Y009566D01*
X004319Y009645D02*
X004541Y009645D01*
X004541Y009723D02*
X004288Y009723D01*
X004238Y009802D02*
X004541Y009802D01*
X004541Y009880D02*
X004142Y009880D01*
X004541Y009959D02*
X001421Y009959D01*
X001421Y010038D02*
X004541Y010038D01*
X004488Y010116D02*
X001366Y010116D01*
X001234Y010195D02*
X004412Y010195D01*
X004380Y010273D02*
X001356Y010273D01*
X001435Y010352D02*
X004363Y010352D01*
X004363Y010430D02*
X001474Y010430D01*
X001507Y010509D02*
X004388Y010509D01*
X004429Y010587D02*
X001521Y010587D01*
X001521Y010666D02*
X004508Y010666D01*
X004541Y010744D02*
X001519Y010744D01*
X001486Y010823D02*
X004541Y010823D01*
X004541Y010902D02*
X001454Y010902D01*
X001385Y010980D02*
X004541Y010980D01*
X004541Y011059D02*
X001303Y011059D01*
X000678Y011216D02*
X000281Y011216D01*
X000281Y011294D02*
X000585Y011294D01*
X000512Y011373D02*
X000281Y011373D01*
X000281Y011451D02*
X000479Y011451D01*
X000447Y011530D02*
X000281Y011530D01*
X000281Y011608D02*
X000441Y011608D01*
X000441Y011687D02*
X000281Y011687D01*
X000281Y011766D02*
X000452Y011766D01*
X000485Y011844D02*
X000281Y011844D01*
X000281Y011923D02*
X000520Y011923D01*
X000598Y012001D02*
X000281Y012001D01*
X000281Y012080D02*
X000710Y012080D01*
X000764Y012205D02*
X000835Y012168D01*
X000912Y012144D01*
X000991Y012131D01*
X000991Y012131D01*
X000991Y012601D01*
X000521Y012601D01*
X000534Y012522D01*
X000558Y012445D01*
X000595Y012374D01*
X000642Y012309D01*
X000699Y012252D01*
X000764Y012205D01*
X000720Y012237D02*
X000281Y012237D01*
X000281Y012315D02*
X000637Y012315D01*
X000585Y012394D02*
X000281Y012394D01*
X000281Y012472D02*
X000550Y012472D01*
X000529Y012551D02*
X000281Y012551D01*
X000281Y012629D02*
X000991Y012629D01*
X000991Y012551D02*
X001071Y012551D01*
X001071Y012472D02*
X000991Y012472D01*
X000991Y012394D02*
X001071Y012394D01*
X001071Y012315D02*
X000991Y012315D01*
X000991Y012237D02*
X001071Y012237D01*
X001071Y012158D02*
X000991Y012158D01*
X000867Y012158D02*
X000281Y012158D01*
X000521Y012601D02*
X000521Y012601D01*
X000521Y012681D02*
X000521Y012681D01*
X000525Y012708D02*
X000281Y012708D01*
X000281Y012787D02*
X000542Y012787D01*
X000573Y012865D02*
X000281Y012865D01*
X000281Y012944D02*
X000621Y012944D01*
X000691Y013022D02*
X000281Y013022D01*
X000281Y013101D02*
X000810Y013101D01*
X000766Y013179D02*
X000281Y013179D01*
X000281Y013258D02*
X000621Y013258D01*
X000543Y013336D02*
X000281Y013336D01*
X000281Y013415D02*
X000494Y013415D01*
X000462Y013493D02*
X000281Y013493D01*
X000281Y013572D02*
X000441Y013572D01*
X000441Y013651D02*
X000281Y013651D01*
X000281Y013729D02*
X000441Y013729D01*
X000470Y013808D02*
X000281Y013808D01*
X000281Y013886D02*
X000502Y013886D01*
X000562Y013965D02*
X000281Y013965D01*
X000281Y014043D02*
X000640Y014043D01*
X000811Y014122D02*
X000281Y014122D01*
X000281Y014200D02*
X000815Y014200D01*
X000700Y014279D02*
X000281Y014279D01*
X000281Y014357D02*
X000622Y014357D01*
X000586Y014436D02*
X000281Y014436D01*
X000281Y014515D02*
X000553Y014515D01*
X000541Y014593D02*
X000281Y014593D01*
X000281Y014672D02*
X000541Y014672D01*
X000546Y014750D02*
X000281Y014750D01*
X000281Y014829D02*
X000578Y014829D01*
X000611Y014907D02*
X000281Y014907D01*
X000281Y014986D02*
X000683Y014986D01*
X000773Y015064D02*
X000281Y015064D01*
X000281Y015143D02*
X006345Y015143D01*
X006266Y015064D02*
X001290Y015064D01*
X001379Y014986D02*
X006227Y014986D01*
X006203Y014907D02*
X001451Y014907D01*
X001484Y014829D02*
X006203Y014829D01*
X006221Y014750D02*
X004887Y014750D01*
X004969Y014672D02*
X006254Y014672D01*
X006331Y014593D02*
X005012Y014593D01*
X005039Y014515D02*
X006381Y014515D01*
X006381Y014436D02*
X005039Y014436D01*
X005024Y014357D02*
X006381Y014357D01*
X006381Y014279D02*
X004992Y014279D01*
X004919Y014200D02*
X006381Y014200D01*
X006381Y014122D02*
X004861Y014122D01*
X004861Y014043D02*
X006381Y014043D01*
X006381Y013965D02*
X004861Y013965D01*
X004861Y013886D02*
X006381Y013886D01*
X006381Y013808D02*
X004861Y013808D01*
X004861Y013729D02*
X006381Y013729D01*
X006381Y013651D02*
X004861Y013651D01*
X004861Y013572D02*
X006381Y013572D01*
X006381Y013493D02*
X004861Y013493D01*
X004861Y013415D02*
X006381Y013415D01*
X006381Y013336D02*
X004861Y013336D01*
X004861Y013258D02*
X006381Y013258D01*
X006381Y013179D02*
X004861Y013179D01*
X004861Y013101D02*
X006381Y013101D01*
X006381Y013022D02*
X004861Y013022D01*
X004861Y012944D02*
X006381Y012944D01*
X006381Y012865D02*
X004861Y012865D01*
X004861Y012787D02*
X006381Y012787D01*
X006381Y012708D02*
X004861Y012708D01*
X004861Y012629D02*
X006381Y012629D01*
X006381Y012551D02*
X004861Y012551D01*
X004861Y012472D02*
X006381Y012472D01*
X006381Y012394D02*
X004861Y012394D01*
X004861Y012315D02*
X006381Y012315D01*
X006381Y012237D02*
X004861Y012237D01*
X004861Y012158D02*
X006381Y012158D01*
X006322Y012080D02*
X004861Y012080D01*
X004861Y012001D02*
X006250Y012001D01*
X006217Y011923D02*
X004861Y011923D01*
X004541Y012708D02*
X001537Y012708D01*
X001520Y012787D02*
X004541Y012787D01*
X004541Y012865D02*
X001489Y012865D01*
X001442Y012944D02*
X004541Y012944D01*
X004541Y013022D02*
X001371Y013022D01*
X001252Y013101D02*
X004541Y013101D01*
X006030Y011687D02*
X006231Y011687D01*
X006276Y011608D02*
X006063Y011608D01*
X006079Y011530D02*
X006361Y011530D01*
X006381Y011451D02*
X006079Y011451D01*
X006096Y011373D02*
X006381Y011373D01*
X006381Y011294D02*
X006174Y011294D01*
X006221Y011216D02*
X006381Y011216D01*
X006381Y011137D02*
X006221Y011137D01*
X006221Y011059D02*
X006381Y011059D01*
X006381Y010980D02*
X006221Y010980D01*
X006221Y010902D02*
X006381Y010902D01*
X006381Y010823D02*
X006221Y010823D01*
X006221Y010744D02*
X006381Y010744D01*
X006381Y010666D02*
X006221Y010666D01*
X006221Y010587D02*
X006381Y010587D01*
X006381Y010509D02*
X006221Y010509D01*
X006221Y010430D02*
X006381Y010430D01*
X006381Y010352D02*
X006221Y010352D01*
X006221Y010273D02*
X006381Y010273D01*
X006381Y010195D02*
X006221Y010195D01*
X006221Y010116D02*
X006381Y010116D01*
X006381Y010038D02*
X006221Y010038D01*
X006221Y009959D02*
X006381Y009959D01*
X006381Y009880D02*
X006221Y009880D01*
X006221Y009802D02*
X006381Y009802D01*
X006381Y009723D02*
X006221Y009723D01*
X006221Y009645D02*
X006381Y009645D01*
X006381Y009566D02*
X006221Y009566D01*
X006221Y009488D02*
X006381Y009488D01*
X006381Y009409D02*
X006221Y009409D01*
X006221Y009331D02*
X006381Y009331D01*
X006381Y009252D02*
X006221Y009252D01*
X006221Y009174D02*
X006381Y009174D01*
X006381Y009095D02*
X006221Y009095D01*
X006221Y009016D02*
X006381Y009016D01*
X006381Y008938D02*
X006221Y008938D01*
X006221Y008859D02*
X006301Y008859D01*
X006241Y008781D02*
X006221Y008781D01*
X006541Y008621D02*
X006541Y011821D01*
X006541Y014861D01*
X006751Y014593D02*
X008603Y014593D01*
X008603Y014608D02*
X008603Y014474D01*
X008654Y014350D01*
X008750Y014254D01*
X008781Y014241D01*
X008781Y013081D01*
X008750Y013068D01*
X008654Y012973D01*
X008603Y012848D01*
X008603Y012714D01*
X008654Y012590D01*
X008750Y012494D01*
X008874Y012443D01*
X009008Y012443D01*
X009133Y012494D01*
X009228Y012590D01*
X009261Y012670D01*
X009261Y011514D01*
X009150Y011468D01*
X009054Y011373D01*
X009003Y011248D01*
X009003Y011181D01*
X008955Y011181D01*
X008792Y011181D01*
X008738Y011189D01*
X008728Y011181D01*
X008715Y011181D01*
X008676Y011142D01*
X008408Y010941D01*
X008299Y010941D01*
X008348Y010990D01*
X008399Y011114D01*
X008399Y011248D01*
X008348Y011373D01*
X008253Y011468D01*
X008231Y011477D01*
X008299Y013513D01*
X008301Y013515D01*
X008301Y013578D01*
X008303Y013642D01*
X008301Y013644D01*
X008301Y013647D01*
X008256Y013692D01*
X008213Y013739D01*
X008210Y013739D01*
X008146Y013802D01*
X008159Y013834D01*
X008159Y013968D01*
X008108Y014093D01*
X008013Y014188D01*
X007888Y014239D01*
X007754Y014239D01*
X007630Y014188D01*
X007534Y014093D01*
X007483Y013968D01*
X007483Y013834D01*
X007534Y013710D01*
X007630Y013614D01*
X007754Y013563D01*
X007888Y013563D01*
X007920Y013576D01*
X007979Y013517D01*
X007911Y011485D01*
X007870Y011468D01*
X007774Y011373D01*
X007723Y011248D01*
X007723Y011114D01*
X007774Y010990D01*
X007823Y010941D01*
X007434Y010941D01*
X007388Y011053D01*
X007293Y011148D01*
X007168Y011199D01*
X007034Y011199D01*
X006910Y011148D01*
X006814Y011053D01*
X006763Y010928D01*
X006763Y010794D01*
X006814Y010670D01*
X006910Y010574D01*
X007034Y010523D01*
X007097Y010523D01*
X007004Y010430D02*
X006701Y010430D01*
X006701Y010352D02*
X006926Y010352D01*
X006847Y010273D02*
X006701Y010273D01*
X006701Y010195D02*
X006768Y010195D01*
X006701Y010116D02*
X006701Y010116D01*
X006701Y010038D02*
X006701Y010038D01*
X006701Y009959D02*
X006701Y009959D01*
X006701Y009880D02*
X006701Y009880D01*
X006701Y009802D02*
X006701Y009802D01*
X006701Y009723D02*
X006701Y009723D01*
X006701Y009645D02*
X006701Y009645D01*
X006701Y009566D02*
X006701Y009566D01*
X006701Y009488D02*
X006701Y009488D01*
X006701Y009409D02*
X006701Y009409D01*
X006701Y009331D02*
X006701Y009331D01*
X006701Y009252D02*
X006701Y009252D01*
X006701Y009174D02*
X006722Y009174D01*
X006701Y009095D02*
X006801Y009095D01*
X006850Y009016D02*
X006701Y009016D01*
X006701Y008938D02*
X006883Y008938D01*
X006945Y008859D02*
X006781Y008859D01*
X007581Y008861D02*
X007661Y008781D01*
X007661Y004301D01*
X007981Y003981D01*
X008127Y003676D02*
X010861Y003676D01*
X010861Y003754D02*
X008232Y003754D01*
X008286Y003833D02*
X010861Y003833D01*
X010861Y003911D02*
X008318Y003911D01*
X008111Y003597D02*
X010861Y003597D01*
X010861Y003518D02*
X008190Y003518D01*
X008268Y003440D02*
X010861Y003440D01*
X010861Y003361D02*
X008347Y003361D01*
X008426Y003283D02*
X010861Y003283D01*
X010861Y003204D02*
X008504Y003204D01*
X008583Y003126D02*
X010861Y003126D01*
X010825Y003047D02*
X010257Y003047D01*
X010223Y003081D02*
X009859Y003081D01*
X009601Y002823D01*
X009601Y002459D01*
X009859Y002201D01*
X010223Y002201D01*
X010481Y002459D01*
X010481Y002823D01*
X010223Y003081D01*
X010336Y002969D02*
X010746Y002969D01*
X010668Y002890D02*
X010414Y002890D01*
X010481Y002812D02*
X010601Y002812D01*
X010601Y002733D02*
X010481Y002733D01*
X010481Y002654D02*
X010601Y002654D01*
X010601Y002576D02*
X010481Y002576D01*
X010481Y002497D02*
X010601Y002497D01*
X010641Y002419D02*
X010441Y002419D01*
X010363Y002340D02*
X010720Y002340D01*
X010798Y002262D02*
X010284Y002262D01*
X010278Y002026D02*
X010776Y002026D01*
X010697Y001948D02*
X010357Y001948D01*
X010435Y001869D02*
X010619Y001869D01*
X010581Y001791D02*
X010481Y001791D01*
X010481Y001712D02*
X010581Y001712D01*
X009804Y002026D02*
X009278Y002026D01*
X009223Y002081D02*
X008859Y002081D01*
X008601Y001823D01*
X008601Y001459D01*
X008859Y001201D01*
X009223Y001201D01*
X009481Y001459D01*
X009481Y001823D01*
X009223Y002081D01*
X009357Y001948D02*
X009725Y001948D01*
X009647Y001869D02*
X009435Y001869D01*
X009481Y001791D02*
X009601Y001791D01*
X009601Y001712D02*
X009481Y001712D01*
X009481Y001633D02*
X009601Y001633D01*
X009601Y001555D02*
X009481Y001555D01*
X009481Y001476D02*
X009601Y001476D01*
X009662Y001398D02*
X009420Y001398D01*
X009341Y001319D02*
X009741Y001319D01*
X009819Y001241D02*
X009263Y001241D01*
X008819Y001241D02*
X008263Y001241D01*
X008341Y001319D02*
X008741Y001319D01*
X008662Y001398D02*
X008420Y001398D01*
X008481Y001476D02*
X008601Y001476D01*
X008601Y001555D02*
X008481Y001555D01*
X008481Y001633D02*
X008601Y001633D01*
X008601Y001712D02*
X008481Y001712D01*
X008481Y001791D02*
X008601Y001791D01*
X008647Y001869D02*
X008495Y001869D01*
X008574Y001948D02*
X008725Y001948D01*
X008652Y002026D02*
X008804Y002026D01*
X008701Y002105D02*
X014821Y002105D01*
X014821Y002026D02*
X013307Y002026D01*
X013385Y001948D02*
X014821Y001948D01*
X014844Y001869D02*
X013464Y001869D01*
X013501Y001791D02*
X014876Y001791D01*
X014927Y001712D02*
X013501Y001712D01*
X013501Y001555D02*
X015156Y001555D01*
X015006Y001633D02*
X013081Y001633D01*
X013081Y001712D02*
X013001Y001712D01*
X013001Y001791D02*
X013081Y001791D01*
X013081Y001869D02*
X013001Y001869D01*
X013001Y001948D02*
X013081Y001948D01*
X013081Y002026D02*
X013001Y002026D01*
X013284Y002262D02*
X014880Y002262D01*
X014848Y002183D02*
X008701Y002183D01*
X008701Y002262D02*
X008798Y002262D01*
X008720Y002340D02*
X008701Y002340D01*
X008701Y002969D02*
X008746Y002969D01*
X008825Y003047D02*
X008661Y003047D01*
X008607Y003101D02*
X008607Y003101D01*
X008130Y003126D02*
X007853Y003126D01*
X007789Y003204D02*
X008052Y003204D01*
X007973Y003283D02*
X007725Y003283D01*
X007735Y003361D02*
X007661Y003361D01*
X007656Y003440D02*
X007597Y003440D01*
X007577Y003518D02*
X007533Y003518D01*
X007499Y003597D02*
X007471Y003597D01*
X007420Y003676D02*
X007315Y003676D01*
X007342Y003754D02*
X007246Y003754D01*
X007263Y003833D02*
X007104Y003833D01*
X007021Y003501D02*
X007341Y003501D01*
X008041Y002641D01*
X007720Y002340D02*
X007363Y002340D01*
X007441Y002419D02*
X007641Y002419D01*
X007601Y002497D02*
X007481Y002497D01*
X007481Y002576D02*
X007601Y002576D01*
X007601Y002654D02*
X007481Y002654D01*
X007481Y002733D02*
X007601Y002733D01*
X007601Y002812D02*
X007481Y002812D01*
X007414Y002890D02*
X007632Y002890D01*
X007568Y002969D02*
X007336Y002969D01*
X007257Y003047D02*
X007504Y003047D01*
X007440Y003126D02*
X006381Y003126D01*
X007188Y003204D02*
X007376Y003204D01*
X007312Y003283D02*
X007281Y003283D01*
X007637Y003911D02*
X007644Y003911D01*
X007643Y003990D02*
X007559Y003990D01*
X007501Y004068D02*
X007651Y004068D01*
X007589Y004147D02*
X007501Y004147D01*
X007501Y004225D02*
X007511Y004225D01*
X007501Y004304D02*
X007501Y004304D01*
X007501Y004382D02*
X007501Y004382D01*
X007501Y004461D02*
X007501Y004461D01*
X007501Y004540D02*
X007501Y004540D01*
X007501Y004618D02*
X007501Y004618D01*
X007501Y004697D02*
X007501Y004697D01*
X007501Y004775D02*
X007501Y004775D01*
X007501Y004854D02*
X007501Y004854D01*
X007501Y004932D02*
X007501Y004932D01*
X007501Y005011D02*
X007501Y005011D01*
X007501Y005089D02*
X007501Y005089D01*
X007501Y005168D02*
X007501Y005168D01*
X007501Y005246D02*
X007501Y005246D01*
X007501Y005325D02*
X007501Y005325D01*
X007501Y005404D02*
X007501Y005404D01*
X007501Y005482D02*
X007501Y005482D01*
X007501Y005561D02*
X007501Y005561D01*
X007501Y005639D02*
X007501Y005639D01*
X007501Y005718D02*
X007501Y005718D01*
X007501Y005796D02*
X007501Y005796D01*
X007501Y005875D02*
X007501Y005875D01*
X007501Y005953D02*
X007501Y005953D01*
X007501Y006032D02*
X007501Y006032D01*
X007501Y006110D02*
X007501Y006110D01*
X007501Y006189D02*
X007501Y006189D01*
X007501Y006267D02*
X007501Y006267D01*
X007501Y006346D02*
X007501Y006346D01*
X007501Y006425D02*
X007501Y006425D01*
X007501Y006503D02*
X007501Y006503D01*
X007501Y006582D02*
X007501Y006582D01*
X007501Y006660D02*
X007501Y006660D01*
X007501Y006739D02*
X007501Y006739D01*
X007501Y006817D02*
X007501Y006817D01*
X007501Y006896D02*
X007501Y006896D01*
X007501Y006974D02*
X007501Y006974D01*
X007501Y007053D02*
X007501Y007053D01*
X007501Y007131D02*
X007501Y007131D01*
X007501Y007210D02*
X007501Y007210D01*
X007501Y007289D02*
X007501Y007289D01*
X007501Y007367D02*
X007501Y007367D01*
X007501Y007446D02*
X007501Y007446D01*
X007501Y007524D02*
X007501Y007524D01*
X007501Y007603D02*
X007501Y007603D01*
X007501Y007681D02*
X007501Y007681D01*
X007501Y007760D02*
X007501Y007760D01*
X007501Y007838D02*
X007501Y007838D01*
X007501Y007917D02*
X007472Y007917D01*
X007581Y008861D02*
X007581Y010061D01*
X007501Y010141D01*
X008141Y010061D02*
X008141Y009901D01*
X007981Y009101D02*
X007981Y006701D01*
X008061Y006621D01*
X007858Y006346D02*
X007821Y006346D01*
X007821Y006267D02*
X008203Y006267D01*
X008222Y006189D02*
X007821Y006189D01*
X008254Y006110D02*
X008350Y006014D01*
X009021Y008061D02*
X009021Y009021D01*
X009101Y009101D01*
X009540Y010902D02*
X015951Y010902D01*
X015951Y010980D02*
X011378Y010980D01*
X011457Y011059D02*
X015951Y011059D01*
X015951Y011137D02*
X011496Y011137D01*
X011519Y011216D02*
X015951Y011216D01*
X015951Y011294D02*
X011519Y011294D01*
X011501Y011373D02*
X015951Y011373D01*
X015951Y011451D02*
X011468Y011451D01*
X011390Y011530D02*
X014496Y011530D01*
X014541Y011511D02*
X014701Y011511D01*
X014848Y011572D01*
X014960Y011684D01*
X015021Y011831D01*
X015021Y011991D01*
X014960Y012138D01*
X014848Y012250D01*
X014701Y012311D01*
X014541Y012311D01*
X014394Y012250D01*
X014282Y012138D01*
X014221Y011991D01*
X014221Y011831D01*
X014282Y011684D01*
X014394Y011572D01*
X014541Y011511D01*
X014746Y011530D02*
X015951Y011530D01*
X015951Y011608D02*
X014884Y011608D01*
X014961Y011687D02*
X015951Y011687D01*
X015951Y011766D02*
X014994Y011766D01*
X015021Y011844D02*
X015951Y011844D01*
X015951Y011923D02*
X015021Y011923D01*
X015017Y012001D02*
X015951Y012001D01*
X015951Y012080D02*
X014984Y012080D01*
X014940Y012158D02*
X015951Y012158D01*
X015951Y012237D02*
X014861Y012237D01*
X014381Y012237D02*
X011519Y012237D01*
X011519Y012158D02*
X014303Y012158D01*
X014258Y012080D02*
X011488Y012080D01*
X011439Y012001D02*
X014225Y012001D01*
X014221Y011923D02*
X011344Y011923D01*
X011341Y011844D02*
X014221Y011844D01*
X014248Y011766D02*
X011341Y011766D01*
X011341Y011687D02*
X014281Y011687D01*
X014358Y011608D02*
X011341Y011608D01*
X011181Y011261D02*
X011181Y012221D01*
X010954Y012472D02*
X010768Y012472D01*
X010835Y012394D02*
X010887Y012394D01*
X011094Y012551D02*
X010628Y012551D01*
X010454Y012551D02*
X009581Y012551D01*
X009581Y012629D02*
X015951Y012629D01*
X015951Y012551D02*
X011268Y012551D01*
X011408Y012472D02*
X015951Y012472D01*
X015951Y012394D02*
X011476Y012394D01*
X011508Y012315D02*
X015951Y012315D01*
X015951Y012708D02*
X009581Y012708D01*
X009581Y012787D02*
X015951Y012787D01*
X015951Y012865D02*
X009581Y012865D01*
X009581Y012944D02*
X015951Y012944D01*
X015951Y013022D02*
X009581Y013022D01*
X009581Y013101D02*
X015951Y013101D01*
X015951Y013179D02*
X009581Y013179D01*
X009581Y013258D02*
X015951Y013258D01*
X015951Y013336D02*
X009581Y013336D01*
X009581Y013415D02*
X013784Y013415D01*
X013606Y013493D02*
X009581Y013493D01*
X009581Y013572D02*
X013527Y013572D01*
X013464Y013651D02*
X009649Y013651D01*
X009716Y013729D02*
X013432Y013729D01*
X013401Y013808D02*
X009748Y013808D01*
X009759Y013886D02*
X013401Y013886D01*
X013401Y013965D02*
X009759Y013965D01*
X009708Y014093D02*
X009613Y014188D01*
X009488Y014239D01*
X009354Y014239D01*
X009230Y014188D01*
X009134Y014093D01*
X009101Y014012D01*
X009101Y014241D01*
X009133Y014254D01*
X009228Y014350D01*
X009279Y014474D01*
X009279Y014608D01*
X009228Y014733D01*
X009133Y014828D01*
X009008Y014879D01*
X008874Y014879D01*
X008750Y014828D01*
X008654Y014733D01*
X008603Y014608D01*
X008629Y014672D02*
X006829Y014672D01*
X006861Y014750D02*
X008672Y014750D01*
X008752Y014829D02*
X006879Y014829D01*
X006879Y014907D02*
X010061Y014907D01*
X010061Y014829D02*
X009130Y014829D01*
X009210Y014750D02*
X010061Y014750D01*
X010039Y014672D02*
X009253Y014672D01*
X009279Y014593D02*
X009955Y014593D01*
X009910Y014515D02*
X009279Y014515D01*
X009264Y014436D02*
X009883Y014436D01*
X009883Y014357D02*
X009231Y014357D01*
X009157Y014279D02*
X009897Y014279D01*
X009930Y014200D02*
X009582Y014200D01*
X009679Y014122D02*
X010002Y014122D01*
X010221Y014381D02*
X010221Y015901D01*
X010110Y016221D02*
X010030Y016188D01*
X009934Y016093D01*
X009883Y015968D01*
X009883Y015834D01*
X009934Y015710D01*
X010030Y015614D01*
X008652Y015614D01*
X008653Y015614D02*
X008748Y015710D01*
X008799Y015834D01*
X008799Y015968D01*
X008786Y016000D01*
X009007Y016221D01*
X010110Y016221D01*
X010006Y016164D02*
X008950Y016164D01*
X008872Y016085D02*
X009931Y016085D01*
X009899Y016007D02*
X008793Y016007D01*
X008799Y015928D02*
X009883Y015928D01*
X009883Y015850D02*
X008799Y015850D01*
X008773Y015771D02*
X009909Y015771D01*
X009951Y015693D02*
X008731Y015693D01*
X008653Y015614D02*
X008528Y015563D01*
X008394Y015563D01*
X008270Y015614D01*
X008191Y015693D02*
X007208Y015693D01*
X007213Y015694D02*
X007308Y015790D01*
X007359Y015914D01*
X007359Y016048D01*
X007308Y016173D01*
X007213Y016268D01*
X007088Y016319D01*
X006954Y016319D01*
X006830Y016268D01*
X006734Y016173D01*
X006683Y016048D01*
X006683Y015914D01*
X006734Y015790D01*
X006830Y015694D01*
X006954Y015643D01*
X007088Y015643D01*
X007213Y015694D01*
X007289Y015771D02*
X008149Y015771D01*
X008123Y015850D02*
X007333Y015850D01*
X007359Y015928D02*
X008123Y015928D01*
X008139Y016007D02*
X007359Y016007D01*
X007344Y016085D02*
X008171Y016085D01*
X008246Y016164D02*
X007311Y016164D01*
X007238Y016242D02*
X008576Y016242D01*
X008655Y016321D02*
X001429Y016321D01*
X001420Y016309D02*
X001467Y016374D01*
X001504Y016445D01*
X001529Y016522D01*
X001541Y016601D01*
X001541Y016601D01*
X001071Y016601D01*
X001071Y016131D01*
X001071Y016131D01*
X001151Y016144D01*
X001227Y016168D01*
X001298Y016205D01*
X001363Y016252D01*
X001420Y016309D01*
X001350Y016242D02*
X006804Y016242D01*
X006731Y016164D02*
X001213Y016164D01*
X001139Y016085D02*
X006698Y016085D01*
X006683Y016007D02*
X001258Y016007D01*
X001337Y015928D02*
X006683Y015928D01*
X006709Y015850D02*
X001375Y015850D01*
X001408Y015771D02*
X006753Y015771D01*
X006834Y015693D02*
X001421Y015693D01*
X001385Y015457D02*
X010061Y015457D01*
X010061Y015379D02*
X001353Y015379D01*
X001283Y015300D02*
X010061Y015300D01*
X010061Y015221D02*
X001198Y015221D01*
X000664Y015221D02*
X000281Y015221D01*
X000281Y015300D02*
X000579Y015300D01*
X000509Y015379D02*
X000281Y015379D01*
X000281Y015457D02*
X000477Y015457D01*
X000444Y015536D02*
X000281Y015536D01*
X000281Y015614D02*
X000441Y015614D01*
X000441Y015693D02*
X000281Y015693D01*
X000281Y015771D02*
X000455Y015771D01*
X000487Y015850D02*
X000281Y015850D01*
X000281Y015928D02*
X000525Y015928D01*
X000604Y016007D02*
X000281Y016007D01*
X000281Y016085D02*
X000723Y016085D01*
X000764Y016205D02*
X000835Y016168D01*
X000912Y016144D01*
X000991Y016131D01*
X000991Y016131D01*
X000991Y016601D01*
X001071Y016601D01*
X001071Y016681D01*
X001541Y016681D01*
X001541Y016681D01*
X001529Y016761D01*
X001504Y016837D01*
X001467Y016908D01*
X001420Y016973D01*
X001363Y017030D01*
X001298Y017077D01*
X001227Y017114D01*
X001151Y017139D01*
X001071Y017151D01*
X001071Y017151D01*
X001071Y016681D01*
X000991Y016681D01*
X000991Y016601D01*
X000521Y016601D01*
X000534Y016522D01*
X000558Y016445D01*
X000595Y016374D01*
X000642Y016309D01*
X000699Y016252D01*
X000764Y016205D01*
X000712Y016242D02*
X000281Y016242D01*
X000281Y016164D02*
X000849Y016164D01*
X000991Y016164D02*
X001071Y016164D01*
X001071Y016242D02*
X000991Y016242D01*
X000991Y016321D02*
X001071Y016321D01*
X001071Y016400D02*
X000991Y016400D01*
X000991Y016478D02*
X001071Y016478D01*
X001071Y016557D02*
X000991Y016557D01*
X000991Y016635D02*
X000281Y016635D01*
X000281Y016557D02*
X000528Y016557D01*
X000521Y016601D02*
X000521Y016601D01*
X000521Y016681D02*
X000991Y016681D01*
X000991Y017151D01*
X000912Y017139D01*
X000835Y017114D01*
X000764Y017077D01*
X000699Y017030D01*
X000642Y016973D01*
X000595Y016908D01*
X000558Y016837D01*
X000534Y016761D01*
X000521Y016681D01*
X000521Y016681D01*
X000526Y016714D02*
X000281Y016714D01*
X000281Y016792D02*
X000544Y016792D01*
X000576Y016871D02*
X000281Y016871D01*
X000281Y016949D02*
X000625Y016949D01*
X000697Y017028D02*
X000281Y017028D01*
X000281Y017106D02*
X000821Y017106D01*
X000991Y017106D02*
X001071Y017106D01*
X001071Y017028D02*
X000991Y017028D01*
X000991Y016949D02*
X001071Y016949D01*
X001071Y016871D02*
X000991Y016871D01*
X000991Y016792D02*
X001071Y016792D01*
X001071Y016714D02*
X000991Y016714D01*
X001071Y016635D02*
X015581Y016635D01*
X015659Y016557D02*
X011494Y016557D01*
X011348Y016557D02*
X001534Y016557D01*
X001514Y016478D02*
X008812Y016478D01*
X008733Y016400D02*
X001480Y016400D01*
X001536Y016714D02*
X015502Y016714D01*
X015424Y016792D02*
X001518Y016792D01*
X001486Y016871D02*
X015345Y016871D01*
X015562Y017106D02*
X015951Y017106D01*
X015951Y017028D02*
X015641Y017028D01*
X015719Y016949D02*
X015951Y016949D01*
X015951Y016871D02*
X015798Y016871D01*
X015876Y016792D02*
X015951Y016792D01*
X015951Y017185D02*
X015483Y017185D01*
X015405Y017264D02*
X015951Y017264D01*
X015951Y017342D02*
X015326Y017342D01*
X015248Y017421D02*
X015951Y017421D01*
X015951Y018285D02*
X003827Y018285D01*
X003839Y018363D02*
X015951Y018363D01*
X015951Y018442D02*
X003839Y018442D01*
X003809Y018520D02*
X015951Y018520D01*
X015951Y018599D02*
X003762Y018599D01*
X003669Y018677D02*
X015951Y018677D01*
X015661Y016478D02*
X011642Y016478D01*
X011713Y016400D02*
X015661Y016400D01*
X015661Y016321D02*
X011746Y016321D01*
X011759Y016242D02*
X015661Y016242D01*
X015661Y016164D02*
X011759Y016164D01*
X011731Y016085D02*
X015661Y016085D01*
X015661Y016007D02*
X011685Y016007D01*
X011598Y015928D02*
X015661Y015928D01*
X015661Y015850D02*
X010559Y015850D01*
X010559Y015928D02*
X011244Y015928D01*
X011157Y016007D02*
X010543Y016007D01*
X010511Y016085D02*
X011111Y016085D01*
X011083Y016164D02*
X010436Y016164D01*
X010533Y015771D02*
X015661Y015771D01*
X015661Y015693D02*
X010491Y015693D01*
X010412Y015614D02*
X015661Y015614D01*
X015661Y015536D02*
X010381Y015536D01*
X010061Y015601D02*
X010030Y015614D01*
X010061Y015143D02*
X006737Y015143D01*
X006816Y015064D02*
X010061Y015064D01*
X010061Y014986D02*
X006855Y014986D01*
X006701Y014515D02*
X008603Y014515D01*
X008619Y014436D02*
X006701Y014436D01*
X006701Y014357D02*
X008651Y014357D01*
X008725Y014279D02*
X006701Y014279D01*
X006701Y014200D02*
X007660Y014200D01*
X007564Y014122D02*
X006701Y014122D01*
X006701Y014043D02*
X007514Y014043D01*
X007483Y013965D02*
X006701Y013965D01*
X006701Y013886D02*
X007483Y013886D01*
X007494Y013808D02*
X006701Y013808D01*
X006701Y013729D02*
X007526Y013729D01*
X007593Y013651D02*
X006701Y013651D01*
X006701Y013572D02*
X007732Y013572D01*
X007910Y013572D02*
X007924Y013572D01*
X007978Y013493D02*
X006701Y013493D01*
X006701Y013415D02*
X007976Y013415D01*
X007973Y013336D02*
X006701Y013336D01*
X006701Y013258D02*
X007970Y013258D01*
X007968Y013179D02*
X006701Y013179D01*
X006701Y013101D02*
X007965Y013101D01*
X007962Y013022D02*
X006701Y013022D01*
X006701Y012944D02*
X007960Y012944D01*
X007957Y012865D02*
X006701Y012865D01*
X006701Y012787D02*
X007955Y012787D01*
X007952Y012708D02*
X006701Y012708D01*
X006701Y012629D02*
X007949Y012629D01*
X007947Y012551D02*
X006701Y012551D01*
X006701Y012472D02*
X007944Y012472D01*
X007941Y012394D02*
X006701Y012394D01*
X006701Y012315D02*
X007939Y012315D01*
X007936Y012237D02*
X006701Y012237D01*
X006701Y012158D02*
X007934Y012158D01*
X007931Y012080D02*
X006761Y012080D01*
X006832Y012001D02*
X007928Y012001D01*
X007926Y011923D02*
X006865Y011923D01*
X006879Y011844D02*
X007923Y011844D01*
X007921Y011766D02*
X006879Y011766D01*
X006851Y011687D02*
X007918Y011687D01*
X007915Y011608D02*
X006807Y011608D01*
X006722Y011530D02*
X007913Y011530D01*
X007853Y011451D02*
X006701Y011451D01*
X006701Y011373D02*
X007775Y011373D01*
X007742Y011294D02*
X006701Y011294D01*
X006701Y011216D02*
X007723Y011216D01*
X007723Y011137D02*
X007303Y011137D01*
X007382Y011059D02*
X007746Y011059D01*
X007784Y010980D02*
X007418Y010980D01*
X006899Y011137D02*
X006701Y011137D01*
X006701Y011059D02*
X006820Y011059D01*
X006784Y010980D02*
X006701Y010980D01*
X006701Y010902D02*
X006763Y010902D01*
X006763Y010823D02*
X006701Y010823D01*
X006701Y010744D02*
X006783Y010744D01*
X006818Y010666D02*
X006701Y010666D01*
X008061Y011181D02*
X008141Y013581D01*
X007821Y013901D01*
X008128Y014043D02*
X008781Y014043D01*
X008781Y013965D02*
X008159Y013965D01*
X008159Y013886D02*
X008781Y013886D01*
X008781Y013808D02*
X008148Y013808D01*
X008222Y013729D02*
X008781Y013729D01*
X008781Y013651D02*
X008298Y013651D01*
X008301Y013572D02*
X008781Y013572D01*
X008781Y013493D02*
X008298Y013493D01*
X008296Y013415D02*
X008781Y013415D01*
X008781Y013336D02*
X008293Y013336D01*
X008290Y013258D02*
X008781Y013258D01*
X008781Y013179D02*
X008288Y013179D01*
X008285Y013101D02*
X008781Y013101D01*
X008704Y013022D02*
X008282Y013022D01*
X008280Y012944D02*
X008642Y012944D01*
X008610Y012865D02*
X008277Y012865D01*
X008275Y012787D02*
X008603Y012787D01*
X008605Y012708D02*
X008272Y012708D01*
X008269Y012629D02*
X008638Y012629D01*
X008693Y012551D02*
X008267Y012551D01*
X008264Y012472D02*
X008803Y012472D01*
X009079Y012472D02*
X009261Y012472D01*
X009261Y012394D02*
X008262Y012394D01*
X008259Y012315D02*
X009261Y012315D01*
X009261Y012237D02*
X008256Y012237D01*
X008254Y012158D02*
X009261Y012158D01*
X009261Y012080D02*
X008251Y012080D01*
X008248Y012001D02*
X009261Y012001D01*
X009261Y011923D02*
X008246Y011923D01*
X008243Y011844D02*
X009261Y011844D01*
X009261Y011766D02*
X008241Y011766D01*
X008238Y011687D02*
X009261Y011687D01*
X009261Y011608D02*
X008235Y011608D01*
X008233Y011530D02*
X009261Y011530D01*
X009133Y011451D02*
X008269Y011451D01*
X008348Y011373D02*
X009055Y011373D01*
X009022Y011294D02*
X008380Y011294D01*
X008399Y011216D02*
X009003Y011216D01*
X009341Y011181D02*
X009341Y011261D01*
X009421Y011341D01*
X009421Y013901D01*
X009164Y014122D02*
X009101Y014122D01*
X009101Y014200D02*
X009260Y014200D01*
X009114Y014043D02*
X009101Y014043D01*
X008781Y014122D02*
X008079Y014122D01*
X007982Y014200D02*
X008781Y014200D01*
X008941Y014541D02*
X008941Y012781D01*
X009189Y012551D02*
X009261Y012551D01*
X009261Y012629D02*
X009244Y012629D01*
X008669Y011137D02*
X008399Y011137D01*
X008376Y011059D02*
X008565Y011059D01*
X008460Y010980D02*
X008338Y010980D01*
X005581Y009021D02*
X005581Y003821D01*
X005294Y003630D02*
X005390Y003534D01*
X005327Y003597D02*
X003821Y003597D01*
X003821Y003283D02*
X005051Y003283D01*
X005017Y003204D02*
X003821Y003204D01*
X003821Y003126D02*
X004984Y003126D01*
X004981Y003047D02*
X003821Y003047D01*
X003821Y002969D02*
X004981Y002969D01*
X005003Y002890D02*
X003821Y002890D01*
X003821Y002812D02*
X005036Y002812D01*
X005097Y002733D02*
X003821Y002733D01*
X003821Y002654D02*
X005180Y002654D01*
X005165Y001633D02*
X003117Y001633D01*
X003208Y001555D02*
X005074Y001555D01*
X005020Y001476D02*
X003263Y001476D01*
X003297Y001398D02*
X004985Y001398D01*
X004966Y001319D02*
X003316Y001319D01*
X003313Y001162D02*
X004969Y001162D01*
X004992Y001084D02*
X003290Y001084D01*
X003251Y001005D02*
X005031Y001005D01*
X005095Y000927D02*
X003187Y000927D01*
X003083Y000848D02*
X005199Y000848D01*
X005823Y001476D02*
X006008Y001476D01*
X005932Y001555D02*
X005768Y001555D01*
X007284Y002262D02*
X007798Y002262D01*
X009257Y003047D02*
X009825Y003047D01*
X009746Y002969D02*
X009336Y002969D01*
X009414Y002890D02*
X009668Y002890D01*
X009601Y002812D02*
X009481Y002812D01*
X009481Y002733D02*
X009601Y002733D01*
X009601Y002654D02*
X009481Y002654D01*
X009481Y002576D02*
X009601Y002576D01*
X009601Y002497D02*
X009481Y002497D01*
X009441Y002419D02*
X009641Y002419D01*
X009720Y002340D02*
X009363Y002340D01*
X009284Y002262D02*
X009798Y002262D01*
X011021Y002661D02*
X011041Y002641D01*
X011021Y002661D02*
X011021Y005421D01*
X011101Y006061D02*
X011101Y007661D01*
X012141Y007681D02*
X014930Y007681D01*
X014922Y007689D02*
X014979Y007632D01*
X015044Y007585D01*
X015115Y007548D01*
X015192Y007524D01*
X015271Y007511D01*
X015271Y007511D01*
X015271Y007981D01*
X015351Y007981D01*
X015351Y007511D01*
X015351Y007511D01*
X015431Y007524D01*
X015507Y007548D01*
X015578Y007585D01*
X015643Y007632D01*
X015700Y007689D01*
X015747Y007754D01*
X015784Y007825D01*
X015809Y007902D01*
X015821Y007981D01*
X015821Y007981D01*
X015351Y007981D01*
X015351Y008061D01*
X015821Y008061D01*
X015821Y008061D01*
X015809Y008141D01*
X015784Y008217D01*
X015747Y008288D01*
X015700Y008353D01*
X015643Y008410D01*
X015578Y008457D01*
X015507Y008494D01*
X015431Y008519D01*
X015351Y008531D01*
X015351Y008531D01*
X015351Y008061D01*
X015271Y008061D01*
X015271Y007981D01*
X014801Y007981D01*
X014814Y007902D01*
X014838Y007825D01*
X014875Y007754D01*
X014922Y007689D01*
X014872Y007760D02*
X012141Y007760D01*
X012141Y007838D02*
X014834Y007838D01*
X014811Y007917D02*
X012141Y007917D01*
X012141Y007995D02*
X015271Y007995D01*
X015271Y008061D02*
X014801Y008061D01*
X014801Y008061D01*
X014814Y008141D01*
X014838Y008217D01*
X014875Y008288D01*
X014922Y008353D01*
X014979Y008410D01*
X015044Y008457D01*
X015115Y008494D01*
X015192Y008519D01*
X015271Y008531D01*
X015271Y008531D01*
X015271Y008061D01*
X015271Y008074D02*
X015351Y008074D01*
X015351Y008153D02*
X015271Y008153D01*
X015271Y008231D02*
X015351Y008231D01*
X015351Y008310D02*
X015271Y008310D01*
X015271Y008388D02*
X015351Y008388D01*
X015351Y008467D02*
X015271Y008467D01*
X015062Y008467D02*
X012141Y008467D01*
X012141Y008545D02*
X015951Y008545D01*
X015951Y008467D02*
X015560Y008467D01*
X015665Y008388D02*
X015951Y008388D01*
X015951Y008310D02*
X015732Y008310D01*
X015776Y008231D02*
X015951Y008231D01*
X015951Y008153D02*
X015805Y008153D01*
X015819Y008074D02*
X015951Y008074D01*
X015951Y007995D02*
X015351Y007995D01*
X015351Y007917D02*
X015271Y007917D01*
X015271Y007838D02*
X015351Y007838D01*
X015351Y007760D02*
X015271Y007760D01*
X015271Y007681D02*
X015351Y007681D01*
X015351Y007603D02*
X015271Y007603D01*
X015271Y007524D02*
X015351Y007524D01*
X015309Y007511D02*
X015114Y007511D01*
X014934Y007436D01*
X014796Y007299D01*
X014721Y007119D01*
X014721Y006924D01*
X014796Y006744D01*
X014934Y006606D01*
X015114Y006531D01*
X015309Y006531D01*
X015489Y006606D01*
X015626Y006744D01*
X015701Y006924D01*
X015701Y007119D01*
X015626Y007299D01*
X015489Y007436D01*
X015309Y007511D01*
X015190Y007524D02*
X012141Y007524D01*
X012141Y007446D02*
X014956Y007446D01*
X014864Y007367D02*
X012141Y007367D01*
X012141Y007289D02*
X014792Y007289D01*
X014759Y007210D02*
X012141Y007210D01*
X012141Y007131D02*
X014726Y007131D01*
X014721Y007053D02*
X012141Y007053D01*
X012141Y006974D02*
X014721Y006974D01*
X014733Y006896D02*
X012141Y006896D01*
X012141Y006817D02*
X014765Y006817D01*
X014800Y006739D02*
X012141Y006739D01*
X012141Y006660D02*
X014879Y006660D01*
X014992Y006582D02*
X012141Y006582D01*
X012141Y006503D02*
X015194Y006503D01*
X015214Y006511D02*
X015034Y006436D01*
X014896Y006299D01*
X014821Y006119D01*
X014821Y005924D01*
X014896Y005744D01*
X015034Y005606D01*
X015214Y005531D01*
X015409Y005531D01*
X015589Y005606D01*
X015726Y005744D01*
X015801Y005924D01*
X015801Y006119D01*
X015726Y006299D01*
X015589Y006436D01*
X015409Y006511D01*
X015214Y006511D01*
X015022Y006425D02*
X012141Y006425D01*
X012141Y006346D02*
X014943Y006346D01*
X014883Y006267D02*
X012141Y006267D01*
X012141Y006189D02*
X014850Y006189D01*
X014821Y006110D02*
X012141Y006110D01*
X012141Y006032D02*
X014821Y006032D01*
X014821Y005953D02*
X012141Y005953D01*
X012141Y005875D02*
X014841Y005875D01*
X014874Y005796D02*
X012141Y005796D01*
X012141Y005718D02*
X014922Y005718D01*
X015000Y005639D02*
X012141Y005639D01*
X012141Y005561D02*
X015142Y005561D01*
X015114Y005511D02*
X014934Y005436D01*
X014796Y005299D01*
X014721Y005119D01*
X014721Y004924D01*
X014796Y004744D01*
X014934Y004606D01*
X015114Y004531D01*
X015309Y004531D01*
X015489Y004606D01*
X015626Y004744D01*
X015701Y004924D01*
X015701Y005119D01*
X015626Y005299D01*
X015489Y005436D01*
X015309Y005511D01*
X015114Y005511D01*
X015044Y005482D02*
X012141Y005482D01*
X012141Y005404D02*
X014901Y005404D01*
X014822Y005325D02*
X012141Y005325D01*
X012141Y005246D02*
X014774Y005246D01*
X014742Y005168D02*
X012141Y005168D01*
X012141Y005089D02*
X014721Y005089D01*
X014721Y005011D02*
X012141Y005011D01*
X012141Y004932D02*
X014721Y004932D01*
X014750Y004854D02*
X012141Y004854D01*
X012141Y004775D02*
X014783Y004775D01*
X014843Y004697D02*
X012141Y004697D01*
X012141Y004618D02*
X014921Y004618D01*
X015093Y004540D02*
X012141Y004540D01*
X012141Y004461D02*
X015051Y004461D01*
X015044Y004457D02*
X014979Y004410D01*
X014922Y004353D01*
X014875Y004288D01*
X014838Y004217D01*
X014814Y004141D01*
X014801Y004061D01*
X015271Y004061D01*
X015271Y004531D01*
X015192Y004519D01*
X015115Y004494D01*
X015044Y004457D01*
X014951Y004382D02*
X012141Y004382D01*
X012141Y004304D02*
X014886Y004304D01*
X014843Y004225D02*
X012141Y004225D01*
X012141Y004147D02*
X014816Y004147D01*
X014802Y004068D02*
X012141Y004068D01*
X012141Y003990D02*
X015271Y003990D01*
X015271Y004068D02*
X015351Y004068D01*
X015351Y003990D02*
X015951Y003990D01*
X015951Y004068D02*
X015820Y004068D01*
X015806Y004147D02*
X015951Y004147D01*
X015951Y004225D02*
X015779Y004225D01*
X015736Y004304D02*
X015951Y004304D01*
X015951Y004382D02*
X015671Y004382D01*
X015571Y004461D02*
X015951Y004461D01*
X015951Y004540D02*
X015329Y004540D01*
X015271Y004531D02*
X015271Y004531D01*
X015271Y004461D02*
X015351Y004461D01*
X015351Y004382D02*
X015271Y004382D01*
X015271Y004304D02*
X015351Y004304D01*
X015351Y004225D02*
X015271Y004225D01*
X015271Y004147D02*
X015351Y004147D01*
X015351Y003911D02*
X015271Y003911D01*
X015271Y003833D02*
X015351Y003833D01*
X015351Y003754D02*
X015271Y003754D01*
X015271Y003676D02*
X015351Y003676D01*
X015351Y003597D02*
X015271Y003597D01*
X015027Y003597D02*
X012141Y003597D01*
X012141Y003676D02*
X014935Y003676D01*
X014875Y003754D02*
X012141Y003754D01*
X012141Y003833D02*
X014836Y003833D01*
X014812Y003911D02*
X012141Y003911D01*
X011821Y004225D02*
X011622Y004225D01*
X011742Y004304D02*
X011821Y004304D01*
X011821Y004382D02*
X011801Y004382D01*
X010861Y004147D02*
X010843Y004147D01*
X010861Y004068D02*
X010786Y004068D01*
X010861Y003990D02*
X010673Y003990D01*
X011385Y001948D02*
X011697Y001948D01*
X011619Y001869D02*
X011464Y001869D01*
X011501Y001791D02*
X011581Y001791D01*
X011581Y001712D02*
X011501Y001712D01*
X011501Y001555D02*
X011581Y001555D01*
X011581Y001476D02*
X011501Y001476D01*
X011448Y001398D02*
X011634Y001398D01*
X011712Y001319D02*
X011370Y001319D01*
X011291Y001241D02*
X011791Y001241D01*
X013336Y002969D02*
X014721Y002969D01*
X014735Y002890D02*
X013414Y002890D01*
X013481Y002812D02*
X014767Y002812D01*
X014806Y002733D02*
X013481Y002733D01*
X013481Y002654D02*
X014885Y002654D01*
X015005Y002576D02*
X013481Y002576D01*
X013481Y002497D02*
X015181Y002497D01*
X015016Y002419D02*
X013441Y002419D01*
X013363Y002340D02*
X014937Y002340D01*
X014757Y001476D02*
X013501Y001476D01*
X013448Y001398D02*
X014721Y001398D01*
X014721Y001319D02*
X013370Y001319D01*
X014801Y003981D02*
X014801Y003981D01*
X014801Y004061D02*
X014801Y004061D01*
X015501Y004618D02*
X015951Y004618D01*
X015951Y004697D02*
X015580Y004697D01*
X015640Y004775D02*
X015951Y004775D01*
X015951Y004854D02*
X015672Y004854D01*
X015701Y004932D02*
X015951Y004932D01*
X015951Y005011D02*
X015701Y005011D01*
X015701Y005089D02*
X015951Y005089D01*
X015951Y005168D02*
X015681Y005168D01*
X015648Y005246D02*
X015951Y005246D01*
X015951Y005325D02*
X015600Y005325D01*
X015522Y005404D02*
X015951Y005404D01*
X015951Y005482D02*
X015379Y005482D01*
X015480Y005561D02*
X015951Y005561D01*
X015951Y005639D02*
X015622Y005639D01*
X015701Y005718D02*
X015951Y005718D01*
X015951Y005796D02*
X015748Y005796D01*
X015781Y005875D02*
X015951Y005875D01*
X015951Y005953D02*
X015801Y005953D01*
X015801Y006032D02*
X015951Y006032D01*
X015951Y006110D02*
X015801Y006110D01*
X015772Y006189D02*
X015951Y006189D01*
X015951Y006267D02*
X015739Y006267D01*
X015679Y006346D02*
X015951Y006346D01*
X015951Y006425D02*
X015601Y006425D01*
X015428Y006503D02*
X015951Y006503D01*
X015951Y006582D02*
X015431Y006582D01*
X015543Y006660D02*
X015951Y006660D01*
X015951Y006739D02*
X015622Y006739D01*
X015657Y006817D02*
X015951Y006817D01*
X015951Y006896D02*
X015690Y006896D01*
X015701Y006974D02*
X015951Y006974D01*
X015951Y007053D02*
X015701Y007053D01*
X015696Y007131D02*
X015951Y007131D01*
X015951Y007210D02*
X015663Y007210D01*
X015631Y007289D02*
X015951Y007289D01*
X015951Y007367D02*
X015558Y007367D01*
X015467Y007446D02*
X015951Y007446D01*
X015951Y007524D02*
X015432Y007524D01*
X015603Y007603D02*
X015951Y007603D01*
X015951Y007681D02*
X015692Y007681D01*
X015750Y007760D02*
X015951Y007760D01*
X015951Y007838D02*
X015788Y007838D01*
X015811Y007917D02*
X015951Y007917D01*
X015951Y008624D02*
X012141Y008624D01*
X012141Y008702D02*
X015951Y008702D01*
X015951Y008781D02*
X012141Y008781D01*
X012141Y008859D02*
X015951Y008859D01*
X015951Y008938D02*
X012141Y008938D01*
X012141Y009016D02*
X015951Y009016D01*
X015951Y009095D02*
X012141Y009095D01*
X012141Y009174D02*
X015951Y009174D01*
X015951Y009252D02*
X012141Y009252D01*
X012141Y009331D02*
X015951Y009331D01*
X015951Y009409D02*
X012141Y009409D01*
X012141Y009488D02*
X015951Y009488D01*
X015951Y009566D02*
X012141Y009566D01*
X012141Y008388D02*
X014957Y008388D01*
X014890Y008310D02*
X012141Y008310D01*
X012141Y008231D02*
X014846Y008231D01*
X014818Y008153D02*
X012141Y008153D01*
X012141Y008074D02*
X014803Y008074D01*
X014801Y007981D02*
X014801Y007981D01*
X015019Y007603D02*
X012141Y007603D01*
X015595Y003597D02*
X015951Y003597D01*
X015951Y003676D02*
X015687Y003676D01*
X015747Y003754D02*
X015951Y003754D01*
X015951Y003833D02*
X015786Y003833D01*
X015810Y003911D02*
X015951Y003911D01*
X015951Y013415D02*
X015138Y013415D01*
X014924Y013415D02*
X013998Y013415D01*
X014176Y013493D02*
X014746Y013493D01*
X014667Y013572D02*
X014255Y013572D01*
X014318Y013651D02*
X014604Y013651D01*
X014572Y013729D02*
X014350Y013729D01*
X014381Y013808D02*
X014541Y013808D01*
X014541Y013886D02*
X014381Y013886D01*
X014381Y013965D02*
X014541Y013965D01*
X014560Y014043D02*
X014363Y014043D01*
X014330Y014122D02*
X014592Y014122D01*
X014637Y014200D02*
X014285Y014200D01*
X014206Y014279D02*
X014716Y014279D01*
X015189Y014436D02*
X015335Y014436D01*
X015337Y014515D02*
X015412Y014515D01*
X015416Y014593D02*
X015490Y014593D01*
X015466Y014672D02*
X015567Y014672D01*
X015499Y014750D02*
X015645Y014750D01*
X015661Y014829D02*
X015521Y014829D01*
X015521Y014907D02*
X015661Y014907D01*
X015661Y014986D02*
X015521Y014986D01*
X015494Y015064D02*
X015661Y015064D01*
X015661Y015143D02*
X015461Y015143D01*
X015404Y015221D02*
X015661Y015221D01*
X015661Y015300D02*
X015325Y015300D01*
X015939Y014593D02*
X015951Y014593D01*
X015951Y014515D02*
X015862Y014515D01*
X015784Y014436D02*
X015951Y014436D01*
X015951Y014357D02*
X015707Y014357D01*
X015629Y014279D02*
X015951Y014279D01*
X015951Y014200D02*
X015551Y014200D01*
X015474Y014122D02*
X015951Y014122D01*
X015951Y014043D02*
X015503Y014043D01*
X015521Y013965D02*
X015951Y013965D01*
X015951Y013886D02*
X015521Y013886D01*
X015521Y013808D02*
X015951Y013808D01*
X015951Y013729D02*
X015490Y013729D01*
X015458Y013651D02*
X015951Y013651D01*
X015951Y013572D02*
X015395Y013572D01*
X015316Y013493D02*
X015951Y013493D01*
X015257Y014357D02*
X015210Y014357D01*
X014090Y016949D02*
X012592Y016949D01*
X012706Y017028D02*
X013976Y017028D01*
X013919Y017106D02*
X013653Y017106D01*
X013731Y017185D02*
X013887Y017185D01*
X013883Y017264D02*
X013810Y017264D01*
X013888Y017342D02*
X013889Y017342D01*
X012330Y016949D02*
X001437Y016949D01*
X001365Y017028D02*
X012216Y017028D01*
X012159Y017106D02*
X011733Y017106D01*
X011811Y017185D02*
X012127Y017185D01*
X012123Y017264D02*
X012098Y017264D01*
X011261Y016381D02*
X011421Y016221D01*
X011261Y016381D02*
X008941Y016381D01*
X008461Y015901D01*
X007071Y017656D02*
X000281Y017656D01*
X000281Y017735D02*
X007012Y017735D01*
X006980Y017813D02*
X000281Y017813D01*
X000281Y017892D02*
X006978Y017892D01*
X006989Y017970D02*
X000281Y017970D01*
X000991Y017151D02*
X000991Y017151D01*
X000548Y016478D02*
X000281Y016478D01*
X000281Y016400D02*
X000582Y016400D01*
X000633Y016321D02*
X000281Y016321D01*
X003583Y018049D02*
X007021Y018049D01*
X004701Y010381D02*
X004701Y008541D01*
X004541Y008859D02*
X004141Y008859D01*
X004141Y008938D02*
X004541Y008938D01*
X004541Y009016D02*
X004141Y009016D01*
X004141Y009095D02*
X004541Y009095D01*
X005261Y009174D02*
X005278Y009174D01*
X005261Y009252D02*
X005334Y009252D01*
X005261Y009331D02*
X005445Y009331D01*
X004941Y007181D02*
X004941Y006381D01*
X002541Y005421D02*
X002541Y004301D01*
X002301Y004540D02*
X001326Y004540D01*
X001404Y004461D02*
X002241Y004461D01*
X002209Y004382D02*
X001461Y004382D01*
X001494Y004304D02*
X002203Y004304D01*
X002206Y004225D02*
X001521Y004225D01*
X001521Y004147D02*
X002239Y004147D01*
X002296Y004068D02*
X001521Y004068D01*
X001499Y003990D02*
X002409Y003990D01*
X000875Y003676D02*
X000281Y003676D01*
X000281Y004697D02*
X000724Y004697D01*
X000604Y004775D02*
X000281Y004775D01*
X000281Y004854D02*
X000526Y004854D01*
X000487Y004932D02*
X000281Y004932D01*
X000281Y005011D02*
X000455Y005011D01*
X000441Y005089D02*
X000281Y005089D01*
X000281Y005168D02*
X000441Y005168D01*
X000444Y005246D02*
X000281Y005246D01*
X000281Y005325D02*
X000477Y005325D01*
X000509Y005404D02*
X000281Y005404D01*
X000281Y005482D02*
X000579Y005482D01*
X000664Y005561D02*
X000281Y005561D01*
X002821Y001633D02*
X002901Y001633D01*
X002901Y001555D02*
X002821Y001555D01*
X002821Y001476D02*
X002901Y001476D01*
X002901Y001398D02*
X002821Y001398D01*
X002821Y001162D02*
X002901Y001162D01*
X002901Y001084D02*
X002821Y001084D01*
X002821Y001005D02*
X002901Y001005D01*
X002901Y000927D02*
X002821Y000927D01*
X002821Y000848D02*
X002901Y000848D01*
M02*
