G75*
G70*
%OFA0B0*%
%FSLAX24Y24*%
%IPPOS*%
%LPD*%
%AMOC8*
5,1,8,0,0,1.08239X$1,22.5*
%
%ADD10R,0.0060X0.0060*%
%ADD11R,0.0060X0.0120*%
%ADD12R,0.0060X0.0240*%
%ADD13R,0.0060X0.0300*%
%ADD14R,0.0060X0.0360*%
%ADD15R,0.0060X0.0180*%
%ADD16R,0.0060X0.0420*%
%ADD17R,0.0060X0.0540*%
%ADD18R,0.0060X0.0600*%
%ADD19R,0.0060X0.0480*%
%ADD20R,0.0060X0.0660*%
%ADD21R,0.0060X0.0720*%
%ADD22R,0.0060X0.0840*%
%ADD23R,0.0060X0.0780*%
%ADD24R,0.0060X0.0900*%
%ADD25R,0.0060X0.1200*%
%ADD26R,0.0060X0.1500*%
%ADD27R,0.0060X0.1440*%
%ADD28R,0.0060X0.1860*%
%ADD29R,0.0060X0.1560*%
%ADD30R,0.0060X0.1920*%
%ADD31R,0.0060X0.1620*%
%ADD32R,0.0060X0.1680*%
%ADD33R,0.0060X0.1380*%
%ADD34R,0.0060X0.0960*%
%ADD35R,0.0060X0.2040*%
%ADD36R,0.0060X0.1980*%
%ADD37R,0.0060X0.1800*%
%ADD38R,0.0060X0.1260*%
%ADD39R,0.0060X0.1080*%
D10*
X003521Y003921D03*
X004181Y004161D03*
X005561Y002901D03*
X004301Y001881D03*
X007551Y005231D03*
X006771Y008351D03*
X007431Y008591D03*
X005561Y011961D03*
X005871Y013451D03*
X005871Y015251D03*
X005931Y015311D03*
X004841Y016821D03*
X002681Y015621D03*
X004301Y010941D03*
X007551Y013571D03*
X007971Y015311D03*
D11*
X007371Y015161D03*
X007311Y015101D03*
X007191Y015041D03*
X007071Y014981D03*
X006891Y014861D03*
X006771Y014801D03*
X006651Y014741D03*
X005991Y015401D03*
X006591Y015761D03*
X005691Y014501D03*
X004841Y014871D03*
X004781Y015471D03*
X004241Y014211D03*
X004181Y014151D03*
X004121Y014091D03*
X004061Y014031D03*
X004001Y013971D03*
X003941Y013911D03*
X004301Y013611D03*
X004361Y013671D03*
X004421Y013731D03*
X004421Y013311D03*
X003401Y013491D03*
X002741Y015651D03*
X004841Y017811D03*
X007791Y013781D03*
X007731Y013721D03*
X007671Y013661D03*
X008091Y013181D03*
X007671Y012581D03*
X007611Y012521D03*
X007551Y012461D03*
X008031Y011321D03*
X007611Y008801D03*
X007491Y008621D03*
X007371Y008561D03*
X006831Y008381D03*
X007431Y007181D03*
X007371Y007121D03*
X007311Y007061D03*
X007251Y007001D03*
X007671Y006401D03*
X007491Y006221D03*
X007431Y006161D03*
X007371Y006101D03*
X007311Y006041D03*
X007251Y005981D03*
X007191Y005921D03*
X007551Y005621D03*
X007611Y005681D03*
X007671Y005741D03*
X007671Y005321D03*
X007611Y005261D03*
X006651Y005501D03*
X007971Y007601D03*
X008031Y008201D03*
X005081Y009771D03*
X004361Y010971D03*
X004421Y011031D03*
X004481Y011091D03*
X004541Y011151D03*
X004601Y011211D03*
X004661Y011271D03*
X004661Y011571D03*
X005501Y011931D03*
X003641Y011031D03*
X003221Y009771D03*
X003101Y008691D03*
X002981Y008631D03*
X004781Y007491D03*
X004841Y006891D03*
X004421Y006411D03*
X004241Y006171D03*
X004181Y006111D03*
X004121Y006051D03*
X004061Y005991D03*
X004001Y005931D03*
X003941Y005871D03*
X004301Y005571D03*
X004361Y005631D03*
X004421Y005691D03*
X004421Y005271D03*
X004361Y005211D03*
X004301Y005151D03*
X004361Y004371D03*
X004301Y004251D03*
X004241Y004191D03*
X004121Y004131D03*
X003581Y003951D03*
X003401Y005451D03*
X004781Y003771D03*
X005501Y002871D03*
X004661Y002511D03*
X004661Y002211D03*
X004601Y002151D03*
X004541Y002091D03*
X004481Y002031D03*
X004421Y001971D03*
X004361Y001911D03*
X003641Y001971D03*
D12*
X003101Y004191D03*
X003161Y004251D03*
X003281Y004311D03*
X003341Y004371D03*
X003761Y004671D03*
X003941Y004791D03*
X004061Y004851D03*
X004121Y004911D03*
X004361Y004971D03*
X004421Y004971D03*
X004481Y004971D03*
X004841Y004971D03*
X004541Y004551D03*
X004421Y003831D03*
X003941Y003531D03*
X004421Y003111D03*
X004721Y002991D03*
X005321Y002811D03*
X005441Y002871D03*
X003821Y002031D03*
X003641Y002631D03*
X004541Y005451D03*
X004181Y005511D03*
X004121Y005511D03*
X003581Y005511D03*
X003521Y005511D03*
X003881Y006651D03*
X003941Y006711D03*
X004121Y006831D03*
X004481Y006891D03*
X004481Y007251D03*
X004541Y007311D03*
X004721Y007491D03*
X004541Y007611D03*
X004421Y007671D03*
X004361Y007671D03*
X004301Y007671D03*
X004241Y007611D03*
X003641Y007851D03*
X003581Y007791D03*
X003461Y007731D03*
X003101Y007731D03*
X004361Y009471D03*
X004481Y009531D03*
X004601Y009591D03*
X004661Y009591D03*
X004781Y009651D03*
X004901Y009711D03*
X003821Y011091D03*
X003641Y011691D03*
X003281Y012291D03*
X003341Y012351D03*
X003161Y012231D03*
X003101Y012171D03*
X003761Y012651D03*
X003941Y012771D03*
X004061Y012831D03*
X004121Y012891D03*
X004361Y012951D03*
X004421Y012951D03*
X004481Y012951D03*
X004841Y012951D03*
X004541Y012531D03*
X004301Y012171D03*
X004721Y012051D03*
X005321Y011871D03*
X005441Y011931D03*
X006351Y011501D03*
X006411Y011561D03*
X006531Y011621D03*
X006591Y011681D03*
X007011Y011981D03*
X007191Y012101D03*
X007311Y012161D03*
X007371Y012221D03*
X007611Y012281D03*
X007671Y012281D03*
X007731Y012281D03*
X008091Y012281D03*
X007791Y011861D03*
X007731Y011501D03*
X007551Y011501D03*
X007731Y011081D03*
X007671Y011021D03*
X008031Y010721D03*
X007731Y010361D03*
X007731Y010061D03*
X007551Y009761D03*
X007491Y009701D03*
X007431Y009701D03*
X007071Y010001D03*
X007011Y010001D03*
X007071Y010541D03*
X007191Y010601D03*
X008031Y009521D03*
X007611Y009101D03*
X007131Y008981D03*
X007071Y008981D03*
X006831Y009101D03*
X007191Y007961D03*
X007551Y007601D03*
X007791Y007541D03*
X007851Y007541D03*
X007551Y007241D03*
X007311Y007481D03*
X007251Y007421D03*
X007071Y006761D03*
X007071Y006461D03*
X006831Y005561D03*
X006771Y005561D03*
X007371Y005561D03*
X007431Y005561D03*
X007791Y005501D03*
X008031Y005921D03*
X007671Y008261D03*
X005991Y006461D03*
X005931Y006401D03*
X004781Y005871D03*
X007131Y013181D03*
X007251Y013241D03*
X007311Y013301D03*
X007371Y014201D03*
X007491Y014261D03*
X007611Y014321D03*
X007371Y014921D03*
X007071Y014681D03*
X007011Y014621D03*
X006171Y014501D03*
X006531Y015701D03*
X008211Y014381D03*
X004781Y013911D03*
X004541Y013491D03*
X004181Y013551D03*
X004121Y013551D03*
X003581Y013551D03*
X003521Y013551D03*
X003881Y014631D03*
X003941Y014691D03*
X004121Y014811D03*
X004481Y014871D03*
X004481Y015231D03*
X004541Y015291D03*
X004721Y015471D03*
X004541Y015591D03*
X004421Y015651D03*
X004361Y015651D03*
X004301Y015651D03*
X004241Y015591D03*
X003641Y016251D03*
X003581Y016191D03*
X003461Y016131D03*
X003401Y016071D03*
X003281Y016011D03*
X003221Y015951D03*
X003041Y015831D03*
X002861Y016371D03*
X003101Y016491D03*
X003161Y016551D03*
X003221Y016551D03*
X003281Y016611D03*
X003341Y016671D03*
X003401Y016731D03*
X003461Y016791D03*
X003641Y016911D03*
X003701Y016971D03*
X003761Y017031D03*
X004241Y016611D03*
X004301Y016611D03*
X004361Y016671D03*
X004421Y016671D03*
X004481Y016731D03*
X004541Y016731D03*
X004601Y016731D03*
X004781Y016791D03*
X004421Y017571D03*
X004481Y017631D03*
X004601Y017691D03*
X004661Y017751D03*
D13*
X004541Y017661D03*
X004361Y017541D03*
X004721Y016761D03*
X004181Y015561D03*
X004241Y014901D03*
X004181Y014841D03*
X004061Y014781D03*
X004001Y014721D03*
X003521Y014721D03*
X004301Y014181D03*
X004061Y013521D03*
X004001Y013521D03*
X003941Y013521D03*
X003881Y013521D03*
X003821Y013521D03*
X004181Y012921D03*
X004241Y012141D03*
X004181Y012081D03*
X004661Y012021D03*
X005201Y011781D03*
X005261Y011841D03*
X005381Y011901D03*
X006471Y011591D03*
X007131Y010571D03*
X007251Y010631D03*
X007311Y010691D03*
X007491Y010211D03*
X007551Y010211D03*
X007371Y010151D03*
X007251Y010091D03*
X007131Y010031D03*
X007371Y009671D03*
X007311Y009611D03*
X007551Y009131D03*
X007431Y009071D03*
X007371Y009071D03*
X007251Y009011D03*
X007191Y009011D03*
X007251Y008531D03*
X007971Y008171D03*
X007611Y007631D03*
X007731Y007511D03*
X007731Y007091D03*
X007671Y007091D03*
X007791Y007031D03*
X008031Y006851D03*
X007551Y006191D03*
X007311Y005531D03*
X007251Y005531D03*
X007191Y005531D03*
X007131Y005531D03*
X007071Y005531D03*
X006891Y006551D03*
X006951Y007211D03*
X007011Y007271D03*
X007131Y007331D03*
X007191Y007391D03*
X006111Y006551D03*
X006051Y006491D03*
X004781Y006861D03*
X004241Y006921D03*
X004181Y006861D03*
X004061Y006801D03*
X004001Y006741D03*
X003521Y006741D03*
X004181Y007581D03*
X003761Y007941D03*
X003701Y007881D03*
X003041Y007761D03*
X004301Y006141D03*
X004061Y005481D03*
X004001Y005481D03*
X003941Y005481D03*
X003881Y005481D03*
X003821Y005481D03*
X004181Y004941D03*
X004001Y004101D03*
X004721Y003741D03*
X004301Y003141D03*
X004241Y003081D03*
X004181Y003021D03*
X004661Y002961D03*
X005201Y002721D03*
X005261Y002781D03*
X005381Y002841D03*
X003941Y002121D03*
X003881Y002061D03*
X003221Y004281D03*
X003161Y009681D03*
X003881Y011121D03*
X003941Y011181D03*
X003221Y012261D03*
X004781Y014841D03*
X006411Y014051D03*
X006651Y013751D03*
X006711Y013751D03*
X006771Y013811D03*
X006831Y013871D03*
X006891Y013871D03*
X006951Y013931D03*
X007011Y013991D03*
X007071Y013991D03*
X007131Y014051D03*
X007191Y014111D03*
X007251Y014111D03*
X007311Y014171D03*
X007431Y014231D03*
X007551Y014291D03*
X007671Y014351D03*
X007731Y014351D03*
X007791Y014351D03*
X007791Y015311D03*
X007851Y015311D03*
X006591Y013691D03*
X006531Y013631D03*
X006411Y013571D03*
X007011Y013031D03*
X007071Y013091D03*
X007191Y013211D03*
X007371Y013331D03*
X007431Y013331D03*
X007551Y013331D03*
X007671Y013391D03*
X007731Y013391D03*
X007791Y013331D03*
X007431Y012251D03*
X007491Y011471D03*
X007431Y011411D03*
X007791Y011171D03*
X007971Y011351D03*
X007791Y010451D03*
X007791Y009251D03*
X004841Y009681D03*
X004721Y009621D03*
X006471Y015671D03*
X003401Y018141D03*
X002801Y016401D03*
D14*
X004061Y015471D03*
X004121Y015531D03*
X004661Y015471D03*
X004301Y014931D03*
X004721Y014811D03*
X004361Y014151D03*
X003641Y013551D03*
X004241Y012951D03*
X004541Y012951D03*
X004781Y012891D03*
X004361Y012231D03*
X004121Y012051D03*
X004061Y011991D03*
X004001Y011931D03*
X003821Y011811D03*
X003761Y011751D03*
X003701Y011691D03*
X004061Y011271D03*
X004001Y011211D03*
X004121Y011331D03*
X004181Y011391D03*
X004421Y011751D03*
X004961Y011631D03*
X005021Y011691D03*
X005081Y011691D03*
X005141Y011751D03*
X005991Y013541D03*
X006471Y013601D03*
X006831Y012701D03*
X007491Y012281D03*
X007791Y012281D03*
X008031Y012221D03*
X007611Y011561D03*
X007371Y011381D03*
X007311Y011321D03*
X007071Y011141D03*
X007011Y011081D03*
X006951Y011081D03*
X006891Y011021D03*
X007371Y010721D03*
X007431Y010781D03*
X007491Y010781D03*
X007551Y010841D03*
X007971Y010661D03*
X007911Y011321D03*
X007431Y010181D03*
X007311Y010121D03*
X007191Y010061D03*
X007251Y009581D03*
X007191Y009521D03*
X007311Y009041D03*
X007491Y009101D03*
X006891Y008021D03*
X007071Y007301D03*
X006891Y007181D03*
X006831Y007121D03*
X006771Y007061D03*
X006651Y007001D03*
X006591Y006941D03*
X006531Y006881D03*
X006471Y006821D03*
X006351Y006761D03*
X006291Y006701D03*
X006231Y006641D03*
X006171Y006581D03*
X006891Y005561D03*
X007671Y006101D03*
X007671Y007481D03*
X004781Y004911D03*
X004541Y004971D03*
X004241Y004971D03*
X003641Y005511D03*
X004421Y006051D03*
X004721Y006831D03*
X004301Y006951D03*
X004061Y007491D03*
X004121Y007551D03*
X004661Y007491D03*
X003821Y009231D03*
X003101Y009591D03*
X007491Y015101D03*
X007551Y015161D03*
X007671Y015221D03*
X007731Y015281D03*
X006411Y015581D03*
X004661Y016731D03*
X003641Y003591D03*
X004121Y002991D03*
X004061Y002931D03*
X004001Y002871D03*
X003821Y002751D03*
X003761Y002691D03*
X003701Y002631D03*
X004061Y002211D03*
X004001Y002151D03*
X004121Y002271D03*
X004181Y002331D03*
X004421Y002691D03*
X004361Y003171D03*
X004961Y002571D03*
X005021Y002631D03*
X005081Y002631D03*
X005141Y002691D03*
D15*
X004841Y002601D03*
X004781Y002601D03*
X004721Y002541D03*
X004601Y002481D03*
X004541Y002421D03*
X004481Y002421D03*
X004421Y002361D03*
X004721Y002241D03*
X004781Y002301D03*
X004841Y002361D03*
X004421Y003381D03*
X004241Y003741D03*
X004181Y003741D03*
X004121Y003681D03*
X004061Y003621D03*
X004001Y003561D03*
X004301Y003801D03*
X004361Y003801D03*
X004061Y004101D03*
X003641Y003981D03*
X003821Y004701D03*
X003881Y004761D03*
X004001Y004821D03*
X004301Y004941D03*
X004481Y005361D03*
X004241Y005541D03*
X003881Y005841D03*
X003821Y005781D03*
X003461Y005481D03*
X003821Y006681D03*
X004361Y006861D03*
X004421Y006861D03*
X004361Y007101D03*
X004421Y007161D03*
X004481Y007641D03*
X003521Y007761D03*
X003401Y007701D03*
X003341Y007701D03*
X003281Y007701D03*
X003221Y007701D03*
X003161Y007701D03*
X003041Y008661D03*
X003161Y008721D03*
X003221Y008781D03*
X003281Y008781D03*
X003341Y008841D03*
X003401Y008901D03*
X003461Y008901D03*
X003521Y008961D03*
X003581Y009021D03*
X003641Y009021D03*
X003701Y009081D03*
X004421Y009501D03*
X004541Y009561D03*
X004961Y009741D03*
X005021Y009741D03*
X003761Y011061D03*
X003701Y011061D03*
X003581Y011661D03*
X003821Y012681D03*
X003881Y012741D03*
X004001Y012801D03*
X004301Y012921D03*
X004301Y013161D03*
X004361Y013221D03*
X004481Y013401D03*
X004241Y013581D03*
X003881Y013881D03*
X003821Y013821D03*
X003461Y013521D03*
X003821Y014661D03*
X004361Y014841D03*
X004421Y014841D03*
X004481Y014481D03*
X004361Y015081D03*
X004421Y015141D03*
X004481Y015621D03*
X003701Y016281D03*
X003521Y016161D03*
X003341Y016041D03*
X003161Y015921D03*
X003101Y015861D03*
X002981Y015801D03*
X002921Y015741D03*
X002861Y015681D03*
X002801Y015681D03*
X002921Y016401D03*
X002981Y016401D03*
X003041Y016461D03*
X003521Y016821D03*
X003581Y016881D03*
X003461Y018201D03*
X004721Y017781D03*
X004781Y017781D03*
X007011Y014951D03*
X006951Y014891D03*
X006831Y014831D03*
X006711Y014771D03*
X006591Y014711D03*
X006531Y014651D03*
X006471Y014651D03*
X006411Y014591D03*
X006351Y014591D03*
X006291Y014531D03*
X006231Y014531D03*
X006531Y014171D03*
X006471Y014111D03*
X006591Y014231D03*
X006651Y014291D03*
X006711Y014351D03*
X006771Y014411D03*
X006831Y014471D03*
X006891Y014531D03*
X006951Y014591D03*
X007131Y014711D03*
X007191Y014771D03*
X007251Y014831D03*
X007311Y014891D03*
X007251Y015071D03*
X007131Y015011D03*
X007911Y015311D03*
X007851Y013871D03*
X007431Y013031D03*
X007371Y012911D03*
X007311Y012851D03*
X007251Y012791D03*
X007191Y012731D03*
X007131Y012671D03*
X007071Y012611D03*
X007011Y012611D03*
X007251Y012131D03*
X007131Y012071D03*
X007071Y012011D03*
X007551Y012251D03*
X007731Y012671D03*
X007791Y012731D03*
X007731Y011771D03*
X007791Y011471D03*
X007791Y010751D03*
X007731Y010751D03*
X007671Y010751D03*
X007011Y010511D03*
X006951Y010451D03*
X006891Y010451D03*
X006831Y010991D03*
X006951Y009971D03*
X007731Y009731D03*
X007791Y009731D03*
X007551Y008711D03*
X007311Y008531D03*
X007431Y008171D03*
X007491Y008171D03*
X007551Y008231D03*
X007611Y008231D03*
X007371Y008111D03*
X007311Y008051D03*
X007251Y007991D03*
X007491Y007571D03*
X007431Y007511D03*
X007371Y007511D03*
X007491Y007211D03*
X007551Y006851D03*
X007491Y006791D03*
X007431Y006731D03*
X007371Y006671D03*
X007311Y006611D03*
X007251Y006551D03*
X007191Y006491D03*
X007131Y006491D03*
X006831Y006491D03*
X007131Y006851D03*
X007191Y006911D03*
X007731Y006491D03*
X007791Y006551D03*
X007131Y005891D03*
X007071Y005831D03*
X006711Y005531D03*
X007491Y005591D03*
X007731Y005411D03*
X005871Y006371D03*
X004481Y006501D03*
X004481Y004461D03*
X004421Y004401D03*
X003581Y002601D03*
X003701Y002001D03*
X003761Y002001D03*
X007911Y007571D03*
X007671Y007811D03*
X006891Y008411D03*
X004721Y011301D03*
X004781Y011361D03*
X004841Y011421D03*
X004721Y011601D03*
X004781Y011661D03*
X004841Y011661D03*
X004601Y011541D03*
X004541Y011481D03*
X004481Y011481D03*
X004421Y011421D03*
X004481Y012441D03*
X005931Y013511D03*
D16*
X006051Y013571D03*
X005751Y014531D03*
X004661Y014781D03*
X004001Y015381D03*
X003941Y015321D03*
X003701Y013581D03*
X004421Y012261D03*
X004601Y012021D03*
X004901Y011601D03*
X003941Y011901D03*
X003881Y011841D03*
X003881Y009321D03*
X003761Y009021D03*
X003821Y008001D03*
X004001Y007401D03*
X003941Y007341D03*
X004661Y006801D03*
X004361Y006141D03*
X003701Y005541D03*
X004661Y003741D03*
X004601Y002961D03*
X004901Y002541D03*
X003941Y002841D03*
X003881Y002781D03*
X006951Y005591D03*
X007611Y006191D03*
X007971Y006851D03*
X006951Y006551D03*
X006711Y007031D03*
X006411Y006791D03*
X007911Y008171D03*
X007671Y009011D03*
X007731Y009071D03*
X007971Y009491D03*
X007131Y009431D03*
X007071Y009371D03*
X006891Y009131D03*
X007911Y010631D03*
X007611Y010871D03*
X007191Y011231D03*
X007131Y011171D03*
X007251Y011291D03*
X007671Y011591D03*
X008031Y013151D03*
X007611Y013451D03*
X007491Y013271D03*
X007851Y014351D03*
X008151Y014351D03*
X007611Y015191D03*
X007431Y015071D03*
X003341Y018081D03*
D17*
X003281Y018021D03*
X003101Y017961D03*
X004541Y014721D03*
X004421Y014181D03*
X004481Y014001D03*
X004721Y013881D03*
X004661Y012861D03*
X004361Y011601D03*
X006111Y013571D03*
X006891Y012731D03*
X007911Y012191D03*
X008091Y014291D03*
X006291Y015431D03*
X007911Y009491D03*
X007191Y008411D03*
X007791Y008111D03*
X007611Y007151D03*
X007911Y006851D03*
X007731Y006011D03*
X007971Y005891D03*
X006951Y009191D03*
X004541Y006741D03*
X004481Y005961D03*
X004721Y005841D03*
X004661Y004881D03*
X003941Y003981D03*
X004541Y003681D03*
X004361Y002541D03*
X002981Y007881D03*
D18*
X003641Y006831D03*
X003941Y008211D03*
X003041Y009471D03*
X006171Y013601D03*
X006231Y013661D03*
X006951Y012761D03*
X007971Y013121D03*
X008031Y014261D03*
X007011Y009221D03*
X007731Y008081D03*
X004481Y003651D03*
X003641Y014811D03*
X003221Y017991D03*
D19*
X003161Y017991D03*
X004301Y017631D03*
X002501Y016611D03*
X003881Y015231D03*
X003821Y015111D03*
X003581Y014751D03*
X003761Y013611D03*
X004541Y014031D03*
X004601Y014751D03*
X004601Y015471D03*
X006351Y015521D03*
X004721Y012891D03*
X004541Y011991D03*
X004301Y011511D03*
X004241Y011451D03*
X003941Y009351D03*
X003881Y008091D03*
X003881Y007251D03*
X003821Y007131D03*
X003581Y006771D03*
X003761Y005571D03*
X004541Y005991D03*
X004601Y006771D03*
X004601Y007491D03*
X004721Y004911D03*
X004601Y003711D03*
X004541Y002931D03*
X004301Y002451D03*
X004241Y002391D03*
X007011Y005621D03*
X007791Y006041D03*
X007011Y006581D03*
X007851Y008141D03*
X007851Y010601D03*
X007851Y011321D03*
X007971Y012221D03*
D20*
X007851Y012131D03*
X007971Y014231D03*
X006291Y013691D03*
X005811Y014591D03*
X006231Y015311D03*
X004661Y013881D03*
X004601Y012801D03*
X004481Y011961D03*
X003701Y014901D03*
X003041Y017841D03*
X007851Y009491D03*
X007851Y006851D03*
X007911Y005891D03*
X004661Y005841D03*
X004601Y004821D03*
X004481Y002901D03*
X003701Y006921D03*
D21*
X003761Y006951D03*
X007611Y010001D03*
X007911Y013121D03*
X007911Y014201D03*
X003761Y014931D03*
X002981Y017751D03*
D22*
X002921Y017631D03*
X002861Y017511D03*
X004601Y013851D03*
X003521Y012531D03*
X005931Y014741D03*
X006771Y011861D03*
X007131Y008261D03*
X007071Y008201D03*
X007011Y008201D03*
X007851Y005861D03*
X004601Y005811D03*
X003521Y004551D03*
X003881Y003831D03*
X003821Y003771D03*
X003761Y003771D03*
X002981Y009291D03*
D23*
X002561Y008541D03*
X003701Y004701D03*
X003641Y004641D03*
X003581Y004581D03*
X003461Y004521D03*
X003401Y004461D03*
X003701Y003741D03*
X006951Y008171D03*
X007671Y010031D03*
X006651Y011771D03*
X006711Y011831D03*
X006831Y011891D03*
X006891Y011951D03*
X006951Y012011D03*
X007851Y013091D03*
X006351Y013751D03*
X005871Y014651D03*
X006171Y015251D03*
X004241Y017541D03*
X002561Y016701D03*
X003701Y012681D03*
X003641Y012621D03*
X003581Y012561D03*
X003461Y012501D03*
X003401Y012441D03*
D24*
X004301Y009081D03*
D25*
X004241Y009051D03*
X002621Y008571D03*
X006051Y014921D03*
X006111Y014981D03*
D26*
X004181Y017181D03*
D27*
X003881Y016611D03*
X002741Y016971D03*
X004181Y008991D03*
D28*
X004121Y017001D03*
D29*
X004121Y008931D03*
X002681Y008631D03*
D30*
X002801Y008691D03*
X004001Y016911D03*
X004061Y016971D03*
D31*
X003941Y016761D03*
X004061Y008901D03*
D32*
X004001Y008811D03*
D33*
X003821Y016521D03*
D34*
X003761Y016311D03*
X002801Y017331D03*
X005991Y014801D03*
D35*
X002921Y008691D03*
D36*
X002861Y008661D03*
D37*
X002741Y008691D03*
D38*
X002681Y016881D03*
D39*
X002621Y016791D03*
M02*
