G75*
G70*
%OFA0B0*%
%FSLAX24Y24*%
%IPPOS*%
%LPD*%
%AMOC8*
5,1,8,0,0,1.08239X$1,22.5*
%
%ADD10R,0.0500X0.0220*%
%ADD11R,0.0220X0.0500*%
%ADD12R,0.0472X0.0315*%
%ADD13R,0.0880X0.0480*%
%ADD14R,0.0866X0.1417*%
%ADD15R,0.0551X0.0630*%
%ADD16R,0.0433X0.0394*%
%ADD17R,0.0630X0.0551*%
%ADD18R,0.0394X0.0433*%
%ADD19R,0.0551X0.0472*%
%ADD20R,0.0709X0.0630*%
D10*
X007176Y009039D03*
X007176Y009354D03*
X007176Y009669D03*
X007176Y009984D03*
X007176Y010299D03*
X007176Y010614D03*
X007176Y010929D03*
X007176Y011243D03*
X010556Y011243D03*
X010556Y010929D03*
X010556Y010614D03*
X010556Y010299D03*
X010556Y009984D03*
X010556Y009669D03*
X010556Y009354D03*
X010556Y009039D03*
D11*
X009969Y008451D03*
X009654Y008451D03*
X009339Y008451D03*
X009024Y008451D03*
X008709Y008451D03*
X008394Y008451D03*
X008079Y008451D03*
X007764Y008451D03*
X007764Y011831D03*
X008079Y011831D03*
X008394Y011831D03*
X008709Y011831D03*
X009024Y011831D03*
X009339Y011831D03*
X009654Y011831D03*
X009969Y011831D03*
D12*
X013806Y011985D03*
X013806Y011277D03*
X013806Y010795D03*
X013806Y010087D03*
D13*
X004756Y017421D03*
X004756Y018331D03*
X004756Y019241D03*
D14*
X002316Y018331D03*
D15*
X004095Y015661D03*
X005197Y015661D03*
D16*
X004872Y009021D03*
X005541Y009021D03*
D17*
X013926Y015910D03*
X013926Y017012D03*
D18*
X015046Y016796D03*
X015046Y016126D03*
D19*
X013926Y018191D03*
X013926Y019372D03*
D20*
X015046Y019332D03*
X015046Y018230D03*
M02*
