G75*
G70*
%OFA0B0*%
%FSLAX24Y24*%
%IPPOS*%
%LPD*%
%AMOC8*
5,1,8,0,0,1.08239X$1,22.5*
%
%ADD10C,0.0640*%
%ADD11R,0.0820X0.0820*%
%ADD12C,0.0820*%
%ADD13OC8,0.0720*%
%ADD14C,0.0720*%
%ADD15C,0.0720*%
D10*
X015286Y010011D03*
X015286Y011911D03*
D11*
X001596Y001141D03*
X001596Y009641D03*
X015876Y001021D03*
D12*
X015976Y002021D03*
X015876Y003021D03*
X015976Y004021D03*
X015876Y005021D03*
X015976Y006021D03*
X015876Y007021D03*
X015976Y008021D03*
X014926Y013661D03*
X014926Y014701D03*
X013926Y014701D03*
X013926Y013661D03*
X011306Y014541D03*
X010306Y014541D03*
X009306Y014501D03*
X008306Y014501D03*
X001696Y014641D03*
X001596Y013641D03*
X001696Y012641D03*
X001596Y011641D03*
X001696Y010641D03*
X001696Y008141D03*
X001596Y007141D03*
X001696Y006141D03*
X001596Y005141D03*
X001696Y004141D03*
X001596Y003141D03*
X001696Y002141D03*
X001596Y015641D03*
X001696Y016641D03*
D13*
X007746Y002641D03*
X007746Y001641D03*
X008746Y001641D03*
X008746Y002641D03*
X009746Y002641D03*
X009746Y001641D03*
X010746Y001641D03*
X010746Y002641D03*
X011746Y002641D03*
X011746Y001641D03*
X012746Y001641D03*
X012746Y002641D03*
X013746Y002641D03*
X013746Y001641D03*
D14*
X006086Y001251D03*
X006086Y003031D03*
X003526Y003031D03*
X003526Y001251D03*
D15*
X006306Y015441D02*
X006306Y016081D01*
X007306Y016081D02*
X007306Y015441D01*
X008306Y015441D02*
X008306Y016081D01*
X009306Y016081D02*
X009306Y015441D01*
X010306Y015441D02*
X010306Y016081D01*
X011306Y016081D02*
X011306Y015441D01*
M02*
