G75*
G70*
%OFA0B0*%
%FSLAX24Y24*%
%IPPOS*%
%LPD*%
%AMOC8*
5,1,8,0,0,1.08239X$1,22.5*
%
%ADD10C,0.0081*%
%ADD11C,0.0640*%
%ADD12C,0.0083*%
%ADD13C,0.0084*%
%ADD14C,0.0085*%
%ADD15R,0.0820X0.0820*%
%ADD16C,0.0820*%
%ADD17OC8,0.0720*%
%ADD18C,0.0720*%
%ADD19C,0.0082*%
%ADD20C,0.0081*%
%ADD21C,0.0720*%
%ADD22C,0.0083*%
%ADD23C,0.0085*%
D10*
X006926Y008929D02*
X007426Y008929D01*
X006926Y008929D02*
X006926Y009149D01*
X007426Y009149D01*
X007426Y008929D01*
X007426Y009009D02*
X006926Y009009D01*
X006926Y009089D02*
X007426Y009089D01*
X007426Y009244D02*
X006926Y009244D01*
X006926Y009464D01*
X007426Y009464D01*
X007426Y009244D01*
X007426Y009324D02*
X006926Y009324D01*
X006926Y009404D02*
X007426Y009404D01*
X007426Y009559D02*
X006926Y009559D01*
X006926Y009779D01*
X007426Y009779D01*
X007426Y009559D01*
X007426Y009639D02*
X006926Y009639D01*
X006926Y009719D02*
X007426Y009719D01*
X007426Y009874D02*
X006926Y009874D01*
X006926Y010094D01*
X007426Y010094D01*
X007426Y009874D01*
X007426Y009954D02*
X006926Y009954D01*
X006926Y010034D02*
X007426Y010034D01*
X007426Y010189D02*
X006926Y010189D01*
X006926Y010409D01*
X007426Y010409D01*
X007426Y010189D01*
X007426Y010269D02*
X006926Y010269D01*
X006926Y010349D02*
X007426Y010349D01*
X007426Y010504D02*
X006926Y010504D01*
X006926Y010724D01*
X007426Y010724D01*
X007426Y010504D01*
X007426Y010584D02*
X006926Y010584D01*
X006926Y010664D02*
X007426Y010664D01*
X007426Y010819D02*
X006926Y010819D01*
X006926Y011039D01*
X007426Y011039D01*
X007426Y010819D01*
X007426Y010899D02*
X006926Y010899D01*
X006926Y010979D02*
X007426Y010979D01*
X007426Y011133D02*
X006926Y011133D01*
X006926Y011353D01*
X007426Y011353D01*
X007426Y011133D01*
X007426Y011213D02*
X006926Y011213D01*
X006926Y011293D02*
X007426Y011293D01*
X007654Y011581D02*
X007874Y011581D01*
X007654Y011581D02*
X007654Y012081D01*
X007874Y012081D01*
X007874Y011581D01*
X007874Y011661D02*
X007654Y011661D01*
X007654Y011741D02*
X007874Y011741D01*
X007874Y011821D02*
X007654Y011821D01*
X007654Y011901D02*
X007874Y011901D01*
X007874Y011981D02*
X007654Y011981D01*
X007654Y012061D02*
X007874Y012061D01*
X007969Y011581D02*
X008189Y011581D01*
X007969Y011581D02*
X007969Y012081D01*
X008189Y012081D01*
X008189Y011581D01*
X008189Y011661D02*
X007969Y011661D01*
X007969Y011741D02*
X008189Y011741D01*
X008189Y011821D02*
X007969Y011821D01*
X007969Y011901D02*
X008189Y011901D01*
X008189Y011981D02*
X007969Y011981D01*
X007969Y012061D02*
X008189Y012061D01*
X008284Y011581D02*
X008504Y011581D01*
X008284Y011581D02*
X008284Y012081D01*
X008504Y012081D01*
X008504Y011581D01*
X008504Y011661D02*
X008284Y011661D01*
X008284Y011741D02*
X008504Y011741D01*
X008504Y011821D02*
X008284Y011821D01*
X008284Y011901D02*
X008504Y011901D01*
X008504Y011981D02*
X008284Y011981D01*
X008284Y012061D02*
X008504Y012061D01*
X008599Y011581D02*
X008819Y011581D01*
X008599Y011581D02*
X008599Y012081D01*
X008819Y012081D01*
X008819Y011581D01*
X008819Y011661D02*
X008599Y011661D01*
X008599Y011741D02*
X008819Y011741D01*
X008819Y011821D02*
X008599Y011821D01*
X008599Y011901D02*
X008819Y011901D01*
X008819Y011981D02*
X008599Y011981D01*
X008599Y012061D02*
X008819Y012061D01*
X008914Y011581D02*
X009134Y011581D01*
X008914Y011581D02*
X008914Y012081D01*
X009134Y012081D01*
X009134Y011581D01*
X009134Y011661D02*
X008914Y011661D01*
X008914Y011741D02*
X009134Y011741D01*
X009134Y011821D02*
X008914Y011821D01*
X008914Y011901D02*
X009134Y011901D01*
X009134Y011981D02*
X008914Y011981D01*
X008914Y012061D02*
X009134Y012061D01*
X009229Y011581D02*
X009449Y011581D01*
X009229Y011581D02*
X009229Y012081D01*
X009449Y012081D01*
X009449Y011581D01*
X009449Y011661D02*
X009229Y011661D01*
X009229Y011741D02*
X009449Y011741D01*
X009449Y011821D02*
X009229Y011821D01*
X009229Y011901D02*
X009449Y011901D01*
X009449Y011981D02*
X009229Y011981D01*
X009229Y012061D02*
X009449Y012061D01*
X009544Y011581D02*
X009764Y011581D01*
X009544Y011581D02*
X009544Y012081D01*
X009764Y012081D01*
X009764Y011581D01*
X009764Y011661D02*
X009544Y011661D01*
X009544Y011741D02*
X009764Y011741D01*
X009764Y011821D02*
X009544Y011821D01*
X009544Y011901D02*
X009764Y011901D01*
X009764Y011981D02*
X009544Y011981D01*
X009544Y012061D02*
X009764Y012061D01*
X009859Y011581D02*
X010079Y011581D01*
X009859Y011581D02*
X009859Y012081D01*
X010079Y012081D01*
X010079Y011581D01*
X010079Y011661D02*
X009859Y011661D01*
X009859Y011741D02*
X010079Y011741D01*
X010079Y011821D02*
X009859Y011821D01*
X009859Y011901D02*
X010079Y011901D01*
X010079Y011981D02*
X009859Y011981D01*
X009859Y012061D02*
X010079Y012061D01*
X010306Y011133D02*
X010806Y011133D01*
X010306Y011133D02*
X010306Y011353D01*
X010806Y011353D01*
X010806Y011133D01*
X010806Y011213D02*
X010306Y011213D01*
X010306Y011293D02*
X010806Y011293D01*
X010806Y010819D02*
X010306Y010819D01*
X010306Y011039D01*
X010806Y011039D01*
X010806Y010819D01*
X010806Y010899D02*
X010306Y010899D01*
X010306Y010979D02*
X010806Y010979D01*
X010806Y010504D02*
X010306Y010504D01*
X010306Y010724D01*
X010806Y010724D01*
X010806Y010504D01*
X010806Y010584D02*
X010306Y010584D01*
X010306Y010664D02*
X010806Y010664D01*
X010806Y010189D02*
X010306Y010189D01*
X010306Y010409D01*
X010806Y010409D01*
X010806Y010189D01*
X010806Y010269D02*
X010306Y010269D01*
X010306Y010349D02*
X010806Y010349D01*
X010806Y009874D02*
X010306Y009874D01*
X010306Y010094D01*
X010806Y010094D01*
X010806Y009874D01*
X010806Y009954D02*
X010306Y009954D01*
X010306Y010034D02*
X010806Y010034D01*
X010806Y009559D02*
X010306Y009559D01*
X010306Y009779D01*
X010806Y009779D01*
X010806Y009559D01*
X010806Y009639D02*
X010306Y009639D01*
X010306Y009719D02*
X010806Y009719D01*
X010806Y009244D02*
X010306Y009244D01*
X010306Y009464D01*
X010806Y009464D01*
X010806Y009244D01*
X010806Y009324D02*
X010306Y009324D01*
X010306Y009404D02*
X010806Y009404D01*
X010806Y008929D02*
X010306Y008929D01*
X010306Y009149D01*
X010806Y009149D01*
X010806Y008929D01*
X010806Y009009D02*
X010306Y009009D01*
X010306Y009089D02*
X010806Y009089D01*
X010079Y008201D02*
X009859Y008201D01*
X009859Y008701D01*
X010079Y008701D01*
X010079Y008201D01*
X010079Y008281D02*
X009859Y008281D01*
X009859Y008361D02*
X010079Y008361D01*
X010079Y008441D02*
X009859Y008441D01*
X009859Y008521D02*
X010079Y008521D01*
X010079Y008601D02*
X009859Y008601D01*
X009859Y008681D02*
X010079Y008681D01*
X009764Y008201D02*
X009544Y008201D01*
X009544Y008701D01*
X009764Y008701D01*
X009764Y008201D01*
X009764Y008281D02*
X009544Y008281D01*
X009544Y008361D02*
X009764Y008361D01*
X009764Y008441D02*
X009544Y008441D01*
X009544Y008521D02*
X009764Y008521D01*
X009764Y008601D02*
X009544Y008601D01*
X009544Y008681D02*
X009764Y008681D01*
X009449Y008201D02*
X009229Y008201D01*
X009229Y008701D01*
X009449Y008701D01*
X009449Y008201D01*
X009449Y008281D02*
X009229Y008281D01*
X009229Y008361D02*
X009449Y008361D01*
X009449Y008441D02*
X009229Y008441D01*
X009229Y008521D02*
X009449Y008521D01*
X009449Y008601D02*
X009229Y008601D01*
X009229Y008681D02*
X009449Y008681D01*
X009134Y008201D02*
X008914Y008201D01*
X008914Y008701D01*
X009134Y008701D01*
X009134Y008201D01*
X009134Y008281D02*
X008914Y008281D01*
X008914Y008361D02*
X009134Y008361D01*
X009134Y008441D02*
X008914Y008441D01*
X008914Y008521D02*
X009134Y008521D01*
X009134Y008601D02*
X008914Y008601D01*
X008914Y008681D02*
X009134Y008681D01*
X008819Y008201D02*
X008599Y008201D01*
X008599Y008701D01*
X008819Y008701D01*
X008819Y008201D01*
X008819Y008281D02*
X008599Y008281D01*
X008599Y008361D02*
X008819Y008361D01*
X008819Y008441D02*
X008599Y008441D01*
X008599Y008521D02*
X008819Y008521D01*
X008819Y008601D02*
X008599Y008601D01*
X008599Y008681D02*
X008819Y008681D01*
X008504Y008201D02*
X008284Y008201D01*
X008284Y008701D01*
X008504Y008701D01*
X008504Y008201D01*
X008504Y008281D02*
X008284Y008281D01*
X008284Y008361D02*
X008504Y008361D01*
X008504Y008441D02*
X008284Y008441D01*
X008284Y008521D02*
X008504Y008521D01*
X008504Y008601D02*
X008284Y008601D01*
X008284Y008681D02*
X008504Y008681D01*
X008189Y008201D02*
X007969Y008201D01*
X007969Y008701D01*
X008189Y008701D01*
X008189Y008201D01*
X008189Y008281D02*
X007969Y008281D01*
X007969Y008361D02*
X008189Y008361D01*
X008189Y008441D02*
X007969Y008441D01*
X007969Y008521D02*
X008189Y008521D01*
X008189Y008601D02*
X007969Y008601D01*
X007969Y008681D02*
X008189Y008681D01*
X007874Y008201D02*
X007654Y008201D01*
X007654Y008701D01*
X007874Y008701D01*
X007874Y008201D01*
X007874Y008281D02*
X007654Y008281D01*
X007654Y008361D02*
X007874Y008361D01*
X007874Y008441D02*
X007654Y008441D01*
X007654Y008521D02*
X007874Y008521D01*
X007874Y008601D02*
X007654Y008601D01*
X007654Y008681D02*
X007874Y008681D01*
D11*
X015286Y010011D03*
X015286Y011911D03*
D12*
X013571Y011829D02*
X013571Y012141D01*
X014041Y012141D01*
X014041Y011829D01*
X013571Y011829D01*
X013571Y011911D02*
X014041Y011911D01*
X014041Y011993D02*
X013571Y011993D01*
X013571Y012075D02*
X014041Y012075D01*
X013571Y011433D02*
X013571Y011121D01*
X013571Y011433D02*
X014041Y011433D01*
X014041Y011121D01*
X013571Y011121D01*
X013571Y011203D02*
X014041Y011203D01*
X014041Y011285D02*
X013571Y011285D01*
X013571Y011367D02*
X014041Y011367D01*
X013571Y010951D02*
X013571Y010639D01*
X013571Y010951D02*
X014041Y010951D01*
X014041Y010639D01*
X013571Y010639D01*
X013571Y010721D02*
X014041Y010721D01*
X014041Y010803D02*
X013571Y010803D01*
X013571Y010885D02*
X014041Y010885D01*
X013571Y010243D02*
X013571Y009931D01*
X013571Y010243D02*
X014041Y010243D01*
X014041Y009931D01*
X013571Y009931D01*
X013571Y010013D02*
X014041Y010013D01*
X014041Y010095D02*
X013571Y010095D01*
X013571Y010177D02*
X014041Y010177D01*
D13*
X005194Y017183D02*
X005194Y017659D01*
X005194Y017183D02*
X004318Y017183D01*
X004318Y017659D01*
X005194Y017659D01*
X005194Y017266D02*
X004318Y017266D01*
X004318Y017349D02*
X005194Y017349D01*
X005194Y017432D02*
X004318Y017432D01*
X004318Y017515D02*
X005194Y017515D01*
X005194Y017598D02*
X004318Y017598D01*
X005194Y018093D02*
X005194Y018569D01*
X005194Y018093D02*
X004318Y018093D01*
X004318Y018569D01*
X005194Y018569D01*
X005194Y018176D02*
X004318Y018176D01*
X004318Y018259D02*
X005194Y018259D01*
X005194Y018342D02*
X004318Y018342D01*
X004318Y018425D02*
X005194Y018425D01*
X005194Y018508D02*
X004318Y018508D01*
X005194Y019003D02*
X005194Y019479D01*
X005194Y019003D02*
X004318Y019003D01*
X004318Y019479D01*
X005194Y019479D01*
X005194Y019086D02*
X004318Y019086D01*
X004318Y019169D02*
X005194Y019169D01*
X005194Y019252D02*
X004318Y019252D01*
X004318Y019335D02*
X005194Y019335D01*
X005194Y019418D02*
X004318Y019418D01*
D14*
X002747Y019037D02*
X002747Y017625D01*
X001885Y017625D01*
X001885Y019037D01*
X002747Y019037D01*
X002747Y017709D02*
X001885Y017709D01*
X001885Y017793D02*
X002747Y017793D01*
X002747Y017877D02*
X001885Y017877D01*
X001885Y017961D02*
X002747Y017961D01*
X002747Y018045D02*
X001885Y018045D01*
X001885Y018129D02*
X002747Y018129D01*
X002747Y018213D02*
X001885Y018213D01*
X001885Y018297D02*
X002747Y018297D01*
X002747Y018381D02*
X001885Y018381D01*
X001885Y018465D02*
X002747Y018465D01*
X002747Y018549D02*
X001885Y018549D01*
X001885Y018633D02*
X002747Y018633D01*
X002747Y018717D02*
X001885Y018717D01*
X001885Y018801D02*
X002747Y018801D01*
X002747Y018885D02*
X001885Y018885D01*
X001885Y018969D02*
X002747Y018969D01*
D15*
X001596Y001141D03*
X001596Y009641D03*
X015876Y001021D03*
D16*
X015976Y002021D03*
X015876Y003021D03*
X015976Y004021D03*
X015876Y005021D03*
X015976Y006021D03*
X015876Y007021D03*
X015976Y008021D03*
X014926Y013661D03*
X014926Y014701D03*
X013926Y014701D03*
X013926Y013661D03*
X011306Y014541D03*
X010306Y014541D03*
X009306Y014501D03*
X008306Y014501D03*
X001696Y014641D03*
X001596Y013641D03*
X001696Y012641D03*
X001596Y011641D03*
X001696Y010641D03*
X001696Y008141D03*
X001596Y007141D03*
X001696Y006141D03*
X001596Y005141D03*
X001696Y004141D03*
X001596Y003141D03*
X001696Y002141D03*
X001596Y015641D03*
X001696Y016641D03*
D17*
X007746Y002641D03*
X007746Y001641D03*
X008746Y001641D03*
X008746Y002641D03*
X009746Y002641D03*
X009746Y001641D03*
X010746Y001641D03*
X010746Y002641D03*
X011746Y002641D03*
X011746Y001641D03*
X012746Y001641D03*
X012746Y002641D03*
X013746Y002641D03*
X013746Y001641D03*
D18*
X006086Y001251D03*
X006086Y003031D03*
X003526Y003031D03*
X003526Y001251D03*
D19*
X003821Y015347D02*
X003821Y015975D01*
X004369Y015975D01*
X004369Y015347D01*
X003821Y015347D01*
X003821Y015428D02*
X004369Y015428D01*
X004369Y015509D02*
X003821Y015509D01*
X003821Y015590D02*
X004369Y015590D01*
X004369Y015671D02*
X003821Y015671D01*
X003821Y015752D02*
X004369Y015752D01*
X004369Y015833D02*
X003821Y015833D01*
X003821Y015914D02*
X004369Y015914D01*
X004923Y015975D02*
X004923Y015347D01*
X004923Y015975D02*
X005471Y015975D01*
X005471Y015347D01*
X004923Y015347D01*
X004923Y015428D02*
X005471Y015428D01*
X005471Y015509D02*
X004923Y015509D01*
X004923Y015590D02*
X005471Y015590D01*
X005471Y015671D02*
X004923Y015671D01*
X004923Y015752D02*
X005471Y015752D01*
X005471Y015833D02*
X004923Y015833D01*
X004923Y015914D02*
X005471Y015914D01*
X013612Y016184D02*
X014240Y016184D01*
X014240Y015636D01*
X013612Y015636D01*
X013612Y016184D01*
X013612Y015717D02*
X014240Y015717D01*
X014240Y015798D02*
X013612Y015798D01*
X013612Y015879D02*
X014240Y015879D01*
X014240Y015960D02*
X013612Y015960D01*
X013612Y016041D02*
X014240Y016041D01*
X014240Y016122D02*
X013612Y016122D01*
X013612Y017286D02*
X014240Y017286D01*
X014240Y016738D01*
X013612Y016738D01*
X013612Y017286D01*
X013612Y016819D02*
X014240Y016819D01*
X014240Y016900D02*
X013612Y016900D01*
X013612Y016981D02*
X014240Y016981D01*
X014240Y017062D02*
X013612Y017062D01*
X013612Y017143D02*
X014240Y017143D01*
X014240Y017224D02*
X013612Y017224D01*
D20*
X014849Y017012D02*
X014849Y016580D01*
X014849Y017012D02*
X015243Y017012D01*
X015243Y016580D01*
X014849Y016580D01*
X014849Y016660D02*
X015243Y016660D01*
X015243Y016740D02*
X014849Y016740D01*
X014849Y016820D02*
X015243Y016820D01*
X015243Y016900D02*
X014849Y016900D01*
X014849Y016980D02*
X015243Y016980D01*
X014849Y016342D02*
X014849Y015910D01*
X014849Y016342D02*
X015243Y016342D01*
X015243Y015910D01*
X014849Y015910D01*
X014849Y015990D02*
X015243Y015990D01*
X015243Y016070D02*
X014849Y016070D01*
X014849Y016150D02*
X015243Y016150D01*
X015243Y016230D02*
X014849Y016230D01*
X014849Y016310D02*
X015243Y016310D01*
X005757Y009218D02*
X005325Y009218D01*
X005757Y009218D02*
X005757Y008824D01*
X005325Y008824D01*
X005325Y009218D01*
X005325Y008904D02*
X005757Y008904D01*
X005757Y008984D02*
X005325Y008984D01*
X005325Y009064D02*
X005757Y009064D01*
X005757Y009144D02*
X005325Y009144D01*
X005088Y009218D02*
X004656Y009218D01*
X005088Y009218D02*
X005088Y008824D01*
X004656Y008824D01*
X004656Y009218D01*
X004656Y008904D02*
X005088Y008904D01*
X005088Y008984D02*
X004656Y008984D01*
X004656Y009064D02*
X005088Y009064D01*
X005088Y009144D02*
X004656Y009144D01*
D21*
X006306Y015441D02*
X006306Y016081D01*
X007306Y016081D02*
X007306Y015441D01*
X008306Y015441D02*
X008306Y016081D01*
X009306Y016081D02*
X009306Y015441D01*
X010306Y015441D02*
X010306Y016081D01*
X011306Y016081D02*
X011306Y015441D01*
D22*
X013652Y017956D02*
X013652Y018426D01*
X014200Y018426D01*
X014200Y017956D01*
X013652Y017956D01*
X013652Y018038D02*
X014200Y018038D01*
X014200Y018120D02*
X013652Y018120D01*
X013652Y018202D02*
X014200Y018202D01*
X014200Y018284D02*
X013652Y018284D01*
X013652Y018366D02*
X014200Y018366D01*
X013652Y019137D02*
X013652Y019607D01*
X014200Y019607D01*
X014200Y019137D01*
X013652Y019137D01*
X013652Y019219D02*
X014200Y019219D01*
X014200Y019301D02*
X013652Y019301D01*
X013652Y019383D02*
X014200Y019383D01*
X014200Y019465D02*
X013652Y019465D01*
X013652Y019547D02*
X014200Y019547D01*
D23*
X015398Y019645D02*
X015398Y019019D01*
X014694Y019019D01*
X014694Y019645D01*
X015398Y019645D01*
X015398Y019103D02*
X014694Y019103D01*
X014694Y019187D02*
X015398Y019187D01*
X015398Y019271D02*
X014694Y019271D01*
X014694Y019355D02*
X015398Y019355D01*
X015398Y019439D02*
X014694Y019439D01*
X014694Y019523D02*
X015398Y019523D01*
X015398Y019607D02*
X014694Y019607D01*
X015398Y018543D02*
X015398Y017917D01*
X014694Y017917D01*
X014694Y018543D01*
X015398Y018543D01*
X015398Y018001D02*
X014694Y018001D01*
X014694Y018085D02*
X015398Y018085D01*
X015398Y018169D02*
X014694Y018169D01*
X014694Y018253D02*
X015398Y018253D01*
X015398Y018337D02*
X014694Y018337D01*
X014694Y018421D02*
X015398Y018421D01*
X015398Y018505D02*
X014694Y018505D01*
M02*
