G75*
G70*
%OFA0B0*%
%FSLAX24Y24*%
%IPPOS*%
%LPD*%
%AMOC8*
5,1,8,0,0,1.08239X$1,22.5*
%
%ADD10R,0.0060X0.0060*%
%ADD11R,0.0120X0.0060*%
%ADD12R,0.0240X0.0060*%
%ADD13R,0.0300X0.0060*%
%ADD14R,0.0360X0.0060*%
%ADD15R,0.0180X0.0060*%
%ADD16R,0.0420X0.0060*%
%ADD17R,0.0540X0.0060*%
%ADD18R,0.0600X0.0060*%
%ADD19R,0.0480X0.0060*%
%ADD20R,0.0660X0.0060*%
%ADD21R,0.0720X0.0060*%
%ADD22R,0.0840X0.0060*%
%ADD23R,0.0780X0.0060*%
%ADD24R,0.0900X0.0060*%
%ADD25R,0.1200X0.0060*%
%ADD26R,0.1500X0.0060*%
%ADD27R,0.1440X0.0060*%
%ADD28R,0.1860X0.0060*%
%ADD29R,0.1560X0.0060*%
%ADD30R,0.1920X0.0060*%
%ADD31R,0.1620X0.0060*%
%ADD32R,0.1680X0.0060*%
%ADD33R,0.1380X0.0060*%
%ADD34R,0.0960X0.0060*%
%ADD35R,0.2040X0.0060*%
%ADD36R,0.1980X0.0060*%
%ADD37R,0.1800X0.0060*%
%ADD38R,0.1260X0.0060*%
%ADD39R,0.1080X0.0060*%
D10*
G36*
X005452Y009401D02*
X005494Y009359D01*
X005452Y009317D01*
X005410Y009359D01*
X005452Y009401D01*
G37*
G36*
X005749Y010038D02*
X005791Y009996D01*
X005749Y009954D01*
X005707Y009996D01*
X005749Y010038D01*
G37*
G36*
X002991Y011692D02*
X003033Y011650D01*
X002991Y011608D01*
X002949Y011650D01*
X002991Y011692D01*
G37*
G36*
X002751Y014747D02*
X002793Y014705D01*
X002751Y014663D01*
X002709Y014705D01*
X002751Y014747D01*
G37*
G36*
X002920Y016359D02*
X002962Y016317D01*
X002920Y016275D01*
X002878Y016317D01*
X002920Y016359D01*
G37*
G36*
X004617Y014832D02*
X004659Y014790D01*
X004617Y014748D01*
X004575Y014790D01*
X004617Y014832D01*
G37*
G36*
X004914Y015468D02*
X004956Y015426D01*
X004914Y015384D01*
X004872Y015426D01*
X004914Y015468D01*
G37*
G36*
X009327Y009953D02*
X009369Y009911D01*
X009327Y009869D01*
X009285Y009911D01*
X009327Y009953D01*
G37*
G36*
X009157Y008341D02*
X009199Y008299D01*
X009157Y008257D01*
X009115Y008299D01*
X009157Y008341D01*
G37*
G36*
X009991Y007068D02*
X010033Y007026D01*
X009991Y006984D01*
X009949Y007026D01*
X009991Y007068D01*
G37*
G36*
X008888Y005795D02*
X008930Y005753D01*
X008888Y005711D01*
X008846Y005753D01*
X008888Y005795D01*
G37*
G36*
X009822Y004268D02*
X009864Y004226D01*
X009822Y004184D01*
X009780Y004226D01*
X009822Y004268D01*
G37*
G36*
X011264Y005710D02*
X011306Y005668D01*
X011264Y005626D01*
X011222Y005668D01*
X011264Y005710D01*
G37*
G36*
X011264Y005795D02*
X011306Y005753D01*
X011264Y005711D01*
X011222Y005753D01*
X011264Y005795D01*
G37*
G36*
X013103Y005413D02*
X013145Y005371D01*
X013103Y005329D01*
X013061Y005371D01*
X013103Y005413D01*
G37*
G36*
X013782Y007789D02*
X013824Y007747D01*
X013782Y007705D01*
X013740Y007747D01*
X013782Y007789D01*
G37*
D11*
G36*
X013739Y007746D02*
X013823Y007662D01*
X013781Y007620D01*
X013697Y007704D01*
X013739Y007746D01*
G37*
G36*
X012170Y006431D02*
X012254Y006347D01*
X012212Y006305D01*
X012128Y006389D01*
X012170Y006431D01*
G37*
G36*
X011703Y006813D02*
X011787Y006729D01*
X011745Y006687D01*
X011661Y006771D01*
X011703Y006813D01*
G37*
G36*
X011660Y007704D02*
X011744Y007620D01*
X011702Y007578D01*
X011618Y007662D01*
X011660Y007704D01*
G37*
G36*
X011660Y007789D02*
X011744Y007705D01*
X011702Y007663D01*
X011618Y007747D01*
X011660Y007789D01*
G37*
G36*
X011660Y007874D02*
X011744Y007790D01*
X011702Y007748D01*
X011618Y007832D01*
X011660Y007874D01*
G37*
G36*
X011660Y007959D02*
X011744Y007875D01*
X011702Y007833D01*
X011618Y007917D01*
X011660Y007959D01*
G37*
G36*
X011660Y008043D02*
X011744Y007959D01*
X011702Y007917D01*
X011618Y008001D01*
X011660Y008043D01*
G37*
G36*
X011660Y008128D02*
X011744Y008044D01*
X011702Y008002D01*
X011618Y008086D01*
X011660Y008128D01*
G37*
G36*
X011194Y008086D02*
X011278Y008002D01*
X011236Y007960D01*
X011152Y008044D01*
X011194Y008086D01*
G37*
G36*
X011194Y008001D02*
X011278Y007917D01*
X011236Y007875D01*
X011152Y007959D01*
X011194Y008001D01*
G37*
G36*
X011194Y007916D02*
X011278Y007832D01*
X011236Y007790D01*
X011152Y007874D01*
X011194Y007916D01*
G37*
G36*
X010897Y008213D02*
X010981Y008129D01*
X010939Y008087D01*
X010855Y008171D01*
X010897Y008213D01*
G37*
G36*
X011745Y008807D02*
X011829Y008723D01*
X011787Y008681D01*
X011703Y008765D01*
X011745Y008807D01*
G37*
G36*
X009836Y010377D02*
X009920Y010293D01*
X009878Y010251D01*
X009794Y010335D01*
X009836Y010377D01*
G37*
G36*
X009285Y009910D02*
X009369Y009826D01*
X009327Y009784D01*
X009243Y009868D01*
X009285Y009910D01*
G37*
G36*
X009285Y009825D02*
X009369Y009741D01*
X009327Y009699D01*
X009243Y009783D01*
X009285Y009825D01*
G37*
G36*
X009285Y009740D02*
X009369Y009656D01*
X009327Y009614D01*
X009243Y009698D01*
X009285Y009740D01*
G37*
G36*
X009285Y009656D02*
X009369Y009572D01*
X009327Y009530D01*
X009243Y009614D01*
X009285Y009656D01*
G37*
G36*
X009285Y009571D02*
X009369Y009487D01*
X009327Y009445D01*
X009243Y009529D01*
X009285Y009571D01*
G37*
G36*
X009285Y009486D02*
X009369Y009402D01*
X009327Y009360D01*
X009243Y009444D01*
X009285Y009486D01*
G37*
G36*
X009497Y009274D02*
X009581Y009190D01*
X009539Y009148D01*
X009455Y009232D01*
X009497Y009274D01*
G37*
G36*
X009157Y008425D02*
X009241Y008341D01*
X009199Y008299D01*
X009115Y008383D01*
X009157Y008425D01*
G37*
G36*
X007927Y010250D02*
X008011Y010166D01*
X007969Y010124D01*
X007885Y010208D01*
X007927Y010250D01*
G37*
G36*
X009242Y011565D02*
X009326Y011481D01*
X009284Y011439D01*
X009200Y011523D01*
X009242Y011565D01*
G37*
G36*
X008563Y012413D02*
X008647Y012329D01*
X008605Y012287D01*
X008521Y012371D01*
X008563Y012413D01*
G37*
G36*
X008606Y012541D02*
X008690Y012457D01*
X008648Y012415D01*
X008564Y012499D01*
X008606Y012541D01*
G37*
G36*
X006527Y012074D02*
X006611Y011990D01*
X006569Y011948D01*
X006485Y012032D01*
X006527Y012074D01*
G37*
G36*
X006060Y012456D02*
X006144Y012372D01*
X006102Y012330D01*
X006018Y012414D01*
X006060Y012456D01*
G37*
G36*
X006018Y013092D02*
X006102Y013008D01*
X006060Y012966D01*
X005976Y013050D01*
X006018Y013092D01*
G37*
G36*
X005975Y013389D02*
X006059Y013305D01*
X006017Y013263D01*
X005933Y013347D01*
X005975Y013389D01*
G37*
G36*
X005975Y013474D02*
X006059Y013390D01*
X006017Y013348D01*
X005933Y013432D01*
X005975Y013474D01*
G37*
G36*
X005975Y013559D02*
X006059Y013475D01*
X006017Y013433D01*
X005933Y013517D01*
X005975Y013559D01*
G37*
G36*
X005975Y013644D02*
X006059Y013560D01*
X006017Y013518D01*
X005933Y013602D01*
X005975Y013644D01*
G37*
G36*
X005975Y013729D02*
X006059Y013645D01*
X006017Y013603D01*
X005933Y013687D01*
X005975Y013729D01*
G37*
G36*
X005975Y013813D02*
X006059Y013729D01*
X006017Y013687D01*
X005933Y013771D01*
X005975Y013813D01*
G37*
G36*
X005509Y013771D02*
X005593Y013687D01*
X005551Y013645D01*
X005467Y013729D01*
X005509Y013771D01*
G37*
G36*
X005509Y013686D02*
X005593Y013602D01*
X005551Y013560D01*
X005467Y013644D01*
X005509Y013686D01*
G37*
G36*
X005509Y013601D02*
X005593Y013517D01*
X005551Y013475D01*
X005467Y013559D01*
X005509Y013601D01*
G37*
G36*
X005212Y013898D02*
X005296Y013814D01*
X005254Y013772D01*
X005170Y013856D01*
X005212Y013898D01*
G37*
G36*
X005212Y013983D02*
X005296Y013899D01*
X005254Y013857D01*
X005170Y013941D01*
X005212Y013983D01*
G37*
G36*
X005212Y014068D02*
X005296Y013984D01*
X005254Y013942D01*
X005170Y014026D01*
X005212Y014068D01*
G37*
G36*
X004618Y014577D02*
X004702Y014493D01*
X004660Y014451D01*
X004576Y014535D01*
X004618Y014577D01*
G37*
G36*
X004575Y014704D02*
X004659Y014620D01*
X004617Y014578D01*
X004533Y014662D01*
X004575Y014704D01*
G37*
G36*
X004575Y014789D02*
X004659Y014705D01*
X004617Y014663D01*
X004533Y014747D01*
X004575Y014789D01*
G37*
G36*
X004618Y014916D02*
X004702Y014832D01*
X004660Y014790D01*
X004576Y014874D01*
X004618Y014916D01*
G37*
G36*
X004872Y015426D02*
X004956Y015342D01*
X004914Y015300D01*
X004830Y015384D01*
X004872Y015426D01*
G37*
G36*
X003896Y014704D02*
X003980Y014620D01*
X003938Y014578D01*
X003854Y014662D01*
X003896Y014704D01*
G37*
G36*
X003090Y015680D02*
X003174Y015596D01*
X003132Y015554D01*
X003048Y015638D01*
X003090Y015680D01*
G37*
G36*
X002878Y015892D02*
X002962Y015808D01*
X002920Y015766D01*
X002836Y015850D01*
X002878Y015892D01*
G37*
G36*
X002878Y015977D02*
X002962Y015893D01*
X002920Y015851D01*
X002836Y015935D01*
X002878Y015977D01*
G37*
G36*
X002878Y016062D02*
X002962Y015978D01*
X002920Y015936D01*
X002836Y016020D01*
X002878Y016062D01*
G37*
G36*
X002878Y016147D02*
X002962Y016063D01*
X002920Y016021D01*
X002836Y016105D01*
X002878Y016147D01*
G37*
G36*
X002878Y016232D02*
X002962Y016148D01*
X002920Y016106D01*
X002836Y016190D01*
X002878Y016232D01*
G37*
G36*
X002878Y016317D02*
X002962Y016233D01*
X002920Y016191D01*
X002836Y016275D01*
X002878Y016317D01*
G37*
G36*
X003430Y016783D02*
X003514Y016699D01*
X003472Y016657D01*
X003388Y016741D01*
X003430Y016783D01*
G37*
G36*
X002751Y014832D02*
X002835Y014748D01*
X002793Y014706D01*
X002709Y014790D01*
X002751Y014832D01*
G37*
G36*
X003797Y012159D02*
X003881Y012075D01*
X003839Y012033D01*
X003755Y012117D01*
X003797Y012159D01*
G37*
G36*
X003713Y011480D02*
X003797Y011396D01*
X003755Y011354D01*
X003671Y011438D01*
X003713Y011480D01*
G37*
G36*
X003713Y011395D02*
X003797Y011311D01*
X003755Y011269D01*
X003671Y011353D01*
X003713Y011395D01*
G37*
G36*
X003713Y011310D02*
X003797Y011226D01*
X003755Y011184D01*
X003671Y011268D01*
X003713Y011310D01*
G37*
G36*
X003713Y011225D02*
X003797Y011141D01*
X003755Y011099D01*
X003671Y011183D01*
X003713Y011225D01*
G37*
G36*
X003713Y011141D02*
X003797Y011057D01*
X003755Y011015D01*
X003671Y011099D01*
X003713Y011141D01*
G37*
G36*
X003713Y011056D02*
X003797Y010972D01*
X003755Y010930D01*
X003671Y011014D01*
X003713Y011056D01*
G37*
G36*
X003713Y010801D02*
X003797Y010717D01*
X003755Y010675D01*
X003671Y010759D01*
X003713Y010801D01*
G37*
G36*
X003246Y011268D02*
X003330Y011184D01*
X003288Y011142D01*
X003204Y011226D01*
X003246Y011268D01*
G37*
G36*
X003246Y011353D02*
X003330Y011269D01*
X003288Y011227D01*
X003204Y011311D01*
X003246Y011353D01*
G37*
G36*
X003246Y011437D02*
X003330Y011353D01*
X003288Y011311D01*
X003204Y011395D01*
X003246Y011437D01*
G37*
G36*
X002949Y011565D02*
X003033Y011481D01*
X002991Y011439D01*
X002907Y011523D01*
X002949Y011565D01*
G37*
G36*
X002949Y011650D02*
X003033Y011566D01*
X002991Y011524D01*
X002907Y011608D01*
X002949Y011650D01*
G37*
G36*
X004434Y010674D02*
X004518Y010590D01*
X004476Y010548D01*
X004392Y010632D01*
X004434Y010674D01*
G37*
G36*
X004434Y010589D02*
X004518Y010505D01*
X004476Y010463D01*
X004392Y010547D01*
X004434Y010589D01*
G37*
G36*
X004434Y010504D02*
X004518Y010420D01*
X004476Y010378D01*
X004392Y010462D01*
X004434Y010504D01*
G37*
G36*
X004434Y010419D02*
X004518Y010335D01*
X004476Y010293D01*
X004392Y010377D01*
X004434Y010419D01*
G37*
G36*
X004349Y009740D02*
X004433Y009656D01*
X004391Y009614D01*
X004307Y009698D01*
X004349Y009740D01*
G37*
G36*
X004731Y009274D02*
X004815Y009190D01*
X004773Y009148D01*
X004689Y009232D01*
X004731Y009274D01*
G37*
G36*
X005410Y009359D02*
X005494Y009275D01*
X005452Y009233D01*
X005368Y009317D01*
X005410Y009359D01*
G37*
G36*
X005452Y009486D02*
X005536Y009402D01*
X005494Y009360D01*
X005410Y009444D01*
X005452Y009486D01*
G37*
G36*
X005452Y009146D02*
X005536Y009062D01*
X005494Y009020D01*
X005410Y009104D01*
X005452Y009146D01*
G37*
G36*
X005707Y009995D02*
X005791Y009911D01*
X005749Y009869D01*
X005665Y009953D01*
X005707Y009995D01*
G37*
G36*
X006937Y007068D02*
X007021Y006984D01*
X006979Y006942D01*
X006895Y007026D01*
X006937Y007068D01*
G37*
G36*
X008083Y006601D02*
X008167Y006517D01*
X008125Y006475D01*
X008041Y006559D01*
X008083Y006601D01*
G37*
G36*
X008083Y006516D02*
X008167Y006432D01*
X008125Y006390D01*
X008041Y006474D01*
X008083Y006516D01*
G37*
G36*
X008083Y006431D02*
X008167Y006347D01*
X008125Y006305D01*
X008041Y006389D01*
X008083Y006431D01*
G37*
G36*
X008210Y005710D02*
X008294Y005626D01*
X008252Y005584D01*
X008168Y005668D01*
X008210Y005710D01*
G37*
G36*
X008846Y005668D02*
X008930Y005584D01*
X008888Y005542D01*
X008804Y005626D01*
X008846Y005668D01*
G37*
G36*
X008846Y005583D02*
X008930Y005499D01*
X008888Y005457D01*
X008804Y005541D01*
X008846Y005583D01*
G37*
G36*
X008846Y005498D02*
X008930Y005414D01*
X008888Y005372D01*
X008804Y005456D01*
X008846Y005498D01*
G37*
G36*
X010119Y004904D02*
X010203Y004820D01*
X010161Y004778D01*
X010077Y004862D01*
X010119Y004904D01*
G37*
G36*
X010161Y005031D02*
X010245Y004947D01*
X010203Y004905D01*
X010119Y004989D01*
X010161Y005031D01*
G37*
G36*
X010204Y005158D02*
X010288Y005074D01*
X010246Y005032D01*
X010162Y005116D01*
X010204Y005158D01*
G37*
G36*
X010246Y005371D02*
X010330Y005287D01*
X010288Y005245D01*
X010204Y005329D01*
X010246Y005371D01*
G37*
G36*
X010289Y005498D02*
X010373Y005414D01*
X010331Y005372D01*
X010247Y005456D01*
X010289Y005498D01*
G37*
G36*
X010331Y005625D02*
X010415Y005541D01*
X010373Y005499D01*
X010289Y005583D01*
X010331Y005625D01*
G37*
G36*
X010119Y004819D02*
X010203Y004735D01*
X010161Y004693D01*
X010077Y004777D01*
X010119Y004819D01*
G37*
G36*
X011095Y004946D02*
X011179Y004862D01*
X011137Y004820D01*
X011053Y004904D01*
X011095Y004946D01*
G37*
G36*
X011265Y005625D02*
X011349Y005541D01*
X011307Y005499D01*
X011223Y005583D01*
X011265Y005625D01*
G37*
G36*
X010840Y006474D02*
X010924Y006390D01*
X010882Y006348D01*
X010798Y006432D01*
X010840Y006474D01*
G37*
G36*
X013782Y004734D02*
X013866Y004650D01*
X013824Y004608D01*
X013740Y004692D01*
X013782Y004734D01*
G37*
G36*
X006060Y014492D02*
X006144Y014408D01*
X006102Y014366D01*
X006018Y014450D01*
X006060Y014492D01*
G37*
D12*
G36*
X006471Y007535D02*
X006640Y007366D01*
X006597Y007323D01*
X006428Y007492D01*
X006471Y007535D01*
G37*
G36*
X006428Y008002D02*
X006597Y007833D01*
X006554Y007790D01*
X006385Y007959D01*
X006428Y008002D01*
G37*
G36*
X006216Y008214D02*
X006385Y008045D01*
X006342Y008002D01*
X006173Y008171D01*
X006216Y008214D01*
G37*
G36*
X006131Y008553D02*
X006300Y008384D01*
X006257Y008341D01*
X006088Y008510D01*
X006131Y008553D01*
G37*
G36*
X006131Y008638D02*
X006300Y008469D01*
X006257Y008426D01*
X006088Y008595D01*
X006131Y008638D01*
G37*
G36*
X006174Y008680D02*
X006343Y008511D01*
X006300Y008468D01*
X006131Y008637D01*
X006174Y008680D01*
G37*
G36*
X005622Y008977D02*
X005791Y008808D01*
X005748Y008765D01*
X005579Y008934D01*
X005622Y008977D01*
G37*
G36*
X005877Y009402D02*
X006046Y009233D01*
X006003Y009190D01*
X005834Y009359D01*
X005877Y009402D01*
G37*
G36*
X005919Y009444D02*
X006088Y009275D01*
X006045Y009232D01*
X005876Y009401D01*
X005919Y009444D01*
G37*
G36*
X006174Y009529D02*
X006343Y009360D01*
X006300Y009317D01*
X006131Y009486D01*
X006174Y009529D01*
G37*
G36*
X006683Y008765D02*
X006852Y008596D01*
X006809Y008553D01*
X006640Y008722D01*
X006683Y008765D01*
G37*
G36*
X006640Y008723D02*
X006809Y008554D01*
X006766Y008511D01*
X006597Y008680D01*
X006640Y008723D01*
G37*
G36*
X007022Y008341D02*
X007191Y008172D01*
X007148Y008129D01*
X006979Y008298D01*
X007022Y008341D01*
G37*
G36*
X006980Y008214D02*
X007149Y008045D01*
X007106Y008002D01*
X006937Y008171D01*
X006980Y008214D01*
G37*
G36*
X006937Y007577D02*
X007106Y007408D01*
X007063Y007365D01*
X006894Y007534D01*
X006937Y007577D01*
G37*
G36*
X006937Y007492D02*
X007106Y007323D01*
X007063Y007280D01*
X006894Y007449D01*
X006937Y007492D01*
G37*
G36*
X007234Y007195D02*
X007403Y007026D01*
X007360Y006983D01*
X007191Y007152D01*
X007234Y007195D01*
G37*
G36*
X007362Y007323D02*
X007531Y007154D01*
X007488Y007111D01*
X007319Y007280D01*
X007362Y007323D01*
G37*
G36*
X007447Y006898D02*
X007616Y006729D01*
X007573Y006686D01*
X007404Y006855D01*
X007447Y006898D01*
G37*
G36*
X007786Y006644D02*
X007955Y006475D01*
X007912Y006432D01*
X007743Y006601D01*
X007786Y006644D01*
G37*
G36*
X007828Y006686D02*
X007997Y006517D01*
X007954Y006474D01*
X007785Y006643D01*
X007828Y006686D01*
G37*
G36*
X007871Y006729D02*
X008040Y006560D01*
X007997Y006517D01*
X007828Y006686D01*
X007871Y006729D01*
G37*
G36*
X007998Y006941D02*
X008167Y006772D01*
X008124Y006729D01*
X007955Y006898D01*
X007998Y006941D01*
G37*
G36*
X007998Y007026D02*
X008167Y006857D01*
X008124Y006814D01*
X007955Y006983D01*
X007998Y007026D01*
G37*
G36*
X008041Y007153D02*
X008210Y006984D01*
X008167Y006941D01*
X007998Y007110D01*
X008041Y007153D01*
G37*
G36*
X008083Y007365D02*
X008252Y007196D01*
X008209Y007153D01*
X008040Y007322D01*
X008083Y007365D01*
G37*
G36*
X008168Y007874D02*
X008337Y007705D01*
X008294Y007662D01*
X008125Y007831D01*
X008168Y007874D01*
G37*
G36*
X008168Y007959D02*
X008337Y007790D01*
X008294Y007747D01*
X008125Y007916D01*
X008168Y007959D01*
G37*
G36*
X008210Y008086D02*
X008379Y007917D01*
X008336Y007874D01*
X008167Y008043D01*
X008210Y008086D01*
G37*
G36*
X008210Y008171D02*
X008379Y008002D01*
X008336Y007959D01*
X008167Y008128D01*
X008210Y008171D01*
G37*
G36*
X009158Y008511D02*
X009327Y008342D01*
X009284Y008299D01*
X009115Y008468D01*
X009158Y008511D01*
G37*
G36*
X009200Y008638D02*
X009369Y008469D01*
X009326Y008426D01*
X009157Y008595D01*
X009200Y008638D01*
G37*
G36*
X009752Y008935D02*
X009921Y008766D01*
X009878Y008723D01*
X009709Y008892D01*
X009752Y008935D01*
G37*
G36*
X010134Y009147D02*
X010303Y008978D01*
X010260Y008935D01*
X010091Y009104D01*
X010134Y009147D01*
G37*
G36*
X010218Y008723D02*
X010387Y008554D01*
X010344Y008511D01*
X010175Y008680D01*
X010218Y008723D01*
G37*
G36*
X010558Y008468D02*
X010727Y008299D01*
X010684Y008256D01*
X010515Y008425D01*
X010558Y008468D01*
G37*
G36*
X010600Y008511D02*
X010769Y008342D01*
X010726Y008299D01*
X010557Y008468D01*
X010600Y008511D01*
G37*
G36*
X010643Y008553D02*
X010812Y008384D01*
X010769Y008341D01*
X010600Y008510D01*
X010643Y008553D01*
G37*
G36*
X010770Y008765D02*
X010939Y008596D01*
X010896Y008553D01*
X010727Y008722D01*
X010770Y008765D01*
G37*
G36*
X010770Y008850D02*
X010939Y008681D01*
X010896Y008638D01*
X010727Y008807D01*
X010770Y008850D01*
G37*
G36*
X010812Y008977D02*
X010981Y008808D01*
X010938Y008765D01*
X010769Y008934D01*
X010812Y008977D01*
G37*
G36*
X010855Y009189D02*
X011024Y009020D01*
X010981Y008977D01*
X010812Y009146D01*
X010855Y009189D01*
G37*
G36*
X010940Y009699D02*
X011109Y009530D01*
X011066Y009487D01*
X010897Y009656D01*
X010940Y009699D01*
G37*
G36*
X010940Y009783D02*
X011109Y009614D01*
X011066Y009571D01*
X010897Y009740D01*
X010940Y009783D01*
G37*
G36*
X010982Y009911D02*
X011151Y009742D01*
X011108Y009699D01*
X010939Y009868D01*
X010982Y009911D01*
G37*
G36*
X010982Y009996D02*
X011151Y009827D01*
X011108Y009784D01*
X010939Y009953D01*
X010982Y009996D01*
G37*
G36*
X010261Y009953D02*
X010430Y009784D01*
X010387Y009741D01*
X010218Y009910D01*
X010261Y009953D01*
G37*
G36*
X009709Y010250D02*
X009878Y010081D01*
X009835Y010038D01*
X009666Y010207D01*
X009709Y010250D01*
G37*
G36*
X008140Y010887D02*
X008309Y010718D01*
X008266Y010675D01*
X008097Y010844D01*
X008140Y010887D01*
G37*
G36*
X008182Y011014D02*
X008351Y010845D01*
X008308Y010802D01*
X008139Y010971D01*
X008182Y011014D01*
G37*
G36*
X008097Y010759D02*
X008266Y010590D01*
X008223Y010547D01*
X008054Y010716D01*
X008097Y010759D01*
G37*
G36*
X008055Y010717D02*
X008224Y010548D01*
X008181Y010505D01*
X008012Y010674D01*
X008055Y010717D01*
G37*
G36*
X008012Y010590D02*
X008181Y010421D01*
X008138Y010378D01*
X007969Y010547D01*
X008012Y010590D01*
G37*
G36*
X007970Y010462D02*
X008139Y010293D01*
X008096Y010250D01*
X007927Y010419D01*
X007970Y010462D01*
G37*
G36*
X006867Y012244D02*
X007036Y012075D01*
X006993Y012032D01*
X006824Y012201D01*
X006867Y012244D01*
G37*
G36*
X006909Y012287D02*
X007078Y012118D01*
X007035Y012075D01*
X006866Y012244D01*
X006909Y012287D01*
G37*
G36*
X006952Y012414D02*
X007121Y012245D01*
X007078Y012202D01*
X006909Y012371D01*
X006952Y012414D01*
G37*
G36*
X006952Y012329D02*
X007121Y012160D01*
X007078Y012117D01*
X006909Y012286D01*
X006952Y012329D01*
G37*
G36*
X006739Y012202D02*
X006908Y012033D01*
X006865Y011990D01*
X006696Y012159D01*
X006739Y012202D01*
G37*
G36*
X006527Y012414D02*
X006696Y012245D01*
X006653Y012202D01*
X006484Y012371D01*
X006527Y012414D01*
G37*
G36*
X006527Y012499D02*
X006696Y012330D01*
X006653Y012287D01*
X006484Y012456D01*
X006527Y012499D01*
G37*
G36*
X006273Y012753D02*
X006442Y012584D01*
X006399Y012541D01*
X006230Y012710D01*
X006273Y012753D01*
G37*
G36*
X006485Y013050D02*
X006654Y012881D01*
X006611Y012838D01*
X006442Y013007D01*
X006485Y013050D01*
G37*
G36*
X006527Y013262D02*
X006696Y013093D01*
X006653Y013050D01*
X006484Y013219D01*
X006527Y013262D01*
G37*
G36*
X006527Y013347D02*
X006696Y013178D01*
X006653Y013135D01*
X006484Y013304D01*
X006527Y013347D01*
G37*
G36*
X005933Y014365D02*
X006102Y014196D01*
X006059Y014153D01*
X005890Y014322D01*
X005933Y014365D01*
G37*
G36*
X005976Y014408D02*
X006145Y014239D01*
X006102Y014196D01*
X005933Y014365D01*
X005976Y014408D01*
G37*
G36*
X005551Y013984D02*
X005720Y013815D01*
X005677Y013772D01*
X005508Y013941D01*
X005551Y013984D01*
G37*
G36*
X005509Y013941D02*
X005678Y013772D01*
X005635Y013729D01*
X005466Y013898D01*
X005509Y013941D01*
G37*
G36*
X005212Y013729D02*
X005381Y013560D01*
X005338Y013517D01*
X005169Y013686D01*
X005212Y013729D01*
G37*
G36*
X004915Y014111D02*
X005084Y013942D01*
X005041Y013899D01*
X004872Y014068D01*
X004915Y014111D01*
G37*
G36*
X004958Y014153D02*
X005127Y013984D01*
X005084Y013941D01*
X004915Y014110D01*
X004958Y014153D01*
G37*
G36*
X005000Y014196D02*
X005169Y014027D01*
X005126Y013984D01*
X004957Y014153D01*
X005000Y014196D01*
G37*
G36*
X005127Y014408D02*
X005296Y014239D01*
X005253Y014196D01*
X005084Y014365D01*
X005127Y014408D01*
G37*
G36*
X005127Y014493D02*
X005296Y014324D01*
X005253Y014281D01*
X005084Y014450D01*
X005127Y014493D01*
G37*
G36*
X005170Y014620D02*
X005339Y014451D01*
X005296Y014408D01*
X005127Y014577D01*
X005170Y014620D01*
G37*
G36*
X005212Y014832D02*
X005381Y014663D01*
X005338Y014620D01*
X005169Y014789D01*
X005212Y014832D01*
G37*
G36*
X005297Y015341D02*
X005466Y015172D01*
X005423Y015129D01*
X005254Y015298D01*
X005297Y015341D01*
G37*
G36*
X005297Y015426D02*
X005466Y015257D01*
X005423Y015214D01*
X005254Y015383D01*
X005297Y015426D01*
G37*
G36*
X005339Y015553D02*
X005508Y015384D01*
X005465Y015341D01*
X005296Y015510D01*
X005339Y015553D01*
G37*
G36*
X005339Y015638D02*
X005508Y015469D01*
X005465Y015426D01*
X005296Y015595D01*
X005339Y015638D01*
G37*
G36*
X004279Y015511D02*
X004448Y015342D01*
X004405Y015299D01*
X004236Y015468D01*
X004279Y015511D01*
G37*
G36*
X004151Y014959D02*
X004320Y014790D01*
X004277Y014747D01*
X004108Y014916D01*
X004151Y014959D01*
G37*
G36*
X003642Y015469D02*
X003811Y015300D01*
X003768Y015257D01*
X003599Y015426D01*
X003642Y015469D01*
G37*
G36*
X003345Y015341D02*
X003514Y015172D01*
X003471Y015129D01*
X003302Y015298D01*
X003345Y015341D01*
G37*
G36*
X002794Y015044D02*
X002963Y014875D01*
X002920Y014832D01*
X002751Y015001D01*
X002794Y015044D01*
G37*
G36*
X002751Y014917D02*
X002920Y014748D01*
X002877Y014705D01*
X002708Y014874D01*
X002751Y014917D01*
G37*
G36*
X003854Y016360D02*
X004023Y016191D01*
X003980Y016148D01*
X003811Y016317D01*
X003854Y016360D01*
G37*
G36*
X003303Y016657D02*
X003472Y016488D01*
X003429Y016445D01*
X003260Y016614D01*
X003303Y016657D01*
G37*
G36*
X004576Y014365D02*
X004745Y014196D01*
X004702Y014153D01*
X004533Y014322D01*
X004576Y014365D01*
G37*
G36*
X004661Y013856D02*
X004830Y013687D01*
X004787Y013644D01*
X004618Y013813D01*
X004661Y013856D01*
G37*
G36*
X005339Y013262D02*
X005508Y013093D01*
X005465Y013050D01*
X005296Y013219D01*
X005339Y013262D01*
G37*
G36*
X004901Y012074D02*
X005070Y011905D01*
X005027Y011862D01*
X004858Y012031D01*
X004901Y012074D01*
G37*
G36*
X004901Y011990D02*
X005070Y011821D01*
X005027Y011778D01*
X004858Y011947D01*
X004901Y011990D01*
G37*
G36*
X004137Y011226D02*
X004306Y011057D01*
X004263Y011014D01*
X004094Y011183D01*
X004137Y011226D01*
G37*
G36*
X004349Y011014D02*
X004518Y010845D01*
X004475Y010802D01*
X004306Y010971D01*
X004349Y011014D01*
G37*
G36*
X004349Y010335D02*
X004518Y010166D01*
X004475Y010123D01*
X004306Y010292D01*
X004349Y010335D01*
G37*
G36*
X004604Y010080D02*
X004773Y009911D01*
X004730Y009868D01*
X004561Y010037D01*
X004604Y010080D01*
G37*
G36*
X004689Y010335D02*
X004858Y010166D01*
X004815Y010123D01*
X004646Y010292D01*
X004689Y010335D01*
G37*
G36*
X004689Y010420D02*
X004858Y010251D01*
X004815Y010208D01*
X004646Y010377D01*
X004689Y010420D01*
G37*
G36*
X004392Y009953D02*
X004561Y009784D01*
X004518Y009741D01*
X004349Y009910D01*
X004392Y009953D01*
G37*
G36*
X004349Y009911D02*
X004518Y009742D01*
X004475Y009699D01*
X004306Y009868D01*
X004349Y009911D01*
G37*
G36*
X004986Y009529D02*
X005155Y009360D01*
X005112Y009317D01*
X004943Y009486D01*
X004986Y009529D01*
G37*
G36*
X005113Y010080D02*
X005282Y009911D01*
X005239Y009868D01*
X005070Y010037D01*
X005113Y010080D01*
G37*
G36*
X005622Y008383D02*
X005791Y008214D01*
X005748Y008171D01*
X005579Y008340D01*
X005622Y008383D01*
G37*
G36*
X007531Y006389D02*
X007700Y006220D01*
X007657Y006177D01*
X007488Y006346D01*
X007531Y006389D01*
G37*
G36*
X008804Y006304D02*
X008973Y006135D01*
X008930Y006092D01*
X008761Y006261D01*
X008804Y006304D01*
G37*
G36*
X008847Y006432D02*
X009016Y006263D01*
X008973Y006220D01*
X008804Y006389D01*
X008847Y006432D01*
G37*
G36*
X008804Y006220D02*
X008973Y006051D01*
X008930Y006008D01*
X008761Y006177D01*
X008804Y006220D01*
G37*
G36*
X009398Y005541D02*
X009567Y005372D01*
X009524Y005329D01*
X009355Y005498D01*
X009398Y005541D01*
G37*
G36*
X009356Y005414D02*
X009525Y005245D01*
X009482Y005202D01*
X009313Y005371D01*
X009356Y005414D01*
G37*
G36*
X009313Y005286D02*
X009482Y005117D01*
X009439Y005074D01*
X009270Y005243D01*
X009313Y005286D01*
G37*
G36*
X008931Y004820D02*
X009100Y004651D01*
X009057Y004608D01*
X008888Y004777D01*
X008931Y004820D01*
G37*
G36*
X009907Y005032D02*
X010076Y004863D01*
X010033Y004820D01*
X009864Y004989D01*
X009907Y005032D01*
G37*
G36*
X009950Y005414D02*
X010119Y005245D01*
X010076Y005202D01*
X009907Y005371D01*
X009950Y005414D01*
G37*
G36*
X009950Y005498D02*
X010119Y005329D01*
X010076Y005286D01*
X009907Y005455D01*
X009950Y005498D01*
G37*
G36*
X010459Y006177D02*
X010628Y006008D01*
X010585Y005965D01*
X010416Y006134D01*
X010459Y006177D01*
G37*
G36*
X011053Y005074D02*
X011222Y004905D01*
X011179Y004862D01*
X011010Y005031D01*
X011053Y005074D01*
G37*
G36*
X012170Y006517D02*
X012339Y006348D01*
X012296Y006305D01*
X012127Y006474D01*
X012170Y006517D01*
G37*
G36*
X012170Y006771D02*
X012339Y006602D01*
X012296Y006559D01*
X012127Y006728D01*
X012170Y006771D01*
G37*
G36*
X012170Y006856D02*
X012339Y006687D01*
X012296Y006644D01*
X012127Y006813D01*
X012170Y006856D01*
G37*
G36*
X011915Y007111D02*
X012084Y006942D01*
X012041Y006899D01*
X011872Y007068D01*
X011915Y007111D01*
G37*
G36*
X012128Y007408D02*
X012297Y007239D01*
X012254Y007196D01*
X012085Y007365D01*
X012128Y007408D01*
G37*
G36*
X012170Y007620D02*
X012339Y007451D01*
X012296Y007408D01*
X012127Y007577D01*
X012170Y007620D01*
G37*
G36*
X012170Y007705D02*
X012339Y007536D01*
X012296Y007493D01*
X012127Y007662D01*
X012170Y007705D01*
G37*
G36*
X011618Y008680D02*
X011787Y008511D01*
X011744Y008468D01*
X011575Y008637D01*
X011618Y008680D01*
G37*
G36*
X011661Y008723D02*
X011830Y008554D01*
X011787Y008511D01*
X011618Y008680D01*
X011661Y008723D01*
G37*
G36*
X011237Y008299D02*
X011406Y008130D01*
X011363Y008087D01*
X011194Y008256D01*
X011237Y008299D01*
G37*
G36*
X011194Y008256D02*
X011363Y008087D01*
X011320Y008044D01*
X011151Y008213D01*
X011194Y008256D01*
G37*
G36*
X010897Y008044D02*
X011066Y007875D01*
X011023Y007832D01*
X010854Y008001D01*
X010897Y008044D01*
G37*
G36*
X010303Y008214D02*
X010472Y008045D01*
X010429Y008002D01*
X010260Y008171D01*
X010303Y008214D01*
G37*
G36*
X011025Y007577D02*
X011194Y007408D01*
X011151Y007365D01*
X010982Y007534D01*
X011025Y007577D01*
G37*
G36*
X012382Y006559D02*
X012551Y006390D01*
X012508Y006347D01*
X012339Y006516D01*
X012382Y006559D01*
G37*
G36*
X012509Y006601D02*
X012678Y006432D01*
X012635Y006389D01*
X012466Y006558D01*
X012509Y006601D01*
G37*
G36*
X012552Y006644D02*
X012721Y006475D01*
X012678Y006432D01*
X012509Y006601D01*
X012552Y006644D01*
G37*
G36*
X012594Y006771D02*
X012763Y006602D01*
X012720Y006559D01*
X012551Y006728D01*
X012594Y006771D01*
G37*
G36*
X012594Y006686D02*
X012763Y006517D01*
X012720Y006474D01*
X012551Y006643D01*
X012594Y006686D01*
G37*
G36*
X013316Y006050D02*
X013485Y005881D01*
X013442Y005838D01*
X013273Y006007D01*
X013316Y006050D01*
G37*
G36*
X013273Y006007D02*
X013442Y005838D01*
X013399Y005795D01*
X013230Y005964D01*
X013273Y006007D01*
G37*
G36*
X013273Y005923D02*
X013442Y005754D01*
X013399Y005711D01*
X013230Y005880D01*
X013273Y005923D01*
G37*
G36*
X013231Y005880D02*
X013400Y005711D01*
X013357Y005668D01*
X013188Y005837D01*
X013231Y005880D01*
G37*
G36*
X013231Y005795D02*
X013400Y005626D01*
X013357Y005583D01*
X013188Y005752D01*
X013231Y005795D01*
G37*
G36*
X013188Y005753D02*
X013357Y005584D01*
X013314Y005541D01*
X013145Y005710D01*
X013188Y005753D01*
G37*
G36*
X013146Y005711D02*
X013315Y005542D01*
X013272Y005499D01*
X013103Y005668D01*
X013146Y005711D01*
G37*
G36*
X013061Y005541D02*
X013230Y005372D01*
X013187Y005329D01*
X013018Y005498D01*
X013061Y005541D01*
G37*
G36*
X013825Y005032D02*
X013994Y004863D01*
X013951Y004820D01*
X013782Y004989D01*
X013825Y005032D01*
G37*
G36*
X013867Y005159D02*
X014036Y004990D01*
X013993Y004947D01*
X013824Y005116D01*
X013867Y005159D01*
G37*
G36*
X013867Y005244D02*
X014036Y005075D01*
X013993Y005032D01*
X013824Y005201D01*
X013867Y005244D01*
G37*
G36*
X013825Y004947D02*
X013994Y004778D01*
X013951Y004735D01*
X013782Y004904D01*
X013825Y004947D01*
G37*
G36*
X013952Y006092D02*
X014121Y005923D01*
X014078Y005880D01*
X013909Y006049D01*
X013952Y006092D01*
G37*
G36*
X013952Y006177D02*
X014121Y006008D01*
X014078Y005965D01*
X013909Y006134D01*
X013952Y006177D01*
G37*
G36*
X013952Y006262D02*
X014121Y006093D01*
X014078Y006050D01*
X013909Y006219D01*
X013952Y006262D01*
G37*
G36*
X013994Y006474D02*
X014163Y006305D01*
X014120Y006262D01*
X013951Y006431D01*
X013994Y006474D01*
G37*
G36*
X013994Y006559D02*
X014163Y006390D01*
X014120Y006347D01*
X013951Y006516D01*
X013994Y006559D01*
G37*
G36*
X013994Y006644D02*
X014163Y006475D01*
X014120Y006432D01*
X013951Y006601D01*
X013994Y006644D01*
G37*
G36*
X013994Y006729D02*
X014163Y006560D01*
X014120Y006517D01*
X013951Y006686D01*
X013994Y006729D01*
G37*
G36*
X013994Y006814D02*
X014163Y006645D01*
X014120Y006602D01*
X013951Y006771D01*
X013994Y006814D01*
G37*
G36*
X014037Y006941D02*
X014206Y006772D01*
X014163Y006729D01*
X013994Y006898D01*
X014037Y006941D01*
G37*
G36*
X014037Y006856D02*
X014206Y006687D01*
X014163Y006644D01*
X013994Y006813D01*
X014037Y006856D01*
G37*
G36*
X014122Y007195D02*
X014291Y007026D01*
X014248Y006983D01*
X014079Y007152D01*
X014122Y007195D01*
G37*
G36*
X013613Y007450D02*
X013782Y007281D01*
X013739Y007238D01*
X013570Y007407D01*
X013613Y007450D01*
G37*
G36*
X013570Y007238D02*
X013739Y007069D01*
X013696Y007026D01*
X013527Y007195D01*
X013570Y007238D01*
G37*
G36*
X013570Y007153D02*
X013739Y006984D01*
X013696Y006941D01*
X013527Y007110D01*
X013570Y007153D01*
G37*
G36*
X013528Y007026D02*
X013697Y006857D01*
X013654Y006814D01*
X013485Y006983D01*
X013528Y007026D01*
G37*
G36*
X013528Y006941D02*
X013697Y006772D01*
X013654Y006729D01*
X013485Y006898D01*
X013528Y006941D01*
G37*
G36*
X013485Y006814D02*
X013654Y006645D01*
X013611Y006602D01*
X013442Y006771D01*
X013485Y006814D01*
G37*
G36*
X013485Y006729D02*
X013654Y006560D01*
X013611Y006517D01*
X013442Y006686D01*
X013485Y006729D01*
G37*
G36*
X007843Y013135D02*
X008012Y012966D01*
X007969Y012923D01*
X007800Y013092D01*
X007843Y013135D01*
G37*
G36*
X007588Y012881D02*
X007757Y012712D01*
X007714Y012669D01*
X007545Y012838D01*
X007588Y012881D01*
G37*
G36*
X007546Y012753D02*
X007715Y012584D01*
X007672Y012541D01*
X007503Y012710D01*
X007546Y012753D01*
G37*
G36*
X007546Y012668D02*
X007715Y012499D01*
X007672Y012456D01*
X007503Y012625D01*
X007546Y012668D01*
G37*
G36*
X006527Y012159D02*
X006696Y011990D01*
X006653Y011947D01*
X006484Y012116D01*
X006527Y012159D01*
G37*
G36*
X003713Y012074D02*
X003882Y011905D01*
X003839Y011862D01*
X003670Y012031D01*
X003713Y012074D01*
G37*
G36*
X003671Y012032D02*
X003840Y011863D01*
X003797Y011820D01*
X003628Y011989D01*
X003671Y012032D01*
G37*
G36*
X003289Y011650D02*
X003458Y011481D01*
X003415Y011438D01*
X003246Y011607D01*
X003289Y011650D01*
G37*
G36*
X003246Y011608D02*
X003415Y011439D01*
X003372Y011396D01*
X003203Y011565D01*
X003246Y011608D01*
G37*
G36*
X002949Y011396D02*
X003118Y011227D01*
X003075Y011184D01*
X002906Y011353D01*
X002949Y011396D01*
G37*
G36*
X003077Y010929D02*
X003246Y010760D01*
X003203Y010717D01*
X003034Y010886D01*
X003077Y010929D01*
G37*
D13*
G36*
X003586Y011098D02*
X003797Y010887D01*
X003754Y010844D01*
X003543Y011055D01*
X003586Y011098D01*
G37*
G36*
X003289Y011735D02*
X003500Y011524D01*
X003457Y011481D01*
X003246Y011692D01*
X003289Y011735D01*
G37*
G36*
X003331Y011777D02*
X003542Y011566D01*
X003499Y011523D01*
X003288Y011734D01*
X003331Y011777D01*
G37*
G36*
X003374Y011820D02*
X003585Y011609D01*
X003542Y011566D01*
X003331Y011777D01*
X003374Y011820D01*
G37*
G36*
X003416Y011862D02*
X003627Y011651D01*
X003584Y011608D01*
X003373Y011819D01*
X003416Y011862D01*
G37*
G36*
X003459Y011905D02*
X003670Y011694D01*
X003627Y011651D01*
X003416Y011862D01*
X003459Y011905D01*
G37*
G36*
X004307Y011311D02*
X004518Y011100D01*
X004475Y011057D01*
X004264Y011268D01*
X004307Y011311D01*
G37*
G36*
X004731Y010801D02*
X004942Y010590D01*
X004899Y010547D01*
X004688Y010758D01*
X004731Y010801D01*
G37*
G36*
X004731Y010717D02*
X004942Y010506D01*
X004899Y010463D01*
X004688Y010674D01*
X004731Y010717D01*
G37*
G36*
X004689Y010589D02*
X004900Y010378D01*
X004857Y010335D01*
X004646Y010546D01*
X004689Y010589D01*
G37*
G36*
X004689Y010504D02*
X004900Y010293D01*
X004857Y010250D01*
X004646Y010461D01*
X004689Y010504D01*
G37*
G36*
X004137Y010377D02*
X004348Y010166D01*
X004305Y010123D01*
X004094Y010334D01*
X004137Y010377D01*
G37*
G36*
X004095Y010335D02*
X004306Y010124D01*
X004263Y010081D01*
X004052Y010292D01*
X004095Y010335D01*
G37*
G36*
X004010Y010335D02*
X004221Y010124D01*
X004178Y010081D01*
X003967Y010292D01*
X004010Y010335D01*
G37*
G36*
X003713Y010292D02*
X003924Y010081D01*
X003881Y010038D01*
X003670Y010249D01*
X003713Y010292D01*
G37*
G36*
X004392Y010038D02*
X004603Y009827D01*
X004560Y009784D01*
X004349Y009995D01*
X004392Y010038D01*
G37*
G36*
X004562Y010038D02*
X004773Y009827D01*
X004730Y009784D01*
X004519Y009995D01*
X004562Y010038D01*
G37*
G36*
X004689Y009401D02*
X004900Y009190D01*
X004857Y009147D01*
X004646Y009358D01*
X004689Y009401D01*
G37*
G36*
X005453Y009656D02*
X005664Y009445D01*
X005621Y009402D01*
X005410Y009613D01*
X005453Y009656D01*
G37*
G36*
X005835Y009359D02*
X006046Y009148D01*
X006003Y009105D01*
X005792Y009316D01*
X005835Y009359D01*
G37*
G36*
X005792Y009317D02*
X006003Y009106D01*
X005960Y009063D01*
X005749Y009274D01*
X005792Y009317D01*
G37*
G36*
X005750Y009189D02*
X005961Y008978D01*
X005918Y008935D01*
X005707Y009146D01*
X005750Y009189D01*
G37*
G36*
X005707Y009147D02*
X005918Y008936D01*
X005875Y008893D01*
X005664Y009104D01*
X005707Y009147D01*
G37*
G36*
X005665Y009020D02*
X005876Y008809D01*
X005833Y008766D01*
X005622Y008977D01*
X005665Y009020D01*
G37*
G36*
X005580Y008765D02*
X005791Y008554D01*
X005748Y008511D01*
X005537Y008722D01*
X005580Y008765D01*
G37*
G36*
X006174Y008850D02*
X006385Y008639D01*
X006342Y008596D01*
X006131Y008807D01*
X006174Y008850D01*
G37*
G36*
X006174Y008765D02*
X006385Y008554D01*
X006342Y008511D01*
X006131Y008722D01*
X006174Y008765D01*
G37*
G36*
X006598Y008680D02*
X006809Y008469D01*
X006766Y008426D01*
X006555Y008637D01*
X006598Y008680D01*
G37*
G36*
X006556Y008553D02*
X006767Y008342D01*
X006724Y008299D01*
X006513Y008510D01*
X006556Y008553D01*
G37*
G36*
X006513Y008426D02*
X006724Y008215D01*
X006681Y008172D01*
X006470Y008383D01*
X006513Y008426D01*
G37*
G36*
X006471Y008298D02*
X006682Y008087D01*
X006639Y008044D01*
X006428Y008255D01*
X006471Y008298D01*
G37*
G36*
X006429Y008256D02*
X006640Y008045D01*
X006597Y008002D01*
X006386Y008213D01*
X006429Y008256D01*
G37*
G36*
X006429Y007916D02*
X006640Y007705D01*
X006597Y007662D01*
X006386Y007873D01*
X006429Y007916D01*
G37*
G36*
X006938Y008086D02*
X007149Y007875D01*
X007106Y007832D01*
X006895Y008043D01*
X006938Y008086D01*
G37*
G36*
X006938Y008171D02*
X007149Y007960D01*
X007106Y007917D01*
X006895Y008128D01*
X006938Y008171D01*
G37*
G36*
X006980Y008298D02*
X007191Y008087D01*
X007148Y008044D01*
X006937Y008255D01*
X006980Y008298D01*
G37*
G36*
X007362Y007492D02*
X007573Y007281D01*
X007530Y007238D01*
X007319Y007449D01*
X007362Y007492D01*
G37*
G36*
X007362Y007407D02*
X007573Y007196D01*
X007530Y007153D01*
X007319Y007364D01*
X007362Y007407D01*
G37*
G36*
X006938Y007407D02*
X007149Y007196D01*
X007106Y007153D01*
X006895Y007364D01*
X006938Y007407D01*
G37*
G36*
X006938Y007153D02*
X007149Y006942D01*
X007106Y006899D01*
X006895Y007110D01*
X006938Y007153D01*
G37*
G36*
X007956Y006898D02*
X008167Y006687D01*
X008124Y006644D01*
X007913Y006855D01*
X007956Y006898D01*
G37*
G36*
X008168Y008044D02*
X008379Y007833D01*
X008336Y007790D01*
X008125Y008001D01*
X008168Y008044D01*
G37*
G36*
X009158Y008595D02*
X009369Y008384D01*
X009326Y008341D01*
X009115Y008552D01*
X009158Y008595D01*
G37*
G36*
X009200Y008723D02*
X009411Y008512D01*
X009368Y008469D01*
X009157Y008680D01*
X009200Y008723D01*
G37*
G36*
X009200Y008807D02*
X009411Y008596D01*
X009368Y008553D01*
X009157Y008764D01*
X009200Y008807D01*
G37*
G36*
X009752Y009020D02*
X009963Y008809D01*
X009920Y008766D01*
X009709Y008977D01*
X009752Y009020D01*
G37*
G36*
X010134Y009232D02*
X010345Y009021D01*
X010302Y008978D01*
X010091Y009189D01*
X010134Y009232D01*
G37*
G36*
X010134Y009317D02*
X010345Y009106D01*
X010302Y009063D01*
X010091Y009274D01*
X010134Y009317D01*
G37*
G36*
X009667Y010123D02*
X009878Y009912D01*
X009835Y009869D01*
X009624Y010080D01*
X009667Y010123D01*
G37*
G36*
X009667Y010208D02*
X009878Y009997D01*
X009835Y009954D01*
X009624Y010165D01*
X009667Y010208D01*
G37*
G36*
X009158Y011735D02*
X009369Y011524D01*
X009326Y011481D01*
X009115Y011692D01*
X009158Y011735D01*
G37*
G36*
X008012Y010674D02*
X008223Y010463D01*
X008180Y010420D01*
X007969Y010631D01*
X008012Y010674D01*
G37*
G36*
X007970Y010547D02*
X008181Y010336D01*
X008138Y010293D01*
X007927Y010504D01*
X007970Y010547D01*
G37*
G36*
X006952Y012499D02*
X007163Y012288D01*
X007120Y012245D01*
X006909Y012456D01*
X006952Y012499D01*
G37*
G36*
X006443Y012923D02*
X006654Y012712D01*
X006611Y012669D01*
X006400Y012880D01*
X006443Y012923D01*
G37*
G36*
X006443Y013008D02*
X006654Y012797D01*
X006611Y012754D01*
X006400Y012965D01*
X006443Y013008D01*
G37*
G36*
X006485Y013135D02*
X006696Y012924D01*
X006653Y012881D01*
X006442Y013092D01*
X006485Y013135D01*
G37*
G36*
X006485Y013220D02*
X006696Y013009D01*
X006653Y012966D01*
X006442Y013177D01*
X006485Y013220D01*
G37*
G36*
X006825Y013559D02*
X007036Y013348D01*
X006993Y013305D01*
X006782Y013516D01*
X006825Y013559D01*
G37*
G36*
X005849Y013432D02*
X006060Y013221D01*
X006017Y013178D01*
X005806Y013389D01*
X005849Y013432D01*
G37*
G36*
X005552Y014068D02*
X005763Y013857D01*
X005720Y013814D01*
X005509Y014025D01*
X005552Y014068D01*
G37*
G36*
X005594Y014111D02*
X005805Y013900D01*
X005762Y013857D01*
X005551Y014068D01*
X005594Y014111D01*
G37*
G36*
X005637Y014153D02*
X005848Y013942D01*
X005805Y013899D01*
X005594Y014110D01*
X005637Y014153D01*
G37*
G36*
X005679Y014196D02*
X005890Y013985D01*
X005847Y013942D01*
X005636Y014153D01*
X005679Y014196D01*
G37*
G36*
X005721Y014238D02*
X005932Y014027D01*
X005889Y013984D01*
X005678Y014195D01*
X005721Y014238D01*
G37*
G36*
X005085Y014365D02*
X005296Y014154D01*
X005253Y014111D01*
X005042Y014322D01*
X005085Y014365D01*
G37*
G36*
X004618Y015087D02*
X004829Y014876D01*
X004786Y014833D01*
X004575Y015044D01*
X004618Y015087D01*
G37*
G36*
X003855Y014832D02*
X004066Y014621D01*
X004023Y014578D01*
X003812Y014789D01*
X003855Y014832D01*
G37*
G36*
X003346Y015426D02*
X003557Y015215D01*
X003514Y015172D01*
X003303Y015383D01*
X003346Y015426D01*
G37*
G36*
X003727Y015553D02*
X003938Y015342D01*
X003895Y015299D01*
X003684Y015510D01*
X003727Y015553D01*
G37*
G36*
X003727Y015638D02*
X003938Y015427D01*
X003895Y015384D01*
X003684Y015595D01*
X003727Y015638D01*
G37*
G36*
X003727Y015723D02*
X003938Y015512D01*
X003895Y015469D01*
X003684Y015680D01*
X003727Y015723D01*
G37*
G36*
X003261Y016529D02*
X003472Y016318D01*
X003429Y016275D01*
X003218Y016486D01*
X003261Y016529D01*
G37*
G36*
X003261Y016614D02*
X003472Y016403D01*
X003429Y016360D01*
X003218Y016571D01*
X003261Y016614D01*
G37*
G36*
X002794Y015214D02*
X003005Y015003D01*
X002962Y014960D01*
X002751Y015171D01*
X002794Y015214D01*
G37*
G36*
X002794Y015129D02*
X003005Y014918D01*
X002962Y014875D01*
X002751Y015086D01*
X002794Y015129D01*
G37*
G36*
X002752Y015002D02*
X002963Y014791D01*
X002920Y014748D01*
X002709Y014959D01*
X002752Y015002D01*
G37*
G36*
X005297Y015511D02*
X005508Y015300D01*
X005465Y015257D01*
X005254Y015468D01*
X005297Y015511D01*
G37*
G36*
X006018Y012583D02*
X006229Y012372D01*
X006186Y012329D01*
X005975Y012540D01*
X006018Y012583D01*
G37*
G36*
X004859Y011947D02*
X005070Y011736D01*
X005027Y011693D01*
X004816Y011904D01*
X004859Y011947D01*
G37*
G36*
X004859Y011862D02*
X005070Y011651D01*
X005027Y011608D01*
X004816Y011819D01*
X004859Y011862D01*
G37*
G36*
X007503Y012541D02*
X007714Y012330D01*
X007671Y012287D01*
X007460Y012498D01*
X007503Y012541D01*
G37*
G36*
X007503Y012626D02*
X007714Y012415D01*
X007671Y012372D01*
X007460Y012583D01*
X007503Y012626D01*
G37*
G36*
X007885Y013177D02*
X008096Y012966D01*
X008053Y012923D01*
X007842Y013134D01*
X007885Y013177D01*
G37*
G36*
X010940Y009868D02*
X011151Y009657D01*
X011108Y009614D01*
X010897Y009825D01*
X010940Y009868D01*
G37*
G36*
X010728Y008723D02*
X010939Y008512D01*
X010896Y008469D01*
X010685Y008680D01*
X010728Y008723D01*
G37*
G36*
X011237Y008383D02*
X011448Y008172D01*
X011405Y008129D01*
X011194Y008340D01*
X011237Y008383D01*
G37*
G36*
X011279Y008426D02*
X011490Y008215D01*
X011447Y008172D01*
X011236Y008383D01*
X011279Y008426D01*
G37*
G36*
X011322Y008468D02*
X011533Y008257D01*
X011490Y008214D01*
X011279Y008425D01*
X011322Y008468D01*
G37*
G36*
X011364Y008510D02*
X011575Y008299D01*
X011532Y008256D01*
X011321Y008467D01*
X011364Y008510D01*
G37*
G36*
X011407Y008553D02*
X011618Y008342D01*
X011575Y008299D01*
X011364Y008510D01*
X011407Y008553D01*
G37*
G36*
X011534Y007747D02*
X011745Y007536D01*
X011702Y007493D01*
X011491Y007704D01*
X011534Y007747D01*
G37*
G36*
X012085Y007365D02*
X012296Y007154D01*
X012253Y007111D01*
X012042Y007322D01*
X012085Y007365D01*
G37*
G36*
X012128Y007492D02*
X012339Y007281D01*
X012296Y007238D01*
X012085Y007449D01*
X012128Y007492D01*
G37*
G36*
X012128Y007577D02*
X012339Y007366D01*
X012296Y007323D01*
X012085Y007534D01*
X012128Y007577D01*
G37*
G36*
X012085Y007280D02*
X012296Y007069D01*
X012253Y007026D01*
X012042Y007237D01*
X012085Y007280D01*
G37*
G36*
X011661Y006941D02*
X011872Y006730D01*
X011829Y006687D01*
X011618Y006898D01*
X011661Y006941D01*
G37*
G36*
X012595Y006856D02*
X012806Y006645D01*
X012763Y006602D01*
X012552Y006813D01*
X012595Y006856D01*
G37*
G36*
X012467Y007916D02*
X012678Y007705D01*
X012635Y007662D01*
X012424Y007873D01*
X012467Y007916D01*
G37*
G36*
X014164Y007238D02*
X014375Y007027D01*
X014332Y006984D01*
X014121Y007195D01*
X014164Y007238D01*
G37*
G36*
X013061Y005625D02*
X013272Y005414D01*
X013229Y005371D01*
X013018Y005582D01*
X013061Y005625D01*
G37*
G36*
X013867Y005328D02*
X014078Y005117D01*
X014035Y005074D01*
X013824Y005285D01*
X013867Y005328D01*
G37*
G36*
X013825Y005116D02*
X014036Y004905D01*
X013993Y004862D01*
X013782Y005073D01*
X013825Y005116D01*
G37*
G36*
X014970Y005583D02*
X015181Y005372D01*
X015138Y005329D01*
X014927Y005540D01*
X014970Y005583D01*
G37*
G36*
X011053Y005159D02*
X011264Y004948D01*
X011221Y004905D01*
X011010Y005116D01*
X011053Y005159D01*
G37*
G36*
X009950Y006347D02*
X010161Y006136D01*
X010118Y006093D01*
X009907Y006304D01*
X009950Y006347D01*
G37*
G36*
X009610Y006686D02*
X009821Y006475D01*
X009778Y006432D01*
X009567Y006643D01*
X009610Y006686D01*
G37*
G36*
X009568Y006559D02*
X009779Y006348D01*
X009736Y006305D01*
X009525Y006516D01*
X009568Y006559D01*
G37*
G36*
X009568Y006474D02*
X009779Y006263D01*
X009736Y006220D01*
X009525Y006431D01*
X009568Y006474D01*
G37*
G36*
X009568Y006389D02*
X009779Y006178D01*
X009736Y006135D01*
X009525Y006346D01*
X009568Y006389D01*
G37*
G36*
X009526Y006347D02*
X009737Y006136D01*
X009694Y006093D01*
X009483Y006304D01*
X009526Y006347D01*
G37*
G36*
X009526Y006262D02*
X009737Y006051D01*
X009694Y006008D01*
X009483Y006219D01*
X009526Y006262D01*
G37*
G36*
X009526Y006177D02*
X009737Y005966D01*
X009694Y005923D01*
X009483Y006134D01*
X009526Y006177D01*
G37*
G36*
X009483Y006135D02*
X009694Y005924D01*
X009651Y005881D01*
X009440Y006092D01*
X009483Y006135D01*
G37*
G36*
X009483Y006050D02*
X009694Y005839D01*
X009651Y005796D01*
X009440Y006007D01*
X009483Y006050D01*
G37*
G36*
X009483Y005965D02*
X009694Y005754D01*
X009651Y005711D01*
X009440Y005922D01*
X009483Y005965D01*
G37*
G36*
X009441Y005922D02*
X009652Y005711D01*
X009609Y005668D01*
X009398Y005879D01*
X009441Y005922D01*
G37*
G36*
X009441Y005838D02*
X009652Y005627D01*
X009609Y005584D01*
X009398Y005795D01*
X009441Y005838D01*
G37*
G36*
X009441Y005753D02*
X009652Y005542D01*
X009609Y005499D01*
X009398Y005710D01*
X009441Y005753D01*
G37*
G36*
X009398Y005710D02*
X009609Y005499D01*
X009566Y005456D01*
X009355Y005667D01*
X009398Y005710D01*
G37*
G36*
X009398Y005625D02*
X009609Y005414D01*
X009566Y005371D01*
X009355Y005582D01*
X009398Y005625D01*
G37*
G36*
X009356Y005498D02*
X009567Y005287D01*
X009524Y005244D01*
X009313Y005455D01*
X009356Y005498D01*
G37*
G36*
X009314Y005371D02*
X009525Y005160D01*
X009482Y005117D01*
X009271Y005328D01*
X009314Y005371D01*
G37*
G36*
X009271Y005244D02*
X009482Y005033D01*
X009439Y004990D01*
X009228Y005201D01*
X009271Y005244D01*
G37*
G36*
X009229Y005201D02*
X009440Y004990D01*
X009397Y004947D01*
X009186Y005158D01*
X009229Y005201D01*
G37*
G36*
X009186Y005159D02*
X009397Y004948D01*
X009354Y004905D01*
X009143Y005116D01*
X009186Y005159D01*
G37*
G36*
X008592Y005922D02*
X008803Y005711D01*
X008760Y005668D01*
X008549Y005879D01*
X008592Y005922D01*
G37*
G36*
X008635Y006050D02*
X008846Y005839D01*
X008803Y005796D01*
X008592Y006007D01*
X008635Y006050D01*
G37*
G36*
X008720Y006135D02*
X008931Y005924D01*
X008888Y005881D01*
X008677Y006092D01*
X008720Y006135D01*
G37*
G36*
X008762Y006177D02*
X008973Y005966D01*
X008930Y005923D01*
X008719Y006134D01*
X008762Y006177D01*
G37*
G36*
X008804Y006389D02*
X009015Y006178D01*
X008972Y006135D01*
X008761Y006346D01*
X008804Y006389D01*
G37*
G36*
X008804Y006559D02*
X009015Y006348D01*
X008972Y006305D01*
X008761Y006516D01*
X008804Y006559D01*
G37*
G36*
X008804Y006644D02*
X009015Y006433D01*
X008972Y006390D01*
X008761Y006601D01*
X008804Y006644D01*
G37*
G36*
X008550Y005880D02*
X008761Y005669D01*
X008718Y005626D01*
X008507Y005837D01*
X008550Y005880D01*
G37*
G36*
X008465Y005880D02*
X008676Y005669D01*
X008633Y005626D01*
X008422Y005837D01*
X008465Y005880D01*
G37*
G36*
X009865Y004480D02*
X010076Y004269D01*
X010033Y004226D01*
X009822Y004437D01*
X009865Y004480D01*
G37*
G36*
X009823Y004438D02*
X010034Y004227D01*
X009991Y004184D01*
X009780Y004395D01*
X009823Y004438D01*
G37*
D14*
G36*
X009864Y004565D02*
X010118Y004311D01*
X010076Y004269D01*
X009822Y004523D01*
X009864Y004565D01*
G37*
G36*
X009864Y004649D02*
X010118Y004395D01*
X010076Y004353D01*
X009822Y004607D01*
X009864Y004649D01*
G37*
G36*
X009907Y004777D02*
X010161Y004523D01*
X010119Y004481D01*
X009865Y004735D01*
X009907Y004777D01*
G37*
G36*
X009907Y004862D02*
X010161Y004608D01*
X010119Y004566D01*
X009865Y004820D01*
X009907Y004862D01*
G37*
G36*
X011010Y005286D02*
X011264Y005032D01*
X011222Y004990D01*
X010968Y005244D01*
X011010Y005286D01*
G37*
G36*
X011660Y007025D02*
X011914Y006771D01*
X011872Y006729D01*
X011618Y006983D01*
X011660Y007025D01*
G37*
G36*
X012042Y007237D02*
X012296Y006983D01*
X012254Y006941D01*
X012000Y007195D01*
X012042Y007237D01*
G37*
G36*
X011448Y007747D02*
X011702Y007493D01*
X011660Y007451D01*
X011406Y007705D01*
X011448Y007747D01*
G37*
G36*
X011533Y008680D02*
X011787Y008426D01*
X011745Y008384D01*
X011491Y008638D01*
X011533Y008680D01*
G37*
G36*
X010685Y008680D02*
X010939Y008426D01*
X010897Y008384D01*
X010643Y008638D01*
X010685Y008680D01*
G37*
G36*
X010472Y008468D02*
X010726Y008214D01*
X010684Y008172D01*
X010430Y008426D01*
X010472Y008468D01*
G37*
G36*
X010260Y008341D02*
X010514Y008087D01*
X010472Y008045D01*
X010218Y008299D01*
X010260Y008341D01*
G37*
G36*
X010091Y009104D02*
X010345Y008850D01*
X010303Y008808D01*
X010049Y009062D01*
X010091Y009104D01*
G37*
G36*
X010133Y009401D02*
X010387Y009147D01*
X010345Y009105D01*
X010091Y009359D01*
X010133Y009401D01*
G37*
G36*
X010133Y009571D02*
X010387Y009317D01*
X010345Y009275D01*
X010091Y009529D01*
X010133Y009571D01*
G37*
G36*
X010175Y009783D02*
X010429Y009529D01*
X010387Y009487D01*
X010133Y009741D01*
X010175Y009783D01*
G37*
G36*
X010175Y009953D02*
X010429Y009699D01*
X010387Y009657D01*
X010133Y009911D01*
X010175Y009953D01*
G37*
G36*
X010175Y009868D02*
X010429Y009614D01*
X010387Y009572D01*
X010133Y009826D01*
X010175Y009868D01*
G37*
G36*
X010133Y009486D02*
X010387Y009232D01*
X010345Y009190D01*
X010091Y009444D01*
X010133Y009486D01*
G37*
G36*
X009709Y009401D02*
X009963Y009147D01*
X009921Y009105D01*
X009667Y009359D01*
X009709Y009401D01*
G37*
G36*
X009624Y009825D02*
X009878Y009571D01*
X009836Y009529D01*
X009582Y009783D01*
X009624Y009825D01*
G37*
G36*
X009624Y009995D02*
X009878Y009741D01*
X009836Y009699D01*
X009582Y009953D01*
X009624Y009995D01*
G37*
G36*
X009624Y010080D02*
X009878Y009826D01*
X009836Y009784D01*
X009582Y010038D01*
X009624Y010080D01*
G37*
G36*
X009624Y009910D02*
X009878Y009656D01*
X009836Y009614D01*
X009582Y009868D01*
X009624Y009910D01*
G37*
G36*
X009242Y009104D02*
X009496Y008850D01*
X009454Y008808D01*
X009200Y009062D01*
X009242Y009104D01*
G37*
G36*
X009242Y009019D02*
X009496Y008765D01*
X009454Y008723D01*
X009200Y008977D01*
X009242Y009019D01*
G37*
G36*
X009200Y008977D02*
X009454Y008723D01*
X009412Y008681D01*
X009158Y008935D01*
X009200Y008977D01*
G37*
G36*
X009200Y008892D02*
X009454Y008638D01*
X009412Y008596D01*
X009158Y008850D01*
X009200Y008892D01*
G37*
G36*
X007446Y008171D02*
X007700Y007917D01*
X007658Y007875D01*
X007404Y008129D01*
X007446Y008171D01*
G37*
G36*
X007446Y008086D02*
X007700Y007832D01*
X007658Y007790D01*
X007404Y008044D01*
X007446Y008086D01*
G37*
G36*
X007404Y008044D02*
X007658Y007790D01*
X007616Y007748D01*
X007362Y008002D01*
X007404Y008044D01*
G37*
G36*
X007404Y007959D02*
X007658Y007705D01*
X007616Y007663D01*
X007362Y007917D01*
X007404Y007959D01*
G37*
G36*
X006894Y008044D02*
X007148Y007790D01*
X007106Y007748D01*
X006852Y008002D01*
X006894Y008044D01*
G37*
G36*
X006894Y007959D02*
X007148Y007705D01*
X007106Y007663D01*
X006852Y007917D01*
X006894Y007959D01*
G37*
G36*
X006852Y007916D02*
X007106Y007662D01*
X007064Y007620D01*
X006810Y007874D01*
X006852Y007916D01*
G37*
G36*
X006852Y007831D02*
X007106Y007577D01*
X007064Y007535D01*
X006810Y007789D01*
X006852Y007831D01*
G37*
G36*
X006428Y007662D02*
X006682Y007408D01*
X006640Y007366D01*
X006386Y007620D01*
X006428Y007662D01*
G37*
G36*
X006470Y008383D02*
X006724Y008129D01*
X006682Y008087D01*
X006428Y008341D01*
X006470Y008383D01*
G37*
G36*
X006513Y008510D02*
X006767Y008256D01*
X006725Y008214D01*
X006471Y008468D01*
X006513Y008510D01*
G37*
G36*
X006555Y008637D02*
X006809Y008383D01*
X006767Y008341D01*
X006513Y008595D01*
X006555Y008637D01*
G37*
G36*
X006173Y008934D02*
X006427Y008680D01*
X006385Y008638D01*
X006131Y008892D01*
X006173Y008934D01*
G37*
G36*
X006173Y009019D02*
X006427Y008765D01*
X006385Y008723D01*
X006131Y008977D01*
X006173Y009019D01*
G37*
G36*
X005749Y009274D02*
X006003Y009020D01*
X005961Y008978D01*
X005707Y009232D01*
X005749Y009274D01*
G37*
G36*
X005664Y009104D02*
X005918Y008850D01*
X005876Y008808D01*
X005622Y009062D01*
X005664Y009104D01*
G37*
G36*
X005325Y010292D02*
X005579Y010038D01*
X005537Y009996D01*
X005283Y010250D01*
X005325Y010292D01*
G37*
G36*
X004688Y010674D02*
X004942Y010420D01*
X004900Y010378D01*
X004646Y010632D01*
X004688Y010674D01*
G37*
G36*
X004731Y010886D02*
X004985Y010632D01*
X004943Y010590D01*
X004689Y010844D01*
X004731Y010886D01*
G37*
G36*
X004731Y011056D02*
X004985Y010802D01*
X004943Y010760D01*
X004689Y011014D01*
X004731Y011056D01*
G37*
G36*
X004773Y011183D02*
X005027Y010929D01*
X004985Y010887D01*
X004731Y011141D01*
X004773Y011183D01*
G37*
G36*
X004773Y011353D02*
X005027Y011099D01*
X004985Y011057D01*
X004731Y011311D01*
X004773Y011353D01*
G37*
G36*
X004773Y011438D02*
X005027Y011184D01*
X004985Y011142D01*
X004731Y011396D01*
X004773Y011438D01*
G37*
G36*
X004816Y011565D02*
X005070Y011311D01*
X005028Y011269D01*
X004774Y011523D01*
X004816Y011565D01*
G37*
G36*
X004816Y011735D02*
X005070Y011481D01*
X005028Y011439D01*
X004774Y011693D01*
X004816Y011735D01*
G37*
G36*
X004816Y011819D02*
X005070Y011565D01*
X005028Y011523D01*
X004774Y011777D01*
X004816Y011819D01*
G37*
G36*
X004816Y011650D02*
X005070Y011396D01*
X005028Y011354D01*
X004774Y011608D01*
X004816Y011650D01*
G37*
G36*
X004773Y011268D02*
X005027Y011014D01*
X004985Y010972D01*
X004731Y011226D01*
X004773Y011268D01*
G37*
G36*
X004731Y010971D02*
X004985Y010717D01*
X004943Y010675D01*
X004689Y010929D01*
X004731Y010971D01*
G37*
G36*
X004391Y010122D02*
X004645Y009868D01*
X004603Y009826D01*
X004349Y010080D01*
X004391Y010122D01*
G37*
G36*
X003415Y011098D02*
X003669Y010844D01*
X003627Y010802D01*
X003373Y011056D01*
X003415Y011098D01*
G37*
G36*
X003585Y012032D02*
X003839Y011778D01*
X003797Y011736D01*
X003543Y011990D01*
X003585Y012032D01*
G37*
G36*
X004618Y013983D02*
X004872Y013729D01*
X004830Y013687D01*
X004576Y013941D01*
X004618Y013983D01*
G37*
G36*
X004830Y014111D02*
X005084Y013857D01*
X005042Y013815D01*
X004788Y014069D01*
X004830Y014111D01*
G37*
G36*
X005042Y014323D02*
X005296Y014069D01*
X005254Y014027D01*
X005000Y014281D01*
X005042Y014323D01*
G37*
G36*
X005678Y013432D02*
X005932Y013178D01*
X005890Y013136D01*
X005636Y013390D01*
X005678Y013432D01*
G37*
G36*
X005848Y014365D02*
X006102Y014111D01*
X006060Y014069D01*
X005806Y014323D01*
X005848Y014365D01*
G37*
G36*
X004490Y015723D02*
X004744Y015469D01*
X004702Y015427D01*
X004448Y015681D01*
X004490Y015723D01*
G37*
G36*
X003727Y015892D02*
X003981Y015638D01*
X003939Y015596D01*
X003685Y015850D01*
X003727Y015892D01*
G37*
G36*
X003727Y015977D02*
X003981Y015723D01*
X003939Y015681D01*
X003685Y015935D01*
X003727Y015977D01*
G37*
G36*
X003769Y016189D02*
X004023Y015935D01*
X003981Y015893D01*
X003727Y016147D01*
X003769Y016189D01*
G37*
G36*
X003769Y016359D02*
X004023Y016105D01*
X003981Y016063D01*
X003727Y016317D01*
X003769Y016359D01*
G37*
G36*
X003769Y016274D02*
X004023Y016020D01*
X003981Y015978D01*
X003727Y016232D01*
X003769Y016274D01*
G37*
G36*
X003217Y016402D02*
X003471Y016148D01*
X003429Y016106D01*
X003175Y016360D01*
X003217Y016402D01*
G37*
G36*
X003217Y016486D02*
X003471Y016232D01*
X003429Y016190D01*
X003175Y016444D01*
X003217Y016486D01*
G37*
G36*
X003217Y016317D02*
X003471Y016063D01*
X003429Y016021D01*
X003175Y016275D01*
X003217Y016317D01*
G37*
G36*
X003217Y016232D02*
X003471Y015978D01*
X003429Y015936D01*
X003175Y016190D01*
X003217Y016232D01*
G37*
G36*
X003302Y015808D02*
X003556Y015554D01*
X003514Y015512D01*
X003260Y015766D01*
X003302Y015808D01*
G37*
G36*
X002836Y015511D02*
X003090Y015257D01*
X003048Y015215D01*
X002794Y015469D01*
X002836Y015511D01*
G37*
G36*
X002836Y015426D02*
X003090Y015172D01*
X003048Y015130D01*
X002794Y015384D01*
X002836Y015426D01*
G37*
G36*
X002793Y015383D02*
X003047Y015129D01*
X003005Y015087D01*
X002751Y015341D01*
X002793Y015383D01*
G37*
G36*
X002793Y015298D02*
X003047Y015044D01*
X003005Y015002D01*
X002751Y015256D01*
X002793Y015298D01*
G37*
G36*
X003684Y015511D02*
X003938Y015257D01*
X003896Y015215D01*
X003642Y015469D01*
X003684Y015511D01*
G37*
G36*
X003727Y015808D02*
X003981Y015554D01*
X003939Y015512D01*
X003685Y015766D01*
X003727Y015808D01*
G37*
G36*
X006018Y012668D02*
X006272Y012414D01*
X006230Y012372D01*
X005976Y012626D01*
X006018Y012668D01*
G37*
G36*
X006399Y012880D02*
X006653Y012626D01*
X006611Y012584D01*
X006357Y012838D01*
X006399Y012880D01*
G37*
G36*
X006951Y012668D02*
X007205Y012414D01*
X007163Y012372D01*
X006909Y012626D01*
X006951Y012668D01*
G37*
G36*
X006951Y012583D02*
X007205Y012329D01*
X007163Y012287D01*
X006909Y012541D01*
X006951Y012583D01*
G37*
G36*
X006527Y012244D02*
X006781Y011990D01*
X006739Y011948D01*
X006485Y012202D01*
X006527Y012244D01*
G37*
G36*
X008351Y011607D02*
X008605Y011353D01*
X008563Y011311D01*
X008309Y011565D01*
X008351Y011607D01*
G37*
G36*
X009115Y011862D02*
X009369Y011608D01*
X009327Y011566D01*
X009073Y011820D01*
X009115Y011862D01*
G37*
G36*
X007361Y007662D02*
X007615Y007408D01*
X007573Y007366D01*
X007319Y007620D01*
X007361Y007662D01*
G37*
G36*
X007361Y007577D02*
X007615Y007323D01*
X007573Y007281D01*
X007319Y007535D01*
X007361Y007577D01*
G37*
G36*
X007319Y007280D02*
X007573Y007026D01*
X007531Y006984D01*
X007277Y007238D01*
X007319Y007280D01*
G37*
G36*
X006937Y007237D02*
X007191Y006983D01*
X007149Y006941D01*
X006895Y007195D01*
X006937Y007237D01*
G37*
G36*
X007488Y006516D02*
X007742Y006262D01*
X007700Y006220D01*
X007446Y006474D01*
X007488Y006516D01*
G37*
G36*
X007701Y006643D02*
X007955Y006389D01*
X007913Y006347D01*
X007659Y006601D01*
X007701Y006643D01*
G37*
G36*
X007913Y006856D02*
X008167Y006602D01*
X008125Y006560D01*
X007871Y006814D01*
X007913Y006856D01*
G37*
G36*
X008676Y007025D02*
X008930Y006771D01*
X008888Y006729D01*
X008634Y006983D01*
X008676Y007025D01*
G37*
G36*
X009567Y006643D02*
X009821Y006389D01*
X009779Y006347D01*
X009525Y006601D01*
X009567Y006643D01*
G37*
G36*
X009864Y007025D02*
X010118Y006771D01*
X010076Y006729D01*
X009822Y006983D01*
X009864Y007025D01*
G37*
G36*
X012169Y006601D02*
X012423Y006347D01*
X012381Y006305D01*
X012127Y006559D01*
X012169Y006601D01*
G37*
G36*
X012594Y006940D02*
X012848Y006686D01*
X012806Y006644D01*
X012552Y006898D01*
X012594Y006940D01*
G37*
G36*
X012594Y007025D02*
X012848Y006771D01*
X012806Y006729D01*
X012552Y006983D01*
X012594Y007025D01*
G37*
G36*
X013060Y005710D02*
X013314Y005456D01*
X013272Y005414D01*
X013018Y005668D01*
X013060Y005710D01*
G37*
D15*
G36*
X012467Y006558D02*
X012593Y006432D01*
X012551Y006390D01*
X012425Y006516D01*
X012467Y006558D01*
G37*
G36*
X012170Y006940D02*
X012296Y006814D01*
X012254Y006772D01*
X012128Y006898D01*
X012170Y006940D01*
G37*
G36*
X012170Y007025D02*
X012296Y006899D01*
X012254Y006857D01*
X012128Y006983D01*
X012170Y007025D01*
G37*
G36*
X012000Y007195D02*
X012126Y007069D01*
X012084Y007027D01*
X011958Y007153D01*
X012000Y007195D01*
G37*
G36*
X011958Y007152D02*
X012084Y007026D01*
X012042Y006984D01*
X011916Y007110D01*
X011958Y007152D01*
G37*
G36*
X011661Y007364D02*
X011787Y007238D01*
X011745Y007196D01*
X011619Y007322D01*
X011661Y007364D01*
G37*
G36*
X011194Y008170D02*
X011320Y008044D01*
X011278Y008002D01*
X011152Y008128D01*
X011194Y008170D01*
G37*
G36*
X010897Y008128D02*
X011023Y008002D01*
X010981Y007960D01*
X010855Y008086D01*
X010897Y008128D01*
G37*
G36*
X010855Y008340D02*
X010981Y008214D01*
X010939Y008172D01*
X010813Y008298D01*
X010855Y008340D01*
G37*
G36*
X010855Y008425D02*
X010981Y008299D01*
X010939Y008257D01*
X010813Y008383D01*
X010855Y008425D01*
G37*
G36*
X010685Y008595D02*
X010811Y008469D01*
X010769Y008427D01*
X010643Y008553D01*
X010685Y008595D01*
G37*
G36*
X010812Y008892D02*
X010938Y008766D01*
X010896Y008724D01*
X010770Y008850D01*
X010812Y008892D01*
G37*
G36*
X010855Y009019D02*
X010981Y008893D01*
X010939Y008851D01*
X010813Y008977D01*
X010855Y009019D01*
G37*
G36*
X010855Y009104D02*
X010981Y008978D01*
X010939Y008936D01*
X010813Y009062D01*
X010855Y009104D01*
G37*
G36*
X010218Y008807D02*
X010344Y008681D01*
X010302Y008639D01*
X010176Y008765D01*
X010218Y008807D01*
G37*
G36*
X009454Y009146D02*
X009580Y009020D01*
X009538Y008978D01*
X009412Y009104D01*
X009454Y009146D01*
G37*
G36*
X009454Y009231D02*
X009580Y009105D01*
X009538Y009063D01*
X009412Y009189D01*
X009454Y009231D01*
G37*
G36*
X009497Y009358D02*
X009623Y009232D01*
X009581Y009190D01*
X009455Y009316D01*
X009497Y009358D01*
G37*
G36*
X009497Y009443D02*
X009623Y009317D01*
X009581Y009275D01*
X009455Y009401D01*
X009497Y009443D01*
G37*
G36*
X009539Y009486D02*
X009665Y009360D01*
X009623Y009318D01*
X009497Y009444D01*
X009539Y009486D01*
G37*
G36*
X009539Y009571D02*
X009665Y009445D01*
X009623Y009403D01*
X009497Y009529D01*
X009539Y009571D01*
G37*
G36*
X009242Y009443D02*
X009368Y009317D01*
X009326Y009275D01*
X009200Y009401D01*
X009242Y009443D01*
G37*
G36*
X009242Y009358D02*
X009368Y009232D01*
X009326Y009190D01*
X009200Y009316D01*
X009242Y009358D01*
G37*
G36*
X009242Y009274D02*
X009368Y009148D01*
X009326Y009106D01*
X009200Y009232D01*
X009242Y009274D01*
G37*
G36*
X009412Y009104D02*
X009538Y008978D01*
X009496Y008936D01*
X009370Y009062D01*
X009412Y009104D01*
G37*
G36*
X009752Y010292D02*
X009878Y010166D01*
X009836Y010124D01*
X009710Y010250D01*
X009752Y010292D01*
G37*
G36*
X009794Y010334D02*
X009920Y010208D01*
X009878Y010166D01*
X009752Y010292D01*
X009794Y010334D01*
G37*
G36*
X010303Y009995D02*
X010429Y009869D01*
X010387Y009827D01*
X010261Y009953D01*
X010303Y009995D01*
G37*
G36*
X011703Y008764D02*
X011829Y008638D01*
X011787Y008596D01*
X011661Y008722D01*
X011703Y008764D01*
G37*
G36*
X011661Y008298D02*
X011787Y008172D01*
X011745Y008130D01*
X011619Y008256D01*
X011661Y008298D01*
G37*
G36*
X011661Y008213D02*
X011787Y008087D01*
X011745Y008045D01*
X011619Y008171D01*
X011661Y008213D01*
G37*
G36*
X012255Y007704D02*
X012381Y007578D01*
X012339Y007536D01*
X012213Y007662D01*
X012255Y007704D01*
G37*
G36*
X013485Y006643D02*
X013611Y006517D01*
X013569Y006475D01*
X013443Y006601D01*
X013485Y006643D01*
G37*
G36*
X013527Y006855D02*
X013653Y006729D01*
X013611Y006687D01*
X013485Y006813D01*
X013527Y006855D01*
G37*
G36*
X013570Y007067D02*
X013696Y006941D01*
X013654Y006899D01*
X013528Y007025D01*
X013570Y007067D01*
G37*
G36*
X013612Y007280D02*
X013738Y007154D01*
X013696Y007112D01*
X013570Y007238D01*
X013612Y007280D01*
G37*
G36*
X013612Y007364D02*
X013738Y007238D01*
X013696Y007196D01*
X013570Y007322D01*
X013612Y007364D01*
G37*
G36*
X013655Y007492D02*
X013781Y007366D01*
X013739Y007324D01*
X013613Y007450D01*
X013655Y007492D01*
G37*
G36*
X013655Y007576D02*
X013781Y007450D01*
X013739Y007408D01*
X013613Y007534D01*
X013655Y007576D01*
G37*
G36*
X013655Y007661D02*
X013781Y007535D01*
X013739Y007493D01*
X013613Y007619D01*
X013655Y007661D01*
G37*
G36*
X013697Y007704D02*
X013823Y007578D01*
X013781Y007536D01*
X013655Y007662D01*
X013697Y007704D01*
G37*
G36*
X014121Y007110D02*
X014247Y006984D01*
X014205Y006942D01*
X014079Y007068D01*
X014121Y007110D01*
G37*
G36*
X014079Y007067D02*
X014205Y006941D01*
X014163Y006899D01*
X014037Y007025D01*
X014079Y007067D01*
G37*
G36*
X014079Y006983D02*
X014205Y006857D01*
X014163Y006815D01*
X014037Y006941D01*
X014079Y006983D01*
G37*
G36*
X013994Y006389D02*
X014120Y006263D01*
X014078Y006221D01*
X013952Y006347D01*
X013994Y006389D01*
G37*
G36*
X013994Y006304D02*
X014120Y006178D01*
X014078Y006136D01*
X013952Y006262D01*
X013994Y006304D01*
G37*
G36*
X015012Y005455D02*
X015138Y005329D01*
X015096Y005287D01*
X014970Y005413D01*
X015012Y005455D01*
G37*
G36*
X013824Y004861D02*
X013950Y004735D01*
X013908Y004693D01*
X013782Y004819D01*
X013824Y004861D01*
G37*
G36*
X013782Y004819D02*
X013908Y004693D01*
X013866Y004651D01*
X013740Y004777D01*
X013782Y004819D01*
G37*
G36*
X010416Y005964D02*
X010542Y005838D01*
X010500Y005796D01*
X010374Y005922D01*
X010416Y005964D01*
G37*
G36*
X010416Y006049D02*
X010542Y005923D01*
X010500Y005881D01*
X010374Y006007D01*
X010416Y006049D01*
G37*
G36*
X010459Y006092D02*
X010585Y005966D01*
X010543Y005924D01*
X010417Y006050D01*
X010459Y006092D01*
G37*
G36*
X010374Y005922D02*
X010500Y005796D01*
X010458Y005754D01*
X010332Y005880D01*
X010374Y005922D01*
G37*
G36*
X010374Y005837D02*
X010500Y005711D01*
X010458Y005669D01*
X010332Y005795D01*
X010374Y005837D01*
G37*
G36*
X010331Y005795D02*
X010457Y005669D01*
X010415Y005627D01*
X010289Y005753D01*
X010331Y005795D01*
G37*
G36*
X010331Y005710D02*
X010457Y005584D01*
X010415Y005542D01*
X010289Y005668D01*
X010331Y005710D01*
G37*
G36*
X010289Y005582D02*
X010415Y005456D01*
X010373Y005414D01*
X010247Y005540D01*
X010289Y005582D01*
G37*
G36*
X010246Y005455D02*
X010372Y005329D01*
X010330Y005287D01*
X010204Y005413D01*
X010246Y005455D01*
G37*
G36*
X010204Y005328D02*
X010330Y005202D01*
X010288Y005160D01*
X010162Y005286D01*
X010204Y005328D01*
G37*
G36*
X010204Y005243D02*
X010330Y005117D01*
X010288Y005075D01*
X010162Y005201D01*
X010204Y005243D01*
G37*
G36*
X010162Y005116D02*
X010288Y004990D01*
X010246Y004948D01*
X010120Y005074D01*
X010162Y005116D01*
G37*
G36*
X009949Y005158D02*
X010075Y005032D01*
X010033Y004990D01*
X009907Y005116D01*
X009949Y005158D01*
G37*
G36*
X009949Y005243D02*
X010075Y005117D01*
X010033Y005075D01*
X009907Y005201D01*
X009949Y005243D01*
G37*
G36*
X009949Y005328D02*
X010075Y005202D01*
X010033Y005160D01*
X009907Y005286D01*
X009949Y005328D01*
G37*
G36*
X009992Y005540D02*
X010118Y005414D01*
X010076Y005372D01*
X009950Y005498D01*
X009992Y005540D01*
G37*
G36*
X009992Y005625D02*
X010118Y005499D01*
X010076Y005457D01*
X009950Y005583D01*
X009992Y005625D01*
G37*
G36*
X009992Y005710D02*
X010118Y005584D01*
X010076Y005542D01*
X009950Y005668D01*
X009992Y005710D01*
G37*
G36*
X009992Y005795D02*
X010118Y005669D01*
X010076Y005627D01*
X009950Y005753D01*
X009992Y005795D01*
G37*
G36*
X009992Y005879D02*
X010118Y005753D01*
X010076Y005711D01*
X009950Y005837D01*
X009992Y005879D01*
G37*
G36*
X009992Y005964D02*
X010118Y005838D01*
X010076Y005796D01*
X009950Y005922D01*
X009992Y005964D01*
G37*
G36*
X009992Y006049D02*
X010118Y005923D01*
X010076Y005881D01*
X009950Y006007D01*
X009992Y006049D01*
G37*
G36*
X009992Y006134D02*
X010118Y006008D01*
X010076Y005966D01*
X009950Y006092D01*
X009992Y006134D01*
G37*
G36*
X009992Y006219D02*
X010118Y006093D01*
X010076Y006051D01*
X009950Y006177D01*
X009992Y006219D01*
G37*
G36*
X009949Y007025D02*
X010075Y006899D01*
X010033Y006857D01*
X009907Y006983D01*
X009949Y007025D01*
G37*
G36*
X008549Y006898D02*
X008675Y006772D01*
X008633Y006730D01*
X008507Y006856D01*
X008549Y006898D01*
G37*
G36*
X008507Y006855D02*
X008633Y006729D01*
X008591Y006687D01*
X008465Y006813D01*
X008507Y006855D01*
G37*
G36*
X008507Y006770D02*
X008633Y006644D01*
X008591Y006602D01*
X008465Y006728D01*
X008507Y006770D01*
G37*
G36*
X008507Y006686D02*
X008633Y006560D01*
X008591Y006518D01*
X008465Y006644D01*
X008507Y006686D01*
G37*
G36*
X008507Y006601D02*
X008633Y006475D01*
X008591Y006433D01*
X008465Y006559D01*
X008507Y006601D01*
G37*
G36*
X008507Y006516D02*
X008633Y006390D01*
X008591Y006348D01*
X008465Y006474D01*
X008507Y006516D01*
G37*
G36*
X008507Y006431D02*
X008633Y006305D01*
X008591Y006263D01*
X008465Y006389D01*
X008507Y006431D01*
G37*
G36*
X008549Y006304D02*
X008675Y006178D01*
X008633Y006136D01*
X008507Y006262D01*
X008549Y006304D01*
G37*
G36*
X008083Y006346D02*
X008209Y006220D01*
X008167Y006178D01*
X008041Y006304D01*
X008083Y006346D01*
G37*
G36*
X008083Y006261D02*
X008209Y006135D01*
X008167Y006093D01*
X008041Y006219D01*
X008083Y006261D01*
G37*
G36*
X007913Y006770D02*
X008039Y006644D01*
X007997Y006602D01*
X007871Y006728D01*
X007913Y006770D01*
G37*
G36*
X008040Y007067D02*
X008166Y006941D01*
X008124Y006899D01*
X007998Y007025D01*
X008040Y007067D01*
G37*
G36*
X008083Y007195D02*
X008209Y007069D01*
X008167Y007027D01*
X008041Y007153D01*
X008083Y007195D01*
G37*
G36*
X008083Y007280D02*
X008209Y007154D01*
X008167Y007112D01*
X008041Y007238D01*
X008083Y007280D01*
G37*
G36*
X007446Y006983D02*
X007572Y006857D01*
X007530Y006815D01*
X007404Y006941D01*
X007446Y006983D01*
G37*
G36*
X007192Y007152D02*
X007318Y007026D01*
X007276Y006984D01*
X007150Y007110D01*
X007192Y007152D01*
G37*
G36*
X006767Y007746D02*
X006893Y007620D01*
X006851Y007578D01*
X006725Y007704D01*
X006767Y007746D01*
G37*
G36*
X006725Y007704D02*
X006851Y007578D01*
X006809Y007536D01*
X006683Y007662D01*
X006725Y007704D01*
G37*
G36*
X006683Y007661D02*
X006809Y007535D01*
X006767Y007493D01*
X006641Y007619D01*
X006683Y007661D01*
G37*
G36*
X007064Y008383D02*
X007190Y008257D01*
X007148Y008215D01*
X007022Y008341D01*
X007064Y008383D01*
G37*
G36*
X007064Y008467D02*
X007190Y008341D01*
X007148Y008299D01*
X007022Y008425D01*
X007064Y008467D01*
G37*
G36*
X007107Y008510D02*
X007233Y008384D01*
X007191Y008342D01*
X007065Y008468D01*
X007107Y008510D01*
G37*
G36*
X006725Y008807D02*
X006851Y008681D01*
X006809Y008639D01*
X006683Y008765D01*
X006725Y008807D01*
G37*
G36*
X006004Y008425D02*
X006130Y008299D01*
X006088Y008257D01*
X005962Y008383D01*
X006004Y008425D01*
G37*
G36*
X005961Y008383D02*
X006087Y008257D01*
X006045Y008215D01*
X005919Y008341D01*
X005961Y008383D01*
G37*
G36*
X005410Y009274D02*
X005536Y009148D01*
X005494Y009106D01*
X005368Y009232D01*
X005410Y009274D01*
G37*
G36*
X005452Y009571D02*
X005578Y009445D01*
X005536Y009403D01*
X005410Y009529D01*
X005452Y009571D01*
G37*
G36*
X005664Y009952D02*
X005790Y009826D01*
X005748Y009784D01*
X005622Y009910D01*
X005664Y009952D01*
G37*
G36*
X005113Y009995D02*
X005239Y009869D01*
X005197Y009827D01*
X005071Y009953D01*
X005113Y009995D01*
G37*
G36*
X005113Y009910D02*
X005239Y009784D01*
X005197Y009742D01*
X005071Y009868D01*
X005113Y009910D01*
G37*
G36*
X005113Y009825D02*
X005239Y009699D01*
X005197Y009657D01*
X005071Y009783D01*
X005113Y009825D01*
G37*
G36*
X005113Y009740D02*
X005239Y009614D01*
X005197Y009572D01*
X005071Y009698D01*
X005113Y009740D01*
G37*
G36*
X005070Y009698D02*
X005196Y009572D01*
X005154Y009530D01*
X005028Y009656D01*
X005070Y009698D01*
G37*
G36*
X005070Y009613D02*
X005196Y009487D01*
X005154Y009445D01*
X005028Y009571D01*
X005070Y009613D01*
G37*
G36*
X005028Y009571D02*
X005154Y009445D01*
X005112Y009403D01*
X004986Y009529D01*
X005028Y009571D01*
G37*
G36*
X004689Y009825D02*
X004815Y009699D01*
X004773Y009657D01*
X004647Y009783D01*
X004689Y009825D01*
G37*
G36*
X004646Y010122D02*
X004772Y009996D01*
X004730Y009954D01*
X004604Y010080D01*
X004646Y010122D01*
G37*
G36*
X004646Y010207D02*
X004772Y010081D01*
X004730Y010039D01*
X004604Y010165D01*
X004646Y010207D01*
G37*
G36*
X004689Y010249D02*
X004815Y010123D01*
X004773Y010081D01*
X004647Y010207D01*
X004689Y010249D01*
G37*
G36*
X004392Y010377D02*
X004518Y010251D01*
X004476Y010209D01*
X004350Y010335D01*
X004392Y010377D01*
G37*
G36*
X004095Y010589D02*
X004221Y010463D01*
X004179Y010421D01*
X004053Y010547D01*
X004095Y010589D01*
G37*
G36*
X004095Y010674D02*
X004221Y010548D01*
X004179Y010506D01*
X004053Y010632D01*
X004095Y010674D01*
G37*
G36*
X004095Y010758D02*
X004221Y010632D01*
X004179Y010590D01*
X004053Y010716D01*
X004095Y010758D01*
G37*
G36*
X004095Y010843D02*
X004221Y010717D01*
X004179Y010675D01*
X004053Y010801D01*
X004095Y010843D01*
G37*
G36*
X004095Y010928D02*
X004221Y010802D01*
X004179Y010760D01*
X004053Y010886D01*
X004095Y010928D01*
G37*
G36*
X004095Y011013D02*
X004221Y010887D01*
X004179Y010845D01*
X004053Y010971D01*
X004095Y011013D01*
G37*
G36*
X004095Y011098D02*
X004221Y010972D01*
X004179Y010930D01*
X004053Y011056D01*
X004095Y011098D01*
G37*
G36*
X004137Y011140D02*
X004263Y011014D01*
X004221Y010972D01*
X004095Y011098D01*
X004137Y011140D01*
G37*
G36*
X004349Y011352D02*
X004475Y011226D01*
X004433Y011184D01*
X004307Y011310D01*
X004349Y011352D01*
G37*
G36*
X004392Y010886D02*
X004518Y010760D01*
X004476Y010718D01*
X004350Y010844D01*
X004392Y010886D01*
G37*
G36*
X004392Y010801D02*
X004518Y010675D01*
X004476Y010633D01*
X004350Y010759D01*
X004392Y010801D01*
G37*
G36*
X003713Y010716D02*
X003839Y010590D01*
X003797Y010548D01*
X003671Y010674D01*
X003713Y010716D01*
G37*
G36*
X003713Y010631D02*
X003839Y010505D01*
X003797Y010463D01*
X003671Y010589D01*
X003713Y010631D01*
G37*
G36*
X003713Y011565D02*
X003839Y011439D01*
X003797Y011397D01*
X003671Y011523D01*
X003713Y011565D01*
G37*
G36*
X003713Y011649D02*
X003839Y011523D01*
X003797Y011481D01*
X003671Y011607D01*
X003713Y011649D01*
G37*
G36*
X003755Y012116D02*
X003881Y011990D01*
X003839Y011948D01*
X003713Y012074D01*
X003755Y012116D01*
G37*
G36*
X003246Y011522D02*
X003372Y011396D01*
X003330Y011354D01*
X003204Y011480D01*
X003246Y011522D01*
G37*
G36*
X002949Y011480D02*
X003075Y011354D01*
X003033Y011312D01*
X002907Y011438D01*
X002949Y011480D01*
G37*
G36*
X004349Y009825D02*
X004475Y009699D01*
X004433Y009657D01*
X004307Y009783D01*
X004349Y009825D01*
G37*
G36*
X004943Y012116D02*
X005069Y011990D01*
X005027Y011948D01*
X004901Y012074D01*
X004943Y012116D01*
G37*
G36*
X006018Y013007D02*
X006144Y012881D01*
X006102Y012839D01*
X005976Y012965D01*
X006018Y013007D01*
G37*
G36*
X006315Y012795D02*
X006441Y012669D01*
X006399Y012627D01*
X006273Y012753D01*
X006315Y012795D01*
G37*
G36*
X006357Y012837D02*
X006483Y012711D01*
X006441Y012669D01*
X006315Y012795D01*
X006357Y012837D01*
G37*
G36*
X006527Y012668D02*
X006653Y012542D01*
X006611Y012500D01*
X006485Y012626D01*
X006527Y012668D01*
G37*
G36*
X006527Y012583D02*
X006653Y012457D01*
X006611Y012415D01*
X006485Y012541D01*
X006527Y012583D01*
G37*
G36*
X006824Y012201D02*
X006950Y012075D01*
X006908Y012033D01*
X006782Y012159D01*
X006824Y012201D01*
G37*
G36*
X007588Y012795D02*
X007714Y012669D01*
X007672Y012627D01*
X007546Y012753D01*
X007588Y012795D01*
G37*
G36*
X007630Y012922D02*
X007756Y012796D01*
X007714Y012754D01*
X007588Y012880D01*
X007630Y012922D01*
G37*
G36*
X007673Y012965D02*
X007799Y012839D01*
X007757Y012797D01*
X007631Y012923D01*
X007673Y012965D01*
G37*
G36*
X007715Y013007D02*
X007841Y012881D01*
X007799Y012839D01*
X007673Y012965D01*
X007715Y013007D01*
G37*
G36*
X007757Y013049D02*
X007883Y012923D01*
X007841Y012881D01*
X007715Y013007D01*
X007757Y013049D01*
G37*
G36*
X007800Y013092D02*
X007926Y012966D01*
X007884Y012924D01*
X007758Y013050D01*
X007800Y013092D01*
G37*
G36*
X008564Y012498D02*
X008690Y012372D01*
X008648Y012330D01*
X008522Y012456D01*
X008564Y012498D01*
G37*
G36*
X008521Y012371D02*
X008647Y012245D01*
X008605Y012203D01*
X008479Y012329D01*
X008521Y012371D01*
G37*
G36*
X008521Y012286D02*
X008647Y012160D01*
X008605Y012118D01*
X008479Y012244D01*
X008521Y012286D01*
G37*
G36*
X008479Y012243D02*
X008605Y012117D01*
X008563Y012075D01*
X008437Y012201D01*
X008479Y012243D01*
G37*
G36*
X008479Y012159D02*
X008605Y012033D01*
X008563Y011991D01*
X008437Y012117D01*
X008479Y012159D01*
G37*
G36*
X008479Y012074D02*
X008605Y011948D01*
X008563Y011906D01*
X008437Y012032D01*
X008479Y012074D01*
G37*
G36*
X008436Y012031D02*
X008562Y011905D01*
X008520Y011863D01*
X008394Y011989D01*
X008436Y012031D01*
G37*
G36*
X008436Y011946D02*
X008562Y011820D01*
X008520Y011778D01*
X008394Y011904D01*
X008436Y011946D01*
G37*
G36*
X008436Y011862D02*
X008562Y011736D01*
X008520Y011694D01*
X008394Y011820D01*
X008436Y011862D01*
G37*
G36*
X008394Y011819D02*
X008520Y011693D01*
X008478Y011651D01*
X008352Y011777D01*
X008394Y011819D01*
G37*
G36*
X008394Y011734D02*
X008520Y011608D01*
X008478Y011566D01*
X008352Y011692D01*
X008394Y011734D01*
G37*
G36*
X008182Y010928D02*
X008308Y010802D01*
X008266Y010760D01*
X008140Y010886D01*
X008182Y010928D01*
G37*
G36*
X008139Y010801D02*
X008265Y010675D01*
X008223Y010633D01*
X008097Y010759D01*
X008139Y010801D01*
G37*
G36*
X007970Y010377D02*
X008096Y010251D01*
X008054Y010209D01*
X007928Y010335D01*
X007970Y010377D01*
G37*
G36*
X007927Y010334D02*
X008053Y010208D01*
X008011Y010166D01*
X007885Y010292D01*
X007927Y010334D01*
G37*
G36*
X007531Y008170D02*
X007657Y008044D01*
X007615Y008002D01*
X007489Y008128D01*
X007531Y008170D01*
G37*
G36*
X008846Y005413D02*
X008972Y005287D01*
X008930Y005245D01*
X008804Y005371D01*
X008846Y005413D01*
G37*
G36*
X009949Y005073D02*
X010075Y004947D01*
X010033Y004905D01*
X009907Y005031D01*
X009949Y005073D01*
G37*
G36*
X010119Y004988D02*
X010245Y004862D01*
X010203Y004820D01*
X010077Y004946D01*
X010119Y004988D01*
G37*
G36*
X009822Y004352D02*
X009948Y004226D01*
X009906Y004184D01*
X009780Y004310D01*
X009822Y004352D01*
G37*
G36*
X006612Y013346D02*
X006738Y013220D01*
X006696Y013178D01*
X006570Y013304D01*
X006612Y013346D01*
G37*
G36*
X005976Y013898D02*
X006102Y013772D01*
X006060Y013730D01*
X005934Y013856D01*
X005976Y013898D01*
G37*
G36*
X005976Y013983D02*
X006102Y013857D01*
X006060Y013815D01*
X005934Y013941D01*
X005976Y013983D01*
G37*
G36*
X006018Y014450D02*
X006144Y014324D01*
X006102Y014282D01*
X005976Y014408D01*
X006018Y014450D01*
G37*
G36*
X005509Y013856D02*
X005635Y013730D01*
X005593Y013688D01*
X005467Y013814D01*
X005509Y013856D01*
G37*
G36*
X005212Y013813D02*
X005338Y013687D01*
X005296Y013645D01*
X005170Y013771D01*
X005212Y013813D01*
G37*
G36*
X005042Y014237D02*
X005168Y014111D01*
X005126Y014069D01*
X005000Y014195D01*
X005042Y014237D01*
G37*
G36*
X005169Y014534D02*
X005295Y014408D01*
X005253Y014366D01*
X005127Y014492D01*
X005169Y014534D01*
G37*
G36*
X005212Y014662D02*
X005338Y014536D01*
X005296Y014494D01*
X005170Y014620D01*
X005212Y014662D01*
G37*
G36*
X005212Y014747D02*
X005338Y014621D01*
X005296Y014579D01*
X005170Y014705D01*
X005212Y014747D01*
G37*
G36*
X004618Y015001D02*
X004744Y014875D01*
X004702Y014833D01*
X004576Y014959D01*
X004618Y015001D01*
G37*
G36*
X004278Y015171D02*
X004404Y015045D01*
X004362Y015003D01*
X004236Y015129D01*
X004278Y015171D01*
G37*
G36*
X004278Y015256D02*
X004404Y015130D01*
X004362Y015088D01*
X004236Y015214D01*
X004278Y015256D01*
G37*
G36*
X004278Y015340D02*
X004404Y015214D01*
X004362Y015172D01*
X004236Y015298D01*
X004278Y015340D01*
G37*
G36*
X004278Y015425D02*
X004404Y015299D01*
X004362Y015257D01*
X004236Y015383D01*
X004278Y015425D01*
G37*
G36*
X004236Y015128D02*
X004362Y015002D01*
X004320Y014960D01*
X004194Y015086D01*
X004236Y015128D01*
G37*
G36*
X004236Y015044D02*
X004362Y014918D01*
X004320Y014876D01*
X004194Y015002D01*
X004236Y015044D01*
G37*
G36*
X004194Y015001D02*
X004320Y014875D01*
X004278Y014833D01*
X004152Y014959D01*
X004194Y015001D01*
G37*
G36*
X003854Y015256D02*
X003980Y015130D01*
X003938Y015088D01*
X003812Y015214D01*
X003854Y015256D01*
G37*
G36*
X003048Y015553D02*
X003174Y015427D01*
X003132Y015385D01*
X003006Y015511D01*
X003048Y015553D01*
G37*
G36*
X003048Y015638D02*
X003174Y015512D01*
X003132Y015470D01*
X003006Y015596D01*
X003048Y015638D01*
G37*
G36*
X003091Y015765D02*
X003217Y015639D01*
X003175Y015597D01*
X003049Y015723D01*
X003091Y015765D01*
G37*
G36*
X003091Y015850D02*
X003217Y015724D01*
X003175Y015682D01*
X003049Y015808D01*
X003091Y015850D01*
G37*
G36*
X003133Y015892D02*
X003259Y015766D01*
X003217Y015724D01*
X003091Y015850D01*
X003133Y015892D01*
G37*
G36*
X003133Y015977D02*
X003259Y015851D01*
X003217Y015809D01*
X003091Y015935D01*
X003133Y015977D01*
G37*
G36*
X002836Y015850D02*
X002962Y015724D01*
X002920Y015682D01*
X002794Y015808D01*
X002836Y015850D01*
G37*
G36*
X002836Y015765D02*
X002962Y015639D01*
X002920Y015597D01*
X002794Y015723D01*
X002836Y015765D01*
G37*
G36*
X002836Y015680D02*
X002962Y015554D01*
X002920Y015512D01*
X002794Y015638D01*
X002836Y015680D01*
G37*
G36*
X003006Y015510D02*
X003132Y015384D01*
X003090Y015342D01*
X002964Y015468D01*
X003006Y015510D01*
G37*
G36*
X003345Y016698D02*
X003471Y016572D01*
X003429Y016530D01*
X003303Y016656D01*
X003345Y016698D01*
G37*
G36*
X003388Y016741D02*
X003514Y016615D01*
X003472Y016573D01*
X003346Y016699D01*
X003388Y016741D01*
G37*
G36*
X003897Y016401D02*
X004023Y016275D01*
X003981Y016233D01*
X003855Y016359D01*
X003897Y016401D01*
G37*
G36*
X004830Y015383D02*
X004956Y015257D01*
X004914Y015215D01*
X004788Y015341D01*
X004830Y015383D01*
G37*
G36*
X004575Y014534D02*
X004701Y014408D01*
X004659Y014366D01*
X004533Y014492D01*
X004575Y014534D01*
G37*
G36*
X004575Y014450D02*
X004701Y014324D01*
X004659Y014282D01*
X004533Y014408D01*
X004575Y014450D01*
G37*
D16*
G36*
X003854Y014916D02*
X004150Y014620D01*
X004108Y014578D01*
X003812Y014874D01*
X003854Y014916D01*
G37*
G36*
X003345Y015510D02*
X003641Y015214D01*
X003599Y015172D01*
X003303Y015468D01*
X003345Y015510D01*
G37*
G36*
X002836Y015595D02*
X003132Y015299D01*
X003090Y015257D01*
X002794Y015553D01*
X002836Y015595D01*
G37*
G36*
X003727Y016062D02*
X004023Y015766D01*
X003981Y015724D01*
X003685Y016020D01*
X003727Y016062D01*
G37*
G36*
X003727Y016147D02*
X004023Y015851D01*
X003981Y015809D01*
X003685Y016105D01*
X003727Y016147D01*
G37*
G36*
X005806Y014322D02*
X006102Y014026D01*
X006060Y013984D01*
X005764Y014280D01*
X005806Y014322D01*
G37*
G36*
X005763Y013431D02*
X006059Y013135D01*
X006017Y013093D01*
X005721Y013389D01*
X005763Y013431D01*
G37*
G36*
X006018Y012753D02*
X006314Y012457D01*
X006272Y012415D01*
X005976Y012711D01*
X006018Y012753D01*
G37*
G36*
X006909Y012880D02*
X007205Y012584D01*
X007163Y012542D01*
X006867Y012838D01*
X006909Y012880D01*
G37*
G36*
X006909Y012795D02*
X007205Y012499D01*
X007163Y012457D01*
X006867Y012753D01*
X006909Y012795D01*
G37*
G36*
X007460Y012498D02*
X007756Y012202D01*
X007714Y012160D01*
X007418Y012456D01*
X007460Y012498D01*
G37*
G36*
X008224Y011819D02*
X008520Y011523D01*
X008478Y011481D01*
X008182Y011777D01*
X008224Y011819D01*
G37*
G36*
X008351Y011522D02*
X008647Y011226D01*
X008605Y011184D01*
X008309Y011480D01*
X008351Y011522D01*
G37*
G36*
X010133Y009740D02*
X010429Y009444D01*
X010387Y009402D01*
X010091Y009698D01*
X010133Y009740D01*
G37*
G36*
X010133Y009656D02*
X010429Y009360D01*
X010387Y009318D01*
X010091Y009614D01*
X010133Y009656D01*
G37*
G36*
X009751Y009104D02*
X010047Y008808D01*
X010005Y008766D01*
X009709Y009062D01*
X009751Y009104D01*
G37*
G36*
X009242Y009189D02*
X009538Y008893D01*
X009496Y008851D01*
X009200Y009147D01*
X009242Y009189D01*
G37*
G36*
X010048Y009062D02*
X010344Y008766D01*
X010302Y008724D01*
X010006Y009020D01*
X010048Y009062D01*
G37*
G36*
X011491Y008637D02*
X011787Y008341D01*
X011745Y008299D01*
X011449Y008595D01*
X011491Y008637D01*
G37*
G36*
X011661Y007110D02*
X011957Y006814D01*
X011915Y006772D01*
X011619Y007068D01*
X011661Y007110D01*
G37*
G36*
X010713Y006516D02*
X011009Y006220D01*
X010967Y006178D01*
X010671Y006474D01*
X010713Y006516D01*
G37*
G36*
X009822Y006983D02*
X010118Y006687D01*
X010076Y006645D01*
X009780Y006941D01*
X009822Y006983D01*
G37*
G36*
X008592Y006177D02*
X008888Y005881D01*
X008846Y005839D01*
X008550Y006135D01*
X008592Y006177D01*
G37*
G36*
X008634Y005964D02*
X008930Y005668D01*
X008888Y005626D01*
X008592Y005922D01*
X008634Y005964D01*
G37*
G36*
X008125Y005880D02*
X008421Y005584D01*
X008379Y005542D01*
X008083Y005838D01*
X008125Y005880D01*
G37*
G36*
X007276Y007237D02*
X007572Y006941D01*
X007530Y006899D01*
X007234Y007195D01*
X007276Y007237D01*
G37*
G36*
X007361Y007746D02*
X007657Y007450D01*
X007615Y007408D01*
X007319Y007704D01*
X007361Y007746D01*
G37*
G36*
X007361Y007916D02*
X007657Y007620D01*
X007615Y007578D01*
X007319Y007874D01*
X007361Y007916D01*
G37*
G36*
X007361Y007831D02*
X007657Y007535D01*
X007615Y007493D01*
X007319Y007789D01*
X007361Y007831D01*
G37*
G36*
X006810Y007789D02*
X007106Y007493D01*
X007064Y007451D01*
X006768Y007747D01*
X006810Y007789D01*
G37*
G36*
X006428Y007746D02*
X006724Y007450D01*
X006682Y007408D01*
X006386Y007704D01*
X006428Y007746D01*
G37*
G36*
X005579Y008510D02*
X005875Y008214D01*
X005833Y008172D01*
X005537Y008468D01*
X005579Y008510D01*
G37*
G36*
X005452Y008977D02*
X005748Y008681D01*
X005706Y008639D01*
X005410Y008935D01*
X005452Y008977D01*
G37*
G36*
X005452Y009062D02*
X005748Y008766D01*
X005706Y008724D01*
X005410Y009020D01*
X005452Y009062D01*
G37*
G36*
X004688Y009486D02*
X004984Y009190D01*
X004942Y009148D01*
X004646Y009444D01*
X004688Y009486D01*
G37*
G36*
X003713Y010377D02*
X004009Y010081D01*
X003967Y010039D01*
X003671Y010335D01*
X003713Y010377D01*
G37*
G36*
X003501Y011098D02*
X003797Y010802D01*
X003755Y010760D01*
X003459Y011056D01*
X003501Y011098D01*
G37*
G36*
X003543Y011989D02*
X003839Y011693D01*
X003797Y011651D01*
X003501Y011947D01*
X003543Y011989D01*
G37*
G36*
X004222Y011310D02*
X004518Y011014D01*
X004476Y010972D01*
X004180Y011268D01*
X004222Y011310D01*
G37*
G36*
X004773Y011522D02*
X005069Y011226D01*
X005027Y011184D01*
X004731Y011480D01*
X004773Y011522D01*
G37*
G36*
X004731Y011140D02*
X005027Y010844D01*
X004985Y010802D01*
X004689Y011098D01*
X004731Y011140D01*
G37*
G36*
X006089Y009528D02*
X006385Y009232D01*
X006343Y009190D01*
X006047Y009486D01*
X006089Y009528D01*
G37*
G36*
X006131Y009231D02*
X006427Y008935D01*
X006385Y008893D01*
X006089Y009189D01*
X006131Y009231D01*
G37*
G36*
X006131Y009146D02*
X006427Y008850D01*
X006385Y008808D01*
X006089Y009104D01*
X006131Y009146D01*
G37*
G36*
X009101Y005158D02*
X009397Y004862D01*
X009355Y004820D01*
X009059Y005116D01*
X009101Y005158D01*
G37*
G36*
X008889Y004946D02*
X009185Y004650D01*
X009143Y004608D01*
X008847Y004904D01*
X008889Y004946D01*
G37*
G36*
X009864Y004734D02*
X010160Y004438D01*
X010118Y004396D01*
X009822Y004692D01*
X009864Y004734D01*
G37*
G36*
X009907Y004946D02*
X010203Y004650D01*
X010161Y004608D01*
X009865Y004904D01*
X009907Y004946D01*
G37*
G36*
X012552Y007152D02*
X012848Y006856D01*
X012806Y006814D01*
X012510Y007110D01*
X012552Y007152D01*
G37*
G36*
X012552Y007237D02*
X012848Y006941D01*
X012806Y006899D01*
X012510Y007195D01*
X012552Y007237D01*
G37*
G36*
X014927Y005710D02*
X015223Y005414D01*
X015181Y005372D01*
X014885Y005668D01*
X014927Y005710D01*
G37*
D17*
G36*
X014885Y005838D02*
X015266Y005457D01*
X015223Y005414D01*
X014842Y005795D01*
X014885Y005838D01*
G37*
G36*
X014970Y006007D02*
X015351Y005626D01*
X015308Y005583D01*
X014927Y005964D01*
X014970Y006007D01*
G37*
G36*
X011661Y007280D02*
X012042Y006899D01*
X011999Y006856D01*
X011618Y007237D01*
X011661Y007280D01*
G37*
G36*
X011364Y007747D02*
X011745Y007366D01*
X011702Y007323D01*
X011321Y007704D01*
X011364Y007747D01*
G37*
G36*
X011194Y007832D02*
X011575Y007451D01*
X011532Y007408D01*
X011151Y007789D01*
X011194Y007832D01*
G37*
G36*
X010940Y007747D02*
X011321Y007366D01*
X011278Y007323D01*
X010897Y007704D01*
X010940Y007747D01*
G37*
G36*
X010261Y008511D02*
X010642Y008130D01*
X010599Y008087D01*
X010218Y008468D01*
X010261Y008511D01*
G37*
G36*
X009582Y009614D02*
X009963Y009233D01*
X009920Y009190D01*
X009539Y009571D01*
X009582Y009614D01*
G37*
G36*
X009738Y006983D02*
X010119Y006602D01*
X010076Y006559D01*
X009695Y006940D01*
X009738Y006983D01*
G37*
G36*
X008592Y007026D02*
X008973Y006645D01*
X008930Y006602D01*
X008549Y006983D01*
X008592Y007026D01*
G37*
G36*
X007489Y006686D02*
X007870Y006305D01*
X007827Y006262D01*
X007446Y006643D01*
X007489Y006686D01*
G37*
G36*
X008847Y005074D02*
X009228Y004693D01*
X009185Y004650D01*
X008804Y005031D01*
X008847Y005074D01*
G37*
G36*
X010926Y005541D02*
X011307Y005160D01*
X011264Y005117D01*
X010883Y005498D01*
X010926Y005541D01*
G37*
G36*
X006047Y009486D02*
X006428Y009105D01*
X006385Y009062D01*
X006004Y009443D01*
X006047Y009486D01*
G37*
G36*
X005325Y009868D02*
X005706Y009487D01*
X005663Y009444D01*
X005282Y009825D01*
X005325Y009868D01*
G37*
G36*
X004689Y009656D02*
X005070Y009275D01*
X005027Y009232D01*
X004646Y009613D01*
X004689Y009656D01*
G37*
G36*
X004137Y010462D02*
X004518Y010081D01*
X004475Y010038D01*
X004094Y010419D01*
X004137Y010462D01*
G37*
G36*
X003713Y010462D02*
X004094Y010081D01*
X004051Y010038D01*
X003670Y010419D01*
X003713Y010462D01*
G37*
G36*
X003246Y011183D02*
X003627Y010802D01*
X003584Y010759D01*
X003203Y011140D01*
X003246Y011183D01*
G37*
G36*
X002992Y011099D02*
X003373Y010718D01*
X003330Y010675D01*
X002949Y011056D01*
X002992Y011099D01*
G37*
G36*
X005255Y013432D02*
X005636Y013051D01*
X005593Y013008D01*
X005212Y013389D01*
X005255Y013432D01*
G37*
G36*
X005509Y013517D02*
X005890Y013136D01*
X005847Y013093D01*
X005466Y013474D01*
X005509Y013517D01*
G37*
G36*
X004618Y014153D02*
X004999Y013772D01*
X004956Y013729D01*
X004575Y014110D01*
X004618Y014153D01*
G37*
G36*
X003855Y015087D02*
X004236Y014706D01*
X004193Y014663D01*
X003812Y015044D01*
X003855Y015087D01*
G37*
G36*
X003176Y016020D02*
X003557Y015639D01*
X003514Y015596D01*
X003133Y015977D01*
X003176Y016020D01*
G37*
G36*
X004491Y015299D02*
X004872Y014918D01*
X004829Y014875D01*
X004448Y015256D01*
X004491Y015299D01*
G37*
G36*
X006018Y012923D02*
X006399Y012542D01*
X006356Y012499D01*
X005975Y012880D01*
X006018Y012923D01*
G37*
G36*
X007927Y013220D02*
X008308Y012839D01*
X008265Y012796D01*
X007884Y013177D01*
X007927Y013220D01*
G37*
G36*
X005580Y008595D02*
X005961Y008214D01*
X005918Y008171D01*
X005537Y008552D01*
X005580Y008595D01*
G37*
D18*
G36*
X006004Y009444D02*
X006427Y009021D01*
X006384Y008978D01*
X005961Y009401D01*
X006004Y009444D01*
G37*
G36*
X004689Y009741D02*
X005112Y009318D01*
X005069Y009275D01*
X004646Y009698D01*
X004689Y009741D01*
G37*
G36*
X006697Y013517D02*
X007120Y013094D01*
X007077Y013051D01*
X006654Y013474D01*
X006697Y013517D01*
G37*
G36*
X007461Y012329D02*
X007884Y011906D01*
X007841Y011863D01*
X007418Y012286D01*
X007461Y012329D01*
G37*
G36*
X008988Y012074D02*
X009411Y011651D01*
X009368Y011608D01*
X008945Y012031D01*
X008988Y012074D01*
G37*
G36*
X012340Y007874D02*
X012763Y007451D01*
X012720Y007408D01*
X012297Y007831D01*
X012340Y007874D01*
G37*
G36*
X009695Y006941D02*
X010118Y006518D01*
X010075Y006475D01*
X009652Y006898D01*
X009695Y006941D01*
G37*
G36*
X009695Y006856D02*
X010118Y006433D01*
X010075Y006390D01*
X009652Y006813D01*
X009695Y006856D01*
G37*
G36*
X008550Y006983D02*
X008973Y006560D01*
X008930Y006517D01*
X008507Y006940D01*
X008550Y006983D01*
G37*
G36*
X008083Y006007D02*
X008506Y005584D01*
X008463Y005541D01*
X008040Y005964D01*
X008083Y006007D01*
G37*
G36*
X008847Y005159D02*
X009270Y004736D01*
X009227Y004693D01*
X008804Y005116D01*
X008847Y005159D01*
G37*
G36*
X014886Y005922D02*
X015309Y005499D01*
X015266Y005456D01*
X014843Y005879D01*
X014886Y005922D01*
G37*
G36*
X003855Y015171D02*
X004278Y014748D01*
X004235Y014705D01*
X003812Y015128D01*
X003855Y015171D01*
G37*
D19*
G36*
X003854Y015001D02*
X004192Y014663D01*
X004150Y014621D01*
X003812Y014959D01*
X003854Y015001D01*
G37*
G36*
X003345Y015595D02*
X003683Y015257D01*
X003641Y015215D01*
X003303Y015553D01*
X003345Y015595D01*
G37*
G36*
X003175Y016104D02*
X003513Y015766D01*
X003471Y015724D01*
X003133Y016062D01*
X003175Y016104D01*
G37*
G36*
X003175Y016189D02*
X003513Y015851D01*
X003471Y015809D01*
X003133Y016147D01*
X003175Y016189D01*
G37*
G36*
X004618Y014068D02*
X004956Y013730D01*
X004914Y013688D01*
X004576Y014026D01*
X004618Y014068D01*
G37*
G36*
X005509Y013431D02*
X005847Y013093D01*
X005805Y013051D01*
X005467Y013389D01*
X005509Y013431D01*
G37*
G36*
X005763Y014280D02*
X006101Y013942D01*
X006059Y013900D01*
X005721Y014238D01*
X005763Y014280D01*
G37*
G36*
X006739Y013559D02*
X007077Y013221D01*
X007035Y013179D01*
X006697Y013517D01*
X006739Y013559D01*
G37*
G36*
X006824Y013134D02*
X007162Y012796D01*
X007120Y012754D01*
X006782Y013092D01*
X006824Y013134D01*
G37*
G36*
X006867Y013007D02*
X007205Y012669D01*
X007163Y012627D01*
X006825Y012965D01*
X006867Y013007D01*
G37*
G36*
X006018Y012837D02*
X006356Y012499D01*
X006314Y012457D01*
X005976Y012795D01*
X006018Y012837D01*
G37*
G36*
X006527Y012328D02*
X006865Y011990D01*
X006823Y011948D01*
X006485Y012286D01*
X006527Y012328D01*
G37*
G36*
X007461Y012413D02*
X007799Y012075D01*
X007757Y012033D01*
X007419Y012371D01*
X007461Y012413D01*
G37*
G36*
X008309Y011480D02*
X008647Y011142D01*
X008605Y011100D01*
X008267Y011438D01*
X008309Y011480D01*
G37*
G36*
X009582Y009783D02*
X009920Y009445D01*
X009878Y009403D01*
X009540Y009741D01*
X009582Y009783D01*
G37*
G36*
X009582Y009698D02*
X009920Y009360D01*
X009878Y009318D01*
X009540Y009656D01*
X009582Y009698D01*
G37*
G36*
X009752Y009189D02*
X010090Y008851D01*
X010048Y008809D01*
X009710Y009147D01*
X009752Y009189D01*
G37*
G36*
X010261Y008425D02*
X010599Y008087D01*
X010557Y008045D01*
X010219Y008383D01*
X010261Y008425D01*
G37*
G36*
X011194Y007746D02*
X011532Y007408D01*
X011490Y007366D01*
X011152Y007704D01*
X011194Y007746D01*
G37*
G36*
X011449Y008595D02*
X011787Y008257D01*
X011745Y008215D01*
X011407Y008553D01*
X011449Y008595D01*
G37*
G36*
X012382Y007916D02*
X012720Y007578D01*
X012678Y007536D01*
X012340Y007874D01*
X012382Y007916D01*
G37*
G36*
X012467Y007492D02*
X012805Y007154D01*
X012763Y007112D01*
X012425Y007450D01*
X012467Y007492D01*
G37*
G36*
X012509Y007364D02*
X012847Y007026D01*
X012805Y006984D01*
X012467Y007322D01*
X012509Y007364D01*
G37*
G36*
X011661Y007195D02*
X011999Y006857D01*
X011957Y006815D01*
X011619Y007153D01*
X011661Y007195D01*
G37*
G36*
X012170Y006685D02*
X012508Y006347D01*
X012466Y006305D01*
X012128Y006643D01*
X012170Y006685D01*
G37*
G36*
X010968Y005413D02*
X011306Y005075D01*
X011264Y005033D01*
X010926Y005371D01*
X010968Y005413D01*
G37*
G36*
X013909Y005370D02*
X014247Y005032D01*
X014205Y004990D01*
X013867Y005328D01*
X013909Y005370D01*
G37*
G36*
X014970Y005922D02*
X015308Y005584D01*
X015266Y005542D01*
X014928Y005880D01*
X014970Y005922D01*
G37*
G36*
X014461Y007364D02*
X014799Y007026D01*
X014757Y006984D01*
X014419Y007322D01*
X014461Y007364D01*
G37*
G36*
X007489Y006601D02*
X007827Y006263D01*
X007785Y006221D01*
X007447Y006559D01*
X007489Y006601D01*
G37*
G36*
X006937Y007322D02*
X007275Y006984D01*
X007233Y006942D01*
X006895Y007280D01*
X006937Y007322D01*
G37*
G36*
X006428Y007831D02*
X006766Y007493D01*
X006724Y007451D01*
X006386Y007789D01*
X006428Y007831D01*
G37*
G36*
X004689Y009570D02*
X005027Y009232D01*
X004985Y009190D01*
X004647Y009528D01*
X004689Y009570D01*
G37*
G36*
X004180Y011268D02*
X004518Y010930D01*
X004476Y010888D01*
X004138Y011226D01*
X004180Y011268D01*
G37*
G36*
X003501Y011946D02*
X003839Y011608D01*
X003797Y011566D01*
X003459Y011904D01*
X003501Y011946D01*
G37*
G36*
X003246Y011098D02*
X003584Y010760D01*
X003542Y010718D01*
X003204Y011056D01*
X003246Y011098D01*
G37*
D20*
G36*
X002991Y011183D02*
X003457Y010717D01*
X003415Y010675D01*
X002949Y011141D01*
X002991Y011183D01*
G37*
G36*
X003713Y010547D02*
X004179Y010081D01*
X004137Y010039D01*
X003671Y010505D01*
X003713Y010547D01*
G37*
G36*
X005579Y008680D02*
X006045Y008214D01*
X006003Y008172D01*
X005537Y008638D01*
X005579Y008680D01*
G37*
G36*
X007446Y006813D02*
X007912Y006347D01*
X007870Y006305D01*
X007404Y006771D01*
X007446Y006813D01*
G37*
G36*
X008846Y005243D02*
X009312Y004777D01*
X009270Y004735D01*
X008804Y005201D01*
X008846Y005243D01*
G37*
G36*
X009652Y006813D02*
X010118Y006347D01*
X010076Y006305D01*
X009610Y006771D01*
X009652Y006813D01*
G37*
G36*
X010628Y006516D02*
X011094Y006050D01*
X011052Y006008D01*
X010586Y006474D01*
X010628Y006516D01*
G37*
G36*
X010939Y007831D02*
X011405Y007365D01*
X011363Y007323D01*
X010897Y007789D01*
X010939Y007831D01*
G37*
G36*
X010218Y008637D02*
X010684Y008171D01*
X010642Y008129D01*
X010176Y008595D01*
X010218Y008637D01*
G37*
G36*
X009709Y009316D02*
X010175Y008850D01*
X010133Y008808D01*
X009667Y009274D01*
X009709Y009316D01*
G37*
G36*
X012339Y007789D02*
X012805Y007323D01*
X012763Y007281D01*
X012297Y007747D01*
X012339Y007789D01*
G37*
G36*
X010840Y005710D02*
X011306Y005244D01*
X011264Y005202D01*
X010798Y005668D01*
X010840Y005710D01*
G37*
G36*
X014885Y006177D02*
X015351Y005711D01*
X015309Y005669D01*
X014843Y006135D01*
X014885Y006177D01*
G37*
G36*
X006697Y013432D02*
X007163Y012966D01*
X007121Y012924D01*
X006655Y013390D01*
X006697Y013432D01*
G37*
G36*
X005254Y013516D02*
X005720Y013050D01*
X005678Y013008D01*
X005212Y013474D01*
X005254Y013516D01*
G37*
G36*
X004575Y014280D02*
X005041Y013814D01*
X004999Y013772D01*
X004533Y014238D01*
X004575Y014280D01*
G37*
G36*
X003302Y015723D02*
X003768Y015257D01*
X003726Y015215D01*
X003260Y015681D01*
X003302Y015723D01*
G37*
D21*
G36*
X006654Y013389D02*
X007162Y012881D01*
X007120Y012839D01*
X006612Y013347D01*
X006654Y013389D01*
G37*
G36*
X006089Y008510D02*
X006597Y008002D01*
X006555Y007960D01*
X006047Y008468D01*
X006089Y008510D01*
G37*
G36*
X008083Y006092D02*
X008591Y005584D01*
X008549Y005542D01*
X008041Y006050D01*
X008083Y006092D01*
G37*
G36*
X008846Y005328D02*
X009354Y004820D01*
X009312Y004778D01*
X008804Y005286D01*
X008846Y005328D01*
G37*
G36*
X012297Y007746D02*
X012805Y007238D01*
X012763Y007196D01*
X012255Y007704D01*
X012297Y007746D01*
G37*
G36*
X014843Y006304D02*
X015351Y005796D01*
X015309Y005754D01*
X014801Y006262D01*
X014843Y006304D01*
G37*
D22*
G36*
X014716Y006601D02*
X015309Y006008D01*
X015266Y005965D01*
X014673Y006558D01*
X014716Y006601D01*
G37*
G36*
X014758Y006474D02*
X015351Y005881D01*
X015308Y005838D01*
X014715Y006431D01*
X014758Y006474D01*
G37*
G36*
X010897Y007959D02*
X011490Y007366D01*
X011447Y007323D01*
X010854Y007916D01*
X010897Y007959D01*
G37*
G36*
X010728Y009656D02*
X011321Y009063D01*
X011278Y009020D01*
X010685Y009613D01*
X010728Y009656D01*
G37*
G36*
X008818Y012329D02*
X009411Y011736D01*
X009368Y011693D01*
X008775Y012286D01*
X008818Y012329D01*
G37*
G36*
X005212Y013644D02*
X005805Y013051D01*
X005762Y013008D01*
X005169Y013601D01*
X005212Y013644D01*
G37*
G36*
X005085Y015299D02*
X005678Y014706D01*
X005635Y014663D01*
X005042Y015256D01*
X005085Y015299D01*
G37*
G36*
X004364Y015681D02*
X004957Y015088D01*
X004914Y015045D01*
X004321Y015638D01*
X004364Y015681D01*
G37*
G36*
X004321Y015638D02*
X004914Y015045D01*
X004871Y015002D01*
X004278Y015595D01*
X004321Y015638D01*
G37*
G36*
X004321Y015553D02*
X004914Y014960D01*
X004871Y014917D01*
X004278Y015510D01*
X004321Y015553D01*
G37*
G36*
X002949Y011311D02*
X003542Y010718D01*
X003499Y010675D01*
X002906Y011268D01*
X002949Y011311D01*
G37*
G36*
X005156Y010208D02*
X005749Y009615D01*
X005706Y009572D01*
X005113Y010165D01*
X005156Y010208D01*
G37*
G36*
X005198Y010250D02*
X005791Y009657D01*
X005748Y009614D01*
X005155Y010207D01*
X005198Y010250D01*
G37*
G36*
X005156Y010123D02*
X005749Y009530D01*
X005706Y009487D01*
X005113Y010080D01*
X005156Y010123D01*
G37*
G36*
X007956Y007832D02*
X008549Y007239D01*
X008506Y007196D01*
X007913Y007789D01*
X007956Y007832D01*
G37*
G36*
X010586Y006389D02*
X011179Y005796D01*
X011136Y005753D01*
X010543Y006346D01*
X010586Y006389D01*
G37*
D23*
G36*
X010586Y006473D02*
X011136Y005923D01*
X011094Y005881D01*
X010544Y006431D01*
X010586Y006473D01*
G37*
G36*
X009610Y006770D02*
X010160Y006220D01*
X010118Y006178D01*
X009568Y006728D01*
X009610Y006770D01*
G37*
G36*
X008083Y006176D02*
X008633Y005626D01*
X008591Y005584D01*
X008041Y006134D01*
X008083Y006176D01*
G37*
G36*
X007956Y007576D02*
X008506Y007026D01*
X008464Y006984D01*
X007914Y007534D01*
X007956Y007576D01*
G37*
G36*
X007956Y007746D02*
X008506Y007196D01*
X008464Y007154D01*
X007914Y007704D01*
X007956Y007746D01*
G37*
G36*
X007998Y007958D02*
X008548Y007408D01*
X008506Y007366D01*
X007956Y007916D01*
X007998Y007958D01*
G37*
G36*
X007998Y007873D02*
X008548Y007323D01*
X008506Y007281D01*
X007956Y007831D01*
X007998Y007873D01*
G37*
G36*
X007956Y007661D02*
X008506Y007111D01*
X008464Y007069D01*
X007914Y007619D01*
X007956Y007661D01*
G37*
G36*
X006046Y008467D02*
X006596Y007917D01*
X006554Y007875D01*
X006004Y008425D01*
X006046Y008467D01*
G37*
G36*
X005240Y010292D02*
X005790Y009742D01*
X005748Y009700D01*
X005198Y010250D01*
X005240Y010292D01*
G37*
G36*
X008606Y013134D02*
X009156Y012584D01*
X009114Y012542D01*
X008564Y013092D01*
X008606Y013134D01*
G37*
G36*
X010770Y009783D02*
X011320Y009233D01*
X011278Y009191D01*
X010728Y009741D01*
X010770Y009783D01*
G37*
G36*
X010770Y009698D02*
X011320Y009148D01*
X011278Y009106D01*
X010728Y009656D01*
X010770Y009698D01*
G37*
G36*
X010727Y009570D02*
X011277Y009020D01*
X011235Y008978D01*
X010685Y009528D01*
X010727Y009570D01*
G37*
G36*
X010727Y009486D02*
X011277Y008936D01*
X011235Y008894D01*
X010685Y009444D01*
X010727Y009486D01*
G37*
G36*
X010727Y009401D02*
X011277Y008851D01*
X011235Y008809D01*
X010685Y009359D01*
X010727Y009401D01*
G37*
G36*
X010798Y005837D02*
X011348Y005287D01*
X011306Y005245D01*
X010756Y005795D01*
X010798Y005837D01*
G37*
G36*
X013782Y005582D02*
X014332Y005032D01*
X014290Y004990D01*
X013740Y005540D01*
X013782Y005582D01*
G37*
G36*
X014376Y007364D02*
X014926Y006814D01*
X014884Y006772D01*
X014334Y007322D01*
X014376Y007364D01*
G37*
G36*
X005085Y015043D02*
X005635Y014493D01*
X005593Y014451D01*
X005043Y015001D01*
X005085Y015043D01*
G37*
G36*
X005085Y015213D02*
X005635Y014663D01*
X005593Y014621D01*
X005043Y015171D01*
X005085Y015213D01*
G37*
G36*
X005127Y015425D02*
X005677Y014875D01*
X005635Y014833D01*
X005085Y015383D01*
X005127Y015425D01*
G37*
G36*
X005127Y015340D02*
X005677Y014790D01*
X005635Y014748D01*
X005085Y015298D01*
X005127Y015340D01*
G37*
G36*
X005085Y015128D02*
X005635Y014578D01*
X005593Y014536D01*
X005043Y015086D01*
X005085Y015128D01*
G37*
G36*
X004406Y015722D02*
X004956Y015172D01*
X004914Y015130D01*
X004364Y015680D01*
X004406Y015722D01*
G37*
D24*
G36*
X007716Y011565D02*
X008351Y010930D01*
X008308Y010887D01*
X007673Y011522D01*
X007716Y011565D01*
G37*
D25*
G36*
X007630Y011735D02*
X008478Y010887D01*
X008436Y010845D01*
X007588Y011693D01*
X007630Y011735D01*
G37*
G36*
X008436Y013220D02*
X009284Y012372D01*
X009242Y012330D01*
X008394Y013178D01*
X008436Y013220D01*
G37*
G36*
X010501Y006304D02*
X011349Y005456D01*
X011307Y005414D01*
X010459Y006262D01*
X010501Y006304D01*
G37*
G36*
X010501Y006219D02*
X011349Y005371D01*
X011307Y005329D01*
X010459Y006177D01*
X010501Y006219D01*
G37*
D26*
G36*
X013315Y006134D02*
X014375Y005074D01*
X014333Y005032D01*
X013273Y006092D01*
X013315Y006134D01*
G37*
D27*
G36*
X013146Y006728D02*
X014163Y005711D01*
X014120Y005668D01*
X013103Y006685D01*
X013146Y006728D01*
G37*
G36*
X014207Y007280D02*
X015224Y006263D01*
X015181Y006220D01*
X014164Y007237D01*
X014207Y007280D01*
G37*
G36*
X007546Y011904D02*
X008563Y010887D01*
X008520Y010844D01*
X007503Y011861D01*
X007546Y011904D01*
G37*
D28*
G36*
X013103Y006431D02*
X014417Y005117D01*
X014375Y005075D01*
X013061Y006389D01*
X013103Y006431D01*
G37*
D29*
G36*
X007503Y012031D02*
X008605Y010929D01*
X008563Y010887D01*
X007461Y011989D01*
X007503Y012031D01*
G37*
G36*
X008309Y013262D02*
X009411Y012160D01*
X009369Y012118D01*
X008267Y013220D01*
X008309Y013262D01*
G37*
D30*
G36*
X008139Y013262D02*
X009496Y011905D01*
X009453Y011862D01*
X008096Y013219D01*
X008139Y013262D01*
G37*
G36*
X013103Y006601D02*
X014460Y005244D01*
X014417Y005201D01*
X013060Y006558D01*
X013103Y006601D01*
G37*
G36*
X013103Y006517D02*
X014460Y005160D01*
X014417Y005117D01*
X013060Y006474D01*
X013103Y006517D01*
G37*
D31*
G36*
X013146Y006643D02*
X014290Y005499D01*
X014248Y005457D01*
X013104Y006601D01*
X013146Y006643D01*
G37*
G36*
X007503Y012116D02*
X008647Y010972D01*
X008605Y010930D01*
X007461Y012074D01*
X007503Y012116D01*
G37*
D32*
G36*
X007461Y012244D02*
X008648Y011057D01*
X008605Y011014D01*
X007418Y012201D01*
X007461Y012244D01*
G37*
D33*
G36*
X013146Y006814D02*
X014121Y005839D01*
X014078Y005796D01*
X013103Y006771D01*
X013146Y006814D01*
G37*
D34*
G36*
X013188Y006855D02*
X013866Y006177D01*
X013824Y006135D01*
X013146Y006813D01*
X013188Y006855D01*
G37*
G36*
X014588Y006813D02*
X015266Y006135D01*
X015224Y006093D01*
X014546Y006771D01*
X014588Y006813D01*
G37*
G36*
X010543Y006346D02*
X011221Y005668D01*
X011179Y005626D01*
X010501Y006304D01*
X010543Y006346D01*
G37*
D35*
G36*
X008012Y013220D02*
X009454Y011778D01*
X009412Y011736D01*
X007970Y013178D01*
X008012Y013220D01*
G37*
D36*
G36*
X008055Y013262D02*
X009454Y011863D01*
X009411Y011820D01*
X008012Y013219D01*
X008055Y013262D01*
G37*
D37*
G36*
X008224Y013262D02*
X009496Y011990D01*
X009454Y011948D01*
X008182Y013220D01*
X008224Y013262D01*
G37*
D38*
G36*
X014249Y007322D02*
X015139Y006432D01*
X015097Y006390D01*
X014207Y007280D01*
X014249Y007322D01*
G37*
D39*
G36*
X014291Y007365D02*
X015054Y006602D01*
X015011Y006559D01*
X014248Y007322D01*
X014291Y007365D01*
G37*
M02*
