G75*
G70*
%OFA0B0*%
%FSLAX24Y24*%
%IPPOS*%
%LPD*%
%AMOC8*
5,1,8,0,0,1.08239X$1,22.5*
%
%ADD10C,0.0560*%
%ADD11R,0.0740X0.0740*%
%ADD12C,0.0740*%
%ADD13OC8,0.0640*%
%ADD14C,0.0640*%
%ADD15C,0.0640*%
%ADD16C,0.0080*%
%ADD17C,0.0436*%
%ADD18C,0.0160*%
D10*
X015286Y010011D03*
X015286Y011911D03*
D11*
X015876Y001021D03*
X001596Y001141D03*
X001596Y009641D03*
D12*
X001696Y010641D03*
X001596Y011641D03*
X001696Y012641D03*
X001596Y013641D03*
X001696Y014641D03*
X001596Y015641D03*
X001696Y016641D03*
X008306Y014501D03*
X009306Y014501D03*
X010306Y014541D03*
X011306Y014541D03*
X013926Y014701D03*
X013926Y013661D03*
X014926Y013661D03*
X014926Y014701D03*
X015976Y008021D03*
X015876Y007021D03*
X015976Y006021D03*
X015876Y005021D03*
X015976Y004021D03*
X015876Y003021D03*
X015976Y002021D03*
X001696Y002141D03*
X001596Y003141D03*
X001696Y004141D03*
X001596Y005141D03*
X001696Y006141D03*
X001596Y007141D03*
X001696Y008141D03*
D13*
X007746Y002641D03*
X007746Y001641D03*
X008746Y001641D03*
X008746Y002641D03*
X009746Y002641D03*
X009746Y001641D03*
X010746Y001641D03*
X010746Y002641D03*
X011746Y002641D03*
X011746Y001641D03*
X012746Y001641D03*
X012746Y002641D03*
X013746Y002641D03*
X013746Y001641D03*
D14*
X006086Y001251D03*
X006086Y003031D03*
X003526Y003031D03*
X003526Y001251D03*
D15*
X006306Y015441D02*
X006306Y016081D01*
X007306Y016081D02*
X007306Y015441D01*
X008306Y015441D02*
X008306Y016081D01*
X009306Y016081D02*
X009306Y015441D01*
X010306Y015441D02*
X010306Y016081D01*
X011306Y016081D02*
X011306Y015441D01*
D16*
X000946Y019977D02*
X000946Y000281D01*
X016616Y000281D01*
X016616Y019977D01*
X000946Y019977D01*
X000946Y019934D02*
X016616Y019934D01*
X016616Y019855D02*
X000946Y019855D01*
X000946Y019777D02*
X016616Y019777D01*
X016616Y019698D02*
X000946Y019698D01*
X000946Y019620D02*
X016616Y019620D01*
X016616Y019541D02*
X000946Y019541D01*
X000946Y019463D02*
X016616Y019463D01*
X016616Y019384D02*
X000946Y019384D01*
X000946Y019306D02*
X016616Y019306D01*
X016616Y019227D02*
X000946Y019227D01*
X000946Y019149D02*
X016616Y019149D01*
X016616Y019070D02*
X000946Y019070D01*
X000946Y018991D02*
X016616Y018991D01*
X016616Y018913D02*
X000946Y018913D01*
X000946Y018834D02*
X016616Y018834D01*
X016616Y018756D02*
X000946Y018756D01*
X000946Y018677D02*
X016616Y018677D01*
X016616Y018599D02*
X000946Y018599D01*
X000946Y018520D02*
X016616Y018520D01*
X016616Y018442D02*
X000946Y018442D01*
X000946Y018363D02*
X016616Y018363D01*
X016616Y018285D02*
X000946Y018285D01*
X000946Y018206D02*
X016616Y018206D01*
X016616Y018128D02*
X000946Y018128D01*
X000946Y018049D02*
X016616Y018049D01*
X016616Y017970D02*
X000946Y017970D01*
X000946Y017892D02*
X016616Y017892D01*
X016616Y017813D02*
X000946Y017813D01*
X000946Y017735D02*
X016616Y017735D01*
X016616Y017656D02*
X000946Y017656D01*
X000946Y017578D02*
X016616Y017578D01*
X016616Y017499D02*
X000946Y017499D01*
X000946Y017421D02*
X016616Y017421D01*
X016616Y017342D02*
X000946Y017342D01*
X000946Y017264D02*
X016616Y017264D01*
X016616Y017185D02*
X000946Y017185D01*
X000946Y017106D02*
X001486Y017106D01*
X001501Y017114D02*
X001429Y017077D01*
X001364Y017030D01*
X001307Y016973D01*
X001260Y016908D01*
X001224Y016837D01*
X001199Y016761D01*
X001186Y016681D01*
X001656Y016681D01*
X001656Y016601D01*
X001186Y016601D01*
X001199Y016522D01*
X001224Y016445D01*
X001260Y016374D01*
X001307Y016309D01*
X001364Y016252D01*
X001429Y016205D01*
X001501Y016168D01*
X001577Y016144D01*
X001656Y016131D01*
X001656Y016131D01*
X001656Y016601D01*
X001736Y016601D01*
X001736Y016131D01*
X001736Y016131D01*
X001816Y016144D01*
X001892Y016168D01*
X001964Y016205D01*
X002029Y016252D01*
X002085Y016309D01*
X002132Y016374D01*
X002169Y016445D01*
X002194Y016522D01*
X002206Y016601D01*
X001736Y016601D01*
X001736Y016681D01*
X001656Y016681D01*
X001656Y017151D01*
X001577Y017139D01*
X001501Y017114D01*
X001656Y017106D02*
X001736Y017106D01*
X001736Y017151D02*
X001736Y017151D01*
X001736Y016681D01*
X002206Y016681D01*
X002206Y016681D01*
X002194Y016761D01*
X002169Y016837D01*
X002132Y016908D01*
X002085Y016973D01*
X002029Y017030D01*
X001964Y017077D01*
X001892Y017114D01*
X001816Y017139D01*
X001736Y017151D01*
X001656Y017151D02*
X001656Y017151D01*
X001656Y017028D02*
X001736Y017028D01*
X001736Y016949D02*
X001656Y016949D01*
X001656Y016871D02*
X001736Y016871D01*
X001736Y016792D02*
X001656Y016792D01*
X001656Y016714D02*
X001736Y016714D01*
X001736Y016635D02*
X016616Y016635D01*
X016616Y016557D02*
X002199Y016557D01*
X002206Y016601D02*
X002206Y016601D01*
X002201Y016714D02*
X016616Y016714D01*
X016616Y016792D02*
X002183Y016792D01*
X002152Y016871D02*
X016616Y016871D01*
X016616Y016949D02*
X002103Y016949D01*
X002031Y017028D02*
X016616Y017028D01*
X016616Y017106D02*
X001906Y017106D01*
X001656Y016635D02*
X000946Y016635D01*
X000946Y016557D02*
X001193Y016557D01*
X001186Y016601D02*
X001186Y016601D01*
X001186Y016681D02*
X001186Y016681D01*
X001191Y016714D02*
X000946Y016714D01*
X000946Y016792D02*
X001209Y016792D01*
X001241Y016871D02*
X000946Y016871D01*
X000946Y016949D02*
X001290Y016949D01*
X001362Y017028D02*
X000946Y017028D01*
X000946Y016478D02*
X001213Y016478D01*
X001247Y016400D02*
X000946Y016400D01*
X000946Y016321D02*
X001298Y016321D01*
X001377Y016242D02*
X000946Y016242D01*
X000946Y016164D02*
X001514Y016164D01*
X001499Y016131D02*
X001319Y016056D01*
X001181Y015919D01*
X001106Y015739D01*
X001106Y015544D01*
X001181Y015364D01*
X001319Y015226D01*
X001499Y015151D01*
X001694Y015151D01*
X001874Y015226D01*
X002012Y015364D01*
X002086Y015544D01*
X002086Y015739D01*
X002012Y015919D01*
X001874Y016056D01*
X001694Y016131D01*
X001499Y016131D01*
X001389Y016085D02*
X000946Y016085D01*
X000946Y016007D02*
X001269Y016007D01*
X001191Y015928D02*
X000946Y015928D01*
X000946Y015850D02*
X001152Y015850D01*
X001120Y015771D02*
X000946Y015771D01*
X000946Y015693D02*
X001106Y015693D01*
X001106Y015614D02*
X000946Y015614D01*
X000946Y015536D02*
X001110Y015536D01*
X001142Y015457D02*
X000946Y015457D01*
X000946Y015379D02*
X001175Y015379D01*
X001244Y015300D02*
X000946Y015300D01*
X000946Y015221D02*
X001329Y015221D01*
X001419Y015056D02*
X001281Y014919D01*
X001206Y014739D01*
X001206Y014544D01*
X001281Y014364D01*
X001419Y014226D01*
X001599Y014151D01*
X001794Y014151D01*
X001974Y014226D01*
X002112Y014364D01*
X002186Y014544D01*
X002186Y014739D01*
X002112Y014919D01*
X001974Y015056D01*
X001794Y015131D01*
X001599Y015131D01*
X001419Y015056D01*
X001438Y015064D02*
X000946Y015064D01*
X000946Y014986D02*
X001348Y014986D01*
X001276Y014907D02*
X000946Y014907D01*
X000946Y014829D02*
X001244Y014829D01*
X001211Y014750D02*
X000946Y014750D01*
X000946Y014672D02*
X001206Y014672D01*
X001206Y014593D02*
X000946Y014593D01*
X000946Y014515D02*
X001218Y014515D01*
X001251Y014436D02*
X000946Y014436D01*
X000946Y014357D02*
X001287Y014357D01*
X001366Y014279D02*
X000946Y014279D01*
X000946Y014200D02*
X001480Y014200D01*
X001499Y014131D02*
X001319Y014056D01*
X001181Y013919D01*
X001106Y013739D01*
X001106Y013544D01*
X001181Y013364D01*
X001319Y013226D01*
X001499Y013151D01*
X001694Y013151D01*
X001874Y013226D01*
X002012Y013364D01*
X002086Y013544D01*
X002086Y013739D01*
X002012Y013919D01*
X001874Y014056D01*
X001694Y014131D01*
X001499Y014131D01*
X001476Y014122D02*
X000946Y014122D01*
X000946Y014043D02*
X001306Y014043D01*
X001227Y013965D02*
X000946Y013965D01*
X000946Y013886D02*
X001167Y013886D01*
X001135Y013808D02*
X000946Y013808D01*
X000946Y013729D02*
X001106Y013729D01*
X001106Y013651D02*
X000946Y013651D01*
X000946Y013572D02*
X001106Y013572D01*
X001127Y013493D02*
X000946Y013493D01*
X000946Y013415D02*
X001160Y013415D01*
X001208Y013336D02*
X000946Y013336D01*
X000946Y013258D02*
X001287Y013258D01*
X001431Y013179D02*
X000946Y013179D01*
X000946Y013101D02*
X001475Y013101D01*
X001501Y013114D02*
X001429Y013077D01*
X001364Y013030D01*
X001307Y012973D01*
X001260Y012908D01*
X001224Y012837D01*
X001199Y012761D01*
X001186Y012681D01*
X001656Y012681D01*
X001656Y012601D01*
X001186Y012601D01*
X001199Y012522D01*
X001224Y012445D01*
X001260Y012374D01*
X001307Y012309D01*
X001364Y012252D01*
X001429Y012205D01*
X001501Y012168D01*
X001577Y012144D01*
X001656Y012131D01*
X001656Y012131D01*
X001656Y012601D01*
X001736Y012601D01*
X001736Y012131D01*
X001736Y012131D01*
X001816Y012144D01*
X001892Y012168D01*
X001964Y012205D01*
X002029Y012252D01*
X002085Y012309D01*
X002132Y012374D01*
X002169Y012445D01*
X002194Y012522D01*
X002206Y012601D01*
X001736Y012601D01*
X001736Y012681D01*
X001656Y012681D01*
X001656Y013151D01*
X001577Y013139D01*
X001501Y013114D01*
X001656Y013101D02*
X001736Y013101D01*
X001736Y013151D02*
X001736Y013151D01*
X001736Y012681D01*
X002206Y012681D01*
X002206Y012681D01*
X002194Y012761D01*
X002169Y012837D01*
X002132Y012908D01*
X002085Y012973D01*
X002029Y013030D01*
X001964Y013077D01*
X001892Y013114D01*
X001816Y013139D01*
X001736Y013151D01*
X001762Y013179D02*
X005206Y013179D01*
X005206Y013101D02*
X001917Y013101D01*
X002036Y013022D02*
X005206Y013022D01*
X005206Y012944D02*
X002107Y012944D01*
X002155Y012865D02*
X005206Y012865D01*
X005206Y012787D02*
X002185Y012787D01*
X002202Y012708D02*
X005206Y012708D01*
X005206Y012629D02*
X001736Y012629D01*
X001736Y012551D02*
X001656Y012551D01*
X001656Y012629D02*
X000946Y012629D01*
X000946Y012551D02*
X001194Y012551D01*
X001186Y012601D02*
X001186Y012601D01*
X001186Y012681D02*
X001186Y012681D01*
X001191Y012708D02*
X000946Y012708D01*
X000946Y012787D02*
X001207Y012787D01*
X001238Y012865D02*
X000946Y012865D01*
X000946Y012944D02*
X001286Y012944D01*
X001356Y013022D02*
X000946Y013022D01*
X000946Y012472D02*
X001215Y012472D01*
X001250Y012394D02*
X000946Y012394D01*
X000946Y012315D02*
X001303Y012315D01*
X001385Y012237D02*
X000946Y012237D01*
X000946Y012158D02*
X001532Y012158D01*
X001499Y012131D02*
X001694Y012131D01*
X001874Y012056D01*
X002012Y011919D01*
X002086Y011739D01*
X002086Y011544D01*
X002012Y011364D01*
X001874Y011226D01*
X001694Y011151D01*
X001499Y011151D01*
X001319Y011226D01*
X001181Y011364D01*
X001106Y011544D01*
X001106Y011739D01*
X001181Y011919D01*
X001319Y012056D01*
X001499Y012131D01*
X001375Y012080D02*
X000946Y012080D01*
X000946Y012001D02*
X001263Y012001D01*
X001185Y011923D02*
X000946Y011923D01*
X000946Y011844D02*
X001150Y011844D01*
X001117Y011766D02*
X000946Y011766D01*
X000946Y011687D02*
X001106Y011687D01*
X001106Y011608D02*
X000946Y011608D01*
X000946Y011530D02*
X001112Y011530D01*
X001144Y011451D02*
X000946Y011451D01*
X000946Y011373D02*
X001177Y011373D01*
X001250Y011294D02*
X000946Y011294D01*
X000946Y011216D02*
X001343Y011216D01*
X001419Y011056D02*
X001281Y010919D01*
X001206Y010739D01*
X001206Y010544D01*
X001281Y010364D01*
X001419Y010226D01*
X001599Y010151D01*
X001794Y010151D01*
X001974Y010226D01*
X002112Y010364D01*
X002186Y010544D01*
X002186Y010739D01*
X002112Y010919D01*
X001974Y011056D01*
X001794Y011131D01*
X001599Y011131D01*
X001419Y011056D01*
X001424Y011059D02*
X000946Y011059D01*
X000946Y011137D02*
X005206Y011137D01*
X005206Y011059D02*
X001969Y011059D01*
X002050Y010980D02*
X005206Y010980D01*
X005206Y010902D02*
X002119Y010902D01*
X002151Y010823D02*
X005206Y010823D01*
X005206Y010744D02*
X002184Y010744D01*
X002186Y010666D02*
X005173Y010666D01*
X005175Y010668D02*
X005080Y010573D01*
X005028Y010448D01*
X005028Y010314D01*
X005080Y010190D01*
X005175Y010094D01*
X005206Y010081D01*
X005206Y008761D01*
X005175Y008748D01*
X005080Y008653D01*
X005028Y008528D01*
X005028Y008394D01*
X005080Y008270D01*
X005175Y008174D01*
X005299Y008123D01*
X005434Y008123D01*
X005558Y008174D01*
X005606Y008223D01*
X005606Y007961D01*
X005575Y007948D01*
X005480Y007853D01*
X005428Y007728D01*
X005428Y007594D01*
X005434Y007579D01*
X004806Y008207D01*
X004806Y009281D01*
X004838Y009294D01*
X004933Y009390D01*
X004984Y009514D01*
X004984Y009648D01*
X004933Y009773D01*
X004838Y009868D01*
X004714Y009919D01*
X004579Y009919D01*
X004455Y009868D01*
X004360Y009773D01*
X004308Y009648D01*
X004308Y009514D01*
X004360Y009390D01*
X004455Y009294D01*
X004486Y009281D01*
X004486Y008207D01*
X004486Y008075D01*
X005446Y007115D01*
X005446Y006681D01*
X005415Y006668D01*
X005320Y006573D01*
X005268Y006448D01*
X005268Y006314D01*
X005320Y006190D01*
X005415Y006094D01*
X005539Y006043D01*
X005674Y006043D01*
X005798Y006094D01*
X005893Y006190D01*
X005944Y006314D01*
X005944Y006448D01*
X005893Y006573D01*
X005798Y006668D01*
X005766Y006681D01*
X005766Y007115D01*
X005766Y007247D01*
X005685Y007329D01*
X005699Y007323D01*
X005834Y007323D01*
X005958Y007374D01*
X006053Y007470D01*
X006086Y007550D01*
X006086Y003961D01*
X006055Y003948D01*
X005960Y003853D01*
X005908Y003728D01*
X005908Y003594D01*
X005960Y003470D01*
X005970Y003459D01*
X005837Y003404D01*
X005713Y003280D01*
X005646Y003119D01*
X005646Y002944D01*
X005713Y002782D01*
X005837Y002658D01*
X005999Y002591D01*
X006174Y002591D01*
X006336Y002658D01*
X006459Y002782D01*
X006526Y002944D01*
X006526Y003119D01*
X006459Y003280D01*
X006386Y003353D01*
X006438Y003374D01*
X006526Y003463D01*
X006526Y002019D01*
X006440Y001933D01*
X006388Y001808D01*
X006388Y001674D01*
X006440Y001550D01*
X006535Y001454D01*
X006659Y001403D01*
X006794Y001403D01*
X006918Y001454D01*
X007013Y001550D01*
X007064Y001674D01*
X007064Y001808D01*
X007013Y001933D01*
X006926Y002019D01*
X006926Y003863D01*
X007013Y003950D01*
X007064Y004074D01*
X007064Y004208D01*
X007013Y004333D01*
X006918Y004428D01*
X006794Y004479D01*
X006659Y004479D01*
X006535Y004428D01*
X006440Y004333D01*
X006406Y004252D01*
X006406Y005790D01*
X006440Y005710D01*
X006535Y005614D01*
X006659Y005563D01*
X006794Y005563D01*
X006918Y005614D01*
X007013Y005710D01*
X007064Y005834D01*
X007064Y005968D01*
X007013Y006093D01*
X006918Y006188D01*
X006886Y006201D01*
X006886Y007121D01*
X006918Y007134D01*
X007013Y007230D01*
X007064Y007354D01*
X007064Y007488D01*
X007013Y007613D01*
X006918Y007708D01*
X006794Y007759D01*
X006659Y007759D01*
X006535Y007708D01*
X006440Y007613D01*
X006406Y007532D01*
X006406Y007755D01*
X006793Y008141D01*
X006886Y008235D01*
X006886Y008510D01*
X006920Y008430D01*
X007015Y008334D01*
X007139Y008283D01*
X007274Y008283D01*
X007398Y008334D01*
X007493Y008430D01*
X007544Y008554D01*
X007544Y008688D01*
X007493Y008813D01*
X007398Y008908D01*
X007366Y008921D01*
X007366Y011521D01*
X007398Y011534D01*
X007493Y011630D01*
X007544Y011754D01*
X007544Y011888D01*
X007493Y012013D01*
X007398Y012108D01*
X007274Y012159D01*
X007139Y012159D01*
X007107Y012146D01*
X006566Y012687D01*
X006566Y014241D01*
X006598Y014254D01*
X006693Y014350D01*
X006744Y014474D01*
X006744Y014608D01*
X006693Y014733D01*
X006598Y014828D01*
X006474Y014879D01*
X006339Y014879D01*
X006215Y014828D01*
X006120Y014733D01*
X006068Y014608D01*
X006068Y014474D01*
X006120Y014350D01*
X006215Y014254D01*
X006246Y014241D01*
X006246Y012555D01*
X006340Y012461D01*
X006881Y011920D01*
X006868Y011888D01*
X006868Y011754D01*
X006920Y011630D01*
X007015Y011534D01*
X007046Y011521D01*
X007046Y008921D01*
X007015Y008908D01*
X006920Y008813D01*
X006886Y008732D01*
X006886Y010687D01*
X006793Y010781D01*
X006411Y011162D01*
X006424Y011194D01*
X006424Y011328D01*
X006373Y011453D01*
X006278Y011548D01*
X006154Y011599D01*
X006019Y011599D01*
X005895Y011548D01*
X005800Y011453D01*
X005748Y011328D01*
X005748Y011194D01*
X005800Y011070D01*
X005895Y010974D01*
X006019Y010923D01*
X006154Y010923D01*
X006185Y010936D01*
X006566Y010555D01*
X006566Y008367D01*
X006086Y007887D01*
X006086Y007772D01*
X006053Y007853D01*
X005958Y007948D01*
X005926Y007961D01*
X005926Y009648D01*
X006038Y009694D01*
X006133Y009790D01*
X006184Y009914D01*
X006184Y010048D01*
X006133Y010173D01*
X006038Y010268D01*
X005914Y010319D01*
X005779Y010319D01*
X005692Y010283D01*
X005704Y010314D01*
X005704Y010448D01*
X005653Y010573D01*
X005558Y010668D01*
X005526Y010681D01*
X005526Y014161D01*
X005558Y014174D01*
X005653Y014270D01*
X005704Y014394D01*
X005704Y014528D01*
X005653Y014653D01*
X005558Y014748D01*
X005434Y014799D01*
X005299Y014799D01*
X005175Y014748D01*
X005080Y014653D01*
X005028Y014528D01*
X005028Y014394D01*
X005080Y014270D01*
X005175Y014174D01*
X005206Y014161D01*
X005206Y010681D01*
X005175Y010668D01*
X005094Y010587D02*
X002186Y010587D01*
X002172Y010509D02*
X005053Y010509D01*
X005028Y010430D02*
X002139Y010430D01*
X002100Y010352D02*
X005028Y010352D01*
X005045Y010273D02*
X002021Y010273D01*
X002016Y010131D02*
X001177Y010131D01*
X001106Y010061D01*
X001106Y009221D01*
X001177Y009151D01*
X002016Y009151D01*
X002086Y009221D01*
X002086Y010061D01*
X002016Y010131D01*
X002031Y010116D02*
X005153Y010116D01*
X005206Y010038D02*
X002086Y010038D01*
X002086Y009959D02*
X003042Y009959D01*
X003015Y009948D02*
X002920Y009853D01*
X002868Y009728D01*
X002868Y009594D01*
X002920Y009470D01*
X003015Y009374D01*
X003046Y009361D01*
X003046Y008127D01*
X003046Y007995D01*
X004166Y006875D01*
X004166Y002441D01*
X004135Y002428D01*
X004040Y002333D01*
X003988Y002208D01*
X003988Y002074D01*
X004040Y001950D01*
X004135Y001854D01*
X004259Y001803D01*
X004394Y001803D01*
X004518Y001854D01*
X004613Y001950D01*
X004664Y002074D01*
X004664Y002208D01*
X004613Y002333D01*
X004518Y002428D01*
X004486Y002441D01*
X004486Y006875D01*
X004486Y007007D01*
X003366Y008127D01*
X003366Y009361D01*
X003398Y009374D01*
X003493Y009470D01*
X003544Y009594D01*
X003544Y009728D01*
X003493Y009853D01*
X003398Y009948D01*
X003274Y009999D01*
X003139Y009999D01*
X003015Y009948D01*
X002948Y009880D02*
X002086Y009880D01*
X002086Y009802D02*
X002899Y009802D01*
X002868Y009723D02*
X002086Y009723D01*
X002086Y009645D02*
X002868Y009645D01*
X002880Y009566D02*
X002086Y009566D01*
X002086Y009488D02*
X002912Y009488D01*
X002980Y009409D02*
X002086Y009409D01*
X002086Y009331D02*
X003046Y009331D01*
X003046Y009252D02*
X002086Y009252D01*
X002038Y009174D02*
X003046Y009174D01*
X003046Y009095D02*
X000946Y009095D01*
X000946Y009016D02*
X003046Y009016D01*
X003046Y008938D02*
X000946Y008938D01*
X000946Y008859D02*
X003046Y008859D01*
X003046Y008781D02*
X000946Y008781D01*
X000946Y008702D02*
X003046Y008702D01*
X003046Y008624D02*
X001811Y008624D01*
X001794Y008631D02*
X001599Y008631D01*
X001419Y008556D01*
X001281Y008419D01*
X001206Y008239D01*
X001206Y008044D01*
X001281Y007864D01*
X001419Y007726D01*
X001599Y007651D01*
X001794Y007651D01*
X001974Y007726D01*
X002112Y007864D01*
X002186Y008044D01*
X002186Y008239D01*
X002112Y008419D01*
X001974Y008556D01*
X001794Y008631D01*
X001985Y008545D02*
X003046Y008545D01*
X003046Y008467D02*
X002064Y008467D01*
X002124Y008388D02*
X003046Y008388D01*
X003046Y008310D02*
X002157Y008310D01*
X002186Y008231D02*
X003046Y008231D01*
X003046Y008153D02*
X002186Y008153D01*
X002186Y008074D02*
X003046Y008074D01*
X003046Y007995D02*
X002166Y007995D01*
X002134Y007917D02*
X003124Y007917D01*
X003203Y007838D02*
X002086Y007838D01*
X002008Y007760D02*
X003281Y007760D01*
X003360Y007681D02*
X001867Y007681D01*
X001874Y007556D02*
X001694Y007631D01*
X001499Y007631D01*
X001319Y007556D01*
X001181Y007419D01*
X001106Y007239D01*
X001106Y007044D01*
X001181Y006864D01*
X001319Y006726D01*
X001499Y006651D01*
X001694Y006651D01*
X001874Y006726D01*
X002012Y006864D01*
X002086Y007044D01*
X002086Y007239D01*
X002012Y007419D01*
X001874Y007556D01*
X001906Y007524D02*
X003517Y007524D01*
X003595Y007446D02*
X001985Y007446D01*
X002033Y007367D02*
X003674Y007367D01*
X003753Y007289D02*
X002066Y007289D01*
X002086Y007210D02*
X003831Y007210D01*
X003910Y007131D02*
X002086Y007131D01*
X002086Y007053D02*
X003988Y007053D01*
X004067Y006974D02*
X002058Y006974D01*
X002025Y006896D02*
X004145Y006896D01*
X004166Y006817D02*
X001965Y006817D01*
X001887Y006739D02*
X004166Y006739D01*
X004166Y006660D02*
X001716Y006660D01*
X001794Y006631D02*
X001599Y006631D01*
X001419Y006556D01*
X001281Y006419D01*
X001206Y006239D01*
X001206Y006044D01*
X001281Y005864D01*
X001419Y005726D01*
X001599Y005651D01*
X001794Y005651D01*
X001974Y005726D01*
X002112Y005864D01*
X002186Y006044D01*
X002186Y006239D01*
X002112Y006419D01*
X001974Y006556D01*
X001794Y006631D01*
X001913Y006582D02*
X004166Y006582D01*
X004166Y006503D02*
X002027Y006503D01*
X002106Y006425D02*
X004166Y006425D01*
X004166Y006346D02*
X002142Y006346D01*
X002174Y006267D02*
X004166Y006267D01*
X004166Y006189D02*
X002186Y006189D01*
X002186Y006110D02*
X004166Y006110D01*
X004166Y006032D02*
X002181Y006032D01*
X002149Y005953D02*
X004166Y005953D01*
X004166Y005875D02*
X002116Y005875D01*
X002044Y005796D02*
X004166Y005796D01*
X004166Y005718D02*
X003374Y005718D01*
X003398Y005708D02*
X003274Y005759D01*
X003139Y005759D01*
X003015Y005708D01*
X002920Y005613D01*
X002868Y005488D01*
X002868Y005354D01*
X002920Y005230D01*
X003015Y005134D01*
X003046Y005121D01*
X003046Y004601D01*
X003015Y004588D01*
X002920Y004493D01*
X002868Y004368D01*
X002868Y004234D01*
X002920Y004110D01*
X003015Y004014D01*
X003139Y003963D01*
X003274Y003963D01*
X003398Y004014D01*
X003493Y004110D01*
X003544Y004234D01*
X003544Y004368D01*
X003493Y004493D01*
X003398Y004588D01*
X003366Y004601D01*
X003366Y005121D01*
X003398Y005134D01*
X003493Y005230D01*
X003544Y005354D01*
X003544Y005488D01*
X003493Y005613D01*
X003398Y005708D01*
X003466Y005639D02*
X004166Y005639D01*
X004166Y005561D02*
X003514Y005561D01*
X003544Y005482D02*
X004166Y005482D01*
X004166Y005404D02*
X003544Y005404D01*
X003532Y005325D02*
X004166Y005325D01*
X004166Y005246D02*
X003500Y005246D01*
X003431Y005168D02*
X004166Y005168D01*
X004166Y005089D02*
X003366Y005089D01*
X003366Y005011D02*
X004166Y005011D01*
X004166Y004932D02*
X003366Y004932D01*
X003366Y004854D02*
X004166Y004854D01*
X004166Y004775D02*
X003366Y004775D01*
X003366Y004697D02*
X004166Y004697D01*
X004166Y004618D02*
X003366Y004618D01*
X003446Y004540D02*
X004166Y004540D01*
X004166Y004461D02*
X003506Y004461D01*
X003539Y004382D02*
X004166Y004382D01*
X004166Y004304D02*
X003544Y004304D01*
X003541Y004225D02*
X004166Y004225D01*
X004166Y004147D02*
X003508Y004147D01*
X003452Y004068D02*
X004166Y004068D01*
X004166Y003990D02*
X003338Y003990D01*
X003074Y003990D02*
X002164Y003990D01*
X002186Y004044D02*
X002112Y003864D01*
X001974Y003726D01*
X001794Y003651D01*
X001599Y003651D01*
X001419Y003726D01*
X001281Y003864D01*
X001206Y004044D01*
X001206Y004239D01*
X001281Y004419D01*
X001419Y004556D01*
X001599Y004631D01*
X001794Y004631D01*
X001974Y004556D01*
X002112Y004419D01*
X002186Y004239D01*
X002186Y004044D01*
X002186Y004068D02*
X002961Y004068D01*
X002904Y004147D02*
X002186Y004147D01*
X002186Y004225D02*
X002872Y004225D01*
X002868Y004304D02*
X002159Y004304D01*
X002127Y004382D02*
X002874Y004382D01*
X002907Y004461D02*
X002069Y004461D01*
X001991Y004540D02*
X002967Y004540D01*
X003046Y004618D02*
X001825Y004618D01*
X001804Y004697D02*
X003046Y004697D01*
X003046Y004775D02*
X001923Y004775D01*
X001874Y004726D02*
X002012Y004864D01*
X002086Y005044D01*
X002086Y005239D01*
X002012Y005419D01*
X001874Y005556D01*
X001694Y005631D01*
X001499Y005631D01*
X001319Y005556D01*
X001181Y005419D01*
X001106Y005239D01*
X001106Y005044D01*
X001181Y004864D01*
X001319Y004726D01*
X001499Y004651D01*
X001694Y004651D01*
X001874Y004726D01*
X002002Y004854D02*
X003046Y004854D01*
X003046Y004932D02*
X002040Y004932D01*
X002073Y005011D02*
X003046Y005011D01*
X003046Y005089D02*
X002086Y005089D01*
X002086Y005168D02*
X002981Y005168D01*
X002913Y005246D02*
X002083Y005246D01*
X002050Y005325D02*
X002880Y005325D01*
X002868Y005404D02*
X002018Y005404D01*
X001948Y005482D02*
X002868Y005482D01*
X002898Y005561D02*
X001864Y005561D01*
X001954Y005718D02*
X003039Y005718D01*
X002946Y005639D02*
X000946Y005639D01*
X000946Y005561D02*
X001329Y005561D01*
X001244Y005482D02*
X000946Y005482D01*
X000946Y005404D02*
X001175Y005404D01*
X001142Y005325D02*
X000946Y005325D01*
X000946Y005246D02*
X001110Y005246D01*
X001106Y005168D02*
X000946Y005168D01*
X000946Y005089D02*
X001106Y005089D01*
X001120Y005011D02*
X000946Y005011D01*
X000946Y004932D02*
X001152Y004932D01*
X001191Y004854D02*
X000946Y004854D01*
X000946Y004775D02*
X001269Y004775D01*
X001389Y004697D02*
X000946Y004697D01*
X000946Y004618D02*
X001567Y004618D01*
X001402Y004540D02*
X000946Y004540D01*
X000946Y004461D02*
X001323Y004461D01*
X001266Y004382D02*
X000946Y004382D01*
X000946Y004304D02*
X001233Y004304D01*
X001206Y004225D02*
X000946Y004225D01*
X000946Y004147D02*
X001206Y004147D01*
X001206Y004068D02*
X000946Y004068D01*
X000946Y003990D02*
X001229Y003990D01*
X001261Y003911D02*
X000946Y003911D01*
X000946Y003833D02*
X001312Y003833D01*
X001390Y003754D02*
X000946Y003754D01*
X000946Y003676D02*
X001540Y003676D01*
X001499Y003631D02*
X001319Y003556D01*
X001181Y003419D01*
X001106Y003239D01*
X001106Y003044D01*
X001181Y002864D01*
X001319Y002726D01*
X001499Y002651D01*
X001694Y002651D01*
X001874Y002726D01*
X002012Y002864D01*
X002086Y003044D01*
X002086Y003239D01*
X002012Y003419D01*
X001874Y003556D01*
X001694Y003631D01*
X001499Y003631D01*
X001417Y003597D02*
X000946Y003597D01*
X000946Y003518D02*
X001281Y003518D01*
X001202Y003440D02*
X000946Y003440D01*
X000946Y003361D02*
X001157Y003361D01*
X001125Y003283D02*
X000946Y003283D01*
X000946Y003204D02*
X001106Y003204D01*
X001106Y003126D02*
X000946Y003126D01*
X000946Y003047D02*
X001106Y003047D01*
X001137Y002969D02*
X000946Y002969D01*
X000946Y002890D02*
X001170Y002890D01*
X001233Y002812D02*
X000946Y002812D01*
X000946Y002733D02*
X001311Y002733D01*
X001491Y002654D02*
X000946Y002654D01*
X000946Y002576D02*
X001466Y002576D01*
X001419Y002556D02*
X001281Y002419D01*
X000946Y002419D01*
X000946Y002497D02*
X001360Y002497D01*
X001419Y002556D02*
X001599Y002631D01*
X001794Y002631D01*
X001974Y002556D01*
X002112Y002419D01*
X002186Y002239D01*
X002186Y002044D01*
X002112Y001864D01*
X001974Y001726D01*
X001794Y001651D01*
X001599Y001651D01*
X001419Y001726D01*
X001281Y001864D01*
X001206Y002044D01*
X001206Y002239D01*
X001281Y002419D01*
X001248Y002340D02*
X000946Y002340D01*
X000946Y002262D02*
X001216Y002262D01*
X001206Y002183D02*
X000946Y002183D01*
X000946Y002105D02*
X001206Y002105D01*
X001214Y002026D02*
X000946Y002026D01*
X000946Y001948D02*
X001246Y001948D01*
X001279Y001869D02*
X000946Y001869D01*
X000946Y001791D02*
X001354Y001791D01*
X001452Y001712D02*
X000946Y001712D01*
X000946Y001633D02*
X003270Y001633D01*
X003285Y001644D02*
X003227Y001602D01*
X003175Y001551D01*
X003133Y001492D01*
X003100Y001428D01*
X003078Y001359D01*
X003067Y001291D01*
X003486Y001291D01*
X003486Y001211D01*
X003067Y001211D01*
X003078Y001143D01*
X003100Y001074D01*
X003133Y001010D01*
X003175Y000951D01*
X003227Y000900D01*
X003285Y000858D01*
X003350Y000825D01*
X003419Y000802D01*
X003486Y000792D01*
X003486Y001211D01*
X003566Y001211D01*
X003566Y000792D01*
X003634Y000802D01*
X003703Y000825D01*
X003767Y000858D01*
X003826Y000900D01*
X003877Y000951D01*
X003920Y001010D01*
X003953Y001074D01*
X003975Y001143D01*
X003986Y001211D01*
X003566Y001211D01*
X003566Y001291D01*
X003486Y001291D01*
X003486Y001710D01*
X003419Y001700D01*
X003350Y001677D01*
X003285Y001644D01*
X003180Y001555D02*
X002086Y001555D01*
X002086Y001561D02*
X002016Y001631D01*
X001177Y001631D01*
X001106Y001561D01*
X001106Y000721D01*
X001177Y000651D01*
X002016Y000651D01*
X002086Y000721D01*
X002086Y001561D01*
X002086Y001476D02*
X003125Y001476D01*
X003090Y001398D02*
X002086Y001398D01*
X002086Y001319D02*
X003071Y001319D01*
X003075Y001162D02*
X002086Y001162D01*
X002086Y001084D02*
X003097Y001084D01*
X003136Y001005D02*
X002086Y001005D01*
X002086Y000927D02*
X003200Y000927D01*
X003304Y000848D02*
X002086Y000848D01*
X002086Y000769D02*
X015386Y000769D01*
X015386Y000691D02*
X002056Y000691D01*
X002086Y001241D02*
X003486Y001241D01*
X003486Y001319D02*
X003566Y001319D01*
X003566Y001291D02*
X003566Y001710D01*
X003634Y001700D01*
X003703Y001677D01*
X003767Y001644D01*
X003826Y001602D01*
X003877Y001551D01*
X003920Y001492D01*
X003953Y001428D01*
X003975Y001359D01*
X003986Y001291D01*
X003566Y001291D01*
X003566Y001241D02*
X006046Y001241D01*
X006046Y001211D02*
X006046Y001291D01*
X005627Y001291D01*
X005638Y001359D01*
X005660Y001428D01*
X005693Y001492D01*
X005735Y001551D01*
X005787Y001602D01*
X005845Y001644D01*
X005910Y001677D01*
X005979Y001700D01*
X006046Y001710D01*
X006046Y001291D01*
X006126Y001291D01*
X006126Y001710D01*
X006194Y001700D01*
X006263Y001677D01*
X006327Y001644D01*
X006386Y001602D01*
X006437Y001551D01*
X006480Y001492D01*
X006513Y001428D01*
X006535Y001359D01*
X006546Y001291D01*
X006126Y001291D01*
X006126Y001211D01*
X006126Y000792D01*
X006194Y000802D01*
X006263Y000825D01*
X006327Y000858D01*
X006386Y000900D01*
X006437Y000951D01*
X006480Y001010D01*
X006513Y001074D01*
X006535Y001143D01*
X006546Y001211D01*
X006126Y001211D01*
X006046Y001211D01*
X005627Y001211D01*
X005638Y001143D01*
X005660Y001074D01*
X005693Y001010D01*
X005735Y000951D01*
X005787Y000900D01*
X005845Y000858D01*
X005910Y000825D01*
X005979Y000802D01*
X006046Y000792D01*
X006046Y001211D01*
X006046Y001162D02*
X006126Y001162D01*
X006126Y001084D02*
X006046Y001084D01*
X006046Y001005D02*
X006126Y001005D01*
X006126Y000927D02*
X006046Y000927D01*
X006046Y000848D02*
X006126Y000848D01*
X006308Y000848D02*
X015386Y000848D01*
X015386Y000927D02*
X006412Y000927D01*
X006476Y001005D02*
X009156Y001005D01*
X009126Y001035D02*
X009220Y000941D01*
X011860Y000941D01*
X011993Y000941D01*
X012313Y001261D01*
X012406Y001355D01*
X012406Y001359D01*
X012564Y001201D01*
X012929Y001201D01*
X013186Y001459D01*
X013186Y001756D01*
X013429Y001981D01*
X013464Y001981D01*
X013306Y001823D01*
X013306Y001459D01*
X013564Y001201D01*
X013929Y001201D01*
X014186Y001459D01*
X014186Y001823D01*
X014028Y001981D01*
X014153Y001981D01*
X014566Y002395D01*
X014566Y002527D01*
X014566Y013115D01*
X014566Y013247D01*
X014368Y013446D01*
X014416Y013564D01*
X014416Y013759D01*
X014342Y013939D01*
X014204Y014076D01*
X014024Y014151D01*
X013829Y014151D01*
X013649Y014076D01*
X013511Y013939D01*
X013436Y013759D01*
X013436Y013564D01*
X013511Y013384D01*
X013649Y013246D01*
X013829Y013171D01*
X014024Y013171D01*
X014141Y013220D01*
X014246Y013115D01*
X014246Y002527D01*
X014186Y002467D01*
X014186Y002823D01*
X013929Y003081D01*
X013564Y003081D01*
X013446Y002963D01*
X013446Y009007D01*
X013353Y009101D01*
X013353Y009101D01*
X011593Y010861D01*
X011460Y010861D01*
X010117Y010861D01*
X010198Y010894D01*
X010293Y010990D01*
X010344Y011114D01*
X010344Y011248D01*
X010308Y011336D01*
X010886Y011915D01*
X010886Y012047D01*
X010886Y012110D01*
X010920Y012030D01*
X011015Y011934D01*
X011046Y011921D01*
X011046Y011548D01*
X011015Y011535D01*
X010920Y011440D01*
X010868Y011316D01*
X010868Y011181D01*
X010920Y011057D01*
X011015Y010962D01*
X011139Y010910D01*
X011274Y010910D01*
X011398Y010962D01*
X011493Y011057D01*
X011529Y011144D01*
X011560Y011070D01*
X011655Y010974D01*
X011779Y010923D01*
X011914Y010923D01*
X012038Y010974D01*
X012133Y011070D01*
X012184Y011194D01*
X012184Y011328D01*
X012133Y011453D01*
X012038Y011548D01*
X012006Y011561D01*
X012006Y011921D01*
X012038Y011934D01*
X012133Y012030D01*
X012184Y012154D01*
X012184Y012288D01*
X012133Y012413D01*
X012038Y012508D01*
X011914Y012559D01*
X011779Y012559D01*
X011655Y012508D01*
X011560Y012413D01*
X011526Y012332D01*
X011493Y012413D01*
X011398Y012508D01*
X011274Y012559D01*
X011139Y012559D01*
X011015Y012508D01*
X010920Y012413D01*
X010886Y012332D01*
X010886Y012801D01*
X010918Y012814D01*
X011013Y012910D01*
X011064Y013034D01*
X011064Y013168D01*
X011013Y013293D01*
X010918Y013388D01*
X010794Y013439D01*
X010659Y013439D01*
X010535Y013388D01*
X010440Y013293D01*
X010388Y013168D01*
X010388Y013034D01*
X010440Y012910D01*
X010535Y012814D01*
X010566Y012801D01*
X010566Y012047D01*
X010038Y011519D01*
X009939Y011519D01*
X009815Y011468D01*
X009720Y011373D01*
X009013Y011373D01*
X008918Y011468D01*
X008886Y011481D01*
X008886Y011807D01*
X008793Y011901D01*
X007451Y013242D01*
X007464Y013274D01*
X007464Y013408D01*
X007413Y013533D01*
X007318Y013628D01*
X007194Y013679D01*
X007059Y013679D01*
X006935Y013628D01*
X006840Y013533D01*
X006788Y013408D01*
X006788Y013274D01*
X006840Y013150D01*
X006935Y013054D01*
X007059Y013003D01*
X007194Y013003D01*
X007225Y013016D01*
X008566Y011675D01*
X008566Y011481D01*
X008535Y011468D01*
X008440Y011373D01*
X007366Y011373D01*
X007366Y011451D02*
X008518Y011451D01*
X008566Y011530D02*
X007387Y011530D01*
X007472Y011608D02*
X008566Y011608D01*
X008554Y011687D02*
X007517Y011687D01*
X007544Y011766D02*
X008476Y011766D01*
X008397Y011844D02*
X007544Y011844D01*
X007530Y011923D02*
X008319Y011923D01*
X008240Y012001D02*
X007498Y012001D01*
X007426Y012080D02*
X008161Y012080D01*
X008083Y012158D02*
X007276Y012158D01*
X007137Y012158D02*
X007095Y012158D01*
X007017Y012237D02*
X008004Y012237D01*
X007926Y012315D02*
X006938Y012315D01*
X006860Y012394D02*
X007847Y012394D01*
X007769Y012472D02*
X006781Y012472D01*
X006703Y012551D02*
X007690Y012551D01*
X007612Y012629D02*
X006624Y012629D01*
X006566Y012708D02*
X007533Y012708D01*
X007455Y012787D02*
X006566Y012787D01*
X006566Y012865D02*
X007376Y012865D01*
X007297Y012944D02*
X006566Y012944D01*
X006566Y013022D02*
X007013Y013022D01*
X006888Y013101D02*
X006566Y013101D01*
X006566Y013179D02*
X006827Y013179D01*
X006795Y013258D02*
X006566Y013258D01*
X006566Y013336D02*
X006788Y013336D01*
X006791Y013415D02*
X006566Y013415D01*
X006566Y013493D02*
X006823Y013493D01*
X006879Y013572D02*
X006566Y013572D01*
X006566Y013651D02*
X006990Y013651D01*
X007263Y013651D02*
X009352Y013651D01*
X009370Y013693D02*
X009318Y013568D01*
X009318Y013434D01*
X009370Y013310D01*
X009456Y013223D01*
X009456Y012659D01*
X009370Y012573D01*
X009318Y012448D01*
X009318Y012314D01*
X009370Y012190D01*
X009465Y012094D01*
X009589Y012043D01*
X009724Y012043D01*
X009848Y012094D01*
X009943Y012190D01*
X009994Y012314D01*
X009994Y012448D01*
X009943Y012573D01*
X009856Y012659D01*
X009856Y013223D01*
X009943Y013310D01*
X009994Y013434D01*
X009994Y013568D01*
X009943Y013693D01*
X009848Y013788D01*
X009724Y013839D01*
X009589Y013839D01*
X009465Y013788D01*
X009370Y013693D01*
X009406Y013729D02*
X006566Y013729D01*
X006566Y013808D02*
X009513Y013808D01*
X009404Y014011D02*
X009584Y014086D01*
X009722Y014224D01*
X009796Y014404D01*
X009796Y014599D01*
X009722Y014779D01*
X009584Y014916D01*
X009404Y014991D01*
X009209Y014991D01*
X009029Y014916D01*
X008891Y014779D01*
X008816Y014599D01*
X008816Y014404D01*
X008891Y014224D01*
X009029Y014086D01*
X009209Y014011D01*
X009404Y014011D01*
X009481Y014043D02*
X013616Y014043D01*
X013537Y013965D02*
X006566Y013965D01*
X006566Y014043D02*
X008131Y014043D01*
X008209Y014011D02*
X008029Y014086D01*
X007891Y014224D01*
X007816Y014404D01*
X007816Y014599D01*
X007891Y014779D01*
X008029Y014916D01*
X008209Y014991D01*
X008404Y014991D01*
X008584Y014916D01*
X008722Y014779D01*
X008796Y014599D01*
X008796Y014404D01*
X008722Y014224D01*
X008584Y014086D01*
X008404Y014011D01*
X008209Y014011D01*
X007993Y014122D02*
X006566Y014122D01*
X006566Y014200D02*
X007914Y014200D01*
X007868Y014279D02*
X006622Y014279D01*
X006696Y014357D02*
X007835Y014357D01*
X007816Y014436D02*
X006729Y014436D01*
X006744Y014515D02*
X007816Y014515D01*
X007816Y014593D02*
X006744Y014593D01*
X006718Y014672D02*
X007847Y014672D01*
X007879Y014750D02*
X006675Y014750D01*
X006595Y014829D02*
X007941Y014829D01*
X008019Y014907D02*
X002116Y014907D01*
X002149Y014829D02*
X006217Y014829D01*
X006137Y014750D02*
X005552Y014750D01*
X005634Y014672D02*
X006094Y014672D01*
X006068Y014593D02*
X005678Y014593D01*
X005704Y014515D02*
X006068Y014515D01*
X006084Y014436D02*
X005704Y014436D01*
X005689Y014357D02*
X006116Y014357D01*
X006190Y014279D02*
X005657Y014279D01*
X005584Y014200D02*
X006246Y014200D01*
X006246Y014122D02*
X005526Y014122D01*
X005526Y014043D02*
X006246Y014043D01*
X006246Y013965D02*
X005526Y013965D01*
X005526Y013886D02*
X006246Y013886D01*
X006246Y013808D02*
X005526Y013808D01*
X005526Y013729D02*
X006246Y013729D01*
X006246Y013651D02*
X005526Y013651D01*
X005526Y013572D02*
X006246Y013572D01*
X006246Y013493D02*
X005526Y013493D01*
X005526Y013415D02*
X006246Y013415D01*
X006246Y013336D02*
X005526Y013336D01*
X005526Y013258D02*
X006246Y013258D01*
X006246Y013179D02*
X005526Y013179D01*
X005526Y013101D02*
X006246Y013101D01*
X006246Y013022D02*
X005526Y013022D01*
X005526Y012944D02*
X006246Y012944D01*
X006246Y012865D02*
X005526Y012865D01*
X005526Y012787D02*
X006246Y012787D01*
X006246Y012708D02*
X005526Y012708D01*
X005526Y012629D02*
X006246Y012629D01*
X006250Y012551D02*
X005526Y012551D01*
X005526Y012472D02*
X006329Y012472D01*
X006407Y012394D02*
X005526Y012394D01*
X005526Y012315D02*
X006486Y012315D01*
X006564Y012237D02*
X005526Y012237D01*
X005526Y012158D02*
X006643Y012158D01*
X006721Y012080D02*
X005526Y012080D01*
X005526Y012001D02*
X006800Y012001D01*
X006879Y011923D02*
X005526Y011923D01*
X005526Y011844D02*
X006868Y011844D01*
X006868Y011766D02*
X005526Y011766D01*
X005526Y011687D02*
X006896Y011687D01*
X006941Y011608D02*
X005526Y011608D01*
X005526Y011530D02*
X005877Y011530D01*
X005799Y011451D02*
X005526Y011451D01*
X005526Y011373D02*
X005767Y011373D01*
X005748Y011294D02*
X005526Y011294D01*
X005526Y011216D02*
X005748Y011216D01*
X005772Y011137D02*
X005526Y011137D01*
X005526Y011059D02*
X005811Y011059D01*
X005889Y010980D02*
X005526Y010980D01*
X005526Y010902D02*
X006220Y010902D01*
X006298Y010823D02*
X005526Y010823D01*
X005526Y010744D02*
X006377Y010744D01*
X006455Y010666D02*
X005560Y010666D01*
X005638Y010587D02*
X006534Y010587D01*
X006566Y010509D02*
X005679Y010509D01*
X005704Y010430D02*
X006566Y010430D01*
X006566Y010352D02*
X005704Y010352D01*
X006025Y010273D02*
X006566Y010273D01*
X006566Y010195D02*
X006111Y010195D01*
X006156Y010116D02*
X006566Y010116D01*
X006566Y010038D02*
X006184Y010038D01*
X006184Y009959D02*
X006566Y009959D01*
X006566Y009880D02*
X006171Y009880D01*
X006138Y009802D02*
X006566Y009802D01*
X006566Y009723D02*
X006067Y009723D01*
X005926Y009645D02*
X006566Y009645D01*
X006566Y009566D02*
X005926Y009566D01*
X005926Y009488D02*
X006566Y009488D01*
X006566Y009409D02*
X005926Y009409D01*
X005926Y009331D02*
X006566Y009331D01*
X006566Y009252D02*
X005926Y009252D01*
X005926Y009174D02*
X006566Y009174D01*
X006566Y009095D02*
X005926Y009095D01*
X005926Y009016D02*
X006566Y009016D01*
X006566Y008938D02*
X005926Y008938D01*
X005926Y008859D02*
X006566Y008859D01*
X006566Y008781D02*
X005926Y008781D01*
X005926Y008702D02*
X006566Y008702D01*
X006566Y008624D02*
X005926Y008624D01*
X005926Y008545D02*
X006566Y008545D01*
X006566Y008467D02*
X005926Y008467D01*
X005926Y008388D02*
X006566Y008388D01*
X006509Y008310D02*
X005926Y008310D01*
X005926Y008231D02*
X006430Y008231D01*
X006351Y008153D02*
X005926Y008153D01*
X005926Y008074D02*
X006273Y008074D01*
X006194Y007995D02*
X005926Y007995D01*
X005989Y007917D02*
X006116Y007917D01*
X006086Y007838D02*
X006059Y007838D01*
X006246Y007821D02*
X006726Y008301D01*
X006726Y010621D01*
X006086Y011261D01*
X006406Y011373D02*
X007046Y011373D01*
X007046Y011451D02*
X006373Y011451D01*
X006296Y011530D02*
X007026Y011530D01*
X007046Y011294D02*
X006424Y011294D01*
X006424Y011216D02*
X007046Y011216D01*
X007046Y011137D02*
X006436Y011137D01*
X006515Y011059D02*
X007046Y011059D01*
X007046Y010980D02*
X006594Y010980D01*
X006672Y010902D02*
X007046Y010902D01*
X007046Y010823D02*
X006751Y010823D01*
X006829Y010744D02*
X007046Y010744D01*
X007046Y010666D02*
X006886Y010666D01*
X006886Y010587D02*
X007046Y010587D01*
X007046Y010509D02*
X006886Y010509D01*
X006886Y010430D02*
X007046Y010430D01*
X007046Y010352D02*
X006886Y010352D01*
X006886Y010273D02*
X007046Y010273D01*
X007046Y010195D02*
X006886Y010195D01*
X006886Y010116D02*
X007046Y010116D01*
X007046Y010038D02*
X006886Y010038D01*
X006886Y009959D02*
X007046Y009959D01*
X007046Y009880D02*
X006886Y009880D01*
X006886Y009802D02*
X007046Y009802D01*
X007046Y009723D02*
X006886Y009723D01*
X006886Y009645D02*
X007046Y009645D01*
X007046Y009566D02*
X006886Y009566D01*
X006886Y009488D02*
X007046Y009488D01*
X007046Y009409D02*
X006886Y009409D01*
X006886Y009331D02*
X007046Y009331D01*
X007046Y009252D02*
X006886Y009252D01*
X006886Y009174D02*
X007046Y009174D01*
X007046Y009095D02*
X006886Y009095D01*
X006886Y009016D02*
X007046Y009016D01*
X007046Y008938D02*
X006886Y008938D01*
X006886Y008859D02*
X006966Y008859D01*
X006907Y008781D02*
X006886Y008781D01*
X006886Y008467D02*
X006904Y008467D01*
X006886Y008388D02*
X006961Y008388D01*
X006886Y008310D02*
X007075Y008310D01*
X006883Y008231D02*
X008166Y008231D01*
X008166Y008153D02*
X006804Y008153D01*
X006725Y008074D02*
X008166Y008074D01*
X008166Y007995D02*
X006647Y007995D01*
X006568Y007917D02*
X008166Y007917D01*
X008166Y007838D02*
X006490Y007838D01*
X006411Y007760D02*
X008166Y007760D01*
X008166Y007681D02*
X006944Y007681D01*
X007017Y007603D02*
X008166Y007603D01*
X008166Y007524D02*
X007050Y007524D01*
X007064Y007446D02*
X008166Y007446D01*
X008166Y007367D02*
X007064Y007367D01*
X007037Y007289D02*
X008166Y007289D01*
X008166Y007210D02*
X007656Y007210D01*
X007638Y007228D02*
X007514Y007279D01*
X007379Y007279D01*
X007255Y007228D01*
X007160Y007133D01*
X007108Y007008D01*
X007108Y006874D01*
X007160Y006750D01*
X007255Y006654D01*
X007286Y006641D01*
X007286Y005801D01*
X007255Y005788D01*
X007160Y005693D01*
X007108Y005568D01*
X007108Y005434D01*
X007160Y005310D01*
X007255Y005214D01*
X007379Y005163D01*
X007514Y005163D01*
X007638Y005214D01*
X007733Y005310D01*
X007784Y005434D01*
X007784Y005568D01*
X007733Y005693D01*
X007638Y005788D01*
X007606Y005801D01*
X007606Y006641D01*
X007638Y006654D01*
X007733Y006750D01*
X007784Y006874D01*
X007784Y007008D01*
X007733Y007133D01*
X007638Y007228D01*
X007733Y007131D02*
X008166Y007131D01*
X008166Y007053D02*
X007766Y007053D01*
X007784Y006974D02*
X008166Y006974D01*
X008166Y006896D02*
X007784Y006896D01*
X007761Y006817D02*
X008166Y006817D01*
X008166Y006739D02*
X007722Y006739D01*
X007644Y006660D02*
X008166Y006660D01*
X008166Y006582D02*
X007606Y006582D01*
X007606Y006503D02*
X008166Y006503D01*
X008166Y006425D02*
X007606Y006425D01*
X007606Y006346D02*
X008166Y006346D01*
X008166Y006267D02*
X007606Y006267D01*
X007606Y006189D02*
X008166Y006189D01*
X008166Y006110D02*
X007606Y006110D01*
X007606Y006032D02*
X008166Y006032D01*
X008166Y005953D02*
X007606Y005953D01*
X007606Y005875D02*
X008166Y005875D01*
X008166Y005796D02*
X007617Y005796D01*
X007708Y005718D02*
X008166Y005718D01*
X008166Y005639D02*
X007755Y005639D01*
X007784Y005561D02*
X008166Y005561D01*
X008166Y005482D02*
X007784Y005482D01*
X007772Y005404D02*
X008166Y005404D01*
X008166Y005325D02*
X007739Y005325D01*
X007670Y005246D02*
X008166Y005246D01*
X008166Y005168D02*
X007525Y005168D01*
X007367Y005168D02*
X006406Y005168D01*
X006406Y005246D02*
X007223Y005246D01*
X007153Y005325D02*
X006406Y005325D01*
X006406Y005404D02*
X007121Y005404D01*
X007108Y005482D02*
X006406Y005482D01*
X006406Y005561D02*
X007108Y005561D01*
X007138Y005639D02*
X006942Y005639D01*
X007016Y005718D02*
X007185Y005718D01*
X007275Y005796D02*
X007049Y005796D01*
X007064Y005875D02*
X007286Y005875D01*
X007286Y005953D02*
X007064Y005953D01*
X007038Y006032D02*
X007286Y006032D01*
X007286Y006110D02*
X006995Y006110D01*
X006915Y006189D02*
X007286Y006189D01*
X007286Y006267D02*
X006886Y006267D01*
X006886Y006346D02*
X007286Y006346D01*
X007286Y006425D02*
X006886Y006425D01*
X006886Y006503D02*
X007286Y006503D01*
X007286Y006582D02*
X006886Y006582D01*
X006886Y006660D02*
X007249Y006660D01*
X007170Y006739D02*
X006886Y006739D01*
X006886Y006817D02*
X007132Y006817D01*
X007108Y006896D02*
X006886Y006896D01*
X006886Y006974D02*
X007108Y006974D01*
X007127Y007053D02*
X006886Y007053D01*
X006911Y007131D02*
X007159Y007131D01*
X007237Y007210D02*
X006993Y007210D01*
X006726Y007421D02*
X006726Y005901D01*
X006510Y005639D02*
X006406Y005639D01*
X006406Y005718D02*
X006436Y005718D01*
X006086Y005718D02*
X005774Y005718D01*
X005798Y005708D02*
X005674Y005759D01*
X005539Y005759D01*
X005415Y005708D01*
X005320Y005613D01*
X005268Y005488D01*
X005268Y005354D01*
X005320Y005230D01*
X005406Y005143D01*
X005406Y004419D01*
X005320Y004333D01*
X005268Y004208D01*
X005268Y004074D01*
X005320Y003950D01*
X005415Y003854D01*
X005539Y003803D01*
X005674Y003803D01*
X005798Y003854D01*
X005893Y003950D01*
X005944Y004074D01*
X005944Y004208D01*
X005893Y004333D01*
X005806Y004419D01*
X005806Y005143D01*
X005893Y005230D01*
X005944Y005354D01*
X005944Y005488D01*
X005893Y005613D01*
X005798Y005708D01*
X005866Y005639D02*
X006086Y005639D01*
X006086Y005561D02*
X005914Y005561D01*
X005944Y005482D02*
X006086Y005482D01*
X006086Y005404D02*
X005944Y005404D01*
X005932Y005325D02*
X006086Y005325D01*
X006086Y005246D02*
X005900Y005246D01*
X005831Y005168D02*
X006086Y005168D01*
X006086Y005089D02*
X005806Y005089D01*
X005806Y005011D02*
X006086Y005011D01*
X006086Y004932D02*
X005806Y004932D01*
X005806Y004854D02*
X006086Y004854D01*
X006086Y004775D02*
X005806Y004775D01*
X005806Y004697D02*
X006086Y004697D01*
X006086Y004618D02*
X005806Y004618D01*
X005806Y004540D02*
X006086Y004540D01*
X006086Y004461D02*
X005806Y004461D01*
X005843Y004382D02*
X006086Y004382D01*
X006086Y004304D02*
X005905Y004304D01*
X005937Y004225D02*
X006086Y004225D01*
X006086Y004147D02*
X005944Y004147D01*
X005942Y004068D02*
X006086Y004068D01*
X006086Y003990D02*
X005910Y003990D01*
X005855Y003911D02*
X006018Y003911D01*
X005951Y003833D02*
X005745Y003833D01*
X005919Y003754D02*
X004486Y003754D01*
X004486Y003676D02*
X005908Y003676D01*
X005908Y003597D02*
X004486Y003597D01*
X004486Y003518D02*
X005939Y003518D01*
X005924Y003440D02*
X004486Y003440D01*
X004486Y003361D02*
X005794Y003361D01*
X005716Y003283D02*
X004486Y003283D01*
X004486Y003204D02*
X005682Y003204D01*
X005649Y003126D02*
X004486Y003126D01*
X004486Y003047D02*
X005646Y003047D01*
X005646Y002969D02*
X004486Y002969D01*
X004486Y002890D02*
X005668Y002890D01*
X005701Y002812D02*
X004486Y002812D01*
X004486Y002733D02*
X005762Y002733D01*
X005846Y002654D02*
X004486Y002654D01*
X004486Y002576D02*
X006526Y002576D01*
X006526Y002654D02*
X006327Y002654D01*
X006410Y002733D02*
X006526Y002733D01*
X006526Y002812D02*
X006472Y002812D01*
X006504Y002890D02*
X006526Y002890D01*
X006526Y002969D02*
X006526Y002969D01*
X006526Y003047D02*
X006526Y003047D01*
X006523Y003126D02*
X006526Y003126D01*
X006526Y003204D02*
X006491Y003204D01*
X006457Y003283D02*
X006526Y003283D01*
X006526Y003361D02*
X006406Y003361D01*
X006503Y003440D02*
X006526Y003440D01*
X006246Y003661D02*
X006246Y007821D01*
X006406Y007681D02*
X006508Y007681D01*
X006436Y007603D02*
X006406Y007603D01*
X006086Y007524D02*
X006076Y007524D01*
X006086Y007446D02*
X006029Y007446D01*
X006086Y007367D02*
X005940Y007367D01*
X006086Y007289D02*
X005725Y007289D01*
X005766Y007210D02*
X006086Y007210D01*
X006086Y007131D02*
X005766Y007131D01*
X005766Y007053D02*
X006086Y007053D01*
X006086Y006974D02*
X005766Y006974D01*
X005766Y006896D02*
X006086Y006896D01*
X006086Y006817D02*
X005766Y006817D01*
X005766Y006739D02*
X006086Y006739D01*
X006086Y006660D02*
X005805Y006660D01*
X005884Y006582D02*
X006086Y006582D01*
X006086Y006503D02*
X005922Y006503D01*
X005944Y006425D02*
X006086Y006425D01*
X006086Y006346D02*
X005944Y006346D01*
X005925Y006267D02*
X006086Y006267D01*
X006086Y006189D02*
X005892Y006189D01*
X005814Y006110D02*
X006086Y006110D01*
X006086Y006032D02*
X004486Y006032D01*
X004486Y006110D02*
X005399Y006110D01*
X005320Y006189D02*
X004486Y006189D01*
X004486Y006267D02*
X005287Y006267D01*
X005268Y006346D02*
X004486Y006346D01*
X004486Y006425D02*
X005268Y006425D01*
X005291Y006503D02*
X004486Y006503D01*
X004486Y006582D02*
X005329Y006582D01*
X005407Y006660D02*
X004486Y006660D01*
X004486Y006739D02*
X005446Y006739D01*
X005446Y006817D02*
X004486Y006817D01*
X004486Y006896D02*
X005446Y006896D01*
X005446Y006974D02*
X004486Y006974D01*
X004441Y007053D02*
X005446Y007053D01*
X005430Y007131D02*
X004362Y007131D01*
X004284Y007210D02*
X005351Y007210D01*
X005273Y007289D02*
X004205Y007289D01*
X004127Y007367D02*
X005194Y007367D01*
X005115Y007446D02*
X004048Y007446D01*
X003969Y007524D02*
X005037Y007524D01*
X004958Y007603D02*
X003891Y007603D01*
X003812Y007681D02*
X004880Y007681D01*
X004801Y007760D02*
X003734Y007760D01*
X003655Y007838D02*
X004723Y007838D01*
X004644Y007917D02*
X003577Y007917D01*
X003498Y007995D02*
X004566Y007995D01*
X004487Y008074D02*
X003420Y008074D01*
X003366Y008153D02*
X004486Y008153D01*
X004486Y008231D02*
X003366Y008231D01*
X003366Y008310D02*
X004486Y008310D01*
X004486Y008388D02*
X003366Y008388D01*
X003366Y008467D02*
X004486Y008467D01*
X004486Y008545D02*
X003366Y008545D01*
X003366Y008624D02*
X004486Y008624D01*
X004486Y008702D02*
X003366Y008702D01*
X003366Y008781D02*
X004486Y008781D01*
X004486Y008859D02*
X003366Y008859D01*
X003366Y008938D02*
X004486Y008938D01*
X004486Y009016D02*
X003366Y009016D01*
X003366Y009095D02*
X004486Y009095D01*
X004486Y009174D02*
X003366Y009174D01*
X003366Y009252D02*
X004486Y009252D01*
X004419Y009331D02*
X003366Y009331D01*
X003433Y009409D02*
X004351Y009409D01*
X004319Y009488D02*
X003500Y009488D01*
X003533Y009566D02*
X004308Y009566D01*
X004308Y009645D02*
X003544Y009645D01*
X003544Y009723D02*
X004339Y009723D01*
X004389Y009802D02*
X003514Y009802D01*
X003465Y009880D02*
X004486Y009880D01*
X004646Y009581D02*
X004646Y008141D01*
X005606Y007181D01*
X005606Y006381D01*
X006086Y005953D02*
X004486Y005953D01*
X004486Y005875D02*
X006086Y005875D01*
X006086Y005796D02*
X004486Y005796D01*
X004486Y005718D02*
X005439Y005718D01*
X005346Y005639D02*
X004486Y005639D01*
X004486Y005561D02*
X005298Y005561D01*
X005268Y005482D02*
X004486Y005482D01*
X004486Y005404D02*
X005268Y005404D01*
X005280Y005325D02*
X004486Y005325D01*
X004486Y005246D02*
X005313Y005246D01*
X005381Y005168D02*
X004486Y005168D01*
X004486Y005089D02*
X005406Y005089D01*
X005406Y005011D02*
X004486Y005011D01*
X004486Y004932D02*
X005406Y004932D01*
X005406Y004854D02*
X004486Y004854D01*
X004486Y004775D02*
X005406Y004775D01*
X005406Y004697D02*
X004486Y004697D01*
X004486Y004618D02*
X005406Y004618D01*
X005406Y004540D02*
X004486Y004540D01*
X004486Y004461D02*
X005406Y004461D01*
X005369Y004382D02*
X004486Y004382D01*
X004486Y004304D02*
X005308Y004304D01*
X005275Y004225D02*
X004486Y004225D01*
X004486Y004147D02*
X005268Y004147D01*
X005270Y004068D02*
X004486Y004068D01*
X004486Y003990D02*
X005303Y003990D01*
X005358Y003911D02*
X004486Y003911D01*
X004486Y003833D02*
X005467Y003833D01*
X006406Y004304D02*
X006428Y004304D01*
X006406Y004382D02*
X006489Y004382D01*
X006406Y004461D02*
X006615Y004461D01*
X006837Y004461D02*
X008166Y004461D01*
X008166Y004382D02*
X006963Y004382D01*
X007025Y004304D02*
X008103Y004304D01*
X008166Y004367D02*
X007140Y003341D01*
X007046Y003247D01*
X007046Y002287D01*
X007046Y002155D01*
X007342Y001859D01*
X007306Y001823D01*
X007306Y001459D01*
X007564Y001201D01*
X007929Y001201D01*
X008186Y001459D01*
X008186Y001823D01*
X007929Y002081D01*
X007573Y002081D01*
X007366Y002287D01*
X007366Y002371D01*
X007556Y002181D01*
X007706Y002181D01*
X007706Y002601D01*
X007786Y002601D01*
X007786Y002181D01*
X007937Y002181D01*
X008206Y002451D01*
X008206Y002601D01*
X007786Y002601D01*
X007786Y002681D01*
X007706Y002681D01*
X007706Y003101D01*
X007556Y003101D01*
X007366Y002912D01*
X007366Y003115D01*
X008393Y004141D01*
X008486Y004235D01*
X008486Y006383D01*
X008535Y006334D01*
X008659Y006283D01*
X008794Y006283D01*
X008868Y006314D01*
X008868Y006234D01*
X008920Y006110D01*
X009015Y006014D01*
X009139Y005963D01*
X009274Y005963D01*
X009398Y006014D01*
X009493Y006110D01*
X009686Y006110D01*
X009686Y006032D02*
X009415Y006032D01*
X009493Y006110D02*
X009544Y006234D01*
X009544Y006368D01*
X009493Y006493D01*
X009398Y006588D01*
X009366Y006601D01*
X009366Y007035D01*
X009366Y007167D01*
X009046Y007487D01*
X009046Y007790D01*
X009080Y007710D01*
X009175Y007614D01*
X009299Y007563D01*
X009434Y007563D01*
X009465Y007576D01*
X009686Y007355D01*
X009686Y005641D01*
X009655Y005628D01*
X009560Y005533D01*
X009508Y005408D01*
X009508Y005274D01*
X009560Y005150D01*
X009655Y005054D01*
X009686Y005041D01*
X009686Y003807D01*
X009686Y003675D01*
X010086Y003275D01*
X010086Y002952D01*
X009937Y003101D01*
X009786Y003101D01*
X009786Y002681D01*
X009706Y002681D01*
X009706Y002601D01*
X009286Y002601D01*
X009286Y002451D01*
X009556Y002181D01*
X009706Y002181D01*
X009706Y002601D01*
X009786Y002601D01*
X009786Y002181D01*
X009937Y002181D01*
X010086Y002331D01*
X010086Y002207D01*
X009944Y002065D01*
X009929Y002081D01*
X009564Y002081D01*
X009306Y001823D01*
X009306Y001459D01*
X009504Y001261D01*
X009353Y001261D01*
X009170Y001443D01*
X009186Y001459D01*
X009186Y001823D01*
X008929Y002081D01*
X008564Y002081D01*
X008306Y001823D01*
X008306Y001459D01*
X008564Y001201D01*
X008929Y001201D01*
X008944Y001217D01*
X009126Y001035D01*
X009077Y001084D02*
X006516Y001084D01*
X006538Y001162D02*
X008999Y001162D01*
X009286Y001101D02*
X011926Y001101D01*
X012246Y001421D01*
X012246Y001901D01*
X012486Y002141D01*
X012966Y002141D01*
X013286Y002461D01*
X013286Y008941D01*
X011526Y010701D01*
X010006Y010701D01*
X009686Y011021D01*
X009446Y011021D01*
X009126Y010781D01*
X007846Y010781D01*
X007766Y010861D01*
X007562Y010587D02*
X007366Y010587D01*
X007366Y010509D02*
X007691Y010509D01*
X007699Y010523D02*
X007705Y010523D01*
X007486Y010304D01*
X007486Y010138D01*
X007486Y009178D01*
X007508Y009156D01*
X007508Y009034D01*
X007560Y008910D01*
X007655Y008814D01*
X007779Y008763D01*
X007914Y008763D01*
X008038Y008814D01*
X008086Y008863D01*
X008086Y008795D01*
X008166Y008715D01*
X008166Y004367D01*
X008166Y004540D02*
X006406Y004540D01*
X006406Y004618D02*
X008166Y004618D01*
X008166Y004697D02*
X006406Y004697D01*
X006406Y004775D02*
X008166Y004775D01*
X008166Y004854D02*
X006406Y004854D01*
X006406Y004932D02*
X008166Y004932D01*
X008166Y005011D02*
X006406Y005011D01*
X006406Y005089D02*
X008166Y005089D01*
X008486Y005089D02*
X009620Y005089D01*
X009686Y005011D02*
X008486Y005011D01*
X008486Y004932D02*
X009686Y004932D01*
X009686Y004854D02*
X008486Y004854D01*
X008486Y004775D02*
X009686Y004775D01*
X009686Y004697D02*
X008486Y004697D01*
X008486Y004618D02*
X009686Y004618D01*
X009686Y004540D02*
X008486Y004540D01*
X008486Y004461D02*
X009686Y004461D01*
X009686Y004382D02*
X008486Y004382D01*
X008486Y004304D02*
X009686Y004304D01*
X009686Y004225D02*
X008477Y004225D01*
X008398Y004147D02*
X009686Y004147D01*
X009686Y004068D02*
X008320Y004068D01*
X008241Y003990D02*
X009686Y003990D01*
X009686Y003911D02*
X008163Y003911D01*
X008084Y003833D02*
X009686Y003833D01*
X009686Y003754D02*
X008006Y003754D01*
X007927Y003676D02*
X009686Y003676D01*
X009764Y003597D02*
X007848Y003597D01*
X007770Y003518D02*
X009843Y003518D01*
X009921Y003440D02*
X007691Y003440D01*
X007613Y003361D02*
X010000Y003361D01*
X010078Y003283D02*
X007534Y003283D01*
X007456Y003204D02*
X010086Y003204D01*
X010086Y003126D02*
X007377Y003126D01*
X007366Y003047D02*
X007502Y003047D01*
X007423Y002969D02*
X007366Y002969D01*
X007206Y003181D02*
X007206Y002221D01*
X007746Y001681D01*
X007746Y001641D01*
X007306Y001633D02*
X007048Y001633D01*
X007064Y001712D02*
X007306Y001712D01*
X007306Y001791D02*
X007064Y001791D01*
X007039Y001869D02*
X007332Y001869D01*
X007254Y001948D02*
X006998Y001948D01*
X006926Y002026D02*
X007175Y002026D01*
X007096Y002105D02*
X006926Y002105D01*
X006926Y002183D02*
X007046Y002183D01*
X007046Y002262D02*
X006926Y002262D01*
X006926Y002340D02*
X007046Y002340D01*
X007046Y002419D02*
X006926Y002419D01*
X006926Y002497D02*
X007046Y002497D01*
X007046Y002576D02*
X006926Y002576D01*
X006926Y002654D02*
X007046Y002654D01*
X007046Y002733D02*
X006926Y002733D01*
X006926Y002812D02*
X007046Y002812D01*
X007046Y002890D02*
X006926Y002890D01*
X006926Y002969D02*
X007046Y002969D01*
X007046Y003047D02*
X006926Y003047D01*
X006926Y003126D02*
X007046Y003126D01*
X007046Y003204D02*
X006926Y003204D01*
X006926Y003283D02*
X007082Y003283D01*
X007160Y003361D02*
X006926Y003361D01*
X006926Y003440D02*
X007239Y003440D01*
X007317Y003518D02*
X006926Y003518D01*
X006926Y003597D02*
X007396Y003597D01*
X007474Y003676D02*
X006926Y003676D01*
X006926Y003754D02*
X007553Y003754D01*
X007632Y003833D02*
X006926Y003833D01*
X006975Y003911D02*
X007710Y003911D01*
X007789Y003990D02*
X007030Y003990D01*
X007062Y004068D02*
X007867Y004068D01*
X007946Y004147D02*
X007064Y004147D01*
X007057Y004225D02*
X008024Y004225D01*
X008326Y004301D02*
X008326Y008781D01*
X008246Y008861D01*
X008246Y010061D01*
X008166Y010141D01*
X007699Y010523D02*
X007575Y010574D01*
X007480Y010670D01*
X007428Y010794D01*
X007428Y010928D01*
X007480Y011053D01*
X007575Y011148D01*
X007699Y011199D01*
X007834Y011199D01*
X007958Y011148D01*
X008053Y011053D01*
X008099Y010941D01*
X008488Y010941D01*
X008440Y010990D01*
X008388Y011114D01*
X008388Y011248D01*
X008440Y011373D01*
X008407Y011294D02*
X007366Y011294D01*
X007366Y011216D02*
X008388Y011216D01*
X008388Y011137D02*
X007968Y011137D01*
X008047Y011059D02*
X008411Y011059D01*
X008449Y010980D02*
X008083Y010980D01*
X007564Y011137D02*
X007366Y011137D01*
X007366Y011059D02*
X007486Y011059D01*
X007450Y010980D02*
X007366Y010980D01*
X007366Y010902D02*
X007428Y010902D01*
X007428Y010823D02*
X007366Y010823D01*
X007366Y010744D02*
X007449Y010744D01*
X007483Y010666D02*
X007366Y010666D01*
X007366Y010430D02*
X007613Y010430D01*
X007534Y010352D02*
X007366Y010352D01*
X007366Y010273D02*
X007486Y010273D01*
X007486Y010195D02*
X007366Y010195D01*
X007366Y010116D02*
X007486Y010116D01*
X007486Y010038D02*
X007366Y010038D01*
X007366Y009959D02*
X007486Y009959D01*
X007486Y009880D02*
X007366Y009880D01*
X007366Y009802D02*
X007486Y009802D01*
X007486Y009723D02*
X007366Y009723D01*
X007366Y009645D02*
X007486Y009645D01*
X007486Y009566D02*
X007366Y009566D01*
X007366Y009488D02*
X007486Y009488D01*
X007486Y009409D02*
X007366Y009409D01*
X007366Y009331D02*
X007486Y009331D01*
X007486Y009252D02*
X007366Y009252D01*
X007366Y009174D02*
X007491Y009174D01*
X007508Y009095D02*
X007366Y009095D01*
X007366Y009016D02*
X007515Y009016D01*
X007548Y008938D02*
X007366Y008938D01*
X007446Y008859D02*
X007610Y008859D01*
X007506Y008781D02*
X007736Y008781D01*
X007539Y008702D02*
X008166Y008702D01*
X008166Y008624D02*
X007544Y008624D01*
X007541Y008545D02*
X008166Y008545D01*
X008166Y008467D02*
X007508Y008467D01*
X007451Y008388D02*
X008166Y008388D01*
X008166Y008310D02*
X007338Y008310D01*
X007206Y008621D02*
X007206Y011821D01*
X006406Y012621D01*
X006406Y014541D01*
X006346Y014982D02*
X006414Y014992D01*
X006483Y015015D01*
X006547Y015048D01*
X006606Y015090D01*
X006657Y015141D01*
X006700Y015200D01*
X006733Y015264D01*
X006755Y015333D01*
X006766Y015405D01*
X006766Y015721D01*
X006346Y015721D01*
X006346Y014982D01*
X006346Y014986D02*
X006266Y014986D01*
X006266Y014982D02*
X006266Y015721D01*
X005846Y015721D01*
X005846Y015405D01*
X005858Y015333D01*
X005880Y015264D01*
X005913Y015200D01*
X005955Y015141D01*
X006007Y015090D01*
X006065Y015048D01*
X006130Y015015D01*
X006199Y014992D01*
X006266Y014982D01*
X006240Y014986D02*
X002045Y014986D01*
X001955Y015064D02*
X006042Y015064D01*
X005954Y015143D02*
X000946Y015143D01*
X001863Y015221D02*
X005902Y015221D01*
X005868Y015300D02*
X001948Y015300D01*
X002018Y015379D02*
X005850Y015379D01*
X005846Y015457D02*
X002050Y015457D01*
X002083Y015536D02*
X005846Y015536D01*
X005846Y015614D02*
X002086Y015614D01*
X002086Y015693D02*
X005846Y015693D01*
X005846Y015801D02*
X006266Y015801D01*
X006266Y015721D01*
X006346Y015721D01*
X006346Y015801D01*
X006266Y015801D01*
X006266Y016540D01*
X006199Y016530D01*
X006130Y016507D01*
X006065Y016474D01*
X006007Y016432D01*
X005955Y016381D01*
X005913Y016322D01*
X005880Y016258D01*
X005858Y016189D01*
X005846Y016117D01*
X005846Y015801D01*
X005846Y015850D02*
X002040Y015850D01*
X002073Y015771D02*
X006266Y015771D01*
X006266Y015693D02*
X006346Y015693D01*
X006346Y015771D02*
X006866Y015771D01*
X006866Y015693D02*
X006766Y015693D01*
X006766Y015614D02*
X006866Y015614D01*
X006866Y015536D02*
X006766Y015536D01*
X006766Y015457D02*
X006866Y015457D01*
X006866Y015379D02*
X006762Y015379D01*
X006744Y015300D02*
X006888Y015300D01*
X006866Y015354D02*
X006933Y015192D01*
X007057Y015068D01*
X007219Y015001D01*
X007394Y015001D01*
X007556Y015068D01*
X007679Y015192D01*
X007746Y015354D01*
X007746Y016169D01*
X007679Y016330D01*
X007556Y016454D01*
X007394Y016521D01*
X007219Y016521D01*
X007057Y016454D01*
X006933Y016330D01*
X006866Y016169D01*
X006866Y015354D01*
X006921Y015221D02*
X006711Y015221D01*
X006658Y015143D02*
X006982Y015143D01*
X007066Y015064D02*
X006570Y015064D01*
X006372Y014986D02*
X008196Y014986D01*
X008219Y015001D02*
X008394Y015001D01*
X008556Y015068D01*
X008679Y015192D01*
X008746Y015354D01*
X008746Y016169D01*
X008679Y016330D01*
X008556Y016454D01*
X008394Y016521D01*
X008219Y016521D01*
X008057Y016454D01*
X007933Y016330D01*
X007866Y016169D01*
X007866Y015354D01*
X007933Y015192D01*
X008057Y015068D01*
X008219Y015001D01*
X008066Y015064D02*
X007546Y015064D01*
X007630Y015143D02*
X007982Y015143D01*
X007921Y015221D02*
X007692Y015221D01*
X007724Y015300D02*
X007888Y015300D01*
X007866Y015379D02*
X007746Y015379D01*
X007746Y015457D02*
X007866Y015457D01*
X007866Y015536D02*
X007746Y015536D01*
X007746Y015614D02*
X007866Y015614D01*
X007866Y015693D02*
X007746Y015693D01*
X007746Y015771D02*
X007866Y015771D01*
X007866Y015850D02*
X007746Y015850D01*
X007746Y015928D02*
X007866Y015928D01*
X007866Y016007D02*
X007746Y016007D01*
X007746Y016085D02*
X007866Y016085D01*
X007866Y016164D02*
X007746Y016164D01*
X007716Y016242D02*
X007897Y016242D01*
X007929Y016321D02*
X007683Y016321D01*
X007610Y016400D02*
X008003Y016400D01*
X008115Y016478D02*
X007498Y016478D01*
X007115Y016478D02*
X006540Y016478D01*
X006547Y016474D02*
X006483Y016507D01*
X006414Y016530D01*
X006346Y016540D01*
X006346Y015801D01*
X006766Y015801D01*
X006766Y016117D01*
X006755Y016189D01*
X006733Y016258D01*
X006700Y016322D01*
X006657Y016381D01*
X006606Y016432D01*
X006547Y016474D01*
X006638Y016400D02*
X007003Y016400D01*
X006929Y016321D02*
X006700Y016321D01*
X006738Y016242D02*
X006897Y016242D01*
X006866Y016164D02*
X006759Y016164D01*
X006766Y016085D02*
X006866Y016085D01*
X006866Y016007D02*
X006766Y016007D01*
X006766Y015928D02*
X006866Y015928D01*
X006866Y015850D02*
X006766Y015850D01*
X006346Y015850D02*
X006266Y015850D01*
X006266Y015928D02*
X006346Y015928D01*
X006346Y016007D02*
X006266Y016007D01*
X006266Y016085D02*
X006346Y016085D01*
X006346Y016164D02*
X006266Y016164D01*
X006266Y016242D02*
X006346Y016242D01*
X006346Y016321D02*
X006266Y016321D01*
X006266Y016400D02*
X006346Y016400D01*
X006346Y016478D02*
X006266Y016478D01*
X006072Y016478D02*
X002180Y016478D01*
X002146Y016400D02*
X005974Y016400D01*
X005912Y016321D02*
X002094Y016321D01*
X002015Y016242D02*
X005875Y016242D01*
X005854Y016164D02*
X001878Y016164D01*
X001804Y016085D02*
X005846Y016085D01*
X005846Y016007D02*
X001923Y016007D01*
X002002Y015928D02*
X005846Y015928D01*
X006266Y015614D02*
X006346Y015614D01*
X006346Y015536D02*
X006266Y015536D01*
X006266Y015457D02*
X006346Y015457D01*
X006346Y015379D02*
X006266Y015379D01*
X006266Y015300D02*
X006346Y015300D01*
X006346Y015221D02*
X006266Y015221D01*
X006266Y015143D02*
X006346Y015143D01*
X006346Y015064D02*
X006266Y015064D01*
X005366Y014461D02*
X005366Y010381D01*
X005366Y008461D01*
X005129Y008702D02*
X004806Y008702D01*
X004806Y008624D02*
X005068Y008624D01*
X005035Y008545D02*
X004806Y008545D01*
X004806Y008467D02*
X005028Y008467D01*
X005031Y008388D02*
X004806Y008388D01*
X004806Y008310D02*
X005063Y008310D01*
X005118Y008231D02*
X004806Y008231D01*
X004861Y008153D02*
X005228Y008153D01*
X005018Y007995D02*
X005606Y007995D01*
X005606Y008074D02*
X004940Y008074D01*
X005097Y007917D02*
X005544Y007917D01*
X005474Y007838D02*
X005175Y007838D01*
X005254Y007760D02*
X005441Y007760D01*
X005428Y007681D02*
X005332Y007681D01*
X005411Y007603D02*
X005428Y007603D01*
X005766Y007661D02*
X005766Y009901D01*
X005846Y009981D01*
X005206Y009959D02*
X003371Y009959D01*
X003206Y009661D02*
X003206Y008061D01*
X004326Y006941D01*
X004326Y002141D01*
X004120Y001869D02*
X002114Y001869D01*
X002146Y001948D02*
X004042Y001948D01*
X004008Y002026D02*
X002179Y002026D01*
X002186Y002105D02*
X003988Y002105D01*
X003988Y002183D02*
X002186Y002183D01*
X002177Y002262D02*
X004010Y002262D01*
X004047Y002340D02*
X002144Y002340D01*
X002111Y002419D02*
X004126Y002419D01*
X004166Y002497D02*
X002033Y002497D01*
X001927Y002576D02*
X004166Y002576D01*
X004166Y002654D02*
X003767Y002654D01*
X003776Y002658D02*
X003899Y002782D01*
X003966Y002944D01*
X003966Y003119D01*
X003899Y003280D01*
X003776Y003404D01*
X003614Y003471D01*
X003439Y003471D01*
X003277Y003404D01*
X003153Y003280D01*
X003086Y003119D01*
X003086Y002944D01*
X003153Y002782D01*
X003277Y002658D01*
X003439Y002591D01*
X003614Y002591D01*
X003776Y002658D01*
X003850Y002733D02*
X004166Y002733D01*
X004166Y002812D02*
X003912Y002812D01*
X003944Y002890D02*
X004166Y002890D01*
X004166Y002969D02*
X003966Y002969D01*
X003966Y003047D02*
X004166Y003047D01*
X004166Y003126D02*
X003963Y003126D01*
X003931Y003204D02*
X004166Y003204D01*
X004166Y003283D02*
X003897Y003283D01*
X003818Y003361D02*
X004166Y003361D01*
X004166Y003440D02*
X003689Y003440D01*
X003364Y003440D02*
X001990Y003440D01*
X002035Y003361D02*
X003234Y003361D01*
X003156Y003283D02*
X002068Y003283D01*
X002086Y003204D02*
X003122Y003204D01*
X003089Y003126D02*
X002086Y003126D01*
X002086Y003047D02*
X003086Y003047D01*
X003086Y002969D02*
X002055Y002969D01*
X002023Y002890D02*
X003108Y002890D01*
X003141Y002812D02*
X001960Y002812D01*
X001881Y002733D02*
X003202Y002733D01*
X003286Y002654D02*
X001702Y002654D01*
X001912Y003518D02*
X004166Y003518D01*
X004166Y003597D02*
X001776Y003597D01*
X001853Y003676D02*
X004166Y003676D01*
X004166Y003754D02*
X002002Y003754D01*
X002081Y003833D02*
X004166Y003833D01*
X004166Y003911D02*
X002131Y003911D01*
X003206Y004301D02*
X003206Y005421D01*
X001438Y005718D02*
X000946Y005718D01*
X000946Y005796D02*
X001348Y005796D01*
X001276Y005875D02*
X000946Y005875D01*
X000946Y005953D02*
X001244Y005953D01*
X001211Y006032D02*
X000946Y006032D01*
X000946Y006110D02*
X001206Y006110D01*
X001206Y006189D02*
X000946Y006189D01*
X000946Y006267D02*
X001218Y006267D01*
X001251Y006346D02*
X000946Y006346D01*
X000946Y006425D02*
X001287Y006425D01*
X001365Y006503D02*
X000946Y006503D01*
X000946Y006582D02*
X001480Y006582D01*
X001477Y006660D02*
X000946Y006660D01*
X000946Y006739D02*
X001306Y006739D01*
X001227Y006817D02*
X000946Y006817D01*
X000946Y006896D02*
X001167Y006896D01*
X001135Y006974D02*
X000946Y006974D01*
X000946Y007053D02*
X001106Y007053D01*
X001106Y007131D02*
X000946Y007131D01*
X000946Y007210D02*
X001106Y007210D01*
X001127Y007289D02*
X000946Y007289D01*
X000946Y007367D02*
X001160Y007367D01*
X001208Y007446D02*
X000946Y007446D01*
X000946Y007524D02*
X001286Y007524D01*
X001430Y007603D02*
X000946Y007603D01*
X000946Y007681D02*
X001526Y007681D01*
X001385Y007760D02*
X000946Y007760D01*
X000946Y007838D02*
X001306Y007838D01*
X001259Y007917D02*
X000946Y007917D01*
X000946Y007995D02*
X001226Y007995D01*
X001206Y008074D02*
X000946Y008074D01*
X000946Y008153D02*
X001206Y008153D01*
X001206Y008231D02*
X000946Y008231D01*
X000946Y008310D02*
X001236Y008310D01*
X001268Y008388D02*
X000946Y008388D01*
X000946Y008467D02*
X001329Y008467D01*
X001407Y008545D02*
X000946Y008545D01*
X000946Y008624D02*
X001581Y008624D01*
X001154Y009174D02*
X000946Y009174D01*
X000946Y009252D02*
X001106Y009252D01*
X001106Y009331D02*
X000946Y009331D01*
X000946Y009409D02*
X001106Y009409D01*
X001106Y009488D02*
X000946Y009488D01*
X000946Y009566D02*
X001106Y009566D01*
X001106Y009645D02*
X000946Y009645D01*
X000946Y009723D02*
X001106Y009723D01*
X001106Y009802D02*
X000946Y009802D01*
X000946Y009880D02*
X001106Y009880D01*
X001106Y009959D02*
X000946Y009959D01*
X000946Y010038D02*
X001106Y010038D01*
X001162Y010116D02*
X000946Y010116D01*
X000946Y010195D02*
X001494Y010195D01*
X001371Y010273D02*
X000946Y010273D01*
X000946Y010352D02*
X001293Y010352D01*
X001253Y010430D02*
X000946Y010430D01*
X000946Y010509D02*
X001221Y010509D01*
X001206Y010587D02*
X000946Y010587D01*
X000946Y010666D02*
X001206Y010666D01*
X001209Y010744D02*
X000946Y010744D01*
X000946Y010823D02*
X001241Y010823D01*
X001274Y010902D02*
X000946Y010902D01*
X000946Y010980D02*
X001342Y010980D01*
X001850Y011216D02*
X005206Y011216D01*
X005206Y011294D02*
X001942Y011294D01*
X002015Y011373D02*
X005206Y011373D01*
X005206Y011451D02*
X002048Y011451D01*
X002081Y011530D02*
X005206Y011530D01*
X005206Y011608D02*
X002086Y011608D01*
X002086Y011687D02*
X005206Y011687D01*
X005206Y011766D02*
X002075Y011766D01*
X002043Y011844D02*
X005206Y011844D01*
X005206Y011923D02*
X002008Y011923D01*
X001929Y012001D02*
X005206Y012001D01*
X005206Y012080D02*
X001818Y012080D01*
X001861Y012158D02*
X005206Y012158D01*
X005206Y012237D02*
X002007Y012237D01*
X002090Y012315D02*
X005206Y012315D01*
X005206Y012394D02*
X002143Y012394D01*
X002178Y012472D02*
X005206Y012472D01*
X005206Y012551D02*
X002198Y012551D01*
X002206Y012601D02*
X002206Y012601D01*
X001736Y012708D02*
X001656Y012708D01*
X001656Y012787D02*
X001736Y012787D01*
X001736Y012865D02*
X001656Y012865D01*
X001656Y012944D02*
X001736Y012944D01*
X001736Y013022D02*
X001656Y013022D01*
X001656Y013151D02*
X001656Y013151D01*
X001906Y013258D02*
X005206Y013258D01*
X005206Y013336D02*
X001985Y013336D01*
X002033Y013415D02*
X005206Y013415D01*
X005206Y013493D02*
X002065Y013493D01*
X002086Y013572D02*
X005206Y013572D01*
X005206Y013651D02*
X002086Y013651D01*
X002086Y013729D02*
X005206Y013729D01*
X005206Y013808D02*
X002058Y013808D01*
X002025Y013886D02*
X005206Y013886D01*
X005206Y013965D02*
X001966Y013965D01*
X001887Y014043D02*
X005206Y014043D01*
X005206Y014122D02*
X001716Y014122D01*
X001913Y014200D02*
X005149Y014200D01*
X005076Y014279D02*
X002027Y014279D01*
X002106Y014357D02*
X005043Y014357D01*
X005028Y014436D02*
X002142Y014436D01*
X002174Y014515D02*
X005028Y014515D01*
X005055Y014593D02*
X002186Y014593D01*
X002186Y014672D02*
X005099Y014672D01*
X005181Y014750D02*
X002181Y014750D01*
X001736Y016164D02*
X001656Y016164D01*
X001656Y016242D02*
X001736Y016242D01*
X001736Y016321D02*
X001656Y016321D01*
X001656Y016400D02*
X001736Y016400D01*
X001736Y016478D02*
X001656Y016478D01*
X001656Y016557D02*
X001736Y016557D01*
X001656Y012472D02*
X001736Y012472D01*
X001736Y012394D02*
X001656Y012394D01*
X001656Y012315D02*
X001736Y012315D01*
X001736Y012237D02*
X001656Y012237D01*
X001656Y012158D02*
X001736Y012158D01*
X001899Y010195D02*
X005078Y010195D01*
X005206Y009880D02*
X004807Y009880D01*
X004904Y009802D02*
X005206Y009802D01*
X005206Y009723D02*
X004953Y009723D01*
X004984Y009645D02*
X005206Y009645D01*
X005206Y009566D02*
X004984Y009566D01*
X004974Y009488D02*
X005206Y009488D01*
X005206Y009409D02*
X004941Y009409D01*
X004874Y009331D02*
X005206Y009331D01*
X005206Y009252D02*
X004806Y009252D01*
X004806Y009174D02*
X005206Y009174D01*
X005206Y009095D02*
X004806Y009095D01*
X004806Y009016D02*
X005206Y009016D01*
X005206Y008938D02*
X004806Y008938D01*
X004806Y008859D02*
X005206Y008859D01*
X005206Y008781D02*
X004806Y008781D01*
X005505Y008153D02*
X005606Y008153D01*
X007446Y006941D02*
X007446Y005501D01*
X008326Y004301D02*
X007206Y003181D01*
X007706Y003047D02*
X007786Y003047D01*
X007786Y003101D02*
X007786Y002681D01*
X008206Y002681D01*
X008206Y002832D01*
X007937Y003101D01*
X007786Y003101D01*
X007786Y002969D02*
X007706Y002969D01*
X007706Y002890D02*
X007786Y002890D01*
X007786Y002812D02*
X007706Y002812D01*
X007706Y002733D02*
X007786Y002733D01*
X007786Y002654D02*
X008706Y002654D01*
X008706Y002681D02*
X008706Y002601D01*
X008286Y002601D01*
X008286Y002451D01*
X008556Y002181D01*
X008706Y002181D01*
X008706Y002601D01*
X008786Y002601D01*
X008786Y002181D01*
X008937Y002181D01*
X009206Y002451D01*
X009206Y002601D01*
X008786Y002601D01*
X008786Y002681D01*
X008706Y002681D01*
X008286Y002681D01*
X008286Y002832D01*
X008556Y003101D01*
X008706Y003101D01*
X008706Y002681D01*
X008706Y002733D02*
X008786Y002733D01*
X008786Y002681D02*
X008786Y003101D01*
X008937Y003101D01*
X009206Y002832D01*
X009206Y002681D01*
X008786Y002681D01*
X008786Y002654D02*
X009706Y002654D01*
X009706Y002681D02*
X009286Y002681D01*
X009286Y002832D01*
X009556Y003101D01*
X009706Y003101D01*
X009706Y002681D01*
X009706Y002733D02*
X009786Y002733D01*
X009786Y002812D02*
X009706Y002812D01*
X009706Y002890D02*
X009786Y002890D01*
X009786Y002969D02*
X009706Y002969D01*
X009706Y003047D02*
X009786Y003047D01*
X009991Y003047D02*
X010086Y003047D01*
X010086Y002969D02*
X010069Y002969D01*
X010246Y003341D02*
X010246Y002141D01*
X009746Y001641D01*
X009509Y002026D02*
X008983Y002026D01*
X009062Y001948D02*
X009431Y001948D01*
X009352Y001869D02*
X009141Y001869D01*
X009186Y001791D02*
X009306Y001791D01*
X009306Y001712D02*
X009186Y001712D01*
X009186Y001633D02*
X009306Y001633D01*
X009306Y001555D02*
X009186Y001555D01*
X009186Y001476D02*
X009306Y001476D01*
X009367Y001398D02*
X009216Y001398D01*
X009294Y001319D02*
X009446Y001319D01*
X009286Y001101D02*
X008746Y001641D01*
X008509Y002026D02*
X007983Y002026D01*
X008062Y001948D02*
X008431Y001948D01*
X008352Y001869D02*
X008141Y001869D01*
X008186Y001791D02*
X008306Y001791D01*
X008306Y001712D02*
X008186Y001712D01*
X008186Y001633D02*
X008306Y001633D01*
X008306Y001555D02*
X008186Y001555D01*
X008186Y001476D02*
X008306Y001476D01*
X008367Y001398D02*
X008125Y001398D01*
X008047Y001319D02*
X008446Y001319D01*
X008524Y001241D02*
X007968Y001241D01*
X007524Y001241D02*
X006126Y001241D01*
X006126Y001319D02*
X006046Y001319D01*
X006046Y001398D02*
X006126Y001398D01*
X006126Y001476D02*
X006046Y001476D01*
X006046Y001555D02*
X006126Y001555D01*
X006126Y001633D02*
X006046Y001633D01*
X005830Y001633D02*
X003783Y001633D01*
X003873Y001555D02*
X005740Y001555D01*
X005685Y001476D02*
X003928Y001476D01*
X003962Y001398D02*
X005650Y001398D01*
X005631Y001319D02*
X003981Y001319D01*
X003978Y001162D02*
X005635Y001162D01*
X005657Y001084D02*
X003956Y001084D01*
X003916Y001005D02*
X005696Y001005D01*
X005760Y000927D02*
X003852Y000927D01*
X003748Y000848D02*
X005864Y000848D01*
X006433Y001555D02*
X006437Y001555D01*
X006405Y001633D02*
X006343Y001633D01*
X006388Y001712D02*
X001941Y001712D01*
X002039Y001791D02*
X006388Y001791D01*
X006413Y001869D02*
X004532Y001869D01*
X004611Y001948D02*
X006455Y001948D01*
X006526Y002026D02*
X004645Y002026D01*
X004664Y002105D02*
X006526Y002105D01*
X006526Y002183D02*
X004664Y002183D01*
X004642Y002262D02*
X006526Y002262D01*
X006526Y002340D02*
X004605Y002340D01*
X004527Y002419D02*
X006526Y002419D01*
X006526Y002497D02*
X004486Y002497D01*
X003566Y001633D02*
X003486Y001633D01*
X003486Y001555D02*
X003566Y001555D01*
X003566Y001476D02*
X003486Y001476D01*
X003486Y001398D02*
X003566Y001398D01*
X003566Y001162D02*
X003486Y001162D01*
X003486Y001084D02*
X003566Y001084D01*
X003566Y001005D02*
X003486Y001005D01*
X003486Y000927D02*
X003566Y000927D01*
X003566Y000848D02*
X003486Y000848D01*
X001137Y000691D02*
X000946Y000691D01*
X000946Y000769D02*
X001106Y000769D01*
X001106Y000848D02*
X000946Y000848D01*
X000946Y000927D02*
X001106Y000927D01*
X001106Y001005D02*
X000946Y001005D01*
X000946Y001084D02*
X001106Y001084D01*
X001106Y001162D02*
X000946Y001162D01*
X000946Y001241D02*
X001106Y001241D01*
X001106Y001319D02*
X000946Y001319D01*
X000946Y001398D02*
X001106Y001398D01*
X001106Y001476D02*
X000946Y001476D01*
X000946Y001555D02*
X001106Y001555D01*
X000946Y000612D02*
X015386Y000612D01*
X015386Y000601D02*
X015457Y000531D01*
X016296Y000531D01*
X016366Y000601D01*
X016366Y001441D01*
X016296Y001511D01*
X015457Y001511D01*
X015386Y001441D01*
X015386Y000601D01*
X015454Y000534D02*
X000946Y000534D01*
X000946Y000455D02*
X016616Y000455D01*
X016616Y000377D02*
X000946Y000377D01*
X000946Y000298D02*
X016616Y000298D01*
X016616Y000534D02*
X016299Y000534D01*
X016366Y000612D02*
X016616Y000612D01*
X016616Y000691D02*
X016366Y000691D01*
X016366Y000769D02*
X016616Y000769D01*
X016616Y000848D02*
X016366Y000848D01*
X016366Y000927D02*
X016616Y000927D01*
X016616Y001005D02*
X016366Y001005D01*
X016366Y001084D02*
X016616Y001084D01*
X016616Y001162D02*
X016366Y001162D01*
X016366Y001241D02*
X016616Y001241D01*
X016616Y001319D02*
X016366Y001319D01*
X016366Y001398D02*
X016616Y001398D01*
X016616Y001476D02*
X016331Y001476D01*
X016254Y001606D02*
X016392Y001744D01*
X016466Y001924D01*
X016466Y002119D01*
X016392Y002299D01*
X016254Y002436D01*
X016074Y002511D01*
X015879Y002511D01*
X015699Y002436D01*
X015561Y002299D01*
X015486Y002119D01*
X015486Y001924D01*
X015561Y001744D01*
X015699Y001606D01*
X015879Y001531D01*
X016074Y001531D01*
X016254Y001606D01*
X016282Y001633D02*
X016616Y001633D01*
X016616Y001555D02*
X016131Y001555D01*
X016360Y001712D02*
X016616Y001712D01*
X016616Y001791D02*
X016411Y001791D01*
X016444Y001869D02*
X016616Y001869D01*
X016616Y001948D02*
X016466Y001948D01*
X016466Y002026D02*
X016616Y002026D01*
X016616Y002105D02*
X016466Y002105D01*
X016439Y002183D02*
X016616Y002183D01*
X016616Y002262D02*
X016407Y002262D01*
X016350Y002340D02*
X016616Y002340D01*
X016616Y002419D02*
X016271Y002419D01*
X016107Y002497D02*
X016616Y002497D01*
X016616Y002576D02*
X016082Y002576D01*
X016154Y002606D02*
X015974Y002531D01*
X015779Y002531D01*
X015599Y002606D01*
X015461Y002744D01*
X015386Y002924D01*
X015386Y003119D01*
X015461Y003299D01*
X015599Y003436D01*
X015779Y003511D01*
X015974Y003511D01*
X016154Y003436D01*
X016292Y003299D01*
X016366Y003119D01*
X016366Y002924D01*
X016292Y002744D01*
X016154Y002606D01*
X016203Y002654D02*
X016616Y002654D01*
X016616Y002733D02*
X016281Y002733D01*
X016320Y002812D02*
X016616Y002812D01*
X016616Y002890D02*
X016352Y002890D01*
X016366Y002969D02*
X016616Y002969D01*
X016616Y003047D02*
X016366Y003047D01*
X016363Y003126D02*
X016616Y003126D01*
X016616Y003204D02*
X016331Y003204D01*
X016298Y003283D02*
X016616Y003283D01*
X016616Y003361D02*
X016229Y003361D01*
X016146Y003440D02*
X016616Y003440D01*
X016616Y003518D02*
X016063Y003518D01*
X016096Y003524D02*
X016172Y003548D01*
X016244Y003585D01*
X016309Y003632D01*
X016365Y003689D01*
X016412Y003754D01*
X016449Y003825D01*
X016474Y003902D01*
X016486Y003981D01*
X016016Y003981D01*
X016016Y003511D01*
X016016Y003511D01*
X016096Y003524D01*
X016016Y003518D02*
X015936Y003518D01*
X015936Y003511D02*
X015936Y003981D01*
X015466Y003981D01*
X015479Y003902D01*
X015504Y003825D01*
X015540Y003754D01*
X014566Y003754D01*
X014566Y003676D02*
X015601Y003676D01*
X015587Y003689D02*
X015644Y003632D01*
X015709Y003585D01*
X015781Y003548D01*
X015857Y003524D01*
X015936Y003511D01*
X015936Y003511D01*
X015890Y003518D02*
X014566Y003518D01*
X014566Y003440D02*
X015607Y003440D01*
X015524Y003361D02*
X014566Y003361D01*
X014566Y003283D02*
X015454Y003283D01*
X015422Y003204D02*
X014566Y003204D01*
X014566Y003126D02*
X015389Y003126D01*
X015386Y003047D02*
X014566Y003047D01*
X014566Y002969D02*
X015386Y002969D01*
X015400Y002890D02*
X014566Y002890D01*
X014566Y002812D02*
X015433Y002812D01*
X015471Y002733D02*
X014566Y002733D01*
X014566Y002654D02*
X015550Y002654D01*
X015671Y002576D02*
X014566Y002576D01*
X014566Y002497D02*
X015846Y002497D01*
X015681Y002419D02*
X014566Y002419D01*
X014512Y002340D02*
X015603Y002340D01*
X015546Y002262D02*
X014433Y002262D01*
X014355Y002183D02*
X015513Y002183D01*
X015486Y002105D02*
X014276Y002105D01*
X014198Y002026D02*
X015486Y002026D01*
X015486Y001948D02*
X014062Y001948D01*
X014141Y001869D02*
X015509Y001869D01*
X015541Y001791D02*
X014186Y001791D01*
X014186Y001712D02*
X015592Y001712D01*
X015671Y001633D02*
X014186Y001633D01*
X014186Y001555D02*
X015821Y001555D01*
X015422Y001476D02*
X014186Y001476D01*
X014125Y001398D02*
X015386Y001398D01*
X015386Y001319D02*
X014047Y001319D01*
X013968Y001241D02*
X015386Y001241D01*
X015386Y001162D02*
X012214Y001162D01*
X012292Y001241D02*
X012524Y001241D01*
X012446Y001319D02*
X012371Y001319D01*
X012135Y001084D02*
X015386Y001084D01*
X015386Y001005D02*
X012057Y001005D01*
X012746Y001641D02*
X012826Y001641D01*
X013366Y002141D01*
X014086Y002141D01*
X014406Y002461D01*
X014406Y013181D01*
X013926Y013661D01*
X013758Y014122D02*
X011574Y014122D01*
X011584Y014126D02*
X011722Y014264D01*
X011796Y014444D01*
X011796Y014639D01*
X011722Y014819D01*
X011584Y014956D01*
X011435Y015018D01*
X011556Y015068D01*
X011679Y015192D01*
X011746Y015354D01*
X011746Y016169D01*
X011679Y016330D01*
X011556Y016454D01*
X011394Y016521D01*
X011219Y016521D01*
X011057Y016454D01*
X010933Y016330D01*
X010866Y016169D01*
X010866Y015354D01*
X010933Y015192D01*
X011057Y015068D01*
X011178Y015018D01*
X011029Y014956D01*
X010891Y014819D01*
X010816Y014639D01*
X010816Y014444D01*
X010891Y014264D01*
X011029Y014126D01*
X011209Y014051D01*
X011404Y014051D01*
X011584Y014126D01*
X011659Y014200D02*
X014828Y014200D01*
X014807Y014204D02*
X014886Y014191D01*
X014886Y014191D01*
X014886Y014661D01*
X014416Y014661D01*
X014429Y014582D01*
X014454Y014505D01*
X014490Y014434D01*
X014537Y014369D01*
X014594Y014312D01*
X014659Y014265D01*
X014731Y014228D01*
X014807Y014204D01*
X014807Y014159D02*
X014731Y014134D01*
X014659Y014097D01*
X014594Y014050D01*
X014537Y013993D01*
X014490Y013928D01*
X014454Y013857D01*
X014429Y013781D01*
X014416Y013701D01*
X014886Y013701D01*
X014886Y013621D01*
X014416Y013621D01*
X014429Y013542D01*
X014454Y013465D01*
X014490Y013394D01*
X014537Y013329D01*
X014594Y013272D01*
X014659Y013225D01*
X014731Y013188D01*
X014807Y013164D01*
X014886Y013151D01*
X014886Y013151D01*
X014886Y013621D01*
X014966Y013621D01*
X014966Y013151D01*
X014966Y013151D01*
X015046Y013164D01*
X015122Y013188D01*
X015194Y013225D01*
X015259Y013272D01*
X015315Y013329D01*
X015362Y013394D01*
X015399Y013465D01*
X015424Y013542D01*
X015436Y013621D01*
X014966Y013621D01*
X014966Y013701D01*
X014886Y013701D01*
X014886Y014171D01*
X014807Y014159D01*
X014886Y014171D02*
X014886Y014171D01*
X014886Y014200D02*
X014966Y014200D01*
X014966Y014191D02*
X015046Y014204D01*
X015122Y014228D01*
X015194Y014265D01*
X015259Y014312D01*
X015315Y014369D01*
X015362Y014434D01*
X015399Y014505D01*
X015424Y014582D01*
X015436Y014661D01*
X014966Y014661D01*
X014966Y014191D01*
X014966Y014191D01*
X014966Y014171D02*
X014966Y013701D01*
X015436Y013701D01*
X015436Y013701D01*
X015424Y013781D01*
X015399Y013857D01*
X015362Y013928D01*
X015315Y013993D01*
X015259Y014050D01*
X015194Y014097D01*
X015122Y014134D01*
X015046Y014159D01*
X014966Y014171D01*
X014966Y014171D01*
X014966Y014122D02*
X014886Y014122D01*
X014886Y014043D02*
X014966Y014043D01*
X014966Y013965D02*
X014886Y013965D01*
X014886Y013886D02*
X014966Y013886D01*
X014966Y013808D02*
X014886Y013808D01*
X014886Y013729D02*
X014966Y013729D01*
X014966Y013651D02*
X016616Y013651D01*
X016616Y013729D02*
X015432Y013729D01*
X015415Y013808D02*
X016616Y013808D01*
X016616Y013886D02*
X015384Y013886D01*
X015336Y013965D02*
X016616Y013965D01*
X016616Y014043D02*
X015265Y014043D01*
X015145Y014122D02*
X016616Y014122D01*
X016616Y014200D02*
X015025Y014200D01*
X014966Y014279D02*
X014886Y014279D01*
X014886Y014357D02*
X014966Y014357D01*
X014966Y014436D02*
X014886Y014436D01*
X014886Y014515D02*
X014966Y014515D01*
X014966Y014593D02*
X014886Y014593D01*
X014886Y014661D02*
X014966Y014661D01*
X014966Y014741D01*
X014886Y014741D01*
X014886Y014661D01*
X014886Y014672D02*
X014416Y014672D01*
X014416Y014661D02*
X014416Y014661D01*
X014416Y014604D02*
X014416Y014799D01*
X014342Y014979D01*
X014204Y015116D01*
X014024Y015191D01*
X013829Y015191D01*
X013649Y015116D01*
X013511Y014979D01*
X013436Y014799D01*
X013436Y014604D01*
X013511Y014424D01*
X013649Y014286D01*
X013829Y014211D01*
X014024Y014211D01*
X014204Y014286D01*
X014342Y014424D01*
X014416Y014604D01*
X014412Y014593D02*
X014427Y014593D01*
X014451Y014515D02*
X014379Y014515D01*
X014347Y014436D02*
X014489Y014436D01*
X014549Y014357D02*
X014276Y014357D01*
X014187Y014279D02*
X014640Y014279D01*
X014707Y014122D02*
X014094Y014122D01*
X014237Y014043D02*
X014587Y014043D01*
X014517Y013965D02*
X014316Y013965D01*
X014363Y013886D02*
X014469Y013886D01*
X014438Y013808D02*
X014396Y013808D01*
X014416Y013729D02*
X014421Y013729D01*
X014416Y013701D02*
X014416Y013701D01*
X014416Y013651D02*
X014886Y013651D01*
X014886Y013572D02*
X014966Y013572D01*
X014966Y013493D02*
X014886Y013493D01*
X014886Y013415D02*
X014966Y013415D01*
X014966Y013336D02*
X014886Y013336D01*
X014886Y013258D02*
X014966Y013258D01*
X014966Y013179D02*
X014886Y013179D01*
X014759Y013179D02*
X014566Y013179D01*
X014566Y013101D02*
X016616Y013101D01*
X016616Y013179D02*
X015094Y013179D01*
X015239Y013258D02*
X016616Y013258D01*
X016616Y013336D02*
X015321Y013336D01*
X015373Y013415D02*
X016616Y013415D01*
X016616Y013493D02*
X015408Y013493D01*
X015429Y013572D02*
X016616Y013572D01*
X016616Y013022D02*
X014566Y013022D01*
X014566Y012944D02*
X016616Y012944D01*
X016616Y012865D02*
X014566Y012865D01*
X014566Y012787D02*
X016616Y012787D01*
X016616Y012708D02*
X014566Y012708D01*
X014566Y012629D02*
X016616Y012629D01*
X016616Y012551D02*
X014566Y012551D01*
X014566Y012472D02*
X016616Y012472D01*
X016616Y012394D02*
X014566Y012394D01*
X014566Y012315D02*
X016616Y012315D01*
X016616Y012237D02*
X015526Y012237D01*
X015513Y012250D02*
X015366Y012311D01*
X015207Y012311D01*
X015060Y012250D01*
X014947Y012138D01*
X014886Y011991D01*
X014886Y011831D01*
X014947Y011684D01*
X015060Y011572D01*
X015207Y011511D01*
X015366Y011511D01*
X015513Y011572D01*
X015625Y011684D01*
X015686Y011831D01*
X015686Y011991D01*
X015625Y012138D01*
X015513Y012250D01*
X015605Y012158D02*
X016616Y012158D01*
X016616Y012080D02*
X015649Y012080D01*
X015682Y012001D02*
X016616Y012001D01*
X016616Y011923D02*
X015686Y011923D01*
X015686Y011844D02*
X016616Y011844D01*
X016616Y011766D02*
X015659Y011766D01*
X015626Y011687D02*
X016616Y011687D01*
X016616Y011608D02*
X015549Y011608D01*
X015411Y011530D02*
X016616Y011530D01*
X016616Y011451D02*
X014566Y011451D01*
X014566Y011373D02*
X016616Y011373D01*
X016616Y011294D02*
X014566Y011294D01*
X014566Y011216D02*
X016616Y011216D01*
X016616Y011137D02*
X014566Y011137D01*
X014566Y011059D02*
X016616Y011059D01*
X016616Y010980D02*
X014566Y010980D01*
X014566Y010902D02*
X016616Y010902D01*
X016616Y010823D02*
X014566Y010823D01*
X014566Y010744D02*
X016616Y010744D01*
X016616Y010666D02*
X014566Y010666D01*
X014566Y010587D02*
X016616Y010587D01*
X016616Y010509D02*
X014566Y010509D01*
X014566Y010430D02*
X016616Y010430D01*
X016616Y010352D02*
X015509Y010352D01*
X015513Y010350D02*
X015366Y010411D01*
X015207Y010411D01*
X015060Y010350D01*
X014947Y010238D01*
X014886Y010091D01*
X014886Y009931D01*
X014947Y009784D01*
X015060Y009672D01*
X015207Y009611D01*
X015366Y009611D01*
X015513Y009672D01*
X015625Y009784D01*
X015686Y009931D01*
X015686Y010091D01*
X015625Y010238D01*
X015513Y010350D01*
X015590Y010273D02*
X016616Y010273D01*
X016616Y010195D02*
X015643Y010195D01*
X015676Y010116D02*
X016616Y010116D01*
X016616Y010038D02*
X015686Y010038D01*
X015686Y009959D02*
X016616Y009959D01*
X016616Y009880D02*
X015665Y009880D01*
X015633Y009802D02*
X016616Y009802D01*
X016616Y009723D02*
X015564Y009723D01*
X015447Y009645D02*
X016616Y009645D01*
X016616Y009566D02*
X014566Y009566D01*
X014566Y009488D02*
X016616Y009488D01*
X016616Y009409D02*
X014566Y009409D01*
X014566Y009331D02*
X016616Y009331D01*
X016616Y009252D02*
X014566Y009252D01*
X014566Y009174D02*
X016616Y009174D01*
X016616Y009095D02*
X014566Y009095D01*
X014566Y009016D02*
X016616Y009016D01*
X016616Y008938D02*
X014566Y008938D01*
X014566Y008859D02*
X016616Y008859D01*
X016616Y008781D02*
X014566Y008781D01*
X014566Y008702D02*
X016616Y008702D01*
X016616Y008624D02*
X014566Y008624D01*
X014566Y008545D02*
X016616Y008545D01*
X016616Y008467D02*
X016225Y008467D01*
X016244Y008457D02*
X016172Y008494D01*
X016096Y008519D01*
X016016Y008531D01*
X016016Y008531D01*
X016016Y008061D01*
X015936Y008061D01*
X015936Y007981D01*
X015466Y007981D01*
X015479Y007902D01*
X015504Y007825D01*
X015540Y007754D01*
X015587Y007689D01*
X015644Y007632D01*
X015709Y007585D01*
X015781Y007548D01*
X015857Y007524D01*
X015936Y007511D01*
X015936Y007511D01*
X015936Y007981D01*
X016016Y007981D01*
X016016Y007511D01*
X016016Y007511D01*
X016096Y007524D01*
X016172Y007548D01*
X016244Y007585D01*
X016309Y007632D01*
X016365Y007689D01*
X016412Y007754D01*
X016449Y007825D01*
X016474Y007902D01*
X016486Y007981D01*
X016016Y007981D01*
X016016Y008061D01*
X016486Y008061D01*
X016486Y008061D01*
X016474Y008141D01*
X016449Y008217D01*
X016412Y008288D01*
X016365Y008353D01*
X016309Y008410D01*
X016244Y008457D01*
X016330Y008388D02*
X016616Y008388D01*
X016616Y008310D02*
X016397Y008310D01*
X016442Y008231D02*
X016616Y008231D01*
X016616Y008153D02*
X016470Y008153D01*
X016484Y008074D02*
X016616Y008074D01*
X016616Y007995D02*
X016016Y007995D01*
X016016Y007917D02*
X015936Y007917D01*
X015936Y007995D02*
X014566Y007995D01*
X014566Y007917D02*
X015476Y007917D01*
X015466Y007981D02*
X015466Y007981D01*
X015466Y008061D02*
X015936Y008061D01*
X015936Y008531D01*
X015857Y008519D01*
X015781Y008494D01*
X015709Y008457D01*
X015644Y008410D01*
X015587Y008353D01*
X015540Y008288D01*
X015504Y008217D01*
X015479Y008141D01*
X015466Y008061D01*
X015466Y008061D01*
X015468Y008074D02*
X014566Y008074D01*
X014566Y008153D02*
X015483Y008153D01*
X015511Y008231D02*
X014566Y008231D01*
X014566Y008310D02*
X015556Y008310D01*
X015622Y008388D02*
X014566Y008388D01*
X014566Y008467D02*
X015728Y008467D01*
X015936Y008467D02*
X016016Y008467D01*
X016016Y008388D02*
X015936Y008388D01*
X015936Y008310D02*
X016016Y008310D01*
X016016Y008231D02*
X015936Y008231D01*
X015936Y008153D02*
X016016Y008153D01*
X016016Y008074D02*
X015936Y008074D01*
X015936Y007838D02*
X016016Y007838D01*
X016016Y007760D02*
X015936Y007760D01*
X015936Y007681D02*
X016016Y007681D01*
X016016Y007603D02*
X015936Y007603D01*
X015936Y007524D02*
X016016Y007524D01*
X015974Y007511D02*
X015779Y007511D01*
X015599Y007436D01*
X015461Y007299D01*
X015386Y007119D01*
X015386Y006924D01*
X015461Y006744D01*
X015599Y006606D01*
X015779Y006531D01*
X015974Y006531D01*
X016154Y006606D01*
X016292Y006744D01*
X016366Y006924D01*
X016366Y007119D01*
X016292Y007299D01*
X016154Y007436D01*
X015974Y007511D01*
X015855Y007524D02*
X014566Y007524D01*
X014566Y007446D02*
X015621Y007446D01*
X015529Y007367D02*
X014566Y007367D01*
X014566Y007289D02*
X015457Y007289D01*
X015424Y007210D02*
X014566Y007210D01*
X014566Y007131D02*
X015392Y007131D01*
X015386Y007053D02*
X014566Y007053D01*
X014566Y006974D02*
X015386Y006974D01*
X015398Y006896D02*
X014566Y006896D01*
X014566Y006817D02*
X015430Y006817D01*
X015466Y006739D02*
X014566Y006739D01*
X014566Y006660D02*
X015544Y006660D01*
X015657Y006582D02*
X014566Y006582D01*
X014566Y006503D02*
X015860Y006503D01*
X015879Y006511D02*
X015699Y006436D01*
X015561Y006299D01*
X015486Y006119D01*
X015486Y005924D01*
X015561Y005744D01*
X015699Y005606D01*
X015879Y005531D01*
X016074Y005531D01*
X016254Y005606D01*
X016392Y005744D01*
X016466Y005924D01*
X016466Y006119D01*
X016392Y006299D01*
X016254Y006436D01*
X016074Y006511D01*
X015879Y006511D01*
X015687Y006425D02*
X014566Y006425D01*
X014566Y006346D02*
X015608Y006346D01*
X015548Y006267D02*
X014566Y006267D01*
X014566Y006189D02*
X015515Y006189D01*
X015486Y006110D02*
X014566Y006110D01*
X014566Y006032D02*
X015486Y006032D01*
X015486Y005953D02*
X014566Y005953D01*
X014566Y005875D02*
X015507Y005875D01*
X015539Y005796D02*
X014566Y005796D01*
X014566Y005718D02*
X015587Y005718D01*
X015665Y005639D02*
X014566Y005639D01*
X014566Y005561D02*
X015808Y005561D01*
X015779Y005511D02*
X015599Y005436D01*
X015461Y005299D01*
X015386Y005119D01*
X015386Y004924D01*
X015461Y004744D01*
X015599Y004606D01*
X015779Y004531D01*
X015974Y004531D01*
X016154Y004606D01*
X016292Y004744D01*
X016366Y004924D01*
X016366Y005119D01*
X016292Y005299D01*
X016154Y005436D01*
X015974Y005511D01*
X015779Y005511D01*
X015709Y005482D02*
X014566Y005482D01*
X014566Y005404D02*
X015566Y005404D01*
X015487Y005325D02*
X014566Y005325D01*
X014566Y005246D02*
X015439Y005246D01*
X015407Y005168D02*
X014566Y005168D01*
X014566Y005089D02*
X015386Y005089D01*
X015386Y005011D02*
X014566Y005011D01*
X014566Y004932D02*
X015386Y004932D01*
X015415Y004854D02*
X014566Y004854D01*
X014566Y004775D02*
X015448Y004775D01*
X015508Y004697D02*
X014566Y004697D01*
X014566Y004618D02*
X015586Y004618D01*
X015758Y004540D02*
X014566Y004540D01*
X014566Y004461D02*
X015716Y004461D01*
X015709Y004457D02*
X015644Y004410D01*
X015587Y004353D01*
X015540Y004288D01*
X015504Y004217D01*
X015479Y004141D01*
X015466Y004061D01*
X015936Y004061D01*
X015936Y003981D01*
X016016Y003981D01*
X016016Y004061D01*
X015936Y004061D01*
X015936Y004531D01*
X015857Y004519D01*
X015781Y004494D01*
X015709Y004457D01*
X015616Y004382D02*
X014566Y004382D01*
X014566Y004304D02*
X015551Y004304D01*
X015508Y004225D02*
X014566Y004225D01*
X014566Y004147D02*
X015481Y004147D01*
X015467Y004068D02*
X014566Y004068D01*
X014566Y003990D02*
X015936Y003990D01*
X015936Y004068D02*
X016016Y004068D01*
X016016Y004061D02*
X016016Y004531D01*
X016016Y004531D01*
X016096Y004519D01*
X016172Y004494D01*
X016244Y004457D01*
X016309Y004410D01*
X016365Y004353D01*
X016412Y004288D01*
X016449Y004217D01*
X016474Y004141D01*
X016486Y004061D01*
X016486Y004061D01*
X016016Y004061D01*
X016016Y003990D02*
X016616Y003990D01*
X016616Y004068D02*
X016485Y004068D01*
X016472Y004147D02*
X016616Y004147D01*
X016616Y004225D02*
X016445Y004225D01*
X016401Y004304D02*
X016616Y004304D01*
X016616Y004382D02*
X016336Y004382D01*
X016236Y004461D02*
X016616Y004461D01*
X016616Y004540D02*
X015994Y004540D01*
X015936Y004531D02*
X015936Y004531D01*
X015936Y004461D02*
X016016Y004461D01*
X016016Y004382D02*
X015936Y004382D01*
X015936Y004304D02*
X016016Y004304D01*
X016016Y004225D02*
X015936Y004225D01*
X015936Y004147D02*
X016016Y004147D01*
X016016Y003911D02*
X015936Y003911D01*
X015936Y003833D02*
X016016Y003833D01*
X016016Y003754D02*
X015936Y003754D01*
X015936Y003676D02*
X016016Y003676D01*
X016016Y003597D02*
X015936Y003597D01*
X016260Y003597D02*
X016616Y003597D01*
X016616Y003676D02*
X016352Y003676D01*
X016413Y003754D02*
X016616Y003754D01*
X016616Y003833D02*
X016451Y003833D01*
X016475Y003911D02*
X016616Y003911D01*
X016486Y003981D02*
X016486Y003981D01*
X016616Y004618D02*
X016166Y004618D01*
X016245Y004697D02*
X016616Y004697D01*
X016616Y004775D02*
X016305Y004775D01*
X016337Y004854D02*
X016616Y004854D01*
X016616Y004932D02*
X016366Y004932D01*
X016366Y005011D02*
X016616Y005011D01*
X016616Y005089D02*
X016366Y005089D01*
X016346Y005168D02*
X016616Y005168D01*
X016616Y005246D02*
X016313Y005246D01*
X016265Y005325D02*
X016616Y005325D01*
X016616Y005404D02*
X016187Y005404D01*
X016145Y005561D02*
X016616Y005561D01*
X016616Y005639D02*
X016287Y005639D01*
X016366Y005718D02*
X016616Y005718D01*
X016616Y005796D02*
X016413Y005796D01*
X016446Y005875D02*
X016616Y005875D01*
X016616Y005953D02*
X016466Y005953D01*
X016466Y006032D02*
X016616Y006032D01*
X016616Y006110D02*
X016466Y006110D01*
X016437Y006189D02*
X016616Y006189D01*
X016616Y006267D02*
X016405Y006267D01*
X016344Y006346D02*
X016616Y006346D01*
X016616Y006425D02*
X016266Y006425D01*
X016093Y006503D02*
X016616Y006503D01*
X016616Y006582D02*
X016096Y006582D01*
X016208Y006660D02*
X016616Y006660D01*
X016616Y006739D02*
X016287Y006739D01*
X016322Y006817D02*
X016616Y006817D01*
X016616Y006896D02*
X016355Y006896D01*
X016366Y006974D02*
X016616Y006974D01*
X016616Y007053D02*
X016366Y007053D01*
X016361Y007131D02*
X016616Y007131D01*
X016616Y007210D02*
X016328Y007210D01*
X016296Y007289D02*
X016616Y007289D01*
X016616Y007367D02*
X016223Y007367D01*
X016132Y007446D02*
X016616Y007446D01*
X016616Y007524D02*
X016097Y007524D01*
X016268Y007603D02*
X016616Y007603D01*
X016616Y007681D02*
X016358Y007681D01*
X016415Y007760D02*
X016616Y007760D01*
X016616Y007838D02*
X016453Y007838D01*
X016476Y007917D02*
X016616Y007917D01*
X016486Y007981D02*
X016486Y007981D01*
X015936Y008531D02*
X015936Y008531D01*
X015499Y007838D02*
X014566Y007838D01*
X014566Y007760D02*
X015537Y007760D01*
X015595Y007681D02*
X014566Y007681D01*
X014566Y007603D02*
X015684Y007603D01*
X014246Y007603D02*
X013446Y007603D01*
X013446Y007681D02*
X014246Y007681D01*
X014246Y007760D02*
X013446Y007760D01*
X013446Y007838D02*
X014246Y007838D01*
X014246Y007917D02*
X013446Y007917D01*
X013446Y007995D02*
X014246Y007995D01*
X014246Y008074D02*
X013446Y008074D01*
X013446Y008153D02*
X014246Y008153D01*
X014246Y008231D02*
X013446Y008231D01*
X013446Y008310D02*
X014246Y008310D01*
X014246Y008388D02*
X013446Y008388D01*
X013446Y008467D02*
X014246Y008467D01*
X014246Y008545D02*
X013446Y008545D01*
X013446Y008624D02*
X014246Y008624D01*
X014246Y008702D02*
X013446Y008702D01*
X013446Y008781D02*
X014246Y008781D01*
X014246Y008859D02*
X013446Y008859D01*
X013446Y008938D02*
X014246Y008938D01*
X014246Y009016D02*
X013437Y009016D01*
X013359Y009095D02*
X014246Y009095D01*
X014246Y009174D02*
X013280Y009174D01*
X013201Y009252D02*
X014246Y009252D01*
X014246Y009331D02*
X013123Y009331D01*
X013044Y009409D02*
X014246Y009409D01*
X014246Y009488D02*
X012966Y009488D01*
X012887Y009566D02*
X014246Y009566D01*
X014246Y009645D02*
X012809Y009645D01*
X012730Y009723D02*
X014246Y009723D01*
X014246Y009802D02*
X012652Y009802D01*
X012573Y009880D02*
X014246Y009880D01*
X014246Y009959D02*
X012495Y009959D01*
X012416Y010038D02*
X014246Y010038D01*
X014246Y010116D02*
X012338Y010116D01*
X012259Y010195D02*
X014246Y010195D01*
X014246Y010273D02*
X012180Y010273D01*
X012102Y010352D02*
X014246Y010352D01*
X014246Y010430D02*
X012023Y010430D01*
X011945Y010509D02*
X014246Y010509D01*
X014246Y010587D02*
X011866Y010587D01*
X011788Y010666D02*
X014246Y010666D01*
X014246Y010744D02*
X011709Y010744D01*
X011631Y010823D02*
X014246Y010823D01*
X014246Y010902D02*
X010205Y010902D01*
X010283Y010980D02*
X010997Y010980D01*
X010919Y011059D02*
X010321Y011059D01*
X010344Y011137D02*
X010886Y011137D01*
X010868Y011216D02*
X010344Y011216D01*
X010325Y011294D02*
X010868Y011294D01*
X010892Y011373D02*
X010344Y011373D01*
X010423Y011451D02*
X010931Y011451D01*
X011010Y011530D02*
X010501Y011530D01*
X010580Y011608D02*
X011046Y011608D01*
X011046Y011687D02*
X010658Y011687D01*
X010737Y011766D02*
X011046Y011766D01*
X011046Y011844D02*
X010815Y011844D01*
X010886Y011923D02*
X011043Y011923D01*
X010948Y012001D02*
X010886Y012001D01*
X010886Y012080D02*
X010899Y012080D01*
X010726Y011981D02*
X010006Y011261D01*
X010006Y011181D01*
X010049Y011530D02*
X008886Y011530D01*
X008886Y011608D02*
X010127Y011608D01*
X010206Y011687D02*
X008886Y011687D01*
X008886Y011766D02*
X010284Y011766D01*
X010363Y011844D02*
X008850Y011844D01*
X008771Y011923D02*
X010442Y011923D01*
X010520Y012001D02*
X008692Y012001D01*
X008614Y012080D02*
X009500Y012080D01*
X009401Y012158D02*
X008535Y012158D01*
X008457Y012237D02*
X009350Y012237D01*
X009318Y012315D02*
X008378Y012315D01*
X008300Y012394D02*
X009318Y012394D01*
X009328Y012472D02*
X008221Y012472D01*
X008143Y012551D02*
X009361Y012551D01*
X009427Y012629D02*
X008064Y012629D01*
X007986Y012708D02*
X009456Y012708D01*
X009456Y012787D02*
X007907Y012787D01*
X007829Y012865D02*
X009456Y012865D01*
X009456Y012944D02*
X007750Y012944D01*
X007671Y013022D02*
X009456Y013022D01*
X009456Y013101D02*
X007593Y013101D01*
X007514Y013179D02*
X009456Y013179D01*
X009421Y013258D02*
X007458Y013258D01*
X007464Y013336D02*
X009359Y013336D01*
X009326Y013415D02*
X007462Y013415D01*
X007429Y013493D02*
X009318Y013493D01*
X009320Y013572D02*
X007374Y013572D01*
X007126Y013341D02*
X008726Y011741D01*
X008726Y011181D01*
X008934Y011451D02*
X009798Y011451D01*
X009720Y011373D02*
X009668Y011248D01*
X009668Y011181D01*
X009620Y011181D01*
X009458Y011181D01*
X009403Y011189D01*
X009393Y011181D01*
X009380Y011181D01*
X009341Y011142D01*
X009073Y010941D01*
X008964Y010941D01*
X009013Y010990D01*
X009064Y011114D01*
X009064Y011248D01*
X009013Y011373D01*
X009045Y011294D02*
X009687Y011294D01*
X009668Y011216D02*
X009064Y011216D01*
X009064Y011137D02*
X009334Y011137D01*
X009230Y011059D02*
X009041Y011059D01*
X009003Y010980D02*
X009125Y010980D01*
X008806Y010061D02*
X008806Y009901D01*
X009926Y009901D01*
X009766Y009101D02*
X009686Y009021D01*
X009686Y008061D01*
X010486Y007261D01*
X010486Y006141D01*
X010886Y005581D02*
X010886Y007501D01*
X010406Y007981D01*
X010326Y007981D01*
X010566Y008621D02*
X011046Y008141D01*
X011046Y004781D01*
X010726Y004461D01*
X010566Y004381D01*
X011206Y004301D02*
X011206Y010221D01*
X011686Y009741D02*
X012166Y009261D01*
X012166Y004541D01*
X011766Y006061D02*
X011766Y007661D01*
X013446Y007524D02*
X014246Y007524D01*
X014246Y007446D02*
X013446Y007446D01*
X013446Y007367D02*
X014246Y007367D01*
X014246Y007289D02*
X013446Y007289D01*
X013446Y007210D02*
X014246Y007210D01*
X014246Y007131D02*
X013446Y007131D01*
X013446Y007053D02*
X014246Y007053D01*
X014246Y006974D02*
X013446Y006974D01*
X013446Y006896D02*
X014246Y006896D01*
X014246Y006817D02*
X013446Y006817D01*
X013446Y006739D02*
X014246Y006739D01*
X014246Y006660D02*
X013446Y006660D01*
X013446Y006582D02*
X014246Y006582D01*
X014246Y006503D02*
X013446Y006503D01*
X013446Y006425D02*
X014246Y006425D01*
X014246Y006346D02*
X013446Y006346D01*
X013446Y006267D02*
X014246Y006267D01*
X014246Y006189D02*
X013446Y006189D01*
X013446Y006110D02*
X014246Y006110D01*
X014246Y006032D02*
X013446Y006032D01*
X013446Y005953D02*
X014246Y005953D01*
X014246Y005875D02*
X013446Y005875D01*
X013446Y005796D02*
X014246Y005796D01*
X014246Y005718D02*
X013446Y005718D01*
X013446Y005639D02*
X014246Y005639D01*
X014246Y005561D02*
X013446Y005561D01*
X013446Y005482D02*
X014246Y005482D01*
X014246Y005404D02*
X013446Y005404D01*
X013446Y005325D02*
X014246Y005325D01*
X014246Y005246D02*
X013446Y005246D01*
X013446Y005168D02*
X014246Y005168D01*
X014246Y005089D02*
X013446Y005089D01*
X013446Y005011D02*
X014246Y005011D01*
X014246Y004932D02*
X013446Y004932D01*
X013446Y004854D02*
X014246Y004854D01*
X014246Y004775D02*
X013446Y004775D01*
X013446Y004697D02*
X014246Y004697D01*
X014246Y004618D02*
X013446Y004618D01*
X013446Y004540D02*
X014246Y004540D01*
X014246Y004461D02*
X013446Y004461D01*
X013446Y004382D02*
X014246Y004382D01*
X014246Y004304D02*
X013446Y004304D01*
X013446Y004225D02*
X014246Y004225D01*
X014246Y004147D02*
X013446Y004147D01*
X013446Y004068D02*
X014246Y004068D01*
X014246Y003990D02*
X013446Y003990D01*
X013446Y003911D02*
X014246Y003911D01*
X014246Y003833D02*
X013446Y003833D01*
X013446Y003754D02*
X014246Y003754D01*
X014246Y003676D02*
X013446Y003676D01*
X013446Y003597D02*
X014246Y003597D01*
X014246Y003518D02*
X013446Y003518D01*
X013446Y003440D02*
X014246Y003440D01*
X014246Y003361D02*
X013446Y003361D01*
X013446Y003283D02*
X014246Y003283D01*
X014246Y003204D02*
X013446Y003204D01*
X013446Y003126D02*
X014246Y003126D01*
X014246Y003047D02*
X013962Y003047D01*
X014041Y002969D02*
X014246Y002969D01*
X014246Y002890D02*
X014119Y002890D01*
X014186Y002812D02*
X014246Y002812D01*
X014246Y002733D02*
X014186Y002733D01*
X014186Y002654D02*
X014246Y002654D01*
X014246Y002576D02*
X014186Y002576D01*
X014186Y002497D02*
X014216Y002497D01*
X013530Y003047D02*
X013446Y003047D01*
X013446Y002969D02*
X013452Y002969D01*
X013431Y001948D02*
X013393Y001948D01*
X013352Y001869D02*
X013308Y001869D01*
X013306Y001791D02*
X013223Y001791D01*
X013186Y001712D02*
X013306Y001712D01*
X013306Y001633D02*
X013186Y001633D01*
X013186Y001555D02*
X013306Y001555D01*
X013306Y001476D02*
X013186Y001476D01*
X013125Y001398D02*
X013367Y001398D01*
X013446Y001319D02*
X013047Y001319D01*
X012968Y001241D02*
X013524Y001241D01*
X014566Y003597D02*
X015692Y003597D01*
X015587Y003689D02*
X015540Y003754D01*
X015501Y003833D02*
X014566Y003833D01*
X014566Y003911D02*
X015477Y003911D01*
X015466Y003981D02*
X015466Y003981D01*
X015466Y004061D02*
X015466Y004061D01*
X016044Y005482D02*
X016616Y005482D01*
X015125Y009645D02*
X014566Y009645D01*
X014566Y009723D02*
X015008Y009723D01*
X014940Y009802D02*
X014566Y009802D01*
X014566Y009880D02*
X014907Y009880D01*
X014886Y009959D02*
X014566Y009959D01*
X014566Y010038D02*
X014886Y010038D01*
X014897Y010116D02*
X014566Y010116D01*
X014566Y010195D02*
X014929Y010195D01*
X014983Y010273D02*
X014566Y010273D01*
X014566Y010352D02*
X015064Y010352D01*
X014246Y010980D02*
X012043Y010980D01*
X012122Y011059D02*
X014246Y011059D01*
X014246Y011137D02*
X012161Y011137D01*
X012184Y011216D02*
X014246Y011216D01*
X014246Y011294D02*
X012184Y011294D01*
X012166Y011373D02*
X014246Y011373D01*
X014246Y011451D02*
X012133Y011451D01*
X012056Y011530D02*
X014246Y011530D01*
X014246Y011608D02*
X012006Y011608D01*
X012006Y011687D02*
X014246Y011687D01*
X014246Y011766D02*
X012006Y011766D01*
X012006Y011844D02*
X014246Y011844D01*
X014246Y011923D02*
X012009Y011923D01*
X012104Y012001D02*
X014246Y012001D01*
X014246Y012080D02*
X012154Y012080D01*
X012184Y012158D02*
X014246Y012158D01*
X014246Y012237D02*
X012184Y012237D01*
X012173Y012315D02*
X014246Y012315D01*
X014246Y012394D02*
X012141Y012394D01*
X012073Y012472D02*
X014246Y012472D01*
X014246Y012551D02*
X011933Y012551D01*
X011759Y012551D02*
X011293Y012551D01*
X011433Y012472D02*
X011619Y012472D01*
X011552Y012394D02*
X011501Y012394D01*
X011206Y012221D02*
X011206Y011249D01*
X011416Y010980D02*
X011649Y010980D01*
X011571Y011059D02*
X011494Y011059D01*
X011526Y011137D02*
X011532Y011137D01*
X011846Y011261D02*
X011846Y012221D01*
X011119Y012551D02*
X010886Y012551D01*
X010886Y012629D02*
X014246Y012629D01*
X014246Y012708D02*
X010886Y012708D01*
X010886Y012787D02*
X014246Y012787D01*
X014246Y012865D02*
X010968Y012865D01*
X011027Y012944D02*
X014246Y012944D01*
X014246Y013022D02*
X011060Y013022D01*
X011064Y013101D02*
X014246Y013101D01*
X014182Y013179D02*
X014044Y013179D01*
X013809Y013179D02*
X011060Y013179D01*
X011027Y013258D02*
X013637Y013258D01*
X013558Y013336D02*
X010969Y013336D01*
X010852Y013415D02*
X013498Y013415D01*
X013465Y013493D02*
X009994Y013493D01*
X009987Y013415D02*
X010600Y013415D01*
X010483Y013336D02*
X009954Y013336D01*
X009891Y013258D02*
X010425Y013258D01*
X010393Y013179D02*
X009856Y013179D01*
X009856Y013101D02*
X010388Y013101D01*
X010393Y013022D02*
X009856Y013022D01*
X009856Y012944D02*
X010426Y012944D01*
X010484Y012865D02*
X009856Y012865D01*
X009856Y012787D02*
X010566Y012787D01*
X010566Y012708D02*
X009856Y012708D01*
X009886Y012629D02*
X010566Y012629D01*
X010566Y012551D02*
X009952Y012551D01*
X009984Y012472D02*
X010566Y012472D01*
X010566Y012394D02*
X009994Y012394D01*
X009994Y012315D02*
X010566Y012315D01*
X010566Y012237D02*
X009962Y012237D01*
X009912Y012158D02*
X010566Y012158D01*
X010566Y012080D02*
X009812Y012080D01*
X010726Y011981D02*
X010726Y013101D01*
X010886Y012472D02*
X010979Y012472D01*
X010912Y012394D02*
X010886Y012394D01*
X009993Y013572D02*
X013436Y013572D01*
X013436Y013651D02*
X009960Y013651D01*
X009906Y013729D02*
X013436Y013729D01*
X013457Y013808D02*
X009800Y013808D01*
X009620Y014122D02*
X010038Y014122D01*
X010029Y014126D02*
X010209Y014051D01*
X010404Y014051D01*
X010584Y014126D01*
X010722Y014264D01*
X010796Y014444D01*
X010796Y014639D01*
X010722Y014819D01*
X010584Y014956D01*
X010435Y015018D01*
X010556Y015068D01*
X010679Y015192D01*
X010746Y015354D01*
X010746Y016169D01*
X010679Y016330D01*
X010556Y016454D01*
X010394Y016521D01*
X010219Y016521D01*
X010057Y016454D01*
X009933Y016330D01*
X009866Y016169D01*
X009866Y015354D01*
X009933Y015192D01*
X010057Y015068D01*
X010178Y015018D01*
X010029Y014956D01*
X009891Y014819D01*
X009816Y014639D01*
X009816Y014444D01*
X009891Y014264D01*
X010029Y014126D01*
X009954Y014200D02*
X009699Y014200D01*
X009745Y014279D02*
X009885Y014279D01*
X009852Y014357D02*
X009777Y014357D01*
X009796Y014436D02*
X009819Y014436D01*
X009816Y014515D02*
X009796Y014515D01*
X009796Y014593D02*
X009816Y014593D01*
X009830Y014672D02*
X009766Y014672D01*
X009733Y014750D02*
X009863Y014750D01*
X009901Y014829D02*
X009672Y014829D01*
X009593Y014907D02*
X009979Y014907D01*
X010100Y014986D02*
X009416Y014986D01*
X009394Y015001D02*
X009556Y015068D01*
X009679Y015192D01*
X009746Y015354D01*
X009746Y016169D01*
X009679Y016330D01*
X009556Y016454D01*
X009394Y016521D01*
X009219Y016521D01*
X009057Y016454D01*
X008933Y016330D01*
X008866Y016169D01*
X008866Y015354D01*
X008933Y015192D01*
X009057Y015068D01*
X009219Y015001D01*
X009394Y015001D01*
X009546Y015064D02*
X010066Y015064D01*
X009982Y015143D02*
X009630Y015143D01*
X009692Y015221D02*
X009921Y015221D01*
X009888Y015300D02*
X009724Y015300D01*
X009746Y015379D02*
X009866Y015379D01*
X009866Y015457D02*
X009746Y015457D01*
X009746Y015536D02*
X009866Y015536D01*
X009866Y015614D02*
X009746Y015614D01*
X009746Y015693D02*
X009866Y015693D01*
X009866Y015771D02*
X009746Y015771D01*
X009746Y015850D02*
X009866Y015850D01*
X009866Y015928D02*
X009746Y015928D01*
X009746Y016007D02*
X009866Y016007D01*
X009866Y016085D02*
X009746Y016085D01*
X009746Y016164D02*
X009866Y016164D01*
X009897Y016242D02*
X009716Y016242D01*
X009683Y016321D02*
X009929Y016321D01*
X010003Y016400D02*
X009610Y016400D01*
X009498Y016478D02*
X010115Y016478D01*
X010498Y016478D02*
X011115Y016478D01*
X011003Y016400D02*
X010610Y016400D01*
X010683Y016321D02*
X010929Y016321D01*
X010897Y016242D02*
X010716Y016242D01*
X010746Y016164D02*
X010866Y016164D01*
X010866Y016085D02*
X010746Y016085D01*
X010746Y016007D02*
X010866Y016007D01*
X010866Y015928D02*
X010746Y015928D01*
X010746Y015850D02*
X010866Y015850D01*
X010866Y015771D02*
X010746Y015771D01*
X010746Y015693D02*
X010866Y015693D01*
X010866Y015614D02*
X010746Y015614D01*
X010746Y015536D02*
X010866Y015536D01*
X010866Y015457D02*
X010746Y015457D01*
X010746Y015379D02*
X010866Y015379D01*
X010888Y015300D02*
X010724Y015300D01*
X010692Y015221D02*
X010921Y015221D01*
X010982Y015143D02*
X010630Y015143D01*
X010546Y015064D02*
X011066Y015064D01*
X011100Y014986D02*
X010513Y014986D01*
X010633Y014907D02*
X010979Y014907D01*
X010901Y014829D02*
X010712Y014829D01*
X010750Y014750D02*
X010863Y014750D01*
X010830Y014672D02*
X010783Y014672D01*
X010796Y014593D02*
X010816Y014593D01*
X010816Y014515D02*
X010796Y014515D01*
X010793Y014436D02*
X010819Y014436D01*
X010852Y014357D02*
X010761Y014357D01*
X010728Y014279D02*
X010885Y014279D01*
X010954Y014200D02*
X010659Y014200D01*
X010574Y014122D02*
X011038Y014122D01*
X011728Y014279D02*
X013665Y014279D01*
X013577Y014357D02*
X011761Y014357D01*
X011793Y014436D02*
X013506Y014436D01*
X013473Y014515D02*
X011796Y014515D01*
X011796Y014593D02*
X013441Y014593D01*
X013436Y014672D02*
X011783Y014672D01*
X011750Y014750D02*
X013436Y014750D01*
X013449Y014829D02*
X011712Y014829D01*
X011633Y014907D02*
X013481Y014907D01*
X013518Y014986D02*
X011513Y014986D01*
X011546Y015064D02*
X013597Y015064D01*
X013712Y015143D02*
X011630Y015143D01*
X011692Y015221D02*
X016616Y015221D01*
X016616Y015143D02*
X015183Y015143D01*
X015194Y015137D02*
X015122Y015174D01*
X015046Y015199D01*
X014966Y015211D01*
X014966Y014741D01*
X015436Y014741D01*
X015436Y014741D01*
X015424Y014821D01*
X015399Y014897D01*
X015362Y014968D01*
X015315Y015033D01*
X015259Y015090D01*
X015194Y015137D01*
X015284Y015064D02*
X016616Y015064D01*
X016616Y014986D02*
X015350Y014986D01*
X015394Y014907D02*
X016616Y014907D01*
X016616Y014829D02*
X015421Y014829D01*
X015435Y014750D02*
X016616Y014750D01*
X016616Y014672D02*
X014966Y014672D01*
X014966Y014750D02*
X014886Y014750D01*
X014886Y014741D02*
X014886Y015211D01*
X014807Y015199D01*
X014731Y015174D01*
X014659Y015137D01*
X014594Y015090D01*
X014537Y015033D01*
X014490Y014968D01*
X014454Y014897D01*
X014429Y014821D01*
X014416Y014741D01*
X014886Y014741D01*
X014886Y014829D02*
X014966Y014829D01*
X014966Y014907D02*
X014886Y014907D01*
X014886Y014986D02*
X014966Y014986D01*
X014966Y015064D02*
X014886Y015064D01*
X014886Y015143D02*
X014966Y015143D01*
X014966Y015211D02*
X014966Y015211D01*
X014886Y015211D02*
X014886Y015211D01*
X014670Y015143D02*
X014140Y015143D01*
X014256Y015064D02*
X014568Y015064D01*
X014503Y014986D02*
X014335Y014986D01*
X014371Y014907D02*
X014459Y014907D01*
X014432Y014829D02*
X014404Y014829D01*
X014416Y014750D02*
X014418Y014750D01*
X014416Y014741D02*
X014416Y014741D01*
X015213Y014279D02*
X016616Y014279D01*
X016616Y014357D02*
X015304Y014357D01*
X015364Y014436D02*
X016616Y014436D01*
X016616Y014515D02*
X015402Y014515D01*
X015425Y014593D02*
X016616Y014593D01*
X016616Y015300D02*
X011724Y015300D01*
X011746Y015379D02*
X016616Y015379D01*
X016616Y015457D02*
X011746Y015457D01*
X011746Y015536D02*
X016616Y015536D01*
X016616Y015614D02*
X011746Y015614D01*
X011746Y015693D02*
X016616Y015693D01*
X016616Y015771D02*
X011746Y015771D01*
X011746Y015850D02*
X016616Y015850D01*
X016616Y015928D02*
X011746Y015928D01*
X011746Y016007D02*
X016616Y016007D01*
X016616Y016085D02*
X011746Y016085D01*
X011746Y016164D02*
X016616Y016164D01*
X016616Y016242D02*
X011716Y016242D01*
X011683Y016321D02*
X016616Y016321D01*
X016616Y016400D02*
X011610Y016400D01*
X011498Y016478D02*
X016616Y016478D01*
X015436Y014661D02*
X015436Y014661D01*
X015436Y013621D02*
X015436Y013621D01*
X014614Y013258D02*
X014556Y013258D01*
X014532Y013336D02*
X014477Y013336D01*
X014479Y013415D02*
X014399Y013415D01*
X014387Y013493D02*
X014444Y013493D01*
X014424Y013572D02*
X014416Y013572D01*
X014416Y013621D02*
X014416Y013621D01*
X013489Y013886D02*
X006566Y013886D01*
X008416Y014986D02*
X009196Y014986D01*
X009066Y015064D02*
X008546Y015064D01*
X008630Y015143D02*
X008982Y015143D01*
X008921Y015221D02*
X008692Y015221D01*
X008724Y015300D02*
X008888Y015300D01*
X008866Y015379D02*
X008746Y015379D01*
X008746Y015457D02*
X008866Y015457D01*
X008866Y015536D02*
X008746Y015536D01*
X008746Y015614D02*
X008866Y015614D01*
X008866Y015693D02*
X008746Y015693D01*
X008746Y015771D02*
X008866Y015771D01*
X008866Y015850D02*
X008746Y015850D01*
X008746Y015928D02*
X008866Y015928D01*
X008866Y016007D02*
X008746Y016007D01*
X008746Y016085D02*
X008866Y016085D01*
X008866Y016164D02*
X008746Y016164D01*
X008716Y016242D02*
X008897Y016242D01*
X008929Y016321D02*
X008683Y016321D01*
X008610Y016400D02*
X009003Y016400D01*
X009115Y016478D02*
X008498Y016478D01*
X008593Y014907D02*
X009019Y014907D01*
X008941Y014829D02*
X008672Y014829D01*
X008733Y014750D02*
X008879Y014750D01*
X008847Y014672D02*
X008766Y014672D01*
X008796Y014593D02*
X008816Y014593D01*
X008816Y014515D02*
X008796Y014515D01*
X008796Y014436D02*
X008816Y014436D01*
X008835Y014357D02*
X008777Y014357D01*
X008745Y014279D02*
X008868Y014279D01*
X008914Y014200D02*
X008699Y014200D01*
X008620Y014122D02*
X008993Y014122D01*
X009131Y014043D02*
X008481Y014043D01*
X009046Y009501D02*
X009046Y008941D01*
X008886Y008781D01*
X008886Y007421D01*
X009206Y007101D01*
X009206Y006301D01*
X009482Y006503D02*
X009686Y006503D01*
X009686Y006425D02*
X009521Y006425D01*
X009544Y006346D02*
X009686Y006346D01*
X009686Y006267D02*
X009544Y006267D01*
X009526Y006189D02*
X009686Y006189D01*
X009686Y005953D02*
X008486Y005953D01*
X008486Y005875D02*
X009686Y005875D01*
X009686Y005796D02*
X008486Y005796D01*
X008486Y005718D02*
X009686Y005718D01*
X009682Y005639D02*
X008486Y005639D01*
X008486Y005561D02*
X009588Y005561D01*
X009539Y005482D02*
X008486Y005482D01*
X008486Y005404D02*
X009508Y005404D01*
X009508Y005325D02*
X008486Y005325D01*
X008486Y005246D02*
X009520Y005246D01*
X009552Y005168D02*
X008486Y005168D01*
X008486Y006032D02*
X008997Y006032D01*
X008919Y006110D02*
X008486Y006110D01*
X008486Y006189D02*
X008887Y006189D01*
X008868Y006267D02*
X008486Y006267D01*
X008486Y006346D02*
X008523Y006346D01*
X008726Y006621D02*
X008646Y006701D01*
X008646Y009101D01*
X008086Y008859D02*
X008083Y008859D01*
X008100Y008781D02*
X007957Y008781D01*
X009046Y007760D02*
X009059Y007760D01*
X009046Y007681D02*
X009108Y007681D01*
X009046Y007603D02*
X009203Y007603D01*
X009046Y007524D02*
X009517Y007524D01*
X009595Y007446D02*
X009088Y007446D01*
X009167Y007367D02*
X009674Y007367D01*
X009686Y007289D02*
X009245Y007289D01*
X009324Y007210D02*
X009686Y007210D01*
X009686Y007131D02*
X009366Y007131D01*
X009366Y007053D02*
X009686Y007053D01*
X009686Y006974D02*
X009366Y006974D01*
X009366Y006896D02*
X009686Y006896D01*
X009686Y006817D02*
X009366Y006817D01*
X009366Y006739D02*
X009686Y006739D01*
X009686Y006660D02*
X009366Y006660D01*
X009404Y006582D02*
X009686Y006582D01*
X009846Y007421D02*
X009846Y005341D01*
X009846Y003741D01*
X010246Y003341D01*
X009502Y003047D02*
X008991Y003047D01*
X009069Y002969D02*
X009423Y002969D01*
X009345Y002890D02*
X009148Y002890D01*
X009206Y002812D02*
X009286Y002812D01*
X009286Y002733D02*
X009206Y002733D01*
X009206Y002576D02*
X009286Y002576D01*
X009286Y002497D02*
X009206Y002497D01*
X009175Y002419D02*
X009318Y002419D01*
X009397Y002340D02*
X009096Y002340D01*
X009017Y002262D02*
X009475Y002262D01*
X009554Y002183D02*
X008939Y002183D01*
X008786Y002183D02*
X008706Y002183D01*
X008706Y002262D02*
X008786Y002262D01*
X008786Y002340D02*
X008706Y002340D01*
X008706Y002419D02*
X008786Y002419D01*
X008786Y002497D02*
X008706Y002497D01*
X008706Y002576D02*
X008786Y002576D01*
X008786Y002812D02*
X008706Y002812D01*
X008706Y002890D02*
X008786Y002890D01*
X008786Y002969D02*
X008706Y002969D01*
X008706Y003047D02*
X008786Y003047D01*
X008502Y003047D02*
X007991Y003047D01*
X008069Y002969D02*
X008423Y002969D01*
X008345Y002890D02*
X008148Y002890D01*
X008206Y002812D02*
X008286Y002812D01*
X008286Y002733D02*
X008206Y002733D01*
X008206Y002576D02*
X008286Y002576D01*
X008286Y002497D02*
X008206Y002497D01*
X008175Y002419D02*
X008318Y002419D01*
X008397Y002340D02*
X008096Y002340D01*
X008017Y002262D02*
X008475Y002262D01*
X008554Y002183D02*
X007939Y002183D01*
X007786Y002183D02*
X007706Y002183D01*
X007706Y002262D02*
X007786Y002262D01*
X007786Y002340D02*
X007706Y002340D01*
X007706Y002419D02*
X007786Y002419D01*
X007786Y002497D02*
X007706Y002497D01*
X007706Y002576D02*
X007786Y002576D01*
X007475Y002262D02*
X007392Y002262D01*
X007397Y002340D02*
X007366Y002340D01*
X007470Y002183D02*
X007554Y002183D01*
X007549Y002105D02*
X009984Y002105D01*
X009939Y002183D02*
X010062Y002183D01*
X010086Y002262D02*
X010017Y002262D01*
X009786Y002262D02*
X009706Y002262D01*
X009706Y002340D02*
X009786Y002340D01*
X009786Y002419D02*
X009706Y002419D01*
X009706Y002497D02*
X009786Y002497D01*
X009786Y002576D02*
X009706Y002576D01*
X009706Y002183D02*
X009786Y002183D01*
X007446Y001319D02*
X006541Y001319D01*
X006522Y001398D02*
X007367Y001398D01*
X007306Y001476D02*
X006940Y001476D01*
X007015Y001555D02*
X007306Y001555D01*
X006513Y001476D02*
X006488Y001476D01*
X010566Y005261D02*
X010886Y005581D01*
X009846Y007421D02*
X009366Y007901D01*
X014566Y011530D02*
X015161Y011530D01*
X015023Y011608D02*
X014566Y011608D01*
X014566Y011687D02*
X014946Y011687D01*
X014914Y011766D02*
X014566Y011766D01*
X014566Y011844D02*
X014886Y011844D01*
X014886Y011923D02*
X014566Y011923D01*
X014566Y012001D02*
X014891Y012001D01*
X014923Y012080D02*
X014566Y012080D01*
X014566Y012158D02*
X014968Y012158D01*
X015046Y012237D02*
X014566Y012237D01*
X003438Y007603D02*
X001762Y007603D01*
D17*
X003206Y009661D03*
X004646Y009581D03*
X005366Y010381D03*
X005846Y009981D03*
X006086Y011261D03*
X007206Y011821D03*
X007766Y010861D03*
X008166Y010141D03*
X008806Y010061D03*
X009046Y009501D03*
X008646Y009101D03*
X007846Y009101D03*
X007206Y008621D03*
X006726Y007421D03*
X007446Y006941D03*
X006726Y005901D03*
X007446Y005501D03*
X006726Y004141D03*
X006246Y003661D03*
X005606Y004141D03*
X005606Y005421D03*
X005606Y006381D03*
X005766Y007661D03*
X005366Y008461D03*
X003206Y005421D03*
X003206Y004301D03*
X004326Y002141D03*
X006726Y001741D03*
X009846Y005341D03*
X010566Y005261D03*
X010566Y004381D03*
X011206Y004301D03*
X012166Y004541D03*
X011766Y006061D03*
X010486Y006141D03*
X009206Y006301D03*
X008726Y006621D03*
X009366Y007901D03*
X010326Y007981D03*
X010566Y008621D03*
X009766Y009101D03*
X009926Y009901D03*
X009606Y010541D03*
X010006Y011181D03*
X009656Y012381D03*
X009656Y013501D03*
X010726Y013101D03*
X011206Y012221D03*
X011846Y012221D03*
X011846Y011261D03*
X011206Y011249D03*
X011206Y010221D03*
X011686Y009741D03*
X011766Y007661D03*
X008726Y011181D03*
X007126Y013341D03*
X006406Y014541D03*
X005366Y014461D03*
D18*
X008006Y010541D02*
X009606Y010541D01*
X008006Y010541D02*
X007686Y010221D01*
X007686Y009261D01*
X007846Y009101D01*
X009656Y012381D02*
X009656Y013501D01*
X005606Y005421D02*
X005606Y004141D01*
X006726Y004141D02*
X006726Y001741D01*
M02*
