G75*
G70*
%OFA0B0*%
%FSLAX24Y24*%
%IPPOS*%
%LPD*%
%AMOC8*
5,1,8,0,0,1.08239X$1,22.5*
%
%ADD10R,0.0580X0.0300*%
%ADD11R,0.0300X0.0580*%
%ADD12R,0.0237X0.0671*%
%ADD13C,0.0740*%
%ADD14C,0.1380*%
%ADD15R,0.0820X0.0820*%
%ADD16C,0.0820*%
%ADD17C,0.2080*%
%ADD18C,0.0730*%
%ADD19C,0.1660*%
%ADD20R,0.0552X0.1064*%
%ADD21C,0.0434*%
%ADD22C,0.0877*%
%ADD23C,0.0694*%
%ADD24OC8,0.0720*%
%ADD25R,0.0710X0.0789*%
%ADD26C,0.0720*%
%ADD27R,0.0800X0.0800*%
%ADD28C,0.0800*%
%ADD29C,0.0640*%
%ADD30R,0.0880X0.0340*%
%ADD31R,0.0560X0.0960*%
%ADD32R,0.1497X0.0946*%
%ADD33R,0.0730X0.0730*%
%ADD34R,0.0631X0.0552*%
%ADD35R,0.0789X0.0710*%
%ADD36R,0.1025X0.0946*%
%ADD37R,0.0474X0.0789*%
D10*
X009810Y005619D03*
X009810Y005934D03*
X009810Y006249D03*
X009810Y006564D03*
X009810Y006879D03*
X009810Y007194D03*
X009810Y007509D03*
X009810Y007824D03*
X013190Y007824D03*
X013190Y007509D03*
X013190Y007194D03*
X013190Y006879D03*
X013190Y006564D03*
X013190Y006249D03*
X013190Y005934D03*
X013190Y005619D03*
D11*
X012602Y005032D03*
X012287Y005032D03*
X011972Y005032D03*
X011657Y005032D03*
X011343Y005032D03*
X011028Y005032D03*
X010713Y005032D03*
X010398Y005032D03*
X010398Y008412D03*
X010713Y008412D03*
X011028Y008412D03*
X011343Y008412D03*
X011657Y008412D03*
X011972Y008412D03*
X012287Y008412D03*
X012602Y008412D03*
D12*
X018599Y013159D03*
X018855Y013159D03*
X019111Y013159D03*
X019367Y013159D03*
X019623Y013159D03*
X019879Y013159D03*
X020134Y013159D03*
X020390Y013159D03*
X020646Y013159D03*
X020902Y013159D03*
X021158Y013159D03*
X021414Y013159D03*
X021670Y013159D03*
X021926Y013159D03*
X021926Y016014D03*
X021670Y016014D03*
X021414Y016014D03*
X021158Y016014D03*
X020902Y016014D03*
X020646Y016014D03*
X020390Y016014D03*
X020134Y016014D03*
X019879Y016014D03*
X019623Y016014D03*
X019367Y016014D03*
X019111Y016014D03*
X018855Y016014D03*
X018599Y016014D03*
D13*
X017125Y018493D03*
X017125Y019273D03*
X016141Y019273D03*
X016141Y018493D03*
D14*
X014263Y020343D03*
X019003Y020343D03*
X027650Y016622D03*
X027650Y004672D03*
X001650Y004672D03*
X001650Y016622D03*
D15*
X005032Y018344D03*
X017000Y001221D03*
D16*
X016000Y001221D03*
X015000Y001221D03*
X014000Y001221D03*
X020500Y008222D03*
X020500Y009222D03*
X021500Y009222D03*
X021500Y008222D03*
X023000Y007022D03*
X023000Y006022D03*
X021500Y011222D03*
X020500Y011222D03*
X009394Y018344D03*
X008304Y018344D03*
X007213Y018344D03*
X006123Y018344D03*
X005579Y019462D03*
X006670Y019462D03*
X007757Y019462D03*
X008847Y019462D03*
X002733Y012153D03*
X001733Y012153D03*
X001733Y011153D03*
X002733Y011153D03*
D17*
X002292Y018903D03*
X012134Y018903D03*
D18*
X003718Y015493D03*
X003718Y014493D03*
X011000Y010222D03*
X012000Y010222D03*
X014997Y008590D03*
X015997Y008590D03*
X015550Y010222D03*
X016550Y010222D03*
X009131Y005464D03*
X009131Y004464D03*
X028383Y007003D03*
X028443Y009513D03*
X028453Y012173D03*
D19*
X026333Y018379D03*
X024483Y019560D03*
X026333Y020742D03*
D20*
X022637Y020820D03*
X021653Y020820D03*
X020669Y020820D03*
D21*
X020256Y021903D03*
X023051Y021903D03*
D22*
X016373Y015610D03*
X016373Y013523D03*
X011255Y013523D03*
X011255Y015610D03*
D23*
X011846Y014566D03*
X012633Y014566D03*
X013421Y014566D03*
X014208Y014566D03*
X014995Y014566D03*
X015783Y014566D03*
D24*
X021000Y002222D03*
X022000Y002222D03*
X023000Y002222D03*
X024000Y002222D03*
X025000Y002222D03*
X026000Y002222D03*
X027000Y002222D03*
X027000Y001222D03*
X026000Y001222D03*
X025000Y001222D03*
X024000Y001222D03*
X023000Y001222D03*
X022000Y001222D03*
X021000Y001222D03*
D25*
X021949Y004222D03*
X023051Y004222D03*
D26*
X000823Y000798D03*
X002603Y000798D03*
X002603Y003358D03*
X000823Y003358D03*
D27*
X005000Y010222D03*
X012000Y001221D03*
X018000Y010222D03*
D28*
X018000Y009222D03*
X018000Y008222D03*
X018000Y007222D03*
X018000Y006222D03*
X018000Y005222D03*
X018000Y004222D03*
X018000Y003222D03*
X011000Y001221D03*
X010000Y001221D03*
X009000Y001221D03*
X008000Y001221D03*
X007000Y001221D03*
X006000Y001221D03*
X005000Y001221D03*
X005000Y003222D03*
X005000Y004222D03*
X005000Y005222D03*
X005000Y006222D03*
X005000Y007222D03*
X005000Y008222D03*
X005000Y009222D03*
D29*
X012500Y011622D03*
X014500Y011622D03*
D30*
X009313Y012003D03*
X009313Y012503D03*
X009313Y013003D03*
X009313Y013503D03*
X009313Y014003D03*
X009313Y014503D03*
X009313Y015003D03*
X009313Y015503D03*
X009313Y016003D03*
X009313Y016503D03*
X005353Y016503D03*
X005353Y016003D03*
X005353Y015503D03*
X005353Y015003D03*
X005353Y014503D03*
X005353Y014003D03*
X005353Y013503D03*
X005353Y013003D03*
X005353Y012503D03*
X005353Y012003D03*
D31*
X024243Y011313D03*
X025153Y011313D03*
X026063Y011313D03*
X026063Y008773D03*
X025153Y008773D03*
X024243Y008773D03*
D32*
X025153Y006333D03*
X025153Y013753D03*
D33*
X027453Y012173D03*
X027443Y009513D03*
X027383Y007003D03*
D34*
X021962Y017936D03*
X021962Y019117D03*
X002733Y007494D03*
X001733Y007494D03*
X001733Y006313D03*
X002733Y006313D03*
D35*
X002733Y008602D03*
X001733Y008602D03*
X001733Y009704D03*
X002733Y009704D03*
X016250Y011071D03*
X016250Y012173D03*
X020984Y017984D03*
X020984Y019086D03*
D36*
X025133Y017139D03*
X025133Y015207D03*
D37*
X026702Y014813D03*
X027804Y014813D03*
M02*
