G75*
G70*
%OFA0B0*%
%FSLAX24Y24*%
%IPPOS*%
%LPD*%
%AMOC8*
5,1,8,0,0,1.08239X$1,22.5*
%
%ADD10C,0.0100*%
%ADD11R,0.0500X0.0220*%
%ADD12R,0.0220X0.0500*%
%ADD13R,0.0157X0.0591*%
%ADD14C,0.0660*%
%ADD15C,0.1300*%
%ADD16R,0.0740X0.0740*%
%ADD17C,0.0740*%
%ADD18C,0.2000*%
%ADD19C,0.0650*%
%ADD20C,0.1580*%
%ADD21R,0.0472X0.0984*%
%ADD22C,0.0000*%
%ADD23C,0.0797*%
%ADD24C,0.0614*%
%ADD25OC8,0.0640*%
%ADD26R,0.0630X0.0709*%
%ADD27C,0.0640*%
%ADD28R,0.0720X0.0720*%
%ADD29C,0.0720*%
%ADD30C,0.0560*%
%ADD31R,0.0800X0.0260*%
%ADD32R,0.0480X0.0880*%
%ADD33R,0.1417X0.0866*%
%ADD34R,0.0650X0.0650*%
%ADD35R,0.0551X0.0472*%
%ADD36R,0.0709X0.0630*%
%ADD37R,0.0945X0.0866*%
%ADD38R,0.0394X0.0709*%
%ADD39C,0.0436*%
%ADD40C,0.0080*%
%ADD41OC8,0.0400*%
%ADD42C,0.0320*%
%ADD43C,0.0200*%
%ADD44C,0.0160*%
%ADD45C,0.0400*%
%ADD46R,0.0436X0.0436*%
D10*
X000153Y000153D02*
X029153Y000153D01*
X029153Y022653D01*
X000153Y022653D01*
X000153Y000153D01*
X000873Y000748D02*
X000873Y000848D01*
X000773Y000848D01*
X000773Y001268D01*
X000730Y001268D01*
X000557Y001196D01*
X000425Y001064D01*
X000373Y000940D01*
X000373Y003164D01*
X000408Y003080D01*
X000546Y002943D01*
X000726Y002868D01*
X000921Y002868D01*
X001101Y002943D01*
X001239Y003080D01*
X001313Y003261D01*
X001313Y003456D01*
X001239Y003636D01*
X001101Y003773D01*
X000921Y003848D01*
X000726Y003848D01*
X000546Y003773D01*
X000408Y003636D01*
X000373Y003552D01*
X000373Y022433D01*
X028933Y022433D01*
X028933Y000373D01*
X002857Y000373D01*
X002881Y000383D01*
X003019Y000520D01*
X003041Y000576D01*
X003060Y000575D01*
X003063Y000578D01*
X003067Y000578D01*
X003130Y000640D01*
X004587Y002002D01*
X005209Y002002D01*
X005391Y002002D01*
X006029Y002639D01*
X006012Y002599D01*
X006012Y002444D01*
X006071Y002302D01*
X006180Y002193D01*
X006323Y002134D01*
X006477Y002134D01*
X006620Y002193D01*
X006729Y002302D01*
X007655Y002302D01*
X007612Y002199D01*
X007612Y002044D01*
X007671Y001902D01*
X007780Y001793D01*
X007780Y001704D01*
X007700Y001670D01*
X007551Y001521D01*
X007500Y001399D01*
X007449Y001521D01*
X007300Y001670D01*
X007105Y001751D01*
X006894Y001751D01*
X006700Y001670D01*
X006551Y001521D01*
X006500Y001399D01*
X006449Y001521D01*
X006300Y001670D01*
X006105Y001751D01*
X005894Y001751D01*
X005700Y001670D01*
X005551Y001521D01*
X005500Y001399D01*
X005449Y001521D01*
X005300Y001670D01*
X005105Y001751D01*
X004894Y001751D01*
X004700Y001670D01*
X004551Y001521D01*
X004470Y001327D01*
X004470Y001116D01*
X004551Y000921D01*
X004700Y000772D01*
X004894Y000691D01*
X005105Y000691D01*
X005300Y000772D01*
X005449Y000921D01*
X005500Y001043D01*
X005551Y000921D01*
X005700Y000772D01*
X005894Y000691D01*
X006105Y000691D01*
X006300Y000772D01*
X006449Y000921D01*
X006500Y001043D01*
X006551Y000921D01*
X006700Y000772D01*
X006894Y000691D01*
X007105Y000691D01*
X007300Y000772D01*
X007449Y000921D01*
X007500Y001043D01*
X007551Y000921D01*
X007700Y000772D01*
X007894Y000691D01*
X008105Y000691D01*
X008300Y000772D01*
X008449Y000921D01*
X008500Y001043D01*
X008551Y000921D01*
X008700Y000772D01*
X008894Y000691D01*
X009105Y000691D01*
X009300Y000772D01*
X009449Y000921D01*
X009500Y001043D01*
X009551Y000921D01*
X009700Y000772D01*
X009894Y000691D01*
X010105Y000691D01*
X010300Y000772D01*
X010449Y000921D01*
X010500Y001043D01*
X010551Y000921D01*
X010700Y000772D01*
X010894Y000691D01*
X011105Y000691D01*
X011300Y000772D01*
X011449Y000921D01*
X011470Y000971D01*
X011470Y000791D01*
X011569Y000691D01*
X012430Y000691D01*
X012530Y000791D01*
X012530Y001652D01*
X012430Y001751D01*
X011781Y001751D01*
X011562Y001970D01*
X011562Y004632D01*
X011652Y004632D01*
X011652Y005026D01*
X011662Y005026D01*
X011662Y004632D01*
X011680Y004632D01*
X011680Y004531D01*
X011680Y004013D01*
X011680Y003831D01*
X011809Y003702D01*
X015509Y003702D01*
X015580Y003631D01*
X015580Y002113D01*
X015193Y001726D01*
X015107Y001761D01*
X014892Y001761D01*
X014694Y001679D01*
X014542Y001527D01*
X014500Y001425D01*
X014458Y001527D01*
X014306Y001679D01*
X014107Y001761D01*
X013892Y001761D01*
X013694Y001679D01*
X013542Y001527D01*
X013460Y001329D01*
X013460Y001114D01*
X013542Y000915D01*
X013694Y000763D01*
X013892Y000681D01*
X014107Y000681D01*
X014306Y000763D01*
X014458Y000915D01*
X014500Y001017D01*
X014542Y000915D01*
X014694Y000763D01*
X014892Y000681D01*
X015107Y000681D01*
X015306Y000763D01*
X015458Y000915D01*
X015500Y001017D01*
X015542Y000915D01*
X015694Y000763D01*
X015892Y000681D01*
X016107Y000681D01*
X016306Y000763D01*
X016458Y000915D01*
X016460Y000921D01*
X016460Y000781D01*
X016559Y000681D01*
X017440Y000681D01*
X017540Y000781D01*
X017540Y001662D01*
X017440Y001761D01*
X016559Y001761D01*
X016460Y001662D01*
X016460Y001522D01*
X016458Y001527D01*
X016306Y001679D01*
X016107Y001761D01*
X015892Y001761D01*
X015821Y001731D01*
X015891Y001802D01*
X019591Y001802D01*
X019720Y001931D01*
X019818Y002029D01*
X019871Y001902D01*
X019980Y001793D01*
X019980Y001731D01*
X020080Y001631D01*
X020209Y001502D01*
X020587Y001502D01*
X020510Y001425D01*
X020510Y001019D01*
X020797Y000732D01*
X021203Y000732D01*
X021490Y001019D01*
X021490Y001425D01*
X021413Y001502D01*
X021587Y001502D01*
X021510Y001425D01*
X021510Y001019D01*
X021797Y000732D01*
X022203Y000732D01*
X022490Y001019D01*
X022490Y001421D01*
X022510Y001401D01*
X022510Y001019D01*
X022797Y000732D01*
X023203Y000732D01*
X023490Y001019D01*
X023490Y001425D01*
X023203Y001712D01*
X022821Y001712D01*
X022801Y001732D01*
X023203Y001732D01*
X023490Y002019D01*
X023490Y002425D01*
X023203Y002712D01*
X022797Y002712D01*
X022510Y002425D01*
X022510Y002019D01*
X022587Y001942D01*
X022413Y001942D01*
X022490Y002019D01*
X022490Y002425D01*
X022203Y002712D01*
X021797Y002712D01*
X021510Y002425D01*
X021510Y002019D01*
X021587Y001942D01*
X021413Y001942D01*
X021490Y002019D01*
X021490Y002425D01*
X021203Y002712D01*
X020797Y002712D01*
X020510Y002425D01*
X020510Y002361D01*
X020420Y002451D01*
X020293Y002503D01*
X020591Y002802D01*
X024780Y002802D01*
X024780Y002695D01*
X024510Y002425D01*
X024510Y002019D01*
X024797Y001732D01*
X025203Y001732D01*
X025490Y002019D01*
X025490Y002425D01*
X025220Y002695D01*
X025220Y002931D01*
X025220Y003002D01*
X025509Y003002D01*
X025780Y002731D01*
X025780Y002695D01*
X025510Y002425D01*
X025510Y002019D01*
X025797Y001732D01*
X026203Y001732D01*
X026490Y002019D01*
X026490Y002425D01*
X026220Y002695D01*
X026220Y002913D01*
X026091Y003042D01*
X025931Y003202D01*
X026109Y003202D01*
X026698Y002613D01*
X026510Y002425D01*
X026510Y002019D01*
X026797Y001732D01*
X027203Y001732D01*
X027490Y002019D01*
X027490Y002425D01*
X027220Y002695D01*
X027220Y002713D01*
X027091Y002842D01*
X026420Y003513D01*
X026291Y003642D01*
X021231Y003642D01*
X021464Y003875D01*
X021464Y003797D01*
X021563Y003697D01*
X022334Y003697D01*
X022434Y003797D01*
X022434Y004646D01*
X022334Y004746D01*
X021563Y004746D01*
X021464Y004646D01*
X021464Y004442D01*
X021409Y004442D01*
X020909Y003942D01*
X019129Y003942D01*
X019020Y004051D01*
X018877Y004110D01*
X018723Y004110D01*
X018580Y004051D01*
X018471Y003942D01*
X018457Y003942D01*
X018530Y004117D01*
X018530Y004328D01*
X018449Y004522D01*
X018300Y004672D01*
X018178Y004722D01*
X018300Y004773D01*
X018449Y004922D01*
X018530Y005117D01*
X018530Y005328D01*
X018449Y005522D01*
X018300Y005672D01*
X018178Y005722D01*
X018300Y005773D01*
X018449Y005922D01*
X018530Y006117D01*
X018530Y006328D01*
X018449Y006522D01*
X018300Y006672D01*
X018178Y006722D01*
X018300Y006773D01*
X018449Y006922D01*
X018530Y007117D01*
X018530Y007328D01*
X018458Y007502D01*
X018853Y007502D01*
X019520Y006835D01*
X019613Y006742D01*
X019734Y006692D01*
X021434Y006692D01*
X022566Y006692D01*
X022694Y006564D01*
X022796Y006522D01*
X022694Y006479D01*
X022542Y006328D01*
X022460Y006129D01*
X022460Y005914D01*
X022542Y005716D01*
X022694Y005564D01*
X022780Y005528D01*
X022780Y004746D01*
X022666Y004746D01*
X022566Y004646D01*
X022566Y003797D01*
X022666Y003697D01*
X023437Y003697D01*
X023536Y003797D01*
X023536Y004646D01*
X023437Y004746D01*
X023220Y004746D01*
X023220Y005528D01*
X023306Y005564D01*
X023458Y005716D01*
X023540Y005914D01*
X023540Y006129D01*
X023458Y006328D01*
X023306Y006479D01*
X023204Y006522D01*
X023306Y006564D01*
X023434Y006692D01*
X023623Y006692D01*
X023623Y005826D01*
X023746Y005703D01*
X023920Y005703D01*
X026480Y005703D01*
X026603Y005826D01*
X026603Y006000D01*
X026603Y006692D01*
X026888Y006692D01*
X026888Y006608D01*
X026988Y006508D01*
X027779Y006508D01*
X027878Y006608D01*
X027878Y007398D01*
X027779Y007498D01*
X026988Y007498D01*
X026888Y007398D01*
X026888Y007352D01*
X026603Y007352D01*
X026603Y008240D01*
X026480Y008363D01*
X026453Y008363D01*
X026453Y008723D01*
X026113Y008723D01*
X026113Y008823D01*
X026013Y008823D01*
X026013Y008723D01*
X025673Y008723D01*
X025673Y008363D01*
X025643Y008363D01*
X025643Y009360D01*
X025520Y009483D01*
X025346Y009483D01*
X024786Y009483D01*
X024663Y009360D01*
X024663Y009186D01*
X024663Y008363D01*
X024653Y008363D01*
X024653Y009284D01*
X024554Y009383D01*
X024108Y009383D01*
X023683Y009818D01*
X023683Y016556D01*
X023683Y017767D01*
X023683Y017899D01*
X023633Y018020D01*
X022408Y019245D01*
X022408Y019424D01*
X022308Y019523D01*
X022130Y019523D01*
X021983Y019670D01*
X021983Y020182D01*
X022059Y020258D01*
X022059Y021383D01*
X021960Y021483D01*
X021347Y021483D01*
X021247Y021383D01*
X021247Y020258D01*
X021323Y020182D01*
X021323Y019670D01*
X021302Y019620D01*
X021302Y019551D01*
X021034Y019551D01*
X021034Y019136D01*
X021488Y019136D01*
X021488Y019231D01*
X021517Y019203D01*
X021517Y018810D01*
X021616Y018711D01*
X022009Y018711D01*
X023023Y017696D01*
X023023Y016842D01*
X022929Y016842D01*
X022820Y016951D01*
X022677Y017010D01*
X022523Y017010D01*
X022380Y016951D01*
X022271Y016842D01*
X022212Y016699D01*
X022212Y016544D01*
X022271Y016402D01*
X022380Y016293D01*
X022523Y016234D01*
X022677Y016234D01*
X022820Y016293D01*
X022929Y016402D01*
X023023Y016402D01*
X023023Y010013D01*
X022051Y010013D01*
X021999Y010017D01*
X021986Y010013D01*
X021973Y010013D01*
X021924Y009993D01*
X021874Y009976D01*
X021864Y009968D01*
X021852Y009963D01*
X021814Y009926D01*
X021618Y009757D01*
X021607Y009762D01*
X021393Y009762D01*
X021194Y009679D01*
X021042Y009528D01*
X020989Y009399D01*
X020941Y009516D01*
X020795Y009663D01*
X020603Y009742D01*
X020550Y009742D01*
X020550Y009272D01*
X020450Y009272D01*
X020450Y009742D01*
X020397Y009742D01*
X020205Y009663D01*
X020059Y009516D01*
X019980Y009325D01*
X019980Y009272D01*
X020450Y009272D01*
X020450Y009172D01*
X019980Y009172D01*
X019980Y009118D01*
X020059Y008927D01*
X020205Y008781D01*
X020348Y008722D01*
X020205Y008663D01*
X020059Y008516D01*
X019980Y008325D01*
X019980Y008272D01*
X020450Y008272D01*
X020450Y008742D01*
X020450Y009172D01*
X020550Y009172D01*
X020550Y008742D01*
X020550Y008272D01*
X020450Y008272D01*
X020450Y008172D01*
X019980Y008172D01*
X019980Y008118D01*
X020059Y007927D01*
X020205Y007781D01*
X020397Y007702D01*
X020450Y007702D01*
X020450Y008172D01*
X020550Y008172D01*
X020550Y007702D01*
X020603Y007702D01*
X020795Y007781D01*
X020941Y007927D01*
X020989Y008044D01*
X021042Y007916D01*
X021170Y007788D01*
X021170Y007352D01*
X019937Y007352D01*
X019430Y007858D01*
X019430Y012341D01*
X019491Y012402D01*
X019620Y012531D01*
X019620Y012694D01*
X019729Y012694D01*
X020028Y012694D01*
X020048Y012714D01*
X020134Y012714D01*
X020134Y013159D01*
X020135Y013159D01*
X020135Y012714D01*
X020221Y012714D01*
X020241Y012694D01*
X020497Y012694D01*
X020753Y012694D01*
X021009Y012694D01*
X021265Y012694D01*
X021521Y012694D01*
X021777Y012694D01*
X022075Y012694D01*
X022123Y012742D01*
X022123Y012043D01*
X021738Y011708D01*
X021607Y011762D01*
X021393Y011762D01*
X021194Y011679D01*
X021042Y011528D01*
X020989Y011399D01*
X020941Y011516D01*
X020795Y011663D01*
X020603Y011742D01*
X020550Y011742D01*
X020550Y011272D01*
X020450Y011272D01*
X020450Y011742D01*
X020397Y011742D01*
X020205Y011663D01*
X020059Y011516D01*
X019980Y011325D01*
X019980Y011272D01*
X020450Y011272D01*
X020450Y011172D01*
X019980Y011172D01*
X019980Y011118D01*
X020059Y010927D01*
X020205Y010781D01*
X020397Y010702D01*
X020450Y010702D01*
X020450Y011172D01*
X020550Y011172D01*
X020550Y010702D01*
X020603Y010702D01*
X020795Y010781D01*
X020941Y010927D01*
X020989Y011044D01*
X021042Y010916D01*
X021194Y010764D01*
X021393Y010682D01*
X021607Y010682D01*
X021806Y010764D01*
X021958Y010916D01*
X022040Y011114D01*
X022040Y011329D01*
X022014Y011391D01*
X022412Y011737D01*
X022420Y011737D01*
X022477Y011794D01*
X022537Y011846D01*
X022537Y011854D01*
X022543Y011860D01*
X022543Y011940D01*
X022549Y012020D01*
X022543Y012026D01*
X022543Y013726D01*
X022543Y013900D01*
X021113Y015330D01*
X021113Y015568D01*
X021158Y015568D01*
X021158Y016013D01*
X021158Y016013D01*
X021158Y015568D01*
X021245Y015568D01*
X021265Y015548D01*
X021563Y015548D01*
X021819Y015548D01*
X022075Y015548D01*
X022175Y015648D01*
X022175Y015961D01*
X022176Y015964D01*
X022176Y016063D01*
X022175Y016066D01*
X022175Y016379D01*
X022163Y016391D01*
X022163Y016751D01*
X022166Y016758D01*
X022163Y016800D01*
X022163Y016843D01*
X022160Y016850D01*
X022160Y016857D01*
X022141Y016896D01*
X022125Y016935D01*
X022120Y016940D01*
X022116Y016947D01*
X022085Y016975D01*
X022055Y017005D01*
X022048Y017008D01*
X021450Y017540D01*
X021508Y017598D01*
X021508Y017606D01*
X021540Y017606D01*
X021616Y017530D01*
X022308Y017530D01*
X022408Y017629D01*
X022408Y018242D01*
X022308Y018342D01*
X021616Y018342D01*
X021540Y018266D01*
X021508Y018266D01*
X021508Y018369D01*
X021409Y018469D01*
X020559Y018469D01*
X020460Y018369D01*
X020460Y017683D01*
X019460Y017683D01*
X017806Y019412D01*
X017805Y019415D01*
X017772Y019447D01*
X017740Y019482D01*
X017737Y019483D01*
X017735Y019485D01*
X017692Y019503D01*
X017649Y019522D01*
X017646Y019522D01*
X017643Y019523D01*
X017595Y019523D01*
X017563Y019524D01*
X017549Y019556D01*
X017409Y019697D01*
X017225Y019773D01*
X017026Y019773D01*
X016842Y019697D01*
X016701Y019556D01*
X016625Y019373D01*
X016625Y019174D01*
X016701Y018990D01*
X016808Y018883D01*
X016701Y018776D01*
X016633Y018611D01*
X016565Y018776D01*
X016444Y018897D01*
X016548Y019001D01*
X016621Y019178D01*
X016621Y019233D01*
X016181Y019233D01*
X016181Y019313D01*
X016101Y019313D01*
X016101Y019233D01*
X015661Y019233D01*
X015661Y019178D01*
X015734Y019001D01*
X015838Y018897D01*
X015717Y018776D01*
X015641Y018593D01*
X015641Y018394D01*
X015717Y018210D01*
X015858Y018069D01*
X016042Y017993D01*
X016241Y017993D01*
X016424Y018069D01*
X016565Y018210D01*
X016633Y018375D01*
X016701Y018210D01*
X016842Y018069D01*
X017026Y017993D01*
X017225Y017993D01*
X017409Y018069D01*
X017549Y018210D01*
X017563Y018243D01*
X017705Y018243D01*
X018900Y016975D01*
X018901Y016971D01*
X018933Y016939D01*
X018965Y016905D01*
X018969Y016904D01*
X018972Y016901D01*
X019014Y016884D01*
X019056Y016865D01*
X019060Y016865D01*
X019063Y016863D01*
X019110Y016863D01*
X019155Y016862D01*
X019159Y016863D01*
X020327Y016863D01*
X020317Y016853D01*
X020258Y016710D01*
X020258Y016556D01*
X020295Y016468D01*
X020284Y016479D01*
X020028Y016479D01*
X019772Y016479D01*
X019474Y016479D01*
X019454Y016459D01*
X019367Y016459D01*
X019367Y016014D01*
X019367Y016014D01*
X019367Y016459D01*
X019252Y016459D01*
X019111Y016459D01*
X019111Y016014D01*
X019111Y016014D01*
X019111Y016459D01*
X019024Y016459D01*
X019004Y016479D01*
X018748Y016479D01*
X018450Y016479D01*
X018350Y016379D01*
X018350Y015648D01*
X018450Y015548D01*
X018748Y015548D01*
X019004Y015548D01*
X019024Y015568D01*
X019111Y015568D01*
X019252Y015568D01*
X019367Y015568D01*
X019454Y015568D01*
X019474Y015548D01*
X019772Y015548D01*
X020028Y015548D01*
X020284Y015548D01*
X020304Y015568D01*
X020390Y015568D01*
X020390Y016013D01*
X020391Y016013D01*
X020391Y015568D01*
X020477Y015568D01*
X020497Y015548D01*
X020693Y015548D01*
X020693Y015156D01*
X020816Y015033D01*
X022123Y013726D01*
X022123Y013576D01*
X022075Y013624D01*
X021777Y013624D01*
X021521Y013624D01*
X021265Y013624D01*
X021009Y013624D01*
X020753Y013624D01*
X020497Y013624D01*
X020241Y013624D01*
X020221Y013604D01*
X020135Y013604D01*
X020135Y013160D01*
X020134Y013160D01*
X020134Y013604D01*
X020048Y013604D01*
X020028Y013624D01*
X019810Y013624D01*
X019810Y013815D01*
X019810Y013989D01*
X017250Y016549D01*
X017127Y016672D01*
X014327Y016672D01*
X014153Y016672D01*
X014030Y016549D01*
X014030Y015009D01*
X013938Y014971D01*
X013814Y014847D01*
X013691Y014971D01*
X013515Y015043D01*
X013326Y015043D01*
X013241Y015008D01*
X011861Y016427D01*
X011861Y016429D01*
X011800Y016490D01*
X011741Y016551D01*
X011739Y016551D01*
X011738Y016552D01*
X011653Y016552D01*
X011567Y016553D01*
X011566Y016552D01*
X010743Y016552D01*
X010251Y017044D01*
X010077Y017044D01*
X007184Y017044D01*
X007061Y016921D01*
X006384Y016244D01*
X005882Y016244D01*
X005874Y016253D01*
X005923Y016303D01*
X005923Y016703D01*
X005824Y016803D01*
X004883Y016803D01*
X004783Y016703D01*
X004783Y016303D01*
X004833Y016253D01*
X004783Y016203D01*
X004783Y015803D01*
X004833Y015753D01*
X004783Y015703D01*
X004783Y015303D01*
X004833Y015253D01*
X004783Y015203D01*
X004783Y014803D01*
X004833Y014753D01*
X004783Y014703D01*
X004783Y014644D01*
X004681Y014644D01*
X004681Y016747D01*
X005118Y017184D01*
X006064Y017184D01*
X006238Y017184D01*
X006361Y017307D01*
X006361Y017858D01*
X006429Y017886D01*
X006580Y018038D01*
X006663Y018237D01*
X006663Y018451D01*
X006580Y018650D01*
X006429Y018802D01*
X006230Y018884D01*
X006015Y018884D01*
X005817Y018802D01*
X005665Y018650D01*
X005583Y018451D01*
X005583Y018237D01*
X005665Y018038D01*
X005817Y017886D01*
X005941Y017835D01*
X005941Y017604D01*
X004944Y017604D01*
X004821Y017481D01*
X004261Y016921D01*
X004261Y016747D01*
X004261Y014347D01*
X004384Y014224D01*
X004558Y014224D01*
X004832Y014224D01*
X004803Y014195D01*
X004803Y014018D01*
X005338Y014018D01*
X005338Y013988D01*
X004803Y013988D01*
X004803Y013960D01*
X004772Y013960D01*
X004273Y013960D01*
X004079Y014154D01*
X004138Y014213D01*
X004213Y014395D01*
X004213Y014592D01*
X004138Y014773D01*
X003999Y014913D01*
X003817Y014988D01*
X003620Y014988D01*
X003438Y014913D01*
X003299Y014773D01*
X003223Y014592D01*
X003223Y014395D01*
X003299Y014213D01*
X003438Y014073D01*
X003594Y014009D01*
X003594Y014008D01*
X003595Y014008D01*
X003607Y014003D01*
X003962Y013649D01*
X004091Y013520D01*
X004456Y013520D01*
X004424Y013507D01*
X004320Y013403D01*
X004263Y013267D01*
X004263Y013119D01*
X004320Y012984D01*
X004424Y012879D01*
X004503Y012846D01*
X004503Y012160D01*
X004503Y011986D01*
X004583Y011906D01*
X004706Y011783D01*
X004803Y011783D01*
X004883Y011703D01*
X005824Y011703D01*
X005832Y011711D01*
X005864Y011679D01*
X006000Y011623D01*
X006147Y011623D01*
X006283Y011679D01*
X006387Y011784D01*
X006443Y011919D01*
X006443Y012067D01*
X006387Y012203D01*
X006283Y012307D01*
X006147Y012363D01*
X006000Y012363D01*
X005903Y012323D01*
X005903Y012488D01*
X005369Y012488D01*
X005369Y012518D01*
X005903Y012518D01*
X005903Y012695D01*
X005859Y012739D01*
X005923Y012803D01*
X005923Y013203D01*
X005874Y013253D01*
X005923Y013303D01*
X006080Y013303D01*
X006184Y013199D01*
X006320Y013143D01*
X006467Y013143D01*
X006603Y013199D01*
X006707Y013304D01*
X006763Y013439D01*
X006763Y013587D01*
X006707Y013723D01*
X006603Y013827D01*
X006467Y013883D01*
X006320Y013883D01*
X006184Y013827D01*
X006080Y013723D01*
X005904Y013723D01*
X005859Y013767D01*
X005903Y013811D01*
X005903Y013988D01*
X005369Y013988D01*
X005369Y014018D01*
X007881Y014018D01*
X007863Y014000D02*
X007863Y012306D01*
X007760Y012203D01*
X007703Y012067D01*
X007703Y011919D01*
X007760Y011784D01*
X007864Y011679D01*
X008000Y011623D01*
X008147Y011623D01*
X008283Y011679D01*
X008387Y011784D01*
X008443Y011919D01*
X008443Y012067D01*
X008387Y012203D01*
X008283Y012306D01*
X008283Y013826D01*
X008423Y013966D01*
X008423Y013895D01*
X008423Y012386D01*
X008546Y012263D01*
X008720Y012263D01*
X008783Y012263D01*
X008793Y012253D01*
X008743Y012203D01*
X008743Y011803D01*
X008843Y011703D01*
X009307Y011703D01*
X009180Y011651D01*
X009071Y011542D01*
X004091Y011542D01*
X003389Y012244D01*
X004503Y012244D01*
X004503Y012343D02*
X003290Y012343D01*
X003260Y012373D02*
X003227Y012373D01*
X003191Y012459D01*
X003039Y012611D01*
X002841Y012693D01*
X002626Y012693D01*
X002427Y012611D01*
X002275Y012459D01*
X002233Y012357D01*
X002191Y012459D01*
X002039Y012611D01*
X001965Y012642D01*
X002067Y012744D01*
X002123Y012879D01*
X002123Y012951D01*
X002240Y012903D01*
X002387Y012903D01*
X002523Y012959D01*
X002627Y013064D01*
X002683Y013199D01*
X002683Y013346D01*
X003100Y013763D01*
X003223Y013886D01*
X003223Y017180D01*
X003327Y017284D01*
X003383Y017419D01*
X003383Y017567D01*
X003327Y017703D01*
X003223Y017807D01*
X003087Y017863D01*
X002940Y017863D01*
X002804Y017807D01*
X002700Y017703D01*
X002643Y017567D01*
X002643Y017419D01*
X002700Y017284D01*
X002803Y017180D01*
X002803Y014060D01*
X002386Y013643D01*
X002240Y013643D01*
X002104Y013587D01*
X002000Y013483D01*
X001943Y013347D01*
X001943Y013275D01*
X001827Y013323D01*
X001680Y013323D01*
X001544Y013267D01*
X001440Y013163D01*
X001383Y013027D01*
X001383Y012879D01*
X001440Y012744D01*
X001530Y012653D01*
X001427Y012611D01*
X001275Y012459D01*
X001193Y012260D01*
X001193Y012046D01*
X001275Y011847D01*
X001427Y011695D01*
X001529Y011653D01*
X001427Y011611D01*
X001275Y011459D01*
X001193Y011260D01*
X001193Y011046D01*
X001275Y010847D01*
X001403Y010719D01*
X001403Y010189D01*
X001309Y010189D01*
X001209Y010090D01*
X001209Y009319D01*
X001309Y009219D01*
X002158Y009219D01*
X002233Y009295D01*
X002309Y009219D01*
X003158Y009219D01*
X003258Y009319D01*
X003258Y010090D01*
X003158Y010189D01*
X003063Y010189D01*
X003063Y010719D01*
X003191Y010847D01*
X003273Y011046D01*
X003273Y011260D01*
X003191Y011459D01*
X003039Y011611D01*
X002937Y011653D01*
X003039Y011695D01*
X003177Y011833D01*
X003780Y011231D01*
X003780Y004131D01*
X003909Y004002D01*
X004503Y003408D01*
X004470Y003328D01*
X004470Y003117D01*
X004551Y002922D01*
X004700Y002773D01*
X004895Y002692D01*
X005106Y002692D01*
X005300Y002773D01*
X005449Y002922D01*
X005530Y003117D01*
X005530Y003328D01*
X005449Y003522D01*
X005300Y003672D01*
X005178Y003722D01*
X005300Y003773D01*
X005449Y003922D01*
X005530Y004117D01*
X005530Y004328D01*
X005449Y004522D01*
X005300Y004672D01*
X005178Y004722D01*
X005300Y004773D01*
X005449Y004922D01*
X005482Y005002D01*
X006591Y005002D01*
X006720Y005131D01*
X006823Y005234D01*
X006977Y005234D01*
X007120Y005293D01*
X007229Y005402D01*
X007288Y005544D01*
X007288Y005699D01*
X007232Y005834D01*
X007377Y005834D01*
X007520Y005893D01*
X007580Y005953D01*
X007580Y003851D01*
X007471Y003742D01*
X007412Y003599D01*
X007412Y003444D01*
X007471Y003302D01*
X007580Y003193D01*
X007703Y003142D01*
X007529Y003142D01*
X007420Y003251D01*
X007277Y003310D01*
X007123Y003310D01*
X006980Y003251D01*
X006871Y003142D01*
X006812Y002999D01*
X006812Y002844D01*
X006854Y002742D01*
X006729Y002742D01*
X006620Y002851D01*
X006477Y002910D01*
X006323Y002910D01*
X006282Y002893D01*
X006923Y003534D01*
X007077Y003534D01*
X007220Y003593D01*
X007329Y003702D01*
X007388Y003844D01*
X007388Y003999D01*
X007329Y004142D01*
X007220Y004251D01*
X007077Y004310D01*
X006923Y004310D01*
X006780Y004251D01*
X006671Y004142D01*
X006612Y003999D01*
X006612Y003845D01*
X005209Y002442D01*
X004503Y002442D01*
X004416Y002445D01*
X004413Y002442D01*
X004409Y002442D01*
X004347Y002380D01*
X002986Y001108D01*
X002881Y001213D01*
X002701Y001288D01*
X002506Y001288D01*
X002326Y001213D01*
X002188Y001076D01*
X002113Y000896D01*
X002113Y000701D01*
X002188Y000520D01*
X002326Y000383D01*
X002349Y000373D01*
X001025Y000373D01*
X001089Y000400D01*
X001222Y000532D01*
X001293Y000705D01*
X001293Y000748D01*
X000873Y000748D01*
X000873Y000813D02*
X002113Y000813D01*
X002113Y000714D02*
X001293Y000714D01*
X001256Y000616D02*
X002148Y000616D01*
X002191Y000517D02*
X001207Y000517D01*
X001109Y000419D02*
X002290Y000419D01*
X002603Y000798D02*
X002976Y000798D01*
X004500Y002222D01*
X005300Y002222D01*
X007000Y003922D01*
X006639Y004065D02*
X005509Y004065D01*
X005530Y004163D02*
X006693Y004163D01*
X006807Y004262D02*
X005530Y004262D01*
X005516Y004361D02*
X007580Y004361D01*
X007580Y004459D02*
X005476Y004459D01*
X005414Y004558D02*
X007580Y004558D01*
X007580Y004656D02*
X005316Y004656D01*
X005256Y004755D02*
X007580Y004755D01*
X007580Y004853D02*
X005381Y004853D01*
X005462Y004952D02*
X007580Y004952D01*
X007580Y005050D02*
X006640Y005050D01*
X006738Y005149D02*
X007580Y005149D01*
X007580Y005247D02*
X007011Y005247D01*
X007173Y005346D02*
X007580Y005346D01*
X007580Y005445D02*
X007247Y005445D01*
X007287Y005543D02*
X007580Y005543D01*
X007580Y005642D02*
X007288Y005642D01*
X007271Y005740D02*
X007580Y005740D01*
X007580Y005839D02*
X007389Y005839D01*
X007564Y005937D02*
X007580Y005937D01*
X007300Y006222D02*
X005001Y006222D01*
X005000Y006222D01*
X005483Y006442D02*
X005531Y006442D01*
X005471Y006502D01*
X005412Y006644D01*
X005412Y006799D01*
X005471Y006942D01*
X005580Y007051D01*
X005723Y007110D01*
X005877Y007110D01*
X006180Y007413D01*
X006309Y007542D01*
X007971Y007542D01*
X008080Y007651D01*
X008223Y007710D01*
X008377Y007710D01*
X008380Y007709D01*
X008380Y008231D01*
X008069Y008542D01*
X008020Y008493D01*
X007877Y008434D01*
X007723Y008434D01*
X007580Y008493D01*
X007471Y008602D01*
X007412Y008744D01*
X007412Y008899D01*
X007454Y009002D01*
X005482Y009002D01*
X005449Y008922D01*
X005300Y008773D01*
X005178Y008722D01*
X005300Y008672D01*
X005449Y008522D01*
X005530Y008328D01*
X005530Y008117D01*
X005449Y007922D01*
X005300Y007773D01*
X005178Y007722D01*
X005300Y007672D01*
X005449Y007522D01*
X005530Y007328D01*
X005530Y007117D01*
X005449Y006922D01*
X005300Y006773D01*
X005178Y006722D01*
X005300Y006672D01*
X005449Y006522D01*
X005483Y006442D01*
X005460Y006529D02*
X005443Y006529D01*
X005419Y006627D02*
X005345Y006627D01*
X005412Y006726D02*
X005186Y006726D01*
X005351Y006824D02*
X005422Y006824D01*
X005450Y006923D02*
X005463Y006923D01*
X005490Y007021D02*
X005551Y007021D01*
X005530Y007120D02*
X005887Y007120D01*
X005985Y007218D02*
X005530Y007218D01*
X005530Y007317D02*
X006084Y007317D01*
X006183Y007415D02*
X005494Y007415D01*
X005453Y007514D02*
X006281Y007514D01*
X006400Y007322D02*
X008300Y007322D01*
X008042Y007612D02*
X005359Y007612D01*
X005205Y007711D02*
X008380Y007711D01*
X008380Y007810D02*
X005337Y007810D01*
X005435Y007908D02*
X008380Y007908D01*
X008380Y008007D02*
X005484Y008007D01*
X005525Y008105D02*
X008380Y008105D01*
X008380Y008204D02*
X005530Y008204D01*
X005530Y008302D02*
X008308Y008302D01*
X008210Y008401D02*
X005500Y008401D01*
X005459Y008499D02*
X007573Y008499D01*
X007475Y008598D02*
X005374Y008598D01*
X005240Y008696D02*
X007432Y008696D01*
X007412Y008795D02*
X005322Y008795D01*
X005421Y008894D02*
X007412Y008894D01*
X007451Y008992D02*
X005478Y008992D01*
X005001Y009222D02*
X008000Y009222D01*
X008800Y008422D01*
X008800Y007709D01*
X009000Y007509D01*
X009013Y007509D01*
X009100Y007422D01*
X009400Y007422D01*
X009500Y007522D01*
X009810Y007509D01*
X009782Y007222D02*
X009810Y007194D01*
X009738Y007222D02*
X009000Y007222D01*
X008600Y007622D01*
X008600Y008322D01*
X008100Y008822D01*
X007800Y008822D01*
X008026Y008499D02*
X008111Y008499D01*
X008742Y009091D02*
X009226Y009091D01*
X009273Y009110D02*
X009130Y009051D01*
X009021Y008942D01*
X008891Y008942D01*
X007520Y010313D01*
X007391Y010442D01*
X005530Y010442D01*
X005530Y010653D01*
X005430Y010752D01*
X004570Y010752D01*
X004470Y010653D01*
X004470Y009792D01*
X004570Y009692D01*
X004750Y009692D01*
X004700Y009672D01*
X004551Y009522D01*
X004470Y009328D01*
X004470Y009117D01*
X004551Y008922D01*
X004700Y008773D01*
X004822Y008722D01*
X004700Y008672D01*
X004551Y008522D01*
X004470Y008328D01*
X004470Y008117D01*
X004551Y007922D01*
X004700Y007773D01*
X004822Y007722D01*
X004700Y007672D01*
X004551Y007522D01*
X004470Y007328D01*
X004470Y007117D01*
X004551Y006922D01*
X004700Y006773D01*
X004822Y006722D01*
X004700Y006672D01*
X004551Y006522D01*
X004470Y006328D01*
X004470Y006117D01*
X004551Y005922D01*
X004700Y005773D01*
X004822Y005722D01*
X004700Y005672D01*
X004551Y005522D01*
X004470Y005328D01*
X004470Y005117D01*
X004551Y004922D01*
X004700Y004773D01*
X004822Y004722D01*
X004700Y004672D01*
X004551Y004522D01*
X004470Y004328D01*
X004470Y004117D01*
X004508Y004025D01*
X004220Y004313D01*
X004220Y011102D01*
X009071Y011102D01*
X009180Y010993D01*
X009323Y010934D01*
X009477Y010934D01*
X009590Y010980D01*
X009590Y009031D01*
X009570Y009051D01*
X009427Y009110D01*
X009273Y009110D01*
X009474Y009091D02*
X009590Y009091D01*
X009590Y009189D02*
X008644Y009189D01*
X008545Y009288D02*
X009590Y009288D01*
X009590Y009386D02*
X008447Y009386D01*
X008348Y009485D02*
X009590Y009485D01*
X009590Y009583D02*
X008249Y009583D01*
X008151Y009682D02*
X009590Y009682D01*
X009590Y009780D02*
X008052Y009780D01*
X007954Y009879D02*
X009590Y009879D01*
X009590Y009978D02*
X007855Y009978D01*
X007757Y010076D02*
X009590Y010076D01*
X009590Y010175D02*
X007658Y010175D01*
X007560Y010273D02*
X009590Y010273D01*
X009590Y010372D02*
X007461Y010372D01*
X007300Y010222D02*
X005001Y010222D01*
X005000Y010222D01*
X005530Y010002D02*
X007209Y010002D01*
X007769Y009442D01*
X005483Y009442D01*
X005449Y009522D01*
X005300Y009672D01*
X005250Y009692D01*
X005430Y009692D01*
X005530Y009792D01*
X005530Y010002D01*
X005530Y009978D02*
X007233Y009978D01*
X007332Y009879D02*
X005530Y009879D01*
X005519Y009780D02*
X007430Y009780D01*
X007529Y009682D02*
X005275Y009682D01*
X005389Y009583D02*
X007627Y009583D01*
X007726Y009485D02*
X005465Y009485D01*
X005001Y009222D02*
X005000Y009222D01*
X004612Y009583D02*
X004220Y009583D01*
X004220Y009485D02*
X004535Y009485D01*
X004494Y009386D02*
X004220Y009386D01*
X004220Y009288D02*
X004470Y009288D01*
X004470Y009189D02*
X004220Y009189D01*
X004220Y009091D02*
X004481Y009091D01*
X004522Y008992D02*
X004220Y008992D01*
X004220Y008894D02*
X004579Y008894D01*
X004678Y008795D02*
X004220Y008795D01*
X004220Y008696D02*
X004760Y008696D01*
X004626Y008598D02*
X004220Y008598D01*
X004220Y008499D02*
X004541Y008499D01*
X004500Y008401D02*
X004220Y008401D01*
X004220Y008302D02*
X004470Y008302D01*
X004470Y008204D02*
X004220Y008204D01*
X004220Y008105D02*
X004475Y008105D01*
X004516Y008007D02*
X004220Y008007D01*
X004220Y007908D02*
X004565Y007908D01*
X004663Y007810D02*
X004220Y007810D01*
X004220Y007711D02*
X004795Y007711D01*
X004641Y007612D02*
X004220Y007612D01*
X004220Y007514D02*
X004547Y007514D01*
X004506Y007415D02*
X004220Y007415D01*
X004220Y007317D02*
X004470Y007317D01*
X004470Y007218D02*
X004220Y007218D01*
X004220Y007120D02*
X004470Y007120D01*
X004510Y007021D02*
X004220Y007021D01*
X004220Y006923D02*
X004550Y006923D01*
X004649Y006824D02*
X004220Y006824D01*
X004220Y006726D02*
X004814Y006726D01*
X004655Y006627D02*
X004220Y006627D01*
X004220Y006529D02*
X004557Y006529D01*
X004512Y006430D02*
X004220Y006430D01*
X004220Y006331D02*
X004472Y006331D01*
X004470Y006233D02*
X004220Y006233D01*
X004220Y006134D02*
X004470Y006134D01*
X004504Y006036D02*
X004220Y006036D01*
X004220Y005937D02*
X004544Y005937D01*
X004634Y005839D02*
X004220Y005839D01*
X004220Y005740D02*
X004779Y005740D01*
X004670Y005642D02*
X004220Y005642D01*
X004220Y005543D02*
X004571Y005543D01*
X004518Y005445D02*
X004220Y005445D01*
X004220Y005346D02*
X004478Y005346D01*
X004470Y005247D02*
X004220Y005247D01*
X004220Y005149D02*
X004470Y005149D01*
X004498Y005050D02*
X004220Y005050D01*
X004220Y004952D02*
X004538Y004952D01*
X004620Y004853D02*
X004220Y004853D01*
X004220Y004755D02*
X004744Y004755D01*
X004684Y004656D02*
X004220Y004656D01*
X004220Y004558D02*
X004586Y004558D01*
X004525Y004459D02*
X004220Y004459D01*
X004220Y004361D02*
X004484Y004361D01*
X004470Y004262D02*
X004271Y004262D01*
X004370Y004163D02*
X004470Y004163D01*
X004469Y004065D02*
X004492Y004065D01*
X004142Y003769D02*
X002885Y003769D01*
X002881Y003773D02*
X002701Y003848D01*
X002506Y003848D01*
X002326Y003773D01*
X002188Y003636D01*
X002113Y003456D01*
X002113Y003261D01*
X002188Y003080D01*
X002326Y002943D01*
X002506Y002868D01*
X002701Y002868D01*
X002881Y002943D01*
X003019Y003080D01*
X003093Y003261D01*
X003093Y003456D01*
X003019Y003636D01*
X002881Y003773D01*
X002984Y003671D02*
X004240Y003671D01*
X004339Y003572D02*
X003045Y003572D01*
X003086Y003474D02*
X004438Y003474D01*
X004490Y003375D02*
X003093Y003375D01*
X003093Y003277D02*
X004470Y003277D01*
X004470Y003178D02*
X003059Y003178D01*
X003018Y003079D02*
X004486Y003079D01*
X004526Y002981D02*
X002919Y002981D01*
X002735Y002882D02*
X004590Y002882D01*
X004689Y002784D02*
X000373Y002784D01*
X000373Y002882D02*
X000691Y002882D01*
X000507Y002981D02*
X000373Y002981D01*
X000373Y003079D02*
X000409Y003079D01*
X000373Y002685D02*
X005452Y002685D01*
X005354Y002587D02*
X000373Y002587D01*
X000373Y002488D02*
X005255Y002488D01*
X005483Y002094D02*
X007612Y002094D01*
X007612Y002193D02*
X006620Y002193D01*
X006718Y002291D02*
X007650Y002291D01*
X008000Y002122D02*
X008000Y002122D01*
X008000Y001221D01*
X008486Y001010D02*
X008514Y001010D01*
X008560Y000912D02*
X008440Y000912D01*
X008341Y000813D02*
X008659Y000813D01*
X008838Y000714D02*
X008161Y000714D01*
X007838Y000714D02*
X007161Y000714D01*
X007341Y000813D02*
X007659Y000813D01*
X007560Y000912D02*
X007440Y000912D01*
X007486Y001010D02*
X007514Y001010D01*
X007498Y001404D02*
X007502Y001404D01*
X007543Y001503D02*
X007457Y001503D01*
X007369Y001601D02*
X007631Y001601D01*
X007771Y001700D02*
X007229Y001700D01*
X006771Y001700D02*
X006229Y001700D01*
X006369Y001601D02*
X006631Y001601D01*
X006543Y001503D02*
X006457Y001503D01*
X006498Y001404D02*
X006502Y001404D01*
X006486Y001010D02*
X006514Y001010D01*
X006560Y000912D02*
X006440Y000912D01*
X006341Y000813D02*
X006659Y000813D01*
X006838Y000714D02*
X006161Y000714D01*
X005838Y000714D02*
X005161Y000714D01*
X005341Y000813D02*
X005659Y000813D01*
X005560Y000912D02*
X005440Y000912D01*
X005486Y001010D02*
X005514Y001010D01*
X005498Y001404D02*
X005502Y001404D01*
X005543Y001503D02*
X005457Y001503D01*
X005369Y001601D02*
X005631Y001601D01*
X005771Y001700D02*
X005229Y001700D01*
X004771Y001700D02*
X004264Y001700D01*
X004369Y001798D02*
X007774Y001798D01*
X007676Y001897D02*
X004475Y001897D01*
X004580Y001996D02*
X007632Y001996D01*
X008220Y001793D02*
X008220Y001704D01*
X008300Y001670D01*
X008449Y001521D01*
X008500Y001399D01*
X008551Y001521D01*
X008700Y001670D01*
X008894Y001751D01*
X009105Y001751D01*
X009300Y001670D01*
X009449Y001521D01*
X009500Y001399D01*
X009551Y001521D01*
X009700Y001670D01*
X009894Y001751D01*
X010105Y001751D01*
X010186Y001718D01*
X010493Y002025D01*
X010493Y004632D01*
X010403Y004632D01*
X010403Y005026D01*
X010393Y005026D01*
X010393Y004632D01*
X010225Y004632D01*
X010138Y004720D01*
X010138Y005027D01*
X010392Y005027D01*
X010392Y005037D01*
X010138Y005037D01*
X010138Y005344D01*
X010143Y005349D01*
X010140Y005349D01*
X010130Y005339D01*
X009615Y005339D01*
X009551Y005184D01*
X009412Y005045D01*
X009230Y004969D01*
X009033Y004969D01*
X008851Y005045D01*
X008820Y005076D01*
X008820Y004825D01*
X008862Y004867D01*
X009037Y004939D01*
X009112Y004939D01*
X009112Y004483D01*
X009150Y004483D01*
X009606Y004483D01*
X009606Y004559D01*
X009534Y004733D01*
X009400Y004867D01*
X009226Y004939D01*
X009150Y004939D01*
X009150Y004483D01*
X009150Y004445D01*
X009150Y003989D01*
X009226Y003989D01*
X009400Y004062D01*
X009534Y004195D01*
X009606Y004370D01*
X009606Y004445D01*
X009150Y004445D01*
X009112Y004445D01*
X009112Y003989D01*
X009037Y003989D01*
X008862Y004062D01*
X008820Y004104D01*
X008820Y003851D01*
X008929Y003742D01*
X008988Y003599D01*
X008988Y003444D01*
X008929Y003302D01*
X008820Y003193D01*
X008677Y003134D01*
X008523Y003134D01*
X008420Y003176D01*
X008420Y003113D01*
X008420Y002931D01*
X008382Y002893D01*
X008423Y002910D01*
X008577Y002910D01*
X008720Y002851D01*
X008829Y002742D01*
X008888Y002599D01*
X008888Y002444D01*
X008829Y002302D01*
X008720Y002193D01*
X008577Y002134D01*
X008423Y002134D01*
X008388Y002148D01*
X008388Y002044D01*
X008329Y001902D01*
X008220Y001793D01*
X008226Y001798D02*
X010266Y001798D01*
X010365Y001897D02*
X008324Y001897D01*
X008368Y001996D02*
X010463Y001996D01*
X010493Y002094D02*
X008388Y002094D01*
X008720Y002193D02*
X010493Y002193D01*
X010493Y002291D02*
X008818Y002291D01*
X008865Y002390D02*
X010493Y002390D01*
X010493Y002488D02*
X008888Y002488D01*
X008888Y002587D02*
X010493Y002587D01*
X010493Y002685D02*
X008852Y002685D01*
X008787Y002784D02*
X010493Y002784D01*
X010493Y002882D02*
X008643Y002882D01*
X008420Y002981D02*
X010493Y002981D01*
X010493Y003079D02*
X008420Y003079D01*
X008200Y003022D02*
X008100Y002922D01*
X007200Y002922D01*
X007043Y003277D02*
X006666Y003277D01*
X006764Y003375D02*
X007441Y003375D01*
X007412Y003474D02*
X006863Y003474D01*
X006907Y003178D02*
X006567Y003178D01*
X006469Y003079D02*
X006845Y003079D01*
X006812Y002981D02*
X006370Y002981D01*
X006543Y002882D02*
X006812Y002882D01*
X006837Y002784D02*
X006687Y002784D01*
X006400Y002522D02*
X008500Y002522D01*
X008200Y003022D02*
X008200Y006122D01*
X008300Y006222D01*
X009782Y006222D01*
X009767Y006522D02*
X008000Y006522D01*
X007800Y006322D01*
X007800Y003522D01*
X007442Y003671D02*
X007298Y003671D01*
X007357Y003769D02*
X007499Y003769D01*
X007580Y003868D02*
X007388Y003868D01*
X007388Y003966D02*
X007580Y003966D01*
X007580Y004065D02*
X007361Y004065D01*
X007307Y004163D02*
X007580Y004163D01*
X007580Y004262D02*
X007193Y004262D01*
X006612Y003966D02*
X005468Y003966D01*
X005395Y003868D02*
X006612Y003868D01*
X006536Y003769D02*
X005291Y003769D01*
X005301Y003671D02*
X006438Y003671D01*
X006339Y003572D02*
X005400Y003572D01*
X005470Y003474D02*
X006241Y003474D01*
X006142Y003375D02*
X005510Y003375D01*
X005530Y003277D02*
X006044Y003277D01*
X005945Y003178D02*
X005530Y003178D01*
X005515Y003079D02*
X005847Y003079D01*
X005748Y002981D02*
X005474Y002981D01*
X005410Y002882D02*
X005650Y002882D01*
X005551Y002784D02*
X005311Y002784D01*
X005000Y003222D02*
X004000Y004222D01*
X004000Y011322D01*
X009400Y011322D01*
X009548Y010963D02*
X009590Y010963D01*
X009590Y010864D02*
X004220Y010864D01*
X004220Y010766D02*
X009590Y010766D01*
X009590Y010667D02*
X005515Y010667D01*
X005530Y010569D02*
X009590Y010569D01*
X009590Y010470D02*
X005530Y010470D01*
X004470Y010470D02*
X004220Y010470D01*
X004220Y010372D02*
X004470Y010372D01*
X004470Y010273D02*
X004220Y010273D01*
X004220Y010175D02*
X004470Y010175D01*
X004470Y010076D02*
X004220Y010076D01*
X004220Y009978D02*
X004470Y009978D01*
X004470Y009879D02*
X004220Y009879D01*
X004220Y009780D02*
X004481Y009780D01*
X004725Y009682D02*
X004220Y009682D01*
X003780Y009682D02*
X003258Y009682D01*
X003258Y009780D02*
X003780Y009780D01*
X003780Y009879D02*
X003258Y009879D01*
X003258Y009978D02*
X003780Y009978D01*
X003780Y010076D02*
X003258Y010076D01*
X003173Y010175D02*
X003780Y010175D01*
X003780Y010273D02*
X003063Y010273D01*
X003063Y010372D02*
X003780Y010372D01*
X003780Y010470D02*
X003063Y010470D01*
X003063Y010569D02*
X003780Y010569D01*
X003780Y010667D02*
X003063Y010667D01*
X003110Y010766D02*
X003780Y010766D01*
X003780Y010864D02*
X003198Y010864D01*
X003239Y010963D02*
X003780Y010963D01*
X003780Y011061D02*
X003273Y011061D01*
X003273Y011160D02*
X003780Y011160D01*
X003752Y011259D02*
X003273Y011259D01*
X003233Y011357D02*
X003653Y011357D01*
X003555Y011456D02*
X003192Y011456D01*
X003096Y011554D02*
X003456Y011554D01*
X003358Y011653D02*
X002938Y011653D01*
X003095Y011751D02*
X003259Y011751D01*
X003586Y012047D02*
X004503Y012047D01*
X004503Y012145D02*
X003487Y012145D01*
X003389Y012244D02*
X003260Y012373D01*
X003198Y012441D02*
X004503Y012441D01*
X004503Y012540D02*
X003110Y012540D01*
X002973Y012638D02*
X004503Y012638D01*
X004503Y012737D02*
X002060Y012737D01*
X002105Y012835D02*
X004503Y012835D01*
X004369Y012934D02*
X002461Y012934D01*
X002596Y013032D02*
X004299Y013032D01*
X004263Y013131D02*
X002655Y013131D01*
X002683Y013229D02*
X004263Y013229D01*
X004289Y013328D02*
X002683Y013328D01*
X002764Y013427D02*
X004343Y013427D01*
X004086Y013525D02*
X002862Y013525D01*
X002961Y013624D02*
X003987Y013624D01*
X003888Y013722D02*
X003059Y013722D01*
X003158Y013821D02*
X003790Y013821D01*
X003691Y013919D02*
X003223Y013919D01*
X003223Y014018D02*
X003572Y014018D01*
X003395Y014116D02*
X003223Y014116D01*
X003223Y014215D02*
X003298Y014215D01*
X003257Y014313D02*
X003223Y014313D01*
X003223Y014412D02*
X003223Y014412D01*
X003223Y014511D02*
X003223Y014511D01*
X003223Y014609D02*
X003231Y014609D01*
X003223Y014708D02*
X003271Y014708D01*
X003223Y014806D02*
X003331Y014806D01*
X003430Y014905D02*
X003223Y014905D01*
X003223Y015003D02*
X004261Y015003D01*
X004261Y014905D02*
X004007Y014905D01*
X004105Y014806D02*
X004261Y014806D01*
X004261Y014708D02*
X004165Y014708D01*
X004206Y014609D02*
X004261Y014609D01*
X004261Y014511D02*
X004213Y014511D01*
X004213Y014412D02*
X004261Y014412D01*
X004295Y014313D02*
X004180Y014313D01*
X004139Y014215D02*
X004823Y014215D01*
X004803Y014116D02*
X004116Y014116D01*
X004215Y014018D02*
X005338Y014018D01*
X005369Y014018D02*
X005903Y014018D01*
X005903Y014195D01*
X005859Y014239D01*
X005923Y014303D01*
X005923Y014703D01*
X005922Y014704D01*
X006224Y014704D01*
X006441Y014921D01*
X006441Y015228D01*
X006404Y015264D01*
X008318Y015264D01*
X008430Y015152D01*
X008322Y015044D01*
X008304Y015044D01*
X008181Y014921D01*
X008181Y014747D01*
X008190Y014738D01*
X008190Y014327D01*
X008183Y014320D01*
X007986Y014123D01*
X007863Y014000D01*
X007863Y013919D02*
X005903Y013919D01*
X005903Y013821D02*
X006178Y013821D01*
X005903Y014116D02*
X007979Y014116D01*
X008078Y014215D02*
X005884Y014215D01*
X005923Y014313D02*
X008177Y014313D01*
X008183Y014320D02*
X008183Y014320D01*
X008190Y014412D02*
X005923Y014412D01*
X005923Y014511D02*
X008190Y014511D01*
X008190Y014609D02*
X005923Y014609D01*
X006228Y014708D02*
X008190Y014708D01*
X008181Y014806D02*
X006326Y014806D01*
X006425Y014905D02*
X008181Y014905D01*
X008263Y015003D02*
X006441Y015003D01*
X006441Y015102D02*
X008379Y015102D01*
X008382Y015200D02*
X006441Y015200D01*
X006424Y016284D02*
X005905Y016284D01*
X005923Y016383D02*
X006523Y016383D01*
X006621Y016481D02*
X005923Y016481D01*
X005923Y016580D02*
X006720Y016580D01*
X006818Y016678D02*
X005923Y016678D01*
X005850Y016777D02*
X006917Y016777D01*
X007016Y016876D02*
X004809Y016876D01*
X004857Y016777D02*
X004711Y016777D01*
X004681Y016678D02*
X004783Y016678D01*
X004783Y016580D02*
X004681Y016580D01*
X004681Y016481D02*
X004783Y016481D01*
X004783Y016383D02*
X004681Y016383D01*
X004681Y016284D02*
X004802Y016284D01*
X004783Y016186D02*
X004681Y016186D01*
X004681Y016087D02*
X004783Y016087D01*
X004783Y015989D02*
X004681Y015989D01*
X004681Y015890D02*
X004783Y015890D01*
X004794Y015792D02*
X004681Y015792D01*
X004681Y015693D02*
X004783Y015693D01*
X004783Y015594D02*
X004681Y015594D01*
X004681Y015496D02*
X004783Y015496D01*
X004783Y015397D02*
X004681Y015397D01*
X004681Y015299D02*
X004787Y015299D01*
X004783Y015200D02*
X004681Y015200D01*
X004681Y015102D02*
X004783Y015102D01*
X004783Y015003D02*
X004681Y015003D01*
X004681Y014905D02*
X004783Y014905D01*
X004783Y014806D02*
X004681Y014806D01*
X004681Y014708D02*
X004787Y014708D01*
X004261Y015102D02*
X003999Y015102D01*
X003987Y015090D02*
X004121Y015224D01*
X004193Y015399D01*
X004193Y015474D01*
X003737Y015474D01*
X003737Y015018D01*
X003813Y015018D01*
X003987Y015090D01*
X004097Y015200D02*
X004261Y015200D01*
X004261Y015299D02*
X004152Y015299D01*
X004193Y015397D02*
X004261Y015397D01*
X004261Y015496D02*
X003737Y015496D01*
X003737Y015512D02*
X004193Y015512D01*
X004193Y015588D01*
X004121Y015762D01*
X003987Y015896D01*
X003813Y015968D01*
X003737Y015968D01*
X003737Y015512D01*
X003699Y015512D01*
X003699Y015474D01*
X003243Y015474D01*
X003243Y015399D01*
X003316Y015224D01*
X003449Y015090D01*
X003624Y015018D01*
X003699Y015018D01*
X003699Y015474D01*
X003737Y015474D01*
X003737Y015512D01*
X003699Y015512D02*
X003699Y015968D01*
X003624Y015968D01*
X003449Y015896D01*
X003316Y015762D01*
X003243Y015588D01*
X003243Y015512D01*
X003699Y015512D01*
X003699Y015496D02*
X003223Y015496D01*
X003223Y015594D02*
X003246Y015594D01*
X003223Y015693D02*
X003287Y015693D01*
X003345Y015792D02*
X003223Y015792D01*
X003223Y015890D02*
X003444Y015890D01*
X003223Y015989D02*
X004261Y015989D01*
X004261Y016087D02*
X003223Y016087D01*
X003223Y016186D02*
X004261Y016186D01*
X004261Y016284D02*
X003223Y016284D01*
X003223Y016383D02*
X004261Y016383D01*
X004261Y016481D02*
X003223Y016481D01*
X003223Y016580D02*
X004261Y016580D01*
X004261Y016678D02*
X003223Y016678D01*
X003223Y016777D02*
X004261Y016777D01*
X004261Y016876D02*
X003223Y016876D01*
X003223Y016974D02*
X004314Y016974D01*
X004413Y017073D02*
X003223Y017073D01*
X003223Y017171D02*
X004511Y017171D01*
X004610Y017270D02*
X003313Y017270D01*
X003362Y017368D02*
X004708Y017368D01*
X004807Y017467D02*
X003383Y017467D01*
X003383Y017565D02*
X004905Y017565D01*
X004592Y017804D02*
X005473Y017804D01*
X005572Y017904D01*
X005572Y018784D01*
X005473Y018884D01*
X004592Y018884D01*
X004492Y018784D01*
X004492Y017904D01*
X004592Y017804D01*
X004535Y017861D02*
X003092Y017861D01*
X003010Y017967D02*
X003228Y018185D01*
X003382Y018451D01*
X003462Y018749D01*
X003462Y019057D01*
X003382Y019355D01*
X003228Y019621D01*
X003010Y019839D01*
X002744Y019993D01*
X002446Y020073D01*
X002138Y020073D01*
X001840Y019993D01*
X001574Y019839D01*
X001356Y019621D01*
X001202Y019355D01*
X001122Y019057D01*
X001122Y018749D01*
X001202Y018451D01*
X001356Y018185D01*
X001574Y017967D01*
X001840Y017813D01*
X002138Y017733D01*
X002446Y017733D01*
X002744Y017813D01*
X003010Y017967D01*
X002998Y017960D02*
X004492Y017960D01*
X004492Y018058D02*
X003102Y018058D01*
X003200Y018157D02*
X004492Y018157D01*
X004492Y018255D02*
X003269Y018255D01*
X003326Y018354D02*
X004492Y018354D01*
X004492Y018452D02*
X003382Y018452D01*
X003409Y018551D02*
X004492Y018551D01*
X004492Y018649D02*
X003435Y018649D01*
X003462Y018748D02*
X004492Y018748D01*
X004554Y018846D02*
X003462Y018846D01*
X003462Y018945D02*
X005417Y018945D01*
X005472Y018922D02*
X005687Y018922D01*
X005885Y019004D01*
X006037Y019156D01*
X006119Y019355D01*
X006119Y019570D01*
X006037Y019768D01*
X005885Y019920D01*
X005687Y020002D01*
X005472Y020002D01*
X005273Y019920D01*
X005122Y019768D01*
X005039Y019570D01*
X005039Y019355D01*
X005122Y019156D01*
X005273Y019004D01*
X005472Y018922D01*
X005510Y018846D02*
X005924Y018846D01*
X005763Y018748D02*
X005572Y018748D01*
X005572Y018649D02*
X005665Y018649D01*
X005624Y018551D02*
X005572Y018551D01*
X005572Y018452D02*
X005583Y018452D01*
X005572Y018354D02*
X005583Y018354D01*
X005572Y018255D02*
X005583Y018255D01*
X005572Y018157D02*
X005616Y018157D01*
X005657Y018058D02*
X005572Y018058D01*
X005572Y017960D02*
X005744Y017960D01*
X005878Y017861D02*
X005529Y017861D01*
X005941Y017762D02*
X003267Y017762D01*
X003343Y017664D02*
X005941Y017664D01*
X006361Y017664D02*
X018251Y017664D01*
X018158Y017762D02*
X012398Y017762D01*
X012289Y017733D02*
X012586Y017813D01*
X012853Y017967D01*
X013071Y018185D01*
X013225Y018451D01*
X013304Y018749D01*
X013304Y019057D01*
X013225Y019355D01*
X013071Y019621D01*
X012853Y019839D01*
X012586Y019993D01*
X012289Y020073D01*
X011980Y020073D01*
X011683Y019993D01*
X011416Y019839D01*
X011198Y019621D01*
X011044Y019355D01*
X010964Y019057D01*
X010964Y018749D01*
X011044Y018451D01*
X011198Y018185D01*
X011416Y017967D01*
X011683Y017813D01*
X011980Y017733D01*
X012289Y017733D01*
X011871Y017762D02*
X006361Y017762D01*
X006368Y017861D02*
X006968Y017861D01*
X006907Y017886D02*
X007106Y017804D01*
X007321Y017804D01*
X007519Y017886D01*
X007671Y018038D01*
X007753Y018237D01*
X007753Y018451D01*
X007671Y018650D01*
X007519Y018802D01*
X007321Y018884D01*
X007106Y018884D01*
X006907Y018802D01*
X006755Y018650D01*
X006673Y018451D01*
X006673Y018237D01*
X006755Y018038D01*
X006907Y017886D01*
X006834Y017960D02*
X006502Y017960D01*
X006589Y018058D02*
X006747Y018058D01*
X006706Y018157D02*
X006629Y018157D01*
X006663Y018255D02*
X006673Y018255D01*
X006663Y018354D02*
X006673Y018354D01*
X006662Y018452D02*
X006674Y018452D01*
X006714Y018551D02*
X006621Y018551D01*
X006581Y018649D02*
X006755Y018649D01*
X006853Y018748D02*
X006482Y018748D01*
X006321Y018846D02*
X007015Y018846D01*
X006976Y019004D02*
X006777Y018922D01*
X006562Y018922D01*
X006364Y019004D01*
X006212Y019156D01*
X006130Y019355D01*
X006130Y019570D01*
X006212Y019768D01*
X006364Y019920D01*
X006562Y020002D01*
X006777Y020002D01*
X006976Y019920D01*
X007128Y019768D01*
X007210Y019570D01*
X007210Y019355D01*
X007128Y019156D01*
X006976Y019004D01*
X007015Y019044D02*
X007411Y019044D01*
X007451Y019004D02*
X007649Y018922D01*
X007864Y018922D01*
X008062Y019004D01*
X008214Y019156D01*
X008296Y019355D01*
X008296Y019570D01*
X008214Y019768D01*
X008062Y019920D01*
X007864Y020002D01*
X007649Y020002D01*
X007451Y019920D01*
X007299Y019768D01*
X007217Y019570D01*
X007217Y019355D01*
X007299Y019156D01*
X007451Y019004D01*
X007594Y018945D02*
X006832Y018945D01*
X006507Y018945D02*
X005742Y018945D01*
X005924Y019044D02*
X006325Y019044D01*
X006226Y019142D02*
X006023Y019142D01*
X006072Y019241D02*
X006177Y019241D01*
X006136Y019339D02*
X006113Y019339D01*
X006119Y019438D02*
X006130Y019438D01*
X006119Y019536D02*
X006130Y019536D01*
X006157Y019635D02*
X006092Y019635D01*
X006052Y019733D02*
X006198Y019733D01*
X006276Y019832D02*
X005973Y019832D01*
X005860Y019930D02*
X006389Y019930D01*
X006951Y019930D02*
X007476Y019930D01*
X007363Y019832D02*
X007064Y019832D01*
X007142Y019733D02*
X007284Y019733D01*
X007244Y019635D02*
X007183Y019635D01*
X007210Y019536D02*
X007217Y019536D01*
X007210Y019438D02*
X007217Y019438D01*
X007203Y019339D02*
X007223Y019339D01*
X007264Y019241D02*
X007163Y019241D01*
X007113Y019142D02*
X007313Y019142D01*
X007411Y018846D02*
X008106Y018846D01*
X008196Y018884D02*
X007998Y018802D01*
X007846Y018650D01*
X007764Y018451D01*
X007764Y018237D01*
X007846Y018038D01*
X007998Y017886D01*
X008196Y017804D01*
X008411Y017804D01*
X008610Y017886D01*
X008762Y018038D01*
X008844Y018237D01*
X008844Y018451D01*
X008762Y018650D01*
X008610Y018802D01*
X008411Y018884D01*
X008196Y018884D01*
X008102Y019044D02*
X008502Y019044D01*
X008541Y019004D02*
X008740Y018922D01*
X008954Y018922D01*
X009153Y019004D01*
X009305Y019156D01*
X009387Y019355D01*
X009387Y019570D01*
X009305Y019768D01*
X009153Y019920D01*
X008954Y020002D01*
X008740Y020002D01*
X008541Y019920D01*
X008389Y019768D01*
X008307Y019570D01*
X008307Y019355D01*
X008389Y019156D01*
X008541Y019004D01*
X008685Y018945D02*
X007919Y018945D01*
X007944Y018748D02*
X007573Y018748D01*
X007671Y018649D02*
X007846Y018649D01*
X007805Y018551D02*
X007712Y018551D01*
X007753Y018452D02*
X007764Y018452D01*
X007753Y018354D02*
X007764Y018354D01*
X007753Y018255D02*
X007764Y018255D01*
X007797Y018157D02*
X007720Y018157D01*
X007679Y018058D02*
X007838Y018058D01*
X007925Y017960D02*
X007592Y017960D01*
X007458Y017861D02*
X008059Y017861D01*
X008549Y017861D02*
X009202Y017861D01*
X009291Y017824D02*
X009344Y017824D01*
X009344Y018294D01*
X008874Y018294D01*
X008874Y018241D01*
X008954Y018049D01*
X009100Y017903D01*
X009291Y017824D01*
X009344Y017861D02*
X009444Y017861D01*
X009444Y017824D02*
X009498Y017824D01*
X009689Y017903D01*
X009835Y018049D01*
X009914Y018241D01*
X009914Y018294D01*
X009444Y018294D01*
X009444Y017824D01*
X009444Y017960D02*
X009344Y017960D01*
X009344Y018058D02*
X009444Y018058D01*
X009444Y018157D02*
X009344Y018157D01*
X009344Y018255D02*
X009444Y018255D01*
X009444Y018294D02*
X009344Y018294D01*
X009344Y018394D01*
X008874Y018394D01*
X008874Y018447D01*
X008954Y018639D01*
X009100Y018785D01*
X009291Y018864D01*
X009344Y018864D01*
X009344Y018394D01*
X009444Y018394D01*
X009444Y018864D01*
X009498Y018864D01*
X009689Y018785D01*
X009835Y018639D01*
X009914Y018447D01*
X009914Y018394D01*
X009444Y018394D01*
X009444Y018294D01*
X009444Y018354D02*
X011101Y018354D01*
X011044Y018452D02*
X009912Y018452D01*
X009871Y018551D02*
X011018Y018551D01*
X010991Y018649D02*
X009824Y018649D01*
X009726Y018748D02*
X010965Y018748D01*
X010964Y018846D02*
X009540Y018846D01*
X009444Y018846D02*
X009344Y018846D01*
X009248Y018846D02*
X008502Y018846D01*
X008664Y018748D02*
X009063Y018748D01*
X008964Y018649D02*
X008762Y018649D01*
X008803Y018551D02*
X008917Y018551D01*
X008876Y018452D02*
X008843Y018452D01*
X008844Y018354D02*
X009344Y018354D01*
X009344Y018452D02*
X009444Y018452D01*
X009444Y018551D02*
X009344Y018551D01*
X009344Y018649D02*
X009444Y018649D01*
X009444Y018748D02*
X009344Y018748D01*
X009192Y019044D02*
X010964Y019044D01*
X010964Y018945D02*
X009009Y018945D01*
X009291Y019142D02*
X010987Y019142D01*
X011014Y019241D02*
X009340Y019241D01*
X009381Y019339D02*
X011040Y019339D01*
X011092Y019438D02*
X009387Y019438D01*
X009387Y019536D02*
X011149Y019536D01*
X011211Y019635D02*
X009360Y019635D01*
X009319Y019733D02*
X011310Y019733D01*
X011409Y019832D02*
X009241Y019832D01*
X009128Y019930D02*
X011574Y019930D01*
X011816Y020029D02*
X002611Y020029D01*
X002853Y019930D02*
X005299Y019930D01*
X005185Y019832D02*
X003018Y019832D01*
X003116Y019733D02*
X005107Y019733D01*
X005066Y019635D02*
X003215Y019635D01*
X003277Y019536D02*
X005039Y019536D01*
X005039Y019438D02*
X003334Y019438D01*
X003386Y019339D02*
X005046Y019339D01*
X005087Y019241D02*
X003413Y019241D01*
X003439Y019142D02*
X005136Y019142D01*
X005234Y019044D02*
X003462Y019044D01*
X002935Y017861D02*
X002827Y017861D01*
X002759Y017762D02*
X002555Y017762D01*
X002684Y017664D02*
X000373Y017664D01*
X000373Y017762D02*
X002028Y017762D01*
X001757Y017861D02*
X000373Y017861D01*
X000373Y017960D02*
X001586Y017960D01*
X001482Y018058D02*
X000373Y018058D01*
X000373Y018157D02*
X001384Y018157D01*
X001315Y018255D02*
X000373Y018255D01*
X000373Y018354D02*
X001258Y018354D01*
X001201Y018452D02*
X000373Y018452D01*
X000373Y018551D02*
X001175Y018551D01*
X001149Y018649D02*
X000373Y018649D01*
X000373Y018748D02*
X001122Y018748D01*
X001122Y018846D02*
X000373Y018846D01*
X000373Y018945D02*
X001122Y018945D01*
X001122Y019044D02*
X000373Y019044D01*
X000373Y019142D02*
X001145Y019142D01*
X001171Y019241D02*
X000373Y019241D01*
X000373Y019339D02*
X001198Y019339D01*
X001250Y019438D02*
X000373Y019438D01*
X000373Y019536D02*
X001306Y019536D01*
X001369Y019635D02*
X000373Y019635D01*
X000373Y019733D02*
X001468Y019733D01*
X001566Y019832D02*
X000373Y019832D01*
X000373Y019930D02*
X001731Y019930D01*
X001973Y020029D02*
X000373Y020029D01*
X000373Y020127D02*
X013465Y020127D01*
X013443Y020180D02*
X013568Y019879D01*
X013799Y019648D01*
X014100Y019523D01*
X014426Y019523D01*
X014728Y019648D01*
X014958Y019879D01*
X015083Y020180D01*
X015083Y020506D01*
X014958Y020808D01*
X014728Y021038D01*
X014426Y021163D01*
X014100Y021163D01*
X013799Y021038D01*
X013568Y020808D01*
X013443Y020506D01*
X013443Y020180D01*
X013443Y020226D02*
X000373Y020226D01*
X000373Y020325D02*
X013443Y020325D01*
X013443Y020423D02*
X000373Y020423D01*
X000373Y020522D02*
X013450Y020522D01*
X013491Y020620D02*
X000373Y020620D01*
X000373Y020719D02*
X013531Y020719D01*
X013578Y020817D02*
X000373Y020817D01*
X000373Y020916D02*
X013676Y020916D01*
X013775Y021014D02*
X000373Y021014D01*
X000373Y021113D02*
X013979Y021113D01*
X014547Y021113D02*
X018719Y021113D01*
X018840Y021163D02*
X018539Y021038D01*
X018308Y020808D01*
X018183Y020506D01*
X018183Y020180D01*
X018308Y019879D01*
X018539Y019648D01*
X018840Y019523D01*
X019166Y019523D01*
X019468Y019648D01*
X019698Y019879D01*
X019823Y020180D01*
X019823Y020506D01*
X019698Y020808D01*
X019468Y021038D01*
X019166Y021163D01*
X018840Y021163D01*
X018515Y021014D02*
X014752Y021014D01*
X014850Y020916D02*
X018416Y020916D01*
X018318Y020817D02*
X014949Y020817D01*
X014995Y020719D02*
X018271Y020719D01*
X018231Y020620D02*
X015036Y020620D01*
X015077Y020522D02*
X018190Y020522D01*
X018183Y020423D02*
X015083Y020423D01*
X015083Y020325D02*
X018183Y020325D01*
X018183Y020226D02*
X015083Y020226D01*
X015061Y020127D02*
X018205Y020127D01*
X018246Y020029D02*
X015021Y020029D01*
X014980Y019930D02*
X018287Y019930D01*
X018355Y019832D02*
X014912Y019832D01*
X014813Y019733D02*
X015998Y019733D01*
X016046Y019753D02*
X015869Y019680D01*
X015734Y019545D01*
X015661Y019369D01*
X015661Y019313D01*
X016101Y019313D01*
X016101Y019753D01*
X016046Y019753D01*
X016101Y019733D02*
X016181Y019733D01*
X016181Y019753D02*
X016181Y019313D01*
X016621Y019313D01*
X016621Y019369D01*
X016548Y019545D01*
X016413Y019680D01*
X016237Y019753D01*
X016181Y019753D01*
X016284Y019733D02*
X016930Y019733D01*
X016780Y019635D02*
X016458Y019635D01*
X016552Y019536D02*
X016693Y019536D01*
X016652Y019438D02*
X016592Y019438D01*
X016621Y019339D02*
X016625Y019339D01*
X016625Y019241D02*
X016181Y019241D01*
X016101Y019241D02*
X013255Y019241D01*
X013229Y019339D02*
X015661Y019339D01*
X015690Y019438D02*
X013177Y019438D01*
X013120Y019536D02*
X014068Y019536D01*
X013830Y019635D02*
X013057Y019635D01*
X012959Y019733D02*
X013713Y019733D01*
X013615Y019832D02*
X012860Y019832D01*
X012695Y019930D02*
X013547Y019930D01*
X013506Y020029D02*
X012453Y020029D01*
X013282Y019142D02*
X015676Y019142D01*
X015717Y019044D02*
X013304Y019044D01*
X013304Y018945D02*
X015790Y018945D01*
X015787Y018846D02*
X013304Y018846D01*
X013304Y018748D02*
X015706Y018748D01*
X015665Y018649D02*
X013278Y018649D01*
X013251Y018551D02*
X015641Y018551D01*
X015641Y018452D02*
X013225Y018452D01*
X013168Y018354D02*
X015658Y018354D01*
X015698Y018255D02*
X013111Y018255D01*
X013043Y018157D02*
X015770Y018157D01*
X015885Y018058D02*
X012944Y018058D01*
X012840Y017960D02*
X017972Y017960D01*
X017880Y018058D02*
X017382Y018058D01*
X017496Y018157D02*
X017787Y018157D01*
X018065Y017861D02*
X012669Y017861D01*
X011599Y017861D02*
X009587Y017861D01*
X009745Y017960D02*
X011429Y017960D01*
X011325Y018058D02*
X009839Y018058D01*
X009879Y018157D02*
X011226Y018157D01*
X011158Y018255D02*
X009914Y018255D01*
X009043Y017960D02*
X008683Y017960D01*
X008770Y018058D02*
X008950Y018058D01*
X008909Y018157D02*
X008811Y018157D01*
X008844Y018255D02*
X008874Y018255D01*
X008404Y019142D02*
X008200Y019142D01*
X008249Y019241D02*
X008354Y019241D01*
X008314Y019339D02*
X008290Y019339D01*
X008296Y019438D02*
X008307Y019438D01*
X008296Y019536D02*
X008307Y019536D01*
X008334Y019635D02*
X008270Y019635D01*
X008229Y019733D02*
X008375Y019733D01*
X008453Y019832D02*
X008150Y019832D01*
X008037Y019930D02*
X008566Y019930D01*
X006361Y017565D02*
X018344Y017565D01*
X018437Y017467D02*
X006361Y017467D01*
X006361Y017368D02*
X018529Y017368D01*
X018622Y017270D02*
X006324Y017270D01*
X007114Y016974D02*
X004908Y016974D01*
X005007Y017073D02*
X018808Y017073D01*
X018900Y016974D02*
X010321Y016974D01*
X010419Y016876D02*
X019032Y016876D01*
X018715Y017171D02*
X005105Y017171D01*
X004261Y015890D02*
X003993Y015890D01*
X004091Y015792D02*
X004261Y015792D01*
X004261Y015693D02*
X004150Y015693D01*
X004190Y015594D02*
X004261Y015594D01*
X003737Y015594D02*
X003699Y015594D01*
X003699Y015693D02*
X003737Y015693D01*
X003737Y015792D02*
X003699Y015792D01*
X003699Y015890D02*
X003737Y015890D01*
X003737Y015397D02*
X003699Y015397D01*
X003699Y015299D02*
X003737Y015299D01*
X003737Y015200D02*
X003699Y015200D01*
X003699Y015102D02*
X003737Y015102D01*
X003438Y015102D02*
X003223Y015102D01*
X003223Y015200D02*
X003339Y015200D01*
X003285Y015299D02*
X003223Y015299D01*
X003223Y015397D02*
X003244Y015397D01*
X002803Y015397D02*
X000373Y015397D01*
X000373Y015299D02*
X002803Y015299D01*
X002803Y015200D02*
X000373Y015200D01*
X000373Y015102D02*
X002803Y015102D01*
X002803Y015003D02*
X000373Y015003D01*
X000373Y014905D02*
X002803Y014905D01*
X002803Y014806D02*
X000373Y014806D01*
X000373Y014708D02*
X002803Y014708D01*
X002803Y014609D02*
X000373Y014609D01*
X000373Y014511D02*
X002803Y014511D01*
X002803Y014412D02*
X000373Y014412D01*
X000373Y014313D02*
X002803Y014313D01*
X002803Y014215D02*
X000373Y014215D01*
X000373Y014116D02*
X002803Y014116D01*
X002761Y014018D02*
X000373Y014018D01*
X000373Y013919D02*
X002662Y013919D01*
X002564Y013821D02*
X000373Y013821D01*
X000373Y013722D02*
X002465Y013722D01*
X002193Y013624D02*
X000373Y013624D01*
X000373Y013525D02*
X002042Y013525D01*
X001976Y013427D02*
X000373Y013427D01*
X000373Y013328D02*
X001943Y013328D01*
X002123Y012934D02*
X002166Y012934D01*
X001973Y012638D02*
X002493Y012638D01*
X002356Y012540D02*
X002110Y012540D01*
X002198Y012441D02*
X002268Y012441D01*
X002733Y012153D02*
X003169Y012153D01*
X004000Y011322D01*
X004079Y011554D02*
X009084Y011554D01*
X009185Y011653D02*
X008218Y011653D01*
X008355Y011751D02*
X008795Y011751D01*
X008743Y011850D02*
X008414Y011850D01*
X008443Y011948D02*
X008743Y011948D01*
X008743Y012047D02*
X008443Y012047D01*
X008411Y012145D02*
X008743Y012145D01*
X008784Y012244D02*
X008346Y012244D01*
X008283Y012343D02*
X008467Y012343D01*
X008423Y012441D02*
X008283Y012441D01*
X008283Y012540D02*
X008423Y012540D01*
X008423Y012638D02*
X008283Y012638D01*
X008283Y012737D02*
X008423Y012737D01*
X008423Y012835D02*
X008283Y012835D01*
X008283Y012934D02*
X008423Y012934D01*
X008423Y013032D02*
X008283Y013032D01*
X008283Y013131D02*
X008423Y013131D01*
X008423Y013229D02*
X008283Y013229D01*
X008283Y013328D02*
X008423Y013328D01*
X008423Y013427D02*
X008283Y013427D01*
X008283Y013525D02*
X008423Y013525D01*
X008423Y013624D02*
X008283Y013624D01*
X008283Y013722D02*
X008423Y013722D01*
X008423Y013821D02*
X008283Y013821D01*
X008376Y013919D02*
X008423Y013919D01*
X007863Y013821D02*
X006609Y013821D01*
X006707Y013722D02*
X007863Y013722D01*
X007863Y013624D02*
X006748Y013624D01*
X006763Y013525D02*
X007863Y013525D01*
X007863Y013427D02*
X006758Y013427D01*
X006717Y013328D02*
X007863Y013328D01*
X007863Y013229D02*
X006633Y013229D01*
X006154Y013229D02*
X005897Y013229D01*
X005923Y013303D02*
X005923Y013303D01*
X005923Y013131D02*
X007863Y013131D01*
X007863Y013032D02*
X005923Y013032D01*
X005923Y012934D02*
X007863Y012934D01*
X007863Y012835D02*
X005923Y012835D01*
X005862Y012737D02*
X007863Y012737D01*
X007863Y012638D02*
X005903Y012638D01*
X005903Y012540D02*
X007863Y012540D01*
X007863Y012441D02*
X005903Y012441D01*
X005903Y012343D02*
X005950Y012343D01*
X006196Y012343D02*
X007863Y012343D01*
X007801Y012244D02*
X006346Y012244D01*
X006411Y012145D02*
X007736Y012145D01*
X007703Y012047D02*
X006443Y012047D01*
X006443Y011948D02*
X007703Y011948D01*
X007732Y011850D02*
X006414Y011850D01*
X006355Y011751D02*
X007792Y011751D01*
X007928Y011653D02*
X006218Y011653D01*
X005928Y011653D02*
X003980Y011653D01*
X003881Y011751D02*
X004835Y011751D01*
X004639Y011850D02*
X003783Y011850D01*
X003684Y011948D02*
X004541Y011948D01*
X004220Y011061D02*
X009111Y011061D01*
X009252Y010963D02*
X004220Y010963D01*
X004220Y010667D02*
X004485Y010667D01*
X004470Y010569D02*
X004220Y010569D01*
X003780Y009583D02*
X003258Y009583D01*
X003258Y009485D02*
X003780Y009485D01*
X003780Y009386D02*
X003258Y009386D01*
X003226Y009288D02*
X003780Y009288D01*
X003780Y009189D02*
X000373Y009189D01*
X000373Y009091D02*
X003780Y009091D01*
X003780Y008992D02*
X003253Y008992D01*
X003258Y008987D02*
X003158Y009087D01*
X002309Y009087D01*
X002233Y009012D01*
X002158Y009087D01*
X001309Y009087D01*
X001209Y008987D01*
X001209Y008216D01*
X001309Y008117D01*
X001403Y008117D01*
X001403Y007900D01*
X001387Y007900D01*
X001288Y007800D01*
X001288Y007187D01*
X001387Y007087D01*
X002079Y007087D01*
X002179Y007187D01*
X002179Y007800D01*
X002079Y007900D01*
X002063Y007900D01*
X002063Y008117D01*
X002158Y008117D01*
X002233Y008192D01*
X002309Y008117D01*
X002403Y008117D01*
X002403Y007900D01*
X002387Y007900D01*
X002288Y007800D01*
X002288Y007187D01*
X002387Y007087D01*
X003079Y007087D01*
X003179Y007187D01*
X003179Y007800D01*
X003079Y007900D01*
X003063Y007900D01*
X003063Y008117D01*
X003158Y008117D01*
X003258Y008216D01*
X003258Y008987D01*
X003258Y008894D02*
X003780Y008894D01*
X003780Y008795D02*
X003258Y008795D01*
X003258Y008696D02*
X003780Y008696D01*
X003780Y008598D02*
X003258Y008598D01*
X003258Y008499D02*
X003780Y008499D01*
X003780Y008401D02*
X003258Y008401D01*
X003258Y008302D02*
X003780Y008302D01*
X003780Y008204D02*
X003245Y008204D01*
X003063Y008105D02*
X003780Y008105D01*
X003780Y008007D02*
X003063Y008007D01*
X003063Y007908D02*
X003780Y007908D01*
X003780Y007810D02*
X003169Y007810D01*
X003179Y007711D02*
X003780Y007711D01*
X003780Y007612D02*
X003179Y007612D01*
X003179Y007514D02*
X003780Y007514D01*
X003780Y007415D02*
X003179Y007415D01*
X003179Y007317D02*
X003780Y007317D01*
X003780Y007218D02*
X003179Y007218D01*
X003112Y007120D02*
X003780Y007120D01*
X003780Y007021D02*
X000373Y007021D01*
X000373Y006923D02*
X003780Y006923D01*
X003780Y006824D02*
X000373Y006824D01*
X000373Y006726D02*
X003780Y006726D01*
X003780Y006627D02*
X003143Y006627D01*
X003159Y006611D02*
X003071Y006699D01*
X002783Y006699D01*
X002783Y006363D01*
X002683Y006363D01*
X002683Y006699D01*
X002396Y006699D01*
X002308Y006611D01*
X002308Y006362D01*
X002683Y006362D01*
X002683Y006263D01*
X002308Y006263D01*
X002308Y006014D01*
X002396Y005926D01*
X002683Y005926D01*
X002683Y006262D01*
X002783Y006262D01*
X002783Y005926D01*
X003071Y005926D01*
X003159Y006014D01*
X003159Y006263D01*
X002783Y006263D01*
X002783Y006362D01*
X003159Y006362D01*
X003159Y006611D01*
X003159Y006529D02*
X003780Y006529D01*
X003780Y006430D02*
X003159Y006430D01*
X003159Y006233D02*
X003780Y006233D01*
X003780Y006331D02*
X002783Y006331D01*
X002783Y006233D02*
X002683Y006233D01*
X002683Y006331D02*
X001783Y006331D01*
X001783Y006362D02*
X002159Y006362D01*
X002159Y006611D01*
X002071Y006699D01*
X001783Y006699D01*
X001783Y006363D01*
X001683Y006363D01*
X001683Y006699D01*
X001396Y006699D01*
X001308Y006611D01*
X001308Y006362D01*
X001683Y006362D01*
X001683Y006263D01*
X001308Y006263D01*
X001308Y006014D01*
X001396Y005926D01*
X001683Y005926D01*
X001683Y006262D01*
X001783Y006262D01*
X001783Y005926D01*
X002071Y005926D01*
X002159Y006014D01*
X002159Y006263D01*
X001783Y006263D01*
X001783Y006362D01*
X001783Y006430D02*
X001683Y006430D01*
X001683Y006529D02*
X001783Y006529D01*
X001783Y006627D02*
X001683Y006627D01*
X001683Y006331D02*
X000373Y006331D01*
X000373Y006233D02*
X001308Y006233D01*
X001308Y006134D02*
X000373Y006134D01*
X000373Y006036D02*
X001308Y006036D01*
X001385Y005937D02*
X000373Y005937D01*
X000373Y005839D02*
X003780Y005839D01*
X003780Y005937D02*
X003082Y005937D01*
X003159Y006036D02*
X003780Y006036D01*
X003780Y006134D02*
X003159Y006134D01*
X002783Y006134D02*
X002683Y006134D01*
X002683Y006036D02*
X002783Y006036D01*
X002783Y005937D02*
X002683Y005937D01*
X002385Y005937D02*
X002082Y005937D01*
X002159Y006036D02*
X002308Y006036D01*
X002308Y006134D02*
X002159Y006134D01*
X002159Y006233D02*
X002308Y006233D01*
X002308Y006430D02*
X002159Y006430D01*
X002159Y006529D02*
X002308Y006529D01*
X002324Y006627D02*
X002143Y006627D01*
X002112Y007120D02*
X002355Y007120D01*
X002288Y007218D02*
X002179Y007218D01*
X002179Y007317D02*
X002288Y007317D01*
X002288Y007415D02*
X002179Y007415D01*
X002179Y007514D02*
X002288Y007514D01*
X002288Y007612D02*
X002179Y007612D01*
X002179Y007711D02*
X002288Y007711D01*
X002297Y007810D02*
X002169Y007810D01*
X002063Y007908D02*
X002403Y007908D01*
X002403Y008007D02*
X002063Y008007D01*
X002063Y008105D02*
X002403Y008105D01*
X001403Y008105D02*
X000373Y008105D01*
X000373Y008007D02*
X001403Y008007D01*
X001403Y007908D02*
X000373Y007908D01*
X000373Y007810D02*
X001297Y007810D01*
X001288Y007711D02*
X000373Y007711D01*
X000373Y007612D02*
X001288Y007612D01*
X001288Y007514D02*
X000373Y007514D01*
X000373Y007415D02*
X001288Y007415D01*
X001288Y007317D02*
X000373Y007317D01*
X000373Y007218D02*
X001288Y007218D01*
X001355Y007120D02*
X000373Y007120D01*
X000373Y006627D02*
X001324Y006627D01*
X001308Y006529D02*
X000373Y006529D01*
X000373Y006430D02*
X001308Y006430D01*
X001683Y006233D02*
X001783Y006233D01*
X001783Y006134D02*
X001683Y006134D01*
X001683Y006036D02*
X001783Y006036D01*
X001783Y005937D02*
X001683Y005937D01*
X001813Y005492D02*
X001487Y005492D01*
X001185Y005367D01*
X000955Y005136D01*
X000830Y004835D01*
X000830Y004509D01*
X000955Y004207D01*
X001185Y003977D01*
X001487Y003852D01*
X001813Y003852D01*
X002114Y003977D01*
X002345Y004207D01*
X002470Y004509D01*
X002470Y004835D01*
X002345Y005136D01*
X002114Y005367D01*
X001813Y005492D01*
X001927Y005445D02*
X003780Y005445D01*
X003780Y005543D02*
X000373Y005543D01*
X000373Y005445D02*
X001373Y005445D01*
X001165Y005346D02*
X000373Y005346D01*
X000373Y005247D02*
X001066Y005247D01*
X000968Y005149D02*
X000373Y005149D01*
X000373Y005050D02*
X000919Y005050D01*
X000878Y004952D02*
X000373Y004952D01*
X000373Y004853D02*
X000838Y004853D01*
X000830Y004755D02*
X000373Y004755D01*
X000373Y004656D02*
X000830Y004656D01*
X000830Y004558D02*
X000373Y004558D01*
X000373Y004459D02*
X000850Y004459D01*
X000891Y004361D02*
X000373Y004361D01*
X000373Y004262D02*
X000932Y004262D01*
X000999Y004163D02*
X000373Y004163D01*
X000373Y004065D02*
X001097Y004065D01*
X001210Y003966D02*
X000373Y003966D01*
X000373Y003868D02*
X001448Y003868D01*
X001204Y003671D02*
X002223Y003671D01*
X002162Y003572D02*
X001265Y003572D01*
X001306Y003474D02*
X002121Y003474D01*
X002113Y003375D02*
X001313Y003375D01*
X001313Y003277D02*
X002113Y003277D01*
X002147Y003178D02*
X001279Y003178D01*
X001238Y003079D02*
X002189Y003079D01*
X002287Y002981D02*
X001139Y002981D01*
X000955Y002882D02*
X002471Y002882D01*
X002322Y003769D02*
X001105Y003769D01*
X000542Y003769D02*
X000373Y003769D01*
X000373Y003671D02*
X000443Y003671D01*
X000382Y003572D02*
X000373Y003572D01*
X000373Y002390D02*
X004357Y002390D01*
X004252Y002291D02*
X000373Y002291D01*
X000373Y002193D02*
X004147Y002193D01*
X004041Y002094D02*
X000373Y002094D01*
X000373Y001996D02*
X003936Y001996D01*
X003830Y001897D02*
X000373Y001897D01*
X000373Y001798D02*
X003725Y001798D01*
X003619Y001700D02*
X000373Y001700D01*
X000373Y001601D02*
X003514Y001601D01*
X003408Y001503D02*
X000373Y001503D01*
X000373Y001404D02*
X003303Y001404D01*
X003198Y001306D02*
X000373Y001306D01*
X000373Y001207D02*
X000583Y001207D01*
X000469Y001109D02*
X000373Y001109D01*
X000373Y001010D02*
X000402Y001010D01*
X000773Y001010D02*
X000873Y001010D01*
X000873Y000912D02*
X000773Y000912D01*
X000873Y000848D02*
X000873Y001268D01*
X000917Y001268D01*
X001089Y001196D01*
X001222Y001064D01*
X001293Y000892D01*
X001293Y000848D01*
X000873Y000848D01*
X000873Y001109D02*
X000773Y001109D01*
X000773Y001207D02*
X000873Y001207D01*
X001064Y001207D02*
X002319Y001207D01*
X002221Y001109D02*
X001177Y001109D01*
X001244Y001010D02*
X002161Y001010D01*
X002120Y000912D02*
X001285Y000912D01*
X002887Y001207D02*
X003092Y001207D01*
X002987Y001109D02*
X002986Y001109D01*
X003314Y000813D02*
X004659Y000813D01*
X004560Y000912D02*
X003420Y000912D01*
X003525Y001010D02*
X004514Y001010D01*
X004473Y001109D02*
X003631Y001109D01*
X003736Y001207D02*
X004470Y001207D01*
X004470Y001306D02*
X003842Y001306D01*
X003947Y001404D02*
X004502Y001404D01*
X004543Y001503D02*
X004053Y001503D01*
X004158Y001601D02*
X004631Y001601D01*
X004838Y000714D02*
X003209Y000714D01*
X003105Y000616D02*
X028933Y000616D01*
X028933Y000714D02*
X017474Y000714D01*
X017540Y000813D02*
X020716Y000813D01*
X020617Y000912D02*
X017540Y000912D01*
X017540Y001010D02*
X020519Y001010D01*
X020510Y001109D02*
X017540Y001109D01*
X017540Y001207D02*
X020510Y001207D01*
X020510Y001306D02*
X017540Y001306D01*
X017540Y001404D02*
X020510Y001404D01*
X020208Y001503D02*
X017540Y001503D01*
X017540Y001601D02*
X020109Y001601D01*
X020011Y001700D02*
X017502Y001700D01*
X017000Y001221D02*
X017000Y001222D01*
X016460Y000912D02*
X016454Y000912D01*
X016460Y000813D02*
X016355Y000813D01*
X016188Y000714D02*
X016526Y000714D01*
X015812Y000714D02*
X015188Y000714D01*
X015355Y000813D02*
X015644Y000813D01*
X015546Y000912D02*
X015454Y000912D01*
X015497Y001010D02*
X015503Y001010D01*
X015000Y001221D02*
X015000Y001222D01*
X015800Y002022D01*
X015800Y003722D01*
X015600Y003922D01*
X011900Y003922D01*
X011900Y004622D01*
X012000Y004722D01*
X012000Y005004D01*
X011972Y005032D01*
X012287Y005032D02*
X012287Y004734D01*
X012300Y004322D01*
X016600Y004322D01*
X017699Y003222D01*
X018000Y003222D01*
X017590Y002882D02*
X017288Y002882D01*
X017329Y002842D02*
X017220Y002951D01*
X017077Y003010D01*
X016923Y003010D01*
X016780Y002951D01*
X016671Y002842D01*
X016646Y002781D01*
X016577Y002810D01*
X016423Y002810D01*
X016280Y002751D01*
X016171Y002642D01*
X016112Y002499D01*
X016112Y002344D01*
X016154Y002242D01*
X016020Y002242D01*
X016020Y003813D01*
X015891Y003942D01*
X015731Y004102D01*
X016509Y004102D01*
X017470Y003141D01*
X017470Y003117D01*
X017551Y002922D01*
X017700Y002773D01*
X017895Y002692D01*
X018106Y002692D01*
X018300Y002773D01*
X018449Y002922D01*
X018530Y003117D01*
X018530Y003328D01*
X018458Y003502D01*
X018471Y003502D01*
X018580Y003393D01*
X018723Y003334D01*
X018877Y003334D01*
X019020Y003393D01*
X019129Y003502D01*
X020069Y003502D01*
X019209Y002642D01*
X017591Y002642D01*
X017391Y002842D01*
X017329Y002842D01*
X017449Y002784D02*
X017689Y002784D01*
X017547Y002685D02*
X019253Y002685D01*
X019351Y002784D02*
X018311Y002784D01*
X018410Y002882D02*
X019450Y002882D01*
X019548Y002981D02*
X018474Y002981D01*
X018515Y003079D02*
X019647Y003079D01*
X019745Y003178D02*
X018530Y003178D01*
X018530Y003277D02*
X019844Y003277D01*
X019942Y003375D02*
X018977Y003375D01*
X019101Y003474D02*
X020041Y003474D01*
X020300Y003422D02*
X019300Y002422D01*
X017500Y002422D01*
X017300Y002622D01*
X017000Y002622D01*
X017147Y002981D02*
X017526Y002981D01*
X017486Y003079D02*
X016020Y003079D01*
X016020Y002981D02*
X016853Y002981D01*
X016712Y002882D02*
X016020Y002882D01*
X016020Y002784D02*
X016360Y002784D01*
X016215Y002685D02*
X016020Y002685D01*
X016020Y002587D02*
X016148Y002587D01*
X016112Y002488D02*
X016020Y002488D01*
X016020Y002390D02*
X016112Y002390D01*
X016134Y002291D02*
X016020Y002291D01*
X015580Y002291D02*
X011562Y002291D01*
X011562Y002193D02*
X015580Y002193D01*
X015561Y002094D02*
X011562Y002094D01*
X011562Y001996D02*
X015463Y001996D01*
X015364Y001897D02*
X011635Y001897D01*
X011734Y001798D02*
X015266Y001798D01*
X015800Y002022D02*
X019500Y002022D01*
X020500Y003022D01*
X025000Y003022D01*
X025000Y002222D01*
X025490Y002193D02*
X025510Y002193D01*
X025510Y002291D02*
X025490Y002291D01*
X025490Y002390D02*
X025510Y002390D01*
X025574Y002488D02*
X025426Y002488D01*
X025328Y002587D02*
X025672Y002587D01*
X025771Y002685D02*
X025229Y002685D01*
X025220Y002784D02*
X025727Y002784D01*
X025628Y002882D02*
X025220Y002882D01*
X025220Y002981D02*
X025530Y002981D01*
X025600Y003222D02*
X026000Y002822D01*
X026000Y002222D01*
X025632Y001897D02*
X025368Y001897D01*
X025270Y001798D02*
X025730Y001798D01*
X025805Y001692D02*
X025530Y001416D01*
X025530Y001272D01*
X025950Y001272D01*
X025950Y001692D01*
X025805Y001692D01*
X025715Y001601D02*
X025285Y001601D01*
X025195Y001692D02*
X025470Y001416D01*
X025470Y001272D01*
X025050Y001272D01*
X024950Y001272D01*
X024950Y001692D01*
X024805Y001692D01*
X024530Y001416D01*
X024530Y001272D01*
X024950Y001272D01*
X024950Y001172D01*
X024530Y001172D01*
X024530Y001027D01*
X024805Y000752D01*
X024950Y000752D01*
X024950Y001172D01*
X025050Y001172D01*
X025050Y001272D01*
X025050Y001692D01*
X025195Y001692D01*
X025050Y001601D02*
X024950Y001601D01*
X024950Y001503D02*
X025050Y001503D01*
X025050Y001404D02*
X024950Y001404D01*
X024950Y001306D02*
X025050Y001306D01*
X025050Y001207D02*
X025950Y001207D01*
X025950Y001172D02*
X025530Y001172D01*
X025530Y001027D01*
X025805Y000752D01*
X025950Y000752D01*
X025950Y001172D01*
X025950Y001272D01*
X026050Y001272D01*
X026050Y001692D01*
X026195Y001692D01*
X026470Y001416D01*
X026470Y001272D01*
X026050Y001272D01*
X026050Y001172D01*
X026470Y001172D01*
X026470Y001027D01*
X026195Y000752D01*
X026050Y000752D01*
X026050Y001172D01*
X025950Y001172D01*
X025950Y001109D02*
X026050Y001109D01*
X026050Y001207D02*
X026950Y001207D01*
X026950Y001172D02*
X026530Y001172D01*
X026530Y001027D01*
X026805Y000752D01*
X026950Y000752D01*
X026950Y001172D01*
X026950Y001272D01*
X026950Y001692D01*
X026805Y001692D01*
X026530Y001416D01*
X026530Y001272D01*
X026950Y001272D01*
X027050Y001272D01*
X027050Y001692D01*
X027195Y001692D01*
X027470Y001416D01*
X027470Y001272D01*
X027050Y001272D01*
X027050Y001172D01*
X027470Y001172D01*
X027470Y001027D01*
X027195Y000752D01*
X027050Y000752D01*
X027050Y001172D01*
X026950Y001172D01*
X026950Y001109D02*
X027050Y001109D01*
X027050Y001207D02*
X028933Y001207D01*
X028933Y001109D02*
X027470Y001109D01*
X027453Y001010D02*
X028933Y001010D01*
X028933Y000912D02*
X027354Y000912D01*
X027256Y000813D02*
X028933Y000813D01*
X028933Y000517D02*
X003016Y000517D01*
X002917Y000419D02*
X028933Y000419D01*
X028933Y001306D02*
X027470Y001306D01*
X027470Y001404D02*
X028933Y001404D01*
X028933Y001503D02*
X027384Y001503D01*
X027285Y001601D02*
X028933Y001601D01*
X028933Y001700D02*
X024215Y001700D01*
X024203Y001712D02*
X023797Y001712D01*
X023510Y001425D01*
X023510Y001019D01*
X023797Y000732D01*
X024203Y000732D01*
X024490Y001019D01*
X024490Y001425D01*
X024203Y001712D01*
X024203Y001732D02*
X024490Y002019D01*
X024490Y002425D01*
X024203Y002712D01*
X023797Y002712D01*
X023510Y002425D01*
X023510Y002019D01*
X023797Y001732D01*
X024203Y001732D01*
X024270Y001798D02*
X024730Y001798D01*
X024632Y001897D02*
X024368Y001897D01*
X024467Y001996D02*
X024533Y001996D01*
X024510Y002094D02*
X024490Y002094D01*
X024490Y002193D02*
X024510Y002193D01*
X024510Y002291D02*
X024490Y002291D01*
X024490Y002390D02*
X024510Y002390D01*
X024574Y002488D02*
X024426Y002488D01*
X024328Y002587D02*
X024672Y002587D01*
X024771Y002685D02*
X024229Y002685D01*
X023771Y002685D02*
X023229Y002685D01*
X023328Y002587D02*
X023672Y002587D01*
X023574Y002488D02*
X023426Y002488D01*
X023490Y002390D02*
X023510Y002390D01*
X023510Y002291D02*
X023490Y002291D01*
X023490Y002193D02*
X023510Y002193D01*
X023510Y002094D02*
X023490Y002094D01*
X023467Y001996D02*
X023533Y001996D01*
X023632Y001897D02*
X023368Y001897D01*
X023270Y001798D02*
X023730Y001798D01*
X023785Y001700D02*
X023215Y001700D01*
X023313Y001601D02*
X023687Y001601D01*
X023588Y001503D02*
X023412Y001503D01*
X023490Y001404D02*
X023510Y001404D01*
X023510Y001306D02*
X023490Y001306D01*
X023490Y001207D02*
X023510Y001207D01*
X023510Y001109D02*
X023490Y001109D01*
X023481Y001010D02*
X023519Y001010D01*
X023617Y000912D02*
X023383Y000912D01*
X023284Y000813D02*
X023716Y000813D01*
X024284Y000813D02*
X024744Y000813D01*
X024646Y000912D02*
X024383Y000912D01*
X024481Y001010D02*
X024547Y001010D01*
X024530Y001109D02*
X024490Y001109D01*
X024490Y001207D02*
X024950Y001207D01*
X024950Y001109D02*
X025050Y001109D01*
X025050Y001172D02*
X025050Y000752D01*
X025195Y000752D01*
X025470Y001027D01*
X025470Y001172D01*
X025050Y001172D01*
X025050Y001010D02*
X024950Y001010D01*
X024950Y000912D02*
X025050Y000912D01*
X025050Y000813D02*
X024950Y000813D01*
X025256Y000813D02*
X025744Y000813D01*
X025646Y000912D02*
X025354Y000912D01*
X025453Y001010D02*
X025547Y001010D01*
X025530Y001109D02*
X025470Y001109D01*
X025470Y001306D02*
X025530Y001306D01*
X025530Y001404D02*
X025470Y001404D01*
X025384Y001503D02*
X025616Y001503D01*
X025950Y001503D02*
X026050Y001503D01*
X026050Y001601D02*
X025950Y001601D01*
X025950Y001404D02*
X026050Y001404D01*
X026050Y001306D02*
X025950Y001306D01*
X026285Y001601D02*
X026715Y001601D01*
X026616Y001503D02*
X026384Y001503D01*
X026470Y001404D02*
X026530Y001404D01*
X026530Y001306D02*
X026470Y001306D01*
X026470Y001109D02*
X026530Y001109D01*
X026547Y001010D02*
X026453Y001010D01*
X026354Y000912D02*
X026646Y000912D01*
X026744Y000813D02*
X026256Y000813D01*
X026050Y000813D02*
X025950Y000813D01*
X025950Y000912D02*
X026050Y000912D01*
X026050Y001010D02*
X025950Y001010D01*
X026950Y001010D02*
X027050Y001010D01*
X027050Y000912D02*
X026950Y000912D01*
X026950Y000813D02*
X027050Y000813D01*
X027050Y001306D02*
X026950Y001306D01*
X026950Y001404D02*
X027050Y001404D01*
X027050Y001503D02*
X026950Y001503D01*
X026950Y001601D02*
X027050Y001601D01*
X027270Y001798D02*
X028933Y001798D01*
X028933Y001897D02*
X027368Y001897D01*
X027467Y001996D02*
X028933Y001996D01*
X028933Y002094D02*
X027490Y002094D01*
X027490Y002193D02*
X028933Y002193D01*
X028933Y002291D02*
X027490Y002291D01*
X027490Y002390D02*
X028933Y002390D01*
X028933Y002488D02*
X027426Y002488D01*
X027328Y002587D02*
X028933Y002587D01*
X028933Y002685D02*
X027229Y002685D01*
X027149Y002784D02*
X028933Y002784D01*
X028933Y002882D02*
X027050Y002882D01*
X026952Y002981D02*
X028933Y002981D01*
X028933Y003079D02*
X026853Y003079D01*
X026755Y003178D02*
X028933Y003178D01*
X028933Y003277D02*
X026656Y003277D01*
X026558Y003375D02*
X028933Y003375D01*
X028933Y003474D02*
X026459Y003474D01*
X026361Y003572D02*
X028933Y003572D01*
X028933Y003671D02*
X021260Y003671D01*
X021359Y003769D02*
X021492Y003769D01*
X021464Y003868D02*
X021457Y003868D01*
X021500Y004222D02*
X021000Y003722D01*
X018800Y003722D01*
X017500Y003722D01*
X017100Y004122D01*
X017100Y005122D01*
X016800Y005422D01*
X015300Y005422D01*
X015031Y005702D02*
X014971Y005642D01*
X014869Y005642D01*
X014820Y005593D02*
X014929Y005702D01*
X015031Y005702D01*
X014971Y005642D02*
X014912Y005499D01*
X014912Y005344D01*
X014971Y005202D01*
X015080Y005093D01*
X015223Y005034D01*
X015377Y005034D01*
X015520Y005093D01*
X015629Y005202D01*
X016709Y005202D01*
X016880Y005031D01*
X016880Y004353D01*
X016820Y004413D01*
X016691Y004542D01*
X012629Y004542D01*
X012559Y004612D01*
X012783Y004612D01*
X012847Y004676D01*
X012880Y004643D01*
X013023Y004584D01*
X013177Y004584D01*
X013320Y004643D01*
X013429Y004752D01*
X013488Y004894D01*
X013488Y005049D01*
X013429Y005192D01*
X013320Y005301D01*
X013226Y005339D01*
X013510Y005339D01*
X013610Y005439D01*
X013610Y005702D01*
X014091Y005702D01*
X014218Y005829D01*
X014271Y005702D01*
X014380Y005593D01*
X014523Y005534D01*
X014677Y005534D01*
X014820Y005593D01*
X014930Y005543D02*
X014700Y005543D01*
X014500Y005543D02*
X013610Y005543D01*
X013610Y005445D02*
X014912Y005445D01*
X014912Y005346D02*
X013517Y005346D01*
X013373Y005247D02*
X014952Y005247D01*
X015024Y005149D02*
X013447Y005149D01*
X013488Y005050D02*
X015182Y005050D01*
X015418Y005050D02*
X016860Y005050D01*
X016880Y004952D02*
X013488Y004952D01*
X013471Y004853D02*
X016880Y004853D01*
X016880Y004755D02*
X013430Y004755D01*
X013333Y004656D02*
X016880Y004656D01*
X016880Y004558D02*
X012613Y004558D01*
X012827Y004656D02*
X012867Y004656D01*
X013100Y004972D02*
X013190Y004982D01*
X012610Y004982D01*
X012600Y004972D01*
X012602Y005032D01*
X012300Y005022D02*
X012297Y005022D01*
X012287Y005032D01*
X012250Y005522D02*
X011750Y005522D01*
X011700Y005572D01*
X011700Y005972D01*
X011000Y006672D01*
X010400Y006672D01*
X010400Y006122D02*
X011150Y006122D01*
X011300Y005972D01*
X011300Y005772D01*
X011650Y006372D02*
X012050Y005972D01*
X012050Y005922D01*
X012350Y005622D02*
X012250Y005522D01*
X012350Y005622D02*
X013188Y005622D01*
X013190Y005619D02*
X013192Y005622D01*
X013203Y005922D02*
X013190Y005934D01*
X013203Y005922D02*
X014000Y005922D01*
X014400Y006322D01*
X016500Y006322D01*
X017300Y005522D01*
X017300Y004622D01*
X017700Y004222D01*
X018000Y004222D01*
X018476Y004459D02*
X021464Y004459D01*
X021464Y004558D02*
X018414Y004558D01*
X018316Y004656D02*
X021474Y004656D01*
X021328Y004361D02*
X018516Y004361D01*
X018530Y004262D02*
X021229Y004262D01*
X021131Y004163D02*
X018530Y004163D01*
X018509Y004065D02*
X018614Y004065D01*
X018496Y003966D02*
X018468Y003966D01*
X018986Y004065D02*
X021032Y004065D01*
X020934Y003966D02*
X019104Y003966D01*
X018623Y003375D02*
X018510Y003375D01*
X018499Y003474D02*
X018470Y003474D01*
X017433Y003178D02*
X016020Y003178D01*
X016020Y003277D02*
X017334Y003277D01*
X017236Y003375D02*
X016020Y003375D01*
X016020Y003474D02*
X017137Y003474D01*
X017038Y003572D02*
X016020Y003572D01*
X016020Y003671D02*
X016940Y003671D01*
X016841Y003769D02*
X016020Y003769D01*
X015965Y003868D02*
X016743Y003868D01*
X016644Y003966D02*
X015866Y003966D01*
X015768Y004065D02*
X016546Y004065D01*
X016872Y004361D02*
X016880Y004361D01*
X016820Y004413D02*
X016820Y004413D01*
X016774Y004459D02*
X016880Y004459D01*
X016762Y005149D02*
X015576Y005149D01*
X016300Y005922D02*
X014600Y005922D01*
X014331Y005642D02*
X013610Y005642D01*
X014130Y005740D02*
X014255Y005740D01*
X013750Y006222D02*
X013218Y006222D01*
X013190Y006249D01*
X013190Y006564D02*
X013183Y006572D01*
X013550Y006572D01*
X013800Y006822D01*
X016400Y006822D01*
X016500Y006722D01*
X016701Y006522D01*
X018000Y005222D01*
X018381Y004853D02*
X022780Y004853D01*
X022780Y004755D02*
X018256Y004755D01*
X018462Y004952D02*
X022780Y004952D01*
X022780Y005050D02*
X018502Y005050D01*
X018530Y005149D02*
X022780Y005149D01*
X022780Y005247D02*
X018530Y005247D01*
X018522Y005346D02*
X022780Y005346D01*
X022780Y005445D02*
X018482Y005445D01*
X018429Y005543D02*
X022744Y005543D01*
X022616Y005642D02*
X018330Y005642D01*
X018221Y005740D02*
X022532Y005740D01*
X022491Y005839D02*
X018366Y005839D01*
X018456Y005937D02*
X022460Y005937D01*
X022460Y006036D02*
X018496Y006036D01*
X018530Y006134D02*
X022462Y006134D01*
X022503Y006233D02*
X018530Y006233D01*
X018529Y006331D02*
X022546Y006331D01*
X022645Y006430D02*
X018488Y006430D01*
X018443Y006529D02*
X022780Y006529D01*
X022631Y006627D02*
X018345Y006627D01*
X018186Y006726D02*
X019653Y006726D01*
X019531Y006824D02*
X018351Y006824D01*
X018450Y006923D02*
X019432Y006923D01*
X019334Y007021D02*
X018490Y007021D01*
X018530Y007120D02*
X019235Y007120D01*
X019137Y007218D02*
X018530Y007218D01*
X018530Y007317D02*
X019038Y007317D01*
X018940Y007415D02*
X018494Y007415D01*
X018457Y007942D02*
X018530Y008117D01*
X018530Y008328D01*
X018449Y008522D01*
X018300Y008672D01*
X018178Y008722D01*
X018300Y008773D01*
X018449Y008922D01*
X018530Y009117D01*
X018530Y009328D01*
X018449Y009522D01*
X018300Y009672D01*
X018250Y009692D01*
X018430Y009692D01*
X018530Y009792D01*
X018530Y010653D01*
X018430Y010752D01*
X017570Y010752D01*
X017470Y010653D01*
X017470Y009792D01*
X017570Y009692D01*
X017750Y009692D01*
X017700Y009672D01*
X017551Y009522D01*
X017470Y009328D01*
X017470Y009117D01*
X017551Y008922D01*
X017700Y008773D01*
X017822Y008722D01*
X017700Y008672D01*
X017551Y008522D01*
X017470Y008328D01*
X017470Y008142D01*
X016155Y008142D01*
X016266Y008188D01*
X016399Y008321D01*
X016472Y008496D01*
X016472Y008571D01*
X016016Y008571D01*
X016016Y008609D01*
X016472Y008609D01*
X016472Y008685D01*
X016399Y008859D01*
X016266Y008993D01*
X016091Y009065D01*
X016016Y009065D01*
X016016Y008609D01*
X015978Y008609D01*
X015978Y008571D01*
X015522Y008571D01*
X015522Y008496D01*
X015594Y008321D01*
X015728Y008188D01*
X015839Y008142D01*
X015207Y008142D01*
X015277Y008171D01*
X015416Y008310D01*
X015492Y008492D01*
X015492Y008689D01*
X015416Y008871D01*
X015277Y009010D01*
X015095Y009085D01*
X014898Y009085D01*
X014716Y009010D01*
X014577Y008871D01*
X014502Y008689D01*
X014502Y008492D01*
X014577Y008310D01*
X014716Y008171D01*
X014786Y008142D01*
X014466Y008142D01*
X014488Y008194D01*
X014488Y008349D01*
X014430Y008489D01*
X014430Y009685D01*
X014637Y009892D01*
X015180Y009892D01*
X015270Y009802D01*
X015451Y009727D01*
X015648Y009727D01*
X015830Y009802D01*
X015970Y009941D01*
X016045Y010123D01*
X016045Y010320D01*
X015970Y010502D01*
X015886Y010586D01*
X016242Y010586D01*
X016147Y010491D01*
X016075Y010316D01*
X016075Y010241D01*
X016531Y010241D01*
X016531Y010203D01*
X016075Y010203D01*
X016075Y010127D01*
X016147Y009953D01*
X016281Y009819D01*
X016455Y009747D01*
X016531Y009747D01*
X016531Y010203D01*
X016569Y010203D01*
X016569Y010241D01*
X017025Y010241D01*
X017025Y010316D01*
X016953Y010491D01*
X016819Y010624D01*
X016744Y010655D01*
X016774Y010685D01*
X016774Y011456D01*
X016675Y011555D01*
X015825Y011555D01*
X015726Y011456D01*
X015726Y011401D01*
X014895Y011401D01*
X014950Y011532D01*
X014950Y011711D01*
X014881Y011877D01*
X014755Y012003D01*
X014589Y012072D01*
X014410Y012072D01*
X014245Y012003D01*
X014119Y011877D01*
X014050Y011711D01*
X014050Y011532D01*
X014119Y011367D01*
X014170Y011315D01*
X014170Y011087D01*
X014170Y010956D01*
X014170Y010358D01*
X013913Y010101D01*
X013820Y010009D01*
X013770Y009887D01*
X013770Y008489D01*
X013712Y008349D01*
X013712Y008342D01*
X013709Y008342D01*
X013471Y008104D01*
X012882Y008104D01*
X012882Y008194D01*
X012933Y008194D01*
X013391Y008652D01*
X013520Y008781D01*
X013520Y009210D01*
X013529Y009219D01*
X013570Y009318D01*
X013570Y010168D01*
X013570Y010275D01*
X013570Y010875D01*
X013529Y010975D01*
X013453Y011051D01*
X012950Y011554D01*
X014050Y011554D01*
X014050Y011653D02*
X012998Y011653D01*
X012950Y011605D02*
X013437Y012092D01*
X014763Y012092D01*
X014962Y011893D01*
X015083Y011843D01*
X015214Y011843D01*
X015726Y011843D01*
X015726Y011788D01*
X015825Y011688D01*
X016675Y011688D01*
X016774Y011788D01*
X016774Y012558D01*
X016675Y012658D01*
X015825Y012658D01*
X015726Y012558D01*
X015726Y012503D01*
X015285Y012503D01*
X015180Y012609D01*
X015087Y012701D01*
X014966Y012752D01*
X013366Y012752D01*
X013234Y012752D01*
X013113Y012701D01*
X012483Y012072D01*
X012410Y012072D01*
X012245Y012003D01*
X012119Y011877D01*
X012050Y011711D01*
X012050Y011532D01*
X012119Y011367D01*
X012245Y011240D01*
X012410Y011172D01*
X012568Y011172D01*
X013030Y010710D01*
X013030Y010492D01*
X012424Y010492D01*
X012420Y010502D01*
X012280Y010641D01*
X012098Y010717D01*
X011901Y010717D01*
X011720Y010641D01*
X011580Y010502D01*
X011505Y010320D01*
X011505Y010123D01*
X011580Y009941D01*
X011720Y009802D01*
X011901Y009727D01*
X012098Y009727D01*
X012280Y009802D01*
X012420Y009941D01*
X012424Y009952D01*
X013030Y009952D01*
X013030Y009376D01*
X013007Y009399D01*
X012865Y009458D01*
X012710Y009458D01*
X012568Y009399D01*
X012460Y009292D01*
X012410Y009292D01*
X012410Y009292D01*
X012409Y009292D01*
X012345Y009228D01*
X012280Y009164D01*
X012280Y009163D01*
X012067Y008950D01*
X012067Y008812D01*
X011977Y008812D01*
X011977Y008417D01*
X011967Y008417D01*
X011967Y008812D01*
X011877Y008812D01*
X011877Y009000D01*
X011929Y009052D01*
X011988Y009194D01*
X011988Y009349D01*
X011929Y009492D01*
X011820Y009601D01*
X011677Y009660D01*
X011588Y009660D01*
X011588Y009699D01*
X011529Y009842D01*
X011420Y009951D01*
X011404Y009957D01*
X011475Y010127D01*
X011475Y010203D01*
X011019Y010203D01*
X011019Y010241D01*
X010981Y010241D01*
X010981Y010697D01*
X010905Y010697D01*
X010731Y010624D01*
X010597Y010491D01*
X010525Y010316D01*
X010525Y010241D01*
X010981Y010241D01*
X010981Y010203D01*
X010525Y010203D01*
X010525Y010127D01*
X010597Y009953D01*
X010731Y009819D01*
X010843Y009773D01*
X010812Y009699D01*
X010812Y009544D01*
X010871Y009402D01*
X010980Y009293D01*
X010980Y008832D01*
X010893Y008832D01*
X010578Y008832D01*
X010217Y008832D01*
X010118Y008732D01*
X010118Y008104D01*
X010030Y008104D01*
X010030Y011201D01*
X010071Y011102D01*
X010180Y010993D01*
X010323Y010934D01*
X010477Y010934D01*
X010620Y010993D01*
X010729Y011102D01*
X010788Y011244D01*
X010788Y011399D01*
X012623Y013234D01*
X012777Y013234D01*
X012920Y013293D01*
X013029Y013402D01*
X013088Y013544D01*
X013088Y013699D01*
X013029Y013842D01*
X012920Y013951D01*
X012777Y014010D01*
X012623Y014010D01*
X012480Y013951D01*
X012371Y013842D01*
X012312Y013699D01*
X012312Y013545D01*
X010620Y011853D01*
X010620Y012577D01*
X010707Y012664D01*
X010763Y012799D01*
X010763Y012947D01*
X010707Y013083D01*
X010603Y013187D01*
X010467Y013243D01*
X010320Y013243D01*
X010283Y013228D01*
X010283Y014469D01*
X010162Y014590D01*
X010039Y014713D01*
X009874Y014713D01*
X009834Y014753D01*
X009883Y014803D01*
X009883Y015203D01*
X009834Y015253D01*
X009883Y015303D01*
X009883Y015703D01*
X009834Y015753D01*
X009883Y015803D01*
X009883Y016203D01*
X009834Y016253D01*
X009883Y016303D01*
X009883Y016624D01*
X010077Y016624D01*
X010569Y016132D01*
X010743Y016132D01*
X011030Y016132D01*
X010933Y016092D01*
X010773Y015932D01*
X010687Y015723D01*
X010687Y015497D01*
X010773Y015288D01*
X010933Y015128D01*
X011142Y015041D01*
X011368Y015041D01*
X011577Y015128D01*
X011737Y015288D01*
X011824Y015497D01*
X011824Y015723D01*
X011737Y015932D01*
X011577Y016092D01*
X011480Y016132D01*
X011563Y016132D01*
X012621Y015043D01*
X012538Y015043D01*
X012363Y014971D01*
X012239Y014847D01*
X012116Y014971D01*
X011941Y015043D01*
X011751Y015043D01*
X011575Y014971D01*
X011441Y014837D01*
X011369Y014661D01*
X011369Y014471D01*
X011441Y014296D01*
X011575Y014162D01*
X011751Y014089D01*
X011941Y014089D01*
X012116Y014162D01*
X012239Y014285D01*
X012363Y014162D01*
X012538Y014089D01*
X012728Y014089D01*
X012903Y014162D01*
X013027Y014285D01*
X013150Y014162D01*
X013326Y014089D01*
X013515Y014089D01*
X013691Y014162D01*
X013814Y014285D01*
X013938Y014162D01*
X014113Y014089D01*
X014303Y014089D01*
X014478Y014162D01*
X014602Y014285D01*
X014725Y014162D01*
X014900Y014089D01*
X015090Y014089D01*
X015266Y014162D01*
X015389Y014285D01*
X015512Y014162D01*
X015688Y014089D01*
X015878Y014089D01*
X016053Y014162D01*
X016187Y014296D01*
X016260Y014471D01*
X016260Y014661D01*
X016187Y014837D01*
X016053Y014971D01*
X015878Y015043D01*
X015688Y015043D01*
X015625Y015017D01*
X015401Y015241D01*
X015401Y015468D01*
X015184Y015684D01*
X014878Y015684D01*
X014661Y015468D01*
X014661Y015161D01*
X014815Y015008D01*
X014725Y014971D01*
X014602Y014847D01*
X014478Y014971D01*
X014450Y014982D01*
X014450Y016252D01*
X016953Y016252D01*
X019390Y013815D01*
X019390Y013624D01*
X019218Y013624D01*
X018962Y013624D01*
X018706Y013624D01*
X018450Y013624D01*
X018350Y013525D01*
X018350Y013444D01*
X018064Y013444D01*
X017904Y013604D01*
X017598Y013604D01*
X017381Y013388D01*
X017381Y013081D01*
X017598Y012864D01*
X017904Y012864D01*
X018064Y013024D01*
X018350Y013024D01*
X018350Y012793D01*
X018450Y012694D01*
X018706Y012694D01*
X018962Y012694D01*
X019161Y012694D01*
X019119Y012652D01*
X019034Y012652D01*
X018913Y012601D01*
X018820Y012509D01*
X018770Y012387D01*
X018770Y007942D01*
X018457Y007942D01*
X018484Y008007D02*
X018770Y008007D01*
X018770Y008105D02*
X018525Y008105D01*
X018530Y008204D02*
X018770Y008204D01*
X018770Y008302D02*
X018530Y008302D01*
X018500Y008401D02*
X018770Y008401D01*
X018770Y008499D02*
X018459Y008499D01*
X018374Y008598D02*
X018770Y008598D01*
X018770Y008696D02*
X018240Y008696D01*
X018322Y008795D02*
X018770Y008795D01*
X018770Y008894D02*
X018421Y008894D01*
X018478Y008992D02*
X018770Y008992D01*
X018770Y009091D02*
X018519Y009091D01*
X018530Y009189D02*
X018770Y009189D01*
X018770Y009288D02*
X018530Y009288D01*
X018506Y009386D02*
X018770Y009386D01*
X018770Y009485D02*
X018465Y009485D01*
X018389Y009583D02*
X018770Y009583D01*
X018770Y009682D02*
X018275Y009682D01*
X018519Y009780D02*
X018770Y009780D01*
X018770Y009879D02*
X018530Y009879D01*
X018530Y009978D02*
X018770Y009978D01*
X018770Y010076D02*
X018530Y010076D01*
X018530Y010175D02*
X018770Y010175D01*
X018770Y010273D02*
X018530Y010273D01*
X018530Y010372D02*
X018770Y010372D01*
X018770Y010470D02*
X018530Y010470D01*
X018530Y010569D02*
X018770Y010569D01*
X018770Y010667D02*
X018515Y010667D01*
X018770Y010766D02*
X016774Y010766D01*
X016774Y010864D02*
X018770Y010864D01*
X018770Y010963D02*
X016774Y010963D01*
X016774Y011061D02*
X018770Y011061D01*
X018770Y011160D02*
X016774Y011160D01*
X016774Y011259D02*
X018770Y011259D01*
X018770Y011357D02*
X016774Y011357D01*
X016774Y011456D02*
X018770Y011456D01*
X018770Y011554D02*
X016676Y011554D01*
X016738Y011751D02*
X018770Y011751D01*
X018770Y011653D02*
X014950Y011653D01*
X014950Y011554D02*
X015824Y011554D01*
X015726Y011456D02*
X014918Y011456D01*
X014933Y011751D02*
X015762Y011751D01*
X015066Y011850D02*
X014893Y011850D01*
X014907Y011948D02*
X014810Y011948D01*
X014808Y012047D02*
X014649Y012047D01*
X014351Y012047D02*
X013392Y012047D01*
X013293Y011948D02*
X014190Y011948D01*
X014107Y011850D02*
X013195Y011850D01*
X013096Y011751D02*
X014067Y011751D01*
X014082Y011456D02*
X013048Y011456D01*
X012950Y011554D02*
X012950Y011605D01*
X013146Y011357D02*
X014128Y011357D01*
X014170Y011259D02*
X013245Y011259D01*
X013343Y011160D02*
X014170Y011160D01*
X014170Y011061D02*
X013442Y011061D01*
X013534Y010963D02*
X014170Y010963D01*
X014170Y010864D02*
X013570Y010864D01*
X013570Y010766D02*
X014170Y010766D01*
X014170Y010667D02*
X013570Y010667D01*
X013570Y010569D02*
X014170Y010569D01*
X014170Y010470D02*
X013570Y010470D01*
X013570Y010372D02*
X014170Y010372D01*
X014085Y010273D02*
X013570Y010273D01*
X013570Y010175D02*
X013986Y010175D01*
X013913Y010101D02*
X013913Y010101D01*
X013888Y010076D02*
X013570Y010076D01*
X013570Y009978D02*
X013807Y009978D01*
X013770Y009879D02*
X013570Y009879D01*
X013570Y009780D02*
X013770Y009780D01*
X013770Y009682D02*
X013570Y009682D01*
X013570Y009583D02*
X013770Y009583D01*
X013770Y009485D02*
X013570Y009485D01*
X013570Y009386D02*
X013770Y009386D01*
X013770Y009288D02*
X013557Y009288D01*
X013520Y009189D02*
X013770Y009189D01*
X013770Y009091D02*
X013520Y009091D01*
X013520Y008992D02*
X013770Y008992D01*
X013770Y008894D02*
X013520Y008894D01*
X013520Y008795D02*
X013770Y008795D01*
X013770Y008696D02*
X013436Y008696D01*
X013337Y008598D02*
X013770Y008598D01*
X013770Y008499D02*
X013239Y008499D01*
X013140Y008401D02*
X013733Y008401D01*
X013669Y008302D02*
X013042Y008302D01*
X012943Y008204D02*
X013571Y008204D01*
X013472Y008105D02*
X012882Y008105D01*
X012842Y008414D02*
X012600Y008414D01*
X012602Y008412D01*
X012842Y008414D02*
X013300Y008872D01*
X013300Y009372D01*
X013030Y009386D02*
X013020Y009386D01*
X013030Y009485D02*
X011932Y009485D01*
X011973Y009386D02*
X012555Y009386D01*
X012405Y009288D02*
X011988Y009288D01*
X011986Y009189D02*
X012306Y009189D01*
X012208Y009091D02*
X011945Y009091D01*
X011877Y008992D02*
X012109Y008992D01*
X012067Y008894D02*
X011877Y008894D01*
X011967Y008795D02*
X011977Y008795D01*
X011967Y008696D02*
X011977Y008696D01*
X011967Y008598D02*
X011977Y008598D01*
X011967Y008499D02*
X011977Y008499D01*
X011977Y008406D02*
X011977Y008012D01*
X012017Y008012D01*
X012017Y007842D01*
X012015Y007797D01*
X012017Y007789D01*
X012017Y007781D01*
X012035Y007739D01*
X012050Y007695D01*
X012055Y007689D01*
X012059Y007681D01*
X012091Y007649D01*
X012121Y007615D01*
X012129Y007611D01*
X012130Y007610D01*
X012123Y007610D01*
X012052Y007581D01*
X011641Y007992D01*
X011838Y007992D01*
X011858Y008012D01*
X011967Y008012D01*
X011967Y008406D01*
X011977Y008406D01*
X011977Y008401D02*
X011967Y008401D01*
X011967Y008302D02*
X011977Y008302D01*
X011967Y008204D02*
X011977Y008204D01*
X011967Y008105D02*
X011977Y008105D01*
X012017Y008007D02*
X011853Y008007D01*
X011725Y007908D02*
X012017Y007908D01*
X012015Y007810D02*
X011823Y007810D01*
X011922Y007711D02*
X012044Y007711D01*
X012020Y007612D02*
X012126Y007612D01*
X012100Y007222D02*
X012200Y007222D01*
X012100Y007222D02*
X011400Y007922D01*
X011100Y007922D01*
X011028Y007994D01*
X011028Y008412D01*
X011343Y008412D02*
X011343Y008779D01*
X011200Y008922D01*
X011200Y009622D01*
X011554Y009780D02*
X011772Y009780D01*
X011643Y009879D02*
X011492Y009879D01*
X011565Y009978D02*
X011413Y009978D01*
X011454Y010076D02*
X011525Y010076D01*
X011505Y010175D02*
X011475Y010175D01*
X011475Y010241D02*
X011475Y010316D01*
X011403Y010491D01*
X011269Y010624D01*
X011094Y010697D01*
X011019Y010697D01*
X011019Y010241D01*
X011475Y010241D01*
X011475Y010273D02*
X011505Y010273D01*
X011526Y010372D02*
X011452Y010372D01*
X011411Y010470D02*
X011567Y010470D01*
X011647Y010569D02*
X011325Y010569D01*
X011165Y010667D02*
X011782Y010667D01*
X012218Y010667D02*
X013030Y010667D01*
X013030Y010569D02*
X012353Y010569D01*
X012875Y010864D02*
X010030Y010864D01*
X010030Y010766D02*
X012974Y010766D01*
X012777Y010963D02*
X010548Y010963D01*
X010689Y011061D02*
X012678Y011061D01*
X012580Y011160D02*
X010753Y011160D01*
X010788Y011259D02*
X012227Y011259D01*
X012128Y011357D02*
X010788Y011357D01*
X010845Y011456D02*
X012082Y011456D01*
X012050Y011554D02*
X010944Y011554D01*
X011042Y011653D02*
X012050Y011653D01*
X012067Y011751D02*
X011141Y011751D01*
X011239Y011850D02*
X012107Y011850D01*
X012190Y011948D02*
X011338Y011948D01*
X011436Y012047D02*
X012351Y012047D01*
X012557Y012145D02*
X011535Y012145D01*
X011633Y012244D02*
X012656Y012244D01*
X012754Y012343D02*
X011732Y012343D01*
X011830Y012441D02*
X012853Y012441D01*
X012951Y012540D02*
X011929Y012540D01*
X012028Y012638D02*
X013050Y012638D01*
X013198Y012737D02*
X012126Y012737D01*
X012225Y012835D02*
X018350Y012835D01*
X018350Y012934D02*
X017974Y012934D01*
X018407Y012737D02*
X015002Y012737D01*
X015150Y012638D02*
X015806Y012638D01*
X015726Y012540D02*
X015249Y012540D01*
X015891Y013201D02*
X016051Y013041D01*
X016260Y012954D01*
X016486Y012954D01*
X016695Y013041D01*
X016855Y013201D01*
X016942Y013410D01*
X016942Y013636D01*
X016855Y013845D01*
X016695Y014005D01*
X016486Y014092D01*
X016260Y014092D01*
X016051Y014005D01*
X015891Y013845D01*
X015805Y013636D01*
X015805Y013410D01*
X015891Y013201D01*
X015879Y013229D02*
X012619Y013229D01*
X012520Y013131D02*
X015961Y013131D01*
X016072Y013032D02*
X012422Y013032D01*
X012323Y012934D02*
X017528Y012934D01*
X017430Y013032D02*
X016674Y013032D01*
X016785Y013131D02*
X017381Y013131D01*
X017381Y013229D02*
X016867Y013229D01*
X016908Y013328D02*
X017381Y013328D01*
X017420Y013427D02*
X016942Y013427D01*
X016942Y013525D02*
X017519Y013525D01*
X017984Y013525D02*
X018351Y013525D01*
X018449Y013624D02*
X016942Y013624D01*
X016906Y013722D02*
X019390Y013722D01*
X019385Y013821D02*
X016865Y013821D01*
X016781Y013919D02*
X019286Y013919D01*
X019188Y014018D02*
X016665Y014018D01*
X016194Y014313D02*
X018892Y014313D01*
X018990Y014215D02*
X016106Y014215D01*
X015943Y014116D02*
X019089Y014116D01*
X019486Y014313D02*
X021536Y014313D01*
X021634Y014215D02*
X019584Y014215D01*
X019683Y014116D02*
X021733Y014116D01*
X021832Y014018D02*
X019781Y014018D01*
X019810Y013919D02*
X021930Y013919D01*
X022029Y013821D02*
X019810Y013821D01*
X019810Y013722D02*
X022123Y013722D01*
X022123Y013624D02*
X022076Y013624D01*
X022543Y013624D02*
X023023Y013624D01*
X023023Y013722D02*
X022543Y013722D01*
X022543Y013821D02*
X023023Y013821D01*
X023023Y013919D02*
X022524Y013919D01*
X022425Y014018D02*
X023023Y014018D01*
X023023Y014116D02*
X022327Y014116D01*
X022228Y014215D02*
X023023Y014215D01*
X023023Y014313D02*
X022130Y014313D01*
X022031Y014412D02*
X023023Y014412D01*
X023023Y014511D02*
X021933Y014511D01*
X021834Y014609D02*
X023023Y014609D01*
X023023Y014708D02*
X021736Y014708D01*
X021637Y014806D02*
X023023Y014806D01*
X023023Y014905D02*
X021539Y014905D01*
X021440Y015003D02*
X023023Y015003D01*
X023023Y015102D02*
X021341Y015102D01*
X021243Y015200D02*
X023023Y015200D01*
X023023Y015299D02*
X021144Y015299D01*
X021113Y015397D02*
X023023Y015397D01*
X023023Y015496D02*
X021113Y015496D01*
X021158Y015594D02*
X021158Y015594D01*
X021158Y015693D02*
X021158Y015693D01*
X021158Y015792D02*
X021158Y015792D01*
X021158Y015890D02*
X021158Y015890D01*
X021158Y015989D02*
X021158Y015989D01*
X021158Y016014D02*
X021158Y016459D01*
X021071Y016459D01*
X021051Y016479D01*
X021002Y016479D01*
X021034Y016556D01*
X021034Y016710D01*
X020989Y016820D01*
X021379Y016479D01*
X021265Y016479D01*
X021245Y016459D01*
X021158Y016459D01*
X021158Y016014D01*
X021158Y016014D01*
X021158Y016087D02*
X021158Y016087D01*
X021158Y016186D02*
X021158Y016186D01*
X021158Y016284D02*
X021158Y016284D01*
X021158Y016383D02*
X021158Y016383D01*
X021003Y016481D02*
X021376Y016481D01*
X021263Y016580D02*
X021034Y016580D01*
X021034Y016678D02*
X021150Y016678D01*
X021038Y016777D02*
X021007Y016777D01*
X020646Y016633D02*
X020646Y016014D01*
X020391Y015989D02*
X020390Y015989D01*
X020390Y015890D02*
X020391Y015890D01*
X020390Y015792D02*
X020391Y015792D01*
X020390Y015693D02*
X020391Y015693D01*
X020390Y015594D02*
X020391Y015594D01*
X020693Y015496D02*
X018303Y015496D01*
X018205Y015594D02*
X018404Y015594D01*
X018350Y015693D02*
X018106Y015693D01*
X018008Y015792D02*
X018350Y015792D01*
X018350Y015890D02*
X017909Y015890D01*
X017811Y015989D02*
X018350Y015989D01*
X018350Y016087D02*
X017712Y016087D01*
X017614Y016186D02*
X018350Y016186D01*
X018350Y016284D02*
X017515Y016284D01*
X017416Y016383D02*
X018354Y016383D01*
X019111Y016383D02*
X019111Y016383D01*
X019111Y016284D02*
X019111Y016284D01*
X019111Y016186D02*
X019111Y016186D01*
X019111Y016087D02*
X019111Y016087D01*
X019111Y016014D02*
X019340Y016014D01*
X019366Y016014D01*
X019366Y016013D01*
X019340Y016013D01*
X019111Y016013D01*
X019111Y015568D01*
X019111Y016013D01*
X019111Y016013D01*
X019111Y016014D01*
X019111Y015989D02*
X019111Y015989D01*
X019111Y015890D02*
X019111Y015890D01*
X019111Y015792D02*
X019111Y015792D01*
X019111Y015693D02*
X019111Y015693D01*
X019111Y015594D02*
X019111Y015594D01*
X019367Y015594D02*
X019367Y015594D01*
X019367Y015568D02*
X019367Y016013D01*
X019367Y016013D01*
X019367Y015568D01*
X019367Y015693D02*
X019367Y015693D01*
X019367Y015792D02*
X019367Y015792D01*
X019367Y015890D02*
X019367Y015890D01*
X019367Y015989D02*
X019367Y015989D01*
X019367Y016087D02*
X019367Y016087D01*
X019367Y016186D02*
X019367Y016186D01*
X019367Y016284D02*
X019367Y016284D01*
X019367Y016383D02*
X019367Y016383D01*
X020258Y016580D02*
X017219Y016580D01*
X017318Y016481D02*
X020289Y016481D01*
X020258Y016678D02*
X010616Y016678D01*
X010715Y016580D02*
X014061Y016580D01*
X014030Y016481D02*
X011809Y016481D01*
X011904Y016383D02*
X014030Y016383D01*
X014030Y016284D02*
X012000Y016284D01*
X012096Y016186D02*
X014030Y016186D01*
X014030Y016087D02*
X012192Y016087D01*
X012288Y015989D02*
X014030Y015989D01*
X014030Y015890D02*
X012384Y015890D01*
X012479Y015792D02*
X014030Y015792D01*
X014030Y015693D02*
X012575Y015693D01*
X012671Y015594D02*
X014030Y015594D01*
X014030Y015496D02*
X012767Y015496D01*
X012863Y015397D02*
X014030Y015397D01*
X014030Y015299D02*
X012959Y015299D01*
X013055Y015200D02*
X014030Y015200D01*
X014030Y015102D02*
X013150Y015102D01*
X013612Y015003D02*
X014016Y015003D01*
X013872Y014905D02*
X013757Y014905D01*
X013744Y014215D02*
X013885Y014215D01*
X014048Y014116D02*
X013581Y014116D01*
X013260Y014116D02*
X012793Y014116D01*
X012956Y014215D02*
X013097Y014215D01*
X012951Y013919D02*
X015965Y013919D01*
X015881Y013821D02*
X013038Y013821D01*
X013078Y013722D02*
X015840Y013722D01*
X015805Y013624D02*
X013088Y013624D01*
X013080Y013525D02*
X015805Y013525D01*
X015805Y013427D02*
X013039Y013427D01*
X012955Y013328D02*
X015839Y013328D01*
X016694Y012638D02*
X019002Y012638D01*
X018851Y012540D02*
X016774Y012540D01*
X016774Y012441D02*
X018792Y012441D01*
X018770Y012343D02*
X016774Y012343D01*
X016774Y012244D02*
X018770Y012244D01*
X018770Y012145D02*
X016774Y012145D01*
X016774Y012047D02*
X018770Y012047D01*
X018770Y011948D02*
X016774Y011948D01*
X016774Y011850D02*
X018770Y011850D01*
X019100Y012322D02*
X019400Y012622D01*
X019400Y013126D01*
X019367Y013159D01*
X019620Y012638D02*
X022123Y012638D01*
X022123Y012540D02*
X019620Y012540D01*
X019530Y012441D02*
X022123Y012441D01*
X022123Y012343D02*
X019432Y012343D01*
X019430Y012244D02*
X022123Y012244D01*
X022123Y012145D02*
X019430Y012145D01*
X019430Y012047D02*
X022123Y012047D01*
X022015Y011948D02*
X019430Y011948D01*
X019430Y011850D02*
X021902Y011850D01*
X021788Y011751D02*
X021633Y011751D01*
X021367Y011751D02*
X019430Y011751D01*
X019430Y011653D02*
X020196Y011653D01*
X020097Y011554D02*
X019430Y011554D01*
X019430Y011456D02*
X020034Y011456D01*
X019993Y011357D02*
X019430Y011357D01*
X019430Y011259D02*
X020450Y011259D01*
X020450Y011357D02*
X020550Y011357D01*
X020550Y011456D02*
X020450Y011456D01*
X020450Y011554D02*
X020550Y011554D01*
X020550Y011653D02*
X020450Y011653D01*
X020804Y011653D02*
X021167Y011653D01*
X021069Y011554D02*
X020903Y011554D01*
X020966Y011456D02*
X021012Y011456D01*
X020550Y011160D02*
X020450Y011160D01*
X020450Y011061D02*
X020550Y011061D01*
X020550Y010963D02*
X020450Y010963D01*
X020450Y010864D02*
X020550Y010864D01*
X020550Y010766D02*
X020450Y010766D01*
X020242Y010766D02*
X019430Y010766D01*
X019430Y010864D02*
X020122Y010864D01*
X020044Y010963D02*
X019430Y010963D01*
X019430Y011061D02*
X020004Y011061D01*
X019980Y011160D02*
X019430Y011160D01*
X019430Y010667D02*
X023023Y010667D01*
X023023Y010569D02*
X019430Y010569D01*
X019430Y010470D02*
X023023Y010470D01*
X023023Y010372D02*
X019430Y010372D01*
X019430Y010273D02*
X023023Y010273D01*
X023023Y010175D02*
X019430Y010175D01*
X019430Y010076D02*
X023023Y010076D01*
X023683Y010076D02*
X025407Y010076D01*
X025418Y010070D02*
X025433Y010069D01*
X025448Y010063D01*
X025498Y010063D01*
X025549Y010059D01*
X025563Y010063D01*
X026355Y010063D01*
X026948Y009519D01*
X026948Y009118D01*
X027048Y009018D01*
X027839Y009018D01*
X027938Y009118D01*
X027938Y009908D01*
X027839Y010008D01*
X027392Y010008D01*
X026711Y010632D01*
X026670Y010673D01*
X026663Y010676D01*
X026658Y010681D01*
X026603Y010701D01*
X026549Y010723D01*
X026541Y010723D01*
X026534Y010726D01*
X026476Y010723D01*
X026394Y010723D01*
X026473Y010803D01*
X026473Y010983D01*
X026528Y010983D01*
X026659Y010983D01*
X026780Y011033D01*
X027425Y011678D01*
X027849Y011678D01*
X027948Y011778D01*
X027948Y012568D01*
X027849Y012668D01*
X027784Y012668D01*
X028093Y013406D01*
X028117Y013464D01*
X028143Y013526D01*
X028143Y013527D01*
X028143Y013527D01*
X028143Y013592D01*
X028143Y013658D01*
X028143Y013659D01*
X028134Y013680D01*
X028134Y014351D01*
X028171Y014388D01*
X028171Y015238D01*
X028072Y015337D01*
X027537Y015337D01*
X027438Y015238D01*
X027438Y014388D01*
X027474Y014351D01*
X027474Y013659D01*
X027474Y013638D01*
X027174Y012920D01*
X027174Y012920D01*
X027150Y012862D01*
X027124Y012800D01*
X027124Y012799D01*
X027123Y012799D01*
X027123Y012734D01*
X027123Y012669D01*
X027123Y012668D01*
X027058Y012668D01*
X026958Y012568D01*
X026958Y012145D01*
X026683Y011870D01*
X026683Y012000D01*
X026683Y014066D01*
X026683Y014240D01*
X026634Y014289D01*
X026969Y014289D01*
X027069Y014388D01*
X027069Y015238D01*
X026969Y015337D01*
X026435Y015337D01*
X026335Y015238D01*
X026335Y015143D01*
X025776Y015143D01*
X025776Y015710D01*
X025676Y015810D01*
X024590Y015810D01*
X024491Y015710D01*
X024491Y014703D01*
X024590Y014604D01*
X025270Y014604D01*
X025340Y014533D01*
X025461Y014483D01*
X026335Y014483D01*
X026335Y014388D01*
X026361Y014363D01*
X024423Y014363D01*
X024423Y018239D01*
X024373Y018360D01*
X024280Y018453D01*
X023983Y018750D01*
X024296Y018620D01*
X024433Y018620D01*
X024433Y019510D01*
X024533Y019510D01*
X024533Y018620D01*
X024670Y018620D01*
X025015Y018764D01*
X025280Y019028D01*
X025423Y019373D01*
X025423Y019510D01*
X024533Y019510D01*
X024533Y019610D01*
X025423Y019610D01*
X025423Y019747D01*
X025280Y020093D01*
X025015Y020357D01*
X024670Y020500D01*
X024533Y020500D01*
X024533Y019611D01*
X024433Y019611D01*
X024433Y020500D01*
X024296Y020500D01*
X023950Y020357D01*
X023686Y020093D01*
X023543Y019747D01*
X023543Y019610D01*
X024433Y019610D01*
X024433Y019510D01*
X023543Y019510D01*
X023543Y019373D01*
X023673Y019060D01*
X023443Y019290D01*
X023443Y020176D01*
X023446Y020183D01*
X023443Y020241D01*
X023443Y020299D01*
X023440Y020306D01*
X023440Y020314D01*
X023415Y020367D01*
X023393Y020420D01*
X023387Y020426D01*
X023384Y020433D01*
X023341Y020472D01*
X023300Y020513D01*
X023293Y020516D01*
X023044Y020742D01*
X023044Y021383D01*
X022944Y021483D01*
X022331Y021483D01*
X022231Y021383D01*
X022231Y020258D01*
X022331Y020158D01*
X022705Y020158D01*
X022783Y020087D01*
X022783Y019219D01*
X022783Y019087D01*
X022833Y018966D01*
X023763Y018036D01*
X023763Y014300D01*
X023703Y014240D01*
X023703Y014066D01*
X023703Y011826D01*
X023826Y011703D01*
X023853Y011703D01*
X023853Y011363D01*
X024193Y011363D01*
X024193Y011263D01*
X023853Y011263D01*
X023853Y010811D01*
X023941Y010723D01*
X024193Y010723D01*
X024193Y011263D01*
X024293Y011263D01*
X024293Y010723D01*
X024545Y010723D01*
X024633Y010811D01*
X024633Y011263D01*
X024293Y011263D01*
X024293Y011363D01*
X024633Y011363D01*
X024633Y011703D01*
X024663Y011703D01*
X024663Y010706D01*
X024786Y010583D01*
X024925Y010583D01*
X025228Y010220D01*
X025233Y010206D01*
X025269Y010170D01*
X025302Y010131D01*
X025315Y010124D01*
X025326Y010113D01*
X025373Y010094D01*
X025418Y010070D01*
X025265Y010175D02*
X023683Y010175D01*
X023683Y010273D02*
X025184Y010273D01*
X025101Y010372D02*
X023683Y010372D01*
X023683Y010470D02*
X025019Y010470D01*
X024937Y010569D02*
X023683Y010569D01*
X023683Y010667D02*
X024702Y010667D01*
X024663Y010766D02*
X024588Y010766D01*
X024633Y010864D02*
X024663Y010864D01*
X024663Y010963D02*
X024633Y010963D01*
X024633Y011061D02*
X024663Y011061D01*
X024663Y011160D02*
X024633Y011160D01*
X024633Y011259D02*
X024663Y011259D01*
X024663Y011357D02*
X024293Y011357D01*
X024293Y011259D02*
X024193Y011259D01*
X024193Y011357D02*
X023683Y011357D01*
X023683Y011259D02*
X023853Y011259D01*
X023853Y011160D02*
X023683Y011160D01*
X023683Y011061D02*
X023853Y011061D01*
X023853Y010963D02*
X023683Y010963D01*
X023683Y010864D02*
X023853Y010864D01*
X023898Y010766D02*
X023683Y010766D01*
X024193Y010766D02*
X024293Y010766D01*
X024293Y010864D02*
X024193Y010864D01*
X024193Y010963D02*
X024293Y010963D01*
X024293Y011061D02*
X024193Y011061D01*
X024193Y011160D02*
X024293Y011160D01*
X023853Y011456D02*
X023683Y011456D01*
X023683Y011554D02*
X023853Y011554D01*
X023853Y011653D02*
X023683Y011653D01*
X023683Y011751D02*
X023778Y011751D01*
X023703Y011850D02*
X023683Y011850D01*
X023683Y011948D02*
X023703Y011948D01*
X023703Y012047D02*
X023683Y012047D01*
X023683Y012145D02*
X023703Y012145D01*
X023703Y012244D02*
X023683Y012244D01*
X023683Y012343D02*
X023703Y012343D01*
X023703Y012441D02*
X023683Y012441D01*
X023683Y012540D02*
X023703Y012540D01*
X023703Y012638D02*
X023683Y012638D01*
X023683Y012737D02*
X023703Y012737D01*
X023703Y012835D02*
X023683Y012835D01*
X023683Y012934D02*
X023703Y012934D01*
X023703Y013032D02*
X023683Y013032D01*
X023683Y013131D02*
X023703Y013131D01*
X023703Y013229D02*
X023683Y013229D01*
X023683Y013328D02*
X023703Y013328D01*
X023703Y013427D02*
X023683Y013427D01*
X023683Y013525D02*
X023703Y013525D01*
X023703Y013624D02*
X023683Y013624D01*
X023683Y013722D02*
X023703Y013722D01*
X023703Y013821D02*
X023683Y013821D01*
X023683Y013919D02*
X023703Y013919D01*
X023703Y014018D02*
X023683Y014018D01*
X023683Y014116D02*
X023703Y014116D01*
X023703Y014215D02*
X023683Y014215D01*
X023683Y014313D02*
X023763Y014313D01*
X023763Y014412D02*
X023683Y014412D01*
X023683Y014511D02*
X023763Y014511D01*
X023763Y014609D02*
X023683Y014609D01*
X023683Y014708D02*
X023763Y014708D01*
X023763Y014806D02*
X023683Y014806D01*
X023683Y014905D02*
X023763Y014905D01*
X023763Y015003D02*
X023683Y015003D01*
X023683Y015102D02*
X023763Y015102D01*
X023763Y015200D02*
X023683Y015200D01*
X023683Y015299D02*
X023763Y015299D01*
X023763Y015397D02*
X023683Y015397D01*
X023683Y015496D02*
X023763Y015496D01*
X023763Y015594D02*
X023683Y015594D01*
X023683Y015693D02*
X023763Y015693D01*
X023763Y015792D02*
X023683Y015792D01*
X023683Y015890D02*
X023763Y015890D01*
X023763Y015989D02*
X023683Y015989D01*
X023683Y016087D02*
X023763Y016087D01*
X023763Y016186D02*
X023683Y016186D01*
X023683Y016284D02*
X023763Y016284D01*
X023763Y016383D02*
X023683Y016383D01*
X023683Y016481D02*
X023763Y016481D01*
X023763Y016580D02*
X023683Y016580D01*
X023683Y016678D02*
X023763Y016678D01*
X023763Y016777D02*
X023683Y016777D01*
X023683Y016876D02*
X023763Y016876D01*
X023763Y016974D02*
X023683Y016974D01*
X023683Y017073D02*
X023763Y017073D01*
X023763Y017171D02*
X023683Y017171D01*
X023683Y017270D02*
X023763Y017270D01*
X023763Y017368D02*
X023683Y017368D01*
X023683Y017467D02*
X023763Y017467D01*
X023763Y017565D02*
X023683Y017565D01*
X023683Y017664D02*
X023763Y017664D01*
X023763Y017762D02*
X023683Y017762D01*
X023683Y017861D02*
X023763Y017861D01*
X023763Y017960D02*
X023658Y017960D01*
X023595Y018058D02*
X023742Y018058D01*
X023643Y018157D02*
X023496Y018157D01*
X023544Y018255D02*
X023398Y018255D01*
X023446Y018354D02*
X023299Y018354D01*
X023347Y018452D02*
X023201Y018452D01*
X023249Y018551D02*
X023102Y018551D01*
X023150Y018649D02*
X023004Y018649D01*
X023052Y018748D02*
X022905Y018748D01*
X022953Y018846D02*
X022807Y018846D01*
X022855Y018945D02*
X022708Y018945D01*
X022801Y019044D02*
X022609Y019044D01*
X022511Y019142D02*
X022783Y019142D01*
X022783Y019241D02*
X022412Y019241D01*
X022408Y019339D02*
X022783Y019339D01*
X022783Y019438D02*
X022394Y019438D01*
X022117Y019536D02*
X022783Y019536D01*
X022783Y019635D02*
X022018Y019635D01*
X021983Y019733D02*
X022783Y019733D01*
X022783Y019832D02*
X021983Y019832D01*
X021983Y019930D02*
X022783Y019930D01*
X022783Y020029D02*
X021983Y020029D01*
X021983Y020127D02*
X022739Y020127D01*
X022263Y020226D02*
X022028Y020226D01*
X022059Y020325D02*
X022231Y020325D01*
X022231Y020423D02*
X022059Y020423D01*
X022059Y020522D02*
X022231Y020522D01*
X022231Y020620D02*
X022059Y020620D01*
X022059Y020719D02*
X022231Y020719D01*
X022231Y020817D02*
X022059Y020817D01*
X022059Y020916D02*
X022231Y020916D01*
X022231Y021014D02*
X022059Y021014D01*
X022059Y021113D02*
X022231Y021113D01*
X022231Y021211D02*
X022059Y021211D01*
X022059Y021310D02*
X022231Y021310D01*
X022257Y021409D02*
X022034Y021409D01*
X021653Y020820D02*
X021559Y020727D01*
X021247Y020719D02*
X021075Y020719D01*
X021075Y020817D02*
X021247Y020817D01*
X021247Y020916D02*
X021075Y020916D01*
X021075Y021014D02*
X021247Y021014D01*
X021247Y021113D02*
X021075Y021113D01*
X021075Y021211D02*
X021247Y021211D01*
X021247Y021310D02*
X021075Y021310D01*
X021075Y021383D02*
X020976Y021483D01*
X020362Y021483D01*
X020263Y021383D01*
X020263Y020729D01*
X019873Y020340D01*
X019823Y020219D01*
X019823Y020087D01*
X019823Y019600D01*
X019765Y019542D01*
X019765Y018965D01*
X019865Y018865D01*
X020442Y018865D01*
X020480Y018903D01*
X020480Y018709D01*
X020568Y018621D01*
X020934Y018621D01*
X020934Y019036D01*
X021034Y019036D01*
X021034Y018621D01*
X021400Y018621D01*
X021488Y018709D01*
X021488Y019036D01*
X021034Y019036D01*
X021034Y019136D01*
X020934Y019136D01*
X020934Y019551D01*
X020568Y019551D01*
X020541Y019525D01*
X020541Y019542D01*
X020483Y019600D01*
X020483Y020016D01*
X020625Y020158D01*
X020976Y020158D01*
X021075Y020258D01*
X021075Y021383D01*
X021050Y021409D02*
X021273Y021409D01*
X020550Y021706D02*
X020603Y021834D01*
X020603Y021972D01*
X020550Y022100D01*
X020452Y022197D01*
X020325Y022250D01*
X020186Y022250D01*
X020059Y022197D01*
X019961Y022100D01*
X019908Y021972D01*
X019908Y021834D01*
X019961Y021706D01*
X020059Y021609D01*
X020186Y021556D01*
X020325Y021556D01*
X020452Y021609D01*
X020550Y021706D01*
X020548Y021704D02*
X022759Y021704D01*
X022757Y021706D02*
X022854Y021609D01*
X022982Y021556D01*
X023120Y021556D01*
X023247Y021609D01*
X023345Y021706D01*
X023398Y021834D01*
X023398Y021972D01*
X023345Y022100D01*
X023247Y022197D01*
X023120Y022250D01*
X022982Y022250D01*
X022854Y022197D01*
X020453Y022197D01*
X020550Y022098D02*
X022756Y022098D01*
X022757Y022100D02*
X022704Y021972D01*
X022704Y021834D01*
X022757Y021706D01*
X022717Y021803D02*
X020590Y021803D01*
X020603Y021901D02*
X022704Y021901D01*
X022715Y022000D02*
X020591Y022000D01*
X020445Y021606D02*
X022862Y021606D01*
X023018Y021409D02*
X025671Y021409D01*
X025769Y021507D02*
X000373Y021507D01*
X000373Y021409D02*
X020288Y021409D01*
X020263Y021310D02*
X000373Y021310D01*
X000373Y021211D02*
X020263Y021211D01*
X020263Y021113D02*
X019287Y021113D01*
X019492Y021014D02*
X020263Y021014D01*
X020263Y020916D02*
X019590Y020916D01*
X019689Y020817D02*
X020263Y020817D01*
X020252Y020719D02*
X019735Y020719D01*
X019776Y020620D02*
X020154Y020620D01*
X020055Y020522D02*
X019817Y020522D01*
X019823Y020423D02*
X019957Y020423D01*
X019867Y020325D02*
X019823Y020325D01*
X019823Y020226D02*
X019826Y020226D01*
X019823Y020127D02*
X019801Y020127D01*
X019823Y020029D02*
X019761Y020029D01*
X019720Y019930D02*
X019823Y019930D01*
X019823Y019832D02*
X019652Y019832D01*
X019553Y019733D02*
X019823Y019733D01*
X019823Y019635D02*
X019436Y019635D01*
X019198Y019536D02*
X019765Y019536D01*
X019765Y019438D02*
X017782Y019438D01*
X017876Y019339D02*
X019765Y019339D01*
X019765Y019241D02*
X017970Y019241D01*
X018064Y019142D02*
X019765Y019142D01*
X019765Y019044D02*
X018159Y019044D01*
X018253Y018945D02*
X019785Y018945D01*
X020480Y018846D02*
X018347Y018846D01*
X018441Y018748D02*
X020480Y018748D01*
X020539Y018649D02*
X018536Y018649D01*
X018630Y018551D02*
X022169Y018551D01*
X022070Y018649D02*
X021429Y018649D01*
X021488Y018748D02*
X021579Y018748D01*
X021517Y018846D02*
X021488Y018846D01*
X021488Y018945D02*
X021517Y018945D01*
X021517Y019044D02*
X021034Y019044D01*
X021034Y019142D02*
X020934Y019142D01*
X020934Y019241D02*
X021034Y019241D01*
X021034Y019339D02*
X020934Y019339D01*
X020934Y019438D02*
X021034Y019438D01*
X021034Y019536D02*
X020934Y019536D01*
X020553Y019536D02*
X020541Y019536D01*
X020483Y019635D02*
X021309Y019635D01*
X021323Y019733D02*
X020483Y019733D01*
X020483Y019832D02*
X021323Y019832D01*
X021323Y019930D02*
X020483Y019930D01*
X020496Y020029D02*
X021323Y020029D01*
X021323Y020127D02*
X020594Y020127D01*
X021043Y020226D02*
X021279Y020226D01*
X021247Y020325D02*
X021075Y020325D01*
X021075Y020423D02*
X021247Y020423D01*
X021247Y020522D02*
X021075Y020522D01*
X021075Y020620D02*
X021247Y020620D01*
X020067Y021606D02*
X000373Y021606D01*
X000373Y021704D02*
X019964Y021704D01*
X019921Y021803D02*
X000373Y021803D01*
X000373Y021901D02*
X019908Y021901D01*
X019920Y022000D02*
X000373Y022000D01*
X000373Y022098D02*
X019961Y022098D01*
X020058Y022197D02*
X000373Y022197D01*
X000373Y022295D02*
X028933Y022295D01*
X028933Y022197D02*
X023248Y022197D01*
X023346Y022098D02*
X028933Y022098D01*
X028933Y022000D02*
X023387Y022000D01*
X023398Y021901D02*
X028933Y021901D01*
X028933Y021803D02*
X023385Y021803D01*
X023343Y021704D02*
X028933Y021704D01*
X028933Y021606D02*
X026704Y021606D01*
X026866Y021538D02*
X026520Y021682D01*
X026383Y021682D01*
X026383Y020792D01*
X026283Y020792D01*
X026283Y021682D01*
X026146Y021682D01*
X025801Y021538D01*
X025536Y021274D01*
X025393Y020929D01*
X025393Y020791D01*
X026283Y020791D01*
X026283Y020692D01*
X025393Y020692D01*
X025393Y020555D01*
X025536Y020209D01*
X025801Y019945D01*
X026146Y019802D01*
X026283Y019802D01*
X026283Y020691D01*
X026383Y020691D01*
X026383Y019802D01*
X026520Y019802D01*
X026866Y019945D01*
X027130Y020209D01*
X027273Y020555D01*
X027273Y020692D01*
X026383Y020692D01*
X026383Y020791D01*
X027273Y020791D01*
X027273Y020929D01*
X027130Y021274D01*
X026866Y021538D01*
X026897Y021507D02*
X028933Y021507D01*
X028933Y021409D02*
X026996Y021409D01*
X027094Y021310D02*
X028933Y021310D01*
X028933Y021211D02*
X027156Y021211D01*
X027197Y021113D02*
X028933Y021113D01*
X028933Y021014D02*
X027238Y021014D01*
X027273Y020916D02*
X028933Y020916D01*
X028933Y020817D02*
X027273Y020817D01*
X027273Y020620D02*
X028933Y020620D01*
X028933Y020522D02*
X027260Y020522D01*
X027219Y020423D02*
X028933Y020423D01*
X028933Y020325D02*
X027178Y020325D01*
X027137Y020226D02*
X028933Y020226D01*
X028933Y020127D02*
X027049Y020127D01*
X026950Y020029D02*
X028933Y020029D01*
X028933Y019930D02*
X026831Y019930D01*
X026593Y019832D02*
X028933Y019832D01*
X028933Y019733D02*
X025423Y019733D01*
X025423Y019635D02*
X028933Y019635D01*
X028933Y019536D02*
X024533Y019536D01*
X024533Y019438D02*
X024433Y019438D01*
X024433Y019536D02*
X023443Y019536D01*
X023443Y019438D02*
X023543Y019438D01*
X023557Y019339D02*
X023443Y019339D01*
X023492Y019241D02*
X023598Y019241D01*
X023591Y019142D02*
X023639Y019142D01*
X023985Y018748D02*
X023988Y018748D01*
X024084Y018649D02*
X024226Y018649D01*
X024182Y018551D02*
X025373Y018551D01*
X025373Y018570D02*
X025373Y018188D01*
X025474Y017946D01*
X025270Y017742D01*
X024590Y017742D01*
X024491Y017643D01*
X024491Y016636D01*
X024590Y016536D01*
X025676Y016536D01*
X025776Y016636D01*
X025776Y017315D01*
X025957Y017496D01*
X026142Y017419D01*
X026524Y017419D01*
X026877Y017566D01*
X027147Y017836D01*
X027293Y018188D01*
X027293Y018570D01*
X027147Y018923D01*
X026877Y019193D01*
X026524Y019339D01*
X026142Y019339D01*
X025409Y019339D01*
X025423Y019438D02*
X028933Y019438D01*
X028933Y019339D02*
X026525Y019339D01*
X026763Y019241D02*
X028933Y019241D01*
X028933Y019142D02*
X026928Y019142D01*
X027027Y019044D02*
X028933Y019044D01*
X028933Y018945D02*
X027125Y018945D01*
X027179Y018846D02*
X028933Y018846D01*
X028933Y018748D02*
X027220Y018748D01*
X027261Y018649D02*
X028933Y018649D01*
X028933Y018551D02*
X027293Y018551D01*
X027293Y018452D02*
X028933Y018452D01*
X028933Y018354D02*
X027293Y018354D01*
X027293Y018255D02*
X028933Y018255D01*
X028933Y018157D02*
X027280Y018157D01*
X027239Y018058D02*
X028933Y018058D01*
X028933Y017960D02*
X027198Y017960D01*
X027158Y017861D02*
X028933Y017861D01*
X028933Y017762D02*
X027074Y017762D01*
X026975Y017664D02*
X028933Y017664D01*
X028933Y017565D02*
X026877Y017565D01*
X026639Y017467D02*
X028933Y017467D01*
X028933Y017368D02*
X027990Y017368D01*
X028114Y017317D02*
X027813Y017442D01*
X027487Y017442D01*
X027185Y017317D01*
X026955Y017086D01*
X026830Y016785D01*
X026830Y016459D01*
X026955Y016157D01*
X027185Y015927D01*
X027487Y015802D01*
X027813Y015802D01*
X028114Y015927D01*
X028345Y016157D01*
X028470Y016459D01*
X028470Y016785D01*
X028345Y017086D01*
X028114Y017317D01*
X028162Y017270D02*
X028933Y017270D01*
X028933Y017171D02*
X028260Y017171D01*
X028351Y017073D02*
X028933Y017073D01*
X028933Y016974D02*
X028392Y016974D01*
X028432Y016876D02*
X028933Y016876D01*
X028933Y016777D02*
X028470Y016777D01*
X028470Y016678D02*
X028933Y016678D01*
X028933Y016580D02*
X028470Y016580D01*
X028470Y016481D02*
X028933Y016481D01*
X028933Y016383D02*
X028439Y016383D01*
X028398Y016284D02*
X028933Y016284D01*
X028933Y016186D02*
X028357Y016186D01*
X028275Y016087D02*
X028933Y016087D01*
X028933Y015989D02*
X028177Y015989D01*
X028026Y015890D02*
X028933Y015890D01*
X028933Y015792D02*
X025694Y015792D01*
X025776Y015693D02*
X028933Y015693D01*
X028933Y015594D02*
X025776Y015594D01*
X025776Y015496D02*
X028933Y015496D01*
X028933Y015397D02*
X025776Y015397D01*
X025776Y015299D02*
X026396Y015299D01*
X026335Y015200D02*
X025776Y015200D01*
X025395Y014511D02*
X024423Y014511D01*
X024423Y014609D02*
X024585Y014609D01*
X024491Y014708D02*
X024423Y014708D01*
X024423Y014806D02*
X024491Y014806D01*
X024491Y014905D02*
X024423Y014905D01*
X024423Y015003D02*
X024491Y015003D01*
X024491Y015102D02*
X024423Y015102D01*
X024423Y015200D02*
X024491Y015200D01*
X024491Y015299D02*
X024423Y015299D01*
X024423Y015397D02*
X024491Y015397D01*
X024491Y015496D02*
X024423Y015496D01*
X024423Y015594D02*
X024491Y015594D01*
X024491Y015693D02*
X024423Y015693D01*
X024423Y015792D02*
X024572Y015792D01*
X024423Y015890D02*
X027273Y015890D01*
X027123Y015989D02*
X024423Y015989D01*
X024423Y016087D02*
X027025Y016087D01*
X026943Y016186D02*
X024423Y016186D01*
X024423Y016284D02*
X026902Y016284D01*
X026861Y016383D02*
X024423Y016383D01*
X024423Y016481D02*
X026830Y016481D01*
X026830Y016580D02*
X025720Y016580D01*
X025776Y016678D02*
X026830Y016678D01*
X026830Y016777D02*
X025776Y016777D01*
X025776Y016876D02*
X026868Y016876D01*
X026908Y016974D02*
X025776Y016974D01*
X025776Y017073D02*
X026949Y017073D01*
X027040Y017171D02*
X025776Y017171D01*
X025776Y017270D02*
X027138Y017270D01*
X027310Y017368D02*
X025829Y017368D01*
X025927Y017467D02*
X026028Y017467D01*
X025468Y017960D02*
X024423Y017960D01*
X024423Y018058D02*
X025427Y018058D01*
X025386Y018157D02*
X024423Y018157D01*
X024416Y018255D02*
X025373Y018255D01*
X025373Y018354D02*
X024376Y018354D01*
X024281Y018452D02*
X025373Y018452D01*
X025373Y018570D02*
X025519Y018923D01*
X025789Y019193D01*
X026142Y019339D01*
X025904Y019241D02*
X025368Y019241D01*
X025327Y019142D02*
X025738Y019142D01*
X025640Y019044D02*
X025286Y019044D01*
X025197Y018945D02*
X025541Y018945D01*
X025488Y018846D02*
X025098Y018846D01*
X024977Y018748D02*
X025447Y018748D01*
X025406Y018649D02*
X024739Y018649D01*
X024533Y018649D02*
X024433Y018649D01*
X024433Y018748D02*
X024533Y018748D01*
X024533Y018846D02*
X024433Y018846D01*
X024433Y018945D02*
X024533Y018945D01*
X024533Y019044D02*
X024433Y019044D01*
X024433Y019142D02*
X024533Y019142D01*
X024533Y019241D02*
X024433Y019241D01*
X024433Y019339D02*
X024533Y019339D01*
X024533Y019635D02*
X024433Y019635D01*
X024433Y019733D02*
X024533Y019733D01*
X024533Y019832D02*
X024433Y019832D01*
X024433Y019930D02*
X024533Y019930D01*
X024533Y020029D02*
X024433Y020029D01*
X024433Y020127D02*
X024533Y020127D01*
X024533Y020226D02*
X024433Y020226D01*
X024433Y020325D02*
X024533Y020325D01*
X024533Y020423D02*
X024433Y020423D01*
X024109Y020423D02*
X023390Y020423D01*
X023435Y020325D02*
X023918Y020325D01*
X023819Y020226D02*
X023444Y020226D01*
X023443Y020127D02*
X023721Y020127D01*
X023659Y020029D02*
X023443Y020029D01*
X023443Y019930D02*
X023619Y019930D01*
X023578Y019832D02*
X023443Y019832D01*
X023443Y019733D02*
X023543Y019733D01*
X023543Y019635D02*
X023443Y019635D01*
X023286Y020522D02*
X025407Y020522D01*
X025393Y020620D02*
X023178Y020620D01*
X023070Y020719D02*
X026283Y020719D01*
X026283Y020817D02*
X026383Y020817D01*
X026383Y020719D02*
X028933Y020719D01*
X028933Y022394D02*
X000373Y022394D01*
X000373Y017565D02*
X002643Y017565D01*
X002643Y017467D02*
X000373Y017467D01*
X000373Y017368D02*
X001310Y017368D01*
X001185Y017317D02*
X000955Y017086D01*
X000830Y016785D01*
X000830Y016459D01*
X000955Y016157D01*
X001185Y015927D01*
X001487Y015802D01*
X001813Y015802D01*
X002114Y015927D01*
X002345Y016157D01*
X002470Y016459D01*
X002470Y016785D01*
X002345Y017086D01*
X002114Y017317D01*
X001813Y017442D01*
X001487Y017442D01*
X001185Y017317D01*
X001138Y017270D02*
X000373Y017270D01*
X000373Y017171D02*
X001040Y017171D01*
X000949Y017073D02*
X000373Y017073D01*
X000373Y016974D02*
X000908Y016974D01*
X000868Y016876D02*
X000373Y016876D01*
X000373Y016777D02*
X000830Y016777D01*
X000830Y016678D02*
X000373Y016678D01*
X000373Y016580D02*
X000830Y016580D01*
X000830Y016481D02*
X000373Y016481D01*
X000373Y016383D02*
X000861Y016383D01*
X000902Y016284D02*
X000373Y016284D01*
X000373Y016186D02*
X000943Y016186D01*
X001025Y016087D02*
X000373Y016087D01*
X000373Y015989D02*
X001123Y015989D01*
X001273Y015890D02*
X000373Y015890D01*
X000373Y015792D02*
X002803Y015792D01*
X002803Y015890D02*
X002026Y015890D01*
X002177Y015989D02*
X002803Y015989D01*
X002803Y016087D02*
X002275Y016087D01*
X002357Y016186D02*
X002803Y016186D01*
X002803Y016284D02*
X002398Y016284D01*
X002439Y016383D02*
X002803Y016383D01*
X002803Y016481D02*
X002470Y016481D01*
X002470Y016580D02*
X002803Y016580D01*
X002803Y016678D02*
X002470Y016678D01*
X002470Y016777D02*
X002803Y016777D01*
X002803Y016876D02*
X002432Y016876D01*
X002392Y016974D02*
X002803Y016974D01*
X002803Y017073D02*
X002351Y017073D01*
X002260Y017171D02*
X002803Y017171D01*
X002713Y017270D02*
X002162Y017270D01*
X001990Y017368D02*
X002664Y017368D01*
X002803Y015693D02*
X000373Y015693D01*
X000373Y015594D02*
X002803Y015594D01*
X002803Y015496D02*
X000373Y015496D01*
X000373Y013229D02*
X001506Y013229D01*
X001426Y013131D02*
X000373Y013131D01*
X000373Y013032D02*
X001386Y013032D01*
X001383Y012934D02*
X000373Y012934D01*
X000373Y012835D02*
X001402Y012835D01*
X001446Y012737D02*
X000373Y012737D01*
X000373Y012638D02*
X001493Y012638D01*
X001356Y012540D02*
X000373Y012540D01*
X000373Y012441D02*
X001268Y012441D01*
X001227Y012343D02*
X000373Y012343D01*
X000373Y012244D02*
X001193Y012244D01*
X001193Y012145D02*
X000373Y012145D01*
X000373Y012047D02*
X001193Y012047D01*
X001234Y011948D02*
X000373Y011948D01*
X000373Y011850D02*
X001274Y011850D01*
X001371Y011751D02*
X000373Y011751D01*
X000373Y011653D02*
X001529Y011653D01*
X001371Y011554D02*
X000373Y011554D01*
X000373Y011456D02*
X001274Y011456D01*
X001233Y011357D02*
X000373Y011357D01*
X000373Y011259D02*
X001193Y011259D01*
X001193Y011160D02*
X000373Y011160D01*
X000373Y011061D02*
X001193Y011061D01*
X001227Y010963D02*
X000373Y010963D01*
X000373Y010864D02*
X001268Y010864D01*
X001357Y010766D02*
X000373Y010766D01*
X000373Y010667D02*
X001403Y010667D01*
X001403Y010569D02*
X000373Y010569D01*
X000373Y010470D02*
X001403Y010470D01*
X001403Y010372D02*
X000373Y010372D01*
X000373Y010273D02*
X001403Y010273D01*
X001294Y010175D02*
X000373Y010175D01*
X000373Y010076D02*
X001209Y010076D01*
X001209Y009978D02*
X000373Y009978D01*
X000373Y009879D02*
X001209Y009879D01*
X001209Y009780D02*
X000373Y009780D01*
X000373Y009682D02*
X001209Y009682D01*
X001209Y009583D02*
X000373Y009583D01*
X000373Y009485D02*
X001209Y009485D01*
X001209Y009386D02*
X000373Y009386D01*
X000373Y009288D02*
X001240Y009288D01*
X001214Y008992D02*
X000373Y008992D01*
X000373Y008894D02*
X001209Y008894D01*
X001209Y008795D02*
X000373Y008795D01*
X000373Y008696D02*
X001209Y008696D01*
X001209Y008598D02*
X000373Y008598D01*
X000373Y008499D02*
X001209Y008499D01*
X001209Y008401D02*
X000373Y008401D01*
X000373Y008302D02*
X001209Y008302D01*
X001222Y008204D02*
X000373Y008204D01*
X002226Y009288D02*
X002240Y009288D01*
X002683Y006627D02*
X002783Y006627D01*
X002783Y006529D02*
X002683Y006529D01*
X002683Y006430D02*
X002783Y006430D01*
X003780Y005740D02*
X000373Y005740D01*
X000373Y005642D02*
X003780Y005642D01*
X003780Y005346D02*
X002135Y005346D01*
X002234Y005247D02*
X003780Y005247D01*
X003780Y005149D02*
X002332Y005149D01*
X002381Y005050D02*
X003780Y005050D01*
X003780Y004952D02*
X002422Y004952D01*
X002462Y004853D02*
X003780Y004853D01*
X003780Y004755D02*
X002470Y004755D01*
X002470Y004656D02*
X003780Y004656D01*
X003780Y004558D02*
X002470Y004558D01*
X002449Y004459D02*
X003780Y004459D01*
X003780Y004361D02*
X002409Y004361D01*
X002368Y004262D02*
X003780Y004262D01*
X003780Y004163D02*
X002301Y004163D01*
X002203Y004065D02*
X003846Y004065D01*
X003945Y003966D02*
X002090Y003966D01*
X001852Y003868D02*
X004043Y003868D01*
X005000Y005222D02*
X005001Y005222D01*
X006500Y005222D01*
X006900Y005622D01*
X007100Y006822D02*
X009733Y006822D01*
X009800Y006889D01*
X009800Y006922D01*
X009800Y006889D02*
X009810Y006879D01*
X009753Y006622D02*
X009810Y006564D01*
X009797Y005922D02*
X008800Y005922D01*
X008600Y005722D01*
X008600Y003522D01*
X008958Y003671D02*
X010493Y003671D01*
X010493Y003769D02*
X008901Y003769D01*
X008820Y003868D02*
X010493Y003868D01*
X010493Y003966D02*
X008820Y003966D01*
X008820Y004065D02*
X008859Y004065D01*
X009112Y004065D02*
X009150Y004065D01*
X009150Y004163D02*
X009112Y004163D01*
X009112Y004262D02*
X009150Y004262D01*
X009150Y004361D02*
X009112Y004361D01*
X009150Y004459D02*
X010493Y004459D01*
X010493Y004361D02*
X009602Y004361D01*
X009562Y004262D02*
X010493Y004262D01*
X010493Y004163D02*
X009502Y004163D01*
X009404Y004065D02*
X010493Y004065D01*
X010493Y004558D02*
X009606Y004558D01*
X009566Y004656D02*
X010201Y004656D01*
X010138Y004755D02*
X009512Y004755D01*
X009414Y004853D02*
X010138Y004853D01*
X010138Y004952D02*
X008820Y004952D01*
X008820Y005050D02*
X008845Y005050D01*
X008849Y004853D02*
X008820Y004853D01*
X009112Y004853D02*
X009150Y004853D01*
X009150Y004755D02*
X009112Y004755D01*
X009112Y004656D02*
X009150Y004656D01*
X009150Y004558D02*
X009112Y004558D01*
X009417Y005050D02*
X010138Y005050D01*
X010138Y005149D02*
X009516Y005149D01*
X009577Y005247D02*
X010138Y005247D01*
X010137Y005346D02*
X010140Y005346D01*
X010298Y005619D02*
X010300Y005622D01*
X010393Y004952D02*
X010403Y004952D01*
X010393Y004853D02*
X010403Y004853D01*
X010393Y004755D02*
X010403Y004755D01*
X010393Y004656D02*
X010403Y004656D01*
X010713Y005032D02*
X010713Y001934D01*
X010000Y001221D01*
X010486Y001010D02*
X010514Y001010D01*
X010560Y000912D02*
X010440Y000912D01*
X010341Y000813D02*
X010659Y000813D01*
X010838Y000714D02*
X010161Y000714D01*
X009838Y000714D02*
X009161Y000714D01*
X009341Y000813D02*
X009659Y000813D01*
X009560Y000912D02*
X009440Y000912D01*
X009486Y001010D02*
X009514Y001010D01*
X009498Y001404D02*
X009502Y001404D01*
X009543Y001503D02*
X009457Y001503D01*
X009369Y001601D02*
X009631Y001601D01*
X009771Y001700D02*
X009229Y001700D01*
X008771Y001700D02*
X008229Y001700D01*
X008369Y001601D02*
X008631Y001601D01*
X008543Y001503D02*
X008457Y001503D01*
X008498Y001404D02*
X008502Y001404D01*
X008784Y003178D02*
X010493Y003178D01*
X010493Y003277D02*
X008904Y003277D01*
X008959Y003375D02*
X010493Y003375D01*
X010493Y003474D02*
X008988Y003474D01*
X008988Y003572D02*
X010493Y003572D01*
X011562Y003572D02*
X015580Y003572D01*
X015580Y003474D02*
X011562Y003474D01*
X011562Y003375D02*
X015580Y003375D01*
X015580Y003277D02*
X011562Y003277D01*
X011562Y003178D02*
X015580Y003178D01*
X015580Y003079D02*
X011562Y003079D01*
X011562Y002981D02*
X015580Y002981D01*
X015580Y002882D02*
X011562Y002882D01*
X011562Y002784D02*
X015580Y002784D01*
X015580Y002685D02*
X011562Y002685D01*
X011562Y002587D02*
X015580Y002587D01*
X015580Y002488D02*
X011562Y002488D01*
X011562Y002390D02*
X015580Y002390D01*
X015888Y001798D02*
X019974Y001798D01*
X019876Y001897D02*
X019686Y001897D01*
X019785Y001996D02*
X019832Y001996D01*
X020200Y002122D02*
X020200Y001822D01*
X020300Y001722D01*
X022500Y001722D01*
X023000Y001222D01*
X022617Y000912D02*
X022383Y000912D01*
X022481Y001010D02*
X022519Y001010D01*
X022510Y001109D02*
X022490Y001109D01*
X022490Y001207D02*
X022510Y001207D01*
X022510Y001306D02*
X022490Y001306D01*
X022490Y001404D02*
X022506Y001404D01*
X022533Y001996D02*
X022467Y001996D01*
X022490Y002094D02*
X022510Y002094D01*
X022510Y002193D02*
X022490Y002193D01*
X022490Y002291D02*
X022510Y002291D01*
X022510Y002390D02*
X022490Y002390D01*
X022426Y002488D02*
X022574Y002488D01*
X022672Y002587D02*
X022328Y002587D01*
X022229Y002685D02*
X022771Y002685D01*
X021771Y002685D02*
X021229Y002685D01*
X021328Y002587D02*
X021672Y002587D01*
X021574Y002488D02*
X021426Y002488D01*
X021490Y002390D02*
X021510Y002390D01*
X021510Y002291D02*
X021490Y002291D01*
X021490Y002193D02*
X021510Y002193D01*
X021510Y002094D02*
X021490Y002094D01*
X021467Y001996D02*
X021533Y001996D01*
X021510Y001404D02*
X021490Y001404D01*
X021490Y001306D02*
X021510Y001306D01*
X021510Y001207D02*
X021490Y001207D01*
X021490Y001109D02*
X021510Y001109D01*
X021519Y001010D02*
X021481Y001010D01*
X021383Y000912D02*
X021617Y000912D01*
X021716Y000813D02*
X021284Y000813D01*
X022284Y000813D02*
X022716Y000813D01*
X024313Y001601D02*
X024715Y001601D01*
X024616Y001503D02*
X024412Y001503D01*
X024490Y001404D02*
X024530Y001404D01*
X024530Y001306D02*
X024490Y001306D01*
X025467Y001996D02*
X025533Y001996D01*
X025510Y002094D02*
X025490Y002094D01*
X026270Y001798D02*
X026730Y001798D01*
X026632Y001897D02*
X026368Y001897D01*
X026467Y001996D02*
X026533Y001996D01*
X026510Y002094D02*
X026490Y002094D01*
X026490Y002193D02*
X026510Y002193D01*
X026510Y002291D02*
X026490Y002291D01*
X026490Y002390D02*
X026510Y002390D01*
X026574Y002488D02*
X026426Y002488D01*
X026328Y002587D02*
X026672Y002587D01*
X026625Y002685D02*
X026229Y002685D01*
X026220Y002784D02*
X026527Y002784D01*
X026428Y002882D02*
X026220Y002882D01*
X026152Y002981D02*
X026330Y002981D01*
X026231Y003079D02*
X026053Y003079D01*
X026133Y003178D02*
X025955Y003178D01*
X026200Y003422D02*
X020300Y003422D01*
X020400Y003222D02*
X025600Y003222D01*
X026200Y003422D02*
X027000Y002622D01*
X027000Y002222D01*
X028933Y003769D02*
X023508Y003769D01*
X023536Y003868D02*
X027448Y003868D01*
X027487Y003852D02*
X027813Y003852D01*
X028114Y003977D01*
X028345Y004207D01*
X028470Y004509D01*
X028470Y004835D01*
X028345Y005136D01*
X028114Y005367D01*
X027813Y005492D01*
X027487Y005492D01*
X027185Y005367D01*
X026955Y005136D01*
X026830Y004835D01*
X026830Y004509D01*
X026955Y004207D01*
X027185Y003977D01*
X027487Y003852D01*
X027210Y003966D02*
X023536Y003966D01*
X023536Y004065D02*
X027097Y004065D01*
X026999Y004163D02*
X023536Y004163D01*
X023536Y004262D02*
X026932Y004262D01*
X026891Y004361D02*
X023536Y004361D01*
X023536Y004459D02*
X026850Y004459D01*
X026830Y004558D02*
X023536Y004558D01*
X023526Y004656D02*
X026830Y004656D01*
X026830Y004755D02*
X023220Y004755D01*
X023220Y004853D02*
X026838Y004853D01*
X026878Y004952D02*
X023220Y004952D01*
X023220Y005050D02*
X026919Y005050D01*
X026968Y005149D02*
X023220Y005149D01*
X023220Y005247D02*
X027066Y005247D01*
X027165Y005346D02*
X023220Y005346D01*
X023220Y005445D02*
X027373Y005445D01*
X027927Y005445D02*
X028933Y005445D01*
X028933Y005543D02*
X023255Y005543D01*
X023384Y005642D02*
X028933Y005642D01*
X028933Y005740D02*
X026517Y005740D01*
X026603Y005839D02*
X028933Y005839D01*
X028933Y005937D02*
X026603Y005937D01*
X026603Y006036D02*
X028933Y006036D01*
X028933Y006134D02*
X026603Y006134D01*
X026603Y006233D02*
X028933Y006233D01*
X028933Y006331D02*
X026603Y006331D01*
X026603Y006430D02*
X028933Y006430D01*
X028933Y006529D02*
X028479Y006529D01*
X028478Y006528D02*
X028652Y006600D01*
X028786Y006734D01*
X028858Y006909D01*
X028858Y006984D01*
X028402Y006984D01*
X028402Y006528D01*
X028478Y006528D01*
X028402Y006529D02*
X028364Y006529D01*
X028364Y006528D02*
X028364Y006984D01*
X027908Y006984D01*
X027908Y006909D01*
X027981Y006734D01*
X028114Y006600D01*
X028289Y006528D01*
X028364Y006528D01*
X028288Y006529D02*
X027799Y006529D01*
X027878Y006627D02*
X028088Y006627D01*
X027989Y006726D02*
X027878Y006726D01*
X027878Y006824D02*
X027943Y006824D01*
X027908Y006923D02*
X027878Y006923D01*
X027878Y007021D02*
X028364Y007021D01*
X028364Y007022D02*
X028364Y006984D01*
X028402Y006984D01*
X028402Y007022D01*
X028364Y007022D01*
X027908Y007022D01*
X027908Y007098D01*
X027981Y007272D01*
X028114Y007406D01*
X028289Y007478D01*
X028364Y007478D01*
X028364Y007022D01*
X028402Y007022D02*
X028402Y007478D01*
X028478Y007478D01*
X028652Y007406D01*
X028786Y007272D01*
X028858Y007098D01*
X028858Y007022D01*
X028402Y007022D01*
X028402Y007021D02*
X028933Y007021D01*
X028933Y006923D02*
X028858Y006923D01*
X028823Y006824D02*
X028933Y006824D01*
X028933Y006726D02*
X028778Y006726D01*
X028679Y006627D02*
X028933Y006627D01*
X028933Y007120D02*
X028849Y007120D01*
X028808Y007218D02*
X028933Y007218D01*
X028933Y007317D02*
X028741Y007317D01*
X028629Y007415D02*
X028933Y007415D01*
X028933Y007514D02*
X026603Y007514D01*
X026603Y007612D02*
X028933Y007612D01*
X028933Y007711D02*
X026603Y007711D01*
X026603Y007810D02*
X028933Y007810D01*
X028933Y007908D02*
X026603Y007908D01*
X026603Y008007D02*
X028933Y008007D01*
X028933Y008105D02*
X026603Y008105D01*
X026603Y008204D02*
X028933Y008204D01*
X028933Y008302D02*
X026541Y008302D01*
X026453Y008401D02*
X028933Y008401D01*
X028933Y008499D02*
X026453Y008499D01*
X026453Y008598D02*
X028933Y008598D01*
X028933Y008696D02*
X026453Y008696D01*
X026453Y008823D02*
X026453Y009275D01*
X026365Y009363D01*
X026113Y009363D01*
X026113Y008823D01*
X026453Y008823D01*
X026453Y008894D02*
X028933Y008894D01*
X028933Y008992D02*
X026453Y008992D01*
X026453Y009091D02*
X026975Y009091D01*
X026948Y009189D02*
X026453Y009189D01*
X026441Y009288D02*
X026948Y009288D01*
X026948Y009386D02*
X025617Y009386D01*
X025643Y009288D02*
X025686Y009288D01*
X025673Y009275D02*
X025673Y008823D01*
X026013Y008823D01*
X026013Y009363D01*
X025761Y009363D01*
X025673Y009275D01*
X025673Y009189D02*
X025643Y009189D01*
X025643Y009091D02*
X025673Y009091D01*
X025673Y008992D02*
X025643Y008992D01*
X025643Y008894D02*
X025673Y008894D01*
X025643Y008795D02*
X026013Y008795D01*
X026013Y008894D02*
X026113Y008894D01*
X026113Y008992D02*
X026013Y008992D01*
X026013Y009091D02*
X026113Y009091D01*
X026113Y009189D02*
X026013Y009189D01*
X026013Y009288D02*
X026113Y009288D01*
X026113Y008795D02*
X028933Y008795D01*
X028933Y009091D02*
X028665Y009091D01*
X028712Y009110D02*
X028538Y009038D01*
X028462Y009038D01*
X028462Y009494D01*
X028424Y009494D01*
X027968Y009494D01*
X027968Y009419D01*
X028041Y009244D01*
X028174Y009110D01*
X028349Y009038D01*
X028424Y009038D01*
X028424Y009494D01*
X028424Y009532D01*
X027968Y009532D01*
X027968Y009608D01*
X028041Y009782D01*
X028174Y009916D01*
X028349Y009988D01*
X028424Y009988D01*
X028424Y009532D01*
X028462Y009532D01*
X028462Y009988D01*
X028538Y009988D01*
X028712Y009916D01*
X028846Y009782D01*
X028918Y009608D01*
X028918Y009532D01*
X028462Y009532D01*
X028462Y009494D01*
X028918Y009494D01*
X028918Y009419D01*
X028846Y009244D01*
X028712Y009110D01*
X028791Y009189D02*
X028933Y009189D01*
X028933Y009288D02*
X028864Y009288D01*
X028905Y009386D02*
X028933Y009386D01*
X028933Y009485D02*
X028918Y009485D01*
X028918Y009583D02*
X028933Y009583D01*
X028933Y009682D02*
X028887Y009682D01*
X028847Y009780D02*
X028933Y009780D01*
X028933Y009879D02*
X028749Y009879D01*
X028933Y009978D02*
X028563Y009978D01*
X028462Y009978D02*
X028424Y009978D01*
X028424Y009879D02*
X028462Y009879D01*
X028462Y009780D02*
X028424Y009780D01*
X028424Y009682D02*
X028462Y009682D01*
X028462Y009583D02*
X028424Y009583D01*
X028424Y009485D02*
X028462Y009485D01*
X028462Y009386D02*
X028424Y009386D01*
X028424Y009288D02*
X028462Y009288D01*
X028462Y009189D02*
X028424Y009189D01*
X028424Y009091D02*
X028462Y009091D01*
X028222Y009091D02*
X027911Y009091D01*
X027938Y009189D02*
X028095Y009189D01*
X028022Y009288D02*
X027938Y009288D01*
X027938Y009386D02*
X027982Y009386D01*
X027968Y009485D02*
X027938Y009485D01*
X027938Y009583D02*
X027968Y009583D01*
X027938Y009682D02*
X027999Y009682D01*
X028040Y009780D02*
X027938Y009780D01*
X027938Y009879D02*
X028137Y009879D01*
X028323Y009978D02*
X027869Y009978D01*
X027317Y010076D02*
X028933Y010076D01*
X028933Y010175D02*
X027210Y010175D01*
X027102Y010273D02*
X028933Y010273D01*
X028933Y010372D02*
X026995Y010372D01*
X026887Y010470D02*
X028933Y010470D01*
X028933Y010569D02*
X026780Y010569D01*
X026676Y010667D02*
X028933Y010667D01*
X028933Y010766D02*
X026436Y010766D01*
X026473Y010864D02*
X028933Y010864D01*
X028933Y010963D02*
X026473Y010963D01*
X026808Y011061D02*
X028933Y011061D01*
X028933Y011160D02*
X026907Y011160D01*
X027005Y011259D02*
X028933Y011259D01*
X028933Y011357D02*
X027104Y011357D01*
X027203Y011456D02*
X028933Y011456D01*
X028933Y011554D02*
X027301Y011554D01*
X027400Y011653D02*
X028933Y011653D01*
X028933Y011751D02*
X028676Y011751D01*
X028722Y011770D02*
X028548Y011698D01*
X028472Y011698D01*
X028472Y012154D01*
X028434Y012154D01*
X027978Y012154D01*
X027978Y012079D01*
X028051Y011904D01*
X028184Y011770D01*
X028359Y011698D01*
X028434Y011698D01*
X028434Y012154D01*
X028434Y012192D01*
X027978Y012192D01*
X027978Y012268D01*
X028051Y012442D01*
X028184Y012576D01*
X028359Y012648D01*
X028434Y012648D01*
X028434Y012192D01*
X028472Y012192D01*
X028472Y012648D01*
X028548Y012648D01*
X028722Y012576D01*
X028856Y012442D01*
X028928Y012268D01*
X028928Y012192D01*
X028472Y012192D01*
X028472Y012154D01*
X028928Y012154D01*
X028928Y012079D01*
X028856Y011904D01*
X028722Y011770D01*
X028802Y011850D02*
X028933Y011850D01*
X028933Y011948D02*
X028874Y011948D01*
X028915Y012047D02*
X028933Y012047D01*
X028928Y012145D02*
X028933Y012145D01*
X028928Y012244D02*
X028933Y012244D01*
X028933Y012343D02*
X028897Y012343D01*
X028933Y012441D02*
X028856Y012441D01*
X028933Y012540D02*
X028758Y012540D01*
X028933Y012638D02*
X028572Y012638D01*
X028472Y012638D02*
X028434Y012638D01*
X028434Y012540D02*
X028472Y012540D01*
X028472Y012441D02*
X028434Y012441D01*
X028434Y012343D02*
X028472Y012343D01*
X028472Y012244D02*
X028434Y012244D01*
X028434Y012145D02*
X028472Y012145D01*
X028472Y012047D02*
X028434Y012047D01*
X028434Y011948D02*
X028472Y011948D01*
X028472Y011850D02*
X028434Y011850D01*
X028434Y011751D02*
X028472Y011751D01*
X028230Y011751D02*
X027922Y011751D01*
X027948Y011850D02*
X028105Y011850D01*
X028032Y011948D02*
X027948Y011948D01*
X027948Y012047D02*
X027991Y012047D01*
X027978Y012145D02*
X027948Y012145D01*
X027948Y012244D02*
X027978Y012244D01*
X027948Y012343D02*
X028009Y012343D01*
X028050Y012441D02*
X027948Y012441D01*
X027948Y012540D02*
X028148Y012540D01*
X028335Y012638D02*
X027879Y012638D01*
X027812Y012737D02*
X028933Y012737D01*
X028933Y012835D02*
X027854Y012835D01*
X027895Y012934D02*
X028933Y012934D01*
X028933Y013032D02*
X027936Y013032D01*
X027977Y013131D02*
X028933Y013131D01*
X028933Y013229D02*
X028019Y013229D01*
X028060Y013328D02*
X028933Y013328D01*
X028933Y013427D02*
X028101Y013427D01*
X028093Y013406D02*
X028093Y013406D01*
X028142Y013525D02*
X028933Y013525D01*
X028933Y013624D02*
X028143Y013624D01*
X028143Y013658D02*
X028143Y013658D01*
X028134Y013722D02*
X028933Y013722D01*
X028933Y013821D02*
X028134Y013821D01*
X028134Y013919D02*
X028933Y013919D01*
X028933Y014018D02*
X028134Y014018D01*
X028134Y014116D02*
X028933Y014116D01*
X028933Y014215D02*
X028134Y014215D01*
X028134Y014313D02*
X028933Y014313D01*
X028933Y014412D02*
X028171Y014412D01*
X028171Y014511D02*
X028933Y014511D01*
X028933Y014609D02*
X028171Y014609D01*
X028171Y014708D02*
X028933Y014708D01*
X028933Y014806D02*
X028171Y014806D01*
X028171Y014905D02*
X028933Y014905D01*
X028933Y015003D02*
X028171Y015003D01*
X028171Y015102D02*
X028933Y015102D01*
X028933Y015200D02*
X028171Y015200D01*
X028110Y015299D02*
X028933Y015299D01*
X027499Y015299D02*
X027008Y015299D01*
X027069Y015200D02*
X027438Y015200D01*
X027438Y015102D02*
X027069Y015102D01*
X027069Y015003D02*
X027438Y015003D01*
X027438Y014905D02*
X027069Y014905D01*
X027069Y014806D02*
X027438Y014806D01*
X027438Y014708D02*
X027069Y014708D01*
X027069Y014609D02*
X027438Y014609D01*
X027438Y014511D02*
X027069Y014511D01*
X027069Y014412D02*
X027438Y014412D01*
X027474Y014313D02*
X026994Y014313D01*
X026683Y014215D02*
X027474Y014215D01*
X027474Y014116D02*
X026683Y014116D01*
X026683Y014018D02*
X027474Y014018D01*
X027474Y013919D02*
X026683Y013919D01*
X026683Y013821D02*
X027474Y013821D01*
X027474Y013722D02*
X026683Y013722D01*
X026683Y013624D02*
X027468Y013624D01*
X027427Y013525D02*
X026683Y013525D01*
X026683Y013427D02*
X027386Y013427D01*
X027345Y013328D02*
X026683Y013328D01*
X026683Y013229D02*
X027303Y013229D01*
X027262Y013131D02*
X026683Y013131D01*
X026683Y013032D02*
X027221Y013032D01*
X027180Y012934D02*
X026683Y012934D01*
X026683Y012835D02*
X027138Y012835D01*
X027123Y012737D02*
X026683Y012737D01*
X026683Y012638D02*
X027028Y012638D01*
X027123Y012668D02*
X027123Y012668D01*
X026958Y012540D02*
X026683Y012540D01*
X026683Y012441D02*
X026958Y012441D01*
X026958Y012343D02*
X026683Y012343D01*
X026683Y012244D02*
X026958Y012244D01*
X026958Y012145D02*
X026683Y012145D01*
X026683Y012047D02*
X026861Y012047D01*
X026762Y011948D02*
X026683Y011948D01*
X024663Y011653D02*
X024633Y011653D01*
X024633Y011554D02*
X024663Y011554D01*
X024663Y011456D02*
X024633Y011456D01*
X023023Y011456D02*
X022088Y011456D01*
X022028Y011357D02*
X023023Y011357D01*
X023023Y011259D02*
X022040Y011259D01*
X022040Y011160D02*
X023023Y011160D01*
X023023Y011061D02*
X022018Y011061D01*
X021977Y010963D02*
X023023Y010963D01*
X023023Y010864D02*
X021906Y010864D01*
X021808Y010766D02*
X023023Y010766D01*
X023023Y011554D02*
X022202Y011554D01*
X022315Y011653D02*
X023023Y011653D01*
X023023Y011751D02*
X022434Y011751D01*
X022537Y011850D02*
X023023Y011850D01*
X023023Y011948D02*
X022544Y011948D01*
X022543Y012047D02*
X023023Y012047D01*
X023023Y012145D02*
X022543Y012145D01*
X022543Y012244D02*
X023023Y012244D01*
X023023Y012343D02*
X022543Y012343D01*
X022543Y012441D02*
X023023Y012441D01*
X023023Y012540D02*
X022543Y012540D01*
X022543Y012638D02*
X023023Y012638D01*
X023023Y012737D02*
X022543Y012737D01*
X022543Y012835D02*
X023023Y012835D01*
X023023Y012934D02*
X022543Y012934D01*
X022543Y013032D02*
X023023Y013032D01*
X023023Y013131D02*
X022543Y013131D01*
X022543Y013229D02*
X023023Y013229D01*
X023023Y013328D02*
X022543Y013328D01*
X022543Y013427D02*
X023023Y013427D01*
X023023Y013525D02*
X022543Y013525D01*
X022123Y012737D02*
X022118Y012737D01*
X020240Y013624D02*
X020029Y013624D01*
X020134Y013525D02*
X020135Y013525D01*
X020134Y013427D02*
X020135Y013427D01*
X020134Y013328D02*
X020135Y013328D01*
X020134Y013229D02*
X020135Y013229D01*
X020134Y013159D02*
X020134Y012356D01*
X020134Y012737D02*
X020135Y012737D01*
X020134Y012835D02*
X020135Y012835D01*
X020134Y012934D02*
X020135Y012934D01*
X020134Y013032D02*
X020135Y013032D01*
X020134Y013131D02*
X020135Y013131D01*
X019387Y014412D02*
X021437Y014412D01*
X021339Y014511D02*
X019289Y014511D01*
X019190Y014609D02*
X021240Y014609D01*
X021142Y014708D02*
X019092Y014708D01*
X018993Y014806D02*
X021043Y014806D01*
X020945Y014905D02*
X018895Y014905D01*
X018796Y015003D02*
X020846Y015003D01*
X020748Y015102D02*
X018698Y015102D01*
X018599Y015200D02*
X020693Y015200D01*
X020693Y015299D02*
X018500Y015299D01*
X018402Y015397D02*
X020693Y015397D01*
X022121Y015594D02*
X023023Y015594D01*
X023023Y015693D02*
X022175Y015693D01*
X022175Y015792D02*
X023023Y015792D01*
X023023Y015890D02*
X022175Y015890D01*
X022176Y015989D02*
X023023Y015989D01*
X023023Y016087D02*
X022175Y016087D01*
X022175Y016186D02*
X023023Y016186D01*
X023023Y016284D02*
X022799Y016284D01*
X022910Y016383D02*
X023023Y016383D01*
X023353Y016622D02*
X022600Y016622D01*
X022305Y016876D02*
X022151Y016876D01*
X022165Y016777D02*
X022244Y016777D01*
X022212Y016678D02*
X022163Y016678D01*
X022163Y016580D02*
X022212Y016580D01*
X022238Y016481D02*
X022163Y016481D01*
X022171Y016383D02*
X022290Y016383D01*
X022400Y016284D02*
X022175Y016284D01*
X022086Y016974D02*
X022437Y016974D01*
X022763Y016974D02*
X023023Y016974D01*
X023023Y016876D02*
X022895Y016876D01*
X023023Y017073D02*
X021975Y017073D01*
X021864Y017171D02*
X023023Y017171D01*
X023023Y017270D02*
X021753Y017270D01*
X021642Y017368D02*
X023023Y017368D01*
X023023Y017467D02*
X021532Y017467D01*
X021581Y017565D02*
X021475Y017565D01*
X021508Y018354D02*
X022366Y018354D01*
X022395Y018255D02*
X022464Y018255D01*
X022408Y018157D02*
X022563Y018157D01*
X022662Y018058D02*
X022408Y018058D01*
X022408Y017960D02*
X022760Y017960D01*
X022859Y017861D02*
X022408Y017861D01*
X022408Y017762D02*
X022957Y017762D01*
X023023Y017664D02*
X022408Y017664D01*
X022344Y017565D02*
X023023Y017565D01*
X022267Y018452D02*
X021425Y018452D01*
X021034Y018649D02*
X020934Y018649D01*
X020934Y018748D02*
X021034Y018748D01*
X021034Y018846D02*
X020934Y018846D01*
X020934Y018945D02*
X021034Y018945D01*
X020543Y018452D02*
X018724Y018452D01*
X018819Y018354D02*
X020460Y018354D01*
X020460Y018255D02*
X018913Y018255D01*
X019007Y018157D02*
X020460Y018157D01*
X020460Y018058D02*
X019101Y018058D01*
X019196Y017960D02*
X020460Y017960D01*
X020460Y017861D02*
X019290Y017861D01*
X019384Y017762D02*
X020460Y017762D01*
X020286Y016777D02*
X010518Y016777D01*
X010220Y016481D02*
X009883Y016481D01*
X009883Y016383D02*
X010318Y016383D01*
X010417Y016284D02*
X009865Y016284D01*
X009883Y016186D02*
X010515Y016186D01*
X010830Y015989D02*
X009883Y015989D01*
X009883Y016087D02*
X010929Y016087D01*
X010756Y015890D02*
X009883Y015890D01*
X009872Y015792D02*
X010715Y015792D01*
X010687Y015693D02*
X009883Y015693D01*
X009883Y015594D02*
X010687Y015594D01*
X010687Y015496D02*
X009883Y015496D01*
X009883Y015397D02*
X010728Y015397D01*
X010768Y015299D02*
X009879Y015299D01*
X009883Y015200D02*
X010860Y015200D01*
X010995Y015102D02*
X009883Y015102D01*
X009883Y015003D02*
X011654Y015003D01*
X011515Y015102D02*
X012565Y015102D01*
X012469Y015200D02*
X011650Y015200D01*
X011742Y015299D02*
X012373Y015299D01*
X012277Y015397D02*
X011783Y015397D01*
X011823Y015496D02*
X012181Y015496D01*
X012085Y015594D02*
X011824Y015594D01*
X011824Y015693D02*
X011989Y015693D01*
X011894Y015792D02*
X011795Y015792D01*
X011798Y015890D02*
X011754Y015890D01*
X011702Y015989D02*
X011680Y015989D01*
X011606Y016087D02*
X011582Y016087D01*
X012037Y015003D02*
X012441Y015003D01*
X012297Y014905D02*
X012182Y014905D01*
X011509Y014905D02*
X009883Y014905D01*
X009883Y014806D02*
X011429Y014806D01*
X011388Y014708D02*
X010045Y014708D01*
X010143Y014609D02*
X011369Y014609D01*
X011369Y014511D02*
X010242Y014511D01*
X010283Y014412D02*
X011393Y014412D01*
X011434Y014313D02*
X010283Y014313D01*
X010283Y014215D02*
X011523Y014215D01*
X011686Y014116D02*
X010283Y014116D01*
X010283Y014018D02*
X010964Y014018D01*
X010933Y014005D02*
X010773Y013845D01*
X010687Y013636D01*
X010687Y013410D01*
X010773Y013201D01*
X010933Y013041D01*
X011142Y012954D01*
X011368Y012954D01*
X011577Y013041D01*
X011737Y013201D01*
X011824Y013410D01*
X011824Y013636D01*
X011737Y013845D01*
X011577Y014005D01*
X011368Y014092D01*
X011142Y014092D01*
X010933Y014005D01*
X010847Y013919D02*
X010283Y013919D01*
X010283Y013821D02*
X010763Y013821D01*
X010722Y013722D02*
X010283Y013722D01*
X010283Y013624D02*
X010687Y013624D01*
X010687Y013525D02*
X010283Y013525D01*
X010283Y013427D02*
X010687Y013427D01*
X010720Y013328D02*
X010283Y013328D01*
X010283Y013229D02*
X010287Y013229D01*
X010500Y013229D02*
X010761Y013229D01*
X010843Y013131D02*
X010659Y013131D01*
X010728Y013032D02*
X010954Y013032D01*
X010763Y012934D02*
X011701Y012934D01*
X011800Y013032D02*
X011556Y013032D01*
X011667Y013131D02*
X011898Y013131D01*
X011997Y013229D02*
X011749Y013229D01*
X011790Y013328D02*
X012095Y013328D01*
X012194Y013427D02*
X011824Y013427D01*
X011824Y013525D02*
X012292Y013525D01*
X012312Y013624D02*
X011824Y013624D01*
X011788Y013722D02*
X012322Y013722D01*
X012362Y013821D02*
X011747Y013821D01*
X011663Y013919D02*
X012449Y013919D01*
X012473Y014116D02*
X012006Y014116D01*
X012169Y014215D02*
X012310Y014215D01*
X012700Y013622D02*
X010400Y011322D01*
X010252Y010963D02*
X010030Y010963D01*
X010030Y011061D02*
X010111Y011061D01*
X010047Y011160D02*
X010030Y011160D01*
X009810Y011332D02*
X010400Y011922D01*
X010400Y012866D01*
X010393Y012873D01*
X010737Y012737D02*
X011504Y012737D01*
X011602Y012835D02*
X010763Y012835D01*
X010682Y012638D02*
X011405Y012638D01*
X011307Y012540D02*
X010620Y012540D01*
X010620Y012441D02*
X011208Y012441D01*
X011110Y012343D02*
X010620Y012343D01*
X010620Y012244D02*
X011011Y012244D01*
X010913Y012145D02*
X010620Y012145D01*
X010620Y012047D02*
X010814Y012047D01*
X010716Y011948D02*
X010620Y011948D01*
X009810Y011332D02*
X009810Y007824D01*
X009202Y007824D01*
X009200Y007822D01*
X010030Y008105D02*
X010118Y008105D01*
X010118Y008204D02*
X010030Y008204D01*
X010030Y008302D02*
X010118Y008302D01*
X010118Y008401D02*
X010030Y008401D01*
X010030Y008499D02*
X010118Y008499D01*
X010118Y008598D02*
X010030Y008598D01*
X010030Y008696D02*
X010118Y008696D01*
X010181Y008795D02*
X010030Y008795D01*
X010030Y008894D02*
X010980Y008894D01*
X010980Y008992D02*
X010030Y008992D01*
X010030Y009091D02*
X010980Y009091D01*
X010980Y009189D02*
X010030Y009189D01*
X010030Y009288D02*
X010980Y009288D01*
X010887Y009386D02*
X010030Y009386D01*
X010030Y009485D02*
X010837Y009485D01*
X010812Y009583D02*
X010030Y009583D01*
X010030Y009682D02*
X010812Y009682D01*
X010824Y009780D02*
X010030Y009780D01*
X010030Y009879D02*
X010671Y009879D01*
X010587Y009978D02*
X010030Y009978D01*
X010030Y010076D02*
X010546Y010076D01*
X010525Y010175D02*
X010030Y010175D01*
X010030Y010273D02*
X010525Y010273D01*
X010548Y010372D02*
X010030Y010372D01*
X010030Y010470D02*
X010589Y010470D01*
X010675Y010569D02*
X010030Y010569D01*
X010030Y010667D02*
X010835Y010667D01*
X010981Y010667D02*
X011019Y010667D01*
X011019Y010569D02*
X010981Y010569D01*
X010981Y010470D02*
X011019Y010470D01*
X011019Y010372D02*
X010981Y010372D01*
X010981Y010273D02*
X011019Y010273D01*
X011588Y009682D02*
X013030Y009682D01*
X013030Y009780D02*
X012228Y009780D01*
X012357Y009879D02*
X013030Y009879D01*
X013030Y009583D02*
X011837Y009583D01*
X011600Y009272D02*
X011657Y009164D01*
X011657Y008412D01*
X012287Y008412D02*
X012287Y008859D01*
X012500Y009072D01*
X012787Y009070D01*
X013800Y008122D02*
X013950Y008122D01*
X014100Y008272D01*
X013800Y008122D02*
X013500Y007822D01*
X013190Y007824D01*
X013190Y007509D02*
X013513Y007509D01*
X013700Y007722D01*
X013900Y007922D01*
X017800Y007922D01*
X018000Y008222D01*
X017626Y008598D02*
X016016Y008598D01*
X015978Y008598D02*
X015492Y008598D01*
X015522Y008609D02*
X015978Y008609D01*
X015978Y009065D01*
X015902Y009065D01*
X015728Y008993D01*
X015594Y008859D01*
X015522Y008685D01*
X015522Y008609D01*
X015527Y008696D02*
X015489Y008696D01*
X015448Y008795D02*
X015567Y008795D01*
X015628Y008894D02*
X015394Y008894D01*
X015295Y008992D02*
X015727Y008992D01*
X015978Y008992D02*
X016016Y008992D01*
X016016Y008894D02*
X015978Y008894D01*
X015978Y008795D02*
X016016Y008795D01*
X016016Y008696D02*
X015978Y008696D01*
X016267Y008992D02*
X017522Y008992D01*
X017481Y009091D02*
X014430Y009091D01*
X014430Y009189D02*
X017470Y009189D01*
X017470Y009288D02*
X014430Y009288D01*
X014430Y009386D02*
X017494Y009386D01*
X017535Y009485D02*
X014430Y009485D01*
X014430Y009583D02*
X017612Y009583D01*
X017725Y009682D02*
X014430Y009682D01*
X014525Y009780D02*
X015322Y009780D01*
X015193Y009879D02*
X014624Y009879D01*
X014699Y008992D02*
X014430Y008992D01*
X014430Y008894D02*
X014600Y008894D01*
X014546Y008795D02*
X014430Y008795D01*
X014430Y008696D02*
X014505Y008696D01*
X014502Y008598D02*
X014430Y008598D01*
X014430Y008499D02*
X014502Y008499D01*
X014467Y008401D02*
X014539Y008401D01*
X014585Y008302D02*
X014488Y008302D01*
X014488Y008204D02*
X014683Y008204D01*
X015310Y008204D02*
X015712Y008204D01*
X015613Y008302D02*
X015409Y008302D01*
X015454Y008401D02*
X015561Y008401D01*
X015522Y008499D02*
X015492Y008499D01*
X016282Y008204D02*
X017470Y008204D01*
X017470Y008302D02*
X016380Y008302D01*
X016432Y008401D02*
X017500Y008401D01*
X017541Y008499D02*
X016472Y008499D01*
X016467Y008696D02*
X017760Y008696D01*
X017678Y008795D02*
X016426Y008795D01*
X016365Y008894D02*
X017579Y008894D01*
X017481Y009780D02*
X016726Y009780D01*
X016644Y009747D02*
X016819Y009819D01*
X016953Y009953D01*
X017025Y010127D01*
X017025Y010203D01*
X016569Y010203D01*
X016569Y009747D01*
X016644Y009747D01*
X016569Y009780D02*
X016531Y009780D01*
X016531Y009879D02*
X016569Y009879D01*
X016569Y009978D02*
X016531Y009978D01*
X016531Y010076D02*
X016569Y010076D01*
X016569Y010175D02*
X016531Y010175D01*
X016221Y009879D02*
X015907Y009879D01*
X015985Y009978D02*
X016137Y009978D01*
X016096Y010076D02*
X016025Y010076D01*
X016045Y010175D02*
X016075Y010175D01*
X016075Y010273D02*
X016045Y010273D01*
X016024Y010372D02*
X016098Y010372D01*
X016139Y010470D02*
X015983Y010470D01*
X015903Y010569D02*
X016225Y010569D01*
X016756Y010667D02*
X017485Y010667D01*
X017470Y010569D02*
X016875Y010569D01*
X016961Y010470D02*
X017470Y010470D01*
X017470Y010372D02*
X017002Y010372D01*
X017025Y010273D02*
X017470Y010273D01*
X017470Y010175D02*
X017025Y010175D01*
X017004Y010076D02*
X017470Y010076D01*
X017470Y009978D02*
X016963Y009978D01*
X016879Y009879D02*
X017470Y009879D01*
X016374Y009780D02*
X015778Y009780D01*
X017500Y007722D02*
X019100Y007722D01*
X019430Y007908D02*
X020078Y007908D01*
X020026Y008007D02*
X019430Y008007D01*
X019430Y008105D02*
X019985Y008105D01*
X019980Y008302D02*
X019430Y008302D01*
X019430Y008204D02*
X020450Y008204D01*
X020450Y008302D02*
X020550Y008302D01*
X020550Y008401D02*
X020450Y008401D01*
X020450Y008499D02*
X020550Y008499D01*
X020550Y008598D02*
X020450Y008598D01*
X020450Y008696D02*
X020550Y008696D01*
X020550Y008795D02*
X020450Y008795D01*
X020450Y008894D02*
X020550Y008894D01*
X020550Y008992D02*
X020450Y008992D01*
X020450Y009091D02*
X020550Y009091D01*
X020450Y009189D02*
X019430Y009189D01*
X019430Y009091D02*
X019991Y009091D01*
X020032Y008992D02*
X019430Y008992D01*
X019430Y008894D02*
X020093Y008894D01*
X020191Y008795D02*
X019430Y008795D01*
X019430Y008696D02*
X020287Y008696D01*
X020141Y008598D02*
X019430Y008598D01*
X019430Y008499D02*
X020052Y008499D01*
X020011Y008401D02*
X019430Y008401D01*
X019479Y007810D02*
X020177Y007810D01*
X020374Y007711D02*
X019577Y007711D01*
X019676Y007612D02*
X021170Y007612D01*
X021170Y007514D02*
X019774Y007514D01*
X019873Y007415D02*
X021170Y007415D01*
X021170Y007711D02*
X020626Y007711D01*
X020550Y007711D02*
X020450Y007711D01*
X020450Y007810D02*
X020550Y007810D01*
X020550Y007908D02*
X020450Y007908D01*
X020450Y008007D02*
X020550Y008007D01*
X020550Y008105D02*
X020450Y008105D01*
X020823Y007810D02*
X021148Y007810D01*
X021050Y007908D02*
X020922Y007908D01*
X020974Y008007D02*
X021005Y008007D01*
X020550Y009288D02*
X020450Y009288D01*
X020450Y009386D02*
X020550Y009386D01*
X020550Y009485D02*
X020450Y009485D01*
X020450Y009583D02*
X020550Y009583D01*
X020550Y009682D02*
X020450Y009682D01*
X020252Y009682D02*
X019430Y009682D01*
X019430Y009780D02*
X021645Y009780D01*
X021760Y009879D02*
X019430Y009879D01*
X019430Y009978D02*
X021877Y009978D01*
X021200Y009682D02*
X020748Y009682D01*
X020874Y009583D02*
X021098Y009583D01*
X021025Y009485D02*
X020954Y009485D01*
X020126Y009583D02*
X019430Y009583D01*
X019430Y009485D02*
X020046Y009485D01*
X020005Y009386D02*
X019430Y009386D01*
X019430Y009288D02*
X019980Y009288D01*
X020758Y010766D02*
X021192Y010766D01*
X021094Y010864D02*
X020878Y010864D01*
X020956Y010963D02*
X021023Y010963D01*
X023683Y009978D02*
X026448Y009978D01*
X026556Y009879D02*
X023683Y009879D01*
X023720Y009780D02*
X026663Y009780D01*
X026771Y009682D02*
X023816Y009682D01*
X023912Y009583D02*
X026878Y009583D01*
X026948Y009485D02*
X024009Y009485D01*
X024105Y009386D02*
X024689Y009386D01*
X024663Y009288D02*
X024649Y009288D01*
X024653Y009189D02*
X024663Y009189D01*
X024653Y009091D02*
X024663Y009091D01*
X024653Y008992D02*
X024663Y008992D01*
X024653Y008894D02*
X024663Y008894D01*
X024653Y008795D02*
X024663Y008795D01*
X024653Y008696D02*
X024663Y008696D01*
X024653Y008598D02*
X024663Y008598D01*
X024653Y008499D02*
X024663Y008499D01*
X024653Y008401D02*
X024663Y008401D01*
X025643Y008401D02*
X025673Y008401D01*
X025673Y008499D02*
X025643Y008499D01*
X025643Y008598D02*
X025673Y008598D01*
X025673Y008696D02*
X025643Y008696D01*
X026603Y007415D02*
X026905Y007415D01*
X026888Y006627D02*
X026603Y006627D01*
X026603Y006529D02*
X026967Y006529D01*
X027878Y007120D02*
X027917Y007120D01*
X027878Y007218D02*
X027958Y007218D01*
X028025Y007317D02*
X027878Y007317D01*
X027861Y007415D02*
X028138Y007415D01*
X028364Y007415D02*
X028402Y007415D01*
X028402Y007317D02*
X028364Y007317D01*
X028364Y007218D02*
X028402Y007218D01*
X028402Y007120D02*
X028364Y007120D01*
X028364Y006923D02*
X028402Y006923D01*
X028402Y006824D02*
X028364Y006824D01*
X028364Y006726D02*
X028402Y006726D01*
X028402Y006627D02*
X028364Y006627D01*
X028135Y005346D02*
X028933Y005346D01*
X028933Y005247D02*
X028234Y005247D01*
X028332Y005149D02*
X028933Y005149D01*
X028933Y005050D02*
X028381Y005050D01*
X028422Y004952D02*
X028933Y004952D01*
X028933Y004853D02*
X028462Y004853D01*
X028470Y004755D02*
X028933Y004755D01*
X028933Y004656D02*
X028470Y004656D01*
X028470Y004558D02*
X028933Y004558D01*
X028933Y004459D02*
X028449Y004459D01*
X028409Y004361D02*
X028933Y004361D01*
X028933Y004262D02*
X028368Y004262D01*
X028301Y004163D02*
X028933Y004163D01*
X028933Y004065D02*
X028203Y004065D01*
X028090Y003966D02*
X028933Y003966D01*
X028933Y003868D02*
X027852Y003868D01*
X024780Y002784D02*
X020573Y002784D01*
X020475Y002685D02*
X020771Y002685D01*
X020672Y002587D02*
X020376Y002587D01*
X020329Y002488D02*
X020574Y002488D01*
X020510Y002390D02*
X020481Y002390D01*
X020400Y003222D02*
X019400Y002222D01*
X016800Y002222D01*
X016600Y002422D01*
X016500Y002422D01*
X016640Y002784D02*
X016647Y002784D01*
X015540Y003671D02*
X011562Y003671D01*
X011562Y003769D02*
X011741Y003769D01*
X011680Y003868D02*
X011562Y003868D01*
X011562Y003966D02*
X011680Y003966D01*
X011680Y004065D02*
X011562Y004065D01*
X011562Y004163D02*
X011680Y004163D01*
X011680Y004262D02*
X011562Y004262D01*
X011562Y004361D02*
X011680Y004361D01*
X011680Y004459D02*
X011562Y004459D01*
X011562Y004558D02*
X011680Y004558D01*
X011657Y004564D02*
X011700Y004522D01*
X011662Y004656D02*
X011652Y004656D01*
X011652Y004755D02*
X011662Y004755D01*
X011652Y004853D02*
X011662Y004853D01*
X011652Y004952D02*
X011662Y004952D01*
X011343Y005032D02*
X011343Y001879D01*
X012000Y001221D01*
X011470Y000912D02*
X011440Y000912D01*
X011470Y000813D02*
X011341Y000813D01*
X011161Y000714D02*
X011546Y000714D01*
X011000Y001221D02*
X011000Y001221D01*
X011000Y001822D01*
X011028Y001849D01*
X011028Y005032D01*
X011650Y006372D02*
X011150Y006872D01*
X010950Y006872D01*
X010398Y007424D01*
X010398Y008412D01*
X010713Y008412D02*
X010713Y007409D01*
X011050Y007072D01*
X011250Y007072D01*
X011750Y006572D01*
X012600Y006572D01*
X012350Y006822D02*
X011800Y006822D01*
X011100Y007522D01*
X012350Y006822D02*
X012450Y006922D01*
X013147Y006922D01*
X013190Y006879D01*
X013247Y006822D01*
X013190Y007194D02*
X013218Y007222D01*
X013700Y007222D01*
X013850Y007072D01*
X016550Y007072D01*
X017400Y006222D01*
X018000Y006222D01*
X018000Y006222D01*
X017300Y007522D02*
X017500Y007722D01*
X017300Y007522D02*
X014000Y007522D01*
X013900Y006372D02*
X013750Y006222D01*
X009350Y008722D02*
X008800Y008722D01*
X007300Y010222D01*
X008841Y008992D02*
X009071Y008992D01*
X006400Y007322D02*
X005800Y006722D01*
X007170Y003572D02*
X007412Y003572D01*
X007357Y003277D02*
X007496Y003277D01*
X007493Y003178D02*
X007616Y003178D01*
X006180Y002193D02*
X005582Y002193D01*
X005680Y002291D02*
X006082Y002291D01*
X006035Y002390D02*
X005779Y002390D01*
X005878Y002488D02*
X006012Y002488D01*
X006012Y002587D02*
X005976Y002587D01*
X012482Y001700D02*
X013745Y001700D01*
X013616Y001601D02*
X012530Y001601D01*
X012530Y001503D02*
X013532Y001503D01*
X013491Y001404D02*
X012530Y001404D01*
X012530Y001306D02*
X013460Y001306D01*
X013460Y001207D02*
X012530Y001207D01*
X012530Y001109D02*
X013462Y001109D01*
X013503Y001010D02*
X012530Y001010D01*
X012530Y000912D02*
X013546Y000912D01*
X013644Y000813D02*
X012530Y000813D01*
X012454Y000714D02*
X013812Y000714D01*
X014188Y000714D02*
X014812Y000714D01*
X014644Y000813D02*
X014355Y000813D01*
X014454Y000912D02*
X014546Y000912D01*
X014503Y001010D02*
X014497Y001010D01*
X014468Y001503D02*
X014532Y001503D01*
X014616Y001601D02*
X014383Y001601D01*
X014255Y001700D02*
X014745Y001700D01*
X016255Y001700D02*
X016498Y001700D01*
X016460Y001601D02*
X016383Y001601D01*
X021500Y004222D02*
X021949Y004222D01*
X022434Y004262D02*
X022566Y004262D01*
X022566Y004163D02*
X022434Y004163D01*
X022434Y004065D02*
X022566Y004065D01*
X022566Y003966D02*
X022434Y003966D01*
X022434Y003868D02*
X022566Y003868D01*
X022594Y003769D02*
X022406Y003769D01*
X023000Y004273D02*
X023051Y004222D01*
X023000Y004273D02*
X023000Y006022D01*
X023497Y006233D02*
X023623Y006233D01*
X023623Y006331D02*
X023454Y006331D01*
X023355Y006430D02*
X023623Y006430D01*
X023623Y006529D02*
X023220Y006529D01*
X023369Y006627D02*
X023623Y006627D01*
X023623Y006134D02*
X023538Y006134D01*
X023540Y006036D02*
X023623Y006036D01*
X023623Y005937D02*
X023540Y005937D01*
X023509Y005839D02*
X023623Y005839D01*
X023709Y005740D02*
X023468Y005740D01*
X022576Y004656D02*
X022424Y004656D01*
X022434Y004558D02*
X022566Y004558D01*
X022566Y004459D02*
X022434Y004459D01*
X022434Y004361D02*
X022566Y004361D01*
X016082Y014018D02*
X011547Y014018D01*
X014368Y014116D02*
X014835Y014116D01*
X014672Y014215D02*
X014531Y014215D01*
X015155Y014116D02*
X015623Y014116D01*
X015460Y014215D02*
X015318Y014215D01*
X014659Y014905D02*
X014544Y014905D01*
X014450Y015003D02*
X014804Y015003D01*
X014720Y015102D02*
X014450Y015102D01*
X014450Y015200D02*
X014661Y015200D01*
X014661Y015299D02*
X014450Y015299D01*
X014450Y015397D02*
X014661Y015397D01*
X014690Y015496D02*
X014450Y015496D01*
X014450Y015594D02*
X014788Y015594D01*
X014450Y015693D02*
X015805Y015693D01*
X015805Y015723D02*
X015805Y015497D01*
X015891Y015288D01*
X016051Y015128D01*
X016260Y015041D01*
X016486Y015041D01*
X016695Y015128D01*
X016855Y015288D01*
X016942Y015497D01*
X016942Y015723D01*
X016855Y015932D01*
X016695Y016092D01*
X016486Y016178D01*
X016260Y016178D01*
X016051Y016092D01*
X015891Y015932D01*
X015805Y015723D01*
X015833Y015792D02*
X014450Y015792D01*
X014450Y015890D02*
X015874Y015890D01*
X015948Y015989D02*
X014450Y015989D01*
X014450Y016087D02*
X016047Y016087D01*
X015805Y015594D02*
X015274Y015594D01*
X015373Y015496D02*
X015805Y015496D01*
X015846Y015397D02*
X015401Y015397D01*
X015401Y015299D02*
X015887Y015299D01*
X015978Y015200D02*
X015442Y015200D01*
X015541Y015102D02*
X016114Y015102D01*
X015974Y015003D02*
X018202Y015003D01*
X018301Y014905D02*
X016119Y014905D01*
X016200Y014806D02*
X018399Y014806D01*
X018498Y014708D02*
X016241Y014708D01*
X016260Y014609D02*
X018596Y014609D01*
X018695Y014511D02*
X016260Y014511D01*
X016235Y014412D02*
X018793Y014412D01*
X018104Y015102D02*
X016633Y015102D01*
X016768Y015200D02*
X018005Y015200D01*
X017906Y015299D02*
X016860Y015299D01*
X016901Y015397D02*
X017808Y015397D01*
X017709Y015496D02*
X016942Y015496D01*
X016942Y015594D02*
X017611Y015594D01*
X017512Y015693D02*
X016942Y015693D01*
X016913Y015792D02*
X017414Y015792D01*
X017315Y015890D02*
X016873Y015890D01*
X016798Y015989D02*
X017217Y015989D01*
X017118Y016087D02*
X016700Y016087D01*
X017020Y016186D02*
X014450Y016186D01*
X016398Y018058D02*
X016869Y018058D01*
X016755Y018157D02*
X016512Y018157D01*
X016584Y018255D02*
X016683Y018255D01*
X016642Y018354D02*
X016625Y018354D01*
X016618Y018649D02*
X016649Y018649D01*
X016690Y018748D02*
X016577Y018748D01*
X016495Y018846D02*
X016772Y018846D01*
X016746Y018945D02*
X016492Y018945D01*
X016566Y019044D02*
X016679Y019044D01*
X016638Y019142D02*
X016606Y019142D01*
X016181Y019339D02*
X016101Y019339D01*
X016101Y019438D02*
X016181Y019438D01*
X016181Y019536D02*
X016101Y019536D01*
X016101Y019635D02*
X016181Y019635D01*
X015824Y019635D02*
X014696Y019635D01*
X014458Y019536D02*
X015731Y019536D01*
X017321Y019733D02*
X018453Y019733D01*
X018570Y019635D02*
X017471Y019635D01*
X017558Y019536D02*
X018808Y019536D01*
X021488Y019142D02*
X021517Y019142D01*
X023044Y020817D02*
X025393Y020817D01*
X025393Y020916D02*
X023044Y020916D01*
X023044Y021014D02*
X025429Y021014D01*
X025470Y021113D02*
X023044Y021113D01*
X023044Y021211D02*
X025510Y021211D01*
X025572Y021310D02*
X023044Y021310D01*
X023240Y021606D02*
X025963Y021606D01*
X026283Y021606D02*
X026383Y021606D01*
X026383Y021507D02*
X026283Y021507D01*
X026283Y021409D02*
X026383Y021409D01*
X026383Y021310D02*
X026283Y021310D01*
X026283Y021211D02*
X026383Y021211D01*
X026383Y021113D02*
X026283Y021113D01*
X026283Y021014D02*
X026383Y021014D01*
X026383Y020916D02*
X026283Y020916D01*
X026283Y020620D02*
X026383Y020620D01*
X026383Y020522D02*
X026283Y020522D01*
X026283Y020423D02*
X026383Y020423D01*
X026383Y020325D02*
X026283Y020325D01*
X026283Y020226D02*
X026383Y020226D01*
X026383Y020127D02*
X026283Y020127D01*
X026283Y020029D02*
X026383Y020029D01*
X026383Y019930D02*
X026283Y019930D01*
X026283Y019832D02*
X026383Y019832D01*
X026073Y019832D02*
X025388Y019832D01*
X025347Y019930D02*
X025835Y019930D01*
X025717Y020029D02*
X025306Y020029D01*
X025245Y020127D02*
X025618Y020127D01*
X025529Y020226D02*
X025147Y020226D01*
X025048Y020325D02*
X025489Y020325D01*
X025448Y020423D02*
X024857Y020423D01*
X022854Y022197D02*
X022757Y022100D01*
X024423Y017861D02*
X025388Y017861D01*
X025290Y017762D02*
X024423Y017762D01*
X024423Y017664D02*
X024512Y017664D01*
X024491Y017565D02*
X024423Y017565D01*
X024423Y017467D02*
X024491Y017467D01*
X024491Y017368D02*
X024423Y017368D01*
X024423Y017270D02*
X024491Y017270D01*
X024491Y017171D02*
X024423Y017171D01*
X024423Y017073D02*
X024491Y017073D01*
X024491Y016974D02*
X024423Y016974D01*
X024423Y016876D02*
X024491Y016876D01*
X024491Y016777D02*
X024423Y016777D01*
X024423Y016678D02*
X024491Y016678D01*
X024547Y016580D02*
X024423Y016580D01*
X024423Y014412D02*
X026335Y014412D01*
X010121Y016580D02*
X009883Y016580D01*
X005353Y013503D02*
X005100Y013503D01*
X004863Y013740D01*
X004182Y013740D01*
X003700Y014222D01*
X003718Y014493D01*
X005003Y013503D02*
X005100Y013503D01*
D11*
X009810Y007824D03*
X009810Y007509D03*
X009810Y007194D03*
X009810Y006879D03*
X009810Y006564D03*
X009810Y006249D03*
X009810Y005934D03*
X009810Y005619D03*
X013190Y005619D03*
X013190Y005934D03*
X013190Y006249D03*
X013190Y006564D03*
X013190Y006879D03*
X013190Y007194D03*
X013190Y007509D03*
X013190Y007824D03*
D12*
X012602Y008412D03*
X012287Y008412D03*
X011972Y008412D03*
X011657Y008412D03*
X011343Y008412D03*
X011028Y008412D03*
X010713Y008412D03*
X010398Y008412D03*
X010398Y005032D03*
X010713Y005032D03*
X011028Y005032D03*
X011343Y005032D03*
X011657Y005032D03*
X011972Y005032D03*
X012287Y005032D03*
X012602Y005032D03*
D13*
X018599Y013159D03*
X018855Y013159D03*
X019111Y013159D03*
X019367Y013159D03*
X019623Y013159D03*
X019879Y013159D03*
X020134Y013159D03*
X020390Y013159D03*
X020646Y013159D03*
X020902Y013159D03*
X021158Y013159D03*
X021414Y013159D03*
X021670Y013159D03*
X021926Y013159D03*
X021926Y016014D03*
X021670Y016014D03*
X021414Y016014D03*
X021158Y016014D03*
X020902Y016014D03*
X020646Y016014D03*
X020390Y016014D03*
X020134Y016014D03*
X019879Y016014D03*
X019623Y016014D03*
X019367Y016014D03*
X019111Y016014D03*
X018855Y016014D03*
X018599Y016014D03*
D14*
X017125Y018493D03*
X017125Y019273D03*
X016141Y019273D03*
X016141Y018493D03*
D15*
X014263Y020343D03*
X019003Y020343D03*
D16*
X005032Y018344D03*
X017000Y001221D03*
D17*
X016000Y001221D03*
X015000Y001221D03*
X014000Y001221D03*
X020500Y008222D03*
X020500Y009222D03*
X021500Y009222D03*
X021500Y008222D03*
X023000Y007022D03*
X023000Y006022D03*
X021500Y011222D03*
X020500Y011222D03*
X009394Y018344D03*
X008304Y018344D03*
X007213Y018344D03*
X006123Y018344D03*
X005579Y019462D03*
X006670Y019462D03*
X007757Y019462D03*
X008847Y019462D03*
X002733Y012153D03*
X001733Y012153D03*
X001733Y011153D03*
X002733Y011153D03*
D18*
X002292Y018903D03*
X012134Y018903D03*
D19*
X003718Y015493D03*
X003718Y014493D03*
X011000Y010222D03*
X012000Y010222D03*
X014997Y008590D03*
X015997Y008590D03*
X015550Y010222D03*
X016550Y010222D03*
X009131Y005464D03*
X009131Y004464D03*
X028383Y007003D03*
X028443Y009513D03*
X028453Y012173D03*
D20*
X026333Y018379D03*
X024483Y019560D03*
X026333Y020742D03*
D21*
X022637Y020820D03*
X021653Y020820D03*
X020669Y020820D03*
D22*
X020079Y021903D02*
X020081Y021929D01*
X020087Y021955D01*
X020097Y021980D01*
X020110Y022003D01*
X020126Y022023D01*
X020146Y022041D01*
X020168Y022056D01*
X020191Y022068D01*
X020217Y022076D01*
X020243Y022080D01*
X020269Y022080D01*
X020295Y022076D01*
X020321Y022068D01*
X020345Y022056D01*
X020366Y022041D01*
X020386Y022023D01*
X020402Y022003D01*
X020415Y021980D01*
X020425Y021955D01*
X020431Y021929D01*
X020433Y021903D01*
X020431Y021877D01*
X020425Y021851D01*
X020415Y021826D01*
X020402Y021803D01*
X020386Y021783D01*
X020366Y021765D01*
X020344Y021750D01*
X020321Y021738D01*
X020295Y021730D01*
X020269Y021726D01*
X020243Y021726D01*
X020217Y021730D01*
X020191Y021738D01*
X020167Y021750D01*
X020146Y021765D01*
X020126Y021783D01*
X020110Y021803D01*
X020097Y021826D01*
X020087Y021851D01*
X020081Y021877D01*
X020079Y021903D01*
X022874Y021903D02*
X022876Y021929D01*
X022882Y021955D01*
X022892Y021980D01*
X022905Y022003D01*
X022921Y022023D01*
X022941Y022041D01*
X022963Y022056D01*
X022986Y022068D01*
X023012Y022076D01*
X023038Y022080D01*
X023064Y022080D01*
X023090Y022076D01*
X023116Y022068D01*
X023140Y022056D01*
X023161Y022041D01*
X023181Y022023D01*
X023197Y022003D01*
X023210Y021980D01*
X023220Y021955D01*
X023226Y021929D01*
X023228Y021903D01*
X023226Y021877D01*
X023220Y021851D01*
X023210Y021826D01*
X023197Y021803D01*
X023181Y021783D01*
X023161Y021765D01*
X023139Y021750D01*
X023116Y021738D01*
X023090Y021730D01*
X023064Y021726D01*
X023038Y021726D01*
X023012Y021730D01*
X022986Y021738D01*
X022962Y021750D01*
X022941Y021765D01*
X022921Y021783D01*
X022905Y021803D01*
X022892Y021826D01*
X022882Y021851D01*
X022876Y021877D01*
X022874Y021903D01*
X027000Y016622D02*
X027002Y016672D01*
X027008Y016722D01*
X027018Y016772D01*
X027031Y016820D01*
X027048Y016868D01*
X027069Y016914D01*
X027093Y016958D01*
X027121Y017000D01*
X027152Y017040D01*
X027186Y017077D01*
X027223Y017112D01*
X027262Y017143D01*
X027303Y017172D01*
X027347Y017197D01*
X027393Y017219D01*
X027440Y017237D01*
X027488Y017251D01*
X027537Y017262D01*
X027587Y017269D01*
X027637Y017272D01*
X027688Y017271D01*
X027738Y017266D01*
X027788Y017257D01*
X027836Y017245D01*
X027884Y017228D01*
X027930Y017208D01*
X027975Y017185D01*
X028018Y017158D01*
X028058Y017128D01*
X028096Y017095D01*
X028131Y017059D01*
X028164Y017020D01*
X028193Y016979D01*
X028219Y016936D01*
X028242Y016891D01*
X028261Y016844D01*
X028276Y016796D01*
X028288Y016747D01*
X028296Y016697D01*
X028300Y016647D01*
X028300Y016597D01*
X028296Y016547D01*
X028288Y016497D01*
X028276Y016448D01*
X028261Y016400D01*
X028242Y016353D01*
X028219Y016308D01*
X028193Y016265D01*
X028164Y016224D01*
X028131Y016185D01*
X028096Y016149D01*
X028058Y016116D01*
X028018Y016086D01*
X027975Y016059D01*
X027930Y016036D01*
X027884Y016016D01*
X027836Y015999D01*
X027788Y015987D01*
X027738Y015978D01*
X027688Y015973D01*
X027637Y015972D01*
X027587Y015975D01*
X027537Y015982D01*
X027488Y015993D01*
X027440Y016007D01*
X027393Y016025D01*
X027347Y016047D01*
X027303Y016072D01*
X027262Y016101D01*
X027223Y016132D01*
X027186Y016167D01*
X027152Y016204D01*
X027121Y016244D01*
X027093Y016286D01*
X027069Y016330D01*
X027048Y016376D01*
X027031Y016424D01*
X027018Y016472D01*
X027008Y016522D01*
X027002Y016572D01*
X027000Y016622D01*
X027000Y004672D02*
X027002Y004722D01*
X027008Y004772D01*
X027018Y004822D01*
X027031Y004870D01*
X027048Y004918D01*
X027069Y004964D01*
X027093Y005008D01*
X027121Y005050D01*
X027152Y005090D01*
X027186Y005127D01*
X027223Y005162D01*
X027262Y005193D01*
X027303Y005222D01*
X027347Y005247D01*
X027393Y005269D01*
X027440Y005287D01*
X027488Y005301D01*
X027537Y005312D01*
X027587Y005319D01*
X027637Y005322D01*
X027688Y005321D01*
X027738Y005316D01*
X027788Y005307D01*
X027836Y005295D01*
X027884Y005278D01*
X027930Y005258D01*
X027975Y005235D01*
X028018Y005208D01*
X028058Y005178D01*
X028096Y005145D01*
X028131Y005109D01*
X028164Y005070D01*
X028193Y005029D01*
X028219Y004986D01*
X028242Y004941D01*
X028261Y004894D01*
X028276Y004846D01*
X028288Y004797D01*
X028296Y004747D01*
X028300Y004697D01*
X028300Y004647D01*
X028296Y004597D01*
X028288Y004547D01*
X028276Y004498D01*
X028261Y004450D01*
X028242Y004403D01*
X028219Y004358D01*
X028193Y004315D01*
X028164Y004274D01*
X028131Y004235D01*
X028096Y004199D01*
X028058Y004166D01*
X028018Y004136D01*
X027975Y004109D01*
X027930Y004086D01*
X027884Y004066D01*
X027836Y004049D01*
X027788Y004037D01*
X027738Y004028D01*
X027688Y004023D01*
X027637Y004022D01*
X027587Y004025D01*
X027537Y004032D01*
X027488Y004043D01*
X027440Y004057D01*
X027393Y004075D01*
X027347Y004097D01*
X027303Y004122D01*
X027262Y004151D01*
X027223Y004182D01*
X027186Y004217D01*
X027152Y004254D01*
X027121Y004294D01*
X027093Y004336D01*
X027069Y004380D01*
X027048Y004426D01*
X027031Y004474D01*
X027018Y004522D01*
X027008Y004572D01*
X027002Y004622D01*
X027000Y004672D01*
X001000Y004672D02*
X001002Y004722D01*
X001008Y004772D01*
X001018Y004822D01*
X001031Y004870D01*
X001048Y004918D01*
X001069Y004964D01*
X001093Y005008D01*
X001121Y005050D01*
X001152Y005090D01*
X001186Y005127D01*
X001223Y005162D01*
X001262Y005193D01*
X001303Y005222D01*
X001347Y005247D01*
X001393Y005269D01*
X001440Y005287D01*
X001488Y005301D01*
X001537Y005312D01*
X001587Y005319D01*
X001637Y005322D01*
X001688Y005321D01*
X001738Y005316D01*
X001788Y005307D01*
X001836Y005295D01*
X001884Y005278D01*
X001930Y005258D01*
X001975Y005235D01*
X002018Y005208D01*
X002058Y005178D01*
X002096Y005145D01*
X002131Y005109D01*
X002164Y005070D01*
X002193Y005029D01*
X002219Y004986D01*
X002242Y004941D01*
X002261Y004894D01*
X002276Y004846D01*
X002288Y004797D01*
X002296Y004747D01*
X002300Y004697D01*
X002300Y004647D01*
X002296Y004597D01*
X002288Y004547D01*
X002276Y004498D01*
X002261Y004450D01*
X002242Y004403D01*
X002219Y004358D01*
X002193Y004315D01*
X002164Y004274D01*
X002131Y004235D01*
X002096Y004199D01*
X002058Y004166D01*
X002018Y004136D01*
X001975Y004109D01*
X001930Y004086D01*
X001884Y004066D01*
X001836Y004049D01*
X001788Y004037D01*
X001738Y004028D01*
X001688Y004023D01*
X001637Y004022D01*
X001587Y004025D01*
X001537Y004032D01*
X001488Y004043D01*
X001440Y004057D01*
X001393Y004075D01*
X001347Y004097D01*
X001303Y004122D01*
X001262Y004151D01*
X001223Y004182D01*
X001186Y004217D01*
X001152Y004254D01*
X001121Y004294D01*
X001093Y004336D01*
X001069Y004380D01*
X001048Y004426D01*
X001031Y004474D01*
X001018Y004522D01*
X001008Y004572D01*
X001002Y004622D01*
X001000Y004672D01*
X001000Y016622D02*
X001002Y016672D01*
X001008Y016722D01*
X001018Y016772D01*
X001031Y016820D01*
X001048Y016868D01*
X001069Y016914D01*
X001093Y016958D01*
X001121Y017000D01*
X001152Y017040D01*
X001186Y017077D01*
X001223Y017112D01*
X001262Y017143D01*
X001303Y017172D01*
X001347Y017197D01*
X001393Y017219D01*
X001440Y017237D01*
X001488Y017251D01*
X001537Y017262D01*
X001587Y017269D01*
X001637Y017272D01*
X001688Y017271D01*
X001738Y017266D01*
X001788Y017257D01*
X001836Y017245D01*
X001884Y017228D01*
X001930Y017208D01*
X001975Y017185D01*
X002018Y017158D01*
X002058Y017128D01*
X002096Y017095D01*
X002131Y017059D01*
X002164Y017020D01*
X002193Y016979D01*
X002219Y016936D01*
X002242Y016891D01*
X002261Y016844D01*
X002276Y016796D01*
X002288Y016747D01*
X002296Y016697D01*
X002300Y016647D01*
X002300Y016597D01*
X002296Y016547D01*
X002288Y016497D01*
X002276Y016448D01*
X002261Y016400D01*
X002242Y016353D01*
X002219Y016308D01*
X002193Y016265D01*
X002164Y016224D01*
X002131Y016185D01*
X002096Y016149D01*
X002058Y016116D01*
X002018Y016086D01*
X001975Y016059D01*
X001930Y016036D01*
X001884Y016016D01*
X001836Y015999D01*
X001788Y015987D01*
X001738Y015978D01*
X001688Y015973D01*
X001637Y015972D01*
X001587Y015975D01*
X001537Y015982D01*
X001488Y015993D01*
X001440Y016007D01*
X001393Y016025D01*
X001347Y016047D01*
X001303Y016072D01*
X001262Y016101D01*
X001223Y016132D01*
X001186Y016167D01*
X001152Y016204D01*
X001121Y016244D01*
X001093Y016286D01*
X001069Y016330D01*
X001048Y016376D01*
X001031Y016424D01*
X001018Y016472D01*
X001008Y016522D01*
X001002Y016572D01*
X001000Y016622D01*
D23*
X011255Y015610D03*
X011255Y013523D03*
X016373Y013523D03*
X016373Y015610D03*
D24*
X015783Y014566D03*
X014995Y014566D03*
X014208Y014566D03*
X013421Y014566D03*
X012633Y014566D03*
X011846Y014566D03*
D25*
X021000Y002222D03*
X022000Y002222D03*
X023000Y002222D03*
X024000Y002222D03*
X025000Y002222D03*
X026000Y002222D03*
X027000Y002222D03*
X027000Y001222D03*
X026000Y001222D03*
X025000Y001222D03*
X024000Y001222D03*
X023000Y001222D03*
X022000Y001222D03*
X021000Y001222D03*
D26*
X021949Y004222D03*
X023051Y004222D03*
D27*
X002603Y003358D03*
X000823Y003358D03*
X000823Y000798D03*
X002603Y000798D03*
D28*
X012000Y001221D03*
X018000Y010222D03*
X005000Y010222D03*
D29*
X005000Y009222D03*
X005000Y008222D03*
X005000Y007222D03*
X005000Y006222D03*
X005000Y005222D03*
X005000Y004222D03*
X005000Y003222D03*
X005000Y001221D03*
X006000Y001221D03*
X007000Y001221D03*
X008000Y001221D03*
X009000Y001221D03*
X010000Y001221D03*
X011000Y001221D03*
X018000Y003222D03*
X018000Y004222D03*
X018000Y005222D03*
X018000Y006222D03*
X018000Y007222D03*
X018000Y008222D03*
X018000Y009222D03*
D30*
X014500Y011622D03*
X012500Y011622D03*
D31*
X009313Y012003D03*
X009313Y012503D03*
X009313Y013003D03*
X009313Y013503D03*
X009313Y014003D03*
X009313Y014503D03*
X009313Y015003D03*
X009313Y015503D03*
X009313Y016003D03*
X009313Y016503D03*
X005353Y016503D03*
X005353Y016003D03*
X005353Y015503D03*
X005353Y015003D03*
X005353Y014503D03*
X005353Y014003D03*
X005353Y013503D03*
X005353Y013003D03*
X005353Y012503D03*
X005353Y012003D03*
D32*
X024243Y011313D03*
X025153Y011313D03*
X026063Y011313D03*
X026063Y008773D03*
X025153Y008773D03*
X024243Y008773D03*
D33*
X025153Y006333D03*
X025153Y013753D03*
D34*
X027453Y012173D03*
X027443Y009513D03*
X027383Y007003D03*
D35*
X021962Y017936D03*
X021962Y019117D03*
X002733Y007494D03*
X001733Y007494D03*
X001733Y006313D03*
X002733Y006313D03*
D36*
X002733Y008602D03*
X001733Y008602D03*
X001733Y009704D03*
X002733Y009704D03*
X016250Y011071D03*
X016250Y012173D03*
X020984Y017984D03*
X020984Y019086D03*
D37*
X025133Y017139D03*
X025133Y015207D03*
D38*
X026702Y014813D03*
X027804Y014813D03*
D39*
X022600Y016622D03*
X021800Y015222D03*
X020646Y016633D03*
X013500Y011622D03*
X012700Y013622D03*
X010300Y015722D03*
X010400Y011322D03*
X009400Y011322D03*
X008800Y010822D03*
X007200Y009722D03*
X007200Y008822D03*
X007800Y008822D03*
X009350Y008722D03*
X009200Y007822D03*
X008300Y007322D03*
X007100Y006822D03*
X007300Y006222D03*
X006900Y005622D03*
X005800Y006722D03*
X007000Y003922D03*
X007800Y003522D03*
X007200Y002922D03*
X006400Y002522D03*
X008000Y002122D03*
X008500Y002522D03*
X008600Y003522D03*
X010100Y003522D03*
X012300Y004322D03*
X013100Y004972D03*
X013600Y004722D03*
X013600Y003522D03*
X016100Y003922D03*
X016100Y004722D03*
X015300Y005422D03*
X014600Y005922D03*
X013900Y006372D03*
X014000Y007522D03*
X014100Y008272D03*
X012787Y009070D03*
X011600Y009272D03*
X011200Y009622D03*
X010500Y009322D03*
X011100Y007522D03*
X010400Y006672D03*
X010400Y006122D03*
X010600Y005622D03*
X011300Y005772D03*
X012050Y005922D03*
X012600Y006572D03*
X012200Y007222D03*
X012500Y007822D03*
X016300Y005922D03*
X018800Y003722D03*
X017000Y002622D03*
X016500Y002422D03*
X020200Y002122D03*
X020600Y006422D03*
D40*
X023833Y006427D02*
X026393Y006427D01*
X026393Y006505D02*
X023833Y006505D01*
X023833Y006584D02*
X026393Y006584D01*
X026393Y006662D02*
X023833Y006662D01*
X023833Y006741D02*
X026393Y006741D01*
X026393Y006819D02*
X023833Y006819D01*
X023833Y006898D02*
X026393Y006898D01*
X026393Y006976D02*
X023833Y006976D01*
X023833Y007055D02*
X026393Y007055D01*
X026393Y007134D02*
X023833Y007134D01*
X023833Y007212D02*
X026393Y007212D01*
X026393Y007291D02*
X023833Y007291D01*
X023833Y007369D02*
X026393Y007369D01*
X026393Y007448D02*
X023833Y007448D01*
X023833Y007526D02*
X026393Y007526D01*
X026393Y007605D02*
X023833Y007605D01*
X023833Y007683D02*
X026393Y007683D01*
X026393Y007762D02*
X023833Y007762D01*
X023833Y007840D02*
X026393Y007840D01*
X026393Y007919D02*
X023833Y007919D01*
X023833Y007998D02*
X026393Y007998D01*
X026393Y008076D02*
X023833Y008076D01*
X023833Y008153D02*
X024873Y008153D01*
X024873Y009273D01*
X025433Y009273D01*
X025433Y008153D01*
X026393Y008153D01*
X026393Y005913D01*
X023833Y005913D01*
X023833Y008153D01*
X024873Y008155D02*
X025433Y008155D01*
X025433Y008233D02*
X024873Y008233D01*
X024873Y008312D02*
X025433Y008312D01*
X025433Y008390D02*
X024873Y008390D01*
X024873Y008469D02*
X025433Y008469D01*
X025433Y008547D02*
X024873Y008547D01*
X024873Y008626D02*
X025433Y008626D01*
X025433Y008704D02*
X024873Y008704D01*
X024873Y008783D02*
X025433Y008783D01*
X025433Y008861D02*
X024873Y008861D01*
X024873Y008940D02*
X025433Y008940D01*
X025433Y009019D02*
X024873Y009019D01*
X024873Y009097D02*
X025433Y009097D01*
X025433Y009176D02*
X024873Y009176D01*
X024873Y009254D02*
X025433Y009254D01*
X025433Y010793D02*
X024873Y010793D01*
X024873Y011913D01*
X023913Y011913D01*
X023913Y014153D01*
X026473Y014153D01*
X026473Y011913D01*
X025433Y011913D01*
X025433Y010793D01*
X025433Y010825D02*
X024873Y010825D01*
X024873Y010904D02*
X025433Y010904D01*
X025433Y010982D02*
X024873Y010982D01*
X024873Y011061D02*
X025433Y011061D01*
X025433Y011139D02*
X024873Y011139D01*
X024873Y011218D02*
X025433Y011218D01*
X025433Y011296D02*
X024873Y011296D01*
X024873Y011375D02*
X025433Y011375D01*
X025433Y011453D02*
X024873Y011453D01*
X024873Y011532D02*
X025433Y011532D01*
X025433Y011611D02*
X024873Y011611D01*
X024873Y011689D02*
X025433Y011689D01*
X025433Y011768D02*
X024873Y011768D01*
X024873Y011846D02*
X025433Y011846D01*
X025153Y011313D02*
X024093Y013973D01*
X025153Y013753D01*
X023913Y013731D02*
X026473Y013731D01*
X026473Y013653D02*
X023913Y013653D01*
X023913Y013574D02*
X026473Y013574D01*
X026473Y013496D02*
X023913Y013496D01*
X023913Y013417D02*
X026473Y013417D01*
X026473Y013338D02*
X023913Y013338D01*
X023913Y013260D02*
X026473Y013260D01*
X026473Y013181D02*
X023913Y013181D01*
X023913Y013103D02*
X026473Y013103D01*
X026473Y013024D02*
X023913Y013024D01*
X023913Y012946D02*
X026473Y012946D01*
X026473Y012867D02*
X023913Y012867D01*
X023913Y012789D02*
X026473Y012789D01*
X026473Y012710D02*
X023913Y012710D01*
X023913Y012632D02*
X026473Y012632D01*
X026473Y012553D02*
X023913Y012553D01*
X023913Y012474D02*
X026473Y012474D01*
X026473Y012396D02*
X023913Y012396D01*
X023913Y012317D02*
X026473Y012317D01*
X026473Y012239D02*
X023913Y012239D01*
X023913Y012160D02*
X026473Y012160D01*
X026473Y012082D02*
X023913Y012082D01*
X023913Y012003D02*
X026473Y012003D01*
X026473Y011925D02*
X023913Y011925D01*
X025153Y011313D02*
X025113Y010873D01*
X022333Y011947D02*
X022333Y013813D01*
X020903Y015243D01*
X020903Y015779D01*
X020902Y015779D01*
X020902Y016014D01*
X021911Y016034D02*
X021926Y016014D01*
X021032Y017936D02*
X020984Y017984D01*
X021962Y019117D02*
X021632Y019554D01*
X021653Y020653D02*
X021653Y020820D01*
X020669Y020820D02*
X020669Y020669D01*
X020669Y020820D02*
X020633Y020873D01*
X017040Y016462D02*
X014240Y016462D01*
X014240Y014622D01*
X014208Y014566D01*
X013421Y014566D02*
X013351Y014594D01*
X011651Y016342D01*
X010656Y016342D01*
X010164Y016834D01*
X007271Y016834D01*
X006471Y016034D01*
X005431Y016034D01*
X005353Y016003D01*
X005353Y015503D02*
X005431Y015474D01*
X008631Y015474D01*
X008569Y014994D02*
X008400Y014825D01*
X008391Y014834D01*
X008400Y014825D02*
X008400Y014233D01*
X008393Y014233D01*
X008073Y013913D01*
X008073Y011993D01*
X008633Y012473D02*
X008633Y013982D01*
X008633Y013993D01*
X008633Y013982D02*
X008793Y013982D01*
X008793Y013993D01*
X008793Y013982D02*
X009040Y013982D01*
X009313Y014003D01*
X009271Y013954D01*
X009031Y013954D01*
X009351Y014434D02*
X009313Y014503D01*
X009952Y014503D01*
X010073Y014382D01*
X010073Y011993D01*
X009353Y011993D01*
X009313Y012003D01*
X009273Y012473D02*
X008633Y012473D01*
X009273Y012473D02*
X009313Y012503D01*
X009351Y014434D02*
X009591Y014434D01*
X009313Y015003D02*
X009271Y014994D01*
X008569Y014994D01*
X006393Y013513D02*
X005433Y013513D01*
X005353Y013503D01*
X004713Y013113D02*
X004713Y012073D01*
X004793Y011993D01*
X005353Y011993D01*
X005353Y012003D01*
X005433Y011993D01*
X006073Y011993D01*
X004713Y013113D02*
X004633Y013193D01*
X004471Y014434D02*
X004471Y016834D01*
X005031Y017394D01*
X006151Y017394D01*
X006151Y018034D01*
X006111Y018194D01*
X006123Y018344D01*
X003013Y017493D02*
X003013Y013973D01*
X002313Y013273D01*
X001753Y012953D02*
X001753Y012153D01*
X001733Y012153D01*
X004471Y014434D02*
X005351Y014434D01*
X005351Y014503D01*
X005353Y014503D01*
X005353Y015003D02*
X005431Y015074D01*
X006071Y015074D01*
X009738Y007222D02*
X009810Y007194D01*
X009810Y006564D02*
X009767Y006522D01*
X009810Y006249D02*
X009782Y006222D01*
X013188Y005622D02*
X013190Y005619D01*
X021500Y011222D02*
X022333Y011947D01*
X023913Y013810D02*
X026473Y013810D01*
X026473Y013888D02*
X023913Y013888D01*
X023913Y013967D02*
X026473Y013967D01*
X026473Y014045D02*
X023913Y014045D01*
X023913Y014124D02*
X026473Y014124D01*
X019600Y013902D02*
X019600Y013182D01*
X019623Y013159D01*
X019600Y013902D02*
X017040Y016462D01*
X015751Y014594D02*
X015031Y015314D01*
X015751Y014594D02*
X015783Y014566D01*
X017751Y013234D02*
X018551Y013234D01*
X018599Y013159D01*
X023833Y006348D02*
X026393Y006348D01*
X026393Y006270D02*
X023833Y006270D01*
X023833Y006191D02*
X026393Y006191D01*
X026393Y006112D02*
X023833Y006112D01*
X023833Y006034D02*
X026393Y006034D01*
X026393Y005955D02*
X023833Y005955D01*
X027360Y007022D02*
X027383Y007003D01*
D41*
X017751Y013234D03*
X015031Y015314D03*
X008631Y015474D03*
X006071Y015074D03*
D42*
X002733Y011153D02*
X002733Y009704D01*
X001733Y009704D02*
X001733Y011153D01*
X001733Y008602D02*
X001733Y007494D01*
X002733Y007494D02*
X002733Y008602D01*
X012500Y011622D02*
X013300Y012422D01*
X014900Y012422D01*
X015149Y012173D01*
X016250Y012173D01*
X016250Y011071D02*
X014549Y011071D01*
X014500Y011022D01*
X014500Y010222D01*
X015550Y010222D01*
X014500Y010222D02*
X014100Y009822D01*
X014100Y008272D01*
X014500Y011022D02*
X014500Y011622D01*
X019100Y012322D02*
X019100Y007722D01*
X019800Y007022D01*
X021500Y007022D01*
X023000Y007022D01*
X024100Y007022D01*
X024243Y008773D02*
X023353Y009683D01*
X022039Y009683D01*
X021500Y009222D01*
X021500Y008222D02*
X021500Y007022D01*
X023353Y009683D02*
X023353Y016622D01*
X023353Y017833D01*
X021632Y019554D01*
X021653Y019575D01*
X021653Y020820D01*
X020669Y020669D02*
X020153Y020153D01*
X020153Y019253D01*
X021032Y017936D02*
X021962Y017936D01*
X023113Y019153D02*
X024093Y018173D01*
X024093Y013973D01*
X025133Y015207D02*
X025527Y014813D01*
X026702Y014813D01*
X027804Y014813D02*
X027804Y013593D01*
X027813Y013593D01*
X027453Y012733D01*
X027453Y012173D01*
X027513Y012173D01*
X027453Y012173D02*
X026593Y011313D01*
X026063Y011313D01*
X026483Y010393D02*
X025513Y010393D01*
X025113Y010873D01*
X026483Y010393D02*
X027443Y009513D01*
X027360Y007022D02*
X026393Y007022D01*
X025133Y017139D02*
X026333Y018339D01*
X026333Y018379D01*
X023113Y019153D02*
X023113Y020233D01*
X022673Y020633D01*
D43*
X013300Y010822D02*
X012500Y011622D01*
X013300Y010822D02*
X013300Y010222D01*
X012000Y010222D01*
X013300Y010222D02*
X013300Y009372D01*
X012287Y008412D02*
X012287Y007834D01*
X012500Y007822D01*
X010600Y005622D02*
X010300Y005622D01*
X010298Y005619D02*
X009810Y005619D01*
X009468Y005619D01*
X009300Y005622D01*
X009189Y005622D01*
X009131Y005464D01*
X009797Y005922D02*
X009810Y005934D01*
X024000Y006222D02*
X024111Y006333D01*
X024111Y007010D01*
X024100Y007022D01*
X024111Y006333D02*
X025153Y006333D01*
D44*
X021926Y016014D02*
X021913Y016026D01*
X021913Y016793D01*
X021193Y017433D01*
X019353Y017433D01*
X017593Y019273D01*
X017125Y019273D01*
X017125Y018493D02*
X017813Y018493D01*
X019113Y017113D01*
X021033Y017113D01*
X021673Y016553D01*
X021673Y016017D01*
X021670Y016014D01*
X021673Y020633D02*
X021653Y020653D01*
X022637Y020820D02*
X022653Y020820D01*
X022653Y020653D01*
X022673Y020633D01*
D45*
X010393Y012873D03*
X008073Y011993D03*
X006393Y013513D03*
X006073Y011993D03*
X004633Y013193D03*
X002313Y013273D03*
X001753Y012953D03*
X003013Y017493D03*
D46*
X020153Y019253D03*
M02*
