G75*
G70*
%OFA0B0*%
%FSLAX24Y24*%
%IPPOS*%
%LPD*%
%AMOC8*
5,1,8,0,0,1.08239X$1,22.5*
%
%ADD10C,0.0040*%
%ADD11C,0.0030*%
%ADD12C,0.0060*%
%ADD13C,0.0080*%
%ADD14C,0.0348*%
%ADD15C,0.0010*%
%ADD16C,0.0020*%
%ADD17C,0.0070*%
%ADD18C,0.0050*%
%ADD19R,0.0050X0.0200*%
D10*
X004704Y001931D02*
X005051Y002452D01*
X004704Y002452D02*
X005051Y001931D01*
X005704Y002018D02*
X005791Y001931D01*
X005964Y001931D01*
X006051Y002018D01*
X006051Y002105D01*
X005964Y002191D01*
X005704Y002191D01*
X005704Y002018D01*
X005704Y002191D02*
X005878Y002365D01*
X006051Y002452D01*
X005770Y002992D02*
X005770Y003079D01*
X006117Y003426D01*
X006117Y003513D01*
X005770Y003513D01*
X005857Y003992D02*
X006030Y003992D01*
X006117Y004079D01*
X006117Y004166D01*
X006030Y004252D01*
X005770Y004252D01*
X005770Y004079D01*
X005857Y003992D01*
X005770Y004252D02*
X005944Y004426D01*
X006117Y004513D01*
X006030Y004992D02*
X005857Y004992D01*
X005770Y005079D01*
X005770Y005252D02*
X005944Y005339D01*
X006030Y005339D01*
X006117Y005252D01*
X006117Y005079D01*
X006030Y004992D01*
X005770Y005252D02*
X005770Y005513D01*
X006117Y005513D01*
X006030Y005992D02*
X006030Y006513D01*
X005770Y006252D01*
X006117Y006252D01*
X006030Y006992D02*
X005857Y006992D01*
X005770Y007079D01*
X005944Y007252D02*
X006030Y007252D01*
X006117Y007166D01*
X006117Y007079D01*
X006030Y006992D01*
X006030Y007252D02*
X006117Y007339D01*
X006117Y007426D01*
X006030Y007513D01*
X005857Y007513D01*
X005770Y007426D01*
X005770Y007992D02*
X006117Y008339D01*
X006117Y008426D01*
X006030Y008513D01*
X005857Y008513D01*
X005770Y008426D01*
X005770Y007992D02*
X006117Y007992D01*
X006117Y008992D02*
X005770Y008992D01*
X005944Y008992D02*
X005944Y009513D01*
X005770Y009339D01*
X005857Y009992D02*
X005770Y010079D01*
X006117Y010426D01*
X006117Y010079D01*
X006030Y009992D01*
X005857Y009992D01*
X005770Y010079D02*
X005770Y010426D01*
X005857Y010513D01*
X006030Y010513D01*
X006117Y010426D01*
X007053Y012490D02*
X007173Y012610D01*
X007053Y012730D01*
X007413Y012730D01*
X007413Y012858D02*
X007173Y012858D01*
X007053Y012978D01*
X007173Y013098D01*
X007413Y013098D01*
X007413Y013227D02*
X007053Y013467D01*
X007113Y013595D02*
X007053Y013655D01*
X007053Y013775D01*
X007113Y013835D01*
X007173Y013835D01*
X007413Y013595D01*
X007413Y013835D01*
X007353Y013963D02*
X007113Y013963D01*
X007053Y014023D01*
X007053Y014143D01*
X007113Y014203D01*
X007353Y013963D01*
X007413Y014023D01*
X007413Y014143D01*
X007353Y014203D01*
X007113Y014203D01*
X007113Y014331D02*
X007053Y014392D01*
X007053Y014512D01*
X007113Y014572D01*
X007173Y014572D01*
X007233Y014512D01*
X007293Y014572D01*
X007353Y014572D01*
X007413Y014512D01*
X007413Y014392D01*
X007353Y014331D01*
X007233Y014452D02*
X007233Y014512D01*
X007233Y014700D02*
X007233Y014820D01*
X007053Y014940D02*
X007053Y014700D01*
X007413Y014700D01*
X007413Y014940D01*
X007353Y015068D02*
X007413Y015128D01*
X007413Y015248D01*
X007353Y015308D01*
X007413Y015436D02*
X007293Y015556D01*
X007413Y015677D01*
X007053Y015677D01*
X007053Y015805D02*
X007053Y015985D01*
X007113Y016045D01*
X007233Y016045D01*
X007293Y015985D01*
X007293Y015805D01*
X007413Y015805D02*
X007053Y015805D01*
X007053Y015436D02*
X007413Y015436D01*
X007113Y015308D02*
X007053Y015248D01*
X007053Y015128D01*
X007113Y015068D01*
X007353Y015068D01*
X006590Y016123D02*
X006283Y016123D01*
X006437Y016123D02*
X006437Y016583D01*
X006283Y016430D01*
X009386Y017109D02*
X009386Y017630D01*
X009560Y017456D01*
X009733Y017630D01*
X009733Y017109D01*
X009902Y017196D02*
X009989Y017109D01*
X010162Y017109D01*
X010249Y017196D01*
X010417Y017196D02*
X010504Y017109D01*
X010678Y017109D01*
X010764Y017196D01*
X010764Y017369D01*
X010678Y017456D01*
X010591Y017456D01*
X010417Y017369D01*
X010417Y017630D01*
X010764Y017630D01*
X010933Y017369D02*
X011193Y017369D01*
X011280Y017283D01*
X011280Y017196D01*
X011193Y017109D01*
X011020Y017109D01*
X010933Y017196D01*
X010933Y017369D01*
X011107Y017543D01*
X011280Y017630D01*
X011449Y017630D02*
X011796Y017630D01*
X011964Y017543D02*
X011964Y017456D01*
X012051Y017369D01*
X012225Y017369D01*
X012311Y017283D01*
X012311Y017196D01*
X012225Y017109D01*
X012051Y017109D01*
X011964Y017196D01*
X011964Y017283D01*
X012051Y017369D01*
X012225Y017369D02*
X012311Y017456D01*
X012311Y017543D01*
X012225Y017630D01*
X012051Y017630D01*
X011964Y017543D01*
X011622Y017369D02*
X011449Y017369D01*
X011449Y017109D02*
X011449Y017630D01*
X012480Y017543D02*
X012480Y017196D01*
X012827Y017543D01*
X012827Y017196D01*
X012740Y017109D01*
X012567Y017109D01*
X012480Y017196D01*
X012480Y017543D02*
X012567Y017630D01*
X012740Y017630D01*
X012827Y017543D01*
X012996Y017543D02*
X012996Y017196D01*
X013343Y017543D01*
X013343Y017196D01*
X013256Y017109D01*
X013082Y017109D01*
X012996Y017196D01*
X012996Y017543D02*
X013082Y017630D01*
X013256Y017630D01*
X013343Y017543D01*
X013511Y017369D02*
X013771Y017369D01*
X013858Y017283D01*
X013858Y017196D01*
X013771Y017109D01*
X013598Y017109D01*
X013511Y017196D01*
X013511Y017369D01*
X013685Y017543D01*
X013858Y017630D01*
X014543Y017630D02*
X014543Y017109D01*
X014803Y017109D01*
X014889Y017196D01*
X014889Y017543D01*
X014803Y017630D01*
X014543Y017630D01*
X015058Y017369D02*
X015145Y017456D01*
X015318Y017456D01*
X015405Y017369D01*
X015405Y017283D01*
X015058Y017283D01*
X015058Y017369D02*
X015058Y017196D01*
X015145Y017109D01*
X015318Y017109D01*
X015747Y017109D02*
X015921Y017456D01*
X016089Y017369D02*
X016176Y017456D01*
X016350Y017456D01*
X016436Y017369D01*
X016436Y017283D01*
X016089Y017283D01*
X016089Y017369D02*
X016089Y017196D01*
X016176Y017109D01*
X016350Y017109D01*
X016605Y017109D02*
X016779Y017109D01*
X016692Y017109D02*
X016692Y017630D01*
X016605Y017630D01*
X016949Y017369D02*
X016949Y017196D01*
X017036Y017109D01*
X017209Y017109D01*
X017296Y017196D01*
X017296Y017369D01*
X017209Y017456D01*
X017036Y017456D01*
X016949Y017369D01*
X017464Y017456D02*
X017464Y016936D01*
X017464Y017109D02*
X017725Y017109D01*
X017811Y017196D01*
X017811Y017369D01*
X017725Y017456D01*
X017464Y017456D01*
X017980Y017456D02*
X017980Y017109D01*
X018154Y017109D02*
X018154Y017369D01*
X018240Y017456D01*
X018327Y017369D01*
X018327Y017109D01*
X018496Y017196D02*
X018496Y017369D01*
X018582Y017456D01*
X018756Y017456D01*
X018843Y017369D01*
X018843Y017283D01*
X018496Y017283D01*
X018496Y017196D02*
X018582Y017109D01*
X018756Y017109D01*
X019011Y017109D02*
X019011Y017456D01*
X019271Y017456D01*
X019358Y017369D01*
X019358Y017109D01*
X019614Y017196D02*
X019700Y017109D01*
X019614Y017196D02*
X019614Y017543D01*
X019700Y017456D02*
X019527Y017456D01*
X020386Y017369D02*
X020646Y017369D01*
X020733Y017283D01*
X020733Y017196D01*
X020646Y017109D01*
X020386Y017109D01*
X020386Y017630D01*
X020646Y017630D01*
X020733Y017543D01*
X020733Y017456D01*
X020646Y017369D01*
X020902Y017369D02*
X020989Y017456D01*
X021162Y017456D01*
X021249Y017369D01*
X021249Y017196D01*
X021162Y017109D01*
X020989Y017109D01*
X020902Y017196D01*
X020902Y017369D01*
X021418Y017196D02*
X021504Y017109D01*
X021764Y017109D01*
X021764Y017369D01*
X021678Y017456D01*
X021504Y017456D01*
X021504Y017283D02*
X021764Y017283D01*
X021933Y017283D02*
X022107Y017456D01*
X022193Y017456D01*
X022363Y017369D02*
X022450Y017456D01*
X022710Y017456D01*
X022710Y017630D02*
X022710Y017109D01*
X022450Y017109D01*
X022363Y017196D01*
X022363Y017369D01*
X021933Y017456D02*
X021933Y017109D01*
X021504Y017283D02*
X021418Y017196D01*
X023803Y015957D02*
X023956Y015803D01*
X023880Y015650D02*
X023803Y015573D01*
X023803Y015343D01*
X024263Y015343D01*
X024263Y015573D01*
X024187Y015650D01*
X023880Y015650D01*
X024263Y015803D02*
X024263Y016110D01*
X024263Y015957D02*
X023803Y015957D01*
X024383Y015283D02*
X024383Y017063D01*
X025883Y017063D02*
X025883Y015283D01*
X021816Y014339D02*
X021509Y014339D01*
X021509Y014799D01*
X021356Y014722D02*
X021356Y014569D01*
X021279Y014492D01*
X021049Y014492D01*
X021202Y014492D02*
X021356Y014339D01*
X021049Y014339D02*
X021049Y014799D01*
X021279Y014799D01*
X021356Y014722D01*
X020895Y014722D02*
X020895Y014646D01*
X020588Y014339D01*
X020895Y014339D01*
X020895Y014722D02*
X020819Y014799D01*
X020665Y014799D01*
X020588Y014722D01*
X020435Y014722D02*
X020435Y014646D01*
X020358Y014569D01*
X020435Y014492D01*
X020435Y014415D01*
X020358Y014339D01*
X020205Y014339D01*
X020128Y014415D01*
X019975Y014339D02*
X019668Y014339D01*
X019975Y014646D01*
X019975Y014722D01*
X019898Y014799D01*
X019744Y014799D01*
X019668Y014722D01*
X019514Y014799D02*
X019207Y014799D01*
X019054Y014799D02*
X018747Y014799D01*
X018747Y014339D01*
X018747Y014569D02*
X018900Y014569D01*
X019361Y014339D02*
X019361Y014799D01*
X020128Y014722D02*
X020205Y014799D01*
X020358Y014799D01*
X020435Y014722D01*
X020358Y014569D02*
X020282Y014569D01*
X020523Y012473D02*
X021904Y012473D01*
X021771Y012317D02*
X021694Y012393D01*
X021464Y012393D01*
X021464Y011933D01*
X021694Y011933D01*
X021771Y012010D01*
X021771Y012087D01*
X021694Y012163D01*
X021464Y012163D01*
X021310Y012087D02*
X021310Y012010D01*
X021234Y011933D01*
X021080Y011933D01*
X021004Y012010D01*
X020850Y012010D02*
X020850Y012393D01*
X021004Y012317D02*
X021080Y012393D01*
X021234Y012393D01*
X021310Y012317D01*
X021234Y012163D02*
X021310Y012087D01*
X021234Y012163D02*
X021080Y012163D01*
X021004Y012240D01*
X021004Y012317D01*
X020850Y012010D02*
X020773Y011933D01*
X020620Y011933D01*
X020543Y012010D01*
X020543Y012393D01*
X021694Y012163D02*
X021771Y012240D01*
X021771Y012317D01*
X019117Y010426D02*
X019117Y010079D01*
X019030Y009992D01*
X018857Y009992D01*
X018770Y010079D01*
X019117Y010426D01*
X019030Y010513D01*
X018857Y010513D01*
X018770Y010426D01*
X018770Y010079D01*
X018944Y009513D02*
X018944Y008992D01*
X019117Y008992D02*
X018770Y008992D01*
X018770Y009339D02*
X018944Y009513D01*
X019030Y008513D02*
X018857Y008513D01*
X018770Y008426D01*
X019030Y008513D02*
X019117Y008426D01*
X019117Y008339D01*
X018770Y007992D01*
X019117Y007992D01*
X019030Y007513D02*
X019117Y007426D01*
X019117Y007339D01*
X019030Y007252D01*
X019117Y007166D01*
X019117Y007079D01*
X019030Y006992D01*
X018857Y006992D01*
X018770Y007079D01*
X018944Y007252D02*
X019030Y007252D01*
X019030Y007513D02*
X018857Y007513D01*
X018770Y007426D01*
X019030Y006513D02*
X018770Y006252D01*
X019117Y006252D01*
X019030Y005992D02*
X019030Y006513D01*
X019117Y005513D02*
X018770Y005513D01*
X018770Y005252D01*
X018944Y005339D01*
X019030Y005339D01*
X019117Y005252D01*
X019117Y005079D01*
X019030Y004992D01*
X018857Y004992D01*
X018770Y005079D01*
X019117Y004513D02*
X018944Y004426D01*
X018770Y004252D01*
X019030Y004252D01*
X019117Y004166D01*
X019117Y004079D01*
X019030Y003992D01*
X018857Y003992D01*
X018770Y004079D01*
X018770Y004252D01*
X018780Y003513D02*
X019127Y003513D01*
X019127Y003426D01*
X018780Y003079D01*
X018780Y002992D01*
X017167Y002426D02*
X017167Y002079D01*
X017080Y001992D01*
X016907Y001992D01*
X016820Y002079D01*
X017167Y002426D01*
X017080Y002513D01*
X016907Y002513D01*
X016820Y002426D01*
X016820Y002079D01*
X016167Y001992D02*
X015820Y001992D01*
X015994Y001992D02*
X015994Y002513D01*
X015820Y002339D01*
X015167Y002339D02*
X015167Y002426D01*
X015080Y002513D01*
X014907Y002513D01*
X014820Y002426D01*
X015167Y002339D02*
X014820Y001992D01*
X015167Y001992D01*
X014167Y002079D02*
X014080Y001992D01*
X013907Y001992D01*
X013820Y002079D01*
X013994Y002252D02*
X014080Y002252D01*
X014167Y002166D01*
X014167Y002079D01*
X014080Y002252D02*
X014167Y002339D01*
X014167Y002426D01*
X014080Y002513D01*
X013907Y002513D01*
X013820Y002426D01*
X012051Y002365D02*
X012051Y002018D01*
X011964Y001931D01*
X011791Y001931D01*
X011704Y002018D01*
X012051Y002365D01*
X011964Y002452D01*
X011791Y002452D01*
X011704Y002365D01*
X011704Y002018D01*
X011051Y001931D02*
X010704Y001931D01*
X010878Y001931D02*
X010878Y002452D01*
X010704Y002278D01*
X010051Y002278D02*
X010051Y002365D01*
X009964Y002452D01*
X009791Y002452D01*
X009704Y002365D01*
X010051Y002278D02*
X009704Y001931D01*
X010051Y001931D01*
X009051Y001931D02*
X008704Y002452D01*
X009051Y002452D02*
X008704Y001931D01*
X008051Y002191D02*
X007704Y002191D01*
X007964Y002452D01*
X007964Y001931D01*
X007051Y002018D02*
X006964Y001931D01*
X006791Y001931D01*
X006704Y002018D01*
X006704Y002191D02*
X006878Y002278D01*
X006964Y002278D01*
X007051Y002191D01*
X007051Y002018D01*
X006704Y002191D02*
X006704Y002452D01*
X007051Y002452D01*
X007053Y012490D02*
X007413Y012490D01*
X007233Y012858D02*
X007233Y013098D01*
X007053Y013227D02*
X007413Y013467D01*
X010188Y013535D02*
X010188Y013765D01*
X010265Y013842D01*
X010419Y013842D01*
X010495Y013765D01*
X010495Y013535D01*
X010495Y013688D02*
X010649Y013842D01*
X010572Y013995D02*
X010649Y014072D01*
X010649Y014226D01*
X010572Y014302D01*
X010495Y014302D01*
X010419Y014226D01*
X010419Y014072D01*
X010342Y013995D01*
X010265Y013995D01*
X010188Y014072D01*
X010188Y014226D01*
X010265Y014302D01*
X010265Y014456D02*
X010188Y014532D01*
X010188Y014686D01*
X010265Y014763D01*
X010342Y014763D01*
X010649Y014456D01*
X010649Y014763D01*
X010572Y014916D02*
X010649Y014993D01*
X010649Y015146D01*
X010572Y015223D01*
X010495Y015223D01*
X010419Y015146D01*
X010419Y015069D01*
X010419Y015146D02*
X010342Y015223D01*
X010265Y015223D01*
X010188Y015146D01*
X010188Y014993D01*
X010265Y014916D01*
X010265Y015376D02*
X010188Y015453D01*
X010188Y015607D01*
X010265Y015683D01*
X010342Y015683D01*
X010649Y015376D01*
X010649Y015683D01*
X011303Y016240D02*
X011380Y016163D01*
X011533Y016163D01*
X011610Y016240D01*
X011610Y016316D01*
X011533Y016393D01*
X011380Y016393D01*
X011303Y016470D01*
X011303Y016547D01*
X011380Y016623D01*
X011533Y016623D01*
X011610Y016547D01*
X011764Y016393D02*
X011840Y016470D01*
X011994Y016470D01*
X012071Y016393D01*
X012071Y016316D01*
X011764Y016316D01*
X011764Y016240D02*
X011764Y016393D01*
X011764Y016240D02*
X011840Y016163D01*
X011994Y016163D01*
X012224Y016163D02*
X012224Y016470D01*
X012377Y016470D02*
X012224Y016316D01*
X012377Y016470D02*
X012454Y016470D01*
X012608Y016470D02*
X012684Y016470D01*
X012684Y016163D01*
X012608Y016163D02*
X012761Y016163D01*
X012914Y016240D02*
X012991Y016316D01*
X013221Y016316D01*
X013221Y016393D02*
X013221Y016163D01*
X012991Y016163D01*
X012914Y016240D01*
X012991Y016470D02*
X013145Y016470D01*
X013221Y016393D01*
X013375Y016163D02*
X013528Y016163D01*
X013452Y016163D02*
X013452Y016623D01*
X013375Y016623D01*
X012684Y016623D02*
X012684Y016700D01*
X014142Y016547D02*
X014142Y016470D01*
X014219Y016393D01*
X014372Y016393D01*
X014449Y016316D01*
X014449Y016240D01*
X014372Y016163D01*
X014219Y016163D01*
X014142Y016240D01*
X014142Y016547D02*
X014219Y016623D01*
X014372Y016623D01*
X014449Y016547D01*
X014602Y016393D02*
X014679Y016470D01*
X014833Y016470D01*
X014909Y016393D01*
X014909Y016316D01*
X014602Y016316D01*
X014602Y016240D02*
X014602Y016393D01*
X014602Y016240D02*
X014679Y016163D01*
X014833Y016163D01*
X015063Y016163D02*
X015216Y016163D01*
X015139Y016163D02*
X015139Y016623D01*
X015063Y016623D01*
X015370Y016393D02*
X015446Y016470D01*
X015600Y016470D01*
X015677Y016393D01*
X015677Y016316D01*
X015370Y016316D01*
X015370Y016240D02*
X015370Y016393D01*
X015370Y016240D02*
X015446Y016163D01*
X015600Y016163D01*
X015830Y016240D02*
X015907Y016163D01*
X016137Y016163D01*
X016367Y016240D02*
X016444Y016163D01*
X016367Y016240D02*
X016367Y016547D01*
X016290Y016470D02*
X016444Y016470D01*
X016137Y016470D02*
X015907Y016470D01*
X015830Y016393D01*
X015830Y016240D01*
X015747Y017109D02*
X015574Y017456D01*
X017980Y017456D02*
X018067Y017456D01*
X018154Y017369D01*
X017172Y015133D02*
X017249Y015056D01*
X017249Y014826D01*
X016788Y014826D01*
X016788Y015056D01*
X016865Y015133D01*
X016942Y015133D01*
X017019Y015056D01*
X017019Y014826D01*
X017095Y014672D02*
X017172Y014672D01*
X017249Y014596D01*
X017249Y014442D01*
X017172Y014365D01*
X017172Y014212D02*
X016788Y014212D01*
X016865Y014365D02*
X016942Y014365D01*
X017019Y014442D01*
X017019Y014596D01*
X017095Y014672D01*
X016865Y014672D02*
X016788Y014596D01*
X016788Y014442D01*
X016865Y014365D01*
X017172Y014212D02*
X017249Y014135D01*
X017249Y013982D01*
X017172Y013905D01*
X016788Y013905D01*
X017019Y015056D02*
X017095Y015133D01*
X017172Y015133D01*
X010649Y013535D02*
X010188Y013535D01*
X009902Y017196D02*
X009902Y017543D01*
X009989Y017630D01*
X010162Y017630D01*
X010249Y017543D01*
X019263Y021162D02*
X019647Y021162D01*
X019723Y021239D01*
X019723Y021392D01*
X019647Y021469D01*
X019263Y021469D01*
X019340Y021622D02*
X019416Y021622D01*
X019493Y021699D01*
X019493Y021852D01*
X019570Y021929D01*
X019647Y021929D01*
X019723Y021852D01*
X019723Y021699D01*
X019647Y021622D01*
X019340Y021622D02*
X019263Y021699D01*
X019263Y021852D01*
X019340Y021929D01*
X019263Y022083D02*
X019263Y022313D01*
X019340Y022390D01*
X019416Y022390D01*
X019493Y022313D01*
X019493Y022083D01*
X019493Y022313D02*
X019570Y022390D01*
X019647Y022390D01*
X019723Y022313D01*
X019723Y022083D01*
X019263Y022083D01*
X023573Y022159D02*
X023650Y022083D01*
X023957Y022083D01*
X024033Y022159D01*
X024033Y022313D01*
X023957Y022390D01*
X023650Y022390D02*
X023573Y022313D01*
X023573Y022159D01*
X023650Y021929D02*
X023573Y021852D01*
X023573Y021622D01*
X024033Y021622D01*
X024033Y021852D01*
X023957Y021929D01*
X023650Y021929D01*
X022910Y009493D02*
X022910Y009187D01*
X022757Y009033D01*
X022604Y009187D01*
X022604Y009493D01*
X022450Y009493D02*
X022143Y009493D01*
X022143Y009263D01*
X022297Y009340D01*
X022373Y009340D01*
X022450Y009263D01*
X022450Y009110D01*
X022373Y009033D01*
X022220Y009033D01*
X022143Y009110D01*
X022220Y008493D02*
X022373Y008493D01*
X022450Y008417D01*
X022450Y008340D01*
X022373Y008263D01*
X022450Y008187D01*
X022450Y008110D01*
X022373Y008033D01*
X022220Y008033D01*
X022143Y008110D01*
X022297Y008263D02*
X022373Y008263D01*
X022143Y008417D02*
X022220Y008493D01*
X022604Y008110D02*
X022604Y008033D01*
X022680Y008033D01*
X022680Y008110D01*
X022604Y008110D01*
X022834Y008110D02*
X022910Y008033D01*
X023064Y008033D01*
X023141Y008110D01*
X023141Y008187D01*
X023064Y008263D01*
X022987Y008263D01*
X023064Y008263D02*
X023141Y008340D01*
X023141Y008417D01*
X023064Y008493D01*
X022910Y008493D01*
X022834Y008417D01*
X023294Y008493D02*
X023294Y008187D01*
X023448Y008033D01*
X023601Y008187D01*
X023601Y008493D01*
D11*
X023427Y005448D02*
X022543Y005448D01*
X022558Y005388D02*
X022752Y005388D01*
X022655Y005388D02*
X022655Y005098D01*
X022853Y005098D02*
X022853Y005388D01*
X022950Y005291D01*
X023046Y005388D01*
X023046Y005098D01*
X023147Y005146D02*
X023196Y005098D01*
X023293Y005098D01*
X023341Y005146D01*
X023341Y005194D01*
X023293Y005243D01*
X023196Y005243D01*
X023147Y005291D01*
X023147Y005339D01*
X023196Y005388D01*
X023293Y005388D01*
X023341Y005339D01*
X019894Y008322D02*
X019894Y008445D01*
X019832Y008507D01*
X019708Y008507D01*
X019708Y008383D01*
X019585Y008260D02*
X019832Y008260D01*
X019894Y008322D01*
X019585Y008260D02*
X019523Y008322D01*
X019523Y008445D01*
X019585Y008507D01*
X019523Y008628D02*
X019894Y008875D01*
X019523Y008875D01*
X019523Y008997D02*
X019523Y009182D01*
X019585Y009243D01*
X019832Y009243D01*
X019894Y009182D01*
X019894Y008997D01*
X019523Y008997D01*
X019523Y008628D02*
X019894Y008628D01*
X012751Y004652D02*
X012654Y004604D01*
X012557Y004507D01*
X012702Y004507D01*
X012751Y004458D01*
X012751Y004410D01*
X012702Y004362D01*
X012606Y004362D01*
X012557Y004410D01*
X012557Y004507D01*
X012456Y004604D02*
X012456Y004410D01*
X012408Y004362D01*
X012311Y004362D01*
X012263Y004410D01*
X012456Y004604D01*
X012408Y004652D01*
X012311Y004652D01*
X012263Y004604D01*
X012263Y004410D01*
X012161Y004410D02*
X012113Y004362D01*
X012016Y004362D01*
X011968Y004410D01*
X012161Y004604D01*
X012161Y004410D01*
X011968Y004410D02*
X011968Y004604D01*
X012016Y004652D01*
X012113Y004652D01*
X012161Y004604D01*
X011867Y004604D02*
X011867Y004555D01*
X011818Y004507D01*
X011722Y004507D01*
X011673Y004555D01*
X011673Y004604D01*
X011722Y004652D01*
X011818Y004652D01*
X011867Y004604D01*
X011818Y004507D02*
X011867Y004458D01*
X011867Y004410D01*
X011818Y004362D01*
X011722Y004362D01*
X011673Y004410D01*
X011673Y004458D01*
X011722Y004507D01*
X011572Y004652D02*
X011379Y004652D01*
X011379Y004362D01*
X011277Y004410D02*
X011277Y004458D01*
X011229Y004507D01*
X011084Y004507D01*
X011084Y004410D01*
X011132Y004362D01*
X011229Y004362D01*
X011277Y004410D01*
X011379Y004507D02*
X011475Y004507D01*
X011277Y004652D02*
X011181Y004604D01*
X011084Y004507D01*
X010983Y004507D02*
X010983Y004410D01*
X010934Y004362D01*
X010838Y004362D01*
X010789Y004410D01*
X010789Y004507D02*
X010886Y004555D01*
X010934Y004555D01*
X010983Y004507D01*
X010983Y004652D02*
X010789Y004652D01*
X010789Y004507D01*
X010688Y004604D02*
X010640Y004652D01*
X010543Y004652D01*
X010495Y004604D01*
X010495Y004410D01*
X010543Y004362D01*
X010640Y004362D01*
X010688Y004410D01*
X010393Y004362D02*
X010393Y004652D01*
X010297Y004555D01*
X010200Y004652D01*
X010200Y004362D01*
X010473Y008737D02*
X010570Y008737D01*
X010618Y008785D01*
X010618Y009027D01*
X010720Y008930D02*
X010816Y009027D01*
X010816Y008737D01*
X010720Y008737D02*
X010913Y008737D01*
X010473Y008737D02*
X010425Y008785D01*
X010425Y009027D01*
X003698Y010866D02*
X003698Y010915D01*
X003650Y010963D01*
X003408Y010963D01*
X003408Y010915D02*
X003408Y011012D01*
X003408Y011113D02*
X003408Y011258D01*
X003456Y011306D01*
X003553Y011306D01*
X003602Y011258D01*
X003602Y011113D01*
X003698Y011113D02*
X003408Y011113D01*
X003698Y010866D02*
X003650Y010818D01*
X003698Y011407D02*
X003505Y011601D01*
X003456Y011601D01*
X003408Y011552D01*
X003408Y011456D01*
X003456Y011407D01*
X003698Y011407D02*
X003698Y011601D01*
X000958Y011587D02*
X000958Y011781D01*
X000958Y011684D02*
X000668Y011684D01*
X000765Y011587D01*
X000813Y011486D02*
X000862Y011438D01*
X000862Y011293D01*
X000958Y011293D02*
X000668Y011293D01*
X000668Y011438D01*
X000716Y011486D01*
X000813Y011486D01*
X000668Y011192D02*
X000668Y011095D01*
X000668Y011143D02*
X000910Y011143D01*
X000958Y011095D01*
X000958Y011046D01*
X000910Y010998D01*
X002961Y014271D02*
X002913Y014319D01*
X002913Y014416D01*
X002961Y014464D01*
X002913Y014565D02*
X003058Y014565D01*
X003010Y014662D01*
X003010Y014710D01*
X003058Y014759D01*
X003155Y014759D01*
X003203Y014710D01*
X003203Y014614D01*
X003155Y014565D01*
X003155Y014464D02*
X003203Y014416D01*
X003203Y014319D01*
X003155Y014271D01*
X002961Y014271D01*
X002913Y014565D02*
X002913Y014759D01*
X003311Y007283D02*
X003558Y007036D01*
X003558Y006915D02*
X003435Y006792D01*
X003435Y006853D02*
X003435Y006668D01*
X003558Y006668D02*
X003188Y006668D01*
X003188Y006853D01*
X003250Y006915D01*
X003373Y006915D01*
X003435Y006853D01*
X003311Y007036D02*
X003558Y007283D01*
X001058Y007283D02*
X000811Y007036D01*
X000688Y006915D02*
X000688Y006668D01*
X000688Y006792D02*
X001058Y006792D01*
X001058Y007036D02*
X000811Y007283D01*
X028396Y019880D02*
X028590Y019880D01*
X028493Y019784D02*
X028493Y019977D01*
X028590Y020078D02*
X028638Y020078D01*
X028590Y020078D02*
X028396Y020272D01*
X028348Y020272D01*
X028348Y020078D01*
X028590Y020373D02*
X028590Y020421D01*
X028638Y020421D01*
X028638Y020373D01*
X028590Y020373D01*
X028590Y020520D02*
X028638Y020569D01*
X028638Y020665D01*
X028590Y020714D01*
X028493Y020714D01*
X028445Y020665D01*
X028445Y020617D01*
X028493Y020520D01*
X028348Y020520D01*
X028348Y020714D01*
X028348Y020815D02*
X028542Y020815D01*
X028638Y020912D01*
X028542Y021008D01*
X028348Y021008D01*
X028493Y021109D02*
X028493Y021303D01*
X028396Y021404D02*
X028348Y021452D01*
X028348Y021549D01*
X028396Y021598D01*
X028445Y021598D01*
X028638Y021404D01*
X028638Y021598D01*
X028590Y021699D02*
X028638Y021747D01*
X028638Y021844D01*
X028590Y021892D01*
X028493Y021892D01*
X028445Y021844D01*
X028445Y021795D01*
X028493Y021699D01*
X028348Y021699D01*
X028348Y021892D01*
X028348Y021993D02*
X028542Y021993D01*
X028638Y022090D01*
X028542Y022187D01*
X028348Y022187D01*
D12*
X012880Y008102D02*
X010260Y008102D01*
X010120Y007962D01*
X010120Y005342D01*
X012880Y005342D01*
X012880Y008102D01*
X010279Y007802D02*
X010281Y007825D01*
X010287Y007848D01*
X010296Y007869D01*
X010309Y007889D01*
X010325Y007906D01*
X010343Y007920D01*
X010363Y007931D01*
X010385Y007939D01*
X010408Y007943D01*
X010432Y007943D01*
X010455Y007939D01*
X010477Y007931D01*
X010497Y007920D01*
X010515Y007906D01*
X010531Y007889D01*
X010544Y007869D01*
X010553Y007848D01*
X010559Y007825D01*
X010561Y007802D01*
X010559Y007779D01*
X010553Y007756D01*
X010544Y007735D01*
X010531Y007715D01*
X010515Y007698D01*
X010497Y007684D01*
X010477Y007673D01*
X010455Y007665D01*
X010432Y007661D01*
X010408Y007661D01*
X010385Y007665D01*
X010363Y007673D01*
X010343Y007684D01*
X010325Y007698D01*
X010309Y007715D01*
X010296Y007735D01*
X010287Y007756D01*
X010281Y007779D01*
X010279Y007802D01*
X008653Y011693D02*
X006013Y011693D01*
X005990Y011695D01*
X005967Y011700D01*
X005945Y011709D01*
X005925Y011722D01*
X005907Y011737D01*
X005892Y011755D01*
X005879Y011775D01*
X005870Y011797D01*
X005865Y011820D01*
X005863Y011843D01*
X005863Y016663D01*
X005865Y016686D01*
X005870Y016709D01*
X005879Y016731D01*
X005892Y016751D01*
X005907Y016769D01*
X005925Y016784D01*
X005945Y016797D01*
X005967Y016806D01*
X005990Y016811D01*
X006013Y016813D01*
X006833Y016813D01*
X007833Y016813D01*
X008653Y016813D01*
X008676Y016811D01*
X008699Y016806D01*
X008721Y016797D01*
X008741Y016784D01*
X008759Y016769D01*
X008774Y016751D01*
X008787Y016731D01*
X008796Y016709D01*
X008801Y016686D01*
X008803Y016663D01*
X008803Y011843D01*
X008801Y011820D01*
X008796Y011797D01*
X008787Y011775D01*
X008774Y011755D01*
X008759Y011737D01*
X008741Y011722D01*
X008721Y011709D01*
X008699Y011700D01*
X008676Y011695D01*
X008653Y011693D01*
X007833Y016813D02*
X007831Y016769D01*
X007825Y016726D01*
X007816Y016684D01*
X007803Y016642D01*
X007786Y016602D01*
X007766Y016563D01*
X007743Y016526D01*
X007716Y016492D01*
X007687Y016459D01*
X007654Y016430D01*
X007620Y016403D01*
X007583Y016380D01*
X007544Y016360D01*
X007504Y016343D01*
X007462Y016330D01*
X007420Y016321D01*
X007377Y016315D01*
X007333Y016313D01*
X007289Y016315D01*
X007246Y016321D01*
X007204Y016330D01*
X007162Y016343D01*
X007122Y016360D01*
X007083Y016380D01*
X007046Y016403D01*
X007012Y016430D01*
X006979Y016459D01*
X006950Y016492D01*
X006923Y016526D01*
X006900Y016563D01*
X006880Y016602D01*
X006863Y016642D01*
X006850Y016684D01*
X006841Y016726D01*
X006835Y016769D01*
X006833Y016813D01*
X020750Y002722D02*
X021250Y002722D01*
X021500Y002472D01*
X021500Y000972D01*
X021250Y000722D01*
X020750Y000722D01*
X020500Y000972D01*
X020500Y002472D01*
X020750Y002722D01*
X021500Y002472D02*
X021750Y002722D01*
X022250Y002722D01*
X022500Y002472D01*
X022500Y000972D01*
X022250Y000722D01*
X021750Y000722D01*
X021500Y000972D01*
X022500Y000972D02*
X022750Y000722D01*
X023250Y000722D01*
X023500Y000972D01*
X023500Y002472D01*
X023250Y002722D01*
X022750Y002722D01*
X022500Y002472D01*
X023500Y002472D02*
X023750Y002722D01*
X024250Y002722D01*
X024500Y002472D01*
X024500Y000972D01*
X024250Y000722D01*
X023750Y000722D01*
X023500Y000972D01*
X024500Y000972D02*
X024750Y000722D01*
X025250Y000722D01*
X025500Y000972D01*
X025500Y002472D01*
X025250Y002722D01*
X024750Y002722D01*
X024500Y002472D01*
X025500Y002472D02*
X025750Y002722D01*
X026250Y002722D01*
X026500Y002472D01*
X026500Y000972D01*
X026250Y000722D01*
X025750Y000722D01*
X025500Y000972D01*
X026500Y000972D02*
X026750Y000722D01*
X027250Y000722D01*
X027500Y000972D01*
X027500Y002472D01*
X027250Y002722D01*
X026750Y002722D01*
X026500Y002472D01*
D13*
X000513Y002928D02*
X000513Y001228D01*
X001309Y000878D02*
X002113Y000878D01*
X002913Y001228D02*
X002913Y002928D01*
X002113Y003278D02*
X001320Y003278D01*
X001013Y002078D02*
X001015Y002130D01*
X001021Y002182D01*
X001031Y002234D01*
X001044Y002284D01*
X001061Y002334D01*
X001082Y002382D01*
X001107Y002428D01*
X001135Y002472D01*
X001166Y002514D01*
X001200Y002554D01*
X001237Y002591D01*
X001277Y002625D01*
X001319Y002656D01*
X001363Y002684D01*
X001409Y002709D01*
X001457Y002730D01*
X001507Y002747D01*
X001557Y002760D01*
X001609Y002770D01*
X001661Y002776D01*
X001713Y002778D01*
X001765Y002776D01*
X001817Y002770D01*
X001869Y002760D01*
X001919Y002747D01*
X001969Y002730D01*
X002017Y002709D01*
X002063Y002684D01*
X002107Y002656D01*
X002149Y002625D01*
X002189Y002591D01*
X002226Y002554D01*
X002260Y002514D01*
X002291Y002472D01*
X002319Y002428D01*
X002344Y002382D01*
X002365Y002334D01*
X002382Y002284D01*
X002395Y002234D01*
X002405Y002182D01*
X002411Y002130D01*
X002413Y002078D01*
X002411Y002026D01*
X002405Y001974D01*
X002395Y001922D01*
X002382Y001872D01*
X002365Y001822D01*
X002344Y001774D01*
X002319Y001728D01*
X002291Y001684D01*
X002260Y001642D01*
X002226Y001602D01*
X002189Y001565D01*
X002149Y001531D01*
X002107Y001500D01*
X002063Y001472D01*
X002017Y001447D01*
X001969Y001426D01*
X001919Y001409D01*
X001869Y001396D01*
X001817Y001386D01*
X001765Y001380D01*
X001713Y001378D01*
X001661Y001380D01*
X001609Y001386D01*
X001557Y001396D01*
X001507Y001409D01*
X001457Y001426D01*
X001409Y001447D01*
X001363Y001472D01*
X001319Y001500D01*
X001277Y001531D01*
X001237Y001565D01*
X001200Y001602D01*
X001166Y001642D01*
X001135Y001684D01*
X001107Y001728D01*
X001082Y001774D01*
X001061Y001822D01*
X001044Y001872D01*
X001031Y001922D01*
X001021Y001974D01*
X001015Y002026D01*
X001013Y002078D01*
X004500Y001471D02*
X004500Y000971D01*
X004750Y000721D01*
X005250Y000721D01*
X005500Y000971D01*
X005750Y000721D01*
X006250Y000721D01*
X006500Y000971D01*
X006750Y000721D01*
X007250Y000721D01*
X007500Y000971D01*
X007750Y000721D01*
X008250Y000721D01*
X008500Y000971D01*
X008750Y000721D01*
X009250Y000721D01*
X009500Y000971D01*
X009750Y000721D01*
X010250Y000721D01*
X010500Y000971D01*
X010750Y000721D01*
X011250Y000721D01*
X011500Y000971D01*
X011750Y000721D01*
X012250Y000721D01*
X012500Y000971D01*
X012500Y001471D01*
X012250Y001721D01*
X011750Y001721D01*
X011500Y001471D01*
X011250Y001721D01*
X010750Y001721D01*
X010500Y001471D01*
X010250Y001721D01*
X009750Y001721D01*
X009500Y001471D01*
X009250Y001721D01*
X008750Y001721D01*
X008500Y001471D01*
X008250Y001721D01*
X007750Y001721D01*
X007500Y001471D01*
X007250Y001721D01*
X006750Y001721D01*
X006500Y001471D01*
X006250Y001721D01*
X005750Y001721D01*
X005500Y001471D01*
X005250Y001721D01*
X004750Y001721D01*
X004500Y001471D01*
X004750Y002722D02*
X004500Y002972D01*
X004500Y003472D01*
X004750Y003722D01*
X004500Y003972D01*
X004500Y004472D01*
X004750Y004722D01*
X004500Y004972D01*
X004500Y005472D01*
X004750Y005722D01*
X004500Y005972D01*
X004500Y006472D01*
X004750Y006722D01*
X004500Y006972D01*
X004500Y007472D01*
X004750Y007722D01*
X004500Y007972D01*
X004500Y008472D01*
X004750Y008722D01*
X004500Y008972D01*
X004500Y009472D01*
X004750Y009722D01*
X004500Y009972D01*
X004500Y010472D01*
X004750Y010722D01*
X005250Y010722D01*
X005500Y010472D01*
X005500Y009972D01*
X005250Y009722D01*
X005500Y009472D01*
X005500Y008972D01*
X005250Y008722D01*
X005500Y008472D01*
X005500Y007972D01*
X005250Y007722D01*
X005500Y007472D01*
X005500Y006972D01*
X005250Y006722D01*
X005500Y006472D01*
X005500Y005972D01*
X005250Y005722D01*
X005500Y005472D01*
X005500Y004972D01*
X005250Y004722D01*
X005500Y004472D01*
X005500Y003972D01*
X005250Y003722D01*
X005500Y003472D01*
X005500Y002972D01*
X005250Y002722D01*
X004750Y002722D01*
X003127Y005958D02*
X002340Y005958D01*
X002340Y006509D01*
X002127Y006509D02*
X002127Y005958D01*
X001340Y005958D01*
X001340Y006509D01*
X001458Y006785D02*
X001733Y006785D01*
X001497Y007021D01*
X001969Y007021D01*
X001733Y006785D01*
X002009Y006785D01*
X002458Y006785D02*
X002733Y006785D01*
X002497Y007021D01*
X002969Y007021D01*
X002733Y006785D01*
X003009Y006785D01*
X003127Y006509D02*
X003127Y005958D01*
X003127Y007297D02*
X003127Y007848D01*
X002340Y007848D01*
X002340Y007297D01*
X002127Y007297D02*
X002127Y007848D01*
X001340Y007848D01*
X001340Y007297D01*
X001483Y010653D02*
X001233Y010903D01*
X001233Y011403D01*
X001483Y011653D01*
X001233Y011903D01*
X001233Y012403D01*
X001483Y012653D01*
X001983Y012653D01*
X002233Y012403D01*
X002483Y012653D01*
X002983Y012653D01*
X003233Y012403D01*
X003233Y011903D01*
X002983Y011653D01*
X003233Y011403D01*
X003233Y010903D01*
X002983Y010653D01*
X002483Y010653D01*
X002233Y010903D01*
X002233Y011403D01*
X002483Y011653D01*
X002233Y011903D01*
X002233Y012403D01*
X002233Y011903D01*
X001983Y011653D01*
X002233Y011403D01*
X002233Y010903D01*
X001983Y010653D01*
X001483Y010653D01*
X003468Y014993D02*
X003968Y014993D01*
X001150Y017801D02*
X013276Y017801D01*
X013276Y022643D01*
X001150Y022643D01*
X001150Y017801D01*
X011500Y010472D02*
X011500Y009972D01*
X012150Y010722D02*
X014850Y010722D01*
X014909Y010724D01*
X014967Y010730D01*
X015026Y010739D01*
X015083Y010753D01*
X015139Y010770D01*
X015194Y010791D01*
X015248Y010815D01*
X015300Y010843D01*
X015350Y010874D01*
X015398Y010908D01*
X015443Y010945D01*
X015486Y010986D01*
X015527Y011029D01*
X015564Y011074D01*
X015598Y011122D01*
X015629Y011172D01*
X015657Y011224D01*
X015681Y011278D01*
X015702Y011333D01*
X015719Y011389D01*
X015733Y011446D01*
X015742Y011505D01*
X015748Y011563D01*
X015750Y011622D01*
X015748Y011681D01*
X015742Y011739D01*
X015733Y011798D01*
X015719Y011855D01*
X015702Y011911D01*
X015681Y011966D01*
X015657Y012020D01*
X015629Y012072D01*
X015598Y012122D01*
X015564Y012170D01*
X015527Y012215D01*
X015486Y012258D01*
X015443Y012299D01*
X015398Y012336D01*
X015350Y012370D01*
X015300Y012401D01*
X015248Y012429D01*
X015194Y012453D01*
X015139Y012474D01*
X015083Y012491D01*
X015026Y012505D01*
X014967Y012514D01*
X014909Y012520D01*
X014850Y012522D01*
X012150Y012522D01*
X012091Y012520D01*
X012033Y012514D01*
X011974Y012505D01*
X011917Y012491D01*
X011861Y012474D01*
X011806Y012453D01*
X011752Y012429D01*
X011700Y012401D01*
X011650Y012370D01*
X011602Y012336D01*
X011557Y012299D01*
X011514Y012258D01*
X011473Y012215D01*
X011436Y012170D01*
X011402Y012122D01*
X011371Y012072D01*
X011343Y012020D01*
X011319Y011966D01*
X011298Y011911D01*
X011281Y011855D01*
X011267Y011798D01*
X011258Y011739D01*
X011252Y011681D01*
X011250Y011622D01*
X011252Y011563D01*
X011258Y011505D01*
X011267Y011446D01*
X011281Y011389D01*
X011298Y011333D01*
X011319Y011278D01*
X011343Y011224D01*
X011371Y011172D01*
X011402Y011122D01*
X011436Y011074D01*
X011473Y011029D01*
X011514Y010986D01*
X011557Y010945D01*
X011602Y010908D01*
X011650Y010874D01*
X011700Y010843D01*
X011752Y010815D01*
X011806Y010791D01*
X011861Y010770D01*
X011917Y010753D01*
X011974Y010739D01*
X012033Y010730D01*
X012091Y010724D01*
X012150Y010722D01*
X015497Y008840D02*
X015497Y008340D01*
X016050Y009972D02*
X016050Y010472D01*
X017500Y010472D02*
X017500Y009972D01*
X017750Y009722D01*
X017500Y009472D01*
X017500Y008972D01*
X017750Y008722D01*
X017500Y008472D01*
X017500Y007972D01*
X017750Y007722D01*
X017500Y007472D01*
X017500Y006972D01*
X017750Y006722D01*
X017500Y006472D01*
X017500Y005972D01*
X017750Y005722D01*
X017500Y005472D01*
X017500Y004972D01*
X017750Y004722D01*
X017500Y004472D01*
X017500Y003972D01*
X017750Y003722D01*
X017500Y003472D01*
X017500Y002972D01*
X017750Y002722D01*
X018250Y002722D01*
X018500Y002972D01*
X018500Y003472D01*
X018250Y003722D01*
X018500Y003972D01*
X018500Y004472D01*
X018250Y004722D01*
X018500Y004972D01*
X018500Y005472D01*
X018250Y005722D01*
X018500Y005972D01*
X018500Y006472D01*
X018250Y006722D01*
X018500Y006972D01*
X018500Y007472D01*
X018250Y007722D01*
X018500Y007972D01*
X018500Y008472D01*
X018250Y008722D01*
X018500Y008972D01*
X018500Y009472D01*
X018250Y009722D01*
X018500Y009972D01*
X018500Y010472D01*
X018250Y010722D01*
X017750Y010722D01*
X017500Y010472D01*
X020000Y010972D02*
X020250Y010722D01*
X020750Y010722D01*
X021000Y010972D01*
X021250Y010722D01*
X021750Y010722D01*
X022000Y010972D01*
X022000Y011472D01*
X021750Y011722D01*
X021250Y011722D01*
X021000Y011472D01*
X020750Y011722D01*
X020250Y011722D01*
X020000Y011472D01*
X020000Y010972D01*
X020250Y009722D02*
X020750Y009722D01*
X021000Y009472D01*
X021250Y009722D01*
X021750Y009722D01*
X022000Y009472D01*
X022000Y008972D01*
X021750Y008722D01*
X021250Y008722D01*
X021000Y008472D01*
X020750Y008722D01*
X020250Y008722D01*
X020000Y008472D01*
X020000Y007972D01*
X020250Y007722D01*
X020750Y007722D01*
X021000Y007972D01*
X021250Y007722D01*
X021750Y007722D01*
X022000Y007972D01*
X022000Y008472D01*
X021750Y008722D01*
X021250Y008722D01*
X021000Y008972D01*
X020750Y008722D01*
X020250Y008722D01*
X020000Y008972D01*
X020000Y009472D01*
X020250Y009722D01*
X022500Y007272D02*
X022750Y007522D01*
X023250Y007522D01*
X023500Y007272D01*
X023500Y006772D01*
X023250Y006522D01*
X023500Y006272D01*
X023500Y005772D01*
X023250Y005522D01*
X022750Y005522D01*
X022500Y005772D01*
X022500Y006272D01*
X022750Y006522D01*
X022500Y006772D01*
X022500Y007272D01*
X023863Y006903D02*
X026443Y006903D01*
X026443Y008203D01*
X023863Y008203D01*
X023863Y006903D01*
X026899Y007003D02*
X026901Y007065D01*
X026907Y007128D01*
X026917Y007189D01*
X026931Y007250D01*
X026948Y007310D01*
X026969Y007369D01*
X026995Y007426D01*
X027023Y007481D01*
X027055Y007535D01*
X027091Y007586D01*
X027129Y007636D01*
X027171Y007682D01*
X027215Y007726D01*
X027263Y007767D01*
X027312Y007805D01*
X027364Y007839D01*
X027418Y007870D01*
X027474Y007898D01*
X027532Y007922D01*
X027591Y007943D01*
X027651Y007959D01*
X027712Y007972D01*
X027774Y007981D01*
X027836Y007986D01*
X027899Y007987D01*
X027961Y007984D01*
X028023Y007977D01*
X028085Y007966D01*
X028145Y007951D01*
X028205Y007933D01*
X028263Y007911D01*
X028320Y007885D01*
X028375Y007855D01*
X028428Y007822D01*
X028479Y007786D01*
X028527Y007747D01*
X028573Y007704D01*
X028616Y007659D01*
X028656Y007611D01*
X028693Y007561D01*
X028727Y007508D01*
X028758Y007454D01*
X028784Y007398D01*
X028808Y007340D01*
X028827Y007280D01*
X028843Y007220D01*
X028855Y007158D01*
X028863Y007097D01*
X028867Y007034D01*
X028867Y006972D01*
X028863Y006909D01*
X028855Y006848D01*
X028843Y006786D01*
X028827Y006726D01*
X028808Y006666D01*
X028784Y006608D01*
X028758Y006552D01*
X028727Y006498D01*
X028693Y006445D01*
X028656Y006395D01*
X028616Y006347D01*
X028573Y006302D01*
X028527Y006259D01*
X028479Y006220D01*
X028428Y006184D01*
X028375Y006151D01*
X028320Y006121D01*
X028263Y006095D01*
X028205Y006073D01*
X028145Y006055D01*
X028085Y006040D01*
X028023Y006029D01*
X027961Y006022D01*
X027899Y006019D01*
X027836Y006020D01*
X027774Y006025D01*
X027712Y006034D01*
X027651Y006047D01*
X027591Y006063D01*
X027532Y006084D01*
X027474Y006108D01*
X027418Y006136D01*
X027364Y006167D01*
X027312Y006201D01*
X027263Y006239D01*
X027215Y006280D01*
X027171Y006324D01*
X027129Y006370D01*
X027091Y006420D01*
X027055Y006471D01*
X027023Y006525D01*
X026995Y006580D01*
X026969Y006637D01*
X026948Y006696D01*
X026931Y006756D01*
X026917Y006817D01*
X026907Y006878D01*
X026901Y006941D01*
X026899Y007003D01*
X028137Y006641D02*
X028637Y006641D01*
X028697Y009151D02*
X028197Y009151D01*
X026959Y009513D02*
X026961Y009575D01*
X026967Y009638D01*
X026977Y009699D01*
X026991Y009760D01*
X027008Y009820D01*
X027029Y009879D01*
X027055Y009936D01*
X027083Y009991D01*
X027115Y010045D01*
X027151Y010096D01*
X027189Y010146D01*
X027231Y010192D01*
X027275Y010236D01*
X027323Y010277D01*
X027372Y010315D01*
X027424Y010349D01*
X027478Y010380D01*
X027534Y010408D01*
X027592Y010432D01*
X027651Y010453D01*
X027711Y010469D01*
X027772Y010482D01*
X027834Y010491D01*
X027896Y010496D01*
X027959Y010497D01*
X028021Y010494D01*
X028083Y010487D01*
X028145Y010476D01*
X028205Y010461D01*
X028265Y010443D01*
X028323Y010421D01*
X028380Y010395D01*
X028435Y010365D01*
X028488Y010332D01*
X028539Y010296D01*
X028587Y010257D01*
X028633Y010214D01*
X028676Y010169D01*
X028716Y010121D01*
X028753Y010071D01*
X028787Y010018D01*
X028818Y009964D01*
X028844Y009908D01*
X028868Y009850D01*
X028887Y009790D01*
X028903Y009730D01*
X028915Y009668D01*
X028923Y009607D01*
X028927Y009544D01*
X028927Y009482D01*
X028923Y009419D01*
X028915Y009358D01*
X028903Y009296D01*
X028887Y009236D01*
X028868Y009176D01*
X028844Y009118D01*
X028818Y009062D01*
X028787Y009008D01*
X028753Y008955D01*
X028716Y008905D01*
X028676Y008857D01*
X028633Y008812D01*
X028587Y008769D01*
X028539Y008730D01*
X028488Y008694D01*
X028435Y008661D01*
X028380Y008631D01*
X028323Y008605D01*
X028265Y008583D01*
X028205Y008565D01*
X028145Y008550D01*
X028083Y008539D01*
X028021Y008532D01*
X027959Y008529D01*
X027896Y008530D01*
X027834Y008535D01*
X027772Y008544D01*
X027711Y008557D01*
X027651Y008573D01*
X027592Y008594D01*
X027534Y008618D01*
X027478Y008646D01*
X027424Y008677D01*
X027372Y008711D01*
X027323Y008749D01*
X027275Y008790D01*
X027231Y008834D01*
X027189Y008880D01*
X027151Y008930D01*
X027115Y008981D01*
X027083Y009035D01*
X027055Y009090D01*
X027029Y009147D01*
X027008Y009206D01*
X026991Y009266D01*
X026977Y009327D01*
X026967Y009388D01*
X026961Y009451D01*
X026959Y009513D01*
X028207Y011811D02*
X028707Y011811D01*
X026969Y012173D02*
X026971Y012235D01*
X026977Y012298D01*
X026987Y012359D01*
X027001Y012420D01*
X027018Y012480D01*
X027039Y012539D01*
X027065Y012596D01*
X027093Y012651D01*
X027125Y012705D01*
X027161Y012756D01*
X027199Y012806D01*
X027241Y012852D01*
X027285Y012896D01*
X027333Y012937D01*
X027382Y012975D01*
X027434Y013009D01*
X027488Y013040D01*
X027544Y013068D01*
X027602Y013092D01*
X027661Y013113D01*
X027721Y013129D01*
X027782Y013142D01*
X027844Y013151D01*
X027906Y013156D01*
X027969Y013157D01*
X028031Y013154D01*
X028093Y013147D01*
X028155Y013136D01*
X028215Y013121D01*
X028275Y013103D01*
X028333Y013081D01*
X028390Y013055D01*
X028445Y013025D01*
X028498Y012992D01*
X028549Y012956D01*
X028597Y012917D01*
X028643Y012874D01*
X028686Y012829D01*
X028726Y012781D01*
X028763Y012731D01*
X028797Y012678D01*
X028828Y012624D01*
X028854Y012568D01*
X028878Y012510D01*
X028897Y012450D01*
X028913Y012390D01*
X028925Y012328D01*
X028933Y012267D01*
X028937Y012204D01*
X028937Y012142D01*
X028933Y012079D01*
X028925Y012018D01*
X028913Y011956D01*
X028897Y011896D01*
X028878Y011836D01*
X028854Y011778D01*
X028828Y011722D01*
X028797Y011668D01*
X028763Y011615D01*
X028726Y011565D01*
X028686Y011517D01*
X028643Y011472D01*
X028597Y011429D01*
X028549Y011390D01*
X028498Y011354D01*
X028445Y011321D01*
X028390Y011291D01*
X028333Y011265D01*
X028275Y011243D01*
X028215Y011225D01*
X028155Y011210D01*
X028093Y011199D01*
X028031Y011192D01*
X027969Y011189D01*
X027906Y011190D01*
X027844Y011195D01*
X027782Y011204D01*
X027721Y011217D01*
X027661Y011233D01*
X027602Y011254D01*
X027544Y011278D01*
X027488Y011306D01*
X027434Y011337D01*
X027382Y011371D01*
X027333Y011409D01*
X027285Y011450D01*
X027241Y011494D01*
X027199Y011540D01*
X027161Y011590D01*
X027125Y011641D01*
X027093Y011695D01*
X027065Y011750D01*
X027039Y011807D01*
X027018Y011866D01*
X027001Y011926D01*
X026987Y011987D01*
X026977Y012048D01*
X026971Y012111D01*
X026969Y012173D01*
X026443Y011883D02*
X023863Y011883D01*
X023863Y013183D01*
X026443Y013183D01*
X026443Y011883D01*
X027003Y014513D02*
X027503Y014513D01*
X027503Y015113D02*
X027003Y015113D01*
X025527Y015886D02*
X024740Y015886D01*
X025133Y015886D02*
X025527Y016426D01*
X024740Y016426D01*
X025133Y015886D01*
X022356Y017581D02*
X022356Y018133D01*
X022238Y018408D02*
X021962Y018408D01*
X021726Y018644D01*
X022199Y018644D01*
X021962Y018408D01*
X021687Y018408D01*
X021569Y018133D02*
X021569Y017581D01*
X022356Y017581D01*
X022356Y018920D02*
X022356Y019471D01*
X021569Y019471D01*
X021569Y018920D01*
X018995Y019509D02*
X018995Y017974D01*
X014271Y017974D01*
X014271Y019509D01*
X014271Y021163D02*
X014271Y022659D01*
X018995Y022659D02*
X018995Y021163D01*
X019882Y021214D02*
X019882Y022592D01*
X023425Y022592D01*
X023425Y021214D01*
X023228Y021214D01*
X024562Y020505D02*
X024562Y022592D01*
X028105Y022592D01*
X028105Y018379D01*
X027278Y018379D01*
X025388Y018379D02*
X024562Y018379D01*
X024562Y018655D01*
X022270Y015610D02*
X018255Y015610D01*
X018255Y013563D01*
X022270Y013563D01*
X022270Y015610D01*
X020078Y021214D02*
X019882Y021214D01*
X009381Y004964D02*
X008881Y004964D01*
X013500Y001471D02*
X013500Y000971D01*
X013750Y000721D01*
X014250Y000721D01*
X014500Y000971D01*
X014750Y000721D01*
X015250Y000721D01*
X015500Y000971D01*
X015750Y000721D01*
X016250Y000721D01*
X016500Y000971D01*
X016750Y000721D01*
X017250Y000721D01*
X017500Y000971D01*
X017500Y001471D01*
X017250Y001721D01*
X016750Y001721D01*
X016500Y001471D01*
X016250Y001721D01*
X015750Y001721D01*
X015500Y001471D01*
X015250Y001721D01*
X014750Y001721D01*
X014500Y001471D01*
X014250Y001721D01*
X013750Y001721D01*
X013500Y001471D01*
D14*
X018609Y013947D03*
D15*
X015544Y013762D02*
X015444Y013762D01*
X015444Y013912D01*
X015396Y013912D02*
X015296Y013912D01*
X015296Y013762D01*
X015396Y013762D01*
X015346Y013837D02*
X015296Y013837D01*
X015249Y013812D02*
X015249Y013787D01*
X015224Y013762D01*
X015174Y013762D01*
X015149Y013787D01*
X015174Y013837D02*
X015224Y013837D01*
X015249Y013812D01*
X015249Y013887D02*
X015224Y013912D01*
X015174Y013912D01*
X015149Y013887D01*
X015149Y013862D01*
X015174Y013837D01*
X015102Y013737D02*
X015002Y013737D01*
X014954Y013762D02*
X014904Y013812D01*
X014929Y013812D02*
X014854Y013812D01*
X014854Y013762D02*
X014854Y013912D01*
X014929Y013912D01*
X014954Y013887D01*
X014954Y013837D01*
X014929Y013812D01*
X014807Y013762D02*
X014707Y013762D01*
X014707Y013912D01*
X014807Y013912D01*
X014757Y013837D02*
X014707Y013837D01*
X014660Y013812D02*
X014660Y013787D01*
X014635Y013762D01*
X014585Y013762D01*
X014560Y013787D01*
X014585Y013837D02*
X014635Y013837D01*
X014660Y013812D01*
X014660Y013887D02*
X014635Y013912D01*
X014585Y013912D01*
X014560Y013887D01*
X014560Y013862D01*
X014585Y013837D01*
X015795Y011374D02*
X015795Y011274D01*
X015795Y011227D02*
X015745Y011177D01*
X015745Y011202D02*
X015745Y011127D01*
X015795Y011127D02*
X015645Y011127D01*
X015645Y011202D01*
X015670Y011227D01*
X015720Y011227D01*
X015745Y011202D01*
X015695Y011274D02*
X015645Y011324D01*
X015795Y011324D01*
X015938Y009717D02*
X015913Y009692D01*
X015913Y009592D01*
X015938Y009567D01*
X015988Y009567D01*
X016013Y009592D01*
X016060Y009567D02*
X016160Y009567D01*
X016208Y009567D02*
X016308Y009567D01*
X016258Y009567D02*
X016258Y009717D01*
X016208Y009667D01*
X016110Y009717D02*
X016110Y009567D01*
X016060Y009667D02*
X016110Y009717D01*
X016013Y009692D02*
X015988Y009717D01*
X015938Y009717D01*
X015571Y009245D02*
X015496Y009170D01*
X015596Y009170D01*
X015571Y009095D02*
X015571Y009245D01*
X015399Y009245D02*
X015399Y009095D01*
X015349Y009095D02*
X015449Y009095D01*
X015349Y009195D02*
X015399Y009245D01*
X015302Y009220D02*
X015277Y009245D01*
X015227Y009245D01*
X015202Y009220D01*
X015202Y009120D01*
X015227Y009095D01*
X015277Y009095D01*
X015302Y009120D01*
X011758Y009567D02*
X011658Y009567D01*
X011758Y009667D01*
X011758Y009692D01*
X011733Y009717D01*
X011683Y009717D01*
X011658Y009692D01*
X011560Y009717D02*
X011560Y009567D01*
X011510Y009567D02*
X011610Y009567D01*
X011510Y009667D02*
X011560Y009717D01*
X011463Y009692D02*
X011438Y009717D01*
X011388Y009717D01*
X011363Y009692D01*
X011363Y009592D01*
X011388Y009567D01*
X011438Y009567D01*
X011463Y009592D01*
X008601Y005064D02*
X008626Y005039D01*
X008626Y004989D01*
X008601Y004964D01*
X008626Y004917D02*
X008626Y004817D01*
X008626Y004867D02*
X008476Y004867D01*
X008526Y004817D01*
X008501Y004769D02*
X008476Y004744D01*
X008476Y004694D01*
X008501Y004669D01*
X008601Y004669D01*
X008626Y004694D01*
X008626Y004744D01*
X008601Y004769D01*
X008501Y004964D02*
X008476Y004989D01*
X008476Y005039D01*
X008501Y005064D01*
X008526Y005064D01*
X008551Y005039D01*
X008576Y005064D01*
X008601Y005064D01*
X008551Y005039D02*
X008551Y005014D01*
X003930Y007708D02*
X003830Y007708D01*
X003930Y007808D01*
X003930Y007833D01*
X003905Y007858D01*
X003855Y007858D01*
X003830Y007833D01*
X003783Y007833D02*
X003758Y007858D01*
X003683Y007858D01*
X003683Y007708D01*
X003758Y007708D01*
X003783Y007733D01*
X003783Y007833D01*
X003636Y007858D02*
X003536Y007858D01*
X003536Y007708D01*
X003636Y007708D01*
X003586Y007783D02*
X003536Y007783D01*
X003488Y007708D02*
X003388Y007708D01*
X003388Y007858D01*
X002278Y008658D02*
X002128Y008658D01*
X002128Y008733D01*
X002153Y008758D01*
X002203Y008758D01*
X002228Y008733D01*
X002228Y008658D01*
X002228Y008708D02*
X002278Y008758D01*
X002278Y008805D02*
X002253Y008805D01*
X002153Y008905D01*
X002128Y008905D01*
X002128Y008805D01*
X001278Y008830D02*
X001278Y008880D01*
X001253Y008905D01*
X001228Y008905D01*
X001203Y008880D01*
X001203Y008805D01*
X001253Y008805D01*
X001278Y008830D01*
X001278Y008758D02*
X001228Y008708D01*
X001228Y008733D02*
X001228Y008658D01*
X001278Y008658D02*
X001128Y008658D01*
X001128Y008733D01*
X001153Y008758D01*
X001203Y008758D01*
X001228Y008733D01*
X001203Y008805D02*
X001153Y008855D01*
X001128Y008905D01*
X001130Y007858D02*
X001130Y007708D01*
X001080Y007708D02*
X001180Y007708D01*
X001080Y007808D02*
X001130Y007858D01*
X001033Y007833D02*
X001008Y007858D01*
X000933Y007858D01*
X000933Y007708D01*
X001008Y007708D01*
X001033Y007733D01*
X001033Y007833D01*
X000886Y007858D02*
X000786Y007858D01*
X000786Y007708D01*
X000886Y007708D01*
X000836Y007783D02*
X000786Y007783D01*
X000738Y007708D02*
X000638Y007708D01*
X000638Y007858D01*
X018138Y019483D02*
X018288Y019584D01*
X018288Y019631D02*
X018288Y019731D01*
X018288Y019681D02*
X018138Y019681D01*
X018188Y019631D01*
X018138Y019584D02*
X018288Y019483D01*
X021439Y018968D02*
X021439Y018918D01*
X021464Y018893D01*
X021489Y018893D01*
X021514Y018918D01*
X021514Y018968D01*
X021539Y018993D01*
X021564Y018993D01*
X021589Y018968D01*
X021589Y018918D01*
X021564Y018893D01*
X021539Y018893D01*
X021514Y018918D01*
X021514Y018968D02*
X021489Y018993D01*
X021464Y018993D01*
X021439Y018968D01*
X021464Y018845D02*
X021514Y018845D01*
X021539Y018820D01*
X021539Y018745D01*
X021589Y018745D02*
X021439Y018745D01*
X021439Y018820D01*
X021464Y018845D01*
X021539Y018795D02*
X021589Y018845D01*
X022517Y018809D02*
X022542Y018834D01*
X022567Y018834D01*
X022592Y018809D01*
X022617Y018834D01*
X022642Y018834D01*
X022667Y018809D01*
X022667Y018759D01*
X022642Y018734D01*
X022642Y018687D02*
X022542Y018687D01*
X022517Y018662D01*
X022517Y018587D01*
X022667Y018587D01*
X022667Y018662D01*
X022642Y018687D01*
X022592Y018784D02*
X022592Y018809D01*
X022517Y018809D02*
X022517Y018759D01*
X022542Y018734D01*
X022517Y018539D02*
X022517Y018439D01*
X022667Y018439D01*
X022667Y018539D01*
X022592Y018489D02*
X022592Y018439D01*
X022667Y018392D02*
X022667Y018292D01*
X022517Y018292D01*
X026658Y015468D02*
X026658Y015318D01*
X026658Y015393D02*
X026708Y015393D01*
X026658Y015468D02*
X026758Y015468D01*
X026806Y015418D02*
X026856Y015468D01*
X026856Y015318D01*
X026806Y015318D02*
X026906Y015318D01*
X025179Y014438D02*
X025154Y014463D01*
X025104Y014463D01*
X025079Y014438D01*
X025031Y014438D02*
X025006Y014463D01*
X024956Y014463D01*
X024931Y014438D01*
X024931Y014338D01*
X024956Y014313D01*
X025006Y014313D01*
X025031Y014338D01*
X025079Y014313D02*
X025179Y014413D01*
X025179Y014438D01*
X025179Y014313D02*
X025079Y014313D01*
X024883Y014313D02*
X024833Y014313D01*
X024858Y014313D02*
X024858Y014463D01*
X024833Y014463D02*
X024883Y014463D01*
X028014Y011543D02*
X028014Y011443D01*
X028039Y011418D01*
X028089Y011418D01*
X028114Y011443D01*
X028161Y011418D02*
X028261Y011418D01*
X028211Y011418D02*
X028211Y011568D01*
X028161Y011518D01*
X028114Y011543D02*
X028089Y011568D01*
X028039Y011568D01*
X028014Y011543D01*
X028029Y008908D02*
X028004Y008883D01*
X028004Y008783D01*
X028029Y008758D01*
X028079Y008758D01*
X028104Y008783D01*
X028151Y008758D02*
X028251Y008858D01*
X028251Y008883D01*
X028226Y008908D01*
X028176Y008908D01*
X028151Y008883D01*
X028104Y008883D02*
X028079Y008908D01*
X028029Y008908D01*
X028151Y008758D02*
X028251Y008758D01*
X028166Y006398D02*
X028091Y006323D01*
X028191Y006323D01*
X028166Y006248D02*
X028166Y006398D01*
X028044Y006373D02*
X028019Y006398D01*
X027969Y006398D01*
X027944Y006373D01*
X027944Y006273D01*
X027969Y006248D01*
X028019Y006248D01*
X028044Y006273D01*
X025436Y005698D02*
X025336Y005698D01*
X025411Y005773D01*
X025411Y005623D01*
X025289Y005648D02*
X025264Y005623D01*
X025214Y005623D01*
X025189Y005648D01*
X025189Y005748D01*
X025214Y005773D01*
X025264Y005773D01*
X025289Y005748D01*
X025140Y005773D02*
X025090Y005773D01*
X025115Y005773D02*
X025115Y005623D01*
X025090Y005623D02*
X025140Y005623D01*
X022252Y004802D02*
X022227Y004827D01*
X022177Y004827D01*
X022152Y004802D01*
X022105Y004802D02*
X022105Y004752D01*
X022080Y004727D01*
X022005Y004727D01*
X022055Y004727D02*
X022105Y004677D01*
X022152Y004677D02*
X022252Y004777D01*
X022252Y004802D01*
X022252Y004677D02*
X022152Y004677D01*
X022105Y004802D02*
X022080Y004827D01*
X022005Y004827D01*
X022005Y004677D01*
X027569Y021618D02*
X027544Y021643D01*
X027569Y021618D02*
X027594Y021618D01*
X027619Y021643D01*
X027619Y021768D01*
X027594Y021768D02*
X027644Y021768D01*
X027691Y021743D02*
X027716Y021768D01*
X027766Y021768D01*
X027791Y021743D01*
X027791Y021718D01*
X027766Y021693D01*
X027791Y021668D01*
X027791Y021643D01*
X027766Y021618D01*
X027716Y021618D01*
X027691Y021643D01*
X027741Y021693D02*
X027766Y021693D01*
D16*
X007151Y020061D02*
X007128Y020085D01*
X007081Y020085D01*
X007058Y020061D01*
X007004Y020085D02*
X006910Y019945D01*
X007004Y019945D02*
X006910Y020085D01*
X007058Y019945D02*
X007151Y020038D01*
X007151Y020061D01*
X007151Y019945D02*
X007058Y019945D01*
X006003Y016803D02*
X006003Y011703D01*
D17*
X021028Y021696D02*
X021133Y021591D01*
X021344Y021591D01*
X021449Y021696D01*
X021449Y021802D01*
X021344Y021907D01*
X021133Y021907D01*
X021028Y022012D01*
X021028Y022117D01*
X021133Y022222D01*
X021344Y022222D01*
X021449Y022117D01*
X021673Y022012D02*
X021883Y022222D01*
X021883Y021591D01*
X021673Y021591D02*
X022093Y021591D01*
D18*
X015861Y015728D02*
X011767Y015728D01*
X011019Y015137D02*
X011019Y013996D01*
X011767Y013405D02*
X015861Y013405D01*
X016609Y013996D02*
X016609Y015137D01*
X017495Y011418D02*
X017720Y011418D01*
X017795Y011343D01*
X017795Y011192D01*
X017720Y011117D01*
X017495Y011117D01*
X017495Y010967D02*
X017495Y011418D01*
X017955Y011343D02*
X017955Y011042D01*
X018030Y010967D01*
X018181Y010967D01*
X018256Y011042D01*
X018256Y011343D01*
X018181Y011418D01*
X018030Y011418D01*
X017955Y011343D01*
X018416Y011418D02*
X018416Y010967D01*
X018416Y011117D02*
X018641Y011117D01*
X018716Y011192D01*
X018716Y011343D01*
X018641Y011418D01*
X018416Y011418D01*
X018566Y011117D02*
X018716Y010967D01*
X019026Y010967D02*
X019026Y011418D01*
X018876Y011418D02*
X019176Y011418D01*
X019336Y011268D02*
X019487Y011418D01*
X019637Y011268D01*
X019637Y010967D01*
X019637Y011192D02*
X019336Y011192D01*
X019336Y011268D02*
X019336Y010967D01*
X014446Y010857D02*
X014146Y010857D01*
X014146Y011307D01*
X013986Y011157D02*
X013986Y010857D01*
X013986Y011082D02*
X013686Y011082D01*
X013686Y011157D02*
X013686Y010857D01*
X013375Y010857D02*
X013375Y011307D01*
X013225Y011307D02*
X013526Y011307D01*
X013686Y011157D02*
X013836Y011307D01*
X013986Y011157D01*
X013065Y011307D02*
X012765Y010857D01*
X013065Y010857D02*
X012765Y011307D01*
X006637Y011343D02*
X006637Y011268D01*
X006562Y011192D01*
X006336Y011192D01*
X006336Y010967D02*
X006562Y010967D01*
X006637Y011042D01*
X006637Y011117D01*
X006562Y011192D01*
X006637Y011343D02*
X006562Y011418D01*
X006336Y011418D01*
X006336Y010967D01*
X006026Y010967D02*
X006026Y011418D01*
X005876Y011418D02*
X006176Y011418D01*
X005716Y011343D02*
X005716Y011192D01*
X005641Y011117D01*
X005416Y011117D01*
X005416Y010967D02*
X005416Y011418D01*
X005641Y011418D01*
X005716Y011343D01*
X005566Y011117D02*
X005716Y010967D01*
X005256Y011042D02*
X005256Y011343D01*
X005181Y011418D01*
X005030Y011418D01*
X004955Y011343D01*
X004955Y011042D01*
X005030Y010967D01*
X005181Y010967D01*
X005256Y011042D01*
X004795Y011192D02*
X004720Y011117D01*
X004495Y011117D01*
X004495Y010967D02*
X004495Y011418D01*
X004720Y011418D01*
X004795Y011343D01*
X004795Y011192D01*
X003213Y003040D02*
X003213Y002740D01*
X003213Y002890D02*
X003663Y002890D01*
X003663Y002579D02*
X003663Y002279D01*
X003213Y002279D01*
X003213Y002579D01*
X003438Y002429D02*
X003438Y002279D01*
X003513Y002119D02*
X003588Y002119D01*
X003663Y002044D01*
X003663Y001894D01*
X003588Y001819D01*
X003438Y001894D02*
X003438Y002044D01*
X003513Y002119D01*
X003288Y002119D02*
X003213Y002044D01*
X003213Y001894D01*
X003288Y001819D01*
X003363Y001819D01*
X003438Y001894D01*
X003213Y001659D02*
X003213Y001359D01*
X003663Y001359D01*
X003663Y001659D01*
X003438Y001509D02*
X003438Y001359D01*
X003438Y001198D02*
X003513Y001123D01*
X003513Y000898D01*
X003513Y001048D02*
X003663Y001198D01*
X003438Y001198D02*
X003288Y001198D01*
X003213Y001123D01*
X003213Y000898D01*
X003663Y000898D01*
X010025Y002747D02*
X010025Y003198D01*
X010250Y003198D01*
X010325Y003123D01*
X010325Y002972D01*
X010250Y002897D01*
X010025Y002897D01*
X010485Y002822D02*
X010485Y003123D01*
X010560Y003198D01*
X010711Y003198D01*
X010786Y003123D01*
X010786Y002822D01*
X010711Y002747D01*
X010560Y002747D01*
X010485Y002822D01*
X010946Y002747D02*
X010946Y003198D01*
X011171Y003198D01*
X011246Y003123D01*
X011246Y002972D01*
X011171Y002897D01*
X010946Y002897D01*
X011096Y002897D02*
X011246Y002747D01*
X011556Y002747D02*
X011556Y003198D01*
X011406Y003198D02*
X011706Y003198D01*
X011866Y003123D02*
X011866Y002822D01*
X011942Y002747D01*
X012092Y002747D01*
X012167Y002822D01*
X012167Y003123D02*
X012092Y003198D01*
X011942Y003198D01*
X011866Y003123D01*
X014825Y003198D02*
X014825Y002747D01*
X014825Y002897D02*
X015050Y002897D01*
X015125Y002972D01*
X015125Y003123D01*
X015050Y003198D01*
X014825Y003198D01*
X015285Y003123D02*
X015285Y002822D01*
X015360Y002747D01*
X015511Y002747D01*
X015586Y002822D01*
X015586Y003123D01*
X015511Y003198D01*
X015360Y003198D01*
X015285Y003123D01*
X015746Y003198D02*
X015971Y003198D01*
X016046Y003123D01*
X016046Y002972D01*
X015971Y002897D01*
X015746Y002897D01*
X015746Y002747D02*
X015746Y003198D01*
X015896Y002897D02*
X016046Y002747D01*
X016356Y002747D02*
X016356Y003198D01*
X016206Y003198D02*
X016506Y003198D01*
X016666Y003198D02*
X016892Y003198D01*
X016967Y003123D01*
X016967Y002822D01*
X016892Y002747D01*
X016666Y002747D01*
X016666Y003198D01*
X022525Y003072D02*
X022600Y002997D01*
X022750Y002997D01*
X022825Y003072D01*
X022825Y003447D01*
X022985Y003372D02*
X022985Y003297D01*
X023060Y003222D01*
X023211Y003222D01*
X023286Y003147D01*
X023286Y003072D01*
X023211Y002997D01*
X023060Y002997D01*
X022985Y003072D01*
X022985Y003372D02*
X023060Y003447D01*
X023211Y003447D01*
X023286Y003372D01*
X023446Y003447D02*
X023671Y003447D01*
X023746Y003372D01*
X023746Y003297D01*
X023671Y003222D01*
X023446Y003222D01*
X023671Y003222D02*
X023746Y003147D01*
X023746Y003072D01*
X023671Y002997D01*
X023446Y002997D01*
X023446Y003447D01*
X023906Y002922D02*
X024206Y002922D01*
X024517Y002997D02*
X024517Y003447D01*
X024667Y003447D02*
X024366Y003447D01*
X024827Y003297D02*
X024977Y003447D01*
X025127Y003297D01*
X025127Y002997D01*
X025287Y002997D02*
X025287Y003447D01*
X025512Y003447D01*
X025587Y003372D01*
X025587Y003222D01*
X025512Y003147D01*
X025287Y003147D01*
X025127Y003222D02*
X024827Y003222D01*
X024827Y003297D02*
X024827Y002997D01*
X022525Y003072D02*
X022525Y003447D01*
D19*
X008828Y012003D03*
X008828Y012503D03*
X008828Y013003D03*
X008828Y013503D03*
X008828Y014003D03*
X008828Y014503D03*
X008828Y015003D03*
X008828Y015503D03*
X008828Y016003D03*
X008828Y016503D03*
X005838Y016503D03*
X005838Y016003D03*
X005838Y015503D03*
X005838Y015003D03*
X005838Y014503D03*
X005838Y014003D03*
X005838Y013503D03*
X005838Y013003D03*
X005838Y012503D03*
X005838Y012003D03*
M02*
