G75*
G70*
%OFA0B0*%
%FSLAX24Y24*%
%IPPOS*%
%LPD*%
%AMOC8*
5,1,8,0,0,1.08239X$1,22.5*
%
%ADD10R,0.0500X0.0220*%
%ADD11R,0.0220X0.0500*%
%ADD12R,0.0157X0.0591*%
%ADD13R,0.0472X0.0984*%
%ADD14R,0.0630X0.0709*%
%ADD15R,0.0800X0.0260*%
%ADD16R,0.0480X0.0880*%
%ADD17R,0.1417X0.0866*%
%ADD18R,0.0551X0.0472*%
%ADD19R,0.0709X0.0630*%
%ADD20R,0.0945X0.0866*%
%ADD21R,0.0394X0.0709*%
D10*
X009810Y005619D03*
X009810Y005934D03*
X009810Y006249D03*
X009810Y006564D03*
X009810Y006879D03*
X009810Y007194D03*
X009810Y007509D03*
X009810Y007824D03*
X013190Y007824D03*
X013190Y007509D03*
X013190Y007194D03*
X013190Y006879D03*
X013190Y006564D03*
X013190Y006249D03*
X013190Y005934D03*
X013190Y005619D03*
D11*
X012602Y005032D03*
X012287Y005032D03*
X011972Y005032D03*
X011657Y005032D03*
X011343Y005032D03*
X011028Y005032D03*
X010713Y005032D03*
X010398Y005032D03*
X010398Y008412D03*
X010713Y008412D03*
X011028Y008412D03*
X011343Y008412D03*
X011657Y008412D03*
X011972Y008412D03*
X012287Y008412D03*
X012602Y008412D03*
D12*
X018599Y013159D03*
X018855Y013159D03*
X019111Y013159D03*
X019367Y013159D03*
X019623Y013159D03*
X019879Y013159D03*
X020134Y013159D03*
X020390Y013159D03*
X020646Y013159D03*
X020902Y013159D03*
X021158Y013159D03*
X021414Y013159D03*
X021670Y013159D03*
X021926Y013159D03*
X021926Y016014D03*
X021670Y016014D03*
X021414Y016014D03*
X021158Y016014D03*
X020902Y016014D03*
X020646Y016014D03*
X020390Y016014D03*
X020134Y016014D03*
X019879Y016014D03*
X019623Y016014D03*
X019367Y016014D03*
X019111Y016014D03*
X018855Y016014D03*
X018599Y016014D03*
D13*
X020669Y020820D03*
X021653Y020820D03*
X022637Y020820D03*
D14*
X023051Y004222D03*
X021949Y004222D03*
D15*
X009313Y012003D03*
X009313Y012503D03*
X009313Y013003D03*
X009313Y013503D03*
X009313Y014003D03*
X009313Y014503D03*
X009313Y015003D03*
X009313Y015503D03*
X009313Y016003D03*
X009313Y016503D03*
X005353Y016503D03*
X005353Y016003D03*
X005353Y015503D03*
X005353Y015003D03*
X005353Y014503D03*
X005353Y014003D03*
X005353Y013503D03*
X005353Y013003D03*
X005353Y012503D03*
X005353Y012003D03*
D16*
X024243Y011313D03*
X025153Y011313D03*
X026063Y011313D03*
X026063Y008773D03*
X025153Y008773D03*
X024243Y008773D03*
D17*
X025153Y006333D03*
X025153Y013753D03*
D18*
X001733Y006313D03*
X002733Y006313D03*
X002733Y007494D03*
X001733Y007494D03*
X021962Y017936D03*
X021962Y019117D03*
D19*
X020984Y019086D03*
X020984Y017984D03*
X016250Y012173D03*
X016250Y011071D03*
X002733Y009704D03*
X001733Y009704D03*
X001733Y008602D03*
X002733Y008602D03*
D20*
X025133Y015207D03*
X025133Y017139D03*
D21*
X026702Y014813D03*
X027804Y014813D03*
M02*
