G75*
G70*
%OFA0B0*%
%FSLAX24Y24*%
%IPPOS*%
%LPD*%
%AMOC8*
5,1,8,0,0,1.08239X$1,22.5*
%
%ADD10C,0.0000*%
%ADD11R,0.0500X0.0220*%
%ADD12R,0.0220X0.0500*%
%ADD13R,0.0591X0.0157*%
%ADD14C,0.0660*%
%ADD15C,0.1300*%
%ADD16R,0.0740X0.0740*%
%ADD17C,0.0740*%
%ADD18C,0.2000*%
%ADD19OC8,0.0630*%
%ADD20C,0.1580*%
%ADD21R,0.0472X0.0984*%
%ADD22C,0.0797*%
%ADD23C,0.0614*%
%ADD24OC8,0.0640*%
%ADD25R,0.1063X0.0709*%
%ADD26C,0.0640*%
%ADD27R,0.0720X0.0720*%
%ADD28C,0.0720*%
%ADD29C,0.0560*%
%ADD30C,0.0650*%
%ADD31R,0.0800X0.0260*%
%ADD32R,0.0880X0.0480*%
%ADD33R,0.0866X0.1417*%
%ADD34R,0.0650X0.0650*%
%ADD35R,0.0709X0.0630*%
%ADD36R,0.0551X0.0472*%
%ADD37R,0.0394X0.0433*%
%ADD38R,0.0433X0.0394*%
%ADD39C,0.0080*%
%ADD40C,0.0160*%
%ADD41R,0.0436X0.0436*%
%ADD42C,0.0320*%
%ADD43OC8,0.0400*%
D10*
X000141Y000278D02*
X031637Y000278D01*
X031637Y026148D01*
X000141Y026148D01*
X000141Y000278D01*
X022566Y025398D02*
X022568Y025424D01*
X022574Y025450D01*
X022584Y025475D01*
X022597Y025498D01*
X022613Y025518D01*
X022633Y025536D01*
X022655Y025551D01*
X022678Y025563D01*
X022704Y025571D01*
X022730Y025575D01*
X022756Y025575D01*
X022782Y025571D01*
X022808Y025563D01*
X022832Y025551D01*
X022853Y025536D01*
X022873Y025518D01*
X022889Y025498D01*
X022902Y025475D01*
X022912Y025450D01*
X022918Y025424D01*
X022920Y025398D01*
X022918Y025372D01*
X022912Y025346D01*
X022902Y025321D01*
X022889Y025298D01*
X022873Y025278D01*
X022853Y025260D01*
X022831Y025245D01*
X022808Y025233D01*
X022782Y025225D01*
X022756Y025221D01*
X022730Y025221D01*
X022704Y025225D01*
X022678Y025233D01*
X022654Y025245D01*
X022633Y025260D01*
X022613Y025278D01*
X022597Y025298D01*
X022584Y025321D01*
X022574Y025346D01*
X022568Y025372D01*
X022566Y025398D01*
X025362Y025398D02*
X025364Y025424D01*
X025370Y025450D01*
X025380Y025475D01*
X025393Y025498D01*
X025409Y025518D01*
X025429Y025536D01*
X025451Y025551D01*
X025474Y025563D01*
X025500Y025571D01*
X025526Y025575D01*
X025552Y025575D01*
X025578Y025571D01*
X025604Y025563D01*
X025628Y025551D01*
X025649Y025536D01*
X025669Y025518D01*
X025685Y025498D01*
X025698Y025475D01*
X025708Y025450D01*
X025714Y025424D01*
X025716Y025398D01*
X025714Y025372D01*
X025708Y025346D01*
X025698Y025321D01*
X025685Y025298D01*
X025669Y025278D01*
X025649Y025260D01*
X025627Y025245D01*
X025604Y025233D01*
X025578Y025225D01*
X025552Y025221D01*
X025526Y025221D01*
X025500Y025225D01*
X025474Y025233D01*
X025450Y025245D01*
X025429Y025260D01*
X025409Y025278D01*
X025393Y025298D01*
X025380Y025321D01*
X025370Y025346D01*
X025364Y025372D01*
X025362Y025398D01*
D11*
X015631Y009490D03*
X015631Y009175D03*
X015631Y008860D03*
X015631Y008545D03*
X015631Y008230D03*
X015631Y007915D03*
X015631Y007600D03*
X015631Y007285D03*
X012251Y007285D03*
X012251Y007600D03*
X012251Y007915D03*
X012251Y008230D03*
X012251Y008545D03*
X012251Y008860D03*
X012251Y009175D03*
X012251Y009490D03*
D12*
X012839Y010078D03*
X013154Y010078D03*
X013469Y010078D03*
X013784Y010078D03*
X014099Y010078D03*
X014414Y010078D03*
X014729Y010078D03*
X015043Y010078D03*
X015043Y006698D03*
X014729Y006698D03*
X014414Y006698D03*
X014099Y006698D03*
X013784Y006698D03*
X013469Y006698D03*
X013154Y006698D03*
X012839Y006698D03*
D13*
X020964Y015234D03*
X020964Y015490D03*
X020964Y015746D03*
X020964Y016002D03*
X020964Y016258D03*
X020964Y016514D03*
X020964Y016770D03*
X020964Y017026D03*
X020964Y017282D03*
X020964Y017537D03*
X020964Y017793D03*
X020964Y018049D03*
X020964Y018305D03*
X020964Y018561D03*
X023818Y018561D03*
X023818Y018305D03*
X023818Y018049D03*
X023818Y017793D03*
X023818Y017537D03*
X023818Y017282D03*
X023818Y017026D03*
X023818Y016770D03*
X023818Y016514D03*
X023818Y016258D03*
X023818Y016002D03*
X023818Y015746D03*
X023818Y015490D03*
X023818Y015234D03*
D14*
X019133Y021868D03*
X019133Y022648D03*
X018149Y022648D03*
X018149Y021868D03*
D15*
X016271Y023718D03*
X021011Y023718D03*
D16*
X004960Y021589D03*
X016891Y002148D03*
D17*
X017891Y002148D03*
X018891Y002148D03*
X019891Y002148D03*
X024281Y009188D03*
X024281Y010188D03*
X025441Y010158D03*
X025441Y009158D03*
X019901Y010148D03*
X018901Y010148D03*
X009322Y021589D03*
X008232Y021589D03*
X007141Y021589D03*
X006051Y021589D03*
X005507Y022707D03*
X006598Y022707D03*
X007684Y022707D03*
X008775Y022707D03*
X003141Y012148D03*
X002141Y012148D03*
X002141Y011148D03*
X003141Y011148D03*
D18*
X002220Y022148D03*
X012062Y022148D03*
D19*
X002141Y015148D03*
X002141Y014148D03*
D20*
X027291Y022935D03*
X029141Y021754D03*
X029141Y024116D03*
D21*
X025125Y024315D03*
X024141Y024315D03*
X023157Y024315D03*
D22*
X018141Y018984D03*
X018141Y016898D03*
X013023Y016898D03*
X013023Y018984D03*
D23*
X013614Y017941D03*
X014401Y017941D03*
X015188Y017941D03*
X015976Y017941D03*
X016763Y017941D03*
X017551Y017941D03*
D24*
X024141Y002648D03*
X025141Y002648D03*
X026141Y002648D03*
X027141Y002648D03*
X028141Y002648D03*
X029141Y002648D03*
X030141Y002648D03*
X030141Y001648D03*
X029141Y001648D03*
X028141Y001648D03*
X027141Y001648D03*
X026141Y001648D03*
X025141Y001648D03*
X024141Y001648D03*
D25*
X024641Y004282D03*
X024641Y006014D03*
D26*
X004421Y004038D03*
X004421Y002258D03*
X001861Y002258D03*
X001861Y004038D03*
D27*
X007141Y002148D03*
X005641Y010648D03*
X021141Y010648D03*
D28*
X021141Y009648D03*
X021141Y008648D03*
X021141Y007648D03*
X021141Y006648D03*
X021141Y005648D03*
X021141Y004648D03*
X021141Y003648D03*
X014141Y002148D03*
X013141Y002148D03*
X012141Y002148D03*
X011141Y002148D03*
X010141Y002148D03*
X009141Y002148D03*
X008141Y002148D03*
X005641Y003648D03*
X005641Y004648D03*
X005641Y005648D03*
X005641Y006648D03*
X005641Y007648D03*
X005641Y008648D03*
X005641Y009648D03*
D29*
X018021Y012748D03*
X020021Y012748D03*
D30*
X021771Y013248D03*
X021771Y012248D03*
X016271Y012248D03*
X016271Y013248D03*
X014801Y012128D03*
X014801Y011128D03*
X011301Y006628D03*
X010301Y006628D03*
X029141Y005148D03*
X029141Y011148D03*
X029141Y013648D03*
X030141Y019398D03*
D31*
X007621Y018398D03*
X007621Y017898D03*
X007621Y017398D03*
X007621Y016898D03*
X007621Y016398D03*
X007621Y015898D03*
X007621Y015398D03*
X007621Y014898D03*
X007621Y014398D03*
X007621Y013898D03*
X003661Y013898D03*
X003661Y014398D03*
X003661Y014898D03*
X003661Y015398D03*
X003661Y015898D03*
X003661Y016398D03*
X003661Y016898D03*
X003661Y017398D03*
X003661Y017898D03*
X003661Y018398D03*
D32*
X029361Y017558D03*
X029361Y016648D03*
X029361Y015738D03*
X029361Y009058D03*
X029361Y008148D03*
X029361Y007238D03*
D33*
X026921Y008148D03*
X026921Y016648D03*
D34*
X029141Y019398D03*
X028141Y013648D03*
X028141Y011148D03*
X028141Y005148D03*
D35*
X030641Y006097D03*
X030641Y007199D03*
X030641Y008097D03*
X030641Y009199D03*
X030641Y014597D03*
X030641Y015699D03*
X030641Y016597D03*
X030641Y017699D03*
D36*
X027641Y019057D03*
X027641Y020238D03*
X003141Y008488D03*
X002141Y008488D03*
X002141Y007307D03*
X003141Y007307D03*
D37*
X003141Y009313D03*
X003141Y009982D03*
X002141Y009982D03*
X002141Y009313D03*
D38*
X026806Y021148D03*
X027476Y021148D03*
D39*
X027892Y021182D02*
X028313Y021182D01*
X028302Y021193D02*
X028580Y020915D01*
X028781Y020832D01*
X028781Y020648D01*
X028461Y020648D01*
X028461Y020695D01*
X028425Y020784D01*
X028357Y020851D01*
X028269Y020888D01*
X028173Y020888D01*
X028085Y020851D01*
X028018Y020784D01*
X027981Y020695D01*
X027981Y020674D01*
X027756Y020674D01*
X027756Y020751D01*
X027775Y020751D01*
X027892Y020868D01*
X028125Y020868D01*
X028023Y020789D02*
X027814Y020789D01*
X027756Y020711D02*
X027987Y020711D01*
X027892Y020868D02*
X027892Y021427D01*
X027775Y021545D01*
X027176Y021545D01*
X027059Y021427D01*
X027059Y021365D01*
X027040Y021385D01*
X026846Y021385D01*
X026846Y021188D01*
X026766Y021188D01*
X026766Y021108D01*
X026550Y021108D01*
X026550Y020948D01*
X026501Y020948D01*
X026501Y022673D01*
X026587Y022465D01*
X026821Y022231D01*
X027126Y022105D01*
X027251Y022105D01*
X027251Y022895D01*
X027331Y022895D01*
X027331Y022975D01*
X028121Y022975D01*
X028121Y023100D01*
X027994Y023405D01*
X027761Y023639D01*
X027456Y023765D01*
X027331Y023765D01*
X027331Y022975D01*
X027251Y022975D01*
X027251Y023765D01*
X027126Y023765D01*
X026821Y023639D01*
X026587Y023405D01*
X026501Y023198D01*
X026501Y023371D01*
X026446Y023503D01*
X026345Y023604D01*
X025562Y024388D01*
X025562Y024890D01*
X025444Y025007D01*
X024806Y025007D01*
X024689Y024890D01*
X024689Y023740D01*
X024806Y023623D01*
X025308Y023623D01*
X025781Y023150D01*
X025781Y020648D01*
X025501Y020648D01*
X025501Y022719D01*
X025446Y022852D01*
X025345Y022953D01*
X024568Y023730D01*
X024577Y023740D01*
X024577Y024890D01*
X024460Y025007D01*
X023822Y025007D01*
X023705Y024890D01*
X023705Y023740D01*
X023781Y023664D01*
X023781Y023576D01*
X023836Y023444D01*
X023937Y023343D01*
X024781Y022499D01*
X024781Y020648D01*
X023559Y020648D01*
X023559Y020949D01*
X023442Y021066D01*
X023052Y021066D01*
X023361Y021374D01*
X023462Y021475D01*
X023517Y021608D01*
X023517Y023664D01*
X023593Y023740D01*
X023593Y024890D01*
X023476Y025007D01*
X022838Y025007D01*
X022721Y024890D01*
X022721Y023740D01*
X022797Y023664D01*
X022797Y021828D01*
X022476Y021508D01*
X022059Y021508D01*
X022059Y021949D01*
X021942Y022066D01*
X021340Y022066D01*
X021223Y021949D01*
X021223Y021928D01*
X020814Y021928D01*
X020396Y022764D01*
X020378Y022806D01*
X020371Y022814D01*
X020367Y022823D01*
X020332Y022853D01*
X020300Y022885D01*
X020290Y022889D01*
X020282Y022896D01*
X020239Y022910D01*
X020197Y022928D01*
X020186Y022928D01*
X020177Y022931D01*
X020131Y022928D01*
X019591Y022928D01*
X019583Y022948D01*
X019433Y023097D01*
X019239Y023178D01*
X019028Y023178D01*
X018833Y023097D01*
X018684Y022948D01*
X018603Y022753D01*
X018506Y022753D01*
X018519Y022721D02*
X018463Y022857D01*
X018359Y022961D01*
X018223Y023018D01*
X018189Y023018D01*
X018189Y022688D01*
X018109Y022688D01*
X018109Y023018D01*
X018075Y023018D01*
X017939Y022961D01*
X017835Y022857D01*
X017779Y022721D01*
X017779Y022688D01*
X018109Y022688D01*
X018109Y022608D01*
X017779Y022608D01*
X017779Y022574D01*
X017835Y022438D01*
X017925Y022349D01*
X017849Y022317D01*
X017700Y022168D01*
X017619Y021973D01*
X017619Y021762D01*
X017700Y021567D01*
X017849Y021418D01*
X017870Y021410D01*
X018437Y020843D01*
X018569Y020788D01*
X018713Y020788D01*
X019935Y020788D01*
X019935Y020648D01*
X008559Y020648D01*
X008559Y020949D01*
X008447Y021061D01*
X008555Y021105D01*
X008715Y021266D01*
X008802Y021475D01*
X008802Y021702D01*
X008715Y021912D01*
X008555Y022072D01*
X008345Y022159D01*
X008118Y022159D01*
X007909Y022072D01*
X007748Y021912D01*
X007686Y021762D01*
X007624Y021912D01*
X007464Y022072D01*
X007254Y022159D01*
X007028Y022159D01*
X006818Y022072D01*
X006658Y021912D01*
X006596Y021762D01*
X006534Y021912D01*
X006373Y022072D01*
X006164Y022159D01*
X005937Y022159D01*
X005728Y022072D01*
X005567Y021912D01*
X005530Y021821D01*
X005530Y022041D01*
X005435Y022137D01*
X005621Y022137D01*
X005830Y022224D01*
X005990Y022384D01*
X006052Y022534D01*
X006115Y022384D01*
X006275Y022224D01*
X006484Y022137D01*
X006711Y022137D01*
X006921Y022224D01*
X007081Y022384D01*
X007141Y022529D01*
X007201Y022384D01*
X007361Y022224D01*
X007571Y022137D01*
X007798Y022137D01*
X008007Y022224D01*
X008168Y022384D01*
X008230Y022534D01*
X008292Y022384D01*
X008452Y022224D01*
X008662Y022137D01*
X008888Y022137D01*
X009098Y022224D01*
X009258Y022384D01*
X009345Y022593D01*
X009345Y022820D01*
X009258Y023030D01*
X009098Y023190D01*
X008888Y023277D01*
X008662Y023277D01*
X008452Y023190D01*
X008292Y023030D01*
X008230Y022880D01*
X008168Y023030D01*
X008007Y023190D01*
X007798Y023277D01*
X007571Y023277D01*
X007361Y023190D01*
X007201Y023030D01*
X007141Y022884D01*
X007081Y023030D01*
X006921Y023190D01*
X006711Y023277D01*
X006484Y023277D01*
X006275Y023190D01*
X006115Y023030D01*
X006052Y022880D01*
X005990Y023030D01*
X005830Y023190D01*
X005621Y023277D01*
X005394Y023277D01*
X005184Y023190D01*
X005024Y023030D01*
X004937Y022820D01*
X004937Y022593D01*
X004972Y022510D01*
X004757Y022295D01*
X004720Y022207D01*
X004720Y022159D01*
X004507Y022159D01*
X004390Y022041D01*
X004390Y021136D01*
X004507Y021019D01*
X004901Y021019D01*
X004901Y020695D01*
X004901Y020648D01*
X001141Y020648D01*
X001141Y021616D01*
X001260Y021411D01*
X001483Y021187D01*
X001757Y021029D01*
X002062Y020948D01*
X002378Y020948D01*
X002683Y021029D01*
X002957Y021187D01*
X003180Y021411D01*
X003338Y021685D01*
X003420Y021990D01*
X003420Y022306D01*
X003338Y022611D01*
X003180Y022885D01*
X002957Y023108D01*
X002683Y023266D01*
X002378Y023348D01*
X002062Y023348D01*
X001757Y023266D01*
X001483Y023108D01*
X001260Y022885D01*
X001141Y022679D01*
X001141Y025948D01*
X029141Y025948D01*
X029141Y024156D01*
X029101Y024156D01*
X029101Y024076D01*
X029141Y024076D01*
X029141Y022744D01*
X028944Y022744D01*
X028580Y022593D01*
X028302Y022315D01*
X028151Y021951D01*
X028151Y021557D01*
X028302Y021193D01*
X028274Y021261D02*
X027892Y021261D01*
X027892Y021339D02*
X028241Y021339D01*
X028209Y021418D02*
X027892Y021418D01*
X027824Y021496D02*
X028176Y021496D01*
X028151Y021575D02*
X026501Y021575D01*
X026501Y021653D02*
X028151Y021653D01*
X028151Y021732D02*
X026501Y021732D01*
X026501Y021810D02*
X028151Y021810D01*
X028151Y021889D02*
X026501Y021889D01*
X026501Y021967D02*
X028158Y021967D01*
X028190Y022046D02*
X026501Y022046D01*
X026501Y022124D02*
X027079Y022124D01*
X027251Y022124D02*
X027331Y022124D01*
X027331Y022105D02*
X027456Y022105D01*
X027761Y022231D01*
X027994Y022465D01*
X028121Y022770D01*
X028121Y022895D01*
X027331Y022895D01*
X027331Y022105D01*
X027331Y022203D02*
X027251Y022203D01*
X027251Y022282D02*
X027331Y022282D01*
X027331Y022360D02*
X027251Y022360D01*
X027251Y022439D02*
X027331Y022439D01*
X027331Y022517D02*
X027251Y022517D01*
X027251Y022596D02*
X027331Y022596D01*
X027331Y022674D02*
X027251Y022674D01*
X027251Y022753D02*
X027331Y022753D01*
X027331Y022831D02*
X027251Y022831D01*
X027331Y022910D02*
X029141Y022910D01*
X031437Y022910D01*
X031437Y022988D02*
X029141Y022988D01*
X028121Y022988D01*
X028121Y023067D02*
X029141Y023067D01*
X031437Y023067D01*
X031437Y023146D02*
X029141Y023146D01*
X028102Y023146D01*
X028069Y023224D02*
X029141Y023224D01*
X031437Y023224D01*
X031437Y023303D02*
X029346Y023303D01*
X029306Y023286D02*
X029611Y023413D01*
X029845Y023646D01*
X029971Y023951D01*
X029971Y024076D01*
X029181Y024076D01*
X029181Y023286D01*
X029306Y023286D01*
X029181Y023303D02*
X029141Y023303D01*
X029101Y023303D01*
X029101Y023286D02*
X029101Y024076D01*
X028311Y024076D01*
X028311Y023951D01*
X028437Y023646D01*
X028671Y023413D01*
X028976Y023286D01*
X029101Y023286D01*
X029101Y023381D02*
X029141Y023381D01*
X029181Y023381D01*
X029181Y023460D02*
X029141Y023460D01*
X029101Y023460D01*
X029101Y023538D02*
X029141Y023538D01*
X029181Y023538D01*
X029181Y023617D02*
X029141Y023617D01*
X029101Y023617D01*
X029101Y023695D02*
X029141Y023695D01*
X029181Y023695D01*
X029181Y023774D02*
X029141Y023774D01*
X029101Y023774D01*
X029101Y023852D02*
X029141Y023852D01*
X029181Y023852D01*
X029181Y023931D02*
X029141Y023931D01*
X029101Y023931D01*
X029101Y024010D02*
X029141Y024010D01*
X029181Y024010D01*
X029181Y024076D02*
X029141Y024076D01*
X029141Y022744D01*
X029338Y022744D01*
X029702Y022593D01*
X029980Y022315D01*
X030131Y021951D01*
X030131Y021557D01*
X029980Y021193D01*
X029702Y020915D01*
X029501Y020832D01*
X029501Y019923D01*
X029549Y019923D01*
X029666Y019806D01*
X029666Y019632D01*
X029666Y019632D01*
X029684Y019588D01*
X029708Y019547D01*
X029711Y019523D01*
X029721Y019499D01*
X029721Y019452D01*
X029727Y019405D01*
X029721Y019381D01*
X029721Y017998D01*
X029884Y017998D01*
X030001Y017881D01*
X030001Y017455D01*
X030087Y017541D01*
X030087Y018097D01*
X030204Y018214D01*
X031078Y018214D01*
X031195Y018097D01*
X031195Y017301D01*
X031078Y017184D01*
X030522Y017184D01*
X030450Y017111D01*
X031078Y017111D01*
X031195Y016994D01*
X031195Y016199D01*
X031144Y016148D01*
X031195Y016097D01*
X031195Y015301D01*
X031078Y015184D01*
X030204Y015184D01*
X030087Y015301D01*
X030087Y015458D01*
X030001Y015458D01*
X030001Y015415D01*
X029884Y015298D01*
X029141Y015298D01*
X029141Y013677D01*
X029170Y013677D01*
X029170Y014013D01*
X029214Y014013D01*
X029348Y013957D01*
X029451Y013854D01*
X029506Y013720D01*
X029506Y013677D01*
X029170Y013677D01*
X029170Y013619D01*
X029506Y013619D01*
X029506Y013575D01*
X029451Y013441D01*
X029348Y013338D01*
X029214Y013283D01*
X029170Y013283D01*
X029170Y013619D01*
X029141Y013619D01*
X029141Y011177D01*
X029170Y011177D01*
X029170Y011513D01*
X029214Y011513D01*
X029348Y011457D01*
X029451Y011354D01*
X029506Y011220D01*
X029506Y011177D01*
X029170Y011177D01*
X029170Y011119D01*
X029506Y011119D01*
X029506Y011075D01*
X029451Y010941D01*
X029348Y010838D01*
X029214Y010783D01*
X029170Y010783D01*
X029170Y011119D01*
X029141Y011119D01*
X029141Y010657D01*
X031437Y010657D01*
X031437Y010579D02*
X029219Y010579D01*
X029141Y010657D02*
X029565Y010233D01*
X029565Y010233D01*
X029666Y010132D01*
X029721Y009999D01*
X029721Y009498D01*
X029884Y009498D01*
X030001Y009381D01*
X030001Y008904D01*
X030087Y008989D01*
X030087Y009597D01*
X030204Y009714D01*
X031078Y009714D01*
X031195Y009597D01*
X031195Y008801D01*
X031078Y008684D01*
X030573Y008684D01*
X030501Y008611D01*
X031078Y008611D01*
X031195Y008494D01*
X031195Y007699D01*
X031144Y007648D01*
X031195Y007597D01*
X031195Y006801D01*
X031078Y006684D01*
X030204Y006684D01*
X030087Y006801D01*
X030087Y006958D01*
X030001Y006958D01*
X030001Y006915D01*
X029884Y006798D01*
X029141Y006798D01*
X029141Y005177D01*
X029170Y005177D01*
X029170Y005513D01*
X029214Y005513D01*
X029348Y005457D01*
X029451Y005354D01*
X029506Y005220D01*
X029506Y005177D01*
X029170Y005177D01*
X029170Y005119D01*
X029506Y005119D01*
X029506Y005075D01*
X029451Y004941D01*
X029348Y004838D01*
X029214Y004783D01*
X029170Y004783D01*
X029170Y005119D01*
X029141Y005119D01*
X029141Y003168D01*
X029356Y003168D01*
X029641Y002883D01*
X029926Y003168D01*
X030356Y003168D01*
X030661Y002863D01*
X030661Y002432D01*
X030356Y002128D01*
X029926Y002128D01*
X029641Y002412D01*
X029356Y002128D01*
X029141Y002128D01*
X029141Y001688D01*
X029181Y001688D01*
X029181Y002008D01*
X029290Y002008D01*
X029501Y001797D01*
X029501Y001688D01*
X029181Y001688D01*
X029181Y001608D01*
X029181Y001648D01*
X030101Y001648D01*
X030101Y001608D01*
X029781Y001608D01*
X029781Y001499D01*
X029992Y001288D01*
X030101Y001288D01*
X030101Y001608D01*
X029781Y001608D01*
X029781Y001499D01*
X029992Y001288D01*
X030101Y001288D01*
X030101Y001608D01*
X030101Y001688D01*
X030101Y002008D01*
X029992Y002008D01*
X029781Y001797D01*
X029781Y001688D01*
X030101Y001688D01*
X030181Y001688D01*
X030181Y002008D01*
X030290Y002008D01*
X030501Y001797D01*
X030501Y001688D01*
X030181Y001688D01*
X030181Y001608D01*
X030181Y001648D01*
X031497Y001648D01*
X031497Y000418D01*
X001141Y000418D01*
X001141Y001648D01*
X016453Y001648D01*
X016463Y001638D01*
X017319Y001638D01*
X017329Y001648D01*
X017766Y001648D01*
X017790Y001638D01*
X017993Y001638D01*
X018017Y001648D01*
X018766Y001648D01*
X018790Y001638D01*
X018993Y001638D01*
X019017Y001648D01*
X019766Y001648D01*
X019790Y001638D01*
X019993Y001638D01*
X020017Y001648D01*
X023681Y001648D01*
X023681Y001457D01*
X023951Y001188D01*
X024332Y001188D01*
X024601Y001457D01*
X024601Y001648D01*
X024681Y001648D01*
X024681Y001457D01*
X024951Y001188D01*
X025332Y001188D01*
X025601Y001457D01*
X025601Y001648D01*
X025681Y001648D01*
X025681Y001457D01*
X025951Y001188D01*
X026332Y001188D01*
X026601Y001457D01*
X026601Y001648D01*
X026681Y001648D01*
X026681Y001457D01*
X026951Y001188D01*
X027332Y001188D01*
X027601Y001457D01*
X027601Y001648D01*
X028101Y001648D01*
X028101Y001608D01*
X027781Y001608D01*
X027781Y001499D01*
X027992Y001288D01*
X028101Y001288D01*
X028101Y001608D01*
X028181Y001608D01*
X028181Y001648D01*
X029101Y001648D01*
X029101Y001608D01*
X028781Y001608D01*
X028781Y001499D01*
X028992Y001288D01*
X029101Y001288D01*
X029101Y001608D01*
X029181Y001608D01*
X029501Y001608D01*
X029501Y001499D01*
X029290Y001288D01*
X029181Y001288D01*
X029181Y001608D01*
X029501Y001608D01*
X029501Y001499D01*
X029290Y001288D01*
X029181Y001288D01*
X029181Y001608D01*
X029141Y001608D01*
X029141Y000478D01*
X031437Y000478D01*
X031437Y025948D01*
X029141Y025948D01*
X029141Y024156D01*
X029181Y024156D01*
X029971Y024156D01*
X029971Y024281D01*
X029845Y024586D01*
X029611Y024820D01*
X029306Y024946D01*
X029181Y024946D01*
X029181Y024156D01*
X029181Y024076D01*
X029181Y024088D02*
X031437Y024088D01*
X031437Y024010D02*
X029971Y024010D01*
X029963Y023931D02*
X031437Y023931D01*
X031437Y023852D02*
X029930Y023852D01*
X029898Y023774D02*
X031437Y023774D01*
X031437Y023695D02*
X029865Y023695D01*
X029815Y023617D02*
X031437Y023617D01*
X031437Y023538D02*
X029737Y023538D01*
X029658Y023460D02*
X031437Y023460D01*
X031437Y023381D02*
X029535Y023381D01*
X028936Y023303D02*
X028037Y023303D01*
X028004Y023381D02*
X028747Y023381D01*
X028624Y023460D02*
X027940Y023460D01*
X027861Y023538D02*
X028545Y023538D01*
X028467Y023617D02*
X027783Y023617D01*
X027624Y023695D02*
X028417Y023695D01*
X028384Y023774D02*
X026176Y023774D01*
X026254Y023695D02*
X026957Y023695D01*
X026799Y023617D02*
X026333Y023617D01*
X026411Y023538D02*
X026720Y023538D01*
X026642Y023460D02*
X026464Y023460D01*
X026497Y023381D02*
X026577Y023381D01*
X026545Y023303D02*
X026501Y023303D01*
X026501Y023224D02*
X026512Y023224D01*
X026501Y022596D02*
X026533Y022596D01*
X026501Y022517D02*
X026565Y022517D01*
X026613Y022439D02*
X026501Y022439D01*
X026501Y022360D02*
X026692Y022360D01*
X026770Y022282D02*
X026501Y022282D01*
X026501Y022203D02*
X026889Y022203D01*
X027503Y022124D02*
X028223Y022124D01*
X028256Y022203D02*
X027692Y022203D01*
X027811Y022282D02*
X028288Y022282D01*
X028347Y022360D02*
X027889Y022360D01*
X027968Y022439D02*
X028426Y022439D01*
X028504Y022517D02*
X028016Y022517D01*
X028048Y022596D02*
X028586Y022596D01*
X028776Y022674D02*
X028081Y022674D01*
X028114Y022753D02*
X029141Y022753D01*
X031437Y022753D01*
X031437Y022831D02*
X029141Y022831D01*
X028121Y022831D01*
X027331Y022988D02*
X027251Y022988D01*
X027251Y023067D02*
X027331Y023067D01*
X027331Y023146D02*
X027251Y023146D01*
X027251Y023224D02*
X027331Y023224D01*
X027331Y023303D02*
X027251Y023303D01*
X027251Y023381D02*
X027331Y023381D01*
X027331Y023460D02*
X027251Y023460D01*
X027251Y023538D02*
X027331Y023538D01*
X027331Y023617D02*
X027251Y023617D01*
X027251Y023695D02*
X027331Y023695D01*
X028352Y023852D02*
X026097Y023852D01*
X026018Y023931D02*
X028319Y023931D01*
X028311Y024010D02*
X025940Y024010D01*
X025861Y024088D02*
X029101Y024088D01*
X029101Y024156D02*
X028311Y024156D01*
X028311Y024281D01*
X028437Y024586D01*
X028671Y024820D01*
X028976Y024946D01*
X029101Y024946D01*
X029101Y024156D01*
X029101Y024167D02*
X029141Y024167D01*
X029181Y024167D01*
X029181Y024245D02*
X029141Y024245D01*
X029101Y024245D01*
X029101Y024324D02*
X029141Y024324D01*
X029181Y024324D01*
X029181Y024402D02*
X029141Y024402D01*
X029101Y024402D01*
X029101Y024481D02*
X029141Y024481D01*
X029181Y024481D01*
X029181Y024559D02*
X029141Y024559D01*
X029101Y024559D01*
X029101Y024638D02*
X029141Y024638D01*
X029181Y024638D01*
X029181Y024716D02*
X029141Y024716D01*
X029101Y024716D01*
X029101Y024795D02*
X029141Y024795D01*
X029181Y024795D01*
X029181Y024874D02*
X029141Y024874D01*
X029101Y024874D01*
X029141Y024952D02*
X025499Y024952D01*
X025464Y025021D02*
X025614Y025021D01*
X025752Y025078D01*
X025858Y025184D01*
X025916Y025323D01*
X025916Y025473D01*
X025858Y025611D01*
X025752Y025717D01*
X025614Y025775D01*
X025464Y025775D01*
X025325Y025717D01*
X025219Y025611D01*
X025162Y025473D01*
X025162Y025323D01*
X025219Y025184D01*
X025325Y025078D01*
X025464Y025021D01*
X025439Y025031D02*
X022843Y025031D01*
X022818Y025021D02*
X022957Y025078D01*
X023063Y025184D01*
X023121Y025323D01*
X023121Y025473D01*
X023063Y025611D01*
X022957Y025717D01*
X022818Y025775D01*
X022668Y025775D01*
X022530Y025717D01*
X022424Y025611D01*
X022366Y025473D01*
X022366Y025323D01*
X022424Y025184D01*
X022530Y025078D01*
X022668Y025021D01*
X022818Y025021D01*
X022783Y024952D02*
X001141Y024952D01*
X000341Y024952D01*
X000341Y024874D02*
X001141Y024874D01*
X022721Y024874D01*
X022721Y024795D02*
X001141Y024795D01*
X000341Y024795D01*
X000341Y024716D02*
X001141Y024716D01*
X022721Y024716D01*
X022721Y024638D02*
X001141Y024638D01*
X000341Y024638D01*
X000341Y024559D02*
X001141Y024559D01*
X016082Y024559D01*
X016102Y024568D02*
X015790Y024438D01*
X015551Y024199D01*
X015421Y023887D01*
X015421Y023549D01*
X015551Y023236D01*
X015790Y022997D01*
X016102Y022868D01*
X016440Y022868D01*
X016753Y022997D01*
X016992Y023236D01*
X017121Y023549D01*
X017121Y023887D01*
X016992Y024199D01*
X016753Y024438D01*
X016440Y024568D01*
X016102Y024568D01*
X015892Y024481D02*
X001141Y024481D01*
X000341Y024481D01*
X000341Y024402D02*
X001141Y024402D01*
X015754Y024402D01*
X015675Y024324D02*
X001141Y024324D01*
X000341Y024324D01*
X000341Y024245D02*
X001141Y024245D01*
X015596Y024245D01*
X015537Y024167D02*
X001141Y024167D01*
X000341Y024167D01*
X000341Y024088D02*
X001141Y024088D01*
X015505Y024088D01*
X015472Y024010D02*
X001141Y024010D01*
X000341Y024010D01*
X000341Y023931D02*
X001141Y023931D01*
X015439Y023931D01*
X015421Y023852D02*
X001141Y023852D01*
X000341Y023852D01*
X000341Y023774D02*
X001141Y023774D01*
X015421Y023774D01*
X015421Y023695D02*
X001141Y023695D01*
X000341Y023695D01*
X000341Y023617D02*
X001141Y023617D01*
X015421Y023617D01*
X015425Y023538D02*
X001141Y023538D01*
X000341Y023538D01*
X000341Y023460D02*
X001141Y023460D01*
X015458Y023460D01*
X015490Y023381D02*
X001141Y023381D01*
X000341Y023381D01*
X000341Y023303D02*
X001141Y023303D01*
X001894Y023303D01*
X001684Y023224D02*
X001141Y023224D01*
X000341Y023224D01*
X000341Y023146D02*
X001141Y023146D01*
X001548Y023146D01*
X001442Y023067D02*
X001141Y023067D01*
X000341Y023067D01*
X000341Y022988D02*
X001141Y022988D01*
X001364Y022988D01*
X001285Y022910D02*
X001141Y022910D01*
X000341Y022910D01*
X000341Y022831D02*
X001141Y022831D01*
X001229Y022831D01*
X001184Y022753D02*
X001141Y022753D01*
X000341Y022753D01*
X000341Y022674D02*
X001138Y022674D01*
X001141Y022679D02*
X001102Y022611D01*
X001020Y022306D01*
X001020Y021990D01*
X001102Y021685D01*
X001141Y021616D01*
X001141Y000478D01*
X000341Y000478D01*
X000341Y025948D01*
X001141Y025948D01*
X001141Y022679D01*
X001098Y022596D02*
X000341Y022596D01*
X000341Y022517D02*
X001077Y022517D01*
X001055Y022439D02*
X000341Y022439D01*
X000341Y022360D02*
X001034Y022360D01*
X001020Y022282D02*
X000341Y022282D01*
X000341Y022203D02*
X001020Y022203D01*
X001020Y022124D02*
X000341Y022124D01*
X000341Y022046D02*
X001020Y022046D01*
X001026Y021967D02*
X000341Y021967D01*
X000341Y021889D02*
X001047Y021889D01*
X001068Y021810D02*
X000341Y021810D01*
X000341Y021732D02*
X001089Y021732D01*
X001120Y021653D02*
X000341Y021653D01*
X000341Y021575D02*
X001141Y021575D01*
X001165Y021575D01*
X001141Y021496D02*
X001210Y021496D01*
X001141Y021496D02*
X000341Y021496D01*
X000341Y021418D02*
X001141Y021418D01*
X001256Y021418D01*
X001331Y021339D02*
X001141Y021339D01*
X000341Y021339D01*
X000341Y021261D02*
X001141Y021261D01*
X001410Y021261D01*
X001493Y021182D02*
X001141Y021182D01*
X000341Y021182D01*
X000341Y021103D02*
X001141Y021103D01*
X001629Y021103D01*
X001774Y021025D02*
X001141Y021025D01*
X000341Y021025D01*
X000341Y020946D02*
X001141Y020946D01*
X004901Y020946D01*
X004901Y020868D02*
X001141Y020868D01*
X000341Y020868D01*
X000341Y020789D02*
X001141Y020789D01*
X004901Y020789D01*
X004901Y020711D02*
X001141Y020711D01*
X000341Y020711D01*
X000341Y020632D02*
X001141Y020632D01*
X001141Y020554D02*
X000341Y020554D01*
X000341Y020475D02*
X001141Y020475D01*
X001141Y020397D02*
X000341Y020397D01*
X000341Y020318D02*
X001141Y020318D01*
X001141Y020239D02*
X000341Y020239D01*
X000341Y020161D02*
X001141Y020161D01*
X001141Y020082D02*
X000341Y020082D01*
X000341Y020004D02*
X001141Y020004D01*
X001141Y019925D02*
X000341Y019925D01*
X000341Y019847D02*
X001141Y019847D01*
X001141Y019768D02*
X000341Y019768D01*
X000341Y019690D02*
X001141Y019690D01*
X001141Y019611D02*
X000341Y019611D01*
X000341Y019533D02*
X001141Y019533D01*
X001141Y019454D02*
X000341Y019454D01*
X000341Y019375D02*
X001141Y019375D01*
X001141Y019297D02*
X000341Y019297D01*
X000341Y019218D02*
X001141Y019218D01*
X001141Y019140D02*
X000341Y019140D01*
X000341Y019061D02*
X001141Y019061D01*
X001141Y018983D02*
X000341Y018983D01*
X000341Y018904D02*
X001141Y018904D01*
X001141Y018826D02*
X000341Y018826D01*
X000341Y018747D02*
X001141Y018747D01*
X001141Y018669D02*
X000341Y018669D01*
X000341Y018590D02*
X001141Y018590D01*
X001141Y018511D02*
X000341Y018511D01*
X000341Y018433D02*
X001141Y018433D01*
X001141Y018354D02*
X000341Y018354D01*
X000341Y018276D02*
X001141Y018276D01*
X001141Y018197D02*
X000341Y018197D01*
X000341Y018119D02*
X001141Y018119D01*
X001141Y018040D02*
X000341Y018040D01*
X000341Y017962D02*
X001141Y017962D01*
X001141Y017883D02*
X000341Y017883D01*
X000341Y017805D02*
X001141Y017805D01*
X001141Y017726D02*
X000341Y017726D01*
X000341Y017648D02*
X001141Y017648D01*
X001141Y017569D02*
X000341Y017569D01*
X000341Y017490D02*
X001141Y017490D01*
X001141Y017412D02*
X000341Y017412D01*
X000341Y017333D02*
X001141Y017333D01*
X001141Y017255D02*
X000341Y017255D01*
X000341Y017176D02*
X001141Y017176D01*
X001141Y017098D02*
X000341Y017098D01*
X000341Y017019D02*
X001141Y017019D01*
X001141Y016941D02*
X000341Y016941D01*
X000341Y016862D02*
X001141Y016862D01*
X001141Y016784D02*
X000341Y016784D01*
X000341Y016705D02*
X001141Y016705D01*
X001141Y016626D02*
X000341Y016626D01*
X000341Y016548D02*
X001141Y016548D01*
X001141Y016469D02*
X000341Y016469D01*
X000341Y016391D02*
X001141Y016391D01*
X001141Y016312D02*
X000341Y016312D01*
X000341Y016234D02*
X001141Y016234D01*
X001141Y016155D02*
X000341Y016155D01*
X000341Y016077D02*
X001141Y016077D01*
X001141Y015998D02*
X000341Y015998D01*
X000341Y015920D02*
X001141Y015920D01*
X001141Y015841D02*
X000341Y015841D01*
X000341Y015762D02*
X001141Y015762D01*
X001141Y015684D02*
X000341Y015684D01*
X000341Y015605D02*
X001141Y015605D01*
X001141Y015527D02*
X000341Y015527D01*
X000341Y015448D02*
X001141Y015448D01*
X001141Y015370D02*
X000341Y015370D01*
X000341Y015291D02*
X001141Y015291D01*
X001141Y015213D02*
X000341Y015213D01*
X000341Y015134D02*
X001141Y015134D01*
X001141Y015056D02*
X000341Y015056D01*
X000341Y014977D02*
X001141Y014977D01*
X001141Y014899D02*
X000341Y014899D01*
X000341Y014820D02*
X001141Y014820D01*
X001141Y014741D02*
X000341Y014741D01*
X000341Y014663D02*
X001141Y014663D01*
X001141Y014584D02*
X000341Y014584D01*
X000341Y014506D02*
X001141Y014506D01*
X001141Y014427D02*
X000341Y014427D01*
X000341Y014349D02*
X001141Y014349D01*
X001141Y014270D02*
X000341Y014270D01*
X000341Y014192D02*
X001141Y014192D01*
X001141Y014113D02*
X000341Y014113D01*
X000341Y014035D02*
X001141Y014035D01*
X001141Y013956D02*
X000341Y013956D01*
X000341Y013877D02*
X001141Y013877D01*
X001141Y013799D02*
X000341Y013799D01*
X000341Y013720D02*
X001141Y013720D01*
X001141Y013668D02*
X002461Y013668D01*
X002941Y014148D01*
X003421Y014148D01*
X003661Y014388D01*
X003661Y014398D01*
X003661Y013898D02*
X004391Y013898D01*
X004641Y014148D01*
X006141Y014148D01*
X006641Y014648D01*
X006641Y016648D01*
X006891Y016898D01*
X006641Y017148D01*
X006891Y016898D02*
X007621Y016898D01*
X007621Y016398D02*
X007661Y016388D01*
X007901Y016388D01*
X008381Y015908D01*
X008381Y013908D01*
X007661Y013908D01*
X007621Y013898D01*
X007661Y014388D02*
X007621Y014398D01*
X007661Y014388D02*
X008141Y014388D01*
X008141Y015588D01*
X007901Y015828D01*
X007661Y015828D01*
X007621Y015898D01*
X006301Y016548D02*
X006301Y018068D01*
X007021Y018068D01*
X007101Y018148D01*
X012541Y018148D01*
X013341Y017348D01*
X014461Y017348D01*
X015021Y017908D01*
X015181Y017908D01*
X015188Y017941D01*
X015976Y017941D02*
X015981Y017908D01*
X016141Y017908D01*
X016701Y017348D01*
X017821Y017348D01*
X018061Y017588D01*
X018781Y017588D01*
X018861Y017508D01*
X020941Y017508D01*
X020964Y017537D01*
X020964Y017793D02*
X021021Y017788D01*
X021581Y017788D01*
X021581Y015068D01*
X022541Y014108D01*
X024221Y014108D01*
X024221Y010188D01*
X024281Y010188D01*
X024221Y010188D02*
X023741Y009708D01*
X023741Y009148D01*
X020941Y009148D01*
X020621Y009468D01*
X020621Y010668D01*
X016221Y010668D01*
X015261Y009708D01*
X014701Y009708D01*
X014701Y010028D01*
X014729Y010078D01*
X014781Y010108D01*
X014781Y011068D01*
X014801Y011128D01*
X014381Y010908D02*
X014301Y010988D01*
X014301Y011628D01*
X014801Y012128D01*
X014781Y012748D02*
X017581Y012748D01*
X017581Y012348D01*
X019421Y012348D01*
X021101Y010668D01*
X021141Y010648D01*
X021101Y010628D01*
X020381Y009148D02*
X020781Y008748D01*
X021101Y008748D01*
X021141Y008648D01*
X021101Y008708D01*
X020461Y008828D02*
X020461Y007468D01*
X021181Y006748D01*
X021141Y006648D01*
X021181Y006708D01*
X020301Y006508D02*
X021101Y005708D01*
X021141Y005648D01*
X021101Y005668D01*
X021101Y004748D02*
X021141Y004648D01*
X021101Y004708D01*
X021101Y004748D02*
X020141Y005708D01*
X020141Y007628D01*
X015661Y007628D01*
X015631Y007600D01*
X015631Y007285D02*
X015581Y007228D01*
X015501Y007148D01*
X015501Y006828D01*
X015043Y006698D02*
X015021Y006748D01*
X015021Y006988D01*
X014941Y007068D01*
X014221Y007068D01*
X014221Y007148D01*
X012941Y008428D01*
X012861Y008908D02*
X012861Y010028D01*
X012839Y010078D01*
X013154Y010078D02*
X013181Y010028D01*
X013181Y008988D01*
X013421Y008748D01*
X013501Y009148D02*
X014381Y008268D01*
X014381Y007628D01*
X014541Y007468D01*
X015101Y007468D01*
X015101Y007948D02*
X015101Y008108D01*
X015101Y007948D02*
X015581Y007948D01*
X015631Y007915D01*
X015661Y008188D02*
X015631Y008230D01*
X015661Y008188D02*
X020301Y008188D01*
X020301Y006508D01*
X021141Y007648D02*
X021181Y007668D01*
X020461Y008828D02*
X015661Y008828D01*
X015631Y008860D01*
X015581Y008588D02*
X015631Y008545D01*
X015581Y008588D02*
X015101Y008588D01*
X015101Y009148D01*
X015631Y009175D02*
X015661Y009148D01*
X020381Y009148D01*
X018861Y009548D02*
X018861Y010108D01*
X018901Y010148D01*
X018861Y009548D02*
X015661Y009548D01*
X015631Y009490D01*
X015101Y010108D02*
X015043Y010078D01*
X015101Y010108D02*
X016221Y011228D01*
X016221Y012188D01*
X016271Y012248D01*
X016301Y013228D02*
X016271Y013248D01*
X016301Y013228D02*
X021741Y013228D01*
X021771Y013248D01*
X021741Y013308D01*
X021421Y013628D01*
X021421Y016988D01*
X021021Y016988D01*
X020964Y017026D01*
X020964Y017793D02*
X020941Y017828D01*
X020381Y017828D01*
X020941Y018548D02*
X020964Y018561D01*
X020941Y018548D02*
X019101Y018548D01*
X018781Y018228D01*
X018141Y018228D01*
X017821Y018548D01*
X014381Y018548D01*
X013741Y017908D01*
X013661Y017908D01*
X013614Y017941D01*
X013641Y019648D02*
X013661Y019668D01*
X017261Y019668D01*
X017261Y019508D01*
X018566Y020789D02*
X008559Y020789D01*
X008559Y020711D02*
X019935Y020711D01*
X020794Y021967D02*
X021242Y021967D01*
X021320Y022046D02*
X020755Y022046D01*
X020716Y022124D02*
X022797Y022124D01*
X022797Y022046D02*
X021962Y022046D01*
X022040Y021967D02*
X022797Y021967D01*
X022797Y021889D02*
X022059Y021889D01*
X022059Y021810D02*
X022779Y021810D01*
X022700Y021732D02*
X022059Y021732D01*
X022059Y021653D02*
X022622Y021653D01*
X022543Y021575D02*
X022059Y021575D01*
X022797Y022203D02*
X020676Y022203D01*
X020637Y022282D02*
X022797Y022282D01*
X022797Y022360D02*
X020598Y022360D01*
X020559Y022439D02*
X022797Y022439D01*
X022797Y022517D02*
X020519Y022517D01*
X020480Y022596D02*
X022797Y022596D01*
X022797Y022674D02*
X020441Y022674D01*
X020402Y022753D02*
X022797Y022753D01*
X022797Y022831D02*
X020357Y022831D01*
X020240Y022910D02*
X020740Y022910D01*
X020842Y022868D02*
X021180Y022868D01*
X021493Y022997D01*
X021732Y023236D01*
X021861Y023549D01*
X021861Y023887D01*
X021732Y024199D01*
X021493Y024438D01*
X021180Y024568D01*
X020842Y024568D01*
X020530Y024438D01*
X020291Y024199D01*
X020161Y023887D01*
X020161Y023549D01*
X020291Y023236D01*
X020530Y022997D01*
X020842Y022868D01*
X020551Y022988D02*
X019542Y022988D01*
X019463Y023067D02*
X020460Y023067D01*
X020381Y023146D02*
X019316Y023146D01*
X018950Y023146D02*
X016901Y023146D01*
X016980Y023224D02*
X020303Y023224D01*
X020263Y023303D02*
X017019Y023303D01*
X017052Y023381D02*
X020230Y023381D01*
X020198Y023460D02*
X017084Y023460D01*
X017117Y023538D02*
X020165Y023538D01*
X020161Y023617D02*
X017121Y023617D01*
X017121Y023695D02*
X020161Y023695D01*
X020161Y023774D02*
X017121Y023774D01*
X017121Y023852D02*
X020161Y023852D01*
X020179Y023931D02*
X017103Y023931D01*
X017070Y024010D02*
X020212Y024010D01*
X020245Y024088D02*
X017038Y024088D01*
X017005Y024167D02*
X020277Y024167D01*
X020336Y024245D02*
X016946Y024245D01*
X016867Y024324D02*
X020415Y024324D01*
X020494Y024402D02*
X016789Y024402D01*
X016650Y024481D02*
X020632Y024481D01*
X020822Y024559D02*
X016460Y024559D01*
X015523Y023303D02*
X012388Y023303D01*
X012526Y023266D02*
X012220Y023348D01*
X011904Y023348D01*
X011599Y023266D01*
X011326Y023108D01*
X011102Y022885D01*
X010944Y022611D01*
X010862Y022306D01*
X010862Y021990D01*
X010944Y021685D01*
X011102Y021411D01*
X011326Y021187D01*
X011599Y021029D01*
X011904Y020948D01*
X012220Y020948D01*
X012526Y021029D01*
X012799Y021187D01*
X013023Y021411D01*
X013181Y021685D01*
X013262Y021990D01*
X013262Y022306D01*
X013181Y022611D01*
X013023Y022885D01*
X012799Y023108D01*
X012526Y023266D01*
X012598Y023224D02*
X015563Y023224D01*
X015641Y023146D02*
X012734Y023146D01*
X012840Y023067D02*
X015720Y023067D01*
X015811Y022988D02*
X012919Y022988D01*
X012997Y022910D02*
X016000Y022910D01*
X016542Y022910D02*
X017888Y022910D01*
X017825Y022831D02*
X013053Y022831D01*
X013099Y022753D02*
X017792Y022753D01*
X017779Y022596D02*
X013185Y022596D01*
X013206Y022517D02*
X017803Y022517D01*
X017835Y022439D02*
X013227Y022439D01*
X013248Y022360D02*
X017913Y022360D01*
X017813Y022282D02*
X013262Y022282D01*
X013262Y022203D02*
X017735Y022203D01*
X017682Y022124D02*
X013262Y022124D01*
X013262Y022046D02*
X017649Y022046D01*
X017619Y021967D02*
X013256Y021967D01*
X013235Y021889D02*
X017619Y021889D01*
X017619Y021810D02*
X013214Y021810D01*
X013193Y021732D02*
X017632Y021732D01*
X017664Y021653D02*
X013162Y021653D01*
X013117Y021575D02*
X017697Y021575D01*
X017771Y021496D02*
X013072Y021496D01*
X013026Y021418D02*
X017851Y021418D01*
X017941Y021339D02*
X012951Y021339D01*
X012872Y021261D02*
X018019Y021261D01*
X018098Y021182D02*
X012790Y021182D01*
X012654Y021103D02*
X018176Y021103D01*
X018255Y021025D02*
X012508Y021025D01*
X011616Y021025D02*
X008483Y021025D01*
X008550Y021103D02*
X011471Y021103D01*
X011335Y021182D02*
X009412Y021182D01*
X009404Y021179D02*
X009554Y021241D01*
X009670Y021356D01*
X009732Y021507D01*
X009732Y021549D01*
X009362Y021549D01*
X009362Y021629D01*
X009282Y021629D01*
X009282Y021999D01*
X009241Y021999D01*
X009090Y021936D01*
X008975Y021821D01*
X008912Y021670D01*
X008912Y021629D01*
X009282Y021629D01*
X009282Y021549D01*
X008912Y021549D01*
X008912Y021507D01*
X008975Y021356D01*
X009090Y021241D01*
X009241Y021179D01*
X009282Y021179D01*
X009282Y021548D01*
X009362Y021548D01*
X009362Y021179D01*
X009404Y021179D01*
X009362Y021182D02*
X009282Y021182D01*
X009233Y021182D02*
X008631Y021182D01*
X008710Y021261D02*
X009071Y021261D01*
X008992Y021339D02*
X008745Y021339D01*
X008778Y021418D02*
X008949Y021418D01*
X008917Y021496D02*
X008802Y021496D01*
X008802Y021575D02*
X009282Y021575D01*
X009282Y021653D02*
X009362Y021653D01*
X009362Y021629D02*
X009362Y021999D01*
X009404Y021999D01*
X009554Y021936D01*
X009670Y021821D01*
X009732Y021670D01*
X009732Y021629D01*
X009362Y021629D01*
X009362Y021575D02*
X011008Y021575D01*
X010962Y021653D02*
X009732Y021653D01*
X009707Y021732D02*
X010931Y021732D01*
X010910Y021810D02*
X009674Y021810D01*
X009602Y021889D02*
X010889Y021889D01*
X010868Y021967D02*
X009479Y021967D01*
X009362Y021967D02*
X009282Y021967D01*
X009282Y021889D02*
X009362Y021889D01*
X009362Y021810D02*
X009282Y021810D01*
X009282Y021732D02*
X009362Y021732D01*
X009362Y021496D02*
X009282Y021496D01*
X009282Y021418D02*
X009362Y021418D01*
X009362Y021339D02*
X009282Y021339D01*
X009282Y021261D02*
X009362Y021261D01*
X009574Y021261D02*
X011252Y021261D01*
X011174Y021339D02*
X009652Y021339D01*
X009695Y021418D02*
X011098Y021418D01*
X011053Y021496D02*
X009728Y021496D01*
X009165Y021967D02*
X008659Y021967D01*
X008724Y021889D02*
X009043Y021889D01*
X008970Y021810D02*
X008757Y021810D01*
X008789Y021732D02*
X008938Y021732D01*
X008912Y021653D02*
X008802Y021653D01*
X008580Y022046D02*
X010862Y022046D01*
X010862Y022124D02*
X008427Y022124D01*
X008502Y022203D02*
X007958Y022203D01*
X008036Y022124D02*
X007337Y022124D01*
X007411Y022203D02*
X006871Y022203D01*
X006945Y022124D02*
X006246Y022124D01*
X006324Y022203D02*
X005781Y022203D01*
X005855Y022124D02*
X005447Y022124D01*
X005526Y022046D02*
X005702Y022046D01*
X005623Y021967D02*
X005530Y021967D01*
X005530Y021889D02*
X005558Y021889D01*
X005141Y021408D02*
X004960Y021589D01*
X004960Y022160D01*
X005507Y022707D01*
X005888Y022282D02*
X006217Y022282D01*
X006138Y022360D02*
X005967Y022360D01*
X006013Y022439D02*
X006092Y022439D01*
X006059Y022517D02*
X006046Y022517D01*
X006399Y022046D02*
X006792Y022046D01*
X006714Y021967D02*
X006478Y021967D01*
X006543Y021889D02*
X006649Y021889D01*
X006616Y021810D02*
X006576Y021810D01*
X006979Y022282D02*
X007303Y022282D01*
X007225Y022360D02*
X007057Y022360D01*
X007104Y022439D02*
X007178Y022439D01*
X007146Y022517D02*
X007136Y022517D01*
X007490Y022046D02*
X007883Y022046D01*
X007804Y021967D02*
X007568Y021967D01*
X007634Y021889D02*
X007739Y021889D01*
X007707Y021810D02*
X007666Y021810D01*
X008065Y022282D02*
X008394Y022282D01*
X008315Y022360D02*
X008144Y022360D01*
X008190Y022439D02*
X008269Y022439D01*
X008236Y022517D02*
X008223Y022517D01*
X008217Y022910D02*
X008242Y022910D01*
X008275Y022988D02*
X008185Y022988D01*
X008130Y023067D02*
X008329Y023067D01*
X008408Y023146D02*
X008052Y023146D01*
X007925Y023224D02*
X008534Y023224D01*
X009015Y023224D02*
X011527Y023224D01*
X011391Y023146D02*
X009142Y023146D01*
X009221Y023067D02*
X011285Y023067D01*
X011206Y022988D02*
X009275Y022988D01*
X009308Y022910D02*
X011128Y022910D01*
X011071Y022831D02*
X009340Y022831D01*
X009345Y022753D02*
X011026Y022753D01*
X010981Y022674D02*
X009345Y022674D01*
X009345Y022596D02*
X010940Y022596D01*
X010919Y022517D02*
X009313Y022517D01*
X009281Y022439D02*
X010898Y022439D01*
X010877Y022360D02*
X009234Y022360D01*
X009156Y022282D02*
X010862Y022282D01*
X010862Y022203D02*
X009048Y022203D01*
X008559Y020946D02*
X018333Y020946D01*
X018412Y020868D02*
X008559Y020868D01*
X008141Y019148D02*
X007641Y019148D01*
X007141Y018648D01*
X006641Y018648D01*
X006141Y018148D01*
X006141Y016648D01*
X005891Y016398D01*
X003661Y016398D01*
X003661Y016898D02*
X005391Y016898D01*
X005641Y017148D01*
X005641Y018898D01*
X005891Y019148D01*
X006891Y019148D01*
X006391Y020148D02*
X005641Y020148D01*
X005141Y020648D01*
X005141Y021408D01*
X004501Y021025D02*
X002666Y021025D01*
X002811Y021103D02*
X004422Y021103D01*
X004390Y021182D02*
X002947Y021182D01*
X003030Y021261D02*
X004390Y021261D01*
X004390Y021339D02*
X003108Y021339D01*
X003184Y021418D02*
X004390Y021418D01*
X004390Y021496D02*
X003229Y021496D01*
X003275Y021575D02*
X004390Y021575D01*
X004390Y021653D02*
X003320Y021653D01*
X003351Y021732D02*
X004390Y021732D01*
X004390Y021810D02*
X003372Y021810D01*
X003393Y021889D02*
X004390Y021889D01*
X004390Y021967D02*
X003414Y021967D01*
X003420Y022046D02*
X004394Y022046D01*
X004473Y022124D02*
X003420Y022124D01*
X003420Y022203D02*
X004720Y022203D01*
X004751Y022282D02*
X003420Y022282D01*
X003405Y022360D02*
X004821Y022360D01*
X004900Y022439D02*
X003384Y022439D01*
X003363Y022517D02*
X004969Y022517D01*
X004937Y022596D02*
X003342Y022596D01*
X003301Y022674D02*
X004937Y022674D01*
X004937Y022753D02*
X003256Y022753D01*
X003211Y022831D02*
X004942Y022831D01*
X004974Y022910D02*
X003155Y022910D01*
X003076Y022988D02*
X005007Y022988D01*
X005061Y023067D02*
X002998Y023067D01*
X002891Y023146D02*
X005140Y023146D01*
X005267Y023224D02*
X002755Y023224D01*
X002546Y023303D02*
X011736Y023303D01*
X013144Y022674D02*
X018109Y022674D01*
X018109Y022753D02*
X018189Y022753D01*
X018189Y022688D02*
X018519Y022688D01*
X018519Y022721D01*
X018603Y022753D02*
X018603Y022542D01*
X018684Y022347D01*
X018774Y022258D01*
X018684Y022168D01*
X018641Y022064D01*
X018598Y022168D01*
X018449Y022317D01*
X018373Y022349D01*
X018463Y022438D01*
X018519Y022574D01*
X018519Y022608D01*
X018189Y022608D01*
X018189Y022688D01*
X018189Y022674D02*
X018603Y022674D01*
X018603Y022596D02*
X018519Y022596D01*
X018495Y022517D02*
X018614Y022517D01*
X018646Y022439D02*
X018463Y022439D01*
X018385Y022360D02*
X018679Y022360D01*
X018750Y022282D02*
X018485Y022282D01*
X018563Y022203D02*
X018719Y022203D01*
X018666Y022124D02*
X018616Y022124D01*
X019133Y022648D02*
X019181Y022668D01*
X019181Y022648D01*
X018803Y023067D02*
X016822Y023067D01*
X016732Y022988D02*
X018005Y022988D01*
X018109Y022988D02*
X018189Y022988D01*
X018189Y022910D02*
X018109Y022910D01*
X018109Y022831D02*
X018189Y022831D01*
X018293Y022988D02*
X018724Y022988D01*
X018668Y022910D02*
X018410Y022910D01*
X018473Y022831D02*
X018636Y022831D01*
X021282Y022910D02*
X022797Y022910D01*
X022797Y022988D02*
X021472Y022988D01*
X021562Y023067D02*
X022797Y023067D01*
X022797Y023146D02*
X021641Y023146D01*
X021720Y023224D02*
X022797Y023224D01*
X022797Y023303D02*
X021759Y023303D01*
X021792Y023381D02*
X022797Y023381D01*
X022797Y023460D02*
X021824Y023460D01*
X021857Y023538D02*
X022797Y023538D01*
X022797Y023617D02*
X021861Y023617D01*
X021861Y023695D02*
X022765Y023695D01*
X022721Y023774D02*
X021861Y023774D01*
X021861Y023852D02*
X022721Y023852D01*
X022721Y023931D02*
X021843Y023931D01*
X021810Y024010D02*
X022721Y024010D01*
X022721Y024088D02*
X021778Y024088D01*
X021745Y024167D02*
X022721Y024167D01*
X022721Y024245D02*
X021686Y024245D01*
X021607Y024324D02*
X022721Y024324D01*
X022721Y024402D02*
X021529Y024402D01*
X021390Y024481D02*
X022721Y024481D01*
X022721Y024559D02*
X021200Y024559D01*
X022422Y025188D02*
X001141Y025188D01*
X000341Y025188D01*
X000341Y025266D02*
X001141Y025266D01*
X022390Y025266D01*
X022366Y025345D02*
X001141Y025345D01*
X000341Y025345D01*
X000341Y025423D02*
X001141Y025423D01*
X022366Y025423D01*
X022378Y025502D02*
X001141Y025502D01*
X000341Y025502D01*
X000341Y025580D02*
X001141Y025580D01*
X022411Y025580D01*
X022471Y025659D02*
X001141Y025659D01*
X000341Y025659D01*
X000341Y025737D02*
X001141Y025737D01*
X022578Y025737D01*
X022909Y025737D02*
X025374Y025737D01*
X025267Y025659D02*
X023016Y025659D01*
X023076Y025580D02*
X025206Y025580D01*
X025174Y025502D02*
X023109Y025502D01*
X023121Y025423D02*
X025162Y025423D01*
X025162Y025345D02*
X023121Y025345D01*
X023097Y025266D02*
X025185Y025266D01*
X025217Y025188D02*
X023065Y025188D01*
X022988Y025109D02*
X025294Y025109D01*
X025638Y025031D02*
X029141Y025031D01*
X031437Y025031D01*
X031437Y025109D02*
X029141Y025109D01*
X025784Y025109D01*
X025860Y025188D02*
X029141Y025188D01*
X031437Y025188D01*
X031437Y025266D02*
X029141Y025266D01*
X025892Y025266D01*
X025916Y025345D02*
X029141Y025345D01*
X031437Y025345D01*
X031437Y025423D02*
X029141Y025423D01*
X025916Y025423D01*
X025904Y025502D02*
X029141Y025502D01*
X031437Y025502D01*
X031437Y025580D02*
X029141Y025580D01*
X025871Y025580D01*
X025811Y025659D02*
X029141Y025659D01*
X031437Y025659D01*
X031437Y025737D02*
X029141Y025737D01*
X025704Y025737D01*
X025562Y024874D02*
X028801Y024874D01*
X028646Y024795D02*
X025562Y024795D01*
X025562Y024716D02*
X028568Y024716D01*
X028489Y024638D02*
X025562Y024638D01*
X025562Y024559D02*
X028426Y024559D01*
X028394Y024481D02*
X025562Y024481D01*
X025562Y024402D02*
X028361Y024402D01*
X028329Y024324D02*
X025626Y024324D01*
X025704Y024245D02*
X028311Y024245D01*
X028311Y024167D02*
X025783Y024167D01*
X025314Y023617D02*
X024681Y023617D01*
X024734Y023695D02*
X024603Y023695D01*
X024577Y023774D02*
X024689Y023774D01*
X024689Y023852D02*
X024577Y023852D01*
X024577Y023931D02*
X024689Y023931D01*
X024689Y024010D02*
X024577Y024010D01*
X024577Y024088D02*
X024689Y024088D01*
X024689Y024167D02*
X024577Y024167D01*
X024577Y024245D02*
X024689Y024245D01*
X024689Y024324D02*
X024577Y024324D01*
X024577Y024402D02*
X024689Y024402D01*
X024689Y024481D02*
X024577Y024481D01*
X024577Y024559D02*
X024689Y024559D01*
X024689Y024638D02*
X024577Y024638D01*
X024577Y024716D02*
X024689Y024716D01*
X024689Y024795D02*
X024577Y024795D01*
X024577Y024874D02*
X024689Y024874D01*
X024751Y024952D02*
X024515Y024952D01*
X023767Y024952D02*
X023531Y024952D01*
X023593Y024874D02*
X023705Y024874D01*
X023705Y024795D02*
X023593Y024795D01*
X023593Y024716D02*
X023705Y024716D01*
X023705Y024638D02*
X023593Y024638D01*
X023593Y024559D02*
X023705Y024559D01*
X023705Y024481D02*
X023593Y024481D01*
X023593Y024402D02*
X023705Y024402D01*
X023705Y024324D02*
X023593Y024324D01*
X023593Y024245D02*
X023705Y024245D01*
X023705Y024167D02*
X023593Y024167D01*
X023593Y024088D02*
X023705Y024088D01*
X023705Y024010D02*
X023593Y024010D01*
X023593Y023931D02*
X023705Y023931D01*
X023705Y023852D02*
X023593Y023852D01*
X023593Y023774D02*
X023705Y023774D01*
X023750Y023695D02*
X023548Y023695D01*
X023517Y023617D02*
X023781Y023617D01*
X023797Y023538D02*
X023517Y023538D01*
X023517Y023460D02*
X023829Y023460D01*
X023899Y023381D02*
X023517Y023381D01*
X023517Y023303D02*
X023977Y023303D01*
X024056Y023224D02*
X023517Y023224D01*
X023517Y023146D02*
X024134Y023146D01*
X024213Y023067D02*
X023517Y023067D01*
X023517Y022988D02*
X024291Y022988D01*
X024370Y022910D02*
X023517Y022910D01*
X023517Y022831D02*
X024448Y022831D01*
X024527Y022753D02*
X023517Y022753D01*
X023517Y022674D02*
X024605Y022674D01*
X024684Y022596D02*
X023517Y022596D01*
X023517Y022517D02*
X024762Y022517D01*
X024781Y022439D02*
X023517Y022439D01*
X023517Y022360D02*
X024781Y022360D01*
X024781Y022282D02*
X023517Y022282D01*
X023517Y022203D02*
X024781Y022203D01*
X024781Y022124D02*
X023517Y022124D01*
X023517Y022046D02*
X024781Y022046D01*
X024781Y021967D02*
X023517Y021967D01*
X023517Y021889D02*
X024781Y021889D01*
X024781Y021810D02*
X023517Y021810D01*
X023517Y021732D02*
X024781Y021732D01*
X024781Y021653D02*
X023517Y021653D01*
X023503Y021575D02*
X024781Y021575D01*
X024781Y021496D02*
X023471Y021496D01*
X023404Y021418D02*
X024781Y021418D01*
X024781Y021339D02*
X023326Y021339D01*
X023247Y021261D02*
X024781Y021261D01*
X024781Y021182D02*
X023169Y021182D01*
X023090Y021103D02*
X024781Y021103D01*
X024781Y021025D02*
X023483Y021025D01*
X023559Y020946D02*
X024781Y020946D01*
X024781Y020868D02*
X023559Y020868D01*
X023559Y020789D02*
X024781Y020789D01*
X024781Y020711D02*
X023559Y020711D01*
X023141Y020648D02*
X022641Y020148D01*
X022641Y017648D01*
X021801Y016808D01*
X021801Y015148D01*
X023641Y015148D01*
X023818Y015234D01*
X023141Y014648D02*
X023101Y014668D01*
X024221Y014108D02*
X025181Y014108D01*
X026921Y016648D02*
X026941Y016668D01*
X026941Y017868D01*
X028861Y016668D02*
X029341Y016668D01*
X029361Y016648D01*
X029421Y016668D01*
X029421Y016988D01*
X029901Y016988D01*
X029921Y017008D01*
X029901Y017028D01*
X029921Y017008D02*
X029936Y016993D01*
X030514Y017176D02*
X031437Y017176D01*
X031437Y017098D02*
X031092Y017098D01*
X031171Y017019D02*
X031437Y017019D01*
X031437Y016941D02*
X031195Y016941D01*
X031195Y016862D02*
X031437Y016862D01*
X031437Y016784D02*
X031195Y016784D01*
X031195Y016705D02*
X031437Y016705D01*
X031437Y016626D02*
X031195Y016626D01*
X031195Y016548D02*
X031437Y016548D01*
X031437Y016469D02*
X031195Y016469D01*
X031195Y016391D02*
X031437Y016391D01*
X031437Y016312D02*
X031195Y016312D01*
X031195Y016234D02*
X031437Y016234D01*
X031437Y016155D02*
X031152Y016155D01*
X031195Y016077D02*
X031437Y016077D01*
X031437Y015998D02*
X031195Y015998D01*
X031195Y015920D02*
X031437Y015920D01*
X031437Y015841D02*
X031195Y015841D01*
X031195Y015762D02*
X031437Y015762D01*
X031437Y015684D02*
X031195Y015684D01*
X031195Y015605D02*
X031437Y015605D01*
X031437Y015527D02*
X031195Y015527D01*
X031195Y015448D02*
X031437Y015448D01*
X031437Y015370D02*
X031195Y015370D01*
X031186Y015291D02*
X031437Y015291D01*
X031437Y015213D02*
X031107Y015213D01*
X031012Y014951D02*
X030681Y014951D01*
X030681Y014637D01*
X030601Y014637D01*
X030601Y014951D01*
X030270Y014951D01*
X030247Y014928D01*
X030247Y014636D01*
X030601Y014636D01*
X030601Y014557D01*
X030247Y014557D01*
X030247Y014265D01*
X030270Y014242D01*
X030601Y014242D01*
X030601Y014556D01*
X030681Y014556D01*
X030681Y014242D01*
X031012Y014242D01*
X031035Y014265D01*
X031035Y014557D01*
X030681Y014557D01*
X030681Y014636D01*
X031035Y014636D01*
X031035Y014928D01*
X031012Y014951D01*
X031035Y014899D02*
X031437Y014899D01*
X031437Y014977D02*
X029141Y014977D01*
X029141Y014899D02*
X030247Y014899D01*
X030247Y014820D02*
X029141Y014820D01*
X029141Y014741D02*
X030247Y014741D01*
X030247Y014663D02*
X029141Y014663D01*
X029141Y014584D02*
X030601Y014584D01*
X030601Y014506D02*
X030681Y014506D01*
X030681Y014584D02*
X031437Y014584D01*
X031437Y014506D02*
X031035Y014506D01*
X031035Y014427D02*
X031437Y014427D01*
X031437Y014349D02*
X031035Y014349D01*
X031035Y014270D02*
X031437Y014270D01*
X031437Y014192D02*
X029141Y014192D01*
X029141Y014270D02*
X030247Y014270D01*
X030247Y014349D02*
X029141Y014349D01*
X029141Y014427D02*
X030247Y014427D01*
X030247Y014506D02*
X029141Y014506D01*
X029141Y014113D02*
X031437Y014113D01*
X031437Y014035D02*
X029141Y014035D01*
X029141Y013956D02*
X029170Y013956D01*
X029170Y013877D02*
X029141Y013877D01*
X029141Y013799D02*
X029170Y013799D01*
X029170Y013720D02*
X029141Y013720D01*
X029170Y013642D02*
X031437Y013642D01*
X031437Y013720D02*
X029506Y013720D01*
X029474Y013799D02*
X031437Y013799D01*
X031437Y013877D02*
X029428Y013877D01*
X029349Y013956D02*
X031437Y013956D01*
X031437Y013563D02*
X029501Y013563D01*
X029469Y013485D02*
X031437Y013485D01*
X031437Y013406D02*
X029416Y013406D01*
X029322Y013328D02*
X031437Y013328D01*
X031437Y013249D02*
X029141Y013249D01*
X029141Y013171D02*
X031437Y013171D01*
X031437Y013092D02*
X029141Y013092D01*
X029141Y013013D02*
X031437Y013013D01*
X031437Y012935D02*
X029141Y012935D01*
X029141Y012856D02*
X031437Y012856D01*
X031437Y012778D02*
X029141Y012778D01*
X029141Y012699D02*
X031437Y012699D01*
X031437Y012621D02*
X029141Y012621D01*
X029141Y012542D02*
X031437Y012542D01*
X031437Y012464D02*
X029141Y012464D01*
X029141Y012385D02*
X031437Y012385D01*
X031437Y012307D02*
X029141Y012307D01*
X029141Y012228D02*
X031437Y012228D01*
X031437Y012149D02*
X029141Y012149D01*
X029141Y012071D02*
X031437Y012071D01*
X031437Y011992D02*
X029141Y011992D01*
X029141Y011914D02*
X031437Y011914D01*
X031437Y011835D02*
X029141Y011835D01*
X029141Y011757D02*
X031437Y011757D01*
X031437Y011678D02*
X029141Y011678D01*
X029141Y011600D02*
X031437Y011600D01*
X031437Y011521D02*
X029141Y011521D01*
X029141Y011443D02*
X029170Y011443D01*
X029170Y011364D02*
X029141Y011364D01*
X029141Y011286D02*
X029170Y011286D01*
X029170Y011207D02*
X029141Y011207D01*
X029170Y011128D02*
X031437Y011128D01*
X031437Y011050D02*
X029496Y011050D01*
X029463Y010971D02*
X031437Y010971D01*
X031437Y010893D02*
X029402Y010893D01*
X029290Y010814D02*
X031437Y010814D01*
X031437Y010736D02*
X029141Y010736D01*
X029141Y010814D02*
X029170Y010814D01*
X029170Y010893D02*
X029141Y010893D01*
X029141Y010971D02*
X029170Y010971D01*
X029170Y011050D02*
X029141Y011050D01*
X029506Y011207D02*
X031437Y011207D01*
X031437Y011286D02*
X029479Y011286D01*
X029441Y011364D02*
X031437Y011364D01*
X031437Y011443D02*
X029362Y011443D01*
X029298Y010500D02*
X031437Y010500D01*
X031437Y010422D02*
X029376Y010422D01*
X029455Y010343D02*
X031437Y010343D01*
X031437Y010264D02*
X029533Y010264D01*
X029612Y010186D02*
X031437Y010186D01*
X031437Y010107D02*
X029676Y010107D01*
X029709Y010029D02*
X031437Y010029D01*
X031437Y009950D02*
X029721Y009950D01*
X029721Y009872D02*
X031437Y009872D01*
X031437Y009793D02*
X029721Y009793D01*
X029721Y009715D02*
X031437Y009715D01*
X031437Y009636D02*
X031156Y009636D01*
X031195Y009558D02*
X031437Y009558D01*
X031437Y009479D02*
X031195Y009479D01*
X031195Y009400D02*
X031437Y009400D01*
X031437Y009322D02*
X031195Y009322D01*
X031195Y009243D02*
X031437Y009243D01*
X031437Y009165D02*
X031195Y009165D01*
X031195Y009086D02*
X031437Y009086D01*
X031437Y009008D02*
X031195Y009008D01*
X031195Y008929D02*
X031437Y008929D01*
X031437Y008851D02*
X031195Y008851D01*
X031166Y008772D02*
X031437Y008772D01*
X031437Y008694D02*
X031088Y008694D01*
X031153Y008536D02*
X031437Y008536D01*
X031437Y008458D02*
X031195Y008458D01*
X031195Y008379D02*
X031437Y008379D01*
X031437Y008301D02*
X031195Y008301D01*
X031195Y008222D02*
X031437Y008222D01*
X031437Y008144D02*
X031195Y008144D01*
X031195Y008065D02*
X031437Y008065D01*
X031437Y007987D02*
X031195Y007987D01*
X031195Y007908D02*
X031437Y007908D01*
X031437Y007830D02*
X031195Y007830D01*
X031195Y007751D02*
X031437Y007751D01*
X031437Y007673D02*
X031169Y007673D01*
X031195Y007594D02*
X031437Y007594D01*
X031437Y007515D02*
X031195Y007515D01*
X031195Y007437D02*
X031437Y007437D01*
X031437Y007358D02*
X031195Y007358D01*
X031195Y007280D02*
X031437Y007280D01*
X031437Y007201D02*
X031195Y007201D01*
X031195Y007123D02*
X031437Y007123D01*
X031437Y007044D02*
X031195Y007044D01*
X031195Y006966D02*
X031437Y006966D01*
X031437Y006887D02*
X031195Y006887D01*
X031195Y006809D02*
X031437Y006809D01*
X031437Y006730D02*
X031124Y006730D01*
X031012Y006451D02*
X030681Y006451D01*
X030681Y006137D01*
X030601Y006137D01*
X030601Y006451D01*
X030270Y006451D01*
X030247Y006428D01*
X030247Y006136D01*
X030601Y006136D01*
X030601Y006057D01*
X030247Y006057D01*
X030247Y005765D01*
X030270Y005742D01*
X030601Y005742D01*
X030601Y006056D01*
X030681Y006056D01*
X030681Y005742D01*
X031012Y005742D01*
X031035Y005765D01*
X031035Y006057D01*
X030681Y006057D01*
X030681Y006136D01*
X031035Y006136D01*
X031035Y006428D01*
X031012Y006451D01*
X031035Y006416D02*
X031437Y006416D01*
X031437Y006494D02*
X029141Y006494D01*
X029141Y006416D02*
X030247Y006416D01*
X030247Y006337D02*
X029141Y006337D01*
X029141Y006259D02*
X030247Y006259D01*
X030247Y006180D02*
X029141Y006180D01*
X029141Y006102D02*
X030601Y006102D01*
X030601Y006180D02*
X030681Y006180D01*
X030681Y006102D02*
X031437Y006102D01*
X031437Y006180D02*
X031035Y006180D01*
X031035Y006259D02*
X031437Y006259D01*
X031437Y006337D02*
X031035Y006337D01*
X031035Y006023D02*
X031437Y006023D01*
X031437Y005945D02*
X031035Y005945D01*
X031035Y005866D02*
X031437Y005866D01*
X031437Y005787D02*
X031035Y005787D01*
X030681Y005787D02*
X030601Y005787D01*
X030601Y005866D02*
X030681Y005866D01*
X030681Y005945D02*
X030601Y005945D01*
X030601Y006023D02*
X030681Y006023D01*
X030681Y006259D02*
X030601Y006259D01*
X030601Y006337D02*
X030681Y006337D01*
X030681Y006416D02*
X030601Y006416D01*
X030247Y006023D02*
X029141Y006023D01*
X029141Y005945D02*
X030247Y005945D01*
X030247Y005866D02*
X029141Y005866D01*
X029141Y005787D02*
X030247Y005787D01*
X029466Y005316D02*
X031437Y005316D01*
X031437Y005238D02*
X029499Y005238D01*
X029506Y005081D02*
X031437Y005081D01*
X031437Y005159D02*
X029170Y005159D01*
X029170Y005081D02*
X029141Y005081D01*
X029141Y005002D02*
X029170Y005002D01*
X029170Y004924D02*
X029141Y004924D01*
X029141Y004845D02*
X029170Y004845D01*
X029141Y004766D02*
X031437Y004766D01*
X031437Y004688D02*
X029141Y004688D01*
X029141Y004609D02*
X031437Y004609D01*
X031437Y004531D02*
X029141Y004531D01*
X029141Y004452D02*
X031437Y004452D01*
X031437Y004374D02*
X029141Y004374D01*
X029141Y004295D02*
X031437Y004295D01*
X031437Y004217D02*
X029141Y004217D01*
X029141Y004138D02*
X031437Y004138D01*
X031437Y004060D02*
X029141Y004060D01*
X029141Y003981D02*
X031437Y003981D01*
X031437Y003902D02*
X029141Y003902D01*
X029141Y003824D02*
X031437Y003824D01*
X031437Y003745D02*
X029141Y003745D01*
X029141Y003667D02*
X031437Y003667D01*
X031437Y003588D02*
X029141Y003588D01*
X029141Y003510D02*
X031437Y003510D01*
X031437Y003431D02*
X029141Y003431D01*
X029141Y003353D02*
X031437Y003353D01*
X031437Y003274D02*
X029141Y003274D01*
X029141Y003196D02*
X031437Y003196D01*
X031437Y003117D02*
X030407Y003117D01*
X030486Y003038D02*
X031437Y003038D01*
X031437Y002960D02*
X030564Y002960D01*
X030643Y002881D02*
X031437Y002881D01*
X031437Y002803D02*
X030661Y002803D01*
X030661Y002724D02*
X031437Y002724D01*
X031437Y002646D02*
X030661Y002646D01*
X030661Y002567D02*
X031437Y002567D01*
X031437Y002489D02*
X030661Y002489D01*
X030639Y002410D02*
X031437Y002410D01*
X031437Y002332D02*
X030560Y002332D01*
X030482Y002253D02*
X031437Y002253D01*
X031437Y002174D02*
X030403Y002174D01*
X030359Y001939D02*
X031437Y001939D01*
X031437Y002017D02*
X029141Y002017D01*
X029141Y001939D02*
X029181Y001939D01*
X029181Y001860D02*
X029141Y001860D01*
X029141Y001782D02*
X029181Y001782D01*
X029181Y001703D02*
X029141Y001703D01*
X029101Y001625D02*
X028181Y001625D01*
X028181Y001608D02*
X028501Y001608D01*
X028501Y001499D01*
X028290Y001288D01*
X028181Y001288D01*
X028181Y001608D01*
X028181Y001546D02*
X028101Y001546D01*
X028101Y001468D02*
X028181Y001468D01*
X028181Y001389D02*
X028101Y001389D01*
X028101Y001311D02*
X028181Y001311D01*
X028313Y001311D02*
X028969Y001311D01*
X028891Y001389D02*
X028392Y001389D01*
X028470Y001468D02*
X028812Y001468D01*
X028781Y001546D02*
X028501Y001546D01*
X028101Y001625D02*
X027601Y001625D01*
X027601Y001546D02*
X027781Y001546D01*
X027812Y001468D02*
X027601Y001468D01*
X027533Y001389D02*
X027891Y001389D01*
X027969Y001311D02*
X027454Y001311D01*
X027376Y001232D02*
X031497Y001232D01*
X031437Y001232D02*
X029141Y001232D01*
X029141Y001311D02*
X029181Y001311D01*
X029101Y001311D01*
X029101Y001389D02*
X029181Y001389D01*
X029141Y001389D01*
X029141Y001468D02*
X029181Y001468D01*
X029101Y001468D01*
X029101Y001546D02*
X029181Y001546D01*
X029141Y001546D01*
X029181Y001625D02*
X030101Y001625D01*
X029181Y001625D01*
X029392Y001389D02*
X029891Y001389D01*
X029392Y001389D01*
X029470Y001468D02*
X029812Y001468D01*
X029470Y001468D01*
X029501Y001546D02*
X029781Y001546D01*
X029501Y001546D01*
X029501Y001703D02*
X029781Y001703D01*
X029781Y001782D02*
X029501Y001782D01*
X029438Y001860D02*
X029845Y001860D01*
X029923Y001939D02*
X029359Y001939D01*
X029403Y002174D02*
X029879Y002174D01*
X029800Y002253D02*
X029482Y002253D01*
X029560Y002332D02*
X029722Y002332D01*
X029643Y002410D02*
X029639Y002410D01*
X029564Y002960D02*
X029718Y002960D01*
X029797Y003038D02*
X029486Y003038D01*
X029407Y003117D02*
X029875Y003117D01*
X029141Y002096D02*
X031437Y002096D01*
X031437Y001860D02*
X030438Y001860D01*
X030501Y001782D02*
X031437Y001782D01*
X031437Y001703D02*
X030501Y001703D01*
X030501Y001608D02*
X030181Y001608D01*
X030501Y001608D01*
X030501Y001499D01*
X030290Y001288D01*
X030181Y001288D01*
X030181Y001608D01*
X030101Y001608D01*
X030181Y001608D01*
X030181Y001288D01*
X030290Y001288D01*
X030501Y001499D01*
X030501Y001608D01*
X030501Y001546D02*
X031497Y001546D01*
X031437Y001546D02*
X030501Y001546D01*
X030470Y001468D02*
X031497Y001468D01*
X031437Y001468D02*
X030470Y001468D01*
X030392Y001389D02*
X031497Y001389D01*
X031437Y001389D02*
X030392Y001389D01*
X030313Y001311D02*
X031497Y001311D01*
X031437Y001311D02*
X030313Y001311D01*
X030181Y001311D02*
X030101Y001311D01*
X030181Y001311D01*
X030181Y001389D02*
X030101Y001389D01*
X030181Y001389D01*
X030181Y001468D02*
X030101Y001468D01*
X030181Y001468D01*
X030181Y001546D02*
X030101Y001546D01*
X030181Y001546D01*
X030181Y001625D02*
X031497Y001625D01*
X031437Y001625D02*
X030181Y001625D01*
X030181Y001703D02*
X030101Y001703D01*
X030101Y001782D02*
X030181Y001782D01*
X030181Y001860D02*
X030101Y001860D01*
X030101Y001939D02*
X030181Y001939D01*
X029969Y001311D02*
X029313Y001311D01*
X029969Y001311D01*
X029141Y001153D02*
X031437Y001153D01*
X031497Y001153D02*
X001141Y001153D01*
X000341Y001153D01*
X000341Y001075D02*
X001141Y001075D01*
X031497Y001075D01*
X031437Y001075D02*
X029141Y001075D01*
X029141Y000996D02*
X031437Y000996D01*
X031497Y000996D02*
X001141Y000996D01*
X000341Y000996D01*
X000341Y000918D02*
X001141Y000918D01*
X031497Y000918D01*
X031437Y000918D02*
X029141Y000918D01*
X029141Y000839D02*
X031437Y000839D01*
X031497Y000839D02*
X001141Y000839D01*
X000341Y000839D01*
X000341Y000761D02*
X001141Y000761D01*
X031497Y000761D01*
X031437Y000761D02*
X029141Y000761D01*
X029141Y000682D02*
X031437Y000682D01*
X031497Y000682D02*
X001141Y000682D01*
X000341Y000682D01*
X000341Y000604D02*
X001141Y000604D01*
X031497Y000604D01*
X031437Y000604D02*
X029141Y000604D01*
X029141Y000525D02*
X031437Y000525D01*
X031497Y000525D02*
X001141Y000525D01*
X000341Y000525D01*
X001141Y000447D02*
X031497Y000447D01*
X031437Y004845D02*
X029355Y004845D01*
X029433Y004924D02*
X031437Y004924D01*
X031437Y005002D02*
X029476Y005002D01*
X029170Y005238D02*
X029141Y005238D01*
X029141Y005316D02*
X029170Y005316D01*
X029170Y005395D02*
X029141Y005395D01*
X029141Y005473D02*
X029170Y005473D01*
X029141Y005552D02*
X031437Y005552D01*
X031437Y005630D02*
X029141Y005630D01*
X029141Y005709D02*
X031437Y005709D01*
X031437Y005473D02*
X029309Y005473D01*
X029410Y005395D02*
X031437Y005395D01*
X031437Y006573D02*
X029141Y006573D01*
X029141Y006651D02*
X031437Y006651D01*
X030158Y006730D02*
X029141Y006730D01*
X029895Y006809D02*
X030087Y006809D01*
X030087Y006887D02*
X029973Y006887D01*
X029641Y008148D02*
X029581Y008188D01*
X029501Y008188D01*
X029361Y008148D01*
X028741Y008148D02*
X028621Y008028D01*
X028141Y007628D02*
X027181Y007628D01*
X027181Y008108D01*
X026921Y008148D01*
X027021Y008548D01*
X026941Y008468D01*
X026941Y008148D01*
X025501Y009228D02*
X025441Y009158D01*
X025421Y010108D02*
X025441Y010158D01*
X024281Y009188D02*
X024301Y009148D01*
X024301Y006348D02*
X024621Y006028D01*
X024641Y006014D01*
X024701Y005468D02*
X025341Y005468D01*
X024701Y005468D02*
X023981Y004748D01*
X023981Y003788D01*
X025101Y002668D01*
X025141Y002648D01*
X025661Y002188D02*
X020541Y002188D01*
X020541Y002748D01*
X019821Y003468D01*
X019821Y004188D01*
X019981Y003708D02*
X021101Y003708D01*
X021141Y003648D01*
X019901Y002908D02*
X019701Y002738D01*
X017181Y002748D01*
X017181Y006188D01*
X016221Y007148D01*
X014781Y006668D02*
X014781Y006268D01*
X016861Y004188D01*
X016861Y003708D02*
X014461Y006108D01*
X014461Y006668D01*
X014414Y006698D01*
X014141Y006668D02*
X014099Y006698D01*
X014061Y006748D01*
X014061Y007068D01*
X012941Y007068D01*
X012861Y006988D01*
X012861Y006748D01*
X012839Y006698D01*
X013101Y006668D02*
X013154Y006698D01*
X013101Y006668D02*
X013101Y002828D01*
X012781Y002508D02*
X013141Y002148D01*
X012781Y002508D02*
X012781Y005308D01*
X012301Y005788D01*
X012141Y006828D02*
X012141Y007148D01*
X012221Y007228D01*
X012251Y007285D01*
X012301Y007548D02*
X012251Y007600D01*
X012301Y007548D02*
X012781Y007548D01*
X012221Y007868D02*
X012251Y007915D01*
X012221Y007868D02*
X011821Y007868D01*
X011821Y002508D01*
X012141Y002188D01*
X012141Y002148D01*
X011141Y002148D02*
X010781Y002508D01*
X010781Y008188D01*
X012221Y008188D01*
X012251Y008230D01*
X012221Y008508D02*
X012251Y008545D01*
X012221Y008508D02*
X006861Y008508D01*
X006861Y006908D01*
X005661Y005708D01*
X005641Y005648D01*
X004461Y004028D02*
X004421Y004038D01*
X004461Y004028D02*
X005341Y003148D01*
X005641Y003648D02*
X003661Y005628D01*
X003661Y009148D01*
X005821Y009148D01*
X006141Y008828D01*
X006141Y008508D01*
X006621Y008508D01*
X006701Y008588D01*
X006701Y008828D01*
X012221Y008828D01*
X012251Y008860D01*
X012221Y009148D02*
X012251Y009175D01*
X012221Y009148D02*
X006141Y009148D01*
X006121Y009128D01*
X006541Y008708D01*
X006141Y008508D02*
X006141Y008428D01*
X006121Y009128D02*
X005661Y009588D01*
X005641Y009648D01*
X005661Y010628D02*
X005641Y010648D01*
X003661Y011628D02*
X003661Y009148D01*
X003661Y011628D02*
X003141Y012148D01*
X003501Y012508D02*
X003341Y012668D01*
X002141Y012668D01*
X002141Y012148D01*
X001141Y012149D02*
X000341Y012149D01*
X000341Y012071D02*
X001141Y012071D01*
X001141Y011992D02*
X000341Y011992D01*
X000341Y011914D02*
X001141Y011914D01*
X001141Y011835D02*
X000341Y011835D01*
X000341Y011757D02*
X001141Y011757D01*
X001141Y011678D02*
X000341Y011678D01*
X000341Y011600D02*
X001141Y011600D01*
X001141Y011521D02*
X000341Y011521D01*
X000341Y011443D02*
X001141Y011443D01*
X001141Y011364D02*
X000341Y011364D01*
X000341Y011286D02*
X001141Y011286D01*
X001141Y011207D02*
X000341Y011207D01*
X000341Y011128D02*
X001141Y011128D01*
X001141Y011050D02*
X000341Y011050D01*
X000341Y010971D02*
X001141Y010971D01*
X001141Y010893D02*
X000341Y010893D01*
X000341Y010814D02*
X001141Y010814D01*
X001141Y010736D02*
X000341Y010736D01*
X000341Y010657D02*
X001141Y010657D01*
X001141Y010579D02*
X000341Y010579D01*
X000341Y010500D02*
X001141Y010500D01*
X001141Y010422D02*
X000341Y010422D01*
X000341Y010343D02*
X001141Y010343D01*
X001141Y010264D02*
X000341Y010264D01*
X000341Y010186D02*
X001141Y010186D01*
X001141Y010107D02*
X000341Y010107D01*
X000341Y010029D02*
X001141Y010029D01*
X001141Y009950D02*
X000341Y009950D01*
X000341Y009872D02*
X001141Y009872D01*
X001141Y009793D02*
X000341Y009793D01*
X000341Y009715D02*
X001141Y009715D01*
X001141Y009636D02*
X000341Y009636D01*
X000341Y009558D02*
X001141Y009558D01*
X001141Y009479D02*
X000341Y009479D01*
X000341Y009400D02*
X001141Y009400D01*
X001141Y009322D02*
X000341Y009322D01*
X000341Y009243D02*
X001141Y009243D01*
X001141Y009165D02*
X000341Y009165D01*
X000341Y009086D02*
X001141Y009086D01*
X001141Y009008D02*
X000341Y009008D01*
X000341Y008929D02*
X001141Y008929D01*
X001141Y008851D02*
X000341Y008851D01*
X000341Y008772D02*
X001141Y008772D01*
X001141Y008694D02*
X000341Y008694D01*
X000341Y008615D02*
X001141Y008615D01*
X001141Y008536D02*
X000341Y008536D01*
X000341Y008458D02*
X001141Y008458D01*
X001141Y008379D02*
X000341Y008379D01*
X000341Y008301D02*
X001141Y008301D01*
X001141Y008222D02*
X000341Y008222D01*
X000341Y008144D02*
X001141Y008144D01*
X001141Y008065D02*
X000341Y008065D01*
X000341Y007987D02*
X001141Y007987D01*
X001141Y007908D02*
X000341Y007908D01*
X000341Y007830D02*
X001141Y007830D01*
X001141Y007751D02*
X000341Y007751D01*
X000341Y007673D02*
X001141Y007673D01*
X001141Y007594D02*
X000341Y007594D01*
X000341Y007515D02*
X001141Y007515D01*
X001141Y007437D02*
X000341Y007437D01*
X000341Y007358D02*
X001141Y007358D01*
X001141Y007280D02*
X000341Y007280D01*
X000341Y007201D02*
X001141Y007201D01*
X001141Y007123D02*
X000341Y007123D01*
X000341Y007044D02*
X001141Y007044D01*
X001141Y006966D02*
X000341Y006966D01*
X000341Y006887D02*
X001141Y006887D01*
X001141Y006809D02*
X000341Y006809D01*
X000341Y006730D02*
X001141Y006730D01*
X001141Y006651D02*
X000341Y006651D01*
X000341Y006573D02*
X001141Y006573D01*
X001141Y006494D02*
X000341Y006494D01*
X000341Y006416D02*
X001141Y006416D01*
X001141Y006337D02*
X000341Y006337D01*
X000341Y006259D02*
X001141Y006259D01*
X001141Y006180D02*
X000341Y006180D01*
X000341Y006102D02*
X001141Y006102D01*
X001141Y006023D02*
X000341Y006023D01*
X000341Y005945D02*
X001141Y005945D01*
X001141Y005866D02*
X000341Y005866D01*
X000341Y005787D02*
X001141Y005787D01*
X001141Y005709D02*
X000341Y005709D01*
X000341Y005630D02*
X001141Y005630D01*
X001141Y005552D02*
X000341Y005552D01*
X000341Y005473D02*
X001141Y005473D01*
X001141Y005395D02*
X000341Y005395D01*
X000341Y005316D02*
X001141Y005316D01*
X001141Y005238D02*
X000341Y005238D01*
X000341Y005159D02*
X001141Y005159D01*
X001141Y005081D02*
X000341Y005081D01*
X000341Y005002D02*
X001141Y005002D01*
X001141Y004924D02*
X000341Y004924D01*
X000341Y004845D02*
X001141Y004845D01*
X001141Y004766D02*
X000341Y004766D01*
X000341Y004688D02*
X001141Y004688D01*
X001141Y004609D02*
X000341Y004609D01*
X000341Y004531D02*
X001141Y004531D01*
X001141Y004452D02*
X000341Y004452D01*
X000341Y004374D02*
X001141Y004374D01*
X001141Y004295D02*
X000341Y004295D01*
X000341Y004217D02*
X001141Y004217D01*
X001141Y004138D02*
X000341Y004138D01*
X000341Y004060D02*
X001141Y004060D01*
X001141Y003981D02*
X000341Y003981D01*
X000341Y003902D02*
X001141Y003902D01*
X001141Y003824D02*
X000341Y003824D01*
X000341Y003745D02*
X001141Y003745D01*
X001141Y003667D02*
X000341Y003667D01*
X000341Y003588D02*
X001141Y003588D01*
X001141Y003510D02*
X000341Y003510D01*
X000341Y003431D02*
X001141Y003431D01*
X001141Y003353D02*
X000341Y003353D01*
X000341Y003274D02*
X001141Y003274D01*
X001141Y003196D02*
X000341Y003196D01*
X000341Y003117D02*
X001141Y003117D01*
X001141Y003038D02*
X000341Y003038D01*
X000341Y002960D02*
X001141Y002960D01*
X001141Y002881D02*
X000341Y002881D01*
X000341Y002803D02*
X001141Y002803D01*
X001141Y002724D02*
X000341Y002724D01*
X000341Y002646D02*
X001141Y002646D01*
X001141Y002567D02*
X000341Y002567D01*
X000341Y002489D02*
X001141Y002489D01*
X001141Y002410D02*
X000341Y002410D01*
X000341Y002332D02*
X001141Y002332D01*
X001141Y002253D02*
X000341Y002253D01*
X000341Y002174D02*
X001141Y002174D01*
X001141Y002096D02*
X000341Y002096D01*
X000341Y002017D02*
X001141Y002017D01*
X001141Y001939D02*
X000341Y001939D01*
X000341Y001860D02*
X001141Y001860D01*
X001141Y001782D02*
X000341Y001782D01*
X000341Y001703D02*
X001141Y001703D01*
X001141Y001625D02*
X000341Y001625D01*
X000341Y001546D02*
X001141Y001546D01*
X023681Y001546D01*
X023681Y001468D02*
X001141Y001468D01*
X000341Y001468D01*
X000341Y001389D02*
X001141Y001389D01*
X023749Y001389D01*
X023828Y001311D02*
X001141Y001311D01*
X000341Y001311D01*
X000341Y001232D02*
X001141Y001232D01*
X023906Y001232D01*
X023681Y001625D02*
X001141Y001625D01*
X004421Y002258D02*
X004461Y002188D01*
X004461Y001628D01*
X008141Y002148D02*
X009261Y002828D01*
X010621Y001628D02*
X010621Y006268D01*
X010301Y006588D01*
X010301Y006628D01*
X013469Y006698D02*
X013501Y006668D01*
X013501Y003068D01*
X013581Y002988D01*
X013821Y003468D02*
X013821Y006668D01*
X013784Y006698D01*
X014141Y006668D02*
X014141Y002828D01*
X013661Y002348D01*
X013661Y001628D01*
X016891Y002148D02*
X016941Y002508D01*
X017181Y002748D01*
X019891Y002148D02*
X019901Y002108D01*
X019901Y001948D01*
X020301Y001948D01*
X020541Y002188D01*
X024376Y001232D02*
X024906Y001232D01*
X024828Y001311D02*
X024454Y001311D01*
X024533Y001389D02*
X024749Y001389D01*
X024681Y001468D02*
X024601Y001468D01*
X024601Y001546D02*
X024681Y001546D01*
X024681Y001625D02*
X024601Y001625D01*
X025376Y001232D02*
X025906Y001232D01*
X025828Y001311D02*
X025454Y001311D01*
X025533Y001389D02*
X025749Y001389D01*
X025681Y001468D02*
X025601Y001468D01*
X025601Y001546D02*
X025681Y001546D01*
X025681Y001625D02*
X025601Y001625D01*
X026141Y001648D02*
X026141Y001708D01*
X025661Y002188D01*
X025661Y003308D01*
X024701Y004268D01*
X024641Y004282D01*
X026601Y001625D02*
X026681Y001625D01*
X026681Y001546D02*
X026601Y001546D01*
X026601Y001468D02*
X026681Y001468D01*
X026749Y001389D02*
X026533Y001389D01*
X026454Y001311D02*
X026828Y001311D01*
X026906Y001232D02*
X026376Y001232D01*
X030011Y008518D02*
X029981Y008548D01*
X030504Y008615D02*
X031437Y008615D01*
X030087Y009008D02*
X030001Y009008D01*
X030001Y009086D02*
X030087Y009086D01*
X030087Y009165D02*
X030001Y009165D01*
X030001Y009243D02*
X030087Y009243D01*
X030087Y009322D02*
X030001Y009322D01*
X029981Y009400D02*
X030087Y009400D01*
X030087Y009479D02*
X029903Y009479D01*
X029721Y009558D02*
X030087Y009558D01*
X030126Y009636D02*
X029721Y009636D01*
X030001Y008929D02*
X030027Y008929D01*
X029170Y013328D02*
X029141Y013328D01*
X029141Y013406D02*
X029170Y013406D01*
X029170Y013485D02*
X029141Y013485D01*
X029141Y013563D02*
X029170Y013563D01*
X029141Y015056D02*
X031437Y015056D01*
X031437Y015134D02*
X029141Y015134D01*
X029141Y015213D02*
X030175Y015213D01*
X030097Y015291D02*
X029141Y015291D01*
X029956Y015370D02*
X030087Y015370D01*
X030087Y015448D02*
X030001Y015448D01*
X030601Y014899D02*
X030681Y014899D01*
X030681Y014820D02*
X030601Y014820D01*
X030601Y014741D02*
X030681Y014741D01*
X030681Y014663D02*
X030601Y014663D01*
X030601Y014427D02*
X030681Y014427D01*
X030681Y014349D02*
X030601Y014349D01*
X030601Y014270D02*
X030681Y014270D01*
X031035Y014663D02*
X031437Y014663D01*
X031437Y014741D02*
X031035Y014741D01*
X031035Y014820D02*
X031437Y014820D01*
X029361Y016648D02*
X029341Y016628D01*
X030001Y017490D02*
X030037Y017490D01*
X030001Y017569D02*
X030087Y017569D01*
X030087Y017648D02*
X030001Y017648D01*
X030001Y017726D02*
X030087Y017726D01*
X030087Y017805D02*
X030001Y017805D01*
X029998Y017883D02*
X030087Y017883D01*
X030087Y017962D02*
X029920Y017962D01*
X030087Y018040D02*
X029721Y018040D01*
X029721Y018119D02*
X030109Y018119D01*
X030187Y018197D02*
X029721Y018197D01*
X029721Y018276D02*
X031437Y018276D01*
X031437Y018354D02*
X029721Y018354D01*
X029721Y018433D02*
X031437Y018433D01*
X031437Y018511D02*
X029721Y018511D01*
X029721Y018590D02*
X031437Y018590D01*
X031437Y018669D02*
X029721Y018669D01*
X029721Y018747D02*
X031437Y018747D01*
X031437Y018826D02*
X029721Y018826D01*
X029721Y018904D02*
X031437Y018904D01*
X031437Y018983D02*
X029721Y018983D01*
X029721Y019061D02*
X029999Y019061D01*
X029934Y019088D02*
X030068Y019033D01*
X030112Y019033D01*
X030112Y019369D01*
X029776Y019369D01*
X029776Y019325D01*
X029832Y019191D01*
X029934Y019088D01*
X029883Y019140D02*
X029721Y019140D01*
X029721Y019218D02*
X029820Y019218D01*
X029788Y019297D02*
X029721Y019297D01*
X029721Y019375D02*
X030112Y019375D01*
X030112Y019369D02*
X030112Y019427D01*
X030112Y019763D01*
X030068Y019763D01*
X029934Y019707D01*
X029832Y019604D01*
X029776Y019470D01*
X029776Y019427D01*
X030112Y019427D01*
X030170Y019427D01*
X030170Y019763D01*
X030214Y019763D01*
X030348Y019707D01*
X030451Y019604D01*
X030506Y019470D01*
X030506Y019427D01*
X030170Y019427D01*
X030170Y019369D01*
X030506Y019369D01*
X030506Y019325D01*
X030451Y019191D01*
X030348Y019088D01*
X030214Y019033D01*
X030170Y019033D01*
X030170Y019369D01*
X030112Y019369D01*
X030170Y019375D02*
X031437Y019375D01*
X031437Y019297D02*
X030494Y019297D01*
X030462Y019218D02*
X031437Y019218D01*
X031437Y019140D02*
X030399Y019140D01*
X030283Y019061D02*
X031437Y019061D01*
X031437Y019454D02*
X030506Y019454D01*
X030480Y019533D02*
X031437Y019533D01*
X031437Y019611D02*
X030444Y019611D01*
X030365Y019690D02*
X031437Y019690D01*
X031437Y019768D02*
X029666Y019768D01*
X029666Y019690D02*
X029917Y019690D01*
X029838Y019611D02*
X029675Y019611D01*
X029710Y019533D02*
X029802Y019533D01*
X029776Y019454D02*
X029721Y019454D01*
X030112Y019454D02*
X030170Y019454D01*
X030170Y019533D02*
X030112Y019533D01*
X030112Y019611D02*
X030170Y019611D01*
X030170Y019690D02*
X030112Y019690D01*
X029625Y019847D02*
X031437Y019847D01*
X031437Y019925D02*
X029501Y019925D01*
X029501Y020004D02*
X031437Y020004D01*
X031437Y020082D02*
X029501Y020082D01*
X029501Y020161D02*
X031437Y020161D01*
X031437Y020239D02*
X029501Y020239D01*
X029501Y020318D02*
X031437Y020318D01*
X031437Y020397D02*
X029501Y020397D01*
X029501Y020475D02*
X031437Y020475D01*
X031437Y020554D02*
X029501Y020554D01*
X029501Y020632D02*
X031437Y020632D01*
X031437Y020711D02*
X029501Y020711D01*
X029501Y020789D02*
X031437Y020789D01*
X031437Y020868D02*
X029589Y020868D01*
X029733Y020946D02*
X031437Y020946D01*
X031437Y021025D02*
X029812Y021025D01*
X029891Y021103D02*
X031437Y021103D01*
X031437Y021182D02*
X029969Y021182D01*
X030008Y021261D02*
X031437Y021261D01*
X031437Y021339D02*
X030041Y021339D01*
X030073Y021418D02*
X031437Y021418D01*
X031437Y021496D02*
X030106Y021496D01*
X030131Y021575D02*
X031437Y021575D01*
X031437Y021653D02*
X030131Y021653D01*
X030131Y021732D02*
X031437Y021732D01*
X031437Y021810D02*
X030131Y021810D01*
X030131Y021889D02*
X031437Y021889D01*
X031437Y021967D02*
X030124Y021967D01*
X030092Y022046D02*
X031437Y022046D01*
X031437Y022124D02*
X030059Y022124D01*
X030027Y022203D02*
X031437Y022203D01*
X031437Y022282D02*
X029994Y022282D01*
X029935Y022360D02*
X031437Y022360D01*
X031437Y022439D02*
X029856Y022439D01*
X029778Y022517D02*
X031437Y022517D01*
X031437Y022596D02*
X029696Y022596D01*
X029506Y022674D02*
X031437Y022674D01*
X031437Y024167D02*
X029971Y024167D01*
X029971Y024245D02*
X031437Y024245D01*
X031437Y024324D02*
X029954Y024324D01*
X029921Y024402D02*
X031437Y024402D01*
X031437Y024481D02*
X029888Y024481D01*
X029856Y024559D02*
X031437Y024559D01*
X031437Y024638D02*
X029793Y024638D01*
X029715Y024716D02*
X031437Y024716D01*
X031437Y024795D02*
X029636Y024795D01*
X029482Y024874D02*
X031437Y024874D01*
X031437Y024952D02*
X029141Y024952D01*
X029141Y025816D02*
X001141Y025816D01*
X000341Y025816D01*
X000341Y025895D02*
X001141Y025895D01*
X029141Y025895D01*
X031437Y025895D01*
X031437Y025816D02*
X029141Y025816D01*
X025781Y023146D02*
X025152Y023146D01*
X025074Y023224D02*
X025707Y023224D01*
X025629Y023303D02*
X024995Y023303D01*
X024917Y023381D02*
X025550Y023381D01*
X025472Y023460D02*
X024838Y023460D01*
X024760Y023538D02*
X025393Y023538D01*
X025231Y023067D02*
X025781Y023067D01*
X025781Y022988D02*
X025309Y022988D01*
X025388Y022910D02*
X025781Y022910D01*
X025781Y022831D02*
X025455Y022831D01*
X025487Y022753D02*
X025781Y022753D01*
X025781Y022674D02*
X025501Y022674D01*
X025501Y022596D02*
X025781Y022596D01*
X025781Y022517D02*
X025501Y022517D01*
X025501Y022439D02*
X025781Y022439D01*
X025781Y022360D02*
X025501Y022360D01*
X025501Y022282D02*
X025781Y022282D01*
X025781Y022203D02*
X025501Y022203D01*
X025501Y022124D02*
X025781Y022124D01*
X025781Y022046D02*
X025501Y022046D01*
X025501Y021967D02*
X025781Y021967D01*
X025781Y021889D02*
X025501Y021889D01*
X025501Y021810D02*
X025781Y021810D01*
X025781Y021732D02*
X025501Y021732D01*
X025501Y021653D02*
X025781Y021653D01*
X025781Y021575D02*
X025501Y021575D01*
X025501Y021496D02*
X025781Y021496D01*
X025781Y021418D02*
X025501Y021418D01*
X025501Y021339D02*
X025781Y021339D01*
X025781Y021261D02*
X025501Y021261D01*
X025501Y021182D02*
X025781Y021182D01*
X025781Y021103D02*
X025501Y021103D01*
X025501Y021025D02*
X025781Y021025D01*
X025781Y020946D02*
X025501Y020946D01*
X025501Y020868D02*
X025781Y020868D01*
X025781Y020789D02*
X025501Y020789D01*
X025501Y020711D02*
X025781Y020711D01*
X026501Y021025D02*
X026550Y021025D01*
X026550Y021103D02*
X026501Y021103D01*
X026501Y021182D02*
X026766Y021182D01*
X026766Y021188D02*
X026550Y021188D01*
X026550Y021361D01*
X026573Y021385D01*
X026766Y021385D01*
X026766Y021188D01*
X026766Y021261D02*
X026846Y021261D01*
X026846Y021339D02*
X026766Y021339D01*
X026550Y021339D02*
X026501Y021339D01*
X026501Y021261D02*
X026550Y021261D01*
X026501Y021418D02*
X027059Y021418D01*
X027128Y021496D02*
X026501Y021496D01*
X026621Y020548D02*
X027021Y020548D01*
X027021Y020648D01*
X027021Y020548D02*
X027021Y019988D01*
X027101Y019908D01*
X027261Y019908D01*
X027341Y019828D01*
X028221Y019828D01*
X028221Y020648D01*
X028317Y020868D02*
X028694Y020868D01*
X028781Y020789D02*
X028419Y020789D01*
X028455Y020711D02*
X028781Y020711D01*
X028549Y020946D02*
X027892Y020946D01*
X027892Y021025D02*
X028470Y021025D01*
X028392Y021103D02*
X027892Y021103D01*
X027641Y020238D02*
X027661Y020228D01*
X027611Y020178D01*
X030112Y019297D02*
X030170Y019297D01*
X030170Y019218D02*
X030112Y019218D01*
X030112Y019140D02*
X030170Y019140D01*
X030170Y019061D02*
X030112Y019061D01*
X031095Y018197D02*
X031437Y018197D01*
X031437Y018119D02*
X031173Y018119D01*
X031195Y018040D02*
X031437Y018040D01*
X031437Y017962D02*
X031195Y017962D01*
X031195Y017883D02*
X031437Y017883D01*
X031437Y017805D02*
X031195Y017805D01*
X031195Y017726D02*
X031437Y017726D01*
X031437Y017648D02*
X031195Y017648D01*
X031195Y017569D02*
X031437Y017569D01*
X031437Y017490D02*
X031195Y017490D01*
X031195Y017412D02*
X031437Y017412D01*
X031437Y017333D02*
X031195Y017333D01*
X031149Y017255D02*
X031437Y017255D01*
X022644Y025031D02*
X001141Y025031D01*
X000341Y025031D01*
X000341Y025109D02*
X001141Y025109D01*
X022499Y025109D01*
X013641Y019648D02*
X005641Y019648D01*
X005391Y019398D01*
X005391Y017648D01*
X005141Y017398D01*
X003661Y017398D01*
X003661Y017898D02*
X003661Y017908D01*
X003421Y017908D01*
X002941Y017428D01*
X002941Y016148D01*
X005901Y016148D01*
X006301Y016548D01*
X003661Y015898D02*
X002391Y015898D01*
X002141Y015648D01*
X002141Y015148D01*
X000641Y015148D01*
X002141Y014148D02*
X002641Y014148D01*
X002641Y015398D01*
X003661Y015398D01*
X001141Y013642D02*
X000341Y013642D01*
X000341Y013563D02*
X001141Y013563D01*
X001141Y013485D02*
X000341Y013485D01*
X000341Y013406D02*
X001141Y013406D01*
X001141Y013328D02*
X000341Y013328D01*
X000341Y013249D02*
X001141Y013249D01*
X001141Y013171D02*
X000341Y013171D01*
X000341Y013092D02*
X001141Y013092D01*
X001141Y013013D02*
X000341Y013013D01*
X000341Y012935D02*
X001141Y012935D01*
X001141Y012856D02*
X000341Y012856D01*
X000341Y012778D02*
X001141Y012778D01*
X001141Y012699D02*
X000341Y012699D01*
X000341Y012621D02*
X001141Y012621D01*
X001141Y012542D02*
X000341Y012542D01*
X000341Y012464D02*
X001141Y012464D01*
X001141Y012385D02*
X000341Y012385D01*
X000341Y012307D02*
X001141Y012307D01*
X001141Y012228D02*
X000341Y012228D01*
X003501Y012508D02*
X009261Y012508D01*
X012221Y009548D01*
X012251Y009490D01*
X013501Y009148D02*
X013501Y010028D01*
X013469Y010078D01*
X013784Y010078D02*
X013821Y010108D01*
X013821Y011788D01*
X014781Y012748D01*
X014381Y010908D02*
X014381Y010108D01*
X014414Y010078D01*
X014141Y010028D02*
X014099Y010078D01*
X014141Y010028D02*
X014141Y009548D01*
X014701Y009708D02*
X014701Y007788D01*
X014729Y006698D02*
X014781Y006668D01*
X005901Y012908D02*
X005891Y012898D01*
X006040Y022910D02*
X006065Y022910D01*
X006098Y022988D02*
X006007Y022988D01*
X005953Y023067D02*
X006152Y023067D01*
X006230Y023146D02*
X005875Y023146D01*
X005748Y023224D02*
X006357Y023224D01*
X006838Y023224D02*
X007444Y023224D01*
X007317Y023146D02*
X006965Y023146D01*
X007044Y023067D02*
X007239Y023067D01*
X007184Y022988D02*
X007098Y022988D01*
X007131Y022910D02*
X007152Y022910D01*
D40*
X006051Y021589D02*
X006051Y021238D01*
X006641Y020648D01*
X008141Y020648D01*
X004391Y015398D02*
X003661Y015398D01*
X018141Y021648D02*
X018149Y021648D01*
X018149Y021868D01*
X019141Y022648D02*
X019181Y022648D01*
X020141Y022648D01*
X020641Y021648D01*
X021641Y021648D01*
X022141Y020648D02*
X020353Y020648D01*
X023818Y018049D02*
X024641Y018049D01*
X024641Y018148D01*
X024495Y017793D01*
X023818Y017793D01*
X024641Y017148D02*
X024263Y016770D01*
X023818Y016770D01*
X023818Y016514D02*
X023007Y016514D01*
X023818Y016002D02*
X024495Y016002D01*
X024641Y016148D01*
X023818Y015490D02*
X023299Y015490D01*
X023141Y015648D01*
X022141Y015648D01*
X023141Y014648D02*
X025141Y014648D01*
X026301Y015388D02*
X026301Y017868D01*
X028690Y017868D01*
X028681Y017845D01*
X028681Y017270D01*
X028718Y017182D01*
X028781Y017118D01*
X028781Y016177D01*
X028718Y016114D01*
X028681Y016025D01*
X028681Y015450D01*
X028707Y015388D01*
X026301Y015388D01*
X026301Y015539D02*
X028681Y015539D01*
X028681Y015697D02*
X026301Y015697D01*
X026301Y015856D02*
X028681Y015856D01*
X028681Y016014D02*
X027434Y016014D01*
X027434Y015906D02*
X027434Y016568D01*
X027001Y016568D01*
X027001Y016728D01*
X026841Y016728D01*
X026841Y017436D01*
X026455Y017436D01*
X026408Y017389D01*
X026408Y016728D01*
X026841Y016728D01*
X026841Y016568D01*
X026408Y016568D01*
X026408Y015906D01*
X026455Y015859D01*
X026841Y015859D01*
X026841Y016568D01*
X027001Y016568D01*
X027001Y015859D01*
X027387Y015859D01*
X027434Y015906D01*
X027434Y016173D02*
X028777Y016173D01*
X028781Y016331D02*
X027434Y016331D01*
X027434Y016490D02*
X028781Y016490D01*
X028781Y016649D02*
X027001Y016649D01*
X027001Y016728D02*
X027434Y016728D01*
X027434Y017389D01*
X027387Y017436D01*
X027001Y017436D01*
X027001Y016728D01*
X027001Y016807D02*
X026841Y016807D01*
X026841Y016649D02*
X026301Y016649D01*
X026301Y016807D02*
X026408Y016807D01*
X026408Y016966D02*
X026301Y016966D01*
X026301Y017124D02*
X026408Y017124D01*
X026408Y017283D02*
X026301Y017283D01*
X026301Y017441D02*
X028681Y017441D01*
X028681Y017283D02*
X027434Y017283D01*
X027434Y017124D02*
X028775Y017124D01*
X028781Y016966D02*
X027434Y016966D01*
X027434Y016807D02*
X028781Y016807D01*
X028681Y017600D02*
X026301Y017600D01*
X026301Y017758D02*
X028681Y017758D01*
X029936Y016993D02*
X030641Y017699D01*
X030641Y016597D02*
X030641Y015699D01*
X030602Y015738D02*
X029361Y015738D01*
X027001Y016014D02*
X026841Y016014D01*
X026841Y016173D02*
X027001Y016173D01*
X027001Y016331D02*
X026841Y016331D01*
X026841Y016490D02*
X027001Y016490D01*
X026408Y016490D02*
X026301Y016490D01*
X026301Y016331D02*
X026408Y016331D01*
X026408Y016173D02*
X026301Y016173D01*
X026301Y016014D02*
X026408Y016014D01*
X026841Y016966D02*
X027001Y016966D01*
X027001Y017124D02*
X026841Y017124D01*
X026841Y017283D02*
X027001Y017283D01*
X027232Y018648D02*
X026641Y018648D01*
X027232Y018648D02*
X027641Y019057D01*
X027641Y020148D02*
X027611Y020178D01*
X027476Y020313D01*
X027476Y021148D01*
X026806Y021148D02*
X026806Y022451D01*
X027291Y022935D01*
X025641Y018648D02*
X025141Y018648D01*
X025421Y010108D02*
X024861Y009628D01*
X024861Y008908D01*
X025341Y008508D01*
X025341Y005468D01*
X024301Y006348D02*
X024301Y009148D01*
X025501Y009228D02*
X026301Y009228D01*
X026301Y009197D02*
X028681Y009197D01*
X028681Y009308D02*
X028681Y008770D01*
X028718Y008682D01*
X028781Y008618D01*
X028781Y007677D01*
X028718Y007614D01*
X028681Y007525D01*
X028681Y006988D01*
X026301Y006988D01*
X026301Y009308D01*
X028681Y009308D01*
X028681Y009038D02*
X026301Y009038D01*
X026301Y008880D02*
X026408Y008880D01*
X026408Y008889D02*
X026408Y008228D01*
X026841Y008228D01*
X026841Y008936D01*
X026455Y008936D01*
X026408Y008889D01*
X026408Y008721D02*
X026301Y008721D01*
X026301Y008563D02*
X026408Y008563D01*
X026408Y008404D02*
X026301Y008404D01*
X026301Y008246D02*
X026408Y008246D01*
X026408Y008068D02*
X026408Y007406D01*
X026455Y007359D01*
X026841Y007359D01*
X026841Y008068D01*
X026408Y008068D01*
X026301Y008087D02*
X026841Y008087D01*
X026841Y008068D02*
X026841Y008228D01*
X027001Y008228D01*
X027001Y008936D01*
X027387Y008936D01*
X027434Y008889D01*
X027434Y008228D01*
X027001Y008228D01*
X027001Y008068D01*
X027434Y008068D01*
X027434Y007406D01*
X027387Y007359D01*
X027001Y007359D01*
X027001Y008068D01*
X026841Y008068D01*
X026921Y008148D02*
X026941Y008148D01*
X027141Y008148D01*
X027001Y008087D02*
X028781Y008087D01*
X028781Y007929D02*
X027434Y007929D01*
X027434Y007770D02*
X028781Y007770D01*
X028717Y007612D02*
X027434Y007612D01*
X027434Y007453D02*
X028681Y007453D01*
X028681Y007294D02*
X026301Y007294D01*
X026301Y007136D02*
X028681Y007136D01*
X029361Y007238D02*
X030551Y007238D01*
X030641Y007199D02*
X030641Y008097D01*
X030011Y008518D02*
X029641Y008148D01*
X030011Y008518D02*
X030641Y009148D01*
X030641Y009199D01*
X028781Y008563D02*
X027434Y008563D01*
X027434Y008721D02*
X028701Y008721D01*
X028681Y008880D02*
X027434Y008880D01*
X027001Y008880D02*
X026841Y008880D01*
X026841Y008721D02*
X027001Y008721D01*
X027001Y008563D02*
X026841Y008563D01*
X026841Y008404D02*
X027001Y008404D01*
X027001Y008246D02*
X026841Y008246D01*
X026841Y007929D02*
X027001Y007929D01*
X027001Y007770D02*
X026841Y007770D01*
X026841Y007612D02*
X027001Y007612D01*
X027001Y007453D02*
X026841Y007453D01*
X026408Y007453D02*
X026301Y007453D01*
X026301Y007612D02*
X026408Y007612D01*
X026408Y007770D02*
X026301Y007770D01*
X026301Y007929D02*
X026408Y007929D01*
X027434Y008246D02*
X028781Y008246D01*
X028781Y008404D02*
X027434Y008404D01*
D41*
X023141Y014648D03*
X022141Y015648D03*
X023007Y016514D03*
X024641Y016148D03*
X024641Y017148D03*
X024641Y018148D03*
X025641Y018648D03*
X026641Y018648D03*
X023141Y020648D03*
X022141Y020648D03*
X021641Y021648D03*
X020353Y020648D03*
X008141Y020648D03*
X008141Y019148D03*
X006891Y019148D03*
X006391Y020148D03*
X006641Y017148D03*
X004391Y015398D03*
X005891Y012898D03*
D42*
X003141Y011148D02*
X003141Y009982D01*
X003141Y009313D02*
X003141Y008488D01*
X002141Y008488D02*
X002141Y009313D01*
X002141Y009982D02*
X002141Y011148D01*
X002141Y007307D02*
X001982Y007308D01*
X001141Y007308D01*
X002141Y007307D02*
X003141Y007307D01*
X018141Y021648D02*
X018641Y021148D01*
X022625Y021148D01*
X023157Y021679D01*
X023157Y024315D01*
X024141Y024315D02*
X024141Y023648D01*
X025141Y022648D01*
X025141Y018648D01*
X025141Y014648D01*
X028141Y011148D01*
X029361Y009928D01*
X029361Y009058D01*
X029361Y008148D02*
X028741Y008148D01*
X028621Y008028D02*
X028141Y007628D01*
X028141Y005148D01*
X030551Y007238D02*
X030641Y007148D01*
X030641Y007199D01*
X028141Y013648D02*
X028141Y016028D01*
X028861Y016668D01*
X027661Y017868D01*
X026941Y017868D01*
X026461Y017868D01*
X026141Y018208D01*
X026141Y023299D01*
X025125Y024315D01*
X029141Y021754D02*
X029141Y019398D01*
X029361Y019428D01*
X029361Y017558D01*
X030602Y015738D02*
X030641Y015699D01*
D43*
X026621Y020548D03*
X020381Y017828D03*
X017261Y019508D03*
X020221Y021588D03*
X014141Y009548D03*
X015101Y009148D03*
X015101Y008108D03*
X014701Y007788D03*
X015101Y007468D03*
X015501Y006828D03*
X016221Y007148D03*
X013421Y008748D03*
X012941Y008428D03*
X012861Y008908D03*
X012781Y007548D03*
X012141Y006828D03*
X012301Y005788D03*
X013821Y003468D03*
X013581Y002988D03*
X013101Y002828D03*
X016861Y003708D03*
X016861Y004188D03*
X019821Y004188D03*
X019901Y002908D03*
M02*
