G75*
G70*
%OFA0B0*%
%FSLAX24Y24*%
%IPPOS*%
%LPD*%
%AMOC8*
5,1,8,0,0,1.08239X$1,22.5*
%
%ADD10C,0.0660*%
%ADD11C,0.1300*%
%ADD12R,0.0740X0.0740*%
%ADD13C,0.0740*%
%ADD14C,0.2000*%
%ADD15OC8,0.0630*%
%ADD16C,0.1580*%
%ADD17C,0.0797*%
%ADD18C,0.0614*%
%ADD19OC8,0.0640*%
%ADD20C,0.0640*%
%ADD21R,0.0720X0.0720*%
%ADD22C,0.0720*%
%ADD23C,0.0560*%
%ADD24C,0.0650*%
%ADD25R,0.0650X0.0650*%
%ADD26C,0.0080*%
%ADD27C,0.0160*%
%ADD28R,0.0436X0.0436*%
%ADD29OC8,0.0400*%
D10*
X018149Y021868D03*
X018149Y022648D03*
X019133Y022648D03*
X019133Y021868D03*
D11*
X021011Y023718D03*
X016271Y023718D03*
D12*
X004960Y021589D03*
X016891Y002148D03*
D13*
X017891Y002148D03*
X018891Y002148D03*
X019891Y002148D03*
X024281Y009188D03*
X024281Y010188D03*
X025441Y010158D03*
X025441Y009158D03*
X019901Y010148D03*
X018901Y010148D03*
X009322Y021589D03*
X008232Y021589D03*
X007141Y021589D03*
X006051Y021589D03*
X005507Y022707D03*
X006598Y022707D03*
X007684Y022707D03*
X008775Y022707D03*
X003141Y012148D03*
X002141Y012148D03*
X002141Y011148D03*
X003141Y011148D03*
D14*
X002220Y022148D03*
X012062Y022148D03*
D15*
X002141Y015148D03*
X002141Y014148D03*
D16*
X027291Y022935D03*
X029141Y021754D03*
X029141Y024116D03*
D17*
X018141Y018984D03*
X018141Y016898D03*
X013023Y016898D03*
X013023Y018984D03*
D18*
X013614Y017941D03*
X014401Y017941D03*
X015188Y017941D03*
X015976Y017941D03*
X016763Y017941D03*
X017551Y017941D03*
D19*
X024141Y002648D03*
X025141Y002648D03*
X026141Y002648D03*
X027141Y002648D03*
X028141Y002648D03*
X029141Y002648D03*
X030141Y002648D03*
X030141Y001648D03*
X029141Y001648D03*
X028141Y001648D03*
X027141Y001648D03*
X026141Y001648D03*
X025141Y001648D03*
X024141Y001648D03*
D20*
X001861Y002258D03*
X001861Y004038D03*
X004421Y004038D03*
X004421Y002258D03*
D21*
X007141Y002148D03*
X005641Y010648D03*
X021141Y010648D03*
D22*
X021141Y009648D03*
X021141Y008648D03*
X021141Y007648D03*
X021141Y006648D03*
X021141Y005648D03*
X021141Y004648D03*
X021141Y003648D03*
X014141Y002148D03*
X013141Y002148D03*
X012141Y002148D03*
X011141Y002148D03*
X010141Y002148D03*
X009141Y002148D03*
X008141Y002148D03*
X005641Y003648D03*
X005641Y004648D03*
X005641Y005648D03*
X005641Y006648D03*
X005641Y007648D03*
X005641Y008648D03*
X005641Y009648D03*
D23*
X018021Y012748D03*
X020021Y012748D03*
D24*
X021771Y013248D03*
X021771Y012248D03*
X016271Y012248D03*
X016271Y013248D03*
X014801Y012128D03*
X014801Y011128D03*
X011301Y006628D03*
X010301Y006628D03*
X029141Y005148D03*
X029141Y011148D03*
X029141Y013648D03*
X030141Y019398D03*
D25*
X029141Y019398D03*
X028141Y013648D03*
X028141Y011148D03*
X028141Y005148D03*
D26*
X027261Y005148D02*
X029101Y003308D01*
X030141Y003308D01*
X030621Y002828D01*
X030621Y002188D01*
X028701Y002188D01*
X028691Y002198D01*
X029141Y002648D01*
X028691Y002198D02*
X028641Y002148D01*
X028641Y001308D01*
X028391Y001058D01*
X018861Y001058D01*
X018701Y001218D01*
X018701Y001548D01*
X018061Y002188D01*
X017891Y002148D01*
X017581Y001588D01*
X017331Y001358D01*
X016221Y001358D01*
X014301Y001388D02*
X012621Y001388D01*
X012621Y002348D01*
X013101Y002828D01*
X013421Y003148D02*
X013581Y002988D01*
X013421Y003148D02*
X009101Y003148D01*
X008141Y002188D01*
X008141Y002148D01*
X007501Y002188D02*
X007181Y002188D01*
X007141Y002148D01*
X007181Y001668D01*
X007181Y001988D01*
X007501Y002188D02*
X008621Y003308D01*
X013661Y003308D01*
X013821Y003468D01*
X012621Y002898D02*
X012141Y002418D01*
X012141Y002148D01*
X012621Y001388D02*
X009901Y001388D01*
X009141Y002148D01*
X008221Y003148D02*
X009261Y004188D01*
X016861Y004188D01*
X017341Y003708D01*
X021101Y003708D01*
X021141Y003648D01*
X020301Y003148D02*
X019901Y002908D01*
X019581Y003068D02*
X019421Y002908D01*
X019421Y002668D01*
X019661Y002428D01*
X019891Y002148D01*
X020141Y001388D02*
X018941Y001388D01*
X018861Y001468D01*
X018891Y002148D01*
X018621Y002388D01*
X018621Y003388D01*
X017181Y003388D01*
X016861Y003708D01*
X018621Y003428D02*
X018621Y003388D01*
X019821Y004188D02*
X015581Y008428D01*
X013741Y008428D01*
X013421Y008748D01*
X013021Y009068D02*
X014701Y009068D01*
X015181Y008588D01*
X017501Y008588D01*
X020941Y005148D01*
X027261Y005148D01*
X029661Y003148D02*
X020301Y003148D01*
X020861Y002108D02*
X020141Y001388D01*
X020861Y002108D02*
X027661Y002108D01*
X028141Y002588D01*
X028141Y002648D01*
X029661Y003148D02*
X030141Y002668D01*
X030141Y002648D01*
X025661Y008668D02*
X025981Y008988D01*
X025981Y011628D01*
X014621Y011628D01*
X014301Y011308D01*
X014301Y010188D01*
X018861Y010188D01*
X018901Y010148D01*
X019901Y010148D02*
X020021Y012748D01*
X019821Y012748D01*
X020021Y012748D02*
X020061Y012748D01*
X020541Y012268D01*
X021741Y012268D01*
X021771Y012248D01*
X020701Y011148D02*
X020221Y010668D01*
X020701Y011148D02*
X023261Y011148D01*
X024221Y010188D01*
X024281Y010188D01*
X024301Y010188D01*
X025261Y009228D01*
X025421Y009228D01*
X025441Y009158D01*
X025661Y008668D02*
X022141Y008668D01*
X021181Y007708D01*
X021141Y007648D01*
X021101Y009628D02*
X021141Y009648D01*
X021101Y009628D02*
X014221Y009628D01*
X014141Y009548D01*
X015021Y009228D02*
X007021Y009228D01*
X005661Y010588D01*
X005641Y010648D01*
X005641Y008648D02*
X005581Y008588D01*
X005101Y008588D01*
X005101Y005468D01*
X005421Y005148D01*
X013821Y005148D01*
X015501Y006828D01*
X015421Y007148D02*
X016221Y007148D01*
X015421Y007148D02*
X015101Y007468D01*
X014701Y007788D02*
X013901Y006988D01*
X012301Y006988D01*
X012141Y006828D01*
X011981Y006668D01*
X011341Y006668D01*
X011301Y006628D01*
X010781Y006748D02*
X011181Y007148D01*
X012381Y007148D01*
X012781Y007548D01*
X012781Y008268D02*
X006221Y008268D01*
X005661Y007708D01*
X005641Y007648D01*
X005661Y007588D01*
X005641Y006648D02*
X007101Y008108D01*
X015101Y008108D01*
X015101Y009148D02*
X015021Y009228D01*
X015261Y010668D02*
X014801Y011128D01*
X014861Y011148D01*
X014801Y012128D02*
X014861Y012188D01*
X015181Y012188D01*
X016221Y013228D01*
X016271Y013248D01*
X016301Y012268D02*
X016271Y012248D01*
X016301Y012268D02*
X017501Y012268D01*
X017981Y012748D01*
X018021Y012748D01*
X018781Y014268D02*
X019181Y014668D01*
X018781Y014268D02*
X007181Y014268D01*
X005901Y012988D01*
X005891Y012898D01*
X005901Y012948D01*
X004641Y015148D02*
X004701Y015188D01*
X004141Y015788D02*
X003181Y014828D01*
X003181Y012188D01*
X003141Y012148D01*
X002621Y012188D02*
X002141Y012188D01*
X002141Y012148D01*
X002141Y012108D01*
X001581Y012108D01*
X001581Y008668D01*
X005581Y004668D01*
X005641Y004648D01*
X004461Y004028D02*
X004421Y004038D01*
X004461Y004028D02*
X005341Y003148D01*
X008221Y003148D01*
X010781Y005788D02*
X012301Y005788D01*
X010781Y005788D02*
X010781Y006748D01*
X012781Y008268D02*
X012941Y008428D01*
X012861Y008908D02*
X013021Y009068D01*
X011181Y002918D02*
X011141Y002148D01*
X013141Y002148D02*
X013181Y002228D01*
X002621Y012188D02*
X002621Y014508D01*
X004061Y015948D01*
X006061Y015948D01*
X007581Y017468D01*
X013821Y017468D01*
X013901Y017548D01*
X014061Y017548D01*
X014381Y017868D01*
X014401Y017941D01*
X014621Y015868D02*
X014641Y015848D01*
X016701Y017908D01*
X016763Y017941D01*
X016781Y017908D01*
X017421Y018068D02*
X017551Y017941D01*
X017501Y017988D01*
X017421Y018068D01*
X017421Y019428D01*
X017261Y019508D01*
X017341Y019508D01*
X017421Y019428D01*
X018044Y021338D02*
X018254Y021338D01*
X018449Y021418D01*
X018598Y021567D01*
X018641Y021671D01*
X018684Y021567D01*
X018833Y021418D01*
X019028Y021338D01*
X019239Y021338D01*
X019259Y021346D01*
X019935Y020670D01*
X019935Y020648D01*
X008559Y020648D01*
X008559Y020949D01*
X008447Y021061D01*
X008555Y021105D01*
X008715Y021266D01*
X008802Y021475D01*
X008802Y021702D01*
X008715Y021912D01*
X008555Y022072D01*
X008345Y022159D01*
X008118Y022159D01*
X007909Y022072D01*
X007748Y021912D01*
X007686Y021762D01*
X007624Y021912D01*
X007464Y022072D01*
X007254Y022159D01*
X007028Y022159D01*
X006818Y022072D01*
X006658Y021912D01*
X006596Y021762D01*
X006534Y021912D01*
X006373Y022072D01*
X006164Y022159D01*
X005937Y022159D01*
X005728Y022072D01*
X005567Y021912D01*
X005530Y021821D01*
X005530Y022041D01*
X005435Y022137D01*
X005621Y022137D01*
X005830Y022224D01*
X005990Y022384D01*
X006052Y022534D01*
X006115Y022384D01*
X006275Y022224D01*
X006484Y022137D01*
X006711Y022137D01*
X006921Y022224D01*
X007081Y022384D01*
X007141Y022529D01*
X007201Y022384D01*
X007361Y022224D01*
X007571Y022137D01*
X007798Y022137D01*
X008007Y022224D01*
X008168Y022384D01*
X008230Y022534D01*
X008292Y022384D01*
X008452Y022224D01*
X008662Y022137D01*
X008888Y022137D01*
X009098Y022224D01*
X009258Y022384D01*
X009345Y022593D01*
X009345Y022820D01*
X009258Y023030D01*
X009098Y023190D01*
X008888Y023277D01*
X008662Y023277D01*
X008452Y023190D01*
X008292Y023030D01*
X008230Y022880D01*
X008168Y023030D01*
X008007Y023190D01*
X007798Y023277D01*
X007571Y023277D01*
X007361Y023190D01*
X007201Y023030D01*
X007141Y022885D01*
X007081Y023030D01*
X006921Y023190D01*
X006711Y023277D01*
X006484Y023277D01*
X006275Y023190D01*
X006115Y023030D01*
X006052Y022880D01*
X005990Y023030D01*
X005830Y023190D01*
X005621Y023277D01*
X005394Y023277D01*
X005184Y023190D01*
X005024Y023030D01*
X004937Y022820D01*
X004937Y022593D01*
X005024Y022384D01*
X005184Y022224D01*
X005341Y022159D01*
X004507Y022159D01*
X004390Y022041D01*
X004390Y021136D01*
X004507Y021019D01*
X005413Y021019D01*
X005530Y021136D01*
X005530Y021356D01*
X005567Y021266D01*
X005728Y021105D01*
X005937Y021019D01*
X006164Y021019D01*
X006373Y021105D01*
X006534Y021266D01*
X006596Y021416D01*
X006658Y021266D01*
X006818Y021105D01*
X006901Y021071D01*
X006901Y020648D01*
X000641Y020648D01*
X000641Y025948D01*
X031437Y025948D01*
X031437Y020648D01*
X027021Y020648D01*
X027021Y020713D01*
X026787Y020948D01*
X026455Y020948D01*
X026335Y020828D01*
X024509Y020828D01*
X024413Y020828D01*
X024325Y020791D01*
X024258Y020724D01*
X024226Y020648D01*
X023559Y020648D01*
X023559Y020949D01*
X023442Y021066D01*
X023421Y021066D01*
X023421Y021092D01*
X023421Y021203D01*
X023378Y021306D01*
X022878Y021806D01*
X022800Y021885D01*
X022697Y021928D01*
X022059Y021928D01*
X022059Y021949D01*
X021942Y022066D01*
X021340Y022066D01*
X021223Y021949D01*
X021223Y021347D01*
X021302Y021268D01*
X020467Y021268D01*
X020621Y021422D01*
X020621Y021753D01*
X020387Y021988D01*
X020055Y021988D01*
X019821Y021753D01*
X019821Y021576D01*
X019655Y021742D01*
X019663Y021762D01*
X019663Y021973D01*
X019583Y022168D01*
X019493Y022258D01*
X019583Y022347D01*
X019663Y022542D01*
X019663Y022753D01*
X026468Y022753D01*
X026461Y022770D02*
X026587Y022465D01*
X026821Y022231D01*
X027126Y022105D01*
X027251Y022105D01*
X027251Y022895D01*
X027331Y022895D01*
X027331Y022975D01*
X028121Y022975D01*
X028121Y023100D01*
X027994Y023405D01*
X027761Y023639D01*
X027456Y023765D01*
X027331Y023765D01*
X027331Y022975D01*
X027251Y022975D01*
X027251Y023765D01*
X027126Y023765D01*
X026821Y023639D01*
X026587Y023405D01*
X026461Y023100D01*
X026461Y022975D01*
X027251Y022975D01*
X027251Y022895D01*
X026461Y022895D01*
X026461Y022770D01*
X026461Y022831D02*
X019631Y022831D01*
X019663Y022753D02*
X019583Y022948D01*
X019433Y023097D01*
X019239Y023178D01*
X019028Y023178D01*
X018833Y023097D01*
X018684Y022948D01*
X018603Y022753D01*
X018506Y022753D01*
X018519Y022721D02*
X018463Y022857D01*
X018359Y022961D01*
X018223Y023018D01*
X018189Y023018D01*
X018189Y022688D01*
X018109Y022688D01*
X018109Y023018D01*
X018075Y023018D01*
X017939Y022961D01*
X017835Y022857D01*
X017779Y022721D01*
X017779Y022688D01*
X018109Y022688D01*
X018109Y022608D01*
X017779Y022608D01*
X017779Y022574D01*
X017835Y022438D01*
X017925Y022349D01*
X017849Y022317D01*
X017700Y022168D01*
X017619Y021973D01*
X017619Y021762D01*
X017700Y021567D01*
X017849Y021418D01*
X018044Y021338D01*
X018040Y021339D02*
X012951Y021339D01*
X013023Y021411D02*
X012799Y021187D01*
X012526Y021029D01*
X012220Y020948D01*
X011904Y020948D01*
X011599Y021029D01*
X011326Y021187D01*
X011102Y021411D01*
X010944Y021685D01*
X010862Y021990D01*
X010862Y022306D01*
X010944Y022611D01*
X011102Y022885D01*
X011326Y023108D01*
X011599Y023266D01*
X011904Y023348D01*
X012220Y023348D01*
X012526Y023266D01*
X012799Y023108D01*
X013023Y022885D01*
X013181Y022611D01*
X013262Y022306D01*
X013262Y021990D01*
X013181Y021685D01*
X013023Y021411D01*
X013026Y021418D02*
X017851Y021418D01*
X017771Y021496D02*
X013072Y021496D01*
X013117Y021575D02*
X017697Y021575D01*
X017664Y021653D02*
X013162Y021653D01*
X013193Y021732D02*
X017632Y021732D01*
X017619Y021810D02*
X013214Y021810D01*
X013235Y021889D02*
X017619Y021889D01*
X017619Y021967D02*
X013256Y021967D01*
X013262Y022046D02*
X017649Y022046D01*
X017682Y022124D02*
X013262Y022124D01*
X013262Y022203D02*
X017735Y022203D01*
X017813Y022282D02*
X013262Y022282D01*
X013248Y022360D02*
X017913Y022360D01*
X017835Y022439D02*
X013227Y022439D01*
X013206Y022517D02*
X017803Y022517D01*
X017779Y022596D02*
X013185Y022596D01*
X013144Y022674D02*
X018109Y022674D01*
X018109Y022753D02*
X018189Y022753D01*
X018189Y022688D02*
X018519Y022688D01*
X018519Y022721D01*
X018603Y022753D02*
X018603Y022542D01*
X018684Y022347D01*
X018774Y022258D01*
X018684Y022168D01*
X018641Y022064D01*
X018598Y022168D01*
X018449Y022317D01*
X018373Y022349D01*
X018463Y022438D01*
X018519Y022574D01*
X018519Y022608D01*
X018189Y022608D01*
X018189Y022688D01*
X018189Y022674D02*
X018603Y022674D01*
X018603Y022596D02*
X018519Y022596D01*
X018495Y022517D02*
X018614Y022517D01*
X018646Y022439D02*
X018463Y022439D01*
X018385Y022360D02*
X018679Y022360D01*
X018750Y022282D02*
X018485Y022282D01*
X018563Y022203D02*
X018719Y022203D01*
X018666Y022124D02*
X018616Y022124D01*
X018634Y021653D02*
X018648Y021653D01*
X018681Y021575D02*
X018601Y021575D01*
X018527Y021496D02*
X018755Y021496D01*
X018835Y021418D02*
X018447Y021418D01*
X018258Y021339D02*
X019024Y021339D01*
X019242Y021339D02*
X019266Y021339D01*
X019344Y021261D02*
X012872Y021261D01*
X012790Y021182D02*
X019423Y021182D01*
X019502Y021103D02*
X012654Y021103D01*
X012508Y021025D02*
X019580Y021025D01*
X019659Y020946D02*
X008559Y020946D01*
X008559Y020868D02*
X019737Y020868D01*
X019816Y020789D02*
X008559Y020789D01*
X008559Y020711D02*
X019894Y020711D01*
X020221Y021108D02*
X020301Y021028D01*
X022461Y021028D01*
X022541Y020948D01*
X022541Y020308D01*
X024301Y020308D01*
X024321Y020328D01*
X024301Y020348D01*
X024461Y020508D01*
X024461Y020588D01*
X026621Y020588D01*
X026621Y020548D01*
X026301Y020388D02*
X024641Y020388D01*
X024252Y020711D02*
X023559Y020711D01*
X023559Y020789D02*
X024323Y020789D01*
X023559Y020868D02*
X026376Y020868D01*
X026454Y020946D02*
X023559Y020946D01*
X023483Y021025D02*
X028470Y021025D01*
X028392Y021103D02*
X023421Y021103D01*
X023421Y021182D02*
X028313Y021182D01*
X028302Y021193D02*
X028580Y020915D01*
X028944Y020764D01*
X029338Y020764D01*
X029702Y020915D01*
X029980Y021193D01*
X030131Y021557D01*
X030131Y021951D01*
X029980Y022315D01*
X029702Y022593D01*
X029338Y022744D01*
X028944Y022744D01*
X028580Y022593D01*
X028302Y022315D01*
X028151Y021951D01*
X028151Y021557D01*
X028302Y021193D01*
X028274Y021261D02*
X023397Y021261D01*
X023346Y021339D02*
X028241Y021339D01*
X028209Y021418D02*
X023267Y021418D01*
X023189Y021496D02*
X028176Y021496D01*
X028151Y021575D02*
X023110Y021575D01*
X023031Y021653D02*
X028151Y021653D01*
X028151Y021732D02*
X022953Y021732D01*
X022874Y021810D02*
X028151Y021810D01*
X028151Y021889D02*
X022790Y021889D01*
X022040Y021967D02*
X028158Y021967D01*
X028190Y022046D02*
X021962Y022046D01*
X021320Y022046D02*
X019633Y022046D01*
X019663Y021967D02*
X020035Y021967D01*
X019957Y021889D02*
X019663Y021889D01*
X019663Y021810D02*
X019878Y021810D01*
X019821Y021732D02*
X019665Y021732D01*
X019744Y021653D02*
X019821Y021653D01*
X020221Y021588D02*
X020221Y021108D01*
X020538Y021339D02*
X021231Y021339D01*
X021223Y021418D02*
X020617Y021418D01*
X020621Y021496D02*
X021223Y021496D01*
X021223Y021575D02*
X020621Y021575D01*
X020621Y021653D02*
X021223Y021653D01*
X021223Y021732D02*
X020621Y021732D01*
X020564Y021810D02*
X021223Y021810D01*
X021223Y021889D02*
X020486Y021889D01*
X020407Y021967D02*
X021242Y021967D01*
X021180Y022868D02*
X020842Y022868D01*
X020530Y022997D01*
X020291Y023236D01*
X020161Y023549D01*
X020161Y023887D01*
X020291Y024199D01*
X020530Y024438D01*
X020842Y024568D01*
X021180Y024568D01*
X021493Y024438D01*
X021732Y024199D01*
X021861Y023887D01*
X021861Y023549D01*
X021732Y023236D01*
X021493Y022997D01*
X021180Y022868D01*
X021282Y022910D02*
X027251Y022910D01*
X027251Y022988D02*
X027331Y022988D01*
X027331Y022910D02*
X031437Y022910D01*
X031437Y022988D02*
X028121Y022988D01*
X028121Y023067D02*
X031437Y023067D01*
X031437Y023146D02*
X028102Y023146D01*
X028069Y023224D02*
X031437Y023224D01*
X031437Y023303D02*
X029346Y023303D01*
X029306Y023286D02*
X029611Y023413D01*
X029845Y023646D01*
X029971Y023951D01*
X029971Y024076D01*
X029181Y024076D01*
X029181Y023286D01*
X029306Y023286D01*
X029181Y023303D02*
X029101Y023303D01*
X029101Y023286D02*
X029101Y024076D01*
X029181Y024076D01*
X029181Y024156D01*
X029971Y024156D01*
X029971Y024281D01*
X029845Y024586D01*
X029611Y024820D01*
X029306Y024946D01*
X029181Y024946D01*
X029181Y024156D01*
X029101Y024156D01*
X029101Y024076D01*
X028311Y024076D01*
X028311Y023951D01*
X028437Y023646D01*
X028671Y023413D01*
X028976Y023286D01*
X029101Y023286D01*
X029101Y023381D02*
X029181Y023381D01*
X029181Y023460D02*
X029101Y023460D01*
X029101Y023538D02*
X029181Y023538D01*
X029181Y023617D02*
X029101Y023617D01*
X029101Y023695D02*
X029181Y023695D01*
X029181Y023774D02*
X029101Y023774D01*
X029101Y023852D02*
X029181Y023852D01*
X029181Y023931D02*
X029101Y023931D01*
X029101Y024010D02*
X029181Y024010D01*
X029181Y024088D02*
X031437Y024088D01*
X031437Y024010D02*
X029971Y024010D01*
X029963Y023931D02*
X031437Y023931D01*
X031437Y023852D02*
X029930Y023852D01*
X029898Y023774D02*
X031437Y023774D01*
X031437Y023695D02*
X029865Y023695D01*
X029815Y023617D02*
X031437Y023617D01*
X031437Y023538D02*
X029737Y023538D01*
X029658Y023460D02*
X031437Y023460D01*
X031437Y023381D02*
X029535Y023381D01*
X028936Y023303D02*
X028037Y023303D01*
X028004Y023381D02*
X028747Y023381D01*
X028624Y023460D02*
X027940Y023460D01*
X027861Y023538D02*
X028545Y023538D01*
X028467Y023617D02*
X027783Y023617D01*
X027624Y023695D02*
X028417Y023695D01*
X028384Y023774D02*
X021861Y023774D01*
X021861Y023852D02*
X028352Y023852D01*
X028319Y023931D02*
X021843Y023931D01*
X021810Y024010D02*
X028311Y024010D01*
X028311Y024156D02*
X029101Y024156D01*
X029101Y024946D01*
X028976Y024946D01*
X028671Y024820D01*
X028437Y024586D01*
X028311Y024281D01*
X028311Y024156D01*
X028311Y024167D02*
X021745Y024167D01*
X021778Y024088D02*
X029101Y024088D01*
X029101Y024167D02*
X029181Y024167D01*
X029181Y024245D02*
X029101Y024245D01*
X029101Y024324D02*
X029181Y024324D01*
X029181Y024402D02*
X029101Y024402D01*
X029101Y024481D02*
X029181Y024481D01*
X029181Y024559D02*
X029101Y024559D01*
X029101Y024638D02*
X029181Y024638D01*
X029181Y024716D02*
X029101Y024716D01*
X029101Y024795D02*
X029181Y024795D01*
X029181Y024874D02*
X029101Y024874D01*
X028801Y024874D02*
X000641Y024874D01*
X000641Y024952D02*
X031437Y024952D01*
X031437Y024874D02*
X029482Y024874D01*
X029636Y024795D02*
X031437Y024795D01*
X031437Y024716D02*
X029715Y024716D01*
X029793Y024638D02*
X031437Y024638D01*
X031437Y024559D02*
X029856Y024559D01*
X029888Y024481D02*
X031437Y024481D01*
X031437Y024402D02*
X029921Y024402D01*
X029954Y024324D02*
X031437Y024324D01*
X031437Y024245D02*
X029971Y024245D01*
X029971Y024167D02*
X031437Y024167D01*
X031437Y025031D02*
X025638Y025031D01*
X025614Y025021D02*
X025752Y025078D01*
X025858Y025184D01*
X025916Y025323D01*
X025916Y025473D01*
X025858Y025611D01*
X025752Y025717D01*
X025614Y025775D01*
X025464Y025775D01*
X025325Y025717D01*
X025219Y025611D01*
X025162Y025473D01*
X025162Y025323D01*
X025219Y025184D01*
X025325Y025078D01*
X025464Y025021D01*
X025614Y025021D01*
X025439Y025031D02*
X022843Y025031D01*
X022818Y025021D02*
X022957Y025078D01*
X023063Y025184D01*
X023121Y025323D01*
X023121Y025473D01*
X023063Y025611D01*
X022957Y025717D01*
X022818Y025775D01*
X022668Y025775D01*
X022530Y025717D01*
X022424Y025611D01*
X022366Y025473D01*
X022366Y025323D01*
X022424Y025184D01*
X022530Y025078D01*
X022668Y025021D01*
X022818Y025021D01*
X022644Y025031D02*
X000641Y025031D01*
X000641Y025109D02*
X022499Y025109D01*
X022422Y025188D02*
X000641Y025188D01*
X000641Y025266D02*
X022390Y025266D01*
X022366Y025345D02*
X000641Y025345D01*
X000641Y025423D02*
X022366Y025423D01*
X022378Y025502D02*
X000641Y025502D01*
X000641Y025580D02*
X022411Y025580D01*
X022471Y025659D02*
X000641Y025659D01*
X000641Y025737D02*
X022578Y025737D01*
X022909Y025737D02*
X025374Y025737D01*
X025267Y025659D02*
X023016Y025659D01*
X023076Y025580D02*
X025206Y025580D01*
X025174Y025502D02*
X023109Y025502D01*
X023121Y025423D02*
X025162Y025423D01*
X025162Y025345D02*
X023121Y025345D01*
X023097Y025266D02*
X025185Y025266D01*
X025217Y025188D02*
X023065Y025188D01*
X022988Y025109D02*
X025294Y025109D01*
X025784Y025109D02*
X031437Y025109D01*
X031437Y025188D02*
X025860Y025188D01*
X025892Y025266D02*
X031437Y025266D01*
X031437Y025345D02*
X025916Y025345D01*
X025916Y025423D02*
X031437Y025423D01*
X031437Y025502D02*
X025904Y025502D01*
X025871Y025580D02*
X031437Y025580D01*
X031437Y025659D02*
X025811Y025659D01*
X025704Y025737D02*
X031437Y025737D01*
X031437Y025816D02*
X000641Y025816D01*
X000641Y025895D02*
X031437Y025895D01*
X028646Y024795D02*
X000641Y024795D01*
X000641Y024716D02*
X028568Y024716D01*
X028489Y024638D02*
X000641Y024638D01*
X000641Y024559D02*
X016082Y024559D01*
X016102Y024568D02*
X015790Y024438D01*
X015551Y024199D01*
X015421Y023887D01*
X015421Y023549D01*
X015551Y023236D01*
X015790Y022997D01*
X016102Y022868D01*
X016440Y022868D01*
X016753Y022997D01*
X016992Y023236D01*
X017121Y023549D01*
X017121Y023887D01*
X016992Y024199D01*
X016753Y024438D01*
X016440Y024568D01*
X016102Y024568D01*
X015892Y024481D02*
X000641Y024481D01*
X000641Y024402D02*
X015754Y024402D01*
X015675Y024324D02*
X000641Y024324D01*
X000641Y024245D02*
X015596Y024245D01*
X015537Y024167D02*
X000641Y024167D01*
X000641Y024088D02*
X015505Y024088D01*
X015472Y024010D02*
X000641Y024010D01*
X000641Y023931D02*
X015439Y023931D01*
X015421Y023852D02*
X000641Y023852D01*
X000641Y023774D02*
X015421Y023774D01*
X015421Y023695D02*
X000641Y023695D01*
X000641Y023617D02*
X015421Y023617D01*
X015425Y023538D02*
X000641Y023538D01*
X000641Y023460D02*
X015458Y023460D01*
X015490Y023381D02*
X000641Y023381D01*
X000641Y023303D02*
X001894Y023303D01*
X001757Y023266D02*
X001483Y023108D01*
X001260Y022885D01*
X001102Y022611D01*
X001020Y022306D01*
X001020Y021990D01*
X001102Y021685D01*
X001260Y021411D01*
X001483Y021187D01*
X001757Y021029D01*
X002062Y020948D01*
X002378Y020948D01*
X002683Y021029D01*
X002957Y021187D01*
X003180Y021411D01*
X003338Y021685D01*
X003420Y021990D01*
X003420Y022306D01*
X003338Y022611D01*
X003180Y022885D01*
X002957Y023108D01*
X002683Y023266D01*
X002378Y023348D01*
X002062Y023348D01*
X001757Y023266D01*
X001684Y023224D02*
X000641Y023224D01*
X000641Y023146D02*
X001548Y023146D01*
X001442Y023067D02*
X000641Y023067D01*
X000641Y022988D02*
X001364Y022988D01*
X001285Y022910D02*
X000641Y022910D01*
X000641Y022831D02*
X001229Y022831D01*
X001184Y022753D02*
X000641Y022753D01*
X000641Y022674D02*
X001138Y022674D01*
X001098Y022596D02*
X000641Y022596D01*
X000641Y022517D02*
X001077Y022517D01*
X001055Y022439D02*
X000641Y022439D01*
X000641Y022360D02*
X001034Y022360D01*
X001020Y022282D02*
X000641Y022282D01*
X000641Y022203D02*
X001020Y022203D01*
X001020Y022124D02*
X000641Y022124D01*
X000641Y022046D02*
X001020Y022046D01*
X001026Y021967D02*
X000641Y021967D01*
X000641Y021889D02*
X001047Y021889D01*
X001068Y021810D02*
X000641Y021810D01*
X000641Y021732D02*
X001089Y021732D01*
X001120Y021653D02*
X000641Y021653D01*
X000641Y021575D02*
X001165Y021575D01*
X001210Y021496D02*
X000641Y021496D01*
X000641Y021418D02*
X001256Y021418D01*
X001331Y021339D02*
X000641Y021339D01*
X000641Y021261D02*
X001410Y021261D01*
X001493Y021182D02*
X000641Y021182D01*
X000641Y021103D02*
X001629Y021103D01*
X001774Y021025D02*
X000641Y021025D01*
X000641Y020946D02*
X006901Y020946D01*
X006901Y020868D02*
X000641Y020868D01*
X000641Y020789D02*
X006901Y020789D01*
X006901Y020711D02*
X000641Y020711D01*
X002666Y021025D02*
X004501Y021025D01*
X004422Y021103D02*
X002811Y021103D01*
X002947Y021182D02*
X004390Y021182D01*
X004390Y021261D02*
X003030Y021261D01*
X003108Y021339D02*
X004390Y021339D01*
X004390Y021418D02*
X003184Y021418D01*
X003229Y021496D02*
X004390Y021496D01*
X004390Y021575D02*
X003275Y021575D01*
X003320Y021653D02*
X004390Y021653D01*
X004390Y021732D02*
X003351Y021732D01*
X003372Y021810D02*
X004390Y021810D01*
X004390Y021889D02*
X003393Y021889D01*
X003414Y021967D02*
X004390Y021967D01*
X004394Y022046D02*
X003420Y022046D01*
X003420Y022124D02*
X004473Y022124D01*
X005001Y022439D02*
X003384Y022439D01*
X003363Y022517D02*
X004969Y022517D01*
X004937Y022596D02*
X003342Y022596D01*
X003301Y022674D02*
X004937Y022674D01*
X004937Y022753D02*
X003256Y022753D01*
X003211Y022831D02*
X004942Y022831D01*
X004974Y022910D02*
X003155Y022910D01*
X003076Y022988D02*
X005007Y022988D01*
X005061Y023067D02*
X002998Y023067D01*
X002891Y023146D02*
X005140Y023146D01*
X005267Y023224D02*
X002755Y023224D01*
X002546Y023303D02*
X011736Y023303D01*
X011527Y023224D02*
X009015Y023224D01*
X009142Y023146D02*
X011391Y023146D01*
X011285Y023067D02*
X009221Y023067D01*
X009275Y022988D02*
X011206Y022988D01*
X011128Y022910D02*
X009308Y022910D01*
X009340Y022831D02*
X011071Y022831D01*
X011026Y022753D02*
X009345Y022753D01*
X009345Y022674D02*
X010981Y022674D01*
X010940Y022596D02*
X009345Y022596D01*
X009313Y022517D02*
X010919Y022517D01*
X010898Y022439D02*
X009281Y022439D01*
X009234Y022360D02*
X010877Y022360D01*
X010862Y022282D02*
X009156Y022282D01*
X009048Y022203D02*
X010862Y022203D01*
X010862Y022124D02*
X008427Y022124D01*
X008502Y022203D02*
X007958Y022203D01*
X008036Y022124D02*
X007337Y022124D01*
X007411Y022203D02*
X006871Y022203D01*
X006945Y022124D02*
X006246Y022124D01*
X006324Y022203D02*
X005781Y022203D01*
X005855Y022124D02*
X005447Y022124D01*
X005526Y022046D02*
X005702Y022046D01*
X005623Y021967D02*
X005530Y021967D01*
X005530Y021889D02*
X005558Y021889D01*
X005234Y022203D02*
X003420Y022203D01*
X003420Y022282D02*
X005126Y022282D01*
X005048Y022360D02*
X003405Y022360D01*
X005530Y021339D02*
X005537Y021339D01*
X005530Y021261D02*
X005573Y021261D01*
X005530Y021182D02*
X005651Y021182D01*
X005732Y021103D02*
X005498Y021103D01*
X005419Y021025D02*
X005922Y021025D01*
X006179Y021025D02*
X006901Y021025D01*
X006823Y021103D02*
X006369Y021103D01*
X006450Y021182D02*
X006742Y021182D01*
X006663Y021261D02*
X006529Y021261D01*
X006564Y021339D02*
X006627Y021339D01*
X006616Y021810D02*
X006576Y021810D01*
X006543Y021889D02*
X006649Y021889D01*
X006714Y021967D02*
X006478Y021967D01*
X006399Y022046D02*
X006792Y022046D01*
X006979Y022282D02*
X007303Y022282D01*
X007225Y022360D02*
X007057Y022360D01*
X007104Y022439D02*
X007178Y022439D01*
X007146Y022517D02*
X007136Y022517D01*
X007490Y022046D02*
X007883Y022046D01*
X007804Y021967D02*
X007568Y021967D01*
X007634Y021889D02*
X007739Y021889D01*
X007706Y021810D02*
X007666Y021810D01*
X007141Y021589D02*
X007141Y019398D01*
X006891Y019148D01*
X006391Y020148D02*
X006391Y017398D01*
X006641Y017148D01*
X004141Y015788D02*
X014541Y015788D01*
X014621Y015868D01*
X014641Y015848D02*
X014621Y015828D01*
X011616Y021025D02*
X008483Y021025D01*
X008550Y021103D02*
X011471Y021103D01*
X011335Y021182D02*
X009412Y021182D01*
X009404Y021179D02*
X009554Y021241D01*
X009670Y021356D01*
X009732Y021507D01*
X009732Y021549D01*
X009362Y021549D01*
X009362Y021629D01*
X009282Y021629D01*
X009282Y021999D01*
X009241Y021999D01*
X009090Y021936D01*
X008975Y021821D01*
X008912Y021670D01*
X008912Y021629D01*
X009282Y021629D01*
X009282Y021549D01*
X008912Y021549D01*
X008912Y021507D01*
X008975Y021356D01*
X009090Y021241D01*
X009241Y021179D01*
X009282Y021179D01*
X009282Y021548D01*
X009362Y021548D01*
X009362Y021179D01*
X009404Y021179D01*
X009362Y021182D02*
X009282Y021182D01*
X009233Y021182D02*
X008631Y021182D01*
X008710Y021261D02*
X009071Y021261D01*
X008992Y021339D02*
X008745Y021339D01*
X008778Y021418D02*
X008949Y021418D01*
X008917Y021496D02*
X008802Y021496D01*
X008802Y021575D02*
X009282Y021575D01*
X009282Y021653D02*
X009362Y021653D01*
X009362Y021629D02*
X009362Y021999D01*
X009404Y021999D01*
X009554Y021936D01*
X009670Y021821D01*
X009732Y021670D01*
X009732Y021629D01*
X009362Y021629D01*
X009362Y021575D02*
X011008Y021575D01*
X010962Y021653D02*
X009732Y021653D01*
X009707Y021732D02*
X010931Y021732D01*
X010910Y021810D02*
X009674Y021810D01*
X009602Y021889D02*
X010889Y021889D01*
X010868Y021967D02*
X009479Y021967D01*
X009362Y021967D02*
X009282Y021967D01*
X009282Y021889D02*
X009362Y021889D01*
X009362Y021810D02*
X009282Y021810D01*
X009282Y021732D02*
X009362Y021732D01*
X009362Y021496D02*
X009282Y021496D01*
X009282Y021418D02*
X009362Y021418D01*
X009362Y021339D02*
X009282Y021339D01*
X009282Y021261D02*
X009362Y021261D01*
X009574Y021261D02*
X011252Y021261D01*
X011174Y021339D02*
X009652Y021339D01*
X009695Y021418D02*
X011098Y021418D01*
X011053Y021496D02*
X009728Y021496D01*
X009165Y021967D02*
X008659Y021967D01*
X008724Y021889D02*
X009043Y021889D01*
X008970Y021810D02*
X008757Y021810D01*
X008789Y021732D02*
X008938Y021732D01*
X008912Y021653D02*
X008802Y021653D01*
X008580Y022046D02*
X010862Y022046D01*
X012388Y023303D02*
X015523Y023303D01*
X015563Y023224D02*
X012598Y023224D01*
X012734Y023146D02*
X015641Y023146D01*
X015720Y023067D02*
X012840Y023067D01*
X012919Y022988D02*
X015811Y022988D01*
X016000Y022910D02*
X012997Y022910D01*
X013053Y022831D02*
X017825Y022831D01*
X017792Y022753D02*
X013099Y022753D01*
X016460Y024559D02*
X020822Y024559D01*
X020632Y024481D02*
X016650Y024481D01*
X016789Y024402D02*
X020494Y024402D01*
X020415Y024324D02*
X016867Y024324D01*
X016946Y024245D02*
X020336Y024245D01*
X020277Y024167D02*
X017005Y024167D01*
X017038Y024088D02*
X020245Y024088D01*
X020212Y024010D02*
X017070Y024010D01*
X017103Y023931D02*
X020179Y023931D01*
X020161Y023852D02*
X017121Y023852D01*
X017121Y023774D02*
X020161Y023774D01*
X020161Y023695D02*
X017121Y023695D01*
X017121Y023617D02*
X020161Y023617D01*
X020165Y023538D02*
X017117Y023538D01*
X017084Y023460D02*
X020198Y023460D01*
X020230Y023381D02*
X017052Y023381D01*
X017019Y023303D02*
X020263Y023303D01*
X020303Y023224D02*
X016980Y023224D01*
X016901Y023146D02*
X018950Y023146D01*
X018803Y023067D02*
X016822Y023067D01*
X016732Y022988D02*
X018005Y022988D01*
X018109Y022988D02*
X018189Y022988D01*
X018189Y022910D02*
X018109Y022910D01*
X018109Y022831D02*
X018189Y022831D01*
X018293Y022988D02*
X018724Y022988D01*
X018668Y022910D02*
X018410Y022910D01*
X018473Y022831D02*
X018636Y022831D01*
X019316Y023146D02*
X020381Y023146D01*
X020460Y023067D02*
X019463Y023067D01*
X019542Y022988D02*
X020551Y022988D01*
X020740Y022910D02*
X019598Y022910D01*
X019663Y022674D02*
X026500Y022674D01*
X026533Y022596D02*
X019663Y022596D01*
X019653Y022517D02*
X026565Y022517D01*
X026613Y022439D02*
X019620Y022439D01*
X019588Y022360D02*
X026692Y022360D01*
X026770Y022282D02*
X019517Y022282D01*
X019547Y022203D02*
X026889Y022203D01*
X027079Y022124D02*
X019601Y022124D01*
X017888Y022910D02*
X016542Y022910D01*
X021200Y024559D02*
X028426Y024559D01*
X028394Y024481D02*
X021390Y024481D01*
X021529Y024402D02*
X028361Y024402D01*
X028329Y024324D02*
X021607Y024324D01*
X021686Y024245D02*
X028311Y024245D01*
X027331Y023695D02*
X027251Y023695D01*
X027251Y023617D02*
X027331Y023617D01*
X027331Y023538D02*
X027251Y023538D01*
X027251Y023460D02*
X027331Y023460D01*
X027331Y023381D02*
X027251Y023381D01*
X027251Y023303D02*
X027331Y023303D01*
X027331Y023224D02*
X027251Y023224D01*
X027251Y023146D02*
X027331Y023146D01*
X027331Y023067D02*
X027251Y023067D01*
X027331Y022895D02*
X028121Y022895D01*
X028121Y022770D01*
X027994Y022465D01*
X027761Y022231D01*
X027456Y022105D01*
X027331Y022105D01*
X027331Y022895D01*
X027331Y022831D02*
X027251Y022831D01*
X027251Y022753D02*
X027331Y022753D01*
X027331Y022674D02*
X027251Y022674D01*
X027251Y022596D02*
X027331Y022596D01*
X027331Y022517D02*
X027251Y022517D01*
X027251Y022439D02*
X027331Y022439D01*
X027331Y022360D02*
X027251Y022360D01*
X027251Y022282D02*
X027331Y022282D01*
X027331Y022203D02*
X027251Y022203D01*
X027251Y022124D02*
X027331Y022124D01*
X027503Y022124D02*
X028223Y022124D01*
X028256Y022203D02*
X027692Y022203D01*
X027811Y022282D02*
X028288Y022282D01*
X028347Y022360D02*
X027889Y022360D01*
X027968Y022439D02*
X028426Y022439D01*
X028504Y022517D02*
X028016Y022517D01*
X028048Y022596D02*
X028586Y022596D01*
X028776Y022674D02*
X028081Y022674D01*
X028114Y022753D02*
X031437Y022753D01*
X031437Y022831D02*
X028121Y022831D01*
X029506Y022674D02*
X031437Y022674D01*
X031437Y022596D02*
X029696Y022596D01*
X029778Y022517D02*
X031437Y022517D01*
X031437Y022439D02*
X029856Y022439D01*
X029935Y022360D02*
X031437Y022360D01*
X031437Y022282D02*
X029994Y022282D01*
X030027Y022203D02*
X031437Y022203D01*
X031437Y022124D02*
X030059Y022124D01*
X030092Y022046D02*
X031437Y022046D01*
X031437Y021967D02*
X030124Y021967D01*
X030131Y021889D02*
X031437Y021889D01*
X031437Y021810D02*
X030131Y021810D01*
X030131Y021732D02*
X031437Y021732D01*
X031437Y021653D02*
X030131Y021653D01*
X030131Y021575D02*
X031437Y021575D01*
X031437Y021496D02*
X030106Y021496D01*
X030073Y021418D02*
X031437Y021418D01*
X031437Y021339D02*
X030041Y021339D01*
X030008Y021261D02*
X031437Y021261D01*
X031437Y021182D02*
X029969Y021182D01*
X029891Y021103D02*
X031437Y021103D01*
X031437Y021025D02*
X029812Y021025D01*
X029733Y020946D02*
X031437Y020946D01*
X031437Y020868D02*
X029589Y020868D01*
X029399Y020789D02*
X031437Y020789D01*
X031437Y020711D02*
X027021Y020711D01*
X026945Y020789D02*
X028883Y020789D01*
X028694Y020868D02*
X026867Y020868D01*
X026788Y020946D02*
X028549Y020946D01*
X026941Y020228D02*
X026941Y021668D01*
X026301Y020388D02*
X026301Y020308D01*
X026381Y020228D01*
X026941Y020228D01*
X026461Y022988D02*
X021472Y022988D01*
X021562Y023067D02*
X026461Y023067D01*
X026480Y023146D02*
X021641Y023146D01*
X021720Y023224D02*
X026512Y023224D01*
X026545Y023303D02*
X021759Y023303D01*
X021792Y023381D02*
X026577Y023381D01*
X026642Y023460D02*
X021824Y023460D01*
X021857Y023538D02*
X026720Y023538D01*
X026799Y023617D02*
X021861Y023617D01*
X021861Y023695D02*
X026957Y023695D01*
X024701Y016148D02*
X024641Y016148D01*
X024781Y016028D01*
X024781Y015628D01*
X023421Y014268D01*
X022781Y014268D01*
X021821Y013308D01*
X021771Y013248D01*
X021741Y013268D01*
X024701Y016148D02*
X024861Y015988D01*
X008394Y022282D02*
X008065Y022282D01*
X008144Y022360D02*
X008315Y022360D01*
X008269Y022439D02*
X008190Y022439D01*
X008223Y022517D02*
X008236Y022517D01*
X008217Y022910D02*
X008242Y022910D01*
X008275Y022988D02*
X008185Y022988D01*
X008130Y023067D02*
X008329Y023067D01*
X008408Y023146D02*
X008052Y023146D01*
X007925Y023224D02*
X008534Y023224D01*
X007444Y023224D02*
X006838Y023224D01*
X006965Y023146D02*
X007317Y023146D01*
X007239Y023067D02*
X007044Y023067D01*
X007098Y022988D02*
X007184Y022988D01*
X007152Y022910D02*
X007131Y022910D01*
X006357Y023224D02*
X005748Y023224D01*
X005875Y023146D02*
X006230Y023146D01*
X006152Y023067D02*
X005953Y023067D01*
X006008Y022988D02*
X006098Y022988D01*
X006065Y022910D02*
X006040Y022910D01*
X006046Y022517D02*
X006059Y022517D01*
X006092Y022439D02*
X006013Y022439D01*
X005967Y022360D02*
X006138Y022360D01*
X006217Y022282D02*
X005888Y022282D01*
D27*
X008141Y020648D02*
X008141Y019148D01*
X004391Y015398D02*
X004641Y015148D01*
X004641Y013148D01*
X004891Y012898D01*
X005891Y012898D01*
X019181Y014668D02*
X022221Y014668D01*
X022671Y015118D01*
X022641Y015148D01*
X022641Y016148D01*
X023007Y016514D01*
X022141Y015648D02*
X022141Y020648D01*
X023141Y020648D02*
X023141Y021148D01*
X022641Y021648D01*
X021641Y021648D01*
X020353Y020648D02*
X019133Y021868D01*
X024641Y020388D02*
X024641Y018148D01*
X024641Y017148D01*
X024641Y016148D01*
X023141Y014648D02*
X022671Y015118D01*
X025641Y018648D02*
X026641Y018648D01*
D28*
X026641Y018648D03*
X025641Y018648D03*
X024641Y018148D03*
X024641Y017148D03*
X024641Y016148D03*
X023007Y016514D03*
X022141Y015648D03*
X023141Y014648D03*
X023141Y020648D03*
X022141Y020648D03*
X021641Y021648D03*
X020353Y020648D03*
X008141Y020648D03*
X008141Y019148D03*
X006891Y019148D03*
X006391Y020148D03*
X006641Y017148D03*
X004391Y015398D03*
X005891Y012898D03*
D29*
X012861Y008908D03*
X012941Y008428D03*
X013421Y008748D03*
X014141Y009548D03*
X015101Y009148D03*
X015101Y008108D03*
X014701Y007788D03*
X015101Y007468D03*
X015501Y006828D03*
X016221Y007148D03*
X016861Y004188D03*
X016861Y003708D03*
X019821Y004188D03*
X019901Y002908D03*
X013821Y003468D03*
X013581Y002988D03*
X013101Y002828D03*
X012301Y005788D03*
X012141Y006828D03*
X012781Y007548D03*
X020381Y017828D03*
X017261Y019508D03*
X020221Y021588D03*
X026621Y020548D03*
M02*
