G75*
G70*
%OFA0B0*%
%FSLAX24Y24*%
%IPPOS*%
%LPD*%
%AMOC8*
5,1,8,0,0,1.08239X$1,22.5*
%
%ADD10C,0.0040*%
%ADD11C,0.0050*%
%ADD12C,0.0060*%
%ADD13C,0.0030*%
%ADD14C,0.0080*%
%ADD15C,0.0348*%
%ADD16C,0.0010*%
%ADD17C,0.0020*%
%ADD18C,0.0100*%
%ADD19C,0.0070*%
%ADD20R,0.0050X0.0200*%
%ADD21R,0.0300X0.0180*%
%ADD22R,0.0180X0.0300*%
D10*
X001661Y005636D02*
X001661Y005983D01*
X001661Y005810D02*
X002181Y005810D01*
X002181Y006152D02*
X001834Y006499D01*
X001834Y006152D02*
X002181Y006499D01*
X002834Y006499D02*
X003181Y006152D01*
X003181Y005983D02*
X003008Y005810D01*
X003008Y005897D02*
X003008Y005636D01*
X003181Y005636D02*
X002661Y005636D01*
X002661Y005897D01*
X002747Y005983D01*
X002921Y005983D01*
X003008Y005897D01*
X002834Y006152D02*
X003181Y006499D01*
X006411Y006678D02*
X006758Y006678D01*
X006671Y006418D02*
X006671Y006938D01*
X006411Y006678D01*
X006411Y005938D02*
X006411Y005678D01*
X006585Y005765D01*
X006671Y005765D01*
X006758Y005678D01*
X006758Y005504D01*
X006671Y005418D01*
X006498Y005418D01*
X006411Y005504D01*
X006411Y005938D02*
X006758Y005938D01*
X006758Y004938D02*
X006585Y004851D01*
X006411Y004678D01*
X006671Y004678D01*
X006758Y004591D01*
X006758Y004504D01*
X006671Y004418D01*
X006498Y004418D01*
X006411Y004504D01*
X006411Y004678D01*
X006411Y003938D02*
X006758Y003938D01*
X006758Y003851D01*
X006411Y003504D01*
X006411Y003418D01*
X006998Y001438D02*
X007171Y001438D01*
X007258Y001351D01*
X006911Y001004D01*
X006998Y000918D01*
X007171Y000918D01*
X007258Y001004D01*
X007258Y001351D01*
X006998Y001438D02*
X006911Y001351D01*
X006911Y001004D01*
X007911Y000918D02*
X008258Y000918D01*
X008085Y000918D02*
X008085Y001438D01*
X007911Y001265D01*
X008911Y001351D02*
X008998Y001438D01*
X009171Y001438D01*
X009258Y001351D01*
X009258Y001265D01*
X008911Y000918D01*
X009258Y000918D01*
X009911Y001004D02*
X009998Y000918D01*
X010171Y000918D01*
X010258Y001004D01*
X010258Y001091D01*
X010171Y001178D01*
X010085Y001178D01*
X010171Y001178D02*
X010258Y001265D01*
X010258Y001351D01*
X010171Y001438D01*
X009998Y001438D01*
X009911Y001351D01*
X010911Y001178D02*
X011258Y001178D01*
X011171Y000918D02*
X011171Y001438D01*
X010911Y001178D01*
X011911Y001178D02*
X012085Y001265D01*
X012171Y001265D01*
X012258Y001178D01*
X012258Y001004D01*
X012171Y000918D01*
X011998Y000918D01*
X011911Y001004D01*
X011911Y001178D02*
X011911Y001438D01*
X012258Y001438D01*
X012911Y001178D02*
X012911Y001004D01*
X012998Y000918D01*
X013171Y000918D01*
X013258Y001004D01*
X013258Y001091D01*
X013171Y001178D01*
X012911Y001178D01*
X013085Y001351D01*
X013258Y001438D01*
X013911Y001438D02*
X014258Y001438D01*
X014258Y001351D01*
X013911Y001004D01*
X013911Y000918D01*
X006758Y007504D02*
X006671Y007418D01*
X006498Y007418D01*
X006411Y007504D01*
X006585Y007678D02*
X006671Y007678D01*
X006758Y007591D01*
X006758Y007504D01*
X006671Y007678D02*
X006758Y007765D01*
X006758Y007851D01*
X006671Y007938D01*
X006498Y007938D01*
X006411Y007851D01*
X006411Y008418D02*
X006758Y008765D01*
X006758Y008851D01*
X006671Y008938D01*
X006498Y008938D01*
X006411Y008851D01*
X006411Y008418D02*
X006758Y008418D01*
X006758Y009418D02*
X006411Y009418D01*
X006585Y009418D02*
X006585Y009938D01*
X006411Y009765D01*
X006498Y010418D02*
X006411Y010504D01*
X006758Y010851D01*
X006758Y010504D01*
X006671Y010418D01*
X006498Y010418D01*
X006411Y010504D02*
X006411Y010851D01*
X006498Y010938D01*
X006671Y010938D01*
X006758Y010851D01*
X012661Y015754D02*
X012661Y016188D01*
X013008Y016188D02*
X013008Y015754D01*
X012921Y015668D01*
X012748Y015668D01*
X012661Y015754D01*
X013177Y015754D02*
X013263Y015668D01*
X013437Y015668D01*
X013524Y015754D01*
X013524Y015841D01*
X013437Y015928D01*
X013263Y015928D01*
X013177Y016015D01*
X013177Y016101D01*
X013263Y016188D01*
X013437Y016188D01*
X013524Y016101D01*
X013692Y016188D02*
X013953Y016188D01*
X014039Y016101D01*
X014039Y016015D01*
X013953Y015928D01*
X013692Y015928D01*
X013692Y015668D02*
X013692Y016188D01*
X013953Y015928D02*
X014039Y015841D01*
X014039Y015754D01*
X013953Y015668D01*
X013692Y015668D01*
X015661Y015668D02*
X015661Y016188D01*
X015921Y016188D01*
X016008Y016101D01*
X016008Y015928D01*
X015921Y015841D01*
X015661Y015841D01*
X015835Y015841D02*
X016008Y015668D01*
X016177Y015754D02*
X016263Y015668D01*
X016437Y015668D01*
X016524Y015754D01*
X016524Y015841D01*
X016437Y015928D01*
X016263Y015928D01*
X016177Y016015D01*
X016177Y016101D01*
X016263Y016188D01*
X016437Y016188D01*
X016524Y016101D01*
X016692Y015928D02*
X017039Y015928D01*
X017208Y016101D02*
X017295Y016188D01*
X017468Y016188D01*
X017555Y016101D01*
X017555Y016015D01*
X017208Y015668D01*
X017555Y015668D01*
X017724Y015754D02*
X017810Y015668D01*
X017984Y015668D01*
X018071Y015754D01*
X018071Y015841D01*
X017984Y015928D01*
X017897Y015928D01*
X017984Y015928D02*
X018071Y016015D01*
X018071Y016101D01*
X017984Y016188D01*
X017810Y016188D01*
X017724Y016101D01*
X018239Y016101D02*
X018326Y016188D01*
X018499Y016188D01*
X018586Y016101D01*
X018586Y016015D01*
X018239Y015668D01*
X018586Y015668D01*
X021376Y019074D02*
X021529Y019074D01*
X021452Y019074D02*
X021452Y019534D01*
X021376Y019534D02*
X021529Y019534D01*
X021683Y019457D02*
X021683Y019150D01*
X021759Y019074D01*
X021913Y019074D01*
X021989Y019150D01*
X022143Y019074D02*
X022450Y019074D01*
X022296Y019074D02*
X022296Y019534D01*
X022143Y019381D01*
X021989Y019457D02*
X021913Y019534D01*
X021759Y019534D01*
X021683Y019457D01*
X026161Y023261D02*
X026161Y023522D01*
X026247Y023608D01*
X026594Y023608D01*
X026681Y023522D01*
X026681Y023261D01*
X026161Y023261D01*
X026247Y023777D02*
X026594Y023777D01*
X026681Y023864D01*
X026681Y024037D01*
X026594Y024124D01*
X026421Y024293D02*
X026421Y024640D01*
X026681Y024808D02*
X026681Y024982D01*
X026681Y024895D02*
X026161Y024895D01*
X026161Y024808D02*
X026161Y024982D01*
X026334Y025152D02*
X026334Y025412D01*
X026421Y025499D01*
X026681Y025499D01*
X026681Y025152D02*
X026334Y025152D01*
X026247Y024124D02*
X026161Y024037D01*
X026161Y023864D01*
X026247Y023777D01*
X022181Y024208D02*
X022181Y024381D01*
X022094Y024468D01*
X021661Y024468D01*
X021747Y024636D02*
X021834Y024636D01*
X021921Y024723D01*
X021921Y024897D01*
X022008Y024983D01*
X022094Y024983D01*
X022181Y024897D01*
X022181Y024723D01*
X022094Y024636D01*
X021747Y024636D02*
X021661Y024723D01*
X021661Y024897D01*
X021747Y024983D01*
X021661Y025152D02*
X021661Y025412D01*
X021747Y025499D01*
X021834Y025499D01*
X021921Y025412D01*
X021921Y025152D01*
X022181Y025152D02*
X021661Y025152D01*
X021921Y025412D02*
X022008Y025499D01*
X022094Y025499D01*
X022181Y025412D01*
X022181Y025152D01*
X022181Y024208D02*
X022094Y024121D01*
X021661Y024121D01*
X003718Y018918D02*
X003411Y018918D01*
X003565Y018918D02*
X003565Y019378D01*
X003411Y019225D01*
D11*
X001864Y001623D02*
X001864Y001173D01*
X001864Y001323D02*
X002089Y001323D01*
X002164Y001398D01*
X002164Y001548D01*
X002089Y001623D01*
X001864Y001623D01*
X002014Y001323D02*
X002164Y001173D01*
X002325Y001173D02*
X002325Y001623D01*
X002625Y001623D01*
X002785Y001548D02*
X002785Y001473D01*
X002860Y001398D01*
X003010Y001398D01*
X003085Y001323D01*
X003085Y001248D01*
X003010Y001173D01*
X002860Y001173D01*
X002785Y001248D01*
X002625Y001173D02*
X002325Y001173D01*
X002325Y001398D02*
X002475Y001398D01*
X002785Y001548D02*
X002860Y001623D01*
X003010Y001623D01*
X003085Y001548D01*
X003245Y001623D02*
X003245Y001173D01*
X003545Y001173D01*
X003395Y001398D02*
X003245Y001398D01*
X003245Y001623D02*
X003545Y001623D01*
X003706Y001623D02*
X004006Y001623D01*
X003856Y001623D02*
X003856Y001173D01*
X006636Y002893D02*
X006636Y003343D01*
X006861Y003343D01*
X006936Y003268D01*
X006936Y003118D01*
X006861Y003043D01*
X006636Y003043D01*
X007096Y002968D02*
X007171Y002893D01*
X007322Y002893D01*
X007397Y002968D01*
X007397Y003268D01*
X007322Y003343D01*
X007171Y003343D01*
X007096Y003268D01*
X007096Y002968D01*
X007557Y003043D02*
X007782Y003043D01*
X007857Y003118D01*
X007857Y003268D01*
X007782Y003343D01*
X007557Y003343D01*
X007557Y002893D01*
X007707Y003043D02*
X007857Y002893D01*
X008167Y002893D02*
X008167Y003343D01*
X008017Y003343D02*
X008317Y003343D01*
X008478Y003268D02*
X008478Y002968D01*
X008553Y002893D01*
X008703Y002893D01*
X008778Y002968D01*
X008778Y003268D02*
X008703Y003343D01*
X008553Y003343D01*
X008478Y003268D01*
X016386Y003343D02*
X016386Y002893D01*
X016386Y003043D02*
X016611Y003043D01*
X016686Y003118D01*
X016686Y003268D01*
X016611Y003343D01*
X016386Y003343D01*
X016846Y003268D02*
X016846Y002968D01*
X016921Y002893D01*
X017072Y002893D01*
X017147Y002968D01*
X017147Y003268D01*
X017072Y003343D01*
X016921Y003343D01*
X016846Y003268D01*
X017307Y003343D02*
X017307Y002893D01*
X017307Y003043D02*
X017532Y003043D01*
X017607Y003118D01*
X017607Y003268D01*
X017532Y003343D01*
X017307Y003343D01*
X017457Y003043D02*
X017607Y002893D01*
X017917Y002893D02*
X017917Y003343D01*
X017767Y003343D02*
X018067Y003343D01*
X018228Y003343D02*
X018228Y002893D01*
X018453Y002893D01*
X018528Y002968D01*
X018528Y003268D01*
X018453Y003343D01*
X018228Y003343D01*
X024026Y008033D02*
X024026Y008183D01*
X024026Y008108D02*
X024401Y008108D01*
X024476Y008033D01*
X024476Y007958D01*
X024401Y007883D01*
X024401Y008343D02*
X024476Y008418D01*
X024476Y008568D01*
X024401Y008643D01*
X024326Y008643D01*
X024251Y008568D01*
X024251Y008343D01*
X024401Y008343D01*
X024251Y008343D02*
X024101Y008493D01*
X024026Y008643D01*
X025226Y008558D02*
X025226Y008408D01*
X025301Y008333D01*
X025226Y008173D02*
X025226Y008023D01*
X025226Y008098D02*
X025601Y008098D01*
X025676Y008023D01*
X025676Y007948D01*
X025601Y007873D01*
X025676Y008333D02*
X025376Y008633D01*
X025301Y008633D01*
X025226Y008558D01*
X025676Y008633D02*
X025676Y008333D01*
X022778Y011393D02*
X022778Y011693D01*
X022628Y011843D01*
X022478Y011693D01*
X022478Y011393D01*
X022478Y011618D02*
X022778Y011618D01*
X022317Y011843D02*
X022017Y011843D01*
X022167Y011843D02*
X022167Y011393D01*
X021857Y011393D02*
X021707Y011543D01*
X021782Y011543D02*
X021557Y011543D01*
X021557Y011393D02*
X021557Y011843D01*
X021782Y011843D01*
X021857Y011768D01*
X021857Y011618D01*
X021782Y011543D01*
X021397Y011468D02*
X021322Y011393D01*
X021171Y011393D01*
X021096Y011468D01*
X021096Y011768D01*
X021171Y011843D01*
X021322Y011843D01*
X021397Y011768D01*
X021397Y011468D01*
X020936Y011618D02*
X020861Y011543D01*
X020636Y011543D01*
X020636Y011393D02*
X020636Y011843D01*
X020861Y011843D01*
X020936Y011768D01*
X020936Y011618D01*
X018886Y013723D02*
X018586Y013723D01*
X018586Y014173D01*
X018426Y014023D02*
X018426Y013723D01*
X018426Y013948D02*
X018125Y013948D01*
X018125Y014023D02*
X018125Y013723D01*
X018125Y014023D02*
X018275Y014173D01*
X018426Y014023D01*
X017965Y014173D02*
X017665Y014173D01*
X017815Y014173D02*
X017815Y013723D01*
X017505Y013723D02*
X017205Y014173D01*
X017505Y014173D02*
X017205Y013723D01*
X017629Y016780D02*
X013535Y016780D01*
X012787Y017370D02*
X012787Y018512D01*
X013535Y019102D02*
X017629Y019102D01*
X017623Y019673D02*
X017521Y019774D01*
X017521Y019978D01*
X017623Y020080D01*
X017827Y020080D01*
X017928Y019978D01*
X017928Y019876D01*
X017521Y019876D01*
X017321Y019876D02*
X017219Y019978D01*
X017015Y019978D01*
X016914Y020080D01*
X016914Y020181D01*
X017015Y020283D01*
X017219Y020283D01*
X017321Y020181D01*
X017321Y019876D02*
X017321Y019774D01*
X017219Y019673D01*
X017015Y019673D01*
X016914Y019774D01*
X017623Y019673D02*
X017827Y019673D01*
X018129Y019673D02*
X018333Y019673D01*
X018231Y019673D02*
X018231Y020283D01*
X018129Y020283D01*
X018534Y019978D02*
X018636Y020080D01*
X018839Y020080D01*
X018941Y019978D01*
X018941Y019876D01*
X018534Y019876D01*
X018534Y019774D02*
X018534Y019978D01*
X018534Y019774D02*
X018636Y019673D01*
X018839Y019673D01*
X019142Y019774D02*
X019244Y019673D01*
X019549Y019673D01*
X019851Y019774D02*
X019953Y019673D01*
X019851Y019774D02*
X019851Y020181D01*
X019750Y020080D02*
X019953Y020080D01*
X019549Y020080D02*
X019244Y020080D01*
X019142Y019978D01*
X019142Y019774D01*
X018377Y018512D02*
X018377Y017370D01*
X016104Y019673D02*
X015901Y019673D01*
X016003Y019673D02*
X016003Y020283D01*
X015901Y020283D01*
X015598Y020080D02*
X015700Y019978D01*
X015700Y019673D01*
X015395Y019673D01*
X015293Y019774D01*
X015395Y019876D01*
X015700Y019876D01*
X015598Y020080D02*
X015395Y020080D01*
X014990Y020080D02*
X014990Y019673D01*
X015091Y019673D02*
X014888Y019673D01*
X014382Y019673D02*
X014382Y020080D01*
X014585Y020080D02*
X014687Y020080D01*
X014585Y020080D02*
X014382Y019876D01*
X014181Y019876D02*
X014181Y019978D01*
X014079Y020080D01*
X013876Y020080D01*
X013774Y019978D01*
X013774Y019774D01*
X013876Y019673D01*
X014079Y019673D01*
X014181Y019876D02*
X013774Y019876D01*
X013573Y019876D02*
X013471Y019978D01*
X013268Y019978D01*
X013166Y020080D01*
X013166Y020181D01*
X013268Y020283D01*
X013471Y020283D01*
X013573Y020181D01*
X013573Y019876D02*
X013573Y019774D01*
X013471Y019673D01*
X013268Y019673D01*
X013166Y019774D01*
X014888Y020080D02*
X014990Y020080D01*
X014990Y020283D02*
X014990Y020385D01*
X007203Y011843D02*
X006978Y011843D01*
X006978Y011393D01*
X007203Y011393D01*
X007278Y011468D01*
X007278Y011543D01*
X007203Y011618D01*
X006978Y011618D01*
X007203Y011618D02*
X007278Y011693D01*
X007278Y011768D01*
X007203Y011843D01*
X006817Y011843D02*
X006517Y011843D01*
X006667Y011843D02*
X006667Y011393D01*
X006357Y011393D02*
X006207Y011543D01*
X006282Y011543D02*
X006057Y011543D01*
X006057Y011393D02*
X006057Y011843D01*
X006282Y011843D01*
X006357Y011768D01*
X006357Y011618D01*
X006282Y011543D01*
X005897Y011468D02*
X005822Y011393D01*
X005671Y011393D01*
X005596Y011468D01*
X005596Y011768D01*
X005671Y011843D01*
X005822Y011843D01*
X005897Y011768D01*
X005897Y011468D01*
X005436Y011618D02*
X005436Y011768D01*
X005361Y011843D01*
X005136Y011843D01*
X005136Y011393D01*
X005136Y011543D02*
X005361Y011543D01*
X005436Y011618D01*
X003356Y012878D02*
X003281Y012803D01*
X003356Y012878D02*
X003356Y012953D01*
X003281Y013028D01*
X002906Y013028D01*
X002906Y012953D02*
X002906Y013103D01*
X002906Y013263D02*
X003131Y013263D01*
X003056Y013413D01*
X003056Y013488D01*
X003131Y013563D01*
X003281Y013563D01*
X003356Y013488D01*
X003356Y013338D01*
X003281Y013263D01*
X002906Y013263D02*
X002906Y013563D01*
X002356Y013408D02*
X001906Y013408D01*
X002131Y013183D01*
X002131Y013483D01*
X001906Y013023D02*
X001906Y012873D01*
X001906Y012948D02*
X002281Y012948D01*
X002356Y012873D01*
X002356Y012798D01*
X002281Y012723D01*
X001341Y014023D02*
X001041Y014023D01*
X000966Y014098D01*
X000966Y014248D01*
X001041Y014323D01*
X000966Y014483D02*
X001191Y014483D01*
X001116Y014633D01*
X001116Y014708D01*
X001191Y014783D01*
X001341Y014783D01*
X001416Y014708D01*
X001416Y014558D01*
X001341Y014483D01*
X001341Y014323D02*
X001416Y014248D01*
X001416Y014098D01*
X001341Y014023D01*
X000966Y014483D02*
X000966Y014783D01*
X004266Y018873D02*
X004416Y018873D01*
X004341Y018873D02*
X004341Y019323D01*
X004266Y019323D02*
X004416Y019323D01*
X004573Y019248D02*
X004573Y018948D01*
X004648Y018873D01*
X004798Y018873D01*
X004873Y018948D01*
X005033Y018948D02*
X005108Y018873D01*
X005259Y018873D01*
X005334Y018948D01*
X005334Y019023D01*
X005259Y019098D01*
X005183Y019098D01*
X005259Y019098D02*
X005334Y019173D01*
X005334Y019248D01*
X005259Y019323D01*
X005108Y019323D01*
X005033Y019248D01*
X004873Y019248D02*
X004798Y019323D01*
X004648Y019323D01*
X004573Y019248D01*
X017746Y010323D02*
X017896Y010323D01*
X017821Y010323D02*
X017821Y009948D01*
X017746Y009873D01*
X017671Y009873D01*
X017596Y009948D01*
X018056Y009873D02*
X018357Y009873D01*
X018207Y009873D02*
X018207Y010323D01*
X018056Y010173D01*
X025666Y003873D02*
X025666Y003498D01*
X025741Y003423D01*
X025891Y003423D01*
X025966Y003498D01*
X025966Y003873D01*
X026126Y003798D02*
X026126Y003723D01*
X026201Y003648D01*
X026352Y003648D01*
X026427Y003573D01*
X026427Y003498D01*
X026352Y003423D01*
X026201Y003423D01*
X026126Y003498D01*
X026126Y003798D02*
X026201Y003873D01*
X026352Y003873D01*
X026427Y003798D01*
X026587Y003873D02*
X026812Y003873D01*
X026887Y003798D01*
X026887Y003723D01*
X026812Y003648D01*
X026587Y003648D01*
X026812Y003648D02*
X026887Y003573D01*
X026887Y003498D01*
X026812Y003423D01*
X026587Y003423D01*
X026587Y003873D01*
X027047Y003873D02*
X027347Y003873D01*
X027197Y003873D02*
X027197Y003423D01*
X027508Y003423D02*
X027508Y003723D01*
X027658Y003873D01*
X027808Y003723D01*
X027808Y003423D01*
X027968Y003423D02*
X027968Y003873D01*
X028193Y003873D01*
X028268Y003798D01*
X028268Y003648D01*
X028193Y003573D01*
X027968Y003573D01*
X027808Y003648D02*
X027508Y003648D01*
D12*
X027391Y003148D02*
X026891Y003148D01*
X026641Y002898D01*
X026641Y001398D01*
X026391Y001148D01*
X025891Y001148D01*
X025641Y001398D01*
X025641Y002898D01*
X025391Y003148D01*
X024891Y003148D01*
X024641Y002898D01*
X024391Y003148D01*
X023891Y003148D01*
X023641Y002898D01*
X023641Y001398D01*
X023891Y001148D01*
X024391Y001148D01*
X024641Y001398D01*
X024641Y002898D01*
X025641Y002898D02*
X025891Y003148D01*
X026391Y003148D01*
X026641Y002898D01*
X027391Y003148D02*
X027641Y002898D01*
X027641Y001398D01*
X027391Y001148D01*
X026891Y001148D01*
X026641Y001398D01*
X025641Y001398D02*
X025391Y001148D01*
X024891Y001148D01*
X024641Y001398D01*
X027641Y001398D02*
X027891Y001148D01*
X028391Y001148D01*
X028641Y001398D01*
X028641Y002898D01*
X028391Y003148D01*
X027891Y003148D01*
X027641Y002898D01*
X028641Y002898D02*
X028891Y003148D01*
X029391Y003148D01*
X029641Y002898D01*
X029641Y001398D01*
X029391Y001148D01*
X028891Y001148D01*
X028641Y001398D01*
X029641Y001398D02*
X029891Y001148D01*
X030391Y001148D01*
X030641Y001398D01*
X030641Y002898D01*
X030391Y003148D01*
X029891Y003148D01*
X029641Y002898D01*
X025131Y004753D02*
X025131Y005548D01*
X024151Y005552D02*
X024151Y004743D01*
X015321Y007008D02*
X012561Y007008D01*
X012561Y009628D01*
X012701Y009768D01*
X015321Y009768D01*
X015321Y007008D01*
X012720Y009468D02*
X012722Y009491D01*
X012728Y009514D01*
X012737Y009535D01*
X012750Y009555D01*
X012766Y009572D01*
X012784Y009586D01*
X012804Y009597D01*
X012826Y009605D01*
X012849Y009609D01*
X012873Y009609D01*
X012896Y009605D01*
X012918Y009597D01*
X012938Y009586D01*
X012956Y009572D01*
X012972Y009555D01*
X012985Y009535D01*
X012994Y009514D01*
X013000Y009491D01*
X013002Y009468D01*
X013000Y009445D01*
X012994Y009422D01*
X012985Y009401D01*
X012972Y009381D01*
X012956Y009364D01*
X012938Y009350D01*
X012918Y009339D01*
X012896Y009331D01*
X012873Y009327D01*
X012849Y009327D01*
X012826Y009331D01*
X012804Y009339D01*
X012784Y009350D01*
X012766Y009364D01*
X012750Y009381D01*
X012737Y009401D01*
X012728Y009422D01*
X012722Y009445D01*
X012720Y009468D01*
X007111Y013738D02*
X007111Y018558D01*
X007109Y018581D01*
X007104Y018604D01*
X007095Y018626D01*
X007082Y018646D01*
X007067Y018664D01*
X007049Y018679D01*
X007029Y018692D01*
X007007Y018701D01*
X006984Y018706D01*
X006961Y018708D01*
X006141Y018708D01*
X005141Y018708D01*
X004321Y018708D01*
X004298Y018706D01*
X004275Y018701D01*
X004253Y018692D01*
X004233Y018679D01*
X004215Y018664D01*
X004200Y018646D01*
X004187Y018626D01*
X004178Y018604D01*
X004173Y018581D01*
X004171Y018558D01*
X004171Y013738D01*
X004173Y013715D01*
X004178Y013692D01*
X004187Y013670D01*
X004200Y013650D01*
X004215Y013632D01*
X004233Y013617D01*
X004253Y013604D01*
X004275Y013595D01*
X004298Y013590D01*
X004321Y013588D01*
X006961Y013588D01*
X006984Y013590D01*
X007007Y013595D01*
X007029Y013604D01*
X007049Y013617D01*
X007067Y013632D01*
X007082Y013650D01*
X007095Y013670D01*
X007104Y013692D01*
X007109Y013715D01*
X007111Y013738D01*
X002741Y013798D02*
X002741Y015498D01*
X002739Y015515D01*
X002735Y015532D01*
X002728Y015548D01*
X002718Y015562D01*
X002705Y015575D01*
X002691Y015585D01*
X002675Y015592D01*
X002658Y015596D01*
X002641Y015598D01*
X001641Y015598D01*
X001624Y015596D01*
X001607Y015592D01*
X001591Y015585D01*
X001577Y015575D01*
X001564Y015562D01*
X001554Y015548D01*
X001547Y015532D01*
X001543Y015515D01*
X001541Y015498D01*
X001541Y013798D01*
X001543Y013781D01*
X001547Y013764D01*
X001554Y013748D01*
X001564Y013734D01*
X001577Y013721D01*
X001591Y013711D01*
X001607Y013704D01*
X001624Y013700D01*
X001641Y013698D01*
X002641Y013698D01*
X002658Y013700D01*
X002675Y013704D01*
X002691Y013711D01*
X002705Y013721D01*
X002718Y013734D01*
X002728Y013748D01*
X002735Y013764D01*
X002739Y013781D01*
X002741Y013798D01*
X002141Y014498D02*
X002141Y014548D01*
X002141Y014748D02*
X002141Y014798D01*
X005141Y018708D02*
X005143Y018664D01*
X005149Y018621D01*
X005158Y018579D01*
X005171Y018537D01*
X005188Y018497D01*
X005208Y018458D01*
X005231Y018421D01*
X005258Y018387D01*
X005287Y018354D01*
X005320Y018325D01*
X005354Y018298D01*
X005391Y018275D01*
X005430Y018255D01*
X005470Y018238D01*
X005512Y018225D01*
X005554Y018216D01*
X005597Y018210D01*
X005641Y018208D01*
X005685Y018210D01*
X005728Y018216D01*
X005770Y018225D01*
X005812Y018238D01*
X005852Y018255D01*
X005891Y018275D01*
X005928Y018298D01*
X005962Y018325D01*
X005995Y018354D01*
X006024Y018387D01*
X006051Y018421D01*
X006074Y018458D01*
X006094Y018497D01*
X006111Y018537D01*
X006124Y018579D01*
X006133Y018621D01*
X006139Y018664D01*
X006141Y018708D01*
D13*
X012866Y010693D02*
X012866Y010451D01*
X012914Y010403D01*
X013011Y010403D01*
X013060Y010451D01*
X013060Y010693D01*
X013161Y010596D02*
X013257Y010693D01*
X013257Y010403D01*
X013161Y010403D02*
X013354Y010403D01*
D14*
X014551Y011628D02*
X015051Y011628D01*
X016021Y012748D02*
X016521Y012748D01*
X017671Y013648D02*
X017612Y013646D01*
X017554Y013640D01*
X017495Y013631D01*
X017438Y013617D01*
X017382Y013600D01*
X017327Y013579D01*
X017273Y013555D01*
X017221Y013527D01*
X017171Y013496D01*
X017123Y013462D01*
X017078Y013425D01*
X017035Y013384D01*
X016994Y013341D01*
X016957Y013296D01*
X016923Y013248D01*
X016892Y013198D01*
X016864Y013146D01*
X016840Y013092D01*
X016819Y013037D01*
X016802Y012981D01*
X016788Y012924D01*
X016779Y012865D01*
X016773Y012807D01*
X016771Y012748D01*
X016773Y012689D01*
X016779Y012631D01*
X016788Y012572D01*
X016802Y012515D01*
X016819Y012459D01*
X016840Y012404D01*
X016864Y012350D01*
X016892Y012298D01*
X016923Y012248D01*
X016957Y012200D01*
X016994Y012155D01*
X017035Y012112D01*
X017078Y012071D01*
X017123Y012034D01*
X017171Y012000D01*
X017221Y011969D01*
X017273Y011941D01*
X017327Y011917D01*
X017382Y011896D01*
X017438Y011879D01*
X017495Y011865D01*
X017554Y011856D01*
X017612Y011850D01*
X017671Y011848D01*
X020371Y011848D01*
X020891Y011148D02*
X020641Y010898D01*
X020641Y010398D01*
X020891Y010148D01*
X020641Y009898D01*
X020641Y009398D01*
X020891Y009148D01*
X020641Y008898D01*
X020641Y008398D01*
X020891Y008148D01*
X020641Y007898D01*
X020641Y007398D01*
X020891Y007148D01*
X020641Y006898D01*
X020641Y006398D01*
X020891Y006148D01*
X020641Y005898D01*
X020641Y005398D01*
X020891Y005148D01*
X020641Y004898D01*
X020641Y004398D01*
X020891Y004148D01*
X020641Y003898D01*
X020641Y003398D01*
X020891Y003148D01*
X021391Y003148D01*
X021641Y003398D01*
X021641Y003898D01*
X021391Y004148D01*
X021641Y004398D01*
X021641Y004898D01*
X021391Y005148D01*
X021641Y005398D01*
X021641Y005898D01*
X021391Y006148D01*
X021641Y006398D01*
X021641Y006898D01*
X021391Y007148D01*
X021641Y007398D01*
X021641Y007898D01*
X021391Y008148D01*
X021641Y008398D01*
X021641Y008898D01*
X021391Y009148D01*
X021641Y009398D01*
X021641Y009898D01*
X021391Y010148D01*
X021641Y010398D01*
X021641Y010898D01*
X021391Y011148D01*
X020891Y011148D01*
X020151Y010648D02*
X020401Y010398D01*
X020401Y009898D01*
X020151Y009648D01*
X019651Y009648D01*
X019401Y009898D01*
X019151Y009648D01*
X018651Y009648D01*
X018401Y009898D01*
X018401Y010398D01*
X018651Y010648D01*
X019151Y010648D01*
X019401Y010398D01*
X019651Y010648D01*
X020151Y010648D01*
X020371Y011848D02*
X020430Y011850D01*
X020488Y011856D01*
X020547Y011865D01*
X020604Y011879D01*
X020660Y011896D01*
X020715Y011917D01*
X020769Y011941D01*
X020821Y011969D01*
X020871Y012000D01*
X020919Y012034D01*
X020964Y012071D01*
X021007Y012112D01*
X021048Y012155D01*
X021085Y012200D01*
X021119Y012248D01*
X021150Y012298D01*
X021178Y012350D01*
X021202Y012404D01*
X021223Y012459D01*
X021240Y012515D01*
X021254Y012572D01*
X021263Y012631D01*
X021269Y012689D01*
X021271Y012748D01*
X021269Y012807D01*
X021263Y012865D01*
X021254Y012924D01*
X021240Y012981D01*
X021223Y013037D01*
X021202Y013092D01*
X021178Y013146D01*
X021150Y013198D01*
X021119Y013248D01*
X021085Y013296D01*
X021048Y013341D01*
X021007Y013384D01*
X020964Y013425D01*
X020919Y013462D01*
X020871Y013496D01*
X020821Y013527D01*
X020769Y013555D01*
X020715Y013579D01*
X020660Y013600D01*
X020604Y013617D01*
X020547Y013631D01*
X020488Y013640D01*
X020430Y013646D01*
X020371Y013648D01*
X017671Y013648D01*
X021367Y014890D02*
X023415Y014890D01*
X023415Y018906D01*
X021367Y018906D01*
X021367Y014890D01*
X021521Y012748D02*
X022021Y012748D01*
X024031Y010688D02*
X024531Y010688D01*
X024781Y010438D01*
X024781Y009938D01*
X024531Y009688D01*
X024781Y009438D01*
X024781Y008938D01*
X024531Y008688D01*
X024031Y008688D01*
X023781Y008938D01*
X023781Y009438D01*
X024031Y009688D01*
X023781Y009938D01*
X023781Y010438D01*
X024031Y010688D01*
X024941Y010408D02*
X024941Y009908D01*
X025191Y009658D01*
X024941Y009408D01*
X024941Y008908D01*
X025191Y008658D01*
X025691Y008658D01*
X025941Y008908D01*
X025941Y009408D01*
X025691Y009658D01*
X025941Y009908D01*
X025941Y010408D01*
X025691Y010658D01*
X025191Y010658D01*
X024941Y010408D01*
X027491Y009438D02*
X027491Y006858D01*
X028791Y006858D01*
X028791Y009438D01*
X027491Y009438D01*
X028895Y010786D02*
X029395Y010786D01*
X027657Y011148D02*
X027659Y011210D01*
X027665Y011273D01*
X027675Y011334D01*
X027689Y011395D01*
X027706Y011455D01*
X027727Y011514D01*
X027753Y011571D01*
X027781Y011626D01*
X027813Y011680D01*
X027849Y011731D01*
X027887Y011781D01*
X027929Y011827D01*
X027973Y011871D01*
X028021Y011912D01*
X028070Y011950D01*
X028122Y011984D01*
X028176Y012015D01*
X028232Y012043D01*
X028290Y012067D01*
X028349Y012088D01*
X028409Y012104D01*
X028470Y012117D01*
X028532Y012126D01*
X028594Y012131D01*
X028657Y012132D01*
X028719Y012129D01*
X028781Y012122D01*
X028843Y012111D01*
X028903Y012096D01*
X028963Y012078D01*
X029021Y012056D01*
X029078Y012030D01*
X029133Y012000D01*
X029186Y011967D01*
X029237Y011931D01*
X029285Y011892D01*
X029331Y011849D01*
X029374Y011804D01*
X029414Y011756D01*
X029451Y011706D01*
X029485Y011653D01*
X029516Y011599D01*
X029542Y011543D01*
X029566Y011485D01*
X029585Y011425D01*
X029601Y011365D01*
X029613Y011303D01*
X029621Y011242D01*
X029625Y011179D01*
X029625Y011117D01*
X029621Y011054D01*
X029613Y010993D01*
X029601Y010931D01*
X029585Y010871D01*
X029566Y010811D01*
X029542Y010753D01*
X029516Y010697D01*
X029485Y010643D01*
X029451Y010590D01*
X029414Y010540D01*
X029374Y010492D01*
X029331Y010447D01*
X029285Y010404D01*
X029237Y010365D01*
X029186Y010329D01*
X029133Y010296D01*
X029078Y010266D01*
X029021Y010240D01*
X028963Y010218D01*
X028903Y010200D01*
X028843Y010185D01*
X028781Y010174D01*
X028719Y010167D01*
X028657Y010164D01*
X028594Y010165D01*
X028532Y010170D01*
X028470Y010179D01*
X028409Y010192D01*
X028349Y010208D01*
X028290Y010229D01*
X028232Y010253D01*
X028176Y010281D01*
X028122Y010312D01*
X028070Y010346D01*
X028021Y010384D01*
X027973Y010425D01*
X027929Y010469D01*
X027887Y010515D01*
X027849Y010565D01*
X027813Y010616D01*
X027781Y010670D01*
X027753Y010725D01*
X027727Y010782D01*
X027706Y010841D01*
X027689Y010901D01*
X027675Y010962D01*
X027665Y011023D01*
X027659Y011086D01*
X027657Y011148D01*
X028895Y013286D02*
X029395Y013286D01*
X027657Y013648D02*
X027659Y013710D01*
X027665Y013773D01*
X027675Y013834D01*
X027689Y013895D01*
X027706Y013955D01*
X027727Y014014D01*
X027753Y014071D01*
X027781Y014126D01*
X027813Y014180D01*
X027849Y014231D01*
X027887Y014281D01*
X027929Y014327D01*
X027973Y014371D01*
X028021Y014412D01*
X028070Y014450D01*
X028122Y014484D01*
X028176Y014515D01*
X028232Y014543D01*
X028290Y014567D01*
X028349Y014588D01*
X028409Y014604D01*
X028470Y014617D01*
X028532Y014626D01*
X028594Y014631D01*
X028657Y014632D01*
X028719Y014629D01*
X028781Y014622D01*
X028843Y014611D01*
X028903Y014596D01*
X028963Y014578D01*
X029021Y014556D01*
X029078Y014530D01*
X029133Y014500D01*
X029186Y014467D01*
X029237Y014431D01*
X029285Y014392D01*
X029331Y014349D01*
X029374Y014304D01*
X029414Y014256D01*
X029451Y014206D01*
X029485Y014153D01*
X029516Y014099D01*
X029542Y014043D01*
X029566Y013985D01*
X029585Y013925D01*
X029601Y013865D01*
X029613Y013803D01*
X029621Y013742D01*
X029625Y013679D01*
X029625Y013617D01*
X029621Y013554D01*
X029613Y013493D01*
X029601Y013431D01*
X029585Y013371D01*
X029566Y013311D01*
X029542Y013253D01*
X029516Y013197D01*
X029485Y013143D01*
X029451Y013090D01*
X029414Y013040D01*
X029374Y012992D01*
X029331Y012947D01*
X029285Y012904D01*
X029237Y012865D01*
X029186Y012829D01*
X029133Y012796D01*
X029078Y012766D01*
X029021Y012740D01*
X028963Y012718D01*
X028903Y012700D01*
X028843Y012685D01*
X028781Y012674D01*
X028719Y012667D01*
X028657Y012664D01*
X028594Y012665D01*
X028532Y012670D01*
X028470Y012679D01*
X028409Y012692D01*
X028349Y012708D01*
X028290Y012729D01*
X028232Y012753D01*
X028176Y012781D01*
X028122Y012812D01*
X028070Y012846D01*
X028021Y012884D01*
X027973Y012925D01*
X027929Y012969D01*
X027887Y013015D01*
X027849Y013065D01*
X027813Y013116D01*
X027781Y013170D01*
X027753Y013225D01*
X027727Y013282D01*
X027706Y013341D01*
X027689Y013401D01*
X027675Y013462D01*
X027665Y013523D01*
X027659Y013586D01*
X027657Y013648D01*
X027491Y015358D02*
X027491Y017938D01*
X028791Y017938D01*
X028791Y015358D01*
X027491Y015358D01*
X027247Y018703D02*
X028035Y018703D01*
X028035Y019254D01*
X027877Y019530D02*
X027641Y019766D01*
X027405Y019530D01*
X027877Y019530D01*
X027917Y019766D02*
X027641Y019766D01*
X027366Y019766D01*
X027247Y020041D02*
X027247Y020593D01*
X028035Y020593D01*
X028035Y020041D01*
X027247Y019254D02*
X027247Y018703D01*
X028657Y019398D02*
X028659Y019460D01*
X028665Y019523D01*
X028675Y019584D01*
X028689Y019645D01*
X028706Y019705D01*
X028727Y019764D01*
X028753Y019821D01*
X028781Y019876D01*
X028813Y019930D01*
X028849Y019981D01*
X028887Y020031D01*
X028929Y020077D01*
X028973Y020121D01*
X029021Y020162D01*
X029070Y020200D01*
X029122Y020234D01*
X029176Y020265D01*
X029232Y020293D01*
X029290Y020317D01*
X029349Y020338D01*
X029409Y020354D01*
X029470Y020367D01*
X029532Y020376D01*
X029594Y020381D01*
X029657Y020382D01*
X029719Y020379D01*
X029781Y020372D01*
X029843Y020361D01*
X029903Y020346D01*
X029963Y020328D01*
X030021Y020306D01*
X030078Y020280D01*
X030133Y020250D01*
X030186Y020217D01*
X030237Y020181D01*
X030285Y020142D01*
X030331Y020099D01*
X030374Y020054D01*
X030414Y020006D01*
X030451Y019956D01*
X030485Y019903D01*
X030516Y019849D01*
X030542Y019793D01*
X030566Y019735D01*
X030585Y019675D01*
X030601Y019615D01*
X030613Y019553D01*
X030621Y019492D01*
X030625Y019429D01*
X030625Y019367D01*
X030621Y019304D01*
X030613Y019243D01*
X030601Y019181D01*
X030585Y019121D01*
X030566Y019061D01*
X030542Y019003D01*
X030516Y018947D01*
X030485Y018893D01*
X030451Y018840D01*
X030414Y018790D01*
X030374Y018742D01*
X030331Y018697D01*
X030285Y018654D01*
X030237Y018615D01*
X030186Y018579D01*
X030133Y018546D01*
X030078Y018516D01*
X030021Y018490D01*
X029963Y018468D01*
X029903Y018450D01*
X029843Y018435D01*
X029781Y018424D01*
X029719Y018417D01*
X029657Y018414D01*
X029594Y018415D01*
X029532Y018420D01*
X029470Y018429D01*
X029409Y018442D01*
X029349Y018458D01*
X029290Y018479D01*
X029232Y018503D01*
X029176Y018531D01*
X029122Y018562D01*
X029070Y018596D01*
X029021Y018634D01*
X028973Y018675D01*
X028929Y018719D01*
X028887Y018765D01*
X028849Y018815D01*
X028813Y018866D01*
X028781Y018920D01*
X028753Y018975D01*
X028727Y019032D01*
X028706Y019091D01*
X028689Y019151D01*
X028675Y019212D01*
X028665Y019273D01*
X028659Y019336D01*
X028657Y019398D01*
X029895Y019036D02*
X030395Y019036D01*
X030086Y021754D02*
X030913Y021754D01*
X030913Y025967D01*
X027369Y025967D01*
X027369Y023880D01*
X025913Y024709D02*
X025716Y024709D01*
X025913Y024709D02*
X025913Y026087D01*
X022369Y026087D01*
X022369Y024709D01*
X022566Y024709D01*
X021003Y024537D02*
X021003Y026034D01*
X021003Y022884D02*
X021003Y021349D01*
X016279Y021349D01*
X016279Y022884D01*
X016279Y024537D02*
X016279Y026034D01*
X013204Y025888D02*
X001078Y025888D01*
X001078Y021045D01*
X013204Y021045D01*
X013204Y025888D01*
X027369Y022030D02*
X027369Y021754D01*
X028196Y021754D01*
X010801Y006878D02*
X010801Y006378D01*
X010891Y002648D02*
X011391Y002648D01*
X011641Y002398D01*
X011891Y002648D01*
X012391Y002648D01*
X012641Y002398D01*
X012891Y002648D01*
X013391Y002648D01*
X013641Y002398D01*
X013891Y002648D01*
X014391Y002648D01*
X014641Y002398D01*
X014641Y001898D01*
X014391Y001648D01*
X013891Y001648D01*
X013641Y001898D01*
X013391Y001648D01*
X012891Y001648D01*
X012641Y001898D01*
X012391Y001648D01*
X011891Y001648D01*
X011641Y001898D01*
X011391Y001648D01*
X010891Y001648D01*
X010641Y001898D01*
X010391Y001648D01*
X009891Y001648D01*
X009641Y001898D01*
X009391Y001648D01*
X008891Y001648D01*
X008641Y001898D01*
X008391Y001648D01*
X007891Y001648D01*
X007641Y001898D01*
X007391Y001648D01*
X006891Y001648D01*
X006641Y001898D01*
X006641Y002398D01*
X006891Y002648D01*
X007391Y002648D01*
X007641Y002398D01*
X007891Y002648D01*
X008391Y002648D01*
X008641Y002398D01*
X008891Y002648D01*
X009391Y002648D01*
X009641Y002398D01*
X009891Y002648D01*
X010391Y002648D01*
X010641Y002398D01*
X010891Y002648D01*
X006141Y003398D02*
X005891Y003148D01*
X005391Y003148D01*
X005141Y003398D01*
X005141Y003898D01*
X005391Y004148D01*
X005141Y004398D01*
X005141Y004898D01*
X005391Y005148D01*
X005141Y005398D01*
X005141Y005898D01*
X005391Y006148D01*
X005141Y006398D01*
X005141Y006898D01*
X005391Y007148D01*
X005141Y007398D01*
X005141Y007898D01*
X005391Y008148D01*
X005141Y008398D01*
X005141Y008898D01*
X005391Y009148D01*
X005141Y009398D01*
X005141Y009898D01*
X005391Y010148D01*
X005141Y010398D01*
X005141Y010898D01*
X005391Y011148D01*
X005891Y011148D01*
X006141Y010898D01*
X006141Y010398D01*
X005891Y010148D01*
X006141Y009898D01*
X006141Y009398D01*
X005891Y009148D01*
X006141Y008898D01*
X006141Y008398D01*
X005891Y008148D01*
X006141Y007898D01*
X006141Y007398D01*
X005891Y007148D01*
X006141Y006898D01*
X006141Y006398D01*
X005891Y006148D01*
X006141Y005898D01*
X006141Y005398D01*
X005891Y005148D01*
X006141Y004898D01*
X006141Y004398D01*
X005891Y004148D01*
X006141Y003898D01*
X006141Y003398D01*
X004341Y003548D02*
X004341Y002743D01*
X003991Y001948D02*
X002291Y001948D01*
X001941Y002755D02*
X001941Y003548D01*
X002291Y004348D02*
X003991Y004348D01*
X002441Y003148D02*
X002443Y003200D01*
X002449Y003252D01*
X002459Y003304D01*
X002472Y003354D01*
X002489Y003404D01*
X002510Y003452D01*
X002535Y003498D01*
X002563Y003542D01*
X002594Y003584D01*
X002628Y003624D01*
X002665Y003661D01*
X002705Y003695D01*
X002747Y003726D01*
X002791Y003754D01*
X002837Y003779D01*
X002885Y003800D01*
X002935Y003817D01*
X002985Y003830D01*
X003037Y003840D01*
X003089Y003846D01*
X003141Y003848D01*
X003193Y003846D01*
X003245Y003840D01*
X003297Y003830D01*
X003347Y003817D01*
X003397Y003800D01*
X003445Y003779D01*
X003491Y003754D01*
X003535Y003726D01*
X003577Y003695D01*
X003617Y003661D01*
X003654Y003624D01*
X003688Y003584D01*
X003719Y003542D01*
X003747Y003498D01*
X003772Y003452D01*
X003793Y003404D01*
X003810Y003354D01*
X003823Y003304D01*
X003833Y003252D01*
X003839Y003200D01*
X003841Y003148D01*
X003839Y003096D01*
X003833Y003044D01*
X003823Y002992D01*
X003810Y002942D01*
X003793Y002892D01*
X003772Y002844D01*
X003747Y002798D01*
X003719Y002754D01*
X003688Y002712D01*
X003654Y002672D01*
X003617Y002635D01*
X003577Y002601D01*
X003535Y002570D01*
X003491Y002542D01*
X003445Y002517D01*
X003397Y002496D01*
X003347Y002479D01*
X003297Y002466D01*
X003245Y002456D01*
X003193Y002450D01*
X003141Y002448D01*
X003089Y002450D01*
X003037Y002456D01*
X002985Y002466D01*
X002935Y002479D01*
X002885Y002496D01*
X002837Y002517D01*
X002791Y002542D01*
X002747Y002570D01*
X002705Y002601D01*
X002665Y002635D01*
X002628Y002672D01*
X002594Y002712D01*
X002563Y002754D01*
X002535Y002798D01*
X002510Y002844D01*
X002489Y002892D01*
X002472Y002942D01*
X002459Y002992D01*
X002449Y003044D01*
X002443Y003096D01*
X002441Y003148D01*
X002535Y006953D02*
X001747Y006953D01*
X001747Y007504D01*
X001866Y007780D02*
X002141Y007780D01*
X001905Y008016D01*
X002377Y008016D01*
X002141Y007780D01*
X002417Y007780D01*
X002535Y007504D02*
X002535Y006953D01*
X002747Y006953D02*
X002747Y007504D01*
X002866Y007780D02*
X003141Y007780D01*
X002905Y008016D01*
X003377Y008016D01*
X003141Y007780D01*
X003417Y007780D01*
X003535Y007504D02*
X003535Y006953D01*
X002747Y006953D01*
X002747Y008291D02*
X002747Y008843D01*
X003535Y008843D01*
X003535Y008291D01*
X002535Y008291D02*
X002535Y008843D01*
X001747Y008843D01*
X001747Y008291D01*
X001891Y010648D02*
X001641Y010898D01*
X001641Y011398D01*
X001891Y011648D01*
X001641Y011898D01*
X001641Y012398D01*
X001891Y012648D01*
X002391Y012648D01*
X002641Y012398D01*
X002891Y012648D01*
X003391Y012648D01*
X003641Y012398D01*
X003641Y011898D01*
X003391Y011648D01*
X003641Y011398D01*
X003641Y010898D01*
X003391Y010648D01*
X002891Y010648D01*
X002641Y010898D01*
X002641Y011398D01*
X002891Y011648D01*
X002641Y011898D01*
X002641Y012398D01*
X002641Y011898D01*
X002391Y011648D01*
X002641Y011398D01*
X002641Y010898D01*
X002391Y010648D01*
X001891Y010648D01*
X016391Y002398D02*
X016391Y001898D01*
X016641Y001648D01*
X017141Y001648D01*
X017391Y001898D01*
X017641Y001648D01*
X018141Y001648D01*
X018391Y001898D01*
X018641Y001648D01*
X019141Y001648D01*
X019391Y001898D01*
X019641Y001648D01*
X020141Y001648D01*
X020391Y001898D01*
X020391Y002398D01*
X020141Y002648D01*
X019641Y002648D01*
X019391Y002398D01*
X019141Y002648D01*
X018641Y002648D01*
X018391Y002398D01*
X018141Y002648D01*
X017641Y002648D01*
X017391Y002398D01*
X017141Y002648D01*
X016641Y002648D01*
X016391Y002398D01*
X027657Y005148D02*
X027659Y005210D01*
X027665Y005273D01*
X027675Y005334D01*
X027689Y005395D01*
X027706Y005455D01*
X027727Y005514D01*
X027753Y005571D01*
X027781Y005626D01*
X027813Y005680D01*
X027849Y005731D01*
X027887Y005781D01*
X027929Y005827D01*
X027973Y005871D01*
X028021Y005912D01*
X028070Y005950D01*
X028122Y005984D01*
X028176Y006015D01*
X028232Y006043D01*
X028290Y006067D01*
X028349Y006088D01*
X028409Y006104D01*
X028470Y006117D01*
X028532Y006126D01*
X028594Y006131D01*
X028657Y006132D01*
X028719Y006129D01*
X028781Y006122D01*
X028843Y006111D01*
X028903Y006096D01*
X028963Y006078D01*
X029021Y006056D01*
X029078Y006030D01*
X029133Y006000D01*
X029186Y005967D01*
X029237Y005931D01*
X029285Y005892D01*
X029331Y005849D01*
X029374Y005804D01*
X029414Y005756D01*
X029451Y005706D01*
X029485Y005653D01*
X029516Y005599D01*
X029542Y005543D01*
X029566Y005485D01*
X029585Y005425D01*
X029601Y005365D01*
X029613Y005303D01*
X029621Y005242D01*
X029625Y005179D01*
X029625Y005117D01*
X029621Y005054D01*
X029613Y004993D01*
X029601Y004931D01*
X029585Y004871D01*
X029566Y004811D01*
X029542Y004753D01*
X029516Y004697D01*
X029485Y004643D01*
X029451Y004590D01*
X029414Y004540D01*
X029374Y004492D01*
X029331Y004447D01*
X029285Y004404D01*
X029237Y004365D01*
X029186Y004329D01*
X029133Y004296D01*
X029078Y004266D01*
X029021Y004240D01*
X028963Y004218D01*
X028903Y004200D01*
X028843Y004185D01*
X028781Y004174D01*
X028719Y004167D01*
X028657Y004164D01*
X028594Y004165D01*
X028532Y004170D01*
X028470Y004179D01*
X028409Y004192D01*
X028349Y004208D01*
X028290Y004229D01*
X028232Y004253D01*
X028176Y004281D01*
X028122Y004312D01*
X028070Y004346D01*
X028021Y004384D01*
X027973Y004425D01*
X027929Y004469D01*
X027887Y004515D01*
X027849Y004565D01*
X027813Y004616D01*
X027781Y004670D01*
X027753Y004725D01*
X027727Y004782D01*
X027706Y004841D01*
X027689Y004901D01*
X027675Y004962D01*
X027665Y005023D01*
X027659Y005086D01*
X027657Y005148D01*
X028895Y004786D02*
X029395Y004786D01*
D15*
X021751Y018551D03*
D16*
X017311Y017136D02*
X017211Y017136D01*
X017211Y017287D01*
X017164Y017287D02*
X017064Y017287D01*
X017064Y017136D01*
X017164Y017136D01*
X017114Y017211D02*
X017064Y017211D01*
X017017Y017186D02*
X017017Y017161D01*
X016992Y017136D01*
X016942Y017136D01*
X016917Y017161D01*
X016942Y017211D02*
X016992Y017211D01*
X017017Y017186D01*
X017017Y017261D02*
X016992Y017287D01*
X016942Y017287D01*
X016917Y017261D01*
X016917Y017236D01*
X016942Y017211D01*
X016869Y017111D02*
X016769Y017111D01*
X016722Y017136D02*
X016672Y017186D01*
X016697Y017186D02*
X016622Y017186D01*
X016622Y017136D02*
X016622Y017287D01*
X016697Y017287D01*
X016722Y017261D01*
X016722Y017211D01*
X016697Y017186D01*
X016575Y017136D02*
X016475Y017136D01*
X016475Y017287D01*
X016575Y017287D01*
X016525Y017211D02*
X016475Y017211D01*
X016428Y017186D02*
X016428Y017161D01*
X016402Y017136D01*
X016352Y017136D01*
X016327Y017161D01*
X016352Y017211D02*
X016402Y017211D01*
X016428Y017186D01*
X016428Y017261D02*
X016402Y017287D01*
X016352Y017287D01*
X016327Y017261D01*
X016327Y017236D01*
X016352Y017211D01*
X015766Y012847D02*
X015766Y012747D01*
X015666Y012847D01*
X015641Y012847D01*
X015616Y012822D01*
X015616Y012772D01*
X015641Y012747D01*
X015616Y012650D02*
X015766Y012650D01*
X015766Y012600D02*
X015766Y012700D01*
X015666Y012600D02*
X015616Y012650D01*
X015641Y012553D02*
X015616Y012528D01*
X015616Y012478D01*
X015641Y012453D01*
X015741Y012453D01*
X015766Y012478D01*
X015766Y012528D01*
X015741Y012553D01*
X014296Y011702D02*
X014146Y011702D01*
X014221Y011627D01*
X014221Y011727D01*
X014296Y011580D02*
X014296Y011480D01*
X014296Y011530D02*
X014146Y011530D01*
X014196Y011480D01*
X014171Y011433D02*
X014146Y011408D01*
X014146Y011358D01*
X014171Y011333D01*
X014271Y011333D01*
X014296Y011358D01*
X014296Y011408D01*
X014271Y011433D01*
X010876Y007283D02*
X010901Y007258D01*
X010901Y007233D01*
X010876Y007208D01*
X010901Y007183D01*
X010901Y007158D01*
X010876Y007133D01*
X010826Y007133D01*
X010801Y007158D01*
X010754Y007133D02*
X010653Y007133D01*
X010703Y007133D02*
X010703Y007283D01*
X010653Y007233D01*
X010606Y007258D02*
X010581Y007283D01*
X010531Y007283D01*
X010506Y007258D01*
X010506Y007158D01*
X010531Y007133D01*
X010581Y007133D01*
X010606Y007158D01*
X010801Y007258D02*
X010826Y007283D01*
X010876Y007283D01*
X010876Y007208D02*
X010851Y007208D01*
X004338Y008703D02*
X004238Y008703D01*
X004338Y008803D01*
X004338Y008828D01*
X004313Y008853D01*
X004263Y008853D01*
X004238Y008828D01*
X004191Y008828D02*
X004166Y008853D01*
X004091Y008853D01*
X004091Y008703D01*
X004166Y008703D01*
X004191Y008728D01*
X004191Y008828D01*
X004044Y008853D02*
X003943Y008853D01*
X003943Y008703D01*
X004044Y008703D01*
X003993Y008778D02*
X003943Y008778D01*
X003896Y008703D02*
X003796Y008703D01*
X003796Y008853D01*
X002836Y009303D02*
X002686Y009303D01*
X002686Y009378D01*
X002711Y009403D01*
X002761Y009403D01*
X002786Y009378D01*
X002786Y009303D01*
X002786Y009353D02*
X002836Y009403D01*
X002836Y009450D02*
X002811Y009450D01*
X002711Y009550D01*
X002686Y009550D01*
X002686Y009450D01*
X001836Y009475D02*
X001836Y009525D01*
X001811Y009550D01*
X001786Y009550D01*
X001761Y009525D01*
X001761Y009450D01*
X001811Y009450D01*
X001836Y009475D01*
X001836Y009403D02*
X001786Y009353D01*
X001786Y009378D02*
X001786Y009303D01*
X001836Y009303D02*
X001686Y009303D01*
X001686Y009378D01*
X001711Y009403D01*
X001761Y009403D01*
X001786Y009378D01*
X001761Y009450D02*
X001711Y009500D01*
X001686Y009550D01*
X001538Y008853D02*
X001538Y008703D01*
X001488Y008703D02*
X001588Y008703D01*
X001488Y008803D02*
X001538Y008853D01*
X001441Y008828D02*
X001416Y008853D01*
X001341Y008853D01*
X001341Y008703D01*
X001416Y008703D01*
X001441Y008728D01*
X001441Y008828D01*
X001294Y008853D02*
X001193Y008853D01*
X001193Y008703D01*
X001294Y008703D01*
X001243Y008778D02*
X001193Y008778D01*
X001146Y008703D02*
X001046Y008703D01*
X001046Y008853D01*
X020146Y022858D02*
X020296Y022958D01*
X020296Y023005D02*
X020296Y023105D01*
X020296Y023055D02*
X020146Y023055D01*
X020196Y023005D01*
X020146Y022958D02*
X020296Y022858D01*
X026796Y021603D02*
X026871Y021603D01*
X026896Y021578D01*
X026896Y021528D01*
X026871Y021503D01*
X026796Y021503D01*
X026846Y021503D02*
X026896Y021453D01*
X026943Y021478D02*
X026943Y021503D01*
X026968Y021528D01*
X027018Y021528D01*
X027044Y021503D01*
X027044Y021478D01*
X027018Y021453D01*
X026968Y021453D01*
X026943Y021478D01*
X026968Y021528D02*
X026943Y021553D01*
X026943Y021578D01*
X026968Y021603D01*
X027018Y021603D01*
X027044Y021578D01*
X027044Y021553D01*
X027018Y021528D01*
X026796Y021453D02*
X026796Y021603D01*
X026961Y019845D02*
X026986Y019845D01*
X027011Y019820D01*
X027036Y019845D01*
X027061Y019845D01*
X027086Y019820D01*
X027086Y019770D01*
X027061Y019745D01*
X027061Y019697D02*
X026961Y019697D01*
X026936Y019672D01*
X026936Y019597D01*
X027086Y019597D01*
X027086Y019672D01*
X027061Y019697D01*
X027011Y019795D02*
X027011Y019820D01*
X026961Y019845D02*
X026936Y019820D01*
X026936Y019770D01*
X026961Y019745D01*
X026936Y019550D02*
X026936Y019450D01*
X027086Y019450D01*
X027086Y019550D01*
X027011Y019500D02*
X027011Y019450D01*
X027086Y019403D02*
X027086Y019303D01*
X026936Y019303D01*
X026361Y016673D02*
X026361Y016573D01*
X026261Y016673D01*
X026236Y016673D01*
X026211Y016648D01*
X026211Y016598D01*
X026236Y016573D01*
X026236Y016526D02*
X026211Y016501D01*
X026211Y016451D01*
X026236Y016426D01*
X026336Y016426D01*
X026361Y016451D01*
X026361Y016501D01*
X026336Y016526D01*
X026361Y016378D02*
X026361Y016328D01*
X026361Y016353D02*
X026211Y016353D01*
X026211Y016328D02*
X026211Y016378D01*
X029701Y018668D02*
X029726Y018643D01*
X029776Y018643D01*
X029802Y018668D01*
X029849Y018643D02*
X029949Y018643D01*
X029899Y018643D02*
X029899Y018793D01*
X029849Y018743D01*
X029802Y018768D02*
X029776Y018793D01*
X029726Y018793D01*
X029701Y018768D01*
X029701Y018668D01*
X030036Y016900D02*
X030036Y016800D01*
X030111Y016800D01*
X030086Y016850D01*
X030086Y016875D01*
X030111Y016900D01*
X030161Y016900D01*
X030186Y016875D01*
X030186Y016825D01*
X030161Y016800D01*
X030186Y016753D02*
X030136Y016703D01*
X030136Y016728D02*
X030136Y016653D01*
X030186Y016653D02*
X030036Y016653D01*
X030036Y016728D01*
X030061Y016753D01*
X030111Y016753D01*
X030136Y016728D01*
X030111Y014900D02*
X030111Y014800D01*
X030036Y014875D01*
X030186Y014875D01*
X030186Y014753D02*
X030136Y014703D01*
X030136Y014728D02*
X030136Y014653D01*
X030186Y014653D02*
X030036Y014653D01*
X030036Y014728D01*
X030061Y014753D01*
X030111Y014753D01*
X030136Y014728D01*
X028924Y013043D02*
X028874Y013043D01*
X028849Y013018D01*
X028802Y013018D02*
X028776Y013043D01*
X028726Y013043D01*
X028701Y013018D01*
X028701Y012918D01*
X028726Y012893D01*
X028776Y012893D01*
X028802Y012918D01*
X028849Y012893D02*
X028949Y012993D01*
X028949Y013018D01*
X028924Y013043D01*
X028949Y012893D02*
X028849Y012893D01*
X028874Y010543D02*
X028924Y010543D01*
X028949Y010518D01*
X028949Y010493D01*
X028924Y010468D01*
X028949Y010443D01*
X028949Y010418D01*
X028924Y010393D01*
X028874Y010393D01*
X028849Y010418D01*
X028802Y010418D02*
X028776Y010393D01*
X028726Y010393D01*
X028701Y010418D01*
X028701Y010518D01*
X028726Y010543D01*
X028776Y010543D01*
X028802Y010518D01*
X028849Y010518D02*
X028874Y010543D01*
X028899Y010468D02*
X028924Y010468D01*
X030061Y008400D02*
X030086Y008400D01*
X030111Y008375D01*
X030136Y008400D01*
X030161Y008400D01*
X030186Y008375D01*
X030186Y008325D01*
X030161Y008300D01*
X030186Y008253D02*
X030136Y008203D01*
X030136Y008228D02*
X030136Y008153D01*
X030186Y008153D02*
X030036Y008153D01*
X030036Y008228D01*
X030061Y008253D01*
X030111Y008253D01*
X030136Y008228D01*
X030061Y008300D02*
X030036Y008325D01*
X030036Y008375D01*
X030061Y008400D01*
X030111Y008375D02*
X030111Y008350D01*
X030186Y006400D02*
X030186Y006300D01*
X030186Y006253D02*
X030136Y006203D01*
X030136Y006228D02*
X030136Y006153D01*
X030186Y006153D02*
X030036Y006153D01*
X030036Y006228D01*
X030061Y006253D01*
X030111Y006253D01*
X030136Y006228D01*
X030086Y006300D02*
X030036Y006350D01*
X030186Y006350D01*
X028924Y004543D02*
X028849Y004468D01*
X028949Y004468D01*
X028924Y004393D02*
X028924Y004543D01*
X028802Y004518D02*
X028776Y004543D01*
X028726Y004543D01*
X028701Y004518D01*
X028701Y004418D01*
X028726Y004393D01*
X028776Y004393D01*
X028802Y004418D01*
X026361Y007828D02*
X026361Y007878D01*
X026361Y007853D02*
X026211Y007853D01*
X026211Y007828D02*
X026211Y007878D01*
X026236Y007926D02*
X026336Y007926D01*
X026361Y007951D01*
X026361Y008001D01*
X026336Y008026D01*
X026286Y008073D02*
X026286Y008173D01*
X026211Y008148D02*
X026286Y008073D01*
X026236Y008026D02*
X026211Y008001D01*
X026211Y007951D01*
X026236Y007926D01*
X026211Y008148D02*
X026361Y008148D01*
X024011Y004400D02*
X024011Y004300D01*
X023911Y004400D01*
X023886Y004400D01*
X023861Y004375D01*
X023861Y004325D01*
X023886Y004300D01*
X023886Y004253D02*
X023936Y004253D01*
X023961Y004228D01*
X023961Y004153D01*
X023961Y004203D02*
X024011Y004253D01*
X024011Y004153D02*
X023861Y004153D01*
X023861Y004228D01*
X023886Y004253D01*
X021241Y012453D02*
X021266Y012478D01*
X021266Y012528D01*
X021241Y012553D01*
X021266Y012600D02*
X021266Y012700D01*
X021266Y012747D02*
X021266Y012847D01*
X021266Y012797D02*
X021116Y012797D01*
X021166Y012747D01*
X021116Y012650D02*
X021266Y012650D01*
X021166Y012600D02*
X021116Y012650D01*
X021141Y012553D02*
X021116Y012528D01*
X021116Y012478D01*
X021141Y012453D01*
X021241Y012453D01*
X030376Y024993D02*
X030401Y024993D01*
X030426Y025018D01*
X030426Y025143D01*
X030401Y025143D02*
X030452Y025143D01*
X030499Y025118D02*
X030524Y025143D01*
X030574Y025143D01*
X030599Y025118D01*
X030599Y025093D01*
X030574Y025068D01*
X030599Y025043D01*
X030599Y025018D01*
X030574Y024993D01*
X030524Y024993D01*
X030499Y025018D01*
X030549Y025068D02*
X030574Y025068D01*
X030376Y024993D02*
X030351Y025018D01*
D17*
X007079Y023306D02*
X007055Y023329D01*
X007009Y023329D01*
X006985Y023306D01*
X006931Y023329D02*
X006838Y023189D01*
X006931Y023189D02*
X006838Y023329D01*
X006985Y023189D02*
X007079Y023283D01*
X007079Y023306D01*
X007079Y023189D02*
X006985Y023189D01*
X004311Y018698D02*
X004311Y013598D01*
D18*
X002441Y014548D02*
X002141Y014548D01*
X001841Y014548D01*
X001841Y014748D02*
X002141Y014748D01*
X002441Y014748D01*
D19*
X022476Y026538D02*
X022581Y026433D01*
X022686Y026433D01*
X022791Y026538D01*
X022791Y026748D01*
X022896Y026853D01*
X023001Y026853D01*
X023106Y026748D01*
X023106Y026538D01*
X023001Y026433D01*
X022476Y026538D02*
X022476Y026748D01*
X022581Y026853D01*
X022686Y027077D02*
X022476Y027287D01*
X023106Y027287D01*
X023106Y027077D02*
X023106Y027498D01*
D20*
X007136Y018398D03*
X007136Y017898D03*
X007136Y017398D03*
X007136Y016898D03*
X007136Y016398D03*
X007136Y015898D03*
X007136Y015398D03*
X007136Y014898D03*
X007136Y014398D03*
X007136Y013898D03*
X004146Y013898D03*
X004146Y014398D03*
X004146Y014898D03*
X004146Y015398D03*
X004146Y015898D03*
X004146Y016398D03*
X004146Y016898D03*
X004146Y017398D03*
X004146Y017898D03*
X004146Y018398D03*
D21*
X003141Y009648D03*
X002141Y009648D03*
D22*
X027141Y021148D03*
M02*
