G75*
G70*
%OFA0B0*%
%FSLAX24Y24*%
%IPPOS*%
%LPD*%
%AMOC8*
5,1,8,0,0,1.08239X$1,22.5*
%
%ADD10C,0.0740*%
%ADD11C,0.1380*%
%ADD12R,0.0820X0.0820*%
%ADD13C,0.0820*%
%ADD14C,0.2080*%
%ADD15OC8,0.0710*%
%ADD16C,0.1660*%
%ADD17C,0.0434*%
%ADD18C,0.0877*%
%ADD19C,0.0694*%
%ADD20OC8,0.0720*%
%ADD21C,0.0720*%
%ADD22R,0.0800X0.0800*%
%ADD23C,0.0800*%
%ADD24C,0.0640*%
%ADD25C,0.0730*%
%ADD26R,0.0730X0.0730*%
D10*
X018149Y021868D03*
X018149Y022648D03*
X019133Y022648D03*
X019133Y021868D03*
D11*
X021011Y023718D03*
X016271Y023718D03*
D12*
X004960Y021589D03*
X016891Y002148D03*
D13*
X017891Y002148D03*
X018891Y002148D03*
X019891Y002148D03*
X024281Y009188D03*
X024281Y010188D03*
X025441Y010158D03*
X025441Y009158D03*
X019901Y010148D03*
X018901Y010148D03*
X009322Y021589D03*
X008232Y021589D03*
X007141Y021589D03*
X006051Y021589D03*
X005507Y022707D03*
X006598Y022707D03*
X007684Y022707D03*
X008775Y022707D03*
X003141Y012148D03*
X002141Y012148D03*
X002141Y011148D03*
X003141Y011148D03*
D14*
X002220Y022148D03*
X012062Y022148D03*
D15*
X002141Y015148D03*
X002141Y014148D03*
D16*
X027291Y022935D03*
X029141Y021754D03*
X029141Y024116D03*
D17*
X025539Y025398D03*
X022743Y025398D03*
D18*
X018141Y018984D03*
X018141Y016898D03*
X013023Y016898D03*
X013023Y018984D03*
D19*
X013614Y017941D03*
X014401Y017941D03*
X015188Y017941D03*
X015976Y017941D03*
X016763Y017941D03*
X017551Y017941D03*
D20*
X024141Y002648D03*
X025141Y002648D03*
X026141Y002648D03*
X027141Y002648D03*
X028141Y002648D03*
X029141Y002648D03*
X030141Y002648D03*
X030141Y001648D03*
X029141Y001648D03*
X028141Y001648D03*
X027141Y001648D03*
X026141Y001648D03*
X025141Y001648D03*
X024141Y001648D03*
D21*
X001861Y002258D03*
X001861Y004038D03*
X004421Y004038D03*
X004421Y002258D03*
D22*
X007141Y002148D03*
X005641Y010648D03*
X021141Y010648D03*
D23*
X021141Y009648D03*
X021141Y008648D03*
X021141Y007648D03*
X021141Y006648D03*
X021141Y005648D03*
X021141Y004648D03*
X021141Y003648D03*
X014141Y002148D03*
X013141Y002148D03*
X012141Y002148D03*
X011141Y002148D03*
X010141Y002148D03*
X009141Y002148D03*
X008141Y002148D03*
X005641Y003648D03*
X005641Y004648D03*
X005641Y005648D03*
X005641Y006648D03*
X005641Y007648D03*
X005641Y008648D03*
X005641Y009648D03*
D24*
X018021Y012748D03*
X020021Y012748D03*
D25*
X021771Y013248D03*
X021771Y012248D03*
X016271Y012248D03*
X016271Y013248D03*
X014801Y012128D03*
X014801Y011128D03*
X011301Y006628D03*
X010301Y006628D03*
X029141Y005148D03*
X029141Y011148D03*
X029141Y013648D03*
X030141Y019398D03*
D26*
X029141Y019398D03*
X028141Y013648D03*
X028141Y011148D03*
X028141Y005148D03*
M02*
