G75*
G70*
%OFA0B0*%
%FSLAX24Y24*%
%IPPOS*%
%LPD*%
%AMOC8*
5,1,8,0,0,1.08239X$1,22.5*
%
%ADD10C,0.0080*%
D10*
X000431Y001175D02*
X000931Y001175D01*
X001181Y001425D01*
X001431Y001175D01*
X001931Y001175D01*
X002181Y001425D01*
X002431Y001175D01*
X002931Y001175D01*
X003181Y001425D01*
X003431Y001175D01*
X003931Y001175D01*
X004181Y001425D01*
X004431Y001175D01*
X004931Y001175D01*
X005181Y001425D01*
X005431Y001175D01*
X005931Y001175D01*
X006181Y001425D01*
X006431Y001175D01*
X006931Y001175D01*
X007181Y001425D01*
X007431Y001175D01*
X007931Y001175D01*
X008181Y001425D01*
X008181Y001925D01*
X007931Y002175D01*
X007431Y002175D01*
X007181Y001925D01*
X006931Y002175D01*
X006431Y002175D01*
X006181Y001925D01*
X005931Y002175D01*
X005431Y002175D01*
X005181Y001925D01*
X004931Y002175D01*
X004431Y002175D01*
X004181Y001925D01*
X003931Y002175D01*
X003431Y002175D01*
X003181Y001925D01*
X002931Y002175D01*
X002431Y002175D01*
X002181Y001925D01*
X001931Y002175D01*
X001431Y002175D01*
X001181Y001925D01*
X000931Y002175D01*
X000431Y002175D01*
X000181Y001925D01*
X000181Y001425D01*
X000431Y001175D01*
M02*
