G75*
G70*
%OFA0B0*%
%FSLAX24Y24*%
%IPPOS*%
%LPD*%
%AMOC8*
5,1,8,0,0,1.08239X$1,22.5*
%
%ADD10R,0.0720X0.0720*%
%ADD11C,0.0720*%
%ADD12R,0.0394X0.1811*%
%ADD13R,0.0630X0.1339*%
%ADD14C,0.0200*%
%ADD15R,0.0436X0.0436*%
%ADD16C,0.0320*%
D10*
X007702Y001772D03*
D11*
X000702Y001772D03*
X001702Y001772D03*
X002702Y001772D03*
X003702Y001772D03*
X004702Y001772D03*
X005702Y001772D03*
X006702Y001772D03*
D12*
X002815Y005655D03*
X002028Y005655D03*
D13*
X001083Y007702D03*
X003760Y007702D03*
D14*
X003265Y007746D02*
X003162Y007746D01*
X003162Y007761D02*
X003220Y007819D01*
X003220Y008404D01*
X003114Y008510D01*
X002529Y008510D01*
X002423Y008404D01*
X002423Y007819D01*
X002482Y007761D01*
X002482Y006678D01*
X002438Y006635D01*
X002438Y004675D01*
X002544Y004569D01*
X003087Y004569D01*
X003192Y004675D01*
X003192Y006635D01*
X003162Y006665D01*
X003162Y007761D01*
X003220Y007945D02*
X003265Y007945D01*
X003265Y008143D02*
X003220Y008143D01*
X003220Y008342D02*
X003265Y008342D01*
X003265Y008446D02*
X003265Y006958D01*
X003371Y006853D01*
X004150Y006853D01*
X004255Y006958D01*
X004255Y008446D01*
X004150Y008551D01*
X003371Y008551D01*
X003265Y008446D01*
X003360Y008540D02*
X001483Y008540D01*
X001472Y008551D02*
X001578Y008446D01*
X001578Y006958D01*
X001472Y006853D01*
X000693Y006853D01*
X000588Y006958D01*
X000588Y008446D01*
X000693Y008551D01*
X001472Y008551D01*
X001578Y008342D02*
X002423Y008342D01*
X002423Y008143D02*
X001578Y008143D01*
X001578Y007945D02*
X002423Y007945D01*
X002482Y007746D02*
X001578Y007746D01*
X001578Y007548D02*
X002482Y007548D01*
X002482Y007349D02*
X001578Y007349D01*
X001578Y007151D02*
X002482Y007151D01*
X002482Y006952D02*
X001572Y006952D01*
X001748Y006760D02*
X001631Y006643D01*
X001631Y005655D01*
X002027Y005655D01*
X002027Y005655D01*
X001631Y005655D01*
X001631Y004666D01*
X001748Y004549D01*
X002028Y004549D01*
X002308Y004549D01*
X002425Y004666D01*
X002425Y005655D01*
X002425Y006643D01*
X002308Y006760D01*
X002028Y006760D01*
X002028Y005655D01*
X002028Y005655D01*
X002425Y005655D01*
X002028Y005655D01*
X002028Y005655D01*
X002028Y006760D01*
X001748Y006760D01*
X001741Y006754D02*
X000402Y006754D01*
X000402Y006555D02*
X001631Y006555D01*
X001631Y006356D02*
X000402Y006356D01*
X000402Y006158D02*
X001631Y006158D01*
X001631Y005959D02*
X000402Y005959D01*
X000402Y005761D02*
X001631Y005761D01*
X001631Y005562D02*
X000402Y005562D01*
X000402Y005364D02*
X001631Y005364D01*
X001631Y005165D02*
X000402Y005165D01*
X000402Y004967D02*
X001631Y004967D01*
X001631Y004768D02*
X000402Y004768D01*
X000402Y004570D02*
X001728Y004570D01*
X002028Y004570D02*
X002028Y004570D01*
X002028Y004549D02*
X002028Y005654D01*
X002028Y005654D01*
X002028Y004549D01*
X002028Y004768D02*
X002028Y004768D01*
X002028Y004967D02*
X002028Y004967D01*
X002028Y005165D02*
X002028Y005165D01*
X002028Y005364D02*
X002028Y005364D01*
X002028Y005562D02*
X002028Y005562D01*
X002028Y005761D02*
X002028Y005761D01*
X002028Y005959D02*
X002028Y005959D01*
X002028Y006158D02*
X002028Y006158D01*
X002028Y006356D02*
X002028Y006356D01*
X002028Y006555D02*
X002028Y006555D01*
X002028Y006754D02*
X002028Y006754D01*
X002314Y006754D02*
X002482Y006754D01*
X002438Y006555D02*
X002425Y006555D01*
X002425Y006356D02*
X002438Y006356D01*
X002425Y006158D02*
X002438Y006158D01*
X002425Y005959D02*
X002438Y005959D01*
X002425Y005761D02*
X002438Y005761D01*
X002425Y005562D02*
X002438Y005562D01*
X002425Y005364D02*
X002438Y005364D01*
X002425Y005165D02*
X002438Y005165D01*
X002425Y004967D02*
X002438Y004967D01*
X002425Y004768D02*
X002438Y004768D01*
X002544Y004570D02*
X002328Y004570D01*
X003087Y004570D02*
X008002Y004570D01*
X008002Y004768D02*
X003192Y004768D01*
X003192Y004967D02*
X008002Y004967D01*
X008002Y005165D02*
X003192Y005165D01*
X003192Y005364D02*
X008002Y005364D01*
X008002Y005562D02*
X003192Y005562D01*
X003192Y005761D02*
X008002Y005761D01*
X008002Y005959D02*
X003192Y005959D01*
X003192Y006158D02*
X008002Y006158D01*
X008002Y006356D02*
X003192Y006356D01*
X003192Y006555D02*
X008002Y006555D01*
X008002Y006754D02*
X003162Y006754D01*
X003162Y006952D02*
X003271Y006952D01*
X003265Y007151D02*
X003162Y007151D01*
X003162Y007349D02*
X003265Y007349D01*
X003265Y007548D02*
X003162Y007548D01*
X004161Y008540D02*
X008002Y008540D01*
X008002Y008739D02*
X000402Y008739D01*
X000402Y008937D02*
X008002Y008937D01*
X008002Y008982D02*
X000402Y008982D01*
X000402Y002232D01*
X000594Y002312D01*
X000809Y002312D01*
X001007Y002229D01*
X001159Y002077D01*
X001202Y001975D01*
X001244Y002077D01*
X001396Y002229D01*
X001594Y002312D01*
X001809Y002312D01*
X002007Y002229D01*
X002159Y002077D01*
X002202Y001975D01*
X002244Y002077D01*
X002396Y002229D01*
X002594Y002312D01*
X002809Y002312D01*
X003007Y002229D01*
X003159Y002077D01*
X003202Y001975D01*
X003244Y002077D01*
X003396Y002229D01*
X003594Y002312D01*
X003809Y002312D01*
X004007Y002229D01*
X004159Y002077D01*
X004202Y001975D01*
X004244Y002077D01*
X004396Y002229D01*
X004594Y002312D01*
X004809Y002312D01*
X005007Y002229D01*
X005159Y002077D01*
X005202Y001975D01*
X005244Y002077D01*
X005396Y002229D01*
X005594Y002312D01*
X005809Y002312D01*
X006007Y002229D01*
X006159Y002077D01*
X006202Y001975D01*
X006244Y002077D01*
X006396Y002229D01*
X006594Y002312D01*
X006809Y002312D01*
X007007Y002229D01*
X007159Y002077D01*
X007162Y002072D01*
X007162Y002206D01*
X007267Y002312D01*
X008002Y002312D01*
X008002Y008982D01*
X008002Y008342D02*
X004255Y008342D01*
X004255Y008143D02*
X008002Y008143D01*
X008002Y007945D02*
X004255Y007945D01*
X004255Y007746D02*
X008002Y007746D01*
X008002Y007548D02*
X004255Y007548D01*
X004255Y007349D02*
X008002Y007349D01*
X008002Y007151D02*
X004255Y007151D01*
X004249Y006952D02*
X008002Y006952D01*
X008002Y004371D02*
X000402Y004371D01*
X000402Y004172D02*
X008002Y004172D01*
X008002Y003974D02*
X000402Y003974D01*
X000402Y003775D02*
X008002Y003775D01*
X008002Y003577D02*
X000402Y003577D01*
X000402Y003378D02*
X008002Y003378D01*
X008002Y003180D02*
X000402Y003180D01*
X000402Y002981D02*
X008002Y002981D01*
X008002Y002783D02*
X000402Y002783D01*
X000402Y002584D02*
X008002Y002584D01*
X008002Y002386D02*
X000402Y002386D01*
X001050Y002187D02*
X001353Y002187D01*
X001207Y001988D02*
X001196Y001988D01*
X002050Y002187D02*
X002353Y002187D01*
X002207Y001988D02*
X002196Y001988D01*
X003050Y002187D02*
X003353Y002187D01*
X003207Y001988D02*
X003196Y001988D01*
X004050Y002187D02*
X004353Y002187D01*
X004207Y001988D02*
X004196Y001988D01*
X005050Y002187D02*
X005353Y002187D01*
X005207Y001988D02*
X005196Y001988D01*
X006050Y002187D02*
X006353Y002187D01*
X006207Y001988D02*
X006196Y001988D01*
X007050Y002187D02*
X007162Y002187D01*
X000682Y008540D02*
X000402Y008540D01*
X000402Y008342D02*
X000588Y008342D01*
X000588Y008143D02*
X000402Y008143D01*
X000402Y007945D02*
X000588Y007945D01*
X000588Y007746D02*
X000402Y007746D01*
X000402Y007548D02*
X000588Y007548D01*
X000588Y007349D02*
X000402Y007349D01*
X000402Y007151D02*
X000588Y007151D01*
X000594Y006952D02*
X000402Y006952D01*
D15*
X002822Y008112D03*
X003482Y004062D03*
X005482Y004062D03*
X007322Y004062D03*
X001402Y004062D03*
D16*
X002815Y005655D02*
X002822Y006421D01*
X002822Y008112D01*
M02*
