G75*
G70*
%OFA0B0*%
%FSLAX24Y24*%
%IPPOS*%
%LPD*%
%AMOC8*
5,1,8,0,0,1.08239X$1,22.5*
%
%ADD10C,0.0000*%
%ADD11R,0.0551X0.0472*%
%ADD12R,0.0472X0.0315*%
%ADD13R,0.0720X0.0720*%
%ADD14C,0.0720*%
%ADD15C,0.0160*%
%ADD16C,0.0080*%
%ADD17C,0.0400*%
D10*
X000181Y000190D02*
X000181Y005675D01*
X008181Y005675D01*
X008181Y000190D01*
X000181Y000190D01*
D11*
X000681Y004085D03*
X001681Y004085D03*
X002681Y004085D03*
X003681Y004085D03*
X004681Y004085D03*
X005681Y004085D03*
X006681Y004085D03*
X007681Y004085D03*
X007681Y005266D03*
X006681Y005266D03*
X005681Y005266D03*
X004681Y005266D03*
X003681Y005266D03*
X002681Y005266D03*
X001681Y005266D03*
X000681Y005266D03*
D12*
X000681Y003280D03*
X000681Y002571D03*
X001681Y002571D03*
X001681Y003280D03*
X002681Y003280D03*
X002681Y002571D03*
X003681Y002571D03*
X004681Y002571D03*
X004681Y003280D03*
X003681Y003280D03*
X005681Y003280D03*
X005681Y002571D03*
X006681Y002571D03*
X006681Y003280D03*
X007681Y003280D03*
X007681Y002571D03*
D13*
X007681Y001675D03*
D14*
X006681Y001675D03*
X005681Y001675D03*
X004681Y001675D03*
X003681Y001675D03*
X002681Y001675D03*
X001681Y001675D03*
X000681Y001675D03*
D15*
X000681Y002571D01*
X000681Y003280D02*
X000681Y004085D01*
X001681Y004085D02*
X001681Y003280D01*
X001681Y002571D02*
X001681Y001675D01*
X002681Y001675D02*
X002681Y002571D01*
X002681Y003280D02*
X002681Y004085D01*
X003681Y004085D02*
X003681Y003280D01*
X004681Y003280D02*
X004681Y004085D01*
X005681Y004085D02*
X005681Y003280D01*
X005681Y002571D02*
X005681Y001675D01*
X004681Y001675D02*
X004681Y002571D01*
X003681Y002571D02*
X003681Y001675D01*
X006681Y001675D02*
X006681Y002571D01*
X006681Y003280D02*
X006681Y004085D01*
X007681Y004085D02*
X007681Y003280D01*
X007681Y002571D02*
X007681Y001675D01*
D16*
X007201Y001700D02*
X007161Y001700D01*
X007161Y001621D02*
X007201Y001621D01*
X007161Y001580D02*
X007088Y001403D01*
X006953Y001268D01*
X006777Y001195D01*
X006586Y001195D01*
X006409Y001268D01*
X006274Y001403D01*
X006201Y001580D01*
X006201Y001771D01*
X006274Y001947D01*
X006409Y002082D01*
X006481Y002112D01*
X006481Y002294D01*
X006395Y002294D01*
X006325Y002364D01*
X006325Y002778D01*
X006395Y002849D01*
X006967Y002849D01*
X007038Y002778D01*
X007038Y002364D01*
X006967Y002294D01*
X006881Y002294D01*
X006881Y002112D01*
X006953Y002082D01*
X007088Y001947D01*
X007161Y001771D01*
X007161Y001580D01*
X007146Y001543D02*
X007201Y001543D01*
X007201Y001464D02*
X007113Y001464D01*
X007070Y001386D02*
X007201Y001386D01*
X007201Y001307D02*
X006992Y001307D01*
X006857Y001229D02*
X007239Y001229D01*
X007272Y001195D02*
X008041Y001195D01*
X008041Y000330D01*
X000321Y000330D01*
X000321Y001357D01*
X000409Y001268D01*
X000586Y001195D01*
X000777Y001195D01*
X000953Y001268D01*
X001088Y001403D01*
X001161Y001580D01*
X001161Y001771D01*
X001088Y001947D01*
X000953Y002082D01*
X000881Y002112D01*
X000881Y002294D01*
X000967Y002294D01*
X001038Y002364D01*
X001038Y002778D01*
X000967Y002849D01*
X000395Y002849D01*
X000325Y002778D01*
X000325Y002364D01*
X000395Y002294D01*
X000481Y002294D01*
X000481Y002112D01*
X000409Y002082D01*
X000321Y001994D01*
X000321Y003763D01*
X000356Y003729D01*
X000481Y003729D01*
X000481Y003557D01*
X000395Y003557D01*
X000325Y003487D01*
X000325Y003073D01*
X000395Y003002D01*
X000967Y003002D01*
X001038Y003073D01*
X001038Y003487D01*
X000967Y003557D01*
X000881Y003557D01*
X000881Y003729D01*
X001007Y003729D01*
X001077Y003799D01*
X001077Y004371D01*
X001007Y004441D01*
X000356Y004441D01*
X000321Y004406D01*
X000321Y004916D01*
X000348Y004890D01*
X000641Y004890D01*
X000641Y005226D01*
X000721Y005226D01*
X000721Y004890D01*
X001015Y004890D01*
X001097Y004972D01*
X001097Y005226D01*
X000722Y005226D01*
X000722Y005306D01*
X001097Y005306D01*
X001097Y005535D01*
X001266Y005535D01*
X001266Y005306D01*
X001641Y005306D01*
X001641Y005226D01*
X001266Y005226D01*
X001266Y004972D01*
X001348Y004890D01*
X001641Y004890D01*
X001641Y005226D01*
X001721Y005226D01*
X001721Y004890D01*
X002015Y004890D01*
X002097Y004972D01*
X002097Y005226D01*
X001722Y005226D01*
X001722Y005306D01*
X002097Y005306D01*
X002097Y005535D01*
X002266Y005535D01*
X002266Y005306D01*
X002641Y005306D01*
X002641Y005226D01*
X002266Y005226D01*
X002266Y004972D01*
X002348Y004890D01*
X002641Y004890D01*
X002641Y005226D01*
X002721Y005226D01*
X002721Y004890D01*
X003015Y004890D01*
X003097Y004972D01*
X003097Y005226D01*
X002722Y005226D01*
X002722Y005306D01*
X003097Y005306D01*
X003097Y005535D01*
X003266Y005535D01*
X003266Y005306D01*
X003641Y005306D01*
X003641Y005226D01*
X003266Y005226D01*
X003266Y004972D01*
X003348Y004890D01*
X003641Y004890D01*
X003641Y005226D01*
X003721Y005226D01*
X003721Y004890D01*
X004015Y004890D01*
X004097Y004972D01*
X004097Y005226D01*
X003722Y005226D01*
X003722Y005306D01*
X004097Y005306D01*
X004097Y005535D01*
X004266Y005535D01*
X004266Y005306D01*
X004641Y005306D01*
X004641Y005226D01*
X004266Y005226D01*
X004266Y004972D01*
X004348Y004890D01*
X004641Y004890D01*
X004641Y005226D01*
X004721Y005226D01*
X004721Y004890D01*
X005015Y004890D01*
X005097Y004972D01*
X005097Y005226D01*
X004722Y005226D01*
X004722Y005306D01*
X005097Y005306D01*
X005097Y005535D01*
X005266Y005535D01*
X005266Y005306D01*
X005641Y005306D01*
X005641Y005226D01*
X005266Y005226D01*
X005266Y004972D01*
X005348Y004890D01*
X005641Y004890D01*
X005641Y005226D01*
X005721Y005226D01*
X005721Y004890D01*
X006015Y004890D01*
X006097Y004972D01*
X006097Y005226D01*
X005722Y005226D01*
X005722Y005306D01*
X006097Y005306D01*
X006097Y005535D01*
X006266Y005535D01*
X006266Y005306D01*
X006641Y005306D01*
X006641Y005226D01*
X006266Y005226D01*
X006266Y004972D01*
X006348Y004890D01*
X006641Y004890D01*
X006641Y005226D01*
X006721Y005226D01*
X006721Y004890D01*
X007015Y004890D01*
X007097Y004972D01*
X007097Y005226D01*
X006722Y005226D01*
X006722Y005306D01*
X007097Y005306D01*
X007097Y005535D01*
X007266Y005535D01*
X007266Y005306D01*
X007641Y005306D01*
X007641Y005226D01*
X007266Y005226D01*
X007266Y004972D01*
X007348Y004890D01*
X007641Y004890D01*
X007641Y005226D01*
X007721Y005226D01*
X007721Y004890D01*
X008015Y004890D01*
X008041Y004916D01*
X008041Y004406D01*
X008007Y004441D01*
X007356Y004441D01*
X007286Y004371D01*
X007286Y003799D01*
X007356Y003729D01*
X007481Y003729D01*
X007481Y003557D01*
X007395Y003557D01*
X007325Y003487D01*
X007325Y003073D01*
X007395Y003002D01*
X007967Y003002D01*
X008038Y003073D01*
X008038Y003487D01*
X007967Y003557D01*
X007881Y003557D01*
X007881Y003729D01*
X008007Y003729D01*
X008041Y003763D01*
X008041Y002155D01*
X007881Y002155D01*
X007881Y002294D01*
X007967Y002294D01*
X008038Y002364D01*
X008038Y002778D01*
X007967Y002849D01*
X007395Y002849D01*
X007325Y002778D01*
X007325Y002364D01*
X007395Y002294D01*
X007481Y002294D01*
X007481Y002155D01*
X007272Y002155D01*
X007201Y002085D01*
X007201Y001266D01*
X007272Y001195D01*
X006506Y001229D02*
X005857Y001229D01*
X005777Y001195D02*
X005953Y001268D01*
X006088Y001403D01*
X006161Y001580D01*
X006161Y001771D01*
X006088Y001947D01*
X005953Y002082D01*
X005881Y002112D01*
X005881Y002294D01*
X005967Y002294D01*
X006038Y002364D01*
X006038Y002778D01*
X005967Y002849D01*
X005395Y002849D01*
X005325Y002778D01*
X005325Y002364D01*
X005395Y002294D01*
X005481Y002294D01*
X005481Y002112D01*
X005409Y002082D01*
X005274Y001947D01*
X005201Y001771D01*
X005201Y001580D01*
X005274Y001403D01*
X005409Y001268D01*
X005586Y001195D01*
X005777Y001195D01*
X005992Y001307D02*
X006371Y001307D01*
X006292Y001386D02*
X006070Y001386D01*
X006113Y001464D02*
X006249Y001464D01*
X006217Y001543D02*
X006146Y001543D01*
X006161Y001621D02*
X006201Y001621D01*
X006201Y001700D02*
X006161Y001700D01*
X006158Y001778D02*
X006205Y001778D01*
X006237Y001857D02*
X006126Y001857D01*
X006093Y001935D02*
X006270Y001935D01*
X006341Y002014D02*
X006022Y002014D01*
X005929Y002093D02*
X006434Y002093D01*
X006481Y002171D02*
X005881Y002171D01*
X005881Y002250D02*
X006481Y002250D01*
X006361Y002328D02*
X006002Y002328D01*
X006038Y002407D02*
X006325Y002407D01*
X006325Y002485D02*
X006038Y002485D01*
X006038Y002564D02*
X006325Y002564D01*
X006325Y002642D02*
X006038Y002642D01*
X006038Y002721D02*
X006325Y002721D01*
X006346Y002799D02*
X006016Y002799D01*
X005967Y003002D02*
X006038Y003073D01*
X006038Y003487D01*
X005967Y003557D01*
X005881Y003557D01*
X005881Y003729D01*
X006007Y003729D01*
X006077Y003799D01*
X006077Y004371D01*
X006007Y004441D01*
X005356Y004441D01*
X005286Y004371D01*
X005286Y003799D01*
X005356Y003729D01*
X005481Y003729D01*
X005481Y003557D01*
X005395Y003557D01*
X005325Y003487D01*
X005325Y003073D01*
X005395Y003002D01*
X005967Y003002D01*
X006000Y003035D02*
X006363Y003035D01*
X006395Y003002D02*
X006967Y003002D01*
X007038Y003073D01*
X007038Y003487D01*
X006967Y003557D01*
X006881Y003557D01*
X006881Y003729D01*
X007007Y003729D01*
X007077Y003799D01*
X007077Y004371D01*
X007007Y004441D01*
X006356Y004441D01*
X006286Y004371D01*
X006286Y003799D01*
X006356Y003729D01*
X006481Y003729D01*
X006481Y003557D01*
X006395Y003557D01*
X006325Y003487D01*
X006325Y003073D01*
X006395Y003002D01*
X006325Y003114D02*
X006038Y003114D01*
X006038Y003192D02*
X006325Y003192D01*
X006325Y003271D02*
X006038Y003271D01*
X006038Y003349D02*
X006325Y003349D01*
X006325Y003428D02*
X006038Y003428D01*
X006018Y003506D02*
X006345Y003506D01*
X006481Y003585D02*
X005881Y003585D01*
X005881Y003663D02*
X006481Y003663D01*
X006343Y003742D02*
X006020Y003742D01*
X006077Y003820D02*
X006286Y003820D01*
X006286Y003899D02*
X006077Y003899D01*
X006077Y003978D02*
X006286Y003978D01*
X006286Y004056D02*
X006077Y004056D01*
X006077Y004135D02*
X006286Y004135D01*
X006286Y004213D02*
X006077Y004213D01*
X006077Y004292D02*
X006286Y004292D01*
X006286Y004370D02*
X006077Y004370D01*
X006045Y004920D02*
X006317Y004920D01*
X006266Y004999D02*
X006097Y004999D01*
X006097Y005077D02*
X006266Y005077D01*
X006266Y005156D02*
X006097Y005156D01*
X006097Y005313D02*
X006266Y005313D01*
X006266Y005391D02*
X006097Y005391D01*
X006097Y005470D02*
X006266Y005470D01*
X006641Y005234D02*
X005722Y005234D01*
X005641Y005234D02*
X004722Y005234D01*
X004641Y005234D02*
X003722Y005234D01*
X003641Y005234D02*
X002722Y005234D01*
X002641Y005234D02*
X001722Y005234D01*
X001641Y005234D02*
X000722Y005234D01*
X000721Y005156D02*
X000641Y005156D01*
X000641Y005077D02*
X000721Y005077D01*
X000721Y004999D02*
X000641Y004999D01*
X000641Y004920D02*
X000721Y004920D01*
X001045Y004920D02*
X001317Y004920D01*
X001266Y004999D02*
X001097Y004999D01*
X001097Y005077D02*
X001266Y005077D01*
X001266Y005156D02*
X001097Y005156D01*
X001097Y005313D02*
X001266Y005313D01*
X001266Y005391D02*
X001097Y005391D01*
X001097Y005470D02*
X001266Y005470D01*
X001641Y005156D02*
X001721Y005156D01*
X001721Y005077D02*
X001641Y005077D01*
X001641Y004999D02*
X001721Y004999D01*
X001721Y004920D02*
X001641Y004920D01*
X002045Y004920D02*
X002317Y004920D01*
X002266Y004999D02*
X002097Y004999D01*
X002097Y005077D02*
X002266Y005077D01*
X002266Y005156D02*
X002097Y005156D01*
X002097Y005313D02*
X002266Y005313D01*
X002266Y005391D02*
X002097Y005391D01*
X002097Y005470D02*
X002266Y005470D01*
X002641Y005156D02*
X002721Y005156D01*
X002721Y005077D02*
X002641Y005077D01*
X002641Y004999D02*
X002721Y004999D01*
X002721Y004920D02*
X002641Y004920D01*
X003045Y004920D02*
X003317Y004920D01*
X003266Y004999D02*
X003097Y004999D01*
X003097Y005077D02*
X003266Y005077D01*
X003266Y005156D02*
X003097Y005156D01*
X003097Y005313D02*
X003266Y005313D01*
X003266Y005391D02*
X003097Y005391D01*
X003097Y005470D02*
X003266Y005470D01*
X003641Y005156D02*
X003721Y005156D01*
X003721Y005077D02*
X003641Y005077D01*
X003641Y004999D02*
X003721Y004999D01*
X003721Y004920D02*
X003641Y004920D01*
X004045Y004920D02*
X004317Y004920D01*
X004266Y004999D02*
X004097Y004999D01*
X004097Y005077D02*
X004266Y005077D01*
X004266Y005156D02*
X004097Y005156D01*
X004097Y005313D02*
X004266Y005313D01*
X004266Y005391D02*
X004097Y005391D01*
X004097Y005470D02*
X004266Y005470D01*
X004641Y005156D02*
X004721Y005156D01*
X004721Y005077D02*
X004641Y005077D01*
X004641Y004999D02*
X004721Y004999D01*
X004721Y004920D02*
X004641Y004920D01*
X005045Y004920D02*
X005317Y004920D01*
X005266Y004999D02*
X005097Y004999D01*
X005097Y005077D02*
X005266Y005077D01*
X005266Y005156D02*
X005097Y005156D01*
X005097Y005313D02*
X005266Y005313D01*
X005266Y005391D02*
X005097Y005391D01*
X005097Y005470D02*
X005266Y005470D01*
X005641Y005156D02*
X005721Y005156D01*
X005721Y005077D02*
X005641Y005077D01*
X005641Y004999D02*
X005721Y004999D01*
X005721Y004920D02*
X005641Y004920D01*
X005077Y004371D02*
X005007Y004441D01*
X004356Y004441D01*
X004286Y004371D01*
X004286Y003799D01*
X004356Y003729D01*
X004481Y003729D01*
X004481Y003557D01*
X004395Y003557D01*
X004325Y003487D01*
X004325Y003073D01*
X004395Y003002D01*
X004967Y003002D01*
X005038Y003073D01*
X005038Y003487D01*
X004967Y003557D01*
X004881Y003557D01*
X004881Y003729D01*
X005007Y003729D01*
X005077Y003799D01*
X005077Y004371D01*
X005077Y004370D02*
X005286Y004370D01*
X005286Y004292D02*
X005077Y004292D01*
X005077Y004213D02*
X005286Y004213D01*
X005286Y004135D02*
X005077Y004135D01*
X005077Y004056D02*
X005286Y004056D01*
X005286Y003978D02*
X005077Y003978D01*
X005077Y003899D02*
X005286Y003899D01*
X005286Y003820D02*
X005077Y003820D01*
X005020Y003742D02*
X005343Y003742D01*
X005481Y003663D02*
X004881Y003663D01*
X004881Y003585D02*
X005481Y003585D01*
X005345Y003506D02*
X005018Y003506D01*
X005038Y003428D02*
X005325Y003428D01*
X005325Y003349D02*
X005038Y003349D01*
X005038Y003271D02*
X005325Y003271D01*
X005325Y003192D02*
X005038Y003192D01*
X005038Y003114D02*
X005325Y003114D01*
X005363Y003035D02*
X005000Y003035D01*
X004967Y002849D02*
X004395Y002849D01*
X004325Y002778D01*
X004325Y002364D01*
X004395Y002294D01*
X004481Y002294D01*
X004481Y002112D01*
X004409Y002082D01*
X004274Y001947D01*
X004201Y001771D01*
X004201Y001580D01*
X004274Y001403D01*
X004409Y001268D01*
X004586Y001195D01*
X004777Y001195D01*
X004953Y001268D01*
X005088Y001403D01*
X005161Y001580D01*
X005161Y001771D01*
X005088Y001947D01*
X004953Y002082D01*
X004881Y002112D01*
X004881Y002294D01*
X004967Y002294D01*
X005038Y002364D01*
X005038Y002778D01*
X004967Y002849D01*
X005016Y002799D02*
X005346Y002799D01*
X005325Y002721D02*
X005038Y002721D01*
X005038Y002642D02*
X005325Y002642D01*
X005325Y002564D02*
X005038Y002564D01*
X005038Y002485D02*
X005325Y002485D01*
X005325Y002407D02*
X005038Y002407D01*
X005002Y002328D02*
X005361Y002328D01*
X005481Y002250D02*
X004881Y002250D01*
X004881Y002171D02*
X005481Y002171D01*
X005434Y002093D02*
X004929Y002093D01*
X005022Y002014D02*
X005341Y002014D01*
X005270Y001935D02*
X005093Y001935D01*
X005126Y001857D02*
X005237Y001857D01*
X005205Y001778D02*
X005158Y001778D01*
X005161Y001700D02*
X005201Y001700D01*
X005201Y001621D02*
X005161Y001621D01*
X005146Y001543D02*
X005217Y001543D01*
X005249Y001464D02*
X005113Y001464D01*
X005070Y001386D02*
X005292Y001386D01*
X005371Y001307D02*
X004992Y001307D01*
X004857Y001229D02*
X005506Y001229D01*
X004506Y001229D02*
X003857Y001229D01*
X003777Y001195D02*
X003953Y001268D01*
X004088Y001403D01*
X004161Y001580D01*
X004161Y001771D01*
X004088Y001947D01*
X003953Y002082D01*
X003881Y002112D01*
X003881Y002294D01*
X003967Y002294D01*
X004038Y002364D01*
X004038Y002778D01*
X003967Y002849D01*
X003395Y002849D01*
X003325Y002778D01*
X003325Y002364D01*
X003395Y002294D01*
X003481Y002294D01*
X003481Y002112D01*
X003409Y002082D01*
X003274Y001947D01*
X003201Y001771D01*
X003201Y001580D01*
X003274Y001403D01*
X003409Y001268D01*
X003586Y001195D01*
X003777Y001195D01*
X003992Y001307D02*
X004371Y001307D01*
X004292Y001386D02*
X004070Y001386D01*
X004113Y001464D02*
X004249Y001464D01*
X004217Y001543D02*
X004146Y001543D01*
X004161Y001621D02*
X004201Y001621D01*
X004201Y001700D02*
X004161Y001700D01*
X004158Y001778D02*
X004205Y001778D01*
X004237Y001857D02*
X004126Y001857D01*
X004093Y001935D02*
X004270Y001935D01*
X004341Y002014D02*
X004022Y002014D01*
X003929Y002093D02*
X004434Y002093D01*
X004481Y002171D02*
X003881Y002171D01*
X003881Y002250D02*
X004481Y002250D01*
X004361Y002328D02*
X004002Y002328D01*
X004038Y002407D02*
X004325Y002407D01*
X004325Y002485D02*
X004038Y002485D01*
X004038Y002564D02*
X004325Y002564D01*
X004325Y002642D02*
X004038Y002642D01*
X004038Y002721D02*
X004325Y002721D01*
X004346Y002799D02*
X004016Y002799D01*
X003967Y003002D02*
X004038Y003073D01*
X004038Y003487D01*
X003967Y003557D01*
X003881Y003557D01*
X003881Y003729D01*
X004007Y003729D01*
X004077Y003799D01*
X004077Y004371D01*
X004007Y004441D01*
X003356Y004441D01*
X003286Y004371D01*
X003286Y003799D01*
X003356Y003729D01*
X003481Y003729D01*
X003481Y003557D01*
X003395Y003557D01*
X003325Y003487D01*
X003325Y003073D01*
X003395Y003002D01*
X003967Y003002D01*
X004000Y003035D02*
X004363Y003035D01*
X004325Y003114D02*
X004038Y003114D01*
X004038Y003192D02*
X004325Y003192D01*
X004325Y003271D02*
X004038Y003271D01*
X004038Y003349D02*
X004325Y003349D01*
X004325Y003428D02*
X004038Y003428D01*
X004018Y003506D02*
X004345Y003506D01*
X004481Y003585D02*
X003881Y003585D01*
X003881Y003663D02*
X004481Y003663D01*
X004343Y003742D02*
X004020Y003742D01*
X004077Y003820D02*
X004286Y003820D01*
X004286Y003899D02*
X004077Y003899D01*
X004077Y003978D02*
X004286Y003978D01*
X004286Y004056D02*
X004077Y004056D01*
X004077Y004135D02*
X004286Y004135D01*
X004286Y004213D02*
X004077Y004213D01*
X004077Y004292D02*
X004286Y004292D01*
X004286Y004370D02*
X004077Y004370D01*
X003286Y004370D02*
X003077Y004370D01*
X003077Y004371D02*
X003007Y004441D01*
X002356Y004441D01*
X002286Y004371D01*
X002286Y003799D01*
X002356Y003729D01*
X002481Y003729D01*
X002481Y003557D01*
X002395Y003557D01*
X002325Y003487D01*
X002325Y003073D01*
X002395Y003002D01*
X002967Y003002D01*
X003038Y003073D01*
X003038Y003487D01*
X002967Y003557D01*
X002881Y003557D01*
X002881Y003729D01*
X003007Y003729D01*
X003077Y003799D01*
X003077Y004371D01*
X003077Y004292D02*
X003286Y004292D01*
X003286Y004213D02*
X003077Y004213D01*
X003077Y004135D02*
X003286Y004135D01*
X003286Y004056D02*
X003077Y004056D01*
X003077Y003978D02*
X003286Y003978D01*
X003286Y003899D02*
X003077Y003899D01*
X003077Y003820D02*
X003286Y003820D01*
X003343Y003742D02*
X003020Y003742D01*
X002881Y003663D02*
X003481Y003663D01*
X003481Y003585D02*
X002881Y003585D01*
X003018Y003506D02*
X003345Y003506D01*
X003325Y003428D02*
X003038Y003428D01*
X003038Y003349D02*
X003325Y003349D01*
X003325Y003271D02*
X003038Y003271D01*
X003038Y003192D02*
X003325Y003192D01*
X003325Y003114D02*
X003038Y003114D01*
X003000Y003035D02*
X003363Y003035D01*
X003346Y002799D02*
X003016Y002799D01*
X003038Y002778D02*
X002967Y002849D01*
X002395Y002849D01*
X002325Y002778D01*
X002325Y002364D01*
X002395Y002294D01*
X002481Y002294D01*
X002481Y002112D01*
X002409Y002082D01*
X002274Y001947D01*
X002201Y001771D01*
X002201Y001580D01*
X002274Y001403D01*
X002409Y001268D01*
X002586Y001195D01*
X002777Y001195D01*
X002953Y001268D01*
X003088Y001403D01*
X003161Y001580D01*
X003161Y001771D01*
X003088Y001947D01*
X002953Y002082D01*
X002881Y002112D01*
X002881Y002294D01*
X002967Y002294D01*
X003038Y002364D01*
X003038Y002778D01*
X003038Y002721D02*
X003325Y002721D01*
X003325Y002642D02*
X003038Y002642D01*
X003038Y002564D02*
X003325Y002564D01*
X003325Y002485D02*
X003038Y002485D01*
X003038Y002407D02*
X003325Y002407D01*
X003361Y002328D02*
X003002Y002328D01*
X002881Y002250D02*
X003481Y002250D01*
X003481Y002171D02*
X002881Y002171D01*
X002929Y002093D02*
X003434Y002093D01*
X003341Y002014D02*
X003022Y002014D01*
X003093Y001935D02*
X003270Y001935D01*
X003237Y001857D02*
X003126Y001857D01*
X003158Y001778D02*
X003205Y001778D01*
X003201Y001700D02*
X003161Y001700D01*
X003161Y001621D02*
X003201Y001621D01*
X003217Y001543D02*
X003146Y001543D01*
X003113Y001464D02*
X003249Y001464D01*
X003292Y001386D02*
X003070Y001386D01*
X002992Y001307D02*
X003371Y001307D01*
X003506Y001229D02*
X002857Y001229D01*
X002506Y001229D02*
X001857Y001229D01*
X001777Y001195D02*
X001953Y001268D01*
X002088Y001403D01*
X002161Y001580D01*
X002161Y001771D01*
X002088Y001947D01*
X001953Y002082D01*
X001881Y002112D01*
X001881Y002294D01*
X001967Y002294D01*
X002038Y002364D01*
X002038Y002778D01*
X001967Y002849D01*
X001395Y002849D01*
X001325Y002778D01*
X001325Y002364D01*
X001395Y002294D01*
X001481Y002294D01*
X001481Y002112D01*
X001409Y002082D01*
X001274Y001947D01*
X001201Y001771D01*
X001201Y001580D01*
X001274Y001403D01*
X001409Y001268D01*
X001586Y001195D01*
X001777Y001195D01*
X001992Y001307D02*
X002371Y001307D01*
X002292Y001386D02*
X002070Y001386D01*
X002113Y001464D02*
X002249Y001464D01*
X002217Y001543D02*
X002146Y001543D01*
X002161Y001621D02*
X002201Y001621D01*
X002201Y001700D02*
X002161Y001700D01*
X002158Y001778D02*
X002205Y001778D01*
X002237Y001857D02*
X002126Y001857D01*
X002093Y001935D02*
X002270Y001935D01*
X002341Y002014D02*
X002022Y002014D01*
X001929Y002093D02*
X002434Y002093D01*
X002481Y002171D02*
X001881Y002171D01*
X001881Y002250D02*
X002481Y002250D01*
X002361Y002328D02*
X002002Y002328D01*
X002038Y002407D02*
X002325Y002407D01*
X002325Y002485D02*
X002038Y002485D01*
X002038Y002564D02*
X002325Y002564D01*
X002325Y002642D02*
X002038Y002642D01*
X002038Y002721D02*
X002325Y002721D01*
X002346Y002799D02*
X002016Y002799D01*
X001967Y003002D02*
X002038Y003073D01*
X002038Y003487D01*
X001967Y003557D01*
X001881Y003557D01*
X001881Y003729D01*
X002007Y003729D01*
X002077Y003799D01*
X002077Y004371D01*
X002007Y004441D01*
X001356Y004441D01*
X001286Y004371D01*
X001286Y003799D01*
X001356Y003729D01*
X001481Y003729D01*
X001481Y003557D01*
X001395Y003557D01*
X001325Y003487D01*
X001325Y003073D01*
X001395Y003002D01*
X001967Y003002D01*
X002000Y003035D02*
X002363Y003035D01*
X002325Y003114D02*
X002038Y003114D01*
X002038Y003192D02*
X002325Y003192D01*
X002325Y003271D02*
X002038Y003271D01*
X002038Y003349D02*
X002325Y003349D01*
X002325Y003428D02*
X002038Y003428D01*
X002018Y003506D02*
X002345Y003506D01*
X002481Y003585D02*
X001881Y003585D01*
X001881Y003663D02*
X002481Y003663D01*
X002343Y003742D02*
X002020Y003742D01*
X002077Y003820D02*
X002286Y003820D01*
X002286Y003899D02*
X002077Y003899D01*
X002077Y003978D02*
X002286Y003978D01*
X002286Y004056D02*
X002077Y004056D01*
X002077Y004135D02*
X002286Y004135D01*
X002286Y004213D02*
X002077Y004213D01*
X002077Y004292D02*
X002286Y004292D01*
X002286Y004370D02*
X002077Y004370D01*
X001286Y004370D02*
X001077Y004370D01*
X001077Y004292D02*
X001286Y004292D01*
X001286Y004213D02*
X001077Y004213D01*
X001077Y004135D02*
X001286Y004135D01*
X001286Y004056D02*
X001077Y004056D01*
X001077Y003978D02*
X001286Y003978D01*
X001286Y003899D02*
X001077Y003899D01*
X001077Y003820D02*
X001286Y003820D01*
X001343Y003742D02*
X001020Y003742D01*
X000881Y003663D02*
X001481Y003663D01*
X001481Y003585D02*
X000881Y003585D01*
X001018Y003506D02*
X001345Y003506D01*
X001325Y003428D02*
X001038Y003428D01*
X001038Y003349D02*
X001325Y003349D01*
X001325Y003271D02*
X001038Y003271D01*
X001038Y003192D02*
X001325Y003192D01*
X001325Y003114D02*
X001038Y003114D01*
X001000Y003035D02*
X001363Y003035D01*
X001346Y002799D02*
X001016Y002799D01*
X001038Y002721D02*
X001325Y002721D01*
X001325Y002642D02*
X001038Y002642D01*
X001038Y002564D02*
X001325Y002564D01*
X001325Y002485D02*
X001038Y002485D01*
X001038Y002407D02*
X001325Y002407D01*
X001361Y002328D02*
X001002Y002328D01*
X000881Y002250D02*
X001481Y002250D01*
X001481Y002171D02*
X000881Y002171D01*
X000929Y002093D02*
X001434Y002093D01*
X001341Y002014D02*
X001022Y002014D01*
X001093Y001935D02*
X001270Y001935D01*
X001237Y001857D02*
X001126Y001857D01*
X001158Y001778D02*
X001205Y001778D01*
X001201Y001700D02*
X001161Y001700D01*
X001161Y001621D02*
X001201Y001621D01*
X001217Y001543D02*
X001146Y001543D01*
X001113Y001464D02*
X001249Y001464D01*
X001292Y001386D02*
X001070Y001386D01*
X000992Y001307D02*
X001371Y001307D01*
X001506Y001229D02*
X000857Y001229D01*
X000506Y001229D02*
X000321Y001229D01*
X000321Y001150D02*
X008041Y001150D01*
X008041Y001071D02*
X000321Y001071D01*
X000321Y000993D02*
X008041Y000993D01*
X008041Y000914D02*
X000321Y000914D01*
X000321Y000836D02*
X008041Y000836D01*
X008041Y000757D02*
X000321Y000757D01*
X000321Y000679D02*
X008041Y000679D01*
X008041Y000600D02*
X000321Y000600D01*
X000321Y000522D02*
X008041Y000522D01*
X008041Y000443D02*
X000321Y000443D01*
X000321Y000365D02*
X008041Y000365D01*
X007201Y001778D02*
X007158Y001778D01*
X007126Y001857D02*
X007201Y001857D01*
X007201Y001935D02*
X007093Y001935D01*
X007022Y002014D02*
X007201Y002014D01*
X007209Y002093D02*
X006929Y002093D01*
X006881Y002171D02*
X007481Y002171D01*
X007481Y002250D02*
X006881Y002250D01*
X007002Y002328D02*
X007361Y002328D01*
X007325Y002407D02*
X007038Y002407D01*
X007038Y002485D02*
X007325Y002485D01*
X007325Y002564D02*
X007038Y002564D01*
X007038Y002642D02*
X007325Y002642D01*
X007325Y002721D02*
X007038Y002721D01*
X007016Y002799D02*
X007346Y002799D01*
X007363Y003035D02*
X007000Y003035D01*
X007038Y003114D02*
X007325Y003114D01*
X007325Y003192D02*
X007038Y003192D01*
X007038Y003271D02*
X007325Y003271D01*
X007325Y003349D02*
X007038Y003349D01*
X007038Y003428D02*
X007325Y003428D01*
X007345Y003506D02*
X007018Y003506D01*
X006881Y003585D02*
X007481Y003585D01*
X007481Y003663D02*
X006881Y003663D01*
X007020Y003742D02*
X007343Y003742D01*
X007286Y003820D02*
X007077Y003820D01*
X007077Y003899D02*
X007286Y003899D01*
X007286Y003978D02*
X007077Y003978D01*
X007077Y004056D02*
X007286Y004056D01*
X007286Y004135D02*
X007077Y004135D01*
X007077Y004213D02*
X007286Y004213D01*
X007286Y004292D02*
X007077Y004292D01*
X007077Y004370D02*
X007286Y004370D01*
X007317Y004920D02*
X007045Y004920D01*
X007097Y004999D02*
X007266Y004999D01*
X007266Y005077D02*
X007097Y005077D01*
X007097Y005156D02*
X007266Y005156D01*
X007266Y005313D02*
X007097Y005313D01*
X007097Y005391D02*
X007266Y005391D01*
X007266Y005470D02*
X007097Y005470D01*
X006722Y005234D02*
X007641Y005234D01*
X007641Y005156D02*
X007721Y005156D01*
X007721Y005077D02*
X007641Y005077D01*
X007641Y004999D02*
X007721Y004999D01*
X007721Y004920D02*
X007641Y004920D01*
X008041Y004842D02*
X000321Y004842D01*
X000321Y004763D02*
X008041Y004763D01*
X008041Y004684D02*
X000321Y004684D01*
X000321Y004606D02*
X008041Y004606D01*
X008041Y004527D02*
X000321Y004527D01*
X000321Y004449D02*
X008041Y004449D01*
X008020Y003742D02*
X008041Y003742D01*
X008041Y003663D02*
X007881Y003663D01*
X007881Y003585D02*
X008041Y003585D01*
X008041Y003506D02*
X008018Y003506D01*
X008038Y003428D02*
X008041Y003428D01*
X008038Y003349D02*
X008041Y003349D01*
X008038Y003271D02*
X008041Y003271D01*
X008038Y003192D02*
X008041Y003192D01*
X008038Y003114D02*
X008041Y003114D01*
X008041Y003035D02*
X008000Y003035D01*
X008041Y002956D02*
X000321Y002956D01*
X000321Y002878D02*
X008041Y002878D01*
X008041Y002799D02*
X008016Y002799D01*
X008038Y002721D02*
X008041Y002721D01*
X008038Y002642D02*
X008041Y002642D01*
X008038Y002564D02*
X008041Y002564D01*
X008038Y002485D02*
X008041Y002485D01*
X008038Y002407D02*
X008041Y002407D01*
X008041Y002328D02*
X008002Y002328D01*
X008041Y002250D02*
X007881Y002250D01*
X007881Y002171D02*
X008041Y002171D01*
X006721Y004920D02*
X006641Y004920D01*
X006641Y004999D02*
X006721Y004999D01*
X006721Y005077D02*
X006641Y005077D01*
X006641Y005156D02*
X006721Y005156D01*
X000481Y003663D02*
X000321Y003663D01*
X000321Y003585D02*
X000481Y003585D01*
X000345Y003506D02*
X000321Y003506D01*
X000321Y003428D02*
X000325Y003428D01*
X000321Y003349D02*
X000325Y003349D01*
X000321Y003271D02*
X000325Y003271D01*
X000321Y003192D02*
X000325Y003192D01*
X000321Y003114D02*
X000325Y003114D01*
X000321Y003035D02*
X000363Y003035D01*
X000346Y002799D02*
X000321Y002799D01*
X000321Y002721D02*
X000325Y002721D01*
X000321Y002642D02*
X000325Y002642D01*
X000321Y002564D02*
X000325Y002564D01*
X000321Y002485D02*
X000325Y002485D01*
X000321Y002407D02*
X000325Y002407D01*
X000321Y002328D02*
X000361Y002328D01*
X000321Y002250D02*
X000481Y002250D01*
X000481Y002171D02*
X000321Y002171D01*
X000321Y002093D02*
X000434Y002093D01*
X000341Y002014D02*
X000321Y002014D01*
X000321Y001307D02*
X000371Y001307D01*
X000321Y003742D02*
X000343Y003742D01*
D17*
X007181Y003550D03*
M02*
