G75*
G70*
%OFA0B0*%
%FSLAX24Y24*%
%IPPOS*%
%LPD*%
%AMOC8*
5,1,8,0,0,1.08239X$1,22.5*
%
%ADD10C,0.0080*%
D10*
X000452Y001272D02*
X000952Y001272D01*
X001202Y001522D01*
X001452Y001272D01*
X001952Y001272D01*
X002202Y001522D01*
X002452Y001272D01*
X002952Y001272D01*
X003202Y001522D01*
X003452Y001272D01*
X003952Y001272D01*
X004202Y001522D01*
X004452Y001272D01*
X004952Y001272D01*
X005202Y001522D01*
X005452Y001272D01*
X005952Y001272D01*
X006202Y001522D01*
X006452Y001272D01*
X006952Y001272D01*
X007202Y001522D01*
X007452Y001272D01*
X007952Y001272D01*
X008202Y001522D01*
X008202Y002022D01*
X007952Y002272D01*
X007452Y002272D01*
X007202Y002022D01*
X006952Y002272D01*
X006452Y002272D01*
X006202Y002022D01*
X005952Y002272D01*
X005452Y002272D01*
X005202Y002022D01*
X004952Y002272D01*
X004452Y002272D01*
X004202Y002022D01*
X003952Y002272D01*
X003452Y002272D01*
X003202Y002022D01*
X002952Y002272D01*
X002452Y002272D01*
X002202Y002022D01*
X001952Y002272D01*
X001452Y002272D01*
X001202Y002022D01*
X000952Y002272D01*
X000452Y002272D01*
X000202Y002022D01*
X000202Y001522D01*
X000452Y001272D01*
M02*
