G75*
G70*
%OFA0B0*%
%FSLAX24Y24*%
%IPPOS*%
%LPD*%
%AMOC8*
5,1,8,0,0,1.08239X$1,22.5*
%
%ADD10C,0.0000*%
%ADD11R,0.0551X0.0472*%
%ADD12R,0.0472X0.0315*%
%ADD13R,0.0720X0.0720*%
%ADD14C,0.0720*%
%ADD15R,0.0240X0.0870*%
%ADD16C,0.0200*%
%ADD17C,0.0320*%
%ADD18R,0.0436X0.0436*%
%ADD19C,0.0080*%
%ADD20C,0.0160*%
D10*
X000202Y000202D02*
X000202Y009182D01*
X008202Y009182D01*
X008202Y000202D01*
X000202Y000202D01*
D11*
X000702Y007541D03*
X001702Y007541D03*
X002702Y007541D03*
X003702Y007541D03*
X004702Y007541D03*
X005702Y007541D03*
X006702Y007541D03*
X007702Y007541D03*
X007702Y008722D03*
X006702Y008722D03*
X005702Y008722D03*
X004702Y008722D03*
X003702Y008722D03*
X002702Y008722D03*
X001702Y008722D03*
X000702Y008722D03*
D12*
X000702Y006736D03*
X000702Y006027D03*
X001702Y006027D03*
X001702Y006736D03*
X002702Y006736D03*
X002702Y006027D03*
X003702Y006027D03*
X003702Y006736D03*
X004702Y006736D03*
X004702Y006027D03*
X005702Y006027D03*
X005702Y006736D03*
X006702Y006736D03*
X006702Y006027D03*
X007702Y006027D03*
X007702Y006736D03*
D13*
X007702Y001772D03*
D14*
X006702Y001772D03*
X005702Y001772D03*
X004702Y001772D03*
X003702Y001772D03*
X002702Y001772D03*
X001702Y001772D03*
X000702Y001772D03*
D15*
X000952Y002852D03*
X001452Y002852D03*
X001952Y002852D03*
X002452Y002852D03*
X002952Y002852D03*
X003452Y002852D03*
X003952Y002852D03*
X004452Y002852D03*
X004952Y002852D03*
X005452Y002852D03*
X005952Y002852D03*
X006452Y002852D03*
X006952Y002852D03*
X007452Y002852D03*
X007952Y002852D03*
X007952Y004912D03*
X007452Y004912D03*
X006952Y004912D03*
X006452Y004912D03*
X005952Y004912D03*
X005452Y004912D03*
X004952Y004912D03*
X004452Y004912D03*
X003952Y004912D03*
X003452Y004912D03*
X002952Y004912D03*
X002452Y004912D03*
X001952Y004912D03*
X001452Y004912D03*
X000952Y004912D03*
X000452Y004912D03*
X000452Y002852D03*
D16*
X000522Y002922D01*
X000522Y003422D01*
X000602Y003582D01*
X001402Y003582D01*
X001402Y004062D01*
X001402Y003582D02*
X001402Y002902D01*
X001452Y002852D01*
X001952Y002852D02*
X001952Y001772D01*
X001702Y001772D01*
X000952Y001772D02*
X000952Y002852D01*
X001402Y003582D02*
X002442Y003582D01*
X002442Y002862D01*
X002452Y002852D01*
X002952Y002852D02*
X002952Y001772D01*
X002702Y001772D01*
X003702Y001772D02*
X003952Y001772D01*
X003952Y002852D01*
X004442Y002862D02*
X004442Y003582D01*
X005482Y003582D01*
X005482Y004062D01*
X005482Y003582D02*
X005482Y002882D01*
X005452Y002852D01*
X005952Y002852D02*
X005952Y001772D01*
X005702Y001772D01*
X004952Y001772D02*
X004952Y002852D01*
X004452Y002852D02*
X004442Y002862D01*
X004442Y003582D02*
X003482Y003582D01*
X003482Y004062D01*
X003482Y003582D02*
X003482Y002882D01*
X003452Y002852D01*
X003482Y003582D02*
X002442Y003582D01*
X000952Y004912D02*
X000452Y004912D01*
X000702Y001772D02*
X000952Y001772D01*
X004702Y001772D02*
X004952Y001772D01*
X006442Y002862D02*
X006442Y003582D01*
X007322Y003582D01*
X007322Y004062D01*
X007322Y003582D02*
X007402Y003422D01*
X007402Y003102D01*
X007452Y003052D01*
X007452Y002852D01*
X007952Y002852D02*
X007952Y001772D01*
X007702Y001772D01*
X006952Y001772D02*
X006952Y002852D01*
X006452Y002852D02*
X006442Y002862D01*
X006442Y003582D02*
X005482Y003582D01*
X006702Y001772D02*
X006952Y001772D01*
X007452Y004912D02*
X007952Y004912D01*
X007952Y005777D01*
X007702Y006027D01*
X002870Y008722D02*
X002362Y008750D01*
D17*
X002702Y008722D02*
X002870Y008722D01*
X003702Y008722D01*
X004702Y008722D01*
X005702Y008722D01*
X006702Y008722D01*
X007702Y008722D01*
X007702Y007541D02*
X007702Y006736D01*
X006952Y005777D02*
X006952Y004912D01*
X006452Y004912D01*
X005952Y004912D02*
X005952Y005777D01*
X005702Y006027D01*
X005702Y006736D02*
X005702Y007541D01*
X006702Y007541D02*
X006702Y006736D01*
X006702Y006027D02*
X006952Y005777D01*
X005952Y004912D02*
X005452Y004912D01*
X004952Y004912D02*
X004952Y005777D01*
X004702Y006027D01*
X004702Y006736D02*
X004702Y007541D01*
X003702Y007541D02*
X003702Y006736D01*
X003702Y006027D02*
X003952Y005777D01*
X003952Y004912D01*
X003452Y004912D01*
X002952Y004912D02*
X002952Y005777D01*
X002702Y006027D01*
X002702Y006736D02*
X002702Y007541D01*
X002822Y008112D02*
X002822Y008722D01*
X002702Y008722D02*
X001702Y008722D01*
X000702Y008722D01*
X000702Y007541D02*
X000702Y006736D01*
X000702Y006027D02*
X000952Y005777D01*
X000952Y004912D01*
X001452Y004912D02*
X001952Y004912D01*
X001952Y005777D01*
X001702Y006027D01*
X001702Y006736D02*
X001702Y007541D01*
X002452Y004912D02*
X002952Y004912D01*
X004452Y004912D02*
X004952Y004912D01*
D18*
X005482Y004062D03*
X007322Y004062D03*
X003482Y004062D03*
X001402Y004062D03*
X002822Y008112D03*
D19*
X000702Y008722D02*
X000682Y008722D01*
D20*
X002822Y008722D02*
X002870Y008722D01*
M02*
