G75*
G70*
%OFA0B0*%
%FSLAX24Y24*%
%IPPOS*%
%LPD*%
%AMOC8*
5,1,8,0,0,1.08239X$1,22.5*
%
%ADD10R,0.0720X0.0720*%
%ADD11C,0.0720*%
%ADD12C,0.0236*%
%ADD13C,0.0160*%
%ADD14C,0.0400*%
D10*
X007681Y001675D03*
D11*
X000681Y001675D03*
X001681Y001675D03*
X002681Y001675D03*
X003681Y001675D03*
X004681Y001675D03*
X005681Y001675D03*
X006681Y001675D03*
D12*
X007785Y004026D02*
X007785Y005324D01*
X007785Y004026D02*
X007077Y004026D01*
X007077Y005324D01*
X007785Y005324D01*
X007785Y004261D02*
X007077Y004261D01*
X007077Y004496D02*
X007785Y004496D01*
X007785Y004731D02*
X007077Y004731D01*
X007077Y004966D02*
X007785Y004966D01*
X007785Y005201D02*
X007077Y005201D01*
X000577Y005324D02*
X000577Y004026D01*
X000577Y005324D02*
X001285Y005324D01*
X001285Y004026D01*
X000577Y004026D01*
X000577Y004261D02*
X001285Y004261D01*
X001285Y004496D02*
X000577Y004496D01*
X000577Y004731D02*
X001285Y004731D01*
X001285Y004966D02*
X000577Y004966D01*
X000577Y005201D02*
X001285Y005201D01*
D13*
X001584Y005124D02*
X006779Y005124D01*
X006779Y005282D02*
X001584Y005282D01*
X001584Y005384D02*
X001538Y005494D01*
X001537Y005495D01*
X006826Y005495D01*
X006824Y005494D01*
X006779Y005384D01*
X006779Y004755D01*
X007351Y004755D01*
X007351Y004595D01*
X006779Y004595D01*
X006779Y003966D01*
X006824Y003857D01*
X006908Y003773D01*
X007018Y003728D01*
X007351Y003728D01*
X007351Y004595D01*
X007511Y004595D01*
X007511Y003728D01*
X007845Y003728D01*
X007955Y003773D01*
X008001Y003820D01*
X008001Y002195D01*
X007255Y002195D01*
X007161Y002102D01*
X007161Y001875D01*
X007122Y001970D01*
X006976Y002116D01*
X006785Y002195D01*
X006578Y002195D01*
X006387Y002116D01*
X006241Y001970D01*
X006181Y001827D01*
X006122Y001970D01*
X005976Y002116D01*
X005785Y002195D01*
X005578Y002195D01*
X005387Y002116D01*
X005241Y001970D01*
X005181Y001827D01*
X005122Y001970D01*
X004976Y002116D01*
X004785Y002195D01*
X004578Y002195D01*
X004387Y002116D01*
X004241Y001970D01*
X004181Y001827D01*
X004122Y001970D01*
X003976Y002116D01*
X003785Y002195D01*
X003578Y002195D01*
X003387Y002116D01*
X003241Y001970D01*
X003181Y001827D01*
X003122Y001970D01*
X002976Y002116D01*
X002785Y002195D01*
X002578Y002195D01*
X002387Y002116D01*
X002241Y001970D01*
X002181Y001827D01*
X002122Y001970D01*
X001976Y002116D01*
X001785Y002195D01*
X001578Y002195D01*
X001387Y002116D01*
X001241Y001970D01*
X001181Y001827D01*
X001122Y001970D01*
X000976Y002116D01*
X000785Y002195D01*
X000578Y002195D01*
X000387Y002116D01*
X000361Y002091D01*
X000361Y003820D01*
X000408Y003773D01*
X000518Y003728D01*
X000851Y003728D01*
X000851Y004595D01*
X001011Y004595D01*
X001011Y003728D01*
X001345Y003728D01*
X001455Y003773D01*
X001538Y003857D01*
X001584Y003966D01*
X001584Y004595D01*
X001012Y004595D01*
X001012Y004755D01*
X001584Y004755D01*
X001584Y005384D01*
X001560Y005441D02*
X006802Y005441D01*
X006779Y004965D02*
X001584Y004965D01*
X001584Y004807D02*
X006779Y004807D01*
X006779Y004490D02*
X001584Y004490D01*
X001584Y004331D02*
X006779Y004331D01*
X006779Y004173D02*
X001584Y004173D01*
X001584Y004014D02*
X006779Y004014D01*
X006826Y003855D02*
X001537Y003855D01*
X001011Y003855D02*
X000851Y003855D01*
X000851Y004014D02*
X001011Y004014D01*
X001011Y004173D02*
X000851Y004173D01*
X000851Y004331D02*
X001011Y004331D01*
X001011Y004490D02*
X000851Y004490D01*
X001012Y004648D02*
X007351Y004648D01*
X007351Y004490D02*
X007511Y004490D01*
X007511Y004331D02*
X007351Y004331D01*
X007351Y004173D02*
X007511Y004173D01*
X007511Y004014D02*
X007351Y004014D01*
X007351Y003855D02*
X007511Y003855D01*
X008001Y003697D02*
X000361Y003697D01*
X000361Y003538D02*
X008001Y003538D01*
X008001Y003380D02*
X000361Y003380D01*
X000361Y003221D02*
X008001Y003221D01*
X008001Y003063D02*
X000361Y003063D01*
X000361Y002904D02*
X008001Y002904D01*
X008001Y002746D02*
X000361Y002746D01*
X000361Y002587D02*
X008001Y002587D01*
X008001Y002429D02*
X000361Y002429D01*
X000361Y002270D02*
X008001Y002270D01*
X007171Y002111D02*
X006981Y002111D01*
X007129Y001953D02*
X007161Y001953D01*
X006382Y002111D02*
X005981Y002111D01*
X006129Y001953D02*
X006234Y001953D01*
X005382Y002111D02*
X004981Y002111D01*
X005129Y001953D02*
X005234Y001953D01*
X004382Y002111D02*
X003981Y002111D01*
X004129Y001953D02*
X004234Y001953D01*
X003382Y002111D02*
X002981Y002111D01*
X003129Y001953D02*
X003234Y001953D01*
X002382Y002111D02*
X001981Y002111D01*
X002129Y001953D02*
X002234Y001953D01*
X001382Y002111D02*
X000981Y002111D01*
X001129Y001953D02*
X001234Y001953D01*
X000382Y002111D02*
X000361Y002111D01*
D14*
X007181Y003550D03*
M02*
