G75*
G70*
%OFA0B0*%
%FSLAX24Y24*%
%IPPOS*%
%LPD*%
%AMOC8*
5,1,8,0,0,1.08239X$1,22.5*
%
%ADD10C,0.0020*%
%ADD11C,0.0060*%
%ADD12C,0.0080*%
D10*
X000431Y000544D02*
X000431Y000691D01*
X000358Y000618D02*
X000504Y000618D01*
X000504Y000765D02*
X000541Y000802D01*
X000541Y000875D01*
X000504Y000912D01*
X000431Y000912D01*
X000394Y000875D01*
X000394Y000839D01*
X000431Y000765D01*
X000321Y000765D01*
X000321Y000912D01*
X000321Y000986D02*
X000468Y000986D01*
X000541Y001060D01*
X000468Y001133D01*
X000321Y001133D01*
X002721Y001096D02*
X002721Y000986D01*
X002941Y000986D01*
X002941Y001096D01*
X002904Y001133D01*
X002758Y001133D01*
X002721Y001096D01*
X002721Y000912D02*
X002941Y000912D01*
X002721Y000765D01*
X002941Y000765D01*
X002904Y000691D02*
X002831Y000691D01*
X002831Y000618D01*
X002758Y000691D02*
X002721Y000654D01*
X002721Y000581D01*
X002758Y000544D01*
X002904Y000544D01*
X002941Y000581D01*
X002941Y000654D01*
X002904Y000691D01*
X004226Y001566D02*
X004226Y001676D01*
X004263Y001713D01*
X004336Y001713D01*
X004373Y001676D01*
X004373Y001566D01*
X004446Y001566D02*
X004226Y001566D01*
X004373Y001640D02*
X004446Y001713D01*
X004409Y001787D02*
X004446Y001824D01*
X004446Y001897D01*
X004409Y001934D01*
X004373Y001934D01*
X004336Y001897D01*
X004336Y001824D01*
X004299Y001787D01*
X004263Y001787D01*
X004226Y001824D01*
X004226Y001897D01*
X004263Y001934D01*
X004226Y002008D02*
X004226Y002155D01*
X004226Y002082D02*
X004446Y002082D01*
X004409Y002606D02*
X004446Y002643D01*
X004446Y002716D01*
X004409Y002753D01*
X004373Y002753D01*
X004336Y002716D01*
X004336Y002643D01*
X004299Y002606D01*
X004263Y002606D01*
X004226Y002643D01*
X004226Y002716D01*
X004263Y002753D01*
X004263Y002827D02*
X004409Y002827D01*
X004446Y002864D01*
X004446Y002937D01*
X004409Y002974D01*
X004373Y003048D02*
X004226Y003195D01*
X004226Y003048D02*
X004446Y003048D01*
X004336Y003085D02*
X004446Y003195D01*
X004263Y002974D02*
X004226Y002937D01*
X004226Y002864D01*
X004263Y002827D01*
X004226Y003489D02*
X004299Y003562D01*
X004226Y003636D01*
X004446Y003636D01*
X004446Y003710D02*
X004446Y003783D01*
X004446Y003747D02*
X004226Y003747D01*
X004226Y003783D02*
X004226Y003710D01*
X004263Y003857D02*
X004226Y003894D01*
X004226Y003967D01*
X004263Y004004D01*
X004336Y003967D02*
X004373Y004004D01*
X004409Y004004D01*
X004446Y003967D01*
X004446Y003894D01*
X004409Y003857D01*
X004336Y003894D02*
X004336Y003967D01*
X004336Y003894D02*
X004299Y003857D01*
X004263Y003857D01*
X004263Y004078D02*
X004226Y004115D01*
X004226Y004188D01*
X004263Y004225D01*
X004409Y004225D01*
X004446Y004188D01*
X004446Y004115D01*
X004409Y004078D01*
X004263Y004078D01*
X004226Y004529D02*
X004299Y004602D01*
X004226Y004676D01*
X004446Y004676D01*
X004409Y004750D02*
X004446Y004787D01*
X004446Y004860D01*
X004409Y004897D01*
X004263Y004897D01*
X004226Y004860D01*
X004226Y004787D01*
X004263Y004750D01*
X004409Y004750D01*
X004409Y004971D02*
X004446Y005008D01*
X004446Y005081D01*
X004409Y005118D01*
X004373Y005118D01*
X004336Y005081D01*
X004336Y005008D01*
X004299Y004971D01*
X004263Y004971D01*
X004226Y005008D01*
X004226Y005081D01*
X004263Y005118D01*
X004226Y005192D02*
X004226Y005265D01*
X004226Y005229D02*
X004446Y005229D01*
X004446Y005265D02*
X004446Y005192D01*
X004446Y004529D02*
X004226Y004529D01*
X004226Y003489D02*
X004446Y003489D01*
X002941Y004581D02*
X002941Y004654D01*
X002904Y004691D01*
X002831Y004691D01*
X002831Y004618D01*
X002758Y004691D02*
X002721Y004654D01*
X002721Y004581D01*
X002758Y004544D01*
X002904Y004544D01*
X002941Y004581D01*
X002941Y004765D02*
X002721Y004765D01*
X002941Y004912D01*
X002721Y004912D01*
X002721Y004986D02*
X002721Y005096D01*
X002758Y005133D01*
X002904Y005133D01*
X002941Y005096D01*
X002941Y004986D01*
X002721Y004986D01*
X000541Y005060D02*
X000468Y005133D01*
X000321Y005133D01*
X000321Y004986D02*
X000468Y004986D01*
X000541Y005060D01*
X000504Y004912D02*
X000431Y004912D01*
X000394Y004875D01*
X000394Y004839D01*
X000431Y004765D01*
X000321Y004765D01*
X000321Y004912D01*
X000504Y004912D02*
X000541Y004875D01*
X000541Y004802D01*
X000504Y004765D01*
X000431Y004691D02*
X000431Y004544D01*
X000358Y004618D02*
X000504Y004618D01*
D11*
X000651Y004659D02*
X000651Y005159D01*
X000901Y005409D01*
X001401Y005409D01*
X001651Y005159D01*
X001651Y004659D01*
X001901Y004409D01*
X002401Y004409D01*
X002651Y004659D01*
X002651Y005159D01*
X002401Y005409D01*
X001901Y005409D01*
X001651Y005159D01*
X001651Y004659D01*
X001401Y004409D01*
X000901Y004409D01*
X000651Y004659D01*
X000901Y001409D02*
X000651Y001159D01*
X000651Y000659D01*
X000901Y000409D01*
X001401Y000409D01*
X001651Y000659D01*
X001901Y000409D01*
X002401Y000409D01*
X002651Y000659D01*
X002651Y001159D01*
X002401Y001409D01*
X001901Y001409D01*
X001651Y001159D01*
X001651Y000659D01*
X001651Y001159D01*
X001401Y001409D01*
X000901Y001409D01*
X003431Y000866D02*
X003431Y000439D01*
X003431Y000760D02*
X003858Y000760D01*
X003858Y000866D02*
X003858Y000439D01*
X004076Y000653D02*
X004289Y000439D01*
X004503Y000653D01*
X004503Y001080D01*
X004720Y001080D02*
X005040Y001080D01*
X005147Y000973D01*
X005147Y000760D01*
X005040Y000653D01*
X004720Y000653D01*
X004720Y000439D02*
X004720Y001080D01*
X004934Y000653D02*
X005147Y000439D01*
X004076Y000653D02*
X004076Y001080D01*
X003858Y000866D02*
X003645Y001080D01*
X003431Y000866D01*
D12*
X002793Y001659D02*
X002793Y002159D01*
X002661Y002159D02*
X002661Y001659D01*
X002411Y001409D01*
X000911Y001409D01*
X000661Y001659D01*
X000661Y002159D01*
X000911Y002409D01*
X002411Y002409D01*
X002661Y002659D01*
X002661Y003159D01*
X002411Y003409D01*
X000911Y003409D01*
X000661Y003659D01*
X000661Y004159D01*
X000911Y004409D01*
X002411Y004409D01*
X002661Y004159D01*
X002661Y003659D01*
X002411Y003409D01*
X002411Y002409D02*
X002661Y002159D01*
X000911Y002409D02*
X000661Y002659D01*
X000661Y003159D01*
X000911Y003409D01*
X004651Y003159D02*
X004651Y002659D01*
X004901Y002409D01*
X004651Y002159D01*
X004651Y001659D01*
X004901Y001409D01*
X005401Y001409D01*
X005651Y001659D01*
X005651Y002159D01*
X005401Y002409D01*
X005651Y002659D01*
X005651Y003159D01*
X005401Y003409D01*
X005651Y003659D01*
X005651Y004159D01*
X005401Y004409D01*
X005651Y004659D01*
X005651Y005159D01*
X005401Y005409D01*
X004901Y005409D01*
X004651Y005159D01*
X004651Y004659D01*
X004901Y004409D01*
X004651Y004159D01*
X004651Y003659D01*
X004901Y003409D01*
X004651Y003159D01*
M02*
