G75*
G70*
%OFA0B0*%
%FSLAX24Y24*%
%IPPOS*%
%LPD*%
%AMOC8*
5,1,8,0,0,1.08239X$1,22.5*
%
%ADD10C,0.0000*%
%ADD11OC8,0.0740*%
%ADD12C,0.0740*%
%ADD13C,0.0080*%
%ADD14C,0.0160*%
D10*
X000149Y000141D02*
X000149Y003891D01*
X006649Y003891D01*
X006649Y000141D01*
X000149Y000141D01*
D11*
X002399Y000901D03*
X003399Y000901D03*
X004399Y000901D03*
X004399Y001901D03*
X003399Y001901D03*
X002399Y001901D03*
D12*
X001899Y002891D03*
X000899Y002891D03*
X002899Y002891D03*
X003899Y002891D03*
X004899Y002891D03*
X005899Y002891D03*
D13*
X005442Y002661D02*
X005248Y002661D01*
X005247Y002659D02*
X005309Y002810D01*
X005309Y002851D01*
X004939Y002851D01*
X004939Y002481D01*
X004981Y002481D01*
X005131Y002544D01*
X005247Y002659D01*
X005280Y002740D02*
X005410Y002740D01*
X005389Y002790D02*
X005467Y002602D01*
X005610Y002459D01*
X005679Y002430D01*
X005679Y001982D01*
X004859Y001162D01*
X004620Y001401D01*
X004909Y001690D01*
X004909Y002113D01*
X004610Y002411D01*
X004188Y002411D01*
X003899Y002123D01*
X003610Y002411D01*
X003200Y002411D01*
X003163Y002449D01*
X003188Y002459D01*
X003332Y002602D01*
X003399Y002766D01*
X003467Y002602D01*
X003610Y002459D01*
X003798Y002381D01*
X004001Y002381D01*
X004188Y002459D01*
X004332Y002602D01*
X004409Y002790D01*
X004409Y002993D01*
X004332Y003180D01*
X004188Y003324D01*
X004001Y003401D01*
X003798Y003401D01*
X003610Y003324D01*
X003467Y003180D01*
X003399Y003017D01*
X003332Y003180D01*
X003188Y003324D01*
X003001Y003401D01*
X002798Y003401D01*
X002610Y003324D01*
X002467Y003180D01*
X002399Y003017D01*
X002332Y003180D01*
X002188Y003324D01*
X002001Y003401D01*
X001798Y003401D01*
X001610Y003324D01*
X001467Y003180D01*
X001399Y003017D01*
X001332Y003180D01*
X001188Y003324D01*
X001001Y003401D01*
X000798Y003401D01*
X000610Y003324D01*
X000467Y003180D01*
X000389Y002993D01*
X000389Y002790D01*
X000467Y002602D01*
X000610Y002459D01*
X000798Y002381D01*
X001001Y002381D01*
X001188Y002459D01*
X001332Y002602D01*
X001399Y002766D01*
X001467Y002602D01*
X001610Y002459D01*
X001719Y002414D01*
X001719Y001466D01*
X001719Y001317D01*
X001825Y001211D01*
X002129Y001211D01*
X001989Y001071D01*
X001989Y000941D01*
X002359Y000941D01*
X002359Y000861D01*
X002439Y000861D01*
X002439Y000491D01*
X002569Y000491D01*
X002809Y000731D01*
X002809Y000861D01*
X002439Y000861D01*
X002439Y000941D01*
X002809Y000941D01*
X002809Y001071D01*
X002669Y001211D01*
X002988Y001211D01*
X002889Y001113D01*
X002889Y000690D01*
X003188Y000391D01*
X003610Y000391D01*
X003899Y000680D01*
X004188Y000391D01*
X004610Y000391D01*
X004890Y000671D01*
X004990Y000671D01*
X005119Y000800D01*
X006119Y001800D01*
X006119Y001982D01*
X006119Y002430D01*
X006188Y002459D01*
X006332Y002602D01*
X006409Y002790D01*
X006409Y002993D01*
X006332Y003180D01*
X006188Y003324D01*
X006001Y003401D01*
X005798Y003401D01*
X005610Y003324D01*
X005467Y003180D01*
X005389Y002993D01*
X005389Y002790D01*
X005389Y002819D02*
X005309Y002819D01*
X005389Y002897D02*
X004939Y002897D01*
X004939Y002931D02*
X004939Y002851D01*
X004859Y002851D01*
X004859Y002481D01*
X004818Y002481D01*
X004667Y002544D01*
X004552Y002659D01*
X004489Y002810D01*
X004489Y002851D01*
X004859Y002851D01*
X004859Y002931D01*
X004489Y002931D01*
X004489Y002973D01*
X004552Y003124D01*
X004667Y003239D01*
X004818Y003301D01*
X004859Y003301D01*
X004859Y002931D01*
X004939Y002931D01*
X005309Y002931D01*
X005309Y002973D01*
X005247Y003124D01*
X005131Y003239D01*
X004981Y003301D01*
X004939Y003301D01*
X004939Y002931D01*
X004939Y002976D02*
X004859Y002976D01*
X004859Y003054D02*
X004939Y003054D01*
X004939Y003133D02*
X004859Y003133D01*
X004859Y003211D02*
X004939Y003211D01*
X004939Y003290D02*
X004859Y003290D01*
X004790Y003290D02*
X004222Y003290D01*
X004301Y003211D02*
X004639Y003211D01*
X004561Y003133D02*
X004351Y003133D01*
X004384Y003054D02*
X004523Y003054D01*
X004490Y002976D02*
X004409Y002976D01*
X004409Y002897D02*
X004859Y002897D01*
X004859Y002819D02*
X004939Y002819D01*
X004939Y002740D02*
X004859Y002740D01*
X004859Y002661D02*
X004939Y002661D01*
X004939Y002583D02*
X004859Y002583D01*
X004859Y002504D02*
X004939Y002504D01*
X005036Y002504D02*
X005565Y002504D01*
X005486Y002583D02*
X005171Y002583D01*
X004762Y002504D02*
X004233Y002504D01*
X004312Y002583D02*
X004628Y002583D01*
X004551Y002661D02*
X004356Y002661D01*
X004389Y002740D02*
X004518Y002740D01*
X004489Y002819D02*
X004409Y002819D01*
X004108Y002426D02*
X005679Y002426D01*
X005679Y002347D02*
X004674Y002347D01*
X004753Y002269D02*
X005679Y002269D01*
X005679Y002190D02*
X004832Y002190D01*
X004909Y002112D02*
X005679Y002112D01*
X005679Y002033D02*
X004909Y002033D01*
X004909Y001955D02*
X005651Y001955D01*
X005573Y001876D02*
X004909Y001876D01*
X004909Y001797D02*
X005494Y001797D01*
X005416Y001719D02*
X004909Y001719D01*
X004859Y001640D02*
X005337Y001640D01*
X005259Y001562D02*
X004781Y001562D01*
X004702Y001483D02*
X005180Y001483D01*
X005102Y001405D02*
X004624Y001405D01*
X004696Y001326D02*
X005023Y001326D01*
X004944Y001248D02*
X004774Y001248D01*
X004853Y001169D02*
X004866Y001169D01*
X005252Y000933D02*
X006509Y000933D01*
X006509Y000855D02*
X005174Y000855D01*
X005095Y000776D02*
X006509Y000776D01*
X006509Y000698D02*
X005017Y000698D01*
X004838Y000619D02*
X006509Y000619D01*
X006509Y000541D02*
X004760Y000541D01*
X004681Y000462D02*
X006509Y000462D01*
X006509Y000384D02*
X000289Y000384D01*
X000289Y000462D02*
X003117Y000462D01*
X003039Y000541D02*
X002618Y000541D01*
X002697Y000619D02*
X002960Y000619D01*
X002889Y000698D02*
X002776Y000698D01*
X002809Y000776D02*
X002889Y000776D01*
X002889Y000855D02*
X002809Y000855D01*
X002889Y000933D02*
X002439Y000933D01*
X002359Y000933D02*
X000289Y000933D01*
X000289Y000855D02*
X001989Y000855D01*
X001989Y000861D02*
X001989Y000731D01*
X002229Y000491D01*
X002359Y000491D01*
X002359Y000861D01*
X001989Y000861D01*
X001989Y000776D02*
X000289Y000776D01*
X000289Y000698D02*
X002023Y000698D01*
X002101Y000619D02*
X000289Y000619D01*
X000289Y000541D02*
X002180Y000541D01*
X002359Y000541D02*
X002439Y000541D01*
X002439Y000619D02*
X002359Y000619D01*
X002359Y000698D02*
X002439Y000698D01*
X002439Y000776D02*
X002359Y000776D01*
X002359Y000855D02*
X002439Y000855D01*
X002809Y001012D02*
X002889Y001012D01*
X002889Y001091D02*
X002790Y001091D01*
X002711Y001169D02*
X002946Y001169D01*
X002087Y001169D02*
X000289Y001169D01*
X000289Y001091D02*
X002009Y001091D01*
X001989Y001012D02*
X000289Y001012D01*
X000289Y001248D02*
X001788Y001248D01*
X001719Y001326D02*
X000289Y001326D01*
X000289Y001405D02*
X001719Y001405D01*
X001719Y001483D02*
X000289Y001483D01*
X000289Y001562D02*
X001719Y001562D01*
X001719Y001640D02*
X000289Y001640D01*
X000289Y001719D02*
X001719Y001719D01*
X001719Y001797D02*
X000289Y001797D01*
X000289Y001876D02*
X001719Y001876D01*
X001719Y001955D02*
X000289Y001955D01*
X000289Y002033D02*
X001719Y002033D01*
X001719Y002112D02*
X000289Y002112D01*
X000289Y002190D02*
X001719Y002190D01*
X001719Y002269D02*
X000289Y002269D01*
X000289Y002347D02*
X001719Y002347D01*
X001690Y002426D02*
X001108Y002426D01*
X001233Y002504D02*
X001565Y002504D01*
X001486Y002583D02*
X001312Y002583D01*
X001356Y002661D02*
X001442Y002661D01*
X001410Y002740D02*
X001388Y002740D01*
X001899Y002891D02*
X001899Y001391D01*
X003899Y001391D01*
X004399Y001901D01*
X003967Y002190D02*
X003832Y002190D01*
X003753Y002269D02*
X004045Y002269D01*
X004124Y002347D02*
X003674Y002347D01*
X003690Y002426D02*
X003186Y002426D01*
X003233Y002504D02*
X003565Y002504D01*
X003486Y002583D02*
X003312Y002583D01*
X003356Y002661D02*
X003442Y002661D01*
X003410Y002740D02*
X003388Y002740D01*
X003384Y003054D02*
X003415Y003054D01*
X003447Y003133D02*
X003351Y003133D01*
X003301Y003211D02*
X003498Y003211D01*
X003576Y003290D02*
X003222Y003290D01*
X003080Y003368D02*
X003718Y003368D01*
X004080Y003368D02*
X005718Y003368D01*
X005576Y003290D02*
X005009Y003290D01*
X005159Y003211D02*
X005498Y003211D01*
X005447Y003133D02*
X005238Y003133D01*
X005276Y003054D02*
X005415Y003054D01*
X005389Y002976D02*
X005308Y002976D01*
X006080Y003368D02*
X006509Y003368D01*
X006509Y003290D02*
X006222Y003290D01*
X006301Y003211D02*
X006509Y003211D01*
X006509Y003133D02*
X006351Y003133D01*
X006384Y003054D02*
X006509Y003054D01*
X006509Y002976D02*
X006409Y002976D01*
X006409Y002897D02*
X006509Y002897D01*
X006509Y002819D02*
X006409Y002819D01*
X006389Y002740D02*
X006509Y002740D01*
X006509Y002661D02*
X006356Y002661D01*
X006312Y002583D02*
X006509Y002583D01*
X006509Y002504D02*
X006233Y002504D01*
X006119Y002426D02*
X006509Y002426D01*
X006509Y002347D02*
X006119Y002347D01*
X006119Y002269D02*
X006509Y002269D01*
X006509Y002190D02*
X006119Y002190D01*
X006119Y002112D02*
X006509Y002112D01*
X006509Y002033D02*
X006119Y002033D01*
X006119Y001955D02*
X006509Y001955D01*
X006509Y001876D02*
X006119Y001876D01*
X006116Y001797D02*
X006509Y001797D01*
X006509Y001719D02*
X006038Y001719D01*
X005959Y001640D02*
X006509Y001640D01*
X006509Y001562D02*
X005881Y001562D01*
X005802Y001483D02*
X006509Y001483D01*
X006509Y001405D02*
X005724Y001405D01*
X005645Y001326D02*
X006509Y001326D01*
X006509Y001248D02*
X005567Y001248D01*
X005488Y001169D02*
X006509Y001169D01*
X006509Y001091D02*
X005410Y001091D01*
X005331Y001012D02*
X006509Y001012D01*
X006509Y000305D02*
X000289Y000305D01*
X000289Y000281D02*
X000289Y003751D01*
X006509Y003751D01*
X006509Y000281D01*
X000289Y000281D01*
X003681Y000462D02*
X004117Y000462D01*
X004039Y000541D02*
X003760Y000541D01*
X003838Y000619D02*
X003960Y000619D01*
X000690Y002426D02*
X000289Y002426D01*
X000289Y002504D02*
X000565Y002504D01*
X000486Y002583D02*
X000289Y002583D01*
X000289Y002661D02*
X000442Y002661D01*
X000410Y002740D02*
X000289Y002740D01*
X000289Y002819D02*
X000389Y002819D01*
X000389Y002897D02*
X000289Y002897D01*
X000289Y002976D02*
X000389Y002976D01*
X000415Y003054D02*
X000289Y003054D01*
X000289Y003133D02*
X000447Y003133D01*
X000498Y003211D02*
X000289Y003211D01*
X000289Y003290D02*
X000576Y003290D01*
X000718Y003368D02*
X000289Y003368D01*
X000289Y003447D02*
X006509Y003447D01*
X006509Y003525D02*
X000289Y003525D01*
X000289Y003604D02*
X006509Y003604D01*
X006509Y003682D02*
X000289Y003682D01*
X001080Y003368D02*
X001718Y003368D01*
X001576Y003290D02*
X001222Y003290D01*
X001301Y003211D02*
X001498Y003211D01*
X001447Y003133D02*
X001351Y003133D01*
X001384Y003054D02*
X001415Y003054D01*
X002080Y003368D02*
X002718Y003368D01*
X002576Y003290D02*
X002222Y003290D01*
X002301Y003211D02*
X002498Y003211D01*
X002447Y003133D02*
X002351Y003133D01*
X002384Y003054D02*
X002415Y003054D01*
D14*
X002899Y002891D02*
X002899Y002401D01*
X003399Y001901D01*
X004399Y000901D02*
X004409Y000891D01*
X004899Y000891D01*
X005899Y001891D01*
X005899Y002891D01*
M02*
