G75*
G70*
%OFA0B0*%
%FSLAX24Y24*%
%IPPOS*%
%LPD*%
%AMOC8*
5,1,8,0,0,1.08239X$1,22.5*
%
%ADD10OC8,0.0740*%
%ADD11OC8,0.0640*%
%ADD12R,0.0740X0.0740*%
%ADD13C,0.0740*%
%ADD14C,0.0100*%
%ADD15C,0.0080*%
D10*
X001161Y001909D03*
X002161Y001909D03*
X002161Y002909D03*
X001161Y002909D03*
X001161Y003909D03*
X002161Y003909D03*
D11*
X002151Y004909D03*
X001151Y004909D03*
X001151Y000909D03*
X002151Y000909D03*
D12*
X005151Y004909D03*
D13*
X005151Y003909D03*
X005151Y002909D03*
X005151Y001909D03*
D14*
X005751Y000309D02*
X000301Y000309D01*
X000301Y005509D01*
X005751Y005509D01*
X005751Y000309D01*
X005751Y000402D02*
X000301Y000402D01*
X000301Y000501D02*
X000924Y000501D01*
X000965Y000459D02*
X001338Y000459D01*
X001601Y000723D01*
X001601Y001096D01*
X001338Y001359D01*
X001336Y001359D01*
X001336Y001409D01*
X001368Y001409D01*
X001661Y001702D01*
X001661Y002116D01*
X001637Y002141D01*
X001831Y002335D01*
X001831Y002484D01*
X001821Y002494D01*
X001821Y002542D01*
X001954Y002409D01*
X001661Y002116D01*
X001661Y001702D01*
X001954Y001409D01*
X002368Y001409D01*
X002661Y001702D01*
X002661Y002116D01*
X002368Y002409D01*
X002387Y002429D01*
X002981Y001835D01*
X003087Y001729D01*
X004685Y001729D01*
X004727Y001626D01*
X004868Y001485D01*
X005052Y001409D01*
X005251Y001409D01*
X005434Y001485D01*
X005575Y001626D01*
X005651Y001810D01*
X005651Y002009D01*
X005575Y002192D01*
X005434Y002333D01*
X005251Y002409D01*
X005052Y002409D01*
X004868Y002333D01*
X004727Y002192D01*
X004685Y002089D01*
X003236Y002089D01*
X002642Y002683D01*
X002661Y002702D01*
X002661Y003116D01*
X002368Y003409D01*
X002387Y003429D01*
X002981Y002835D01*
X003087Y002729D01*
X004685Y002729D01*
X004727Y002626D01*
X004868Y002485D01*
X005052Y002409D01*
X005251Y002409D01*
X005434Y002485D01*
X005575Y002626D01*
X005651Y002810D01*
X005651Y003009D01*
X005575Y003192D01*
X005434Y003333D01*
X005251Y003409D01*
X005052Y003409D01*
X005251Y003409D01*
X005434Y003485D01*
X005575Y003626D01*
X005651Y003810D01*
X005651Y004009D01*
X005575Y004192D01*
X005434Y004333D01*
X005251Y004409D01*
X005052Y004409D01*
X004868Y004333D01*
X004727Y004192D01*
X004651Y004009D01*
X004651Y003810D01*
X004727Y003626D01*
X004868Y003485D01*
X005052Y003409D01*
X004868Y003333D01*
X004727Y003192D01*
X004685Y003089D01*
X003236Y003089D01*
X002642Y003683D01*
X002661Y003702D01*
X002661Y004116D01*
X002368Y004409D01*
X001954Y004409D01*
X001821Y004276D01*
X001821Y004325D01*
X001831Y004335D01*
X001831Y004484D01*
X001597Y004718D01*
X001601Y004723D01*
X001601Y005096D01*
X001338Y005359D01*
X000965Y005359D01*
X000701Y005096D01*
X000701Y004723D01*
X000965Y004459D01*
X001338Y004459D01*
X001342Y004464D01*
X001481Y004325D01*
X001481Y004296D01*
X001368Y004409D01*
X000954Y004409D01*
X000661Y004116D01*
X000661Y003702D01*
X000954Y003409D01*
X000661Y003116D01*
X000661Y002702D01*
X000954Y002409D01*
X000661Y002116D01*
X000661Y001702D01*
X000954Y001409D01*
X000976Y001409D01*
X000976Y001359D01*
X000965Y001359D01*
X000701Y001096D01*
X000701Y000723D01*
X000965Y000459D01*
X000825Y000599D02*
X000301Y000599D01*
X000301Y000698D02*
X000726Y000698D01*
X000701Y000796D02*
X000301Y000796D01*
X000301Y000895D02*
X000701Y000895D01*
X000701Y000993D02*
X000301Y000993D01*
X000301Y001092D02*
X000701Y001092D01*
X000796Y001190D02*
X000301Y001190D01*
X000301Y001289D02*
X000894Y001289D01*
X000976Y001387D02*
X000301Y001387D01*
X000301Y001486D02*
X000877Y001486D01*
X000779Y001585D02*
X000301Y001585D01*
X000301Y001683D02*
X000680Y001683D01*
X000661Y001782D02*
X000301Y001782D01*
X000301Y001880D02*
X000661Y001880D01*
X000661Y001979D02*
X000301Y001979D01*
X000301Y002077D02*
X000661Y002077D01*
X000721Y002176D02*
X000301Y002176D01*
X000301Y002274D02*
X000819Y002274D01*
X000918Y002373D02*
X000301Y002373D01*
X000301Y002471D02*
X000892Y002471D01*
X000954Y002409D02*
X001368Y002409D01*
X000954Y002409D01*
X000793Y002570D02*
X000301Y002570D01*
X000301Y002669D02*
X000695Y002669D01*
X000661Y002767D02*
X000301Y002767D01*
X000301Y002866D02*
X000661Y002866D01*
X000661Y002964D02*
X000301Y002964D01*
X000301Y003063D02*
X000661Y003063D01*
X000706Y003161D02*
X000301Y003161D01*
X000301Y003260D02*
X000805Y003260D01*
X000903Y003358D02*
X000301Y003358D01*
X000301Y003457D02*
X000906Y003457D01*
X000954Y003409D02*
X001368Y003409D01*
X000954Y003409D01*
X000808Y003555D02*
X000301Y003555D01*
X000301Y003654D02*
X000709Y003654D01*
X000661Y003752D02*
X000301Y003752D01*
X000301Y003851D02*
X000661Y003851D01*
X000661Y003950D02*
X000301Y003950D01*
X000301Y004048D02*
X000661Y004048D01*
X000691Y004147D02*
X000301Y004147D01*
X000301Y004245D02*
X000790Y004245D01*
X000889Y004344D02*
X000301Y004344D01*
X000301Y004442D02*
X001364Y004442D01*
X001434Y004344D02*
X001462Y004344D01*
X001651Y004409D02*
X001151Y004909D01*
X001466Y005231D02*
X001836Y005231D01*
X001935Y005329D02*
X001368Y005329D01*
X001565Y005132D02*
X001738Y005132D01*
X001701Y005096D02*
X001701Y004723D01*
X001965Y004459D01*
X002338Y004459D01*
X002601Y004723D01*
X002601Y005096D01*
X002338Y005359D01*
X001965Y005359D01*
X001701Y005096D01*
X001701Y005034D02*
X001601Y005034D01*
X001601Y004935D02*
X001701Y004935D01*
X001701Y004836D02*
X001601Y004836D01*
X001601Y004738D02*
X001701Y004738D01*
X001676Y004639D02*
X001785Y004639D01*
X001774Y004541D02*
X001883Y004541D01*
X001831Y004442D02*
X004694Y004442D01*
X004727Y004409D02*
X004651Y004485D01*
X004651Y005333D01*
X004727Y005409D01*
X005575Y005409D01*
X005651Y005333D01*
X005651Y004485D01*
X005575Y004409D01*
X004727Y004409D01*
X004780Y004245D02*
X002532Y004245D01*
X002434Y004344D02*
X004894Y004344D01*
X004708Y004147D02*
X002631Y004147D01*
X002661Y004048D02*
X004668Y004048D01*
X004651Y003950D02*
X002661Y003950D01*
X002661Y003851D02*
X004651Y003851D01*
X004675Y003752D02*
X002661Y003752D01*
X002671Y003654D02*
X004716Y003654D01*
X004798Y003555D02*
X002770Y003555D01*
X002868Y003457D02*
X004937Y003457D01*
X004929Y003358D02*
X002967Y003358D01*
X003065Y003260D02*
X004795Y003260D01*
X004714Y003161D02*
X003164Y003161D01*
X003161Y002909D02*
X005151Y002909D01*
X005508Y003260D02*
X005751Y003260D01*
X005751Y003358D02*
X005374Y003358D01*
X005365Y003457D02*
X005751Y003457D01*
X005751Y003555D02*
X005504Y003555D01*
X005587Y003654D02*
X005751Y003654D01*
X005751Y003752D02*
X005627Y003752D01*
X005651Y003851D02*
X005751Y003851D01*
X005751Y003950D02*
X005651Y003950D01*
X005635Y004048D02*
X005751Y004048D01*
X005751Y004147D02*
X005594Y004147D01*
X005522Y004245D02*
X005751Y004245D01*
X005751Y004344D02*
X005409Y004344D01*
X005608Y004442D02*
X005751Y004442D01*
X005751Y004541D02*
X005651Y004541D01*
X005651Y004639D02*
X005751Y004639D01*
X005751Y004738D02*
X005651Y004738D01*
X005651Y004836D02*
X005751Y004836D01*
X005751Y004935D02*
X005651Y004935D01*
X005651Y005034D02*
X005751Y005034D01*
X005751Y005132D02*
X005651Y005132D01*
X005651Y005231D02*
X005751Y005231D01*
X005751Y005329D02*
X005651Y005329D01*
X005751Y005428D02*
X000301Y005428D01*
X000301Y005329D02*
X000935Y005329D01*
X000836Y005231D02*
X000301Y005231D01*
X000301Y005132D02*
X000738Y005132D01*
X000701Y005034D02*
X000301Y005034D01*
X000301Y004935D02*
X000701Y004935D01*
X000701Y004836D02*
X000301Y004836D01*
X000301Y004738D02*
X000701Y004738D01*
X000785Y004639D02*
X000301Y004639D01*
X000301Y004541D02*
X000883Y004541D01*
X001831Y004344D02*
X001889Y004344D01*
X002161Y003909D02*
X003161Y002909D01*
X003049Y002767D02*
X002661Y002767D01*
X002656Y002669D02*
X004710Y002669D01*
X004783Y002570D02*
X002755Y002570D01*
X002854Y002471D02*
X004902Y002471D01*
X004964Y002373D02*
X002952Y002373D01*
X003051Y002274D02*
X004809Y002274D01*
X004720Y002176D02*
X003149Y002176D01*
X003161Y001909D02*
X005151Y001909D01*
X005534Y001585D02*
X005751Y001585D01*
X005751Y001683D02*
X005599Y001683D01*
X005639Y001782D02*
X005751Y001782D01*
X005751Y001880D02*
X005651Y001880D01*
X005651Y001979D02*
X005751Y001979D01*
X005751Y002077D02*
X005623Y002077D01*
X005582Y002176D02*
X005751Y002176D01*
X005751Y002274D02*
X005493Y002274D01*
X005338Y002373D02*
X005751Y002373D01*
X005751Y002471D02*
X005401Y002471D01*
X005519Y002570D02*
X005751Y002570D01*
X005751Y002669D02*
X005593Y002669D01*
X005633Y002767D02*
X005751Y002767D01*
X005751Y002866D02*
X005651Y002866D01*
X005651Y002964D02*
X005751Y002964D01*
X005751Y003063D02*
X005629Y003063D01*
X005588Y003161D02*
X005751Y003161D01*
X004651Y004541D02*
X002419Y004541D01*
X002518Y004639D02*
X004651Y004639D01*
X004651Y004738D02*
X002601Y004738D01*
X002601Y004836D02*
X004651Y004836D01*
X004651Y004935D02*
X002601Y004935D01*
X002601Y005034D02*
X004651Y005034D01*
X004651Y005132D02*
X002565Y005132D01*
X002466Y005231D02*
X004651Y005231D01*
X004651Y005329D02*
X002368Y005329D01*
X001821Y003542D02*
X001954Y003409D01*
X001821Y003276D01*
X001821Y003542D01*
X001821Y003457D02*
X001906Y003457D01*
X001954Y003409D02*
X002368Y003409D01*
X001954Y003409D01*
X001903Y003358D02*
X001821Y003358D01*
X001481Y003358D02*
X001419Y003358D01*
X001368Y003409D02*
X001481Y003296D01*
X001481Y003522D01*
X001368Y003409D01*
X001416Y003457D02*
X001481Y003457D01*
X002161Y002909D02*
X003161Y001909D01*
X003034Y001782D02*
X002661Y001782D01*
X002661Y001880D02*
X002936Y001880D01*
X002837Y001979D02*
X002661Y001979D01*
X002661Y002077D02*
X002739Y002077D01*
X002640Y002176D02*
X002602Y002176D01*
X002542Y002274D02*
X002503Y002274D01*
X002443Y002373D02*
X002405Y002373D01*
X002368Y002409D02*
X001954Y002409D01*
X002368Y002409D01*
X001918Y002373D02*
X001831Y002373D01*
X001819Y002274D02*
X001771Y002274D01*
X001721Y002176D02*
X001672Y002176D01*
X001661Y002077D02*
X001661Y002077D01*
X001661Y001979D02*
X001661Y001979D01*
X001661Y001880D02*
X001661Y001880D01*
X001661Y001782D02*
X001661Y001782D01*
X001642Y001683D02*
X001680Y001683D01*
X001779Y001585D02*
X001544Y001585D01*
X001445Y001486D02*
X001877Y001486D01*
X001965Y001359D02*
X001701Y001096D01*
X001701Y000723D01*
X001965Y000459D01*
X002338Y000459D01*
X002601Y000723D01*
X002601Y001096D01*
X002338Y001359D01*
X001965Y001359D01*
X001894Y001289D02*
X001408Y001289D01*
X001336Y001387D02*
X005751Y001387D01*
X005751Y001289D02*
X002408Y001289D01*
X002506Y001190D02*
X005751Y001190D01*
X005751Y001092D02*
X002601Y001092D01*
X002601Y000993D02*
X005751Y000993D01*
X005751Y000895D02*
X002601Y000895D01*
X002601Y000796D02*
X005751Y000796D01*
X005751Y000698D02*
X002576Y000698D01*
X002477Y000599D02*
X005751Y000599D01*
X005751Y000501D02*
X002379Y000501D01*
X001924Y000501D02*
X001379Y000501D01*
X001477Y000599D02*
X001825Y000599D01*
X001726Y000698D02*
X001576Y000698D01*
X001601Y000796D02*
X001701Y000796D01*
X001701Y000895D02*
X001601Y000895D01*
X001601Y000993D02*
X001701Y000993D01*
X001701Y001092D02*
X001601Y001092D01*
X001506Y001190D02*
X001796Y001190D01*
X001151Y000919D02*
X001151Y000909D01*
X001151Y000919D02*
X001161Y001909D01*
X001161Y001919D01*
X001651Y002409D01*
X001481Y002494D02*
X001382Y002395D01*
X001368Y002409D01*
X001481Y002522D01*
X001481Y002494D01*
X001459Y002471D02*
X001430Y002471D01*
X001831Y002471D02*
X001892Y002471D01*
X002661Y002866D02*
X002950Y002866D01*
X002852Y002964D02*
X002661Y002964D01*
X002661Y003063D02*
X002753Y003063D01*
X002655Y003161D02*
X002616Y003161D01*
X002556Y003260D02*
X002518Y003260D01*
X002458Y003358D02*
X002419Y003358D01*
X002642Y001683D02*
X004704Y001683D01*
X004769Y001585D02*
X002544Y001585D01*
X002445Y001486D02*
X004867Y001486D01*
X005435Y001486D02*
X005751Y001486D01*
D15*
X001651Y002409D02*
X001651Y004409D01*
M02*
